<svg width="22" height="30" viewBox="0 0 22 30" fill="none" xmlns="http://www.w3.org/2000/svg"><path d="M1.96491 10.3851c0-4.67332 3.86973-8.46194 8.64309-8.46194 4.7733 0 8.643 3.78862 8.643 8.46194 0 1.1339-.2279 2.2154-.6411 3.2032l.15.0315c.5948.1246 1.1671.3356 1.698.6262.4887-1.1939.7574-2.4963.7574-3.8609C21.2153 4.64943 16.4664 0 10.608 0 4.74954 0 .00057982 4.64943.00057982 10.3851c0 2.0339.59715618 3.9309 1.62961018 5.5333.62494-.2993 1.30001-.4853 1.99261-.5493-1.07998-1.4464-1.66074-3.1923-1.65789-4.984zm15.71459 0c0 1.0254-.2278 1.9985-.6364 2.8739l-1.3279-.2784v-2.5955c-.0044-.65668-.1408-1.30604-.4015-1.91105-.2607-.60501-.6406-1.15382-1.118-1.6151-.4773-.46128-1.0428-.82599-1.6641-1.0733-.6213-.24732-1.2863-.37241-1.957-.36811-.67073.00429-1.33399.13788-1.95195.39313-.61797.25525-1.17853.62717-1.64968 1.09451-.47115.46735-.84367 1.02098-1.09628 1.62928-.25261.60829-.38037 1.25935-.37599 1.91594v4.7233c-.79988-.8177-1.38271-1.815-1.69743-2.9045-.31472-1.0895-.35172-2.2379-.10775-3.34466.24397-1.10674.76146-2.13802 1.50711-3.00346.74566-.86544 1.69674-1.53864 2.76989-1.96059 1.07315-.42196 2.23558-.57981 3.38558-.4597 1.1499.1201 2.2522.51448 3.2103 1.14858.9581.63411 1.7427 1.48858 2.2851 2.48855s.826 2.11491.826 3.24718zM10.608 6.92337c-.93779 0-1.83713.36472-2.50022 1.01391-.66309.64919-1.03561 1.52968-1.03561 2.44782v7.2833l-1.46932-.5292c-2.46563-.8885-5.148903.6369-5.5826272 3.1747-.054556.3247.0019973.6579.1608632.9478.158867.2899.411141.5203.717585.6554C6.62901 24.4457 9.06635 26.8227 9.91573 28.602c.38427.8054 1.27527 1.5101 2.38317 1.3831l4.9045-.5623c.6604-.0756 1.2827-.3426 1.7872-.7666.5045-.424.8682-.9859 1.0446-1.6135l1.8032-6.4211c.163-.5805.2032-1.1874.1182-1.7837-.085-.5963-.2934-1.1693-.6125-1.6839-.3191-.5147-.7422-.9601-1.2433-1.3091-.501-.349-1.0696-.5941-1.6709-.7204l-4.2861-.9008v-3.8386c0-.91814-.3726-1.79863-1.0357-2.44782-.663-.64919-1.5624-1.01391-2.5001-1.01391z" fill="#E72E80"/></svg>