<svg width="210" height="40" viewBox="0 0 210 40" fill="none" xmlns="http://www.w3.org/2000/svg"><path d="M52.2487 12.9966v14.0398h-2.6378V15.1828h-3.0047v-2.1862h5.6425zM55.2919 20.4175h5.5799v2.0892h-5.5799v-2.0892zM65.8027 26.4735c-.8693-.447-1.5936-1.127-2.0899-1.9622-.4923-.865-.7509-1.8406-.7509-2.8331 0-.9924.2586-1.968.7509-2.833.4976-.8263 1.2176-1.4998 2.0798-1.9455.9363-.4799 1.979-.7212 3.0335-.702.9763-.0215 1.9425.1992 2.8103.6418.7863.4083 1.4219 1.0518 1.816 1.8386l-1.9479 1.1232c-.2819-.467-.6847-.8513-1.1668-1.1132-.6254-.3177-1.3351-.4362-2.0314-.3392-.6964.0969-1.3453.4046-1.8576.8808-.6223.6083-.9334 1.4206-.9334 2.4368 0 1.0163.3077 1.8286.9232 2.437.5135.4741 1.1623.7805 1.8581.8774.6958.0969 1.405-.0204 2.031-.3359.4821-.2619.8848-.6462 1.1667-1.1132l1.9581 1.1366c-.4077.7864-1.0483 1.4313-1.8363 1.8486-.8591.4475-1.8192.6718-2.79.6518-1.0505.0189-2.0893-.22-3.0234-.6953zM75.5453 12.1553h2.5363v14.8755h-2.5363V12.1553zM81.5302 14.1308c-.1474-.1382-.2647-.3046-.3449-.4891s-.1216-.3831-.1216-.5839c0-.2008.0414-.3995.1216-.584.0802-.1845.1975-.3509.3449-.4891.3132-.2884.7287-.4433 1.1565-.4312.4244-.0129.8378.1341 1.1566.4112.1501.1274.2698.2862.3505.4647.0806.1786.1203.3727.1162.5682.0054.2066-.0324.4121-.111.6036-.0785.1915-.1962.365-.3455.5096-.1531.1499-.3355.2672-.5362.3448-.2006.0777-.4152.1139-.6306.1064-.4278.0122-.8433-.1428-1.1565-.4312zm-.1218 2.1929h2.5364v10.7137h-2.5364V16.3237zM89.22 26.4735c-.8694-.447-1.5937-1.127-2.09-1.9622-.4923-.865-.7508-1.8406-.7508-2.8331 0-.9924.2585-1.968.7508-2.833.4977-.8263 1.2177-1.4998 2.0798-1.9455.9363-.4799 1.979-.7212 3.0335-.702.9763-.0215 1.9425.1992 2.8103.6418.7863.4083 1.4219 1.0518 1.816 1.8386l-1.9428 1.1365c-.2819-.4669-.6847-.8512-1.1668-1.1131-.6254-.3177-1.3351-.4362-2.0314-.3392-.6964.0969-1.3453.4046-1.8576.8807-.6223.6084-.9334 1.4207-.9334 2.4369s.3055 1.8285.9165 2.4369c.5134.4742 1.1622.7806 1.858.8775.6959.0969 1.405-.0204 2.031-.3359.4821-.262.8849-.6462 1.1668-1.1132l1.9479 1.1232c-.4046.7847-1.0409 1.4294-1.8245 1.8486-.8591.4475-1.8191.6718-2.79.6518-1.0504.0189-2.0892-.22-3.0233-.6953zM103.382 22.4436l-1.888 1.765v2.828h-2.5359V12.1611h2.5359v8.9855l5.259-4.8237h3.044l-4.525 4.4961 4.951 6.2176h-3.084l-3.757-4.593zM119.263 26.4536c-.822-.4444-1.5-1.1081-1.958-1.9154-.481-.848-.725-1.8063-.711-2.7779-.015-.9685.23-1.9238.711-2.7678.46-.803 1.138-1.4629 1.958-1.9054.868-.4638 1.843-.6987 2.83-.682.853-.0148 1.697.1672 2.466.5315.711.3438 1.307.8836 1.716 1.5544l-1.081.7221c-.332-.5019-.795-.906-1.341-1.17-.55-.2628-1.154-.3966-1.765-.3911-.726-.0111-1.443.1652-2.08.5114-.612.3374-1.112.8424-1.44 1.4542-.341.6671-.518 1.4039-.518 2.1511 0 .7471.177 1.4839.518 2.1511.331.6075.83 1.1086 1.44 1.444.637.3463 1.354.5226 2.08.5115.61.0057 1.214-.1245 1.765-.3811.548-.2607 1.012-.6655 1.341-1.17l1.076.7221c-.41.6727-1.009 1.2128-1.725 1.5544-.766.3622-1.607.5441-2.457.5315-.985.0168-1.958-.2168-2.825-.6786zM137.566 17.5598c.789.7688 1.184 1.8887 1.184 3.3595v6.1173h-1.441v-5.9769c0-1.0964-.277-1.9322-.832-2.5071-.554-.575-1.344-.8625-2.367-.8625-1.15 0-2.06.3377-2.729 1.0129-.67.6753-1.006 1.609-1.008 2.8013v5.5323h-1.441V12.1611h1.441v6.1842c.394-.6167.957-1.1104 1.623-1.424.74-.3445 1.55-.5161 2.368-.5014 1.343-.0089 2.411.371 3.202 1.1399zM152.003 22.2013h-8.928c.022.5051.146 1.0006.366 1.4571.219.4566.53.8648.912 1.2005.771.6752 1.745 1.0128 2.922 1.0128.626.0071 1.248-.1124 1.826-.351.553-.2326 1.045-.5857 1.441-1.0329l.811.9226c-.477.5645-1.086 1.0052-1.775 1.2837-.744.3005-1.541.4506-2.344.4412-1.014.0199-2.017-.2184-2.912-.6919-.827-.4437-1.512-1.1072-1.978-1.9155-.481-.844-.726-1.7993-.71-2.7678-.017-.9646.216-1.9174.676-2.7679.43-.7928 1.074-1.4524 1.86-1.9054.812-.4598 1.733-.6954 2.669-.6819.932-.0143 1.85.2214 2.658.6819.781.4509 1.42 1.107 1.846 1.8954.461.8539.694 1.8101.677 2.7779l-.017.4412zm-7.741-3.6002c-.705.6677-1.128 1.5741-1.184 2.5372h7.568c-.056-.9631-.479-1.8695-1.183-2.5372-.717-.6267-1.641-.9727-2.597-.9727-.957 0-1.881.346-2.598.9727h-.006zM156.56 26.4536c-.822-.4439-1.5-1.1078-1.958-1.9154-.481-.8476-.727-1.806-.712-2.7779-.016-.9688.23-1.9243.712-2.7678.46-.8034 1.138-1.4634 1.958-1.9054.869-.4638 1.844-.6987 2.831-.682.852-.0148 1.696.1672 2.465.5315.715.3432 1.313.8844 1.721 1.5578l-1.075.722c-.332-.5022-.794-.9064-1.339-1.17-.55-.2628-1.155-.3966-1.766-.3911-.726-.011-1.443.1652-2.079.5115-.613.3369-1.113.842-1.441 1.4541-.34.6672-.518 1.4039-.518 2.1511 0 .7472.178 1.4839.518 2.1511.33.6079.83 1.1091 1.441 1.4441.636.3462 1.353.5225 2.079.5114.61.0058 1.214-.1245 1.766-.381.547-.2604 1.01-.6653 1.339-1.17l1.075.722c-.409.6731-1.009 1.2133-1.724 1.5544-.766.3622-1.607.5441-2.456.5315-.989.0179-1.966-.217-2.837-.6819zM170.186 21.7416l-2.516 2.2865v3.0085h-1.441V12.1611h1.441v10.0886l6.371-5.7596h1.786l-4.566 4.3122 4.999 6.2343h-1.766l-4.308-5.295zM179.583 26.4438c-.815-.45-1.49-1.1126-1.95-1.9155-.466-.8498-.71-1.8012-.71-2.7678 0-.9667.244-1.918.71-2.7679.459-.8014 1.134-1.4611 1.95-1.9054.856-.4478 1.81-.6819 2.779-.6819.969 0 1.924.2341 2.78.6819.815.444 1.487 1.1054 1.94 1.9088.459.8518.7 1.8024.7 2.7678 0 .9655-.241 1.916-.7 2.7679-.455.8033-1.125 1.4664-1.938 1.9154-.855.4542-1.81.692-2.78.692-.97 0-1.925-.2378-2.78-.692l-.001-.0033zm4.819-1.0831c.601-.3406 1.091-.8455 1.41-1.4541.333-.6674.507-1.4018.507-2.1461 0-.7444-.174-1.4787-.507-2.1461-.319-.6086-.809-1.1135-1.41-1.4541-.626-.3356-1.327-.5113-2.04-.5113-.712 0-1.413.1757-2.039.5113-.603.3421-1.095.8463-1.42 1.4541-.34.6654-.518 1.4005-.518 2.1461 0 .7455.178 1.4807.518 2.1461.325.6078.817 1.112 1.42 1.4541.626.3356 1.327.5113 2.039.5113.713 0 1.414-.1757 2.04-.5113zM200.341 16.4893v10.5465h-1.381v-1.9254c-.369.6326-.911 1.1503-1.563 1.4942-.7.3633-1.482.5461-2.272.5315-1.394 0-2.493-.3844-3.297-1.1533-.805-.7688-1.208-1.8953-1.208-3.3795v-6.114h1.441v5.9769c0 1.1143.277 1.9567.832 2.5272.554.5705 1.344.8579 2.367.8624 1.127 0 2.013-.3376 2.658-1.0129.645-.6752.97-1.6145.976-2.818v-5.5356h1.447zM210 26.3949c-.291.2522-.634.4402-1.004.5515-.404.1277-.825.192-1.248.1906-1.001 0-1.772-.2675-2.313-.8023-.542-.5349-.812-1.2903-.812-2.2664v-6.3781h-1.907v-1.2001h1.907v-2.3065h1.441v2.3065h3.246v1.2034h-3.246v6.2979c0 .6284.159 1.1065.476 1.434.318.3276.775.4914 1.37.4914.293.0007.585-.0467.862-.1404.265-.0862.509-.2225.721-.4011l.507 1.0196z" fill="#E72E80"/><path d="M21.2411 0h-2.0155C8.60758 0 0 8.50831 0 19.0038v1.9924C0 31.4917 8.60758 40 19.2256 40h2.0155c10.618 0 19.2256-8.5083 19.2256-19.0038v-1.9924C40.4667 8.50831 31.8591 0 21.2411 0z" fill="#131313"/><path d="M15.7943 28.791v.0451l.0338.0168v-.0452l-.0338-.0167zm.027 3.3846l.0219.0117-.0219-.0117z" fill="#E63081"/><path d="M20.2328 12.8809c-1.9097.0022-3.7406.753-5.091 2.0878-1.3504 1.3349-2.11 3.1446-2.1123 5.0323V30.8c.0322.0234.066.0434.0998.0651.6381.4079 1.3107.7602 2.0105 1.053.2232.0936.4464.1805.6763.2591h.022v-.0401l-.0169-3.2776-.0338-.0167v-.0452l.0355.0167-.0135-3.1923c.9048.697 1.9649 1.1704 3.0921 1.3807 1.1273.2103 2.289.1514 3.3886-.1717 1.0996-.3231 2.1052-.9011 2.9331-1.686.828-.7848 1.4543-1.7538 1.8269-2.8262.3726-1.0724.4808-2.2173.3154-3.3394-.1655-1.122-.5996-2.1888-1.2663-3.1116-.6667-.9227-1.5467-1.6747-2.5668-2.1934-1.0201-.5187-2.1508-.789-3.2979-.7885l-.0017-.005zm0 11.5159c-.8796 0-1.7394-.2578-2.4707-.7408-.7313-.483-1.3013-1.1695-1.6379-1.9728-.3366-.8032-.4246-1.687-.253-2.5397.1715-.8527.5951-1.636 1.217-2.2508.622-.6147 1.4144-1.0334 2.277-1.203.8626-.1696 1.7568-.0826 2.5694.2502.8126.3327 1.5071.8961 1.9958 1.619.4886.7228.7495 1.5727.7495 2.4421-.0014 1.1655-.4703 2.2828-1.304 3.1069-.8337.824-1.9641 1.2876-3.1431 1.2889z" fill="#E63081"/><path d="M28.738 29.83h4.5807v3.1038H20.2345c-.323 0-.6442-.0117-.9621-.0334-.1471-.0117-.2926-.0234-.4397-.0401h-.0338c-1.0107-.1068-2.0051-.3312-2.9624-.6686v-.0401l-.0136-3.2927v-.0451c2.2345 1.0975 4.8039 1.3276 7.2015.6448 2.3976-.6828 4.4493-2.2289 5.7505-4.3333 1.3012-2.1044 1.7573-4.6144 1.2785-7.035-.4788-2.4205-1.8579-4.5758-3.8652-6.0407-2.0072-1.465-4.497-2.13327-6.9782-1.8731-2.4812.2602-4.7737 1.43-6.4253 3.2787-1.6516 1.8487-2.5425 4.242-2.4968 6.708.0456 2.4659 1.0244 4.8254 2.7433 6.6131v4.0281c-2.1549-1.4095-3.84077-3.4167-4.84608-5.7697-.92666-2.1624-1.24057-4.5334-.90809-6.8587.33248-2.3253 1.29882-4.5174 2.79547-6.3413 1.4966-1.824 3.4671-3.21096 5.7004-4.01239 2.2332-.80143 4.6449-.98709 6.9768-.53708 2.3318.45001 4.4958 1.51873 6.2601 3.09157 1.7642 1.5729 3.0622 3.5907 3.7549 5.8371.6927 2.2465.7539 4.6369.1771 6.9151s-1.7698 4.3583-3.4513 6.0174c-.2452.239-.4954.4663-.7525.6836z" fill="#FDECF3"/></svg>