<svg width="418" height="473" viewBox="0 0 418 473" fill="none" xmlns="http://www.w3.org/2000/svg"><path d="M320 103v370H-.00001617l.00000743-170C-.00000391 192.543 89.5431 103 200 103h120z" fill="#2E7CF6"/><g filter="url(#filter0_dd_20_196)"><rect x="71" y="6" width="320" height="350" rx="24" fill="#fff"/><rect x="69" y="4" width="324" height="354" rx="26" stroke="#1F2937" stroke-width="4"/></g><rect x="101" y="103" width="260" height="25" rx="12.5" fill="#F3F3F3"/><rect x="101" y="141" width="260" height="25" rx="12.5" fill="#F3F3F3"/><rect x="101" y="179" width="260" height="25" rx="12.5" fill="#F3F3F3"/><rect x="101" y="217" width="260" height="25" rx="12.5" fill="#F3F3F3"/><rect x="101" y="266.997" width="260" height="50" rx="10" fill="#E72E80"/><path d="M199.872 299.297c-1.054 0-2.004-.183-2.85-.55-.84-.367-1.534-.89-2.08-1.57-.54-.687-.884-1.5-1.03-2.44l2.5-.38c.213.853.65 1.513 1.31 1.98.666.467 1.433.7 2.3.7.513 0 .996-.08 1.45-.24.453-.16.82-.393 1.1-.7.286-.307.43-.683.43-1.13 0-.2-.034-.383-.1-.55-.067-.173-.167-.327-.3-.46-.127-.133-.294-.253-.5-.36-.2-.113-.434-.21-.7-.29l-3.72-1.1c-.32-.093-.667-.217-1.04-.37-.367-.16-.717-.377-1.05-.65-.327-.28-.597-.633-.81-1.06-.207-.433-.31-.967-.31-1.6 0-.927.233-1.703.7-2.33.473-.633 1.106-1.107 1.9-1.42.8-.313 1.686-.467 2.66-.46.986.007 1.866.177 2.64.51.773.327 1.42.803 1.94 1.43.52.627.886 1.383 1.1 2.27l-2.59.45c-.107-.507-.314-.937-.62-1.29-.3-.36-.67-.633-1.11-.82-.434-.187-.897-.287-1.39-.3-.48-.007-.927.067-1.34.22-.407.147-.737.36-.99.64-.247.28-.37.607-.37.98 0 .353.106.643.32.87.213.22.476.397.79.53.32.127.643.233.97.32l2.58.72c.353.093.75.22 1.19.38.44.16.863.383 1.27.67.406.287.74.663 1 1.13.266.467.4 1.06.4 1.78 0 .747-.157 1.403-.47 1.97-.307.56-.724 1.027-1.25 1.4-.527.373-1.13.653-1.81.84-.674.187-1.38.28-2.12.28zm8.414-12.74v-2.21h2.41v2.21h-2.41zm0 12.44v-10.8h2.41v10.8h-2.41zm10.346 5.1c-.6 0-1.177-.093-1.73-.28-.547-.187-1.04-.457-1.48-.81-.44-.347-.8-.767-1.08-1.26l2.22-1.1c.206.393.496.683.87.87.38.193.783.29 1.21.29.5 0 .946-.09 1.34-.27.393-.173.696-.433.91-.78.22-.34.323-.767.31-1.28v-3.07h.3v-8.21h2.11v11.32c0 .273-.014.533-.04.78-.02.253-.057.5-.11.74-.16.7-.467 1.273-.92 1.72-.454.453-1.017.79-1.69 1.01-.667.22-1.407.33-2.22.33zm-.21-4.8c-.994 0-1.86-.25-2.6-.75s-1.314-1.18-1.72-2.04c-.407-.86-.61-1.83-.61-2.91 0-1.093.203-2.067.61-2.92.413-.86.996-1.537 1.75-2.03.753-.5 1.64-.75 2.66-.75 1.026 0 1.886.25 2.58.75.7.493 1.23 1.17 1.59 2.03.36.86.54 1.833.54 2.92 0 1.073-.18 2.043-.54 2.91-.36.86-.897 1.54-1.61 2.04-.714.5-1.597.75-2.65.75zm.37-2.16c.646 0 1.166-.147 1.56-.44.4-.3.69-.717.87-1.25.186-.533.28-1.15.28-1.85 0-.707-.094-1.323-.28-1.85-.18-.533-.464-.947-.85-1.24-.387-.3-.887-.45-1.5-.45-.647 0-1.18.16-1.6.48-.42.313-.73.74-.93 1.28-.2.533-.3 1.127-.3 1.78 0 .66.096 1.26.29 1.8.2.533.503.957.91 1.27.406.313.923.47 1.55.47zm15.494 1.86v-5.2c0-.34-.023-.717-.07-1.13-.047-.413-.157-.81-.33-1.19-.167-.387-.42-.703-.76-.95-.333-.247-.787-.37-1.36-.37-.307 0-.61.05-.91.15-.3.1-.573.273-.82.52-.24.24-.433.573-.58 1-.147.42-.22.96-.22 1.62l-1.43-.61c0-.92.177-1.753.53-2.5.36-.747.887-1.34 1.58-1.78.693-.447 1.547-.67 2.56-.67.8 0 1.46.133 1.98.4s.933.607 1.24 1.02c.307.413.533.853.68 1.32.147.467.24.91.28 1.33.047.413.07.75.07 1.01v6.03h-2.44zm-7.49 0v-10.8h2.15v3.35h.29v7.45h-2.44zm23.143.3c-1.146 0-2.156-.233-3.03-.7-.866-.467-1.546-1.123-2.04-1.97-.486-.847-.73-1.84-.73-2.98v-9.03l2.44-.02v8.99c0 .54.09 1.023.27 1.45.187.427.437.79.75 1.09.314.293.674.517 1.08.67.407.153.827.23 1.26.23.447 0 .87-.077 1.27-.23.407-.16.767-.387 1.08-.68.314-.3.56-.663.74-1.09.18-.427.27-.907.27-1.44v-8.99h2.44v9.05c0 1.14-.246 2.133-.74 2.98-.486.847-1.166 1.503-2.04 1.97-.866.467-1.873.7-3.02.7zm14.185 0c-1.053 0-1.937-.25-2.65-.75-.713-.5-1.25-1.18-1.61-2.04-.36-.867-.54-1.837-.54-2.91 0-1.087.18-2.06.54-2.92.36-.86.887-1.537 1.58-2.03.7-.5 1.563-.75 2.59-.75 1.02 0 1.903.25 2.65.75.753.493 1.337 1.17 1.75 2.03.413.853.62 1.827.62 2.92 0 1.08-.203 2.05-.61 2.91-.407.86-.98 1.54-1.72 2.04s-1.607.75-2.6.75zm-5.21 4.5v-15.6h2.13v7.58h.3v8.02h-2.43zm4.84-6.66c.627 0 1.143-.157 1.55-.47.407-.313.707-.737.9-1.27.2-.54.3-1.14.3-1.8 0-.653-.1-1.247-.3-1.78-.2-.54-.51-.967-.93-1.28-.42-.32-.953-.48-1.6-.48-.613 0-1.113.15-1.5.45-.387.293-.673.707-.86 1.24-.18.527-.27 1.143-.27 1.85 0 .7.09 1.317.27 1.85.187.533.477.95.87 1.25.4.293.923.44 1.57.44z" fill="#fff"/><g filter="url(#filter1_d_20_196)"><rect x="283" y="297.997" width="95" height="95" rx="10" fill="#fff"/></g><path d="M308.436 342.457c-3.755-9.905 1.261-20.99 11.202-24.758 9.941-3.769 21.044 1.206 24.799 11.111.911 2.404 1.305 4.876 1.238 7.296l.338-.052c1.339-.205 2.7-.21 4.039-.013.059-2.916-.428-5.889-1.524-8.781-4.608-12.157-18.234-18.262-30.435-13.637-12.201 4.625-18.356 18.228-13.748 30.385 1.634 4.311 4.402 7.86 7.839 10.441 1.061-1.127 2.318-2.055 3.709-2.737-3.411-2.213-6.024-5.455-7.457-9.255zm32.728-12.406c.824 2.173 1.131 4.416.984 6.594l-2.99.458-2.085-5.501c-.537-1.388-1.342-2.657-2.372-3.734-1.029-1.076-2.261-1.939-3.625-2.54-1.365-.601-2.836-.928-4.329-.961-1.492-.034-2.978.226-4.371.764-1.394.539-2.668 1.346-3.749 2.375-1.082 1.028-1.951 2.259-2.557 3.622-.606 1.362-.937 2.83-.974 4.319-.037 1.488.22 2.969.756 4.357l3.795 10.011c-2.323-1.101-4.338-2.755-5.869-4.816-1.531-2.061-2.53-4.465-2.911-7.004-.381-2.538-.132-5.132.725-7.555.858-2.423 2.298-4.601 4.194-6.343 1.896-1.741 4.19-2.993 6.682-3.647 2.491-.653 5.104-.687 7.609-.1 2.504.588 4.825 1.78 6.758 3.471 1.933 1.691 3.42 3.83 4.329 6.23zm-18 6.823c-.328-.864-.298-1.825.084-2.669.382-.844 1.084-1.503 1.952-1.832.868-.329 1.831-.301 2.677.078.845.379 1.504 1.077 1.832 1.942l3.708 9.783c.365.962 1.354 1.536 2.372 1.379l11.399-1.741c.765-.117 1.546-.077 2.294.118.748.194 1.449.54 2.058 1.014.609.474 1.115 1.068 1.485 1.744.371.677.599 1.422.67 2.191l1.403 15.031c.056.605-.07 1.214-.362 1.748s-.738.969-1.279 1.25l-9.763 5.063c-.122.058-.261.069-.392.033-.234-.055-.448-.174-.618-.343-4.247-4.119-12.304-7.297-26.122-8.224-.03-.664.075-1.327.308-1.95.234-.623.59-1.194 1.049-1.677.459-.483 1.01-.87 1.621-1.136.612-.267 1.27-.408 1.936-.415l6.619-.072c.352-.004.699-.092 1.01-.258.311-.166.577-.404.776-.694.199-.29.325-.624.367-.973.042-.349-.001-.702-.125-1.031l-6.959-18.359zm.491-8.577c-1.953.74-3.533 2.223-4.392 4.122-.86 1.9-.928 4.06-.19 6.006l5.851 15.437-3.485.038c-5.849.064-10.212 5.415-9.076 11.137.147.731.532 1.392 1.096 1.881.564.49 1.274.779 2.021.823 13.966.835 20.952 3.949 24.15 7.05 1.448 1.404 3.87 2.194 6.075 1.05l9.763-5.063c1.314-.682 2.396-1.739 3.106-3.036s1.016-2.775.879-4.245l-1.403-15.033c-.127-1.359-.531-2.677-1.187-3.874-.656-1.196-1.55-2.246-2.629-3.085-1.078-.839-2.317-1.449-3.641-1.793-1.324-.344-2.705-.415-4.058-.208l-9.651 1.474-3.084-8.136c-.737-1.945-2.221-3.518-4.123-4.37-1.903-.853-4.069-.916-6.022-.175zM178.13 49.9966v14.0398h-2.632V52.1828H172.5v-2.1862h5.63zM181.167 57.4175h5.567v2.0892h-5.567v-2.0892zM191.653 63.4735c-.867-.447-1.59-1.127-2.085-1.9622-.491-.865-.749-1.8406-.749-2.8331 0-.9924.258-1.968.749-2.833.497-.8263 1.215-1.4998 2.075-1.9455.935-.4799 1.975-.7212 3.027-.702.974-.0215 1.938.1992 2.804.6418.784.4083 1.419 1.0518 1.812 1.8386l-1.944 1.1232c-.281-.467-.683-.8513-1.164-1.1132-.624-.3177-1.332-.4362-2.027-.3392-.694.0969-1.342.4046-1.853.8808-.621.6083-.931 1.4206-.931 2.4368 0 1.0163.307 1.8286.921 2.437.512.4741 1.159.7805 1.854.8774.694.0969 1.401-.0204 2.026-.3359.481-.2619.883-.6462 1.164-1.1132l1.954 1.1366c-.407.7864-1.046 1.4313-1.832 1.8486-.857.4475-1.815.6718-2.784.6518-1.048.0189-2.085-.22-3.017-.6953zM201.374 49.1553h2.531v14.8755h-2.531V49.1553zM207.345 51.1308c-.147-.1382-.264-.3046-.344-.4891-.08-.1845-.121-.3831-.121-.5839 0-.2008.041-.3995.121-.584.08-.1845.197-.3509.344-.4891.313-.2884.727-.4433 1.154-.4312.424-.0129.836.1341 1.154.4112.15.1274.269.2862.35.4647.08.1786.12.3727.116.5682.005.2066-.033.4121-.111.6036s-.196.365-.345.5096c-.152.1499-.334.2672-.535.3448-.2.0777-.414.1139-.629.1064-.427.0122-.841-.1428-1.154-.4312zm-.121 2.1929h2.53v10.7137h-2.53V53.3237zM215.018 63.4735c-.868-.447-1.59-1.127-2.085-1.9622-.492-.865-.75-1.8406-.75-2.8331 0-.9924.258-1.968.75-2.833.496-.8263 1.214-1.4998 2.075-1.9455.934-.4799 1.974-.7212 3.026-.702.974-.0215 1.938.1992 2.804.6418.785.4083 1.419 1.0518 1.812 1.8386l-1.938 1.1365c-.282-.4669-.683-.8512-1.164-1.1131-.625-.3177-1.333-.4362-2.027-.3392-.695.0969-1.343.4046-1.854.8807-.621.6084-.931 1.4207-.931 2.4369s.305 1.8285.914 2.4369c.513.4742 1.16.7806 1.854.8775.694.0969 1.402-.0204 2.027-.3359.481-.262.882-.6462 1.164-1.1132l1.943 1.1232c-.403.7847-1.038 1.4294-1.82 1.8486-.857.4475-1.815.6718-2.784.6518-1.048.0189-2.084-.22-3.016-.6953zM229.147 59.4436l-1.883 1.765v2.828h-2.53V49.1611h2.53v8.9855l5.247-4.8237h3.037l-4.515 4.4961 4.94 6.2176h-3.077l-3.749-4.593zM244.992 63.4536c-.819-.4444-1.496-1.1081-1.953-1.9154-.479-.848-.724-1.8063-.709-2.7779-.016-.9685.229-1.9238.709-2.7678.459-.803 1.136-1.4629 1.953-1.9054.867-.4638 1.84-.6987 2.824-.682.851-.0148 1.693.1672 2.46.5315.71.3438 1.305.8836 1.713 1.5544l-1.079.7221c-.331-.5019-.794-.906-1.337-1.17-.549-.2628-1.152-.3966-1.762-.3911-.724-.0111-1.44.1652-2.075.5114-.61.3374-1.109.8424-1.437 1.4542-.34.6671-.516 1.4039-.516 2.1511 0 .7471.176 1.4839.516 2.1511.33.6075.829 1.1086 1.437 1.444.635.3463 1.351.5226 2.075.5115.609.0057 1.211-.1245 1.762-.3811.546-.2607 1.009-.6655 1.337-1.17l1.073.7221c-.409.6727-1.007 1.2128-1.72 1.5544-.765.3622-1.604.5441-2.452.5315-.983.0168-1.953-.2168-2.819-.6786zM263.254 54.5598c.787.7688 1.181 1.8887 1.181 3.3595v6.1173h-1.437v-5.9769c0-1.0964-.277-1.9322-.83-2.5071-.554-.575-1.341-.8625-2.362-.8625-1.147 0-2.055.3377-2.723 1.0129-.668.6753-1.003 1.609-1.006 2.8013v5.5323h-1.437V49.1611h1.437v6.1842c.394-.6167.955-1.1104 1.62-1.424.738-.3445 1.546-.5161 2.362-.5014 1.341-.0089 2.406.371 3.195 1.1399zM277.658 59.2013h-8.908c.022.5051.146 1.0006.365 1.4571.22.4566.529.8648.911 1.2005.769.6752 1.741 1.0128 2.915 1.0128.625.0071 1.245-.1124 1.822-.351.551-.2326 1.043-.5857 1.437-1.0329l.81.9226c-.476.5645-1.084 1.0052-1.771 1.2837-.742.3005-1.537.4506-2.339.4412-1.012.0199-2.012-.2184-2.905-.6919-.825-.4437-1.509-1.1072-1.974-1.9155-.479-.844-.724-1.7993-.708-2.7678-.017-.9646.215-1.9174.675-2.7679.429-.7928 1.071-1.4524 1.855-1.9054.81-.4598 1.729-.6954 2.663-.6819.93-.0143 1.846.2214 2.652.6819.779.4509 1.417 1.107 1.842 1.8954.46.8539.692 1.8101.675 2.7779l-.017.4412zm-7.724-3.6002c-.702.6677-1.124 1.5741-1.18 2.5372h7.551c-.056-.9631-.478-1.8695-1.181-2.5372-.715-.6267-1.637-.9727-2.591-.9727-.955 0-1.877.346-2.592.9727h-.007zM282.205 63.4536c-.82-.4439-1.497-1.1078-1.953-1.9154-.481-.8476-.726-1.806-.711-2.7779-.016-.9688.229-1.9243.711-2.7678.458-.8034 1.135-1.4634 1.953-1.9054.867-.4638 1.839-.6987 2.824-.682.851-.0148 1.693.1672 2.46.5315.713.3432 1.31.8844 1.718 1.5578l-1.073.722c-.331-.5022-.793-.9064-1.337-1.17-.549-.2628-1.151-.3966-1.761-.3911-.725-.011-1.44.1652-2.075.5115-.611.3369-1.11.842-1.437 1.4541-.34.6672-.517 1.4039-.517 2.1511 0 .7472.177 1.4839.517 2.1511.329.6079.828 1.1091 1.437 1.4441.635.3462 1.35.5225 2.075.5114.609.0058 1.211-.1245 1.761-.381.546-.2604 1.009-.6653 1.337-1.17l1.073.722c-.409.6731-1.007 1.2133-1.721 1.5544-.764.3622-1.603.5441-2.45.5315-.987.0179-1.962-.217-2.831-.6819zM295.8 58.7416l-2.51 2.2865v3.0085h-1.438V49.1611h1.438v10.0886l6.357-5.7596h1.781l-4.555 4.3122 4.987 6.2343h-1.761l-4.299-5.295zM305.175 63.4438c-.813-.45-1.486-1.1126-1.945-1.9155-.465-.8498-.708-1.8012-.708-2.7678 0-.9667.243-1.918.708-2.7679.458-.8014 1.131-1.4611 1.945-1.9054.855-.4478 1.807-.6819 2.774-.6819.967 0 1.919.2341 2.774.6819.812.444 1.483 1.1054 1.935 1.9088.458.8518.698 1.8024.698 2.7678 0 .9655-.24 1.916-.698 2.7679-.454.8033-1.123 1.4664-1.934 1.9154-.852.4542-1.805.692-2.773.692-.968 0-1.921-.2378-2.774-.692l-.002-.0033zm4.809-1.0831c.6-.3406 1.088-.8455 1.407-1.4541.332-.6674.505-1.4018.505-2.1461 0-.7444-.173-1.4787-.505-2.1461-.319-.6086-.807-1.1135-1.407-1.4541-.625-.3356-1.324-.5113-2.035-.5113-.711 0-1.41.1757-2.035.5113-.601.3421-1.093.8463-1.417 1.4541-.339.6654-.516 1.4005-.516 2.1461 0 .7455.177 1.4807.516 2.1461.324.6078.816 1.112 1.417 1.4541.625.3356 1.324.5113 2.035.5113.711 0 1.41-.1757 2.035-.5113zM325.887 53.4893v10.5465h-1.378v-1.9254c-.369.6326-.909 1.1503-1.559 1.4942-.699.3633-1.479.5461-2.268.5315-1.39 0-2.486-.3844-3.289-1.1533-.804-.7688-1.205-1.8953-1.205-3.3795v-6.114h1.437v5.9769c0 1.1143.277 1.9567.83 2.5272.554.5705 1.341.8579 2.362.8624 1.125 0 2.009-.3376 2.652-1.0129.644-.6752.968-1.6145.974-2.818v-5.5356h1.444zM335.524 63.3949c-.291.2522-.633.4402-1.002.5515-.403.1277-.823.192-1.245.1906-.999 0-1.768-.2675-2.308-.8023-.54-.5349-.81-1.2903-.81-2.2664v-6.3781h-1.903v-1.2001h1.903v-2.3065h1.437v2.3065h3.239v1.2034h-3.239v6.2979c0 .6284.159 1.1065.476 1.434.317.3276.773.4914 1.367.4914.292.0007.583-.0467.86-.1404.264-.0862.508-.2225.719-.4011l.506 1.0196z" fill="#E72E80"/><path d="M147.193 37h-2.011C134.588 37 126 45.5083 126 56.0038v1.9924C126 68.4917 134.588 77 145.182 77h2.011c10.594 0 19.182-8.5083 19.182-19.0038v-1.9924C166.375 45.5083 157.787 37 147.193 37z" fill="#131313"/><path d="M141.759 65.791v.0451l.033.0168v-.0452l-.033-.0167zm.027 3.3846l.021.0117-.021-.0117z" fill="#E63081"/><path d="M146.187 49.8804c-1.905.0022-3.732.753-5.08 2.0879-1.347 1.3348-2.105 3.1445-2.107 5.0322v10.799c.032.0234.066.0434.1.0652.636.4078 1.307.7602 2.005 1.0529.223.0936.446.1805.675.2591h.022v-.0401l-.017-3.2776-.033-.0167v-.0452l.035.0167-.013-3.1923c.902.697 1.96 1.1704 3.085 1.3807 1.124.2103 2.283.1514 3.381-.1717 1.097-.3231 2.1-.9011 2.926-1.686.826-.7848 1.451-1.7538 1.823-2.8262.372-1.0724.479-2.2173.314-3.3394-.165-1.122-.598-2.1888-1.263-3.1116-.665-.9227-1.543-1.6747-2.561-2.1934-1.018-.5186-2.146-.789-3.29-.7885l-.002-.005zm0 11.5159c-.878 0-1.735-.2578-2.465-.7408-.73-.483-1.299-1.1695-1.634-1.9728-.336-.8032-.424-1.687-.253-2.5397.171-.8527.594-1.636 1.214-2.2508.621-.6147 1.412-1.0334 2.272-1.203.861-.1696 1.753-.0825 2.564.2502.811.3327 1.504.8961 1.991 1.619.488.7229.748 1.5727.748 2.4421-.001 1.1655-.469 2.2828-1.301 3.1069-.832.824-1.96 1.2876-3.136 1.2889z" fill="#E63081"/><path d="M154.673 66.83h4.57v3.1038h-13.054c-.323 0-.643-.0117-.96-.0334-.147-.0117-.292-.0234-.439-.0401h-.034c-1.008-.1068-2-.3312-2.955-.6686v-.0401l-.014-3.2927v-.0451c2.229 1.0975 4.793 1.3276 7.185.6448 2.392-.6828 4.439-2.2289 5.738-4.3333 1.298-2.1044 1.753-4.6144 1.275-7.035-.478-2.4205-1.853-4.5758-3.856-6.0407-2.003-1.465-4.487-2.1333-6.963-1.8731-2.475.2602-4.762 1.43-6.41 3.2787-1.648 1.8487-2.537 4.242-2.491 6.708.045 2.4659 1.022 4.8254 2.737 6.6131v4.0281c-2.15-1.4095-3.832-3.4167-4.835-5.7697-.925-2.1624-1.238-4.5334-.906-6.8587.331-2.3253 1.295-4.5174 2.789-6.3413 1.493-1.824 3.459-3.211 5.687-4.0124 2.228-.8014 4.635-.9871 6.961-.5371 2.327.45 4.486 1.5188 6.246 3.0916 1.76 1.5729 3.055 3.5907 3.746 5.8371.692 2.2465.753 4.6369.177 6.9151-.575 2.2782-1.766 4.3583-3.443 6.0174-.245.239-.495.4663-.751.6836z" fill="#FDECF3"/><defs><filter id="filter0_dd_20_196" x="64" y="0" width="334" height="364" filterUnits="userSpaceOnUse" color-interpolation-filters="sRGB"><feFlood flood-opacity="0" result="BackgroundImageFix"/><feColorMatrix in="SourceAlpha" values="0 0 0 0 0 0 0 0 0 0 0 0 0 0 0 0 0 0 127 0" result="hardAlpha"/><feOffset dy="1"/><feGaussianBlur stdDeviation="1"/><feColorMatrix values="0 0 0 0 0 0 0 0 0 0 0 0 0 0 0 0 0 0 0.06 0"/><feBlend in2="BackgroundImageFix" result="effect1_dropShadow_20_196"/><feColorMatrix in="SourceAlpha" values="0 0 0 0 0 0 0 0 0 0 0 0 0 0 0 0 0 0 127 0" result="hardAlpha"/><feOffset dy="1"/><feGaussianBlur stdDeviation="1.5"/><feColorMatrix values="0 0 0 0 0 0 0 0 0 0 0 0 0 0 0 0 0 0 0.1 0"/><feBlend in2="effect1_dropShadow_20_196" result="effect2_dropShadow_20_196"/><feBlend in="SourceGraphic" in2="effect2_dropShadow_20_196" result="shape"/></filter><filter id="filter1_d_20_196" x="243" y="272.997" width="175" height="175" filterUnits="userSpaceOnUse" color-interpolation-filters="sRGB"><feFlood flood-opacity="0" result="BackgroundImageFix"/><feColorMatrix in="SourceAlpha" values="0 0 0 0 0 0 0 0 0 0 0 0 0 0 0 0 0 0 127 0" result="hardAlpha"/><feMorphology radius="10" in="SourceAlpha" result="effect1_dropShadow_20_196"/><feOffset dy="15"/><feGaussianBlur stdDeviation="25"/><feComposite in2="hardAlpha" operator="out"/><feColorMatrix values="0 0 0 0 0.0313725 0 0 0 0 0.0862745 0 0 0 0 0.172549 0 0 0 0.1 0"/><feBlend in2="BackgroundImageFix" result="effect1_dropShadow_20_196"/><feBlend in="SourceGraphic" in2="effect1_dropShadow_20_196" result="shape"/></filter></defs></svg>