<svg width="334" height="242" viewBox="0 0 334 242" fill="none" xmlns="http://www.w3.org/2000/svg">
<circle cx="152.5" cy="125.5" r="116.5" fill="#2E7CF6"/>
<circle cx="143.5" cy="116.5" r="116.5" fill="#E0EDFF"/>
<path d="M106.94 114.97V107.86H114.17V114.97H106.94ZM106.94 66.97V59.86H114.17V66.97H106.94ZM110.72 109.9C107.68 109.9 104.96 109.34 102.56 108.22C100.16 107.1 98.1897 105.52 96.6497 103.48C95.1297 101.44 94.1597 99.02 93.7397 96.22L100.88 95.08C101.44 97.54 102.64 99.5 104.48 100.96C106.34 102.4 108.56 103.12 111.14 103.12C113.62 103.12 115.66 102.54 117.26 101.38C118.86 100.2 119.66 98.71 119.66 96.91C119.66 95.65 119.28 94.63 118.52 93.85C117.76 93.05 116.54 92.39 114.86 91.87L104.45 88.63C98.3897 86.75 95.3597 83.07 95.3597 77.59C95.3597 75.03 95.9697 72.8 97.1897 70.9C98.4297 68.98 100.17 67.51 102.41 66.49C104.65 65.45 107.29 64.94 110.33 64.96C113.15 64.98 115.66 65.49 117.86 66.49C120.08 67.49 121.92 68.93 123.38 70.81C124.86 72.69 125.91 74.95 126.53 77.59L119.12 78.94C118.84 77.52 118.29 76.27 117.47 75.19C116.65 74.11 115.62 73.27 114.38 72.67C113.14 72.07 111.76 71.75 110.24 71.71C108.78 71.69 107.47 71.92 106.31 72.4C105.15 72.86 104.23 73.52 103.55 74.38C102.87 75.22 102.53 76.17 102.53 77.23C102.53 78.41 103 79.42 103.94 80.26C104.9 81.1 106.41 81.82 108.47 82.42L116.24 84.67C119.98 85.75 122.67 87.22 124.31 89.08C125.97 90.92 126.8 93.37 126.8 96.43C126.8 99.11 126.13 101.46 124.79 103.48C123.45 105.5 121.57 107.08 119.15 108.22C116.73 109.34 113.92 109.9 110.72 109.9ZM140.805 109V73.69L132.705 78.64V70.66L140.805 65.8H148.185V109H140.805ZM172.424 109.9C170.224 109.9 168.174 109.45 166.274 108.55C164.374 107.63 162.734 106.37 161.354 104.77C159.994 103.17 159.014 101.31 158.414 99.19L165.374 97.33C165.654 98.49 166.164 99.49 166.904 100.33C167.664 101.17 168.544 101.82 169.544 102.28C170.564 102.74 171.614 102.97 172.694 102.97C174.094 102.97 175.374 102.63 176.534 101.95C177.694 101.27 178.614 100.36 179.294 99.22C179.974 98.06 180.314 96.78 180.314 95.38C180.314 93.98 179.964 92.71 179.264 91.57C178.584 90.41 177.664 89.5 176.504 88.84C175.344 88.16 174.074 87.82 172.694 87.82C171.034 87.82 169.654 88.12 168.554 88.72C167.474 89.32 166.644 89.96 166.064 90.64L159.884 88.66L161.204 65.8H184.664V72.58H165.074L167.774 70.03L166.814 85.93L165.494 84.31C166.614 83.29 167.914 82.53 169.394 82.03C170.874 81.53 172.304 81.28 173.684 81.28C176.384 81.28 178.774 81.9 180.854 83.14C182.954 84.36 184.594 86.03 185.774 88.15C186.974 90.27 187.574 92.68 187.574 95.38C187.574 98.08 186.874 100.53 185.474 102.73C184.074 104.91 182.224 106.65 179.924 107.95C177.644 109.25 175.144 109.9 172.424 109.9Z" fill="#2E7CF6"/>
<path d="M91.0397 154V135.28H93.4967L100.283 149.359L107.03 135.28H109.513V153.987H106.939V141.182L100.894 154H99.6587L93.6007 141.182V154H91.0397ZM113.415 137.659V135.02H116.132V137.659H113.415ZM113.415 154V139.96H116.132V154H113.415ZM120.296 154V134.89H123.013V154H120.296ZM127.177 154V134.89H129.894V154H127.177ZM134.058 137.659V135.02H136.775V137.659H134.058ZM134.058 154V139.96H136.775V154H134.058ZM146.775 154.39C145.371 154.39 144.154 154.074 143.122 153.441C142.091 152.808 141.294 151.937 140.73 150.828C140.176 149.71 139.898 148.423 139.898 146.967C139.898 145.502 140.184 144.215 140.756 143.106C141.328 141.988 142.13 141.121 143.161 140.506C144.193 139.882 145.397 139.57 146.775 139.57C148.179 139.57 149.397 139.886 150.428 140.519C151.46 141.152 152.257 142.023 152.82 143.132C153.384 144.241 153.665 145.52 153.665 146.967C153.665 148.432 153.379 149.723 152.807 150.841C152.244 151.95 151.447 152.821 150.415 153.454C149.384 154.078 148.171 154.39 146.775 154.39ZM146.775 151.829C148.119 151.829 149.12 151.378 149.778 150.477C150.446 149.567 150.779 148.397 150.779 146.967C150.779 145.502 150.441 144.332 149.765 143.457C149.098 142.573 148.101 142.131 146.775 142.131C145.865 142.131 145.116 142.339 144.526 142.755C143.937 143.162 143.499 143.73 143.213 144.458C142.927 145.177 142.784 146.014 142.784 146.967C142.784 148.44 143.122 149.619 143.798 150.503C144.474 151.387 145.467 151.829 146.775 151.829ZM166.376 154V147.097C166.376 146.551 166.328 145.992 166.233 145.42C166.146 144.839 165.973 144.302 165.713 143.808C165.462 143.314 165.102 142.915 164.634 142.612C164.175 142.309 163.572 142.157 162.827 142.157C162.342 142.157 161.882 142.239 161.449 142.404C161.016 142.56 160.634 142.816 160.305 143.171C159.984 143.526 159.729 143.994 159.538 144.575C159.356 145.156 159.265 145.862 159.265 146.694L157.575 146.057C157.575 144.783 157.813 143.661 158.29 142.69C158.767 141.711 159.451 140.948 160.344 140.402C161.237 139.856 162.316 139.583 163.581 139.583C164.552 139.583 165.366 139.739 166.025 140.051C166.684 140.363 167.217 140.775 167.624 141.286C168.04 141.789 168.356 142.339 168.573 142.937C168.79 143.535 168.937 144.12 169.015 144.692C169.093 145.264 169.132 145.767 169.132 146.2V154H166.376ZM156.509 154V139.96H158.94V144.016H159.265V154H156.509ZM177.983 137.659V135.02H180.7V137.659H177.983ZM177.983 154V139.96H180.7V154H177.983ZM194.458 154V147.097C194.458 146.551 194.411 145.992 194.315 145.42C194.229 144.839 194.055 144.302 193.795 143.808C193.544 143.314 193.184 142.915 192.716 142.612C192.257 142.309 191.655 142.157 190.909 142.157C190.424 142.157 189.965 142.239 189.531 142.404C189.098 142.56 188.717 142.816 188.387 143.171C188.067 143.526 187.811 143.994 187.62 144.575C187.438 145.156 187.347 145.862 187.347 146.694L185.657 146.057C185.657 144.783 185.896 143.661 186.372 142.69C186.849 141.711 187.534 140.948 188.426 140.402C189.319 139.856 190.398 139.583 191.663 139.583C192.634 139.583 193.449 139.739 194.107 140.051C194.766 140.363 195.299 140.775 195.706 141.286C196.122 141.789 196.439 142.339 196.655 142.937C196.872 143.535 197.019 144.12 197.097 144.692C197.175 145.264 197.214 145.767 197.214 146.2V154H194.458ZM184.591 154V139.96H187.022V144.016H187.347V154H184.591ZM99.1314 181V166.466C99.1314 166.111 99.1444 165.734 99.1704 165.335C99.1964 164.928 99.2701 164.529 99.3914 164.139C99.5214 163.74 99.7337 163.376 100.028 163.047C100.384 162.657 100.774 162.38 101.198 162.215C101.623 162.05 102.043 161.955 102.459 161.929C102.884 161.903 103.274 161.89 103.629 161.89H105.397V164.126H103.759C103.118 164.126 102.637 164.286 102.316 164.607C102.004 164.919 101.848 165.365 101.848 165.946V181H99.1314ZM96.8044 169.144V166.96H105.397V169.144H96.8044ZM112.758 181.377C111.788 181.377 110.973 181.221 110.314 180.909C109.656 180.597 109.118 180.19 108.702 179.687C108.295 179.176 107.983 178.621 107.766 178.023C107.55 177.425 107.402 176.84 107.324 176.268C107.246 175.696 107.207 175.193 107.207 174.76V166.96H109.963V173.863C109.963 174.409 110.007 174.972 110.093 175.553C110.189 176.125 110.362 176.658 110.613 177.152C110.873 177.646 111.233 178.045 111.692 178.348C112.16 178.651 112.767 178.803 113.512 178.803C113.998 178.803 114.457 178.725 114.89 178.569C115.324 178.404 115.701 178.144 116.021 177.789C116.351 177.434 116.606 176.966 116.788 176.385C116.979 175.804 117.074 175.098 117.074 174.266L118.764 174.903C118.764 176.177 118.526 177.304 118.049 178.283C117.573 179.254 116.888 180.012 115.995 180.558C115.103 181.104 114.024 181.377 112.758 181.377ZM117.399 181V176.944H117.074V166.96H119.817V181H117.399ZM133.318 181V174.097C133.318 173.551 133.27 172.992 133.175 172.42C133.088 171.839 132.915 171.302 132.655 170.808C132.403 170.314 132.044 169.915 131.576 169.612C131.116 169.309 130.514 169.157 129.769 169.157C129.283 169.157 128.824 169.239 128.391 169.404C127.957 169.56 127.576 169.816 127.247 170.171C126.926 170.526 126.67 170.994 126.48 171.575C126.298 172.156 126.207 172.862 126.207 173.694L124.517 173.057C124.517 171.783 124.755 170.661 125.232 169.69C125.708 168.711 126.393 167.948 127.286 167.402C128.178 166.856 129.257 166.583 130.523 166.583C131.493 166.583 132.308 166.739 132.967 167.051C133.625 167.363 134.158 167.775 134.566 168.286C134.982 168.789 135.298 169.339 135.515 169.937C135.731 170.535 135.879 171.12 135.957 171.692C136.035 172.264 136.074 172.767 136.074 173.2V181H133.318ZM123.451 181V166.96H125.882V171.016H126.207V181H123.451ZM144.859 181.39C143.55 181.39 142.419 181.065 141.466 180.415C140.521 179.765 139.789 178.881 139.269 177.763C138.758 176.636 138.502 175.371 138.502 173.967C138.502 172.554 138.762 171.293 139.282 170.184C139.802 169.066 140.539 168.186 141.492 167.545C142.454 166.895 143.594 166.57 144.911 166.57C146.237 166.57 147.351 166.895 148.252 167.545C149.162 168.186 149.847 169.066 150.306 170.184C150.774 171.302 151.008 172.563 151.008 173.967C151.008 175.371 150.774 176.632 150.306 177.75C149.838 178.868 149.149 179.756 148.239 180.415C147.329 181.065 146.202 181.39 144.859 181.39ZM145.236 178.933C146.129 178.933 146.857 178.721 147.42 178.296C147.983 177.871 148.395 177.286 148.655 176.541C148.915 175.796 149.045 174.938 149.045 173.967C149.045 172.996 148.911 172.138 148.642 171.393C148.382 170.648 147.975 170.067 147.42 169.651C146.874 169.235 146.176 169.027 145.327 169.027C144.426 169.027 143.685 169.248 143.104 169.69C142.523 170.132 142.09 170.726 141.804 171.471C141.527 172.216 141.388 173.048 141.388 173.967C141.388 174.894 141.527 175.735 141.804 176.489C142.09 177.234 142.515 177.828 143.078 178.27C143.65 178.712 144.369 178.933 145.236 178.933ZM149.045 181V170.899H148.733V162.28H151.463V181H149.045ZM155.36 164.659V162.02H158.077V164.659H155.36ZM155.36 181V166.96H158.077V181H155.36ZM171.835 181V174.097C171.835 173.551 171.787 172.992 171.692 172.42C171.605 171.839 171.432 171.302 171.172 170.808C170.921 170.314 170.561 169.915 170.093 169.612C169.634 169.309 169.031 169.157 168.286 169.157C167.801 169.157 167.341 169.239 166.908 169.404C166.475 169.56 166.093 169.816 165.764 170.171C165.443 170.526 165.188 170.994 164.997 171.575C164.815 172.156 164.724 172.862 164.724 173.694L163.034 173.057C163.034 171.783 163.272 170.661 163.749 169.69C164.226 168.711 164.91 167.948 165.803 167.402C166.696 166.856 167.775 166.583 169.04 166.583C170.011 166.583 170.825 166.739 171.484 167.051C172.143 167.363 172.676 167.775 173.083 168.286C173.499 168.789 173.815 169.339 174.032 169.937C174.249 170.535 174.396 171.12 174.474 171.692C174.552 172.264 174.591 172.767 174.591 173.2V181H171.835ZM161.968 181V166.96H164.399V171.016H164.724V181H161.968ZM183.762 187.63C183.008 187.63 182.276 187.513 181.565 187.279C180.863 187.045 180.222 186.698 179.641 186.239C179.061 185.788 178.58 185.229 178.198 184.562L180.707 183.288C181.011 183.886 181.444 184.324 182.007 184.601C182.571 184.878 183.164 185.017 183.788 185.017C184.56 185.017 185.218 184.878 185.764 184.601C186.31 184.332 186.722 183.925 186.999 183.379C187.285 182.833 187.424 182.157 187.415 181.351V177.425H187.74V166.96H190.145V181.377C190.145 181.75 190.132 182.105 190.106 182.443C190.08 182.781 190.033 183.119 189.963 183.457C189.764 184.402 189.383 185.182 188.819 185.797C188.265 186.412 187.554 186.872 186.687 187.175C185.829 187.478 184.854 187.63 183.762 187.63ZM183.554 181.39C182.246 181.39 181.115 181.065 180.161 180.415C179.217 179.765 178.484 178.881 177.964 177.763C177.453 176.636 177.197 175.371 177.197 173.967C177.197 172.554 177.457 171.293 177.977 170.184C178.497 169.066 179.234 168.186 180.187 167.545C181.149 166.895 182.289 166.57 183.606 166.57C184.932 166.57 186.046 166.895 186.947 167.545C187.857 168.186 188.542 169.066 189.001 170.184C189.469 171.302 189.703 172.563 189.703 173.967C189.703 175.371 189.469 176.632 189.001 177.75C188.533 178.868 187.844 179.756 186.934 180.415C186.024 181.065 184.898 181.39 183.554 181.39ZM183.931 178.933C184.824 178.933 185.552 178.721 186.115 178.296C186.679 177.871 187.09 177.286 187.35 176.541C187.61 175.796 187.74 174.938 187.74 173.967C187.74 172.996 187.606 172.138 187.337 171.393C187.077 170.648 186.67 170.067 186.115 169.651C185.569 169.235 184.872 169.027 184.022 169.027C183.121 169.027 182.38 169.248 181.799 169.69C181.219 170.132 180.785 170.726 180.499 171.471C180.222 172.216 180.083 173.048 180.083 173.967C180.083 174.894 180.222 175.735 180.499 176.489C180.785 177.234 181.21 177.828 181.773 178.27C182.345 178.712 183.065 178.933 183.931 178.933Z" fill="#2E7CF6"/>
<path d="M20.526 197.255C20.8651 196.238 22.3018 196.238 22.6409 197.255L24.6295 203.227C25.0672 204.539 25.8046 205.732 26.7834 206.71C27.7621 207.689 28.9553 208.425 30.2683 208.862L36.237 210.851C37.2543 211.19 37.2543 212.627 36.237 212.966L30.2652 214.954C28.9524 215.392 27.7597 216.13 26.7815 217.108C25.8032 218.087 25.0664 219.28 24.6295 220.593L22.6409 226.562C22.5678 226.785 22.4262 226.979 22.2363 227.116C22.0464 227.254 21.8179 227.328 21.5834 227.328C21.349 227.328 21.1205 227.254 20.9306 227.116C20.7407 226.979 20.5991 226.785 20.526 226.562L18.5374 220.59C18.1 219.278 17.3631 218.085 16.3849 217.107C15.4067 216.129 14.2141 215.392 12.9017 214.954L6.92993 212.966C6.70715 212.893 6.51315 212.751 6.37561 212.561C6.23807 212.371 6.16402 212.143 6.16402 211.908C6.16402 211.674 6.23807 211.445 6.37561 211.256C6.51315 211.066 6.70715 210.924 6.92993 210.851L12.9017 208.862C14.2141 208.425 15.4067 207.688 16.3849 206.71C17.3631 205.732 18.1 204.539 18.5374 203.227L20.526 197.255ZM8.61633 181.535C8.66055 181.401 8.74571 181.285 8.85972 181.203C8.97373 181.12 9.11079 181.076 9.25143 181.076C9.39207 181.076 9.52914 181.12 9.64315 181.203C9.75716 181.285 9.84232 181.401 9.88653 181.535L11.0797 185.117C11.613 186.714 12.8647 187.966 14.4617 188.499L18.0442 189.692C18.1777 189.737 18.2939 189.822 18.3762 189.936C18.4585 190.05 18.5029 190.187 18.5029 190.327C18.5029 190.468 18.4585 190.605 18.3762 190.719C18.2939 190.833 18.1777 190.918 18.0442 190.962L14.4617 192.156C13.6741 192.418 12.9584 192.86 12.3714 193.447C11.7843 194.034 11.3421 194.75 11.0797 195.538L9.88653 199.12C9.84232 199.254 9.75716 199.37 9.64315 199.452C9.52914 199.535 9.39207 199.579 9.25143 199.579C9.11079 199.579 8.97373 199.535 8.85972 199.452C8.74571 199.37 8.66055 199.254 8.61633 199.12L7.42321 195.538C7.1608 194.75 6.71855 194.034 6.13152 193.447C5.54448 192.86 4.82879 192.418 4.04116 192.156L0.458711 190.962C0.3252 190.918 0.209016 190.833 0.126669 190.719C0.0443223 190.605 0 190.468 0 190.327C0 190.187 0.0443223 190.05 0.126669 189.936C0.209016 189.822 0.3252 189.737 0.458711 189.692L4.04116 188.499C4.82879 188.237 5.54448 187.795 6.13152 187.207C6.71855 186.62 7.1608 185.905 7.42321 185.117L8.61633 181.535ZM30.4101 178.301C30.4405 178.213 30.4975 178.137 30.5732 178.083C30.6489 178.029 30.7395 178 30.8325 178C30.9254 178 31.016 178.029 31.0917 178.083C31.1674 178.137 31.2244 178.213 31.2548 178.301L32.0502 180.687C32.4048 181.754 33.2403 182.589 34.307 182.944L36.6932 183.739C36.781 183.769 36.8571 183.826 36.911 183.902C36.9649 183.978 36.9938 184.068 36.9938 184.161C36.9938 184.254 36.9649 184.345 36.911 184.421C36.8571 184.496 36.781 184.553 36.6932 184.584L34.307 185.379C33.7813 185.554 33.3036 185.849 32.9119 186.241C32.5201 186.633 32.2251 187.11 32.0502 187.636L31.2548 190.022C31.2244 190.11 31.1674 190.186 31.0917 190.24C31.016 190.294 30.9254 190.323 30.8325 190.323C30.7395 190.323 30.6489 190.294 30.5732 190.24C30.4975 190.186 30.4405 190.11 30.4101 190.022L29.6147 187.636C29.4398 187.11 29.1448 186.633 28.753 186.241C28.3613 185.849 27.8836 185.554 27.3579 185.379L24.9747 184.584C24.887 184.553 24.8108 184.496 24.757 184.421C24.7031 184.345 24.6741 184.254 24.6741 184.161C24.6741 184.068 24.7031 183.978 24.757 183.902C24.8108 183.826 24.887 183.769 24.9747 183.739L27.361 182.944C28.4277 182.589 29.2632 181.754 29.6177 180.687L30.4101 178.304V178.301Z" fill="#2E7CF6"/>
<path d="M306.494 71.4195C307.047 69.7594 309.391 69.7594 309.945 71.4195L313.19 81.1641C313.904 83.3062 315.107 85.2525 316.704 86.8487C318.301 88.445 320.248 89.6472 322.391 90.3603L332.13 93.6051C333.79 94.1585 333.79 96.5028 332.13 97.0562L322.386 100.301C320.244 101.015 318.297 102.219 316.701 103.816C315.105 105.413 313.903 107.36 313.19 109.502L309.945 119.242C309.825 119.605 309.594 119.922 309.284 120.146C308.975 120.371 308.602 120.492 308.219 120.492C307.837 120.492 307.464 120.371 307.154 120.146C306.844 119.922 306.613 119.605 306.494 119.242L303.249 109.497C302.535 107.356 301.332 105.41 299.736 103.814C298.14 102.217 296.194 101.015 294.053 100.301L284.308 97.0562C283.945 96.9369 283.628 96.7058 283.404 96.396C283.179 96.0861 283.058 95.7133 283.058 95.3307C283.058 94.9481 283.179 94.5752 283.404 94.2654C283.628 93.9555 283.945 93.7244 284.308 93.6051L294.053 90.3603C296.194 89.6466 298.14 88.444 299.736 86.8478C301.332 85.2516 302.535 83.3056 303.249 81.1641L306.494 71.4195ZM287.06 45.7678C287.132 45.5499 287.271 45.3603 287.457 45.2259C287.643 45.0916 287.867 45.0193 288.096 45.0193C288.326 45.0193 288.549 45.0916 288.735 45.2259C288.921 45.3603 289.06 45.5499 289.133 45.7678L291.079 51.6135C291.95 54.2194 293.992 56.2619 296.598 57.1322L302.444 59.0791C302.662 59.1513 302.851 59.2902 302.986 59.4763C303.12 59.6623 303.192 59.886 303.192 60.1154C303.192 60.3449 303.12 60.5686 302.986 60.7546C302.851 60.9407 302.662 61.0796 302.444 61.1518L296.598 63.0987C295.313 63.5269 294.145 64.2485 293.187 65.2064C292.229 66.1643 291.508 67.3322 291.079 68.6174L289.133 74.4631C289.06 74.681 288.921 74.8706 288.735 75.005C288.549 75.1393 288.326 75.2116 288.096 75.2116C287.867 75.2116 287.643 75.1393 287.457 75.005C287.271 74.8706 287.132 74.681 287.06 74.4631L285.113 68.6174C284.685 67.3322 283.963 66.1643 283.005 65.2064C282.047 64.2485 280.879 63.5269 279.594 63.0987L273.749 61.1518C273.531 61.0796 273.341 60.9407 273.207 60.7546C273.072 60.5686 273 60.3449 273 60.1154C273 59.886 273.072 59.6623 273.207 59.4763C273.341 59.2902 273.531 59.1513 273.749 59.0791L279.594 57.1322C280.879 56.704 282.047 55.9824 283.005 55.0245C283.963 54.0666 284.685 52.8987 285.113 51.6135L287.06 45.7678ZM322.622 40.4905C322.672 40.3473 322.765 40.2231 322.888 40.1351C323.012 40.0472 323.16 40 323.311 40C323.463 40 323.611 40.0472 323.734 40.1351C323.858 40.2231 323.951 40.3473 324.001 40.4905L325.299 44.3843C325.877 46.1249 327.24 47.4883 328.981 48.0668L332.875 49.3647C333.018 49.4144 333.142 49.5075 333.23 49.631C333.318 49.7545 333.365 49.9023 333.365 50.054C333.365 50.2056 333.318 50.3534 333.23 50.4769C333.142 50.6004 333.018 50.6935 332.875 50.7432L328.981 52.0411C328.123 52.3265 327.344 52.8079 326.705 53.4471C326.065 54.0863 325.584 54.8658 325.299 55.7236L324.001 59.6174C323.951 59.7607 323.858 59.8849 323.734 59.9728C323.611 60.0607 323.463 60.1079 323.311 60.1079C323.16 60.1079 323.012 60.0607 322.888 59.9728C322.765 59.8849 322.672 59.7607 322.622 59.6174L321.324 55.7236C321.039 54.8658 320.557 54.0863 319.918 53.4471C319.279 52.8079 318.5 52.3265 317.642 52.0411L313.753 50.7432C313.61 50.6935 313.486 50.6004 313.398 50.4769C313.31 50.3534 313.262 50.2056 313.262 50.054C313.262 49.9023 313.31 49.7545 313.398 49.631C313.486 49.5075 313.61 49.4144 313.753 49.3647L317.647 48.0668C319.387 47.4883 320.751 46.1249 321.329 44.3843L322.622 40.4955V40.4905Z" fill="#2E7CF6"/>
</svg>
