<svg width="160" height="60" viewBox="0 0 160 60" fill="none" xmlns="http://www.w3.org/2000/svg">
<g clip-path="url(#clip0_404_1267)">
<path fill-rule="evenodd" clip-rule="evenodd" d="M27.0003 49.7794C25.4915 49.7794 24.7229 49.0315 24.7229 47.8022C24.7229 45.5098 27.2622 44.7389 31.894 44.2432C31.894 47.2978 29.8415 49.7794 26.9861 49.7794H27.0003ZM28.9931 32.6007C25.6823 32.6007 21.8761 34.1681 19.8093 35.8272L21.6967 39.8389C23.3536 38.3116 26.0324 37.005 28.4494 37.005C30.7467 37.005 32.0164 37.7787 32.0164 39.3375C32.0164 40.3834 31.1766 40.9135 29.5881 41.1227C23.6496 41.8964 18.9951 43.5469 18.9951 48.1518C18.9951 51.8024 21.5772 54.0117 25.6111 54.0117C28.4921 54.0117 31.0542 52.4013 32.2726 50.2865V53.4386H37.6417V40.2315C37.6417 34.7871 33.8868 32.5892 28.996 32.5892L28.9931 32.6007Z" fill="#101820"/>
<path fill-rule="evenodd" clip-rule="evenodd" d="M82.8779 33.1937V53.4126H88.6228V43.6699C88.6228 39.0422 91.407 37.6811 93.3456 37.6811C94.2184 37.6742 95.0735 37.9285 95.8024 38.4117L96.8529 33.0676C96.0389 32.7396 95.1674 32.5807 94.2908 32.6005C91.3386 32.6005 89.4825 33.9158 88.2584 36.5922V33.1937H82.8779Z" fill="#101820"/>
<path fill-rule="evenodd" clip-rule="evenodd" d="M123.478 32.6005C120.44 32.6005 118.168 34.4057 116.987 36.1479C115.891 33.8985 113.571 32.6005 110.781 32.6005C107.746 32.6005 105.642 34.2968 104.672 36.2511V33.1936H99.1318V53.4126H104.882V43.0022C104.882 39.2771 106.827 37.4747 108.64 37.4747C110.283 37.4747 111.792 38.5435 111.792 41.303V53.4126H117.531V43.0022C117.531 39.2226 119.427 37.4747 121.326 37.4747C122.846 37.4747 124.457 38.5865 124.457 41.2629V53.4126H130.196V39.4347C130.196 34.8929 127.159 32.6005 123.489 32.6005" fill="#101820"/>
<path fill-rule="evenodd" clip-rule="evenodd" d="M68.8981 33.194H63.6942V31.1394C63.6942 28.4631 65.2115 27.7008 66.5182 27.7008C67.4104 27.7126 68.2876 27.9333 69.0803 28.3456L70.851 24.268C70.851 24.268 69.0547 23.0874 65.7894 23.0874C62.1199 23.0874 57.9436 25.1706 57.9436 31.7068V33.194H49.2466V31.1394C49.2466 28.4631 50.7611 27.7008 52.0706 27.7008C52.9643 27.7008 53.8443 27.9222 54.6328 28.3456L56.4035 24.268C55.3473 23.6462 53.6478 23.0874 51.3447 23.0874C47.6752 23.0874 43.4989 25.1706 43.4989 31.7068V33.194H40.1738V37.6527H43.5074V53.413H49.2466V37.6527H57.955V53.413H63.6942V37.6527H68.8981V33.194Z" fill="#101820"/>
<path d="M78.0596 33.1941H72.3262V53.4044H78.0596V33.1941Z" fill="#101820"/>
<path fill-rule="evenodd" clip-rule="evenodd" d="M72.5352 29.7581H78.1519C81.4286 19.3879 92.5454 10.2727 105.766 10.2727C121.845 10.2727 135.74 22.5943 135.74 41.776C135.789 45.7133 135.252 49.6357 134.146 53.4128H139.597L139.652 53.2236C140.57 49.4845 141.023 45.6449 141.001 41.7932C141.001 20.4022 125.514 5.00592 105.777 5.00592C90.2736 5.00592 76.4552 15.8375 72.538 29.7638L72.5352 29.7581Z" fill="#4A4AF4"/>
</g>
<defs>
<clipPath id="clip0_404_1267">
<rect width="122" height="49" fill="white" transform="translate(19 5)"/>
</clipPath>
</defs>
</svg>
