<svg width="160" height="90" viewBox="0 0 160 90" fill="none" xmlns="http://www.w3.org/2000/svg">
<rect width="160" height="90" rx="10" fill="white"/>
<rect x="114" y="10" width="36.1936" height="22" rx="11" fill="#67CE67"/>
<g filter="url(#filter0_d_1302_538)">
<rect x="129.613" y="11.4194" width="19.1613" height="19.1613" rx="9.58064" fill="white"/>
</g>
<path fill-rule="evenodd" clip-rule="evenodd" d="M24.7565 69.9868C23.6716 69.9868 23.1188 69.4525 23.1188 68.5743C23.1188 66.9366 24.9449 66.3859 28.2756 66.0317C28.2756 68.214 26.7996 69.9868 24.7463 69.9868H24.7565ZM26.1895 57.7142C23.8087 57.7142 21.0717 58.834 19.5855 60.0193L20.9427 62.8853C22.1342 61.7942 24.0605 60.8607 25.7985 60.8607C27.4506 60.8607 28.3636 61.4134 28.3636 62.5271C28.3636 63.2743 27.7597 63.653 26.6174 63.8024C22.3471 64.3551 19 65.5343 19 68.824C19 71.4321 20.8567 73.0104 23.7575 73.0104C25.8292 73.0104 27.6717 71.8599 28.5478 70.3492V72.601H32.4087V63.1658C32.4087 59.2762 29.7086 57.7061 26.1916 57.7061L26.1895 57.7142Z" fill="#101820"/>
<path fill-rule="evenodd" clip-rule="evenodd" d="M64.9397 58.1378V72.5824H69.0708V65.6221C69.0708 62.316 71.0729 61.3436 72.467 61.3436C73.0946 61.3387 73.7095 61.5204 74.2337 61.8657L74.9891 58.0477C74.4037 57.8134 73.777 57.6999 73.1467 57.7141C71.0238 57.7141 69.689 58.6537 68.8088 60.5657V58.1378H64.9397Z" fill="#101820"/>
<path fill-rule="evenodd" clip-rule="evenodd" d="M94.1339 57.7141C91.9496 57.7141 90.316 59.0038 89.4665 60.2485C88.6783 58.6415 87.0099 57.7141 85.0037 57.7141C82.8215 57.7141 81.3086 58.926 80.6106 60.3222V58.1379H76.6268V72.5824H80.762V65.1452C80.762 62.4839 82.1602 61.1963 83.4643 61.1963C84.6455 61.1963 85.7304 61.9599 85.7304 63.9313V72.5824H89.8575V65.1452C89.8575 62.445 91.2208 61.1963 92.5863 61.1963C93.6795 61.1963 94.8381 61.9906 94.8381 63.9026V72.5824H98.9652V62.5965C98.9652 59.3518 96.7809 57.7141 94.1421 57.7141" fill="#101820"/>
<path fill-rule="evenodd" clip-rule="evenodd" d="M54.8862 58.138H51.144V56.6702C51.144 54.7581 52.2351 54.2136 53.1748 54.2136C53.8163 54.222 54.4471 54.3797 55.0172 54.6742L56.2905 51.7611C56.2905 51.7611 54.9988 50.9177 52.6507 50.9177C50.0119 50.9177 47.0088 52.406 47.0088 57.0755V58.138H40.7548V56.6702C40.7548 54.7581 41.8439 54.2136 42.7856 54.2136C43.4282 54.2136 44.061 54.3718 44.628 54.6742L45.9013 51.7611C45.1418 51.3169 43.9197 50.9177 42.2635 50.9177C39.6248 50.9177 36.6216 52.406 36.6216 57.0755V58.138H34.2306V61.3233H36.6278V72.5825H40.7548V61.3233H47.017V72.5825H51.144V61.3233H54.8862V58.138Z" fill="#101820"/>
<path d="M61.4739 58.1377H57.351V72.5761H61.4739V58.1377Z" fill="#101820"/>
<path fill-rule="evenodd" clip-rule="evenodd" d="M57.5026 55.6831H61.5416C63.8978 48.2746 71.8919 41.7626 81.3988 41.7626C92.961 41.7626 102.953 50.5653 102.953 64.2688C102.988 67.0817 102.602 69.8839 101.807 72.5822H105.727L105.766 72.4471C106.426 69.7758 106.752 67.0328 106.736 64.2811C106.736 48.9992 95.5997 38 81.4069 38C70.2583 38 60.3215 45.7382 57.5046 55.6872L57.5026 55.6831Z" fill="#4A4AF4"/>
<defs>
<filter id="filter0_d_1302_538" x="122.613" y="7.41943" width="33.1613" height="33.1614" filterUnits="userSpaceOnUse" color-interpolation-filters="sRGB">
<feFlood flood-opacity="0" result="BackgroundImageFix"/>
<feColorMatrix in="SourceAlpha" type="matrix" values="0 0 0 0 0 0 0 0 0 0 0 0 0 0 0 0 0 0 127 0" result="hardAlpha"/>
<feOffset dy="3"/>
<feGaussianBlur stdDeviation="3.5"/>
<feColorMatrix type="matrix" values="0 0 0 0 0 0 0 0 0 0 0 0 0 0 0 0 0 0 0.12 0"/>
<feBlend mode="normal" in2="BackgroundImageFix" result="effect1_dropShadow_1302_538"/>
<feBlend mode="normal" in="SourceGraphic" in2="effect1_dropShadow_1302_538" result="shape"/>
</filter>
</defs>
</svg>
