<svg width="160" height="90" viewBox="0 0 160 90" fill="none" xmlns="http://www.w3.org/2000/svg">
<rect width="160" height="90" rx="10" fill="white"/>
<rect x="114" y="10" width="36.1936" height="22" rx="11" fill="#67CE67"/>
<g filter="url(#filter0_d_1302_553)">
<rect x="129.613" y="11.4194" width="19.1613" height="19.1613" rx="9.58064" fill="white"/>
</g>
<path d="M43.2351 48.7957C42.9257 49.0771 42.6138 49.3559 42.3083 49.6424C41.228 50.657 40.4168 51.8368 40.1308 53.3083C39.925 54.2747 39.9319 55.2739 40.1511 56.2375C40.3703 57.201 40.7966 58.1061 41.4009 58.8909C42.0236 59.7286 42.7658 60.4243 43.7538 60.827C43.8695 60.8735 43.9865 60.9148 44.1282 60.969C43.9982 61.3162 43.8864 61.6583 43.7473 61.9913C42.9426 63.9275 41.8962 65.7191 40.4675 67.2731C40.1974 67.5605 39.9058 67.8271 39.5953 68.0708C38.5553 68.9099 37.3854 69.2325 36.0659 68.8453C35.4081 68.6543 34.7582 68.44 34.103 68.2399C33.4355 68.0159 32.7398 67.8856 32.0361 67.8527C31.1547 67.8321 30.3461 68.0941 29.5271 68.391C28.9142 68.6312 28.2873 68.835 27.65 69.0015C26.6452 69.2403 25.7352 68.9331 24.9032 68.3729C24.0845 67.7979 23.3794 67.0782 22.8233 66.2496C21.3743 64.2238 20.2861 61.9662 19.6059 59.575C18.9956 57.4531 18.8489 55.2263 19.1756 53.0436C19.4694 51.0984 20.2 49.343 21.5754 47.8922C23.0053 46.3897 24.7667 45.7714 26.8285 45.9754C27.8554 46.076 28.8356 46.3716 29.8183 46.6556C30.2278 46.7743 30.6464 46.8634 31.0611 46.968C31.6418 47.0979 32.2473 47.068 32.8121 46.8815C33.622 46.6466 34.4215 46.3794 35.2248 46.1432C36.4072 45.7756 37.6623 45.7012 38.8803 45.9263C40.4818 46.2335 41.748 47.088 42.8074 48.2858C42.9374 48.4356 43.0674 48.5879 43.1974 48.7402C43.2117 48.7575 43.2243 48.7761 43.2351 48.7957V48.7957Z" fill="black"/>
<path d="M37.2124 39C37.2467 39.3332 37.2615 39.6681 37.2566 40.0029C37.1465 41.7228 36.417 43.346 35.2014 44.5761C34.6463 45.1544 34.0315 45.6617 33.2749 45.9599C32.6249 46.218 31.9451 46.2671 31.26 46.3174C31.2496 46.3174 31.2379 46.3058 31.2275 46.3006C31.325 42.3496 33.3308 39.7938 37.2124 39Z" fill="black"/>
<path d="M52 43.4994C53.9954 43.1557 56.0144 42.9889 58.036 43.0006C61.1416 43.0006 63.4199 43.7666 64.8683 45.1446C66.205 46.3699 67 48.2468 67 50.5409C67 52.8757 66.3491 54.7144 65.1205 56.0543C63.4547 57.9324 60.7453 58.8919 57.6733 58.8919C56.7342 58.8919 55.8671 58.8537 55.1441 58.6629V69H52V43.4994ZM55.1441 55.9411C55.8298 56.1332 56.6981 56.2043 57.7453 56.2043C61.5391 56.2043 63.8522 54.2524 63.8522 50.6909C63.8522 47.2834 61.5764 45.6382 58.1068 45.6382C56.7342 45.6382 55.6857 45.7527 55.1441 45.9014V55.9411Z" fill="black"/>
<path d="M79.0948 68.5869L78.8454 66.2957H78.7369C77.7569 67.7234 75.8691 69 73.3678 69C69.8142 69 68 66.4093 68 63.7798C68 59.3909 71.7731 56.9835 78.5549 57.0209V56.6453C78.5549 55.144 78.1559 52.4397 74.5648 52.4397C72.9327 52.4397 71.2282 52.9664 69.995 53.7925L69.2693 51.6149C70.7207 50.6377 72.8242 50 75.0362 50C80.4052 50 81.7107 53.7925 81.7107 57.434V64.2264C81.7107 65.8039 81.783 67.3438 82 68.5831L79.0948 68.5869ZM78.6234 59.3122C75.1421 59.2373 71.1883 59.875 71.1883 63.4042C71.1883 65.5444 72.5661 66.559 74.1995 66.559C76.4838 66.559 77.9402 65.0565 78.4389 63.5178C78.5514 63.1789 78.6124 62.824 78.6197 62.4657L78.6234 59.3122Z" fill="black"/>
<path d="M86.5863 51L90.5463 61.5473C90.9573 62.7277 91.4056 64.1287 91.7023 65.1988H91.7768C92.1133 64.1287 92.4871 62.7645 92.9328 61.4738L96.5255 51H100L95.0676 63.723C92.7132 69.8455 91.1076 72.9783 88.8649 74.8979C87.2593 76.3001 85.6537 76.8529 84.8304 77L84.0083 74.2716C85.0612 73.9268 86.0378 73.3867 86.8855 72.6804C88.0789 71.7038 89.0253 70.4662 89.6497 69.0657C89.8 68.7336 89.9066 68.4762 89.9066 68.2911C89.9066 68.106 89.8321 67.8486 89.6818 67.4429L83 51H86.5863Z" fill="black"/>
<defs>
<filter id="filter0_d_1302_553" x="122.613" y="7.41943" width="33.1613" height="33.1614" filterUnits="userSpaceOnUse" color-interpolation-filters="sRGB">
<feFlood flood-opacity="0" result="BackgroundImageFix"/>
<feColorMatrix in="SourceAlpha" type="matrix" values="0 0 0 0 0 0 0 0 0 0 0 0 0 0 0 0 0 0 127 0" result="hardAlpha"/>
<feOffset dy="3"/>
<feGaussianBlur stdDeviation="3.5"/>
<feColorMatrix type="matrix" values="0 0 0 0 0 0 0 0 0 0 0 0 0 0 0 0 0 0 0.12 0"/>
<feBlend mode="normal" in2="BackgroundImageFix" result="effect1_dropShadow_1302_553"/>
<feBlend mode="normal" in="SourceGraphic" in2="effect1_dropShadow_1302_553" result="shape"/>
</filter>
</defs>
</svg>
