<svg width="136" height="40" viewBox="0 0 136 40" fill="none" xmlns="http://www.w3.org/2000/svg">
<path d="M134.215 35.2676C134.215 36.2836 133.81 37.2578 133.091 37.976C132.372 38.6942 131.396 39.0976 130.38 39.0976H4.73629C4.23204 39.0986 3.73255 39.0003 3.26634 38.8083C2.80013 38.6164 2.37635 38.3345 2.01922 37.9788C1.66208 37.6231 1.37859 37.2006 1.18494 36.7354C0.991292 36.2702 0.891281 35.7715 0.890625 35.2676V4.72763C0.891951 3.70941 1.2977 2.73334 2.01876 2.01381C2.73982 1.29428 3.71722 0.890136 4.73629 0.890137H130.375C131.393 0.890137 132.369 1.29418 133.089 2.01338C133.808 2.73258 134.213 3.70803 134.213 4.72513V35.2676H134.215Z" fill="white"/>
<path d="M130.375 40H4.73639C3.48022 40 2.2755 39.5014 1.38726 38.6139C0.499011 37.7264 0 36.5226 0 35.2675L0 4.7275C0.00198784 3.47343 0.501797 2.27137 1.38976 1.38508C2.27772 0.498791 3.48129 0.000660554 4.73639 0H130.375C131.629 0.0046018 132.83 0.503998 133.717 1.38944C134.604 2.27488 135.105 3.47465 135.111 4.7275V35.2675C135.108 36.5209 134.608 37.7221 133.72 38.6074C132.832 39.4928 131.629 39.99 130.375 39.99V40Z" fill="#A6A6A6"/>
<path d="M134.215 35.2676C134.215 36.2836 133.81 37.2578 133.091 37.976C132.372 38.6942 131.396 39.0976 130.38 39.0976H4.73629C4.23204 39.0986 3.73255 39.0003 3.26634 38.8083C2.80013 38.6164 2.37635 38.3345 2.01922 37.9788C1.66208 37.6231 1.37859 37.2006 1.18494 36.7354C0.991292 36.2702 0.891281 35.7715 0.890625 35.2676V4.72763C0.891951 3.70941 1.2977 2.73334 2.01876 2.01381C2.73982 1.29428 3.71722 0.890136 4.73629 0.890137H130.375C131.393 0.890137 132.369 1.29418 133.089 2.01338C133.808 2.73258 134.213 3.70803 134.213 4.72513V35.2676H134.215Z" fill="black"/>
<path d="M30.1693 19.7895C30.1393 16.5645 32.8115 14.997 32.9216 14.9245C32.3913 14.1682 31.6919 13.5457 30.8788 13.1066C30.0658 12.6674 29.1615 12.4236 28.2377 12.3945C26.2686 12.187 24.357 13.572 23.3537 13.572C22.3504 13.572 20.7866 12.4145 19.1202 12.4495C18.0425 12.4831 16.9918 12.7953 16.0709 13.3557C15.15 13.9161 14.3902 14.7056 13.8659 15.647C11.5965 19.5695 13.2904 25.337 15.4647 28.5095C16.5506 30.062 17.8217 31.797 19.4855 31.7345C21.1494 31.672 21.7199 30.6995 23.684 30.6995C25.6481 30.6995 26.201 31.7345 27.8974 31.6995C29.6489 31.672 30.7423 30.1395 31.7906 28.572C32.5731 27.4658 33.1745 26.2421 33.5721 24.947C33.5321 24.932 30.1818 23.6545 30.1493 19.792L30.1693 19.7895ZM26.9642 10.3095C27.8399 9.21454 28.4379 7.72704 28.2727 6.21704C27.0042 6.27454 25.4204 7.09454 24.5197 8.16204C23.7115 9.10454 22.9909 10.6495 23.1761 12.102C24.5897 12.207 26.0509 11.3845 26.9642 10.3095Z" fill="white"/>
<path d="M130.375 0H63.0698L89.429 40H130.375C131.631 39.9993 132.835 39.5005 133.724 38.6131C134.612 37.7258 135.111 36.5224 135.112 35.2675V4.7275C135.11 3.47343 134.61 2.27137 133.722 1.38508C132.834 0.498791 131.63 0.000660554 130.375 0Z" fill="url(#paint0_linear_901_1224)"/>
<path d="M53.7391 31.5178H51.4647L50.2137 27.6078H45.8876L44.7016 31.5178H42.4873L46.7883 18.2004H49.438L53.7391 31.5178ZM49.8434 25.9678L48.7174 22.4904C48.5973 22.1354 48.373 21.302 48.0444 19.9904H48.0043C47.8709 20.5587 47.6599 21.392 47.3713 22.4904L46.2629 25.9678H49.8434ZM64.7506 26.6003C64.7506 28.232 64.3069 29.522 63.4195 30.4703C63.044 30.8793 62.5855 31.2037 62.0747 31.4218C61.5639 31.6399 61.0125 31.7468 60.4571 31.7353C59.1844 31.7353 58.2669 31.2812 57.7048 30.3729V35.4103H55.5706V25.0704C55.5706 24.0437 55.5447 22.992 55.493 21.9154H57.3695L57.4896 23.4354H57.5472C58.2578 22.2904 59.342 21.717 60.7999 21.7154C61.3436 21.708 61.8818 21.8251 62.3732 22.0578C62.8646 22.2905 63.2962 22.6326 63.6347 23.0579C64.377 23.9545 64.7489 25.1337 64.7506 26.5954V26.6003ZM62.5763 26.6779C62.6095 25.861 62.3883 25.0539 61.9433 24.3679C61.7372 24.0675 61.4591 23.8234 61.1344 23.6579C60.8096 23.4924 60.4487 23.4108 60.0843 23.4204C59.5596 23.4199 59.0518 23.605 58.6506 23.9429C58.223 24.2917 57.9273 24.7758 57.8124 25.3154C57.7529 25.5272 57.7193 25.7454 57.7123 25.9654V27.5679C57.6957 28.217 57.9254 28.8484 58.3553 29.3353C58.5636 29.571 58.8214 29.7578 59.1104 29.8823C59.3993 30.0068 59.7122 30.0659 60.0267 30.0553C60.3922 30.0699 60.7555 29.9926 61.0833 29.8306C61.4111 29.6685 61.6931 29.4269 61.9033 29.1278C62.3503 28.5062 62.5746 27.6878 62.5763 26.6728V26.6779ZM75.8022 26.6003C75.8022 28.232 75.3585 29.522 74.4711 30.4703C74.0956 30.8793 73.6371 31.2037 73.1263 31.4218C72.6155 31.6399 72.064 31.7468 71.5087 31.7353C70.2343 31.7353 69.3169 31.2812 68.7564 30.3729V35.4103H66.6296V25.0704C66.6296 24.0437 66.603 22.992 66.5496 21.9154H68.4286L68.5462 23.4354H68.5863C69.3002 22.2904 70.3844 21.717 71.8389 21.7154C72.3833 21.7083 72.9222 21.8256 73.4143 22.0583C73.9065 22.2909 74.339 22.6328 74.6788 23.0579C75.431 23.9545 75.8089 25.1337 75.8122 26.5954L75.8022 26.6003ZM73.6279 26.6779C73.6602 25.8607 73.4381 25.0537 72.9924 24.3679C72.7868 24.0675 72.5092 23.8234 72.1849 23.6579C71.8605 23.4924 71.4999 23.4107 71.1359 23.4204C70.6113 23.4204 70.1036 23.6054 69.7022 23.9429C69.2747 24.2922 68.9783 24.776 68.8615 25.3154C68.8033 25.5275 68.7697 25.7456 68.7614 25.9654V27.5679C68.7448 28.217 68.9745 28.8484 69.4044 29.3353C69.6127 29.571 69.8705 29.7578 70.1594 29.8823C70.4484 30.0068 70.7613 30.0659 71.0758 30.0553C71.4417 30.0703 71.8055 29.9932 72.1338 29.8312C72.4621 29.6691 72.7444 29.4273 72.9548 29.1278C73.4035 28.5062 73.6279 27.6878 73.6279 26.6728V26.6779ZM88.1598 27.7678C88.177 28.2875 88.0799 28.8047 87.8754 29.2828C87.671 29.761 87.3641 30.1885 86.9764 30.5353C86.1073 31.3103 84.8972 31.6987 83.3459 31.7004C81.9114 31.7004 80.7613 31.4237 79.8956 30.8703L80.396 29.0928C81.3289 29.6463 82.396 29.9334 83.481 29.9228C84.2842 29.9228 84.9122 29.7404 85.3575 29.3804C85.5755 29.2082 85.75 28.9873 85.8669 28.7355C85.9838 28.4836 86.0399 28.2078 86.0306 27.9303C86.0365 27.6775 85.9905 27.4262 85.8954 27.1919C85.8003 26.9575 85.6581 26.7451 85.4776 26.5679C84.9425 26.1017 84.3163 25.7518 83.6386 25.5404C81.3034 24.6704 80.1357 23.3995 80.1357 21.7279C80.1237 21.2155 80.2287 20.7071 80.4429 20.2414C80.6571 19.7757 80.9748 19.3649 81.3718 19.0404C82.1958 18.342 83.2858 17.9937 84.642 17.9954C85.6871 17.9592 86.7256 18.1753 87.6694 18.6254L87.1315 20.3754C86.3424 19.9603 85.461 19.7513 84.5694 19.7679C83.9328 19.7299 83.3043 19.9265 82.8029 20.3204C82.632 20.4713 82.4958 20.6573 82.4034 20.8657C82.3109 21.0741 82.2646 21.3 82.2675 21.5279C82.2631 21.7774 82.316 22.0246 82.4223 22.2504C82.5286 22.4762 82.6854 22.6746 82.8805 22.8304C83.2358 23.1454 83.8813 23.4878 84.8171 23.8578C85.9647 24.3178 86.8087 24.857 87.3492 25.4753C87.8995 26.1158 88.1896 26.9391 88.1623 27.7828L88.1598 27.7678ZM95.2357 23.5179H92.8837V28.1779C92.8837 29.3629 93.3007 29.9545 94.1348 29.9528C94.4537 29.9608 94.7724 29.928 95.083 29.8554L95.1406 31.4753C94.6053 31.6486 94.0441 31.7281 93.4817 31.7103C93.1159 31.7305 92.7501 31.6723 92.4087 31.5394C92.0674 31.4066 91.7584 31.2024 91.5026 30.9403C91.0305 30.4253 90.7937 29.5628 90.792 28.3528V23.5179H89.3884V21.9179H90.792V20.1679L92.8887 19.5354V21.9254H95.2407V23.5179H95.2357ZM105.837 26.6354C105.837 28.1104 105.416 29.3212 104.573 30.2678C103.689 31.2428 102.516 31.7303 101.053 31.7303C99.6418 31.7303 98.5184 31.2637 97.6827 30.3303C96.847 29.397 96.43 28.2187 96.4316 26.7953C96.4316 25.3087 96.8628 24.0912 97.7252 23.1429C98.5876 22.1945 99.751 21.7204 101.216 21.7204C102.627 21.7204 103.76 22.1879 104.616 23.1229C105.427 24.0179 105.837 25.1979 105.837 26.6354ZM103.625 26.6829C103.647 25.8895 103.449 25.1055 103.052 24.4179C102.871 24.0678 102.596 23.7752 102.257 23.5733C101.918 23.3714 101.53 23.2682 101.136 23.2754C100.735 23.2643 100.339 23.3654 99.9928 23.5673C99.6466 23.7692 99.3638 24.0638 99.1764 24.4179C98.7762 25.1187 98.5779 25.9164 98.6034 26.7229C98.5807 27.5171 98.779 28.3021 99.1764 28.9904C99.3632 29.3406 99.643 29.6325 99.9851 29.8341C100.327 30.0356 100.718 30.139 101.115 30.1328C101.934 30.1328 102.572 29.7428 103.035 28.9703C103.441 28.2777 103.645 27.4854 103.625 26.6829ZM112.78 23.7904C112.558 23.7504 112.333 23.7304 112.107 23.7304C111.767 23.7114 111.427 23.7795 111.121 23.9282C110.814 24.077 110.551 24.3014 110.356 24.5804C109.982 25.141 109.796 25.8051 109.823 26.4778V31.5178H107.686V24.9429C107.686 23.9429 107.666 22.9353 107.626 21.9204H109.485L109.562 23.7579H109.622C109.824 23.1584 110.194 22.6297 110.688 22.2354C111.135 21.9032 111.676 21.7227 112.232 21.7204C112.411 21.7197 112.589 21.7331 112.765 21.7604V23.7953L112.78 23.7904ZM122.323 26.2679C122.328 26.5921 122.302 26.9161 122.245 27.2353H115.845C115.87 28.1837 116.18 28.9078 116.776 29.4078C117.371 29.8743 118.114 30.112 118.87 30.0778C119.755 30.0897 120.634 29.9362 121.462 29.6253L121.795 31.1053C120.774 31.5219 119.678 31.7236 118.575 31.6978C117.084 31.6978 115.916 31.2603 115.072 30.3853C114.228 29.5103 113.803 28.3353 113.796 26.8603C113.796 25.4154 114.192 24.2112 114.984 23.2479C115.384 22.7458 115.897 22.3448 116.481 22.0772C117.064 21.8097 117.703 21.6832 118.345 21.7079C119.729 21.7079 120.777 22.2212 121.49 23.2479C122.072 24.1447 122.363 25.1994 122.323 26.2679ZM120.289 25.7129C120.318 25.1378 120.173 24.5673 119.873 24.0754C119.697 23.7867 119.446 23.5514 119.146 23.3946C118.847 23.2378 118.51 23.1655 118.172 23.1854C117.839 23.1791 117.51 23.2549 117.214 23.4063C116.917 23.5576 116.663 23.7797 116.473 24.0529C116.11 24.5354 115.891 25.111 115.843 25.7129H120.289Z" fill="white"/>
<path d="M45.272 13.4952C44.7598 13.4974 44.2477 13.4715 43.7383 13.4177V6.98018C44.3359 6.88773 44.94 6.84259 45.5448 6.84518C47.9943 6.84518 49.1202 8.04768 49.1202 10.0102C49.1202 12.2677 47.7891 13.4952 45.272 13.4952ZM45.6298 7.67018C45.3472 7.66496 45.0648 7.68757 44.7866 7.73768V12.6302C45.0218 12.6555 45.2583 12.6655 45.4947 12.6602C47.0985 12.6602 48.0118 11.7477 48.0118 10.0377C48.0118 8.51768 47.1861 7.67018 45.6298 7.67018ZM52.6356 13.5427C51.2545 13.5427 50.3612 12.5152 50.3612 11.1177C50.3612 9.66018 51.2745 8.61768 52.7132 8.61768C54.0718 8.61768 54.9875 9.59768 54.9875 11.0352C54.9875 12.5177 54.0443 13.5427 52.6356 13.5427ZM52.6756 9.38768C51.925 9.38768 51.4246 10.0977 51.4246 11.0877C51.4246 12.0777 51.925 12.7677 52.6606 12.7677C53.3962 12.7677 53.8941 12.0177 53.8941 11.0677C53.8941 10.1177 53.4087 9.38768 52.6706 9.38768H52.6756ZM62.8565 8.72018L61.3778 13.4377H60.417L59.804 11.3877C59.6514 10.8877 59.5263 10.3877 59.4237 9.86518H59.4037C59.3183 10.3819 59.1919 10.891 59.0259 11.3877L58.3753 13.4377H57.402L56.0134 8.72018H57.0918L57.6272 10.9702C57.7523 11.5027 57.8574 12.0077 57.9475 12.4852H57.9675C58.045 12.0877 58.1701 11.5902 58.3553 10.9852L59.0259 8.73518H59.8816L60.5221 10.9402C60.6772 11.4727 60.8048 11.9977 60.9024 12.4927H60.9299C61.0072 11.9695 61.1142 11.4512 61.2502 10.9402L61.8257 8.73518L62.8565 8.72018ZM68.306 13.4377H67.2551V10.7277C67.2551 9.89268 66.9349 9.47768 66.3043 9.47768C66.1588 9.48275 66.0158 9.51687 65.8837 9.57804C65.7516 9.6392 65.6331 9.72616 65.5352 9.8338C65.4373 9.94144 65.3619 10.0676 65.3135 10.2048C65.2651 10.342 65.2447 10.4875 65.2535 10.6327V13.4402H64.2051V10.0677C64.2051 9.65018 64.2051 9.20268 64.1651 8.71768H65.0883L65.1384 9.44768H65.1659C65.3203 9.18942 65.5408 8.97688 65.8046 8.83189C66.0684 8.68691 66.3661 8.6147 66.6671 8.62268C67.668 8.62268 68.3085 9.37268 68.3085 10.6227V13.4477L68.306 13.4377ZM71.1984 13.4377H70.15V6.55518H71.1984V13.4377ZM75.0265 13.5427C73.6454 13.5427 72.7521 12.5152 72.7521 11.1177C72.7521 9.66018 73.6654 8.61768 75.1016 8.61768C76.4627 8.61768 77.3759 9.59768 77.3759 11.0352C77.3659 12.5177 76.4227 13.5427 75.014 13.5427H75.0265ZM75.064 9.38768C74.3134 9.38768 73.813 10.0977 73.813 11.0877C73.813 12.0777 74.3134 12.7677 75.0465 12.7677C75.7796 12.7677 76.28 12.0177 76.28 11.0677C76.28 10.1177 75.7971 9.38768 75.0565 9.38768H75.064ZM81.5143 13.4377L81.4393 12.8927H81.4092C81.2508 13.1067 81.0416 13.2781 80.8006 13.3915C80.5596 13.5049 80.2942 13.5569 80.0281 13.5427C79.8404 13.553 79.6525 13.5246 79.4762 13.4593C79.2999 13.3939 79.1389 13.2931 79.0033 13.1629C78.8676 13.0328 78.7602 12.8762 78.6877 12.7028C78.6153 12.5295 78.5792 12.343 78.5819 12.1552C78.5819 10.9902 79.5828 10.3902 81.3342 10.3902V10.3027C81.3342 9.68018 81.0039 9.37018 80.3534 9.37018C79.9167 9.36288 79.4876 9.48464 79.1199 9.72018L78.9072 9.03018C79.3984 8.74448 79.9605 8.60322 80.5285 8.62268C81.762 8.62268 82.3851 9.27268 82.3851 10.5752V12.3252C82.3775 12.7014 82.4001 13.0776 82.4526 13.4502L81.5143 13.4377ZM81.3692 11.0877C80.2033 11.0877 79.6178 11.3702 79.6178 12.0377C79.6071 12.1356 79.6182 12.2347 79.6504 12.3279C79.6826 12.421 79.735 12.5059 79.8039 12.5764C79.8727 12.6469 79.9564 12.7013 80.0488 12.7356C80.1412 12.77 80.2401 12.7835 80.3384 12.7752C80.6017 12.7826 80.8574 12.686 81.0499 12.5063C81.2425 12.3266 81.3563 12.0782 81.3667 11.8152L81.3692 11.0877ZM87.4893 13.4377L87.4392 12.6877H87.4092C87.2694 12.964 87.0514 13.1931 86.7822 13.3465C86.513 13.4999 86.2046 13.5707 85.8954 13.5502C84.7545 13.5502 83.9113 12.5502 83.9113 11.1427C83.9113 9.66768 84.787 8.63018 85.9805 8.63018C86.611 8.63018 87.0589 8.84268 87.3116 9.27018H87.3216V6.55518H88.37V12.1652C88.37 12.6227 88.3825 13.0477 88.41 13.4377H87.4893ZM87.3216 10.6602C87.3216 10.0002 86.8837 9.43767 86.2157 9.43767C85.4376 9.43767 84.9647 10.1277 84.9647 11.0977C84.9647 12.0677 85.4651 12.7002 86.1957 12.7002C86.8562 12.7002 87.3241 12.1277 87.3241 11.4502V10.6627L87.3216 10.6602ZM95.0304 13.5427C93.6518 13.5427 92.7586 12.5152 92.7586 11.1177C92.7586 9.66018 93.6718 8.61768 95.1105 8.61768C96.4691 8.61768 97.3824 9.59768 97.3824 11.0352C97.3824 12.5102 96.4416 13.5352 95.0304 13.5352V13.5427ZM95.0705 9.38768C94.3199 9.38768 93.8195 10.0977 93.8195 11.0877C93.8195 12.0777 94.3199 12.7677 95.053 12.7677C95.7861 12.7677 96.2865 12.0177 96.2865 11.0677C96.2865 10.1177 95.8036 9.38768 95.063 9.38768H95.0705ZM103.027 13.4377H101.976V10.7277C101.976 9.89268 101.656 9.47768 101.025 9.47768C100.88 9.48274 100.737 9.51687 100.605 9.57806C100.473 9.63926 100.355 9.72626 100.257 9.83394C100.159 9.94162 100.084 10.0678 100.036 10.205C99.988 10.3422 99.9679 10.4876 99.977 10.6327V13.4402H98.9262V10.0677C98.9262 9.65018 98.9262 9.20268 98.8861 8.71768H99.8094L99.8594 9.44768H99.8869C100.041 9.18942 100.262 8.97688 100.526 8.83189C100.789 8.68691 101.087 8.6147 101.388 8.62268C102.389 8.62268 103.032 9.37268 103.032 10.6227L103.027 13.4377ZM110.09 9.51768H108.934V11.8077C108.934 12.3927 109.137 12.6827 109.547 12.6827C109.704 12.6837 109.86 12.6677 110.013 12.6352L110.04 13.4302C109.778 13.5172 109.503 13.557 109.227 13.5477C108.399 13.5477 107.906 13.0902 107.906 11.8977V9.51768H107.213V8.73268H107.904V7.86768L108.932 7.55768V8.73018H110.09V9.51768ZM115.645 13.4502H114.594V10.7477C114.594 9.90268 114.276 9.47768 113.643 9.47768C113.499 9.47398 113.355 9.50082 113.221 9.55643C113.088 9.61205 112.968 9.69518 112.868 9.80042C112.769 9.90565 112.693 10.0306 112.646 10.1671C112.598 10.3036 112.58 10.4487 112.592 10.5927V13.4377H111.544V6.55518H112.592V9.38768H112.612C112.76 9.14547 112.969 8.94692 113.219 8.81245C113.469 8.67799 113.75 8.61248 114.034 8.62268C115.034 8.62268 115.642 9.39768 115.642 10.6227V13.4302L115.645 13.4502ZM121.337 11.3427H118.184C118.205 12.2352 118.797 12.7402 119.673 12.7402C120.108 12.7445 120.539 12.6691 120.947 12.5177L121.109 13.2452C120.607 13.4504 120.068 13.5491 119.526 13.5352C118.049 13.5352 117.174 12.6052 117.174 11.1577C117.174 9.71018 118.069 8.62517 119.408 8.62517C120.614 8.62517 121.372 9.51767 121.372 10.8752C121.377 11.0344 121.365 11.1937 121.335 11.3502L121.337 11.3427ZM120.376 10.5927C120.376 9.86518 120.008 9.34268 119.338 9.34268C118.735 9.34268 118.257 9.86768 118.189 10.5927H120.376Z" fill="white"/>
<defs>
<linearGradient id="paint0_linear_901_1224" x1="99.0617" y1="39.9446" x2="99.0617" y2="-104.346" gradientUnits="userSpaceOnUse">
<stop stop-color="#1A1A1A" stop-opacity="0.1"/>
<stop offset="0.12" stop-color="#212121" stop-opacity="0.15"/>
<stop offset="0.31" stop-color="#353535" stop-opacity="0.23"/>
<stop offset="0.53" stop-color="#575757" stop-opacity="0.32"/>
<stop offset="0.78" stop-color="#858585" stop-opacity="0.42"/>
<stop offset="1" stop-color="#B3B3B3" stop-opacity="0.51"/>
</linearGradient>
</defs>
</svg>
