<?xml version="1.0" encoding="utf-8"?>
<!-- Generator: Adobe Illustrator 25.2.3, SVG Export Plug-In . SVG Version: 6.00 Build 0)  -->
<svg version="1.1" id="Layer_1" xmlns="http://www.w3.org/2000/svg" xmlns:xlink="http://www.w3.org/1999/xlink" x="0px" y="0px"
	 width="188px" height="40px" viewBox="0 0 188 40" style="enable-background:new 0 0 188 40;" xml:space="preserve">
<g>
	<path d="M17.2,26.3h-11l-1.7,4.5H0L9.1,7.5h3.6c0.4,0,0.9,0.1,1.2,0.4c0.4,0.3,0.7,0.6,0.8,1l8.6,21.9h-4.5L17.2,26.3z M7.3,22.7
		H16L11.7,11L7.3,22.7z"/>
	<path d="M41.3,22.1h-4v8.7h-4V7.5h10.1c4.5,0,7.5,3,7.5,7.3c0,4.2-2.7,6.4-5.4,6.9l5.6,9.2h-4.7L41.3,22.1z M42.8,11.1h-5.5v7.4
		h5.5c2.3,0,3.9-1.5,3.9-3.7C46.8,12.5,45.1,11.1,42.8,11.1z"/>
	<path d="M66.8,11.1H60V9.7c0-0.6,0.2-1.2,0.6-1.6c0.4-0.4,1-0.7,1.5-0.7h15.6v3.6h-6.9v19.7h-4V11.1z"/>
	<path d="M87.7,7.5h1.5c0.5,0,0.9,0.2,1.3,0.7c0.3,0.4,0.5,1,0.5,1.6v21.1h-3.3V7.5z"/>
	<path d="M101,19.7c0-7.3,5.2-12.2,11.8-12.2c4.8,0,7.6,2.5,9.3,5.3l-3.4,1.8c-0.6-1.1-1.5-1.9-2.5-2.5c-1-0.6-2.2-0.9-3.4-0.9
		c-4.3,0-7.7,3.6-7.7,8.5c0,5,3.3,8.5,7.7,8.5c1.2,0,2.4-0.3,3.4-0.9c1-0.6,1.9-1.5,2.5-2.5l3.4,1.8c-1.7,2.8-4.5,5.3-9.3,5.3
		C106.3,31.9,101,27,101,19.7z"/>
	<path d="M134.4,7.5h1.9v19.7h10.3v3.6h-14.4V9.7c0-0.3,0.1-0.6,0.2-0.9c0.1-0.3,0.3-0.5,0.5-0.7c0.2-0.2,0.5-0.4,0.7-0.5
		C133.8,7.6,134.1,7.5,134.4,7.5z"/>
	<path d="M158.7,7.5h13.4v3.6h-11.6v6h11.3v3.6h-11.3v6.5h11.6v3.6h-15.5V9.7c0-0.3,0.1-0.6,0.2-0.9c0.1-0.3,0.3-0.5,0.5-0.7
		c0.2-0.2,0.4-0.4,0.7-0.5C158.1,7.6,158.4,7.5,158.7,7.5z"/>
	<path d="M183.2,25.5c0.7-0.2,1.5-0.2,2.2,0s1.3,0.7,1.7,1.4c0.4,0.6,0.6,1.4,0.5,2.1c-0.1,0.7-0.4,1.4-1,2c-0.5,0.5-1.2,0.9-2,1
		c-0.7,0.1-1.5-0.1-2.1-0.5c-0.6-0.4-1.1-1-1.4-1.7c-0.3-0.7-0.3-1.5,0-2.2c0.2-0.5,0.4-0.9,0.8-1.3
		C182.3,25.9,182.7,25.6,183.2,25.5z"/>
</g>
</svg>
