<svg width="42" height="40" viewBox="0 0 42 40" fill="none" xmlns="http://www.w3.org/2000/svg">
<circle cx="28.1665" cy="18.5001" r="13.5" fill="#FF8FAB"/>
<path d="M20.6667 31.6667C24.3486 31.6667 27.3333 28.682 27.3333 25.0001C27.3333 21.3182 24.3486 18.3334 20.6667 18.3334C16.9848 18.3334 14 21.3182 14 25.0001C14 28.682 16.9848 31.6667 20.6667 31.6667Z" stroke="white" stroke-width="1.5" stroke-miterlimit="10" stroke-linecap="round" stroke-linejoin="round"/>
<path d="M18.0664 25.0001L19.1497 26.0834C19.4664 26.4001 19.9831 26.4167 20.2997 26.1001L23.2664 23.3667" stroke="white" stroke-width="1.5" stroke-linecap="round" stroke-linejoin="round"/>
<path d="M15.6667 36.6667H25.6667C32.3667 36.6667 33.5667 33.9834 33.9167 30.7167L35.1667 20.7167C35.6167 16.6501 34.45 13.3334 27.3334 13.3334H14C6.88337 13.3334 5.7167 16.6501 6.1667 20.7167L7.4167 30.7167C7.7667 33.9834 8.9667 36.6667 15.6667 36.6667Z" stroke="white" stroke-width="1.5" stroke-miterlimit="10" stroke-linecap="round" stroke-linejoin="round"/>
<path d="M13.1665 12.7834V11.1667C13.1665 7.41674 16.1832 3.73341 19.9332 3.38341C24.3998 2.95008 28.1665 6.46674 28.1665 10.8501V13.1501" stroke="white" stroke-width="1.5" stroke-miterlimit="10" stroke-linecap="round" stroke-linejoin="round"/>
</svg>
