<svg width="107" height="90" viewBox="0 0 107 90" fill="none" xmlns="http://www.w3.org/2000/svg"><circle opacity=".1" cx="53" cy="45" r="45" fill="url(#paint0_linear_7_5579)"/><path d="M53.5 73C69.7924 73 83 60.0163 83 44S69.7924 15 53.5 15 24 27.9837 24 44s13.2076 29 29.5 29z" fill="#fff"/><path d="M61 22H50" stroke="#E72E80" stroke-width="2" stroke-linecap="round" stroke-linejoin="round"/><path d="M57 66H46" stroke="#111" stroke-width="2" stroke-linecap="round" stroke-linejoin="round"/><path d="M90 22h8v23" stroke="#E72E80" stroke-width="2" stroke-linecap="round" stroke-linejoin="round"/><path d="M80.5161 22c0-.5304.1836-1.0391.5102-1.4142.3267-.3751.7698-.5858 1.2318-.5858.462 0 .905.2107 1.2317.5858S84 21.4696 84 22c0 .5304-.1835 1.0391-.5102 1.4142S82.7201 24 82.2581 24c-.462 0-.9051-.2107-1.2318-.5858-.3266-.3751-.5102-.8838-.5102-1.4142zm-7.258 0c0-.5304.1835-1.0391.5102-1.4142C74.0949 20.2107 74.538 20 75 20c.462 0 .9051.2107 1.2317.5858.3267.3751.5102.8838.5102 1.4142 0 .5304-.1835 1.0391-.5102 1.4142C75.9051 23.7893 75.462 24 75 24c-.462 0-.9051-.2107-1.2317-.5858-.3267-.3751-.5102-.8838-.5102-1.4142zM66 22c0-.5304.1835-1.0391.5102-1.4142S67.2799 20 67.7419 20c.462 0 .9051.2107 1.2318.5858.3266.3751.5102.8838.5102 1.4142 0 .5304-.1836 1.0391-.5102 1.4142-.3267.3751-.7698.5858-1.2318.5858-.462 0-.905-.2107-1.2317-.5858S66 22.5304 66 22z" fill="#E72E80"/><path d="M17 66H9V43" stroke="#111" stroke-width="2" stroke-linecap="round" stroke-linejoin="round"/><path d="M97.4248 45c2.9702 1.2189 5.4222 3.4221 6.9372 6.2336 1.515 2.8115 1.999 6.0571 1.369 9.1828-.63 3.1258-2.334 5.9381-4.822 7.9569-2.4876 2.0188-5.6049 3.1191-8.8198 3.1131H75.1218V77L64 65.9728l11.1218-11.0154v5.5018h16.9674c1.4151 0 2.7722-.5573 3.7729-1.5494 1.0006-.9922 1.5627-2.3377 1.5627-3.7408V45z" fill="#111" stroke="#000" stroke-width="2" stroke-linecap="round" stroke-linejoin="round"/><path d="M9.5438 43c-2.95968-1.2207-5.4026-3.4271-6.91187-6.2428-1.50927-2.8156-1.99134-6.0659-1.36396-9.1963.62738-3.1304 2.32533-5.9468 4.80411-7.9686 2.47877-2.0218 5.58472-3.1237 8.78782-3.1177h17.0707V11L43 22.0316 31.9306 33.0751v-5.5218H14.8599c-.6985-.0015-1.3905.1345-2.0362.4002-.6457.2657-1.2324.6559-1.7263 1.1481-.494.4923-.8855 1.077-1.1521 1.7205-.26661.6434-.40305 1.3331-.4015 2.0293V43z" fill="#E72E80" stroke="#E72E80" stroke-width="2" stroke-linecap="round" stroke-linejoin="round"/><path d="M37.5161 66c0-.5304.1836-1.0391.5102-1.4142.3267-.3751.7698-.5858 1.2318-.5858.462 0 .905.2107 1.2317.5858S41 65.4696 41 66c0 .5304-.1835 1.0391-.5102 1.4142S39.7201 68 39.2581 68c-.462 0-.9051-.2107-1.2318-.5858-.3266-.3751-.5102-.8838-.5102-1.4142zm-7.258 0c0-.5304.1835-1.0391.5102-1.4142C31.0949 64.2107 31.538 64 32 64c.462 0 .9051.2107 1.2317.5858.3267.3751.5102.8838.5102 1.4142 0 .5304-.1835 1.0391-.5102 1.4142C32.9051 67.7893 32.462 68 32 68c-.462 0-.9051-.2107-1.2317-.5858-.3267-.3751-.5102-.8838-.5102-1.4142zM23 66c0-.5304.1835-1.0391.5102-1.4142S24.2799 64 24.7419 64c.462 0 .9051.2107 1.2318.5858.3266.3751.5102.8838.5102 1.4142 0 .5304-.1836 1.0391-.5102 1.4142-.3267.3751-.7698.5858-1.2318.5858-.462 0-.905-.2107-1.2317-.5858S23 66.5304 23 66z" fill="#000"/><path d="M39.667 37.8771v5.4748h1.3683v8.2087H39.667v4.105h21.8936l4.105.0014v-.0014h1.3684v-4.105h-1.3684v-8.2087h1.3684v-5.4748L53.3505 29.667 39.667 37.8771zm5.4734 13.6835v-8.2087h2.7367v8.2087h-2.7367zm6.8417 0v-8.2087h2.7367v8.2087h-2.7367zm9.5785 0h-2.7367v-8.2087h2.7367v8.2087zm-5.4734-13.6835c-.0001.3595-.071.7154-.2087 1.0475-.1376.3321-.3393.6338-.5936.8879-.2542.2541-.556.4557-.8882.5932-.3321.1375-.6881.2082-1.0476.2081-.3595-.0001-.7154-.071-1.0475-.2086-.3321-.1377-.6338-.3394-.8879-.5937-.2541-.2542-.4557-.556-.5932-.8882-.1375-.3321-.2082-.6881-.2081-1.0476.0002-.726.2888-1.4222.8023-1.9354.5134-.5132 1.2098-.8015 1.9358-.8013.726.0002 1.4222.2888 1.9354.8023.5132.5135.8015 1.2098.8013 1.9358z" fill="#E72E80"/><defs><linearGradient id="paint0_linear_7_5579" x1="53" y1="0" x2="53" y2="90" gradientUnits="userSpaceOnUse"><stop stop-color="#E72E80" stop-opacity=".5"/><stop offset="1" stop-color="#E72E80"/></linearGradient></defs></svg>