<svg id="Layer_1" data-name="Layer 1" xmlns="http://www.w3.org/2000/svg" viewBox="0 0 2000 2000">
  <defs>
    <style>
      .cls-1 {
        fill: #f0b1d1;
      }

      .cls-2 {
        fill: #fff;
      }
    </style>
  </defs>
  <circle class="cls-1" cx="1000" cy="1014.36" r="915.06"/>
  <rect class="cls-2" x="512.17" y="732.23" width="975.65" height="769.74" rx="116.82"/>
  <rect class="cls-2" x="394.33" y="1423.53" width="1211.35" height="78.44" rx="39.22"/>
  <path class="cls-2" d="M425.85,779.84l554-422a38.84,38.84,0,0,1,46.64.12l547.78,422c26.38,20.33,10.89,60.14-23.4,60.14H449.09C414.7,840.1,399.27,800.09,425.85,779.84Z"/>
  <g>
    <rect class="cls-1" x="612.68" y="840.1" width="78.44" height="583.43" rx="39.22"/>
    <rect class="cls-1" x="786.73" y="840.1" width="78.44" height="583.43" rx="39.22"/>
    <rect class="cls-1" x="1308.87" y="840.1" width="78.44" height="583.43" rx="39.22"/>
    <rect class="cls-1" x="1134.83" y="840.1" width="78.44" height="583.43" rx="39.22"/>
    <rect class="cls-1" x="960.78" y="840.1" width="78.44" height="583.43" rx="39.22"/>
  </g>
  <path class="cls-1" d="M998.79,720.47a139.31,139.31,0,0,1-39-5.44q-18.72-5.43-30.08-14.13L943,671.43a92.8,92.8,0,0,0,25.61,12.68,95.65,95.65,0,0,0,30.19,4.95q11.6,0,18.72-2.42t10.51-6.4a13.9,13.9,0,0,0,3.38-9.3,12.76,12.76,0,0,0-5.31-10.75,43.53,43.53,0,0,0-14.13-6.52q-8.82-2.53-19.21-4.83t-20.89-5.56a84.15,84.15,0,0,1-19.33-8.69,40.92,40.92,0,0,1-14-14.25q-5.19-8.82-5.19-22.11a47.66,47.66,0,0,1,7.73-26.45q7.73-12,23.55-19.08t39.74-7.13a130.22,130.22,0,0,1,31.52,3.87,93.18,93.18,0,0,1,27.18,11.11L1050.73,590a98.66,98.66,0,0,0-23.43-9.79,89.17,89.17,0,0,0-23.19-3.26q-11.6,0-18.6,2.54t-10.27,6.89a15.73,15.73,0,0,0-3.26,9.66,13.07,13.07,0,0,0,5.31,10.87,39,39,0,0,0,14,6.4q8.7,2.29,19.33,4.59a212.59,212.59,0,0,1,21,5.68,93.58,93.58,0,0,1,19.08,8.57,41.35,41.35,0,0,1,14.13,14q5.43,8.82,5.44,21.86a46.22,46.22,0,0,1-7.85,26.09q-7.86,11.83-23.8,19.09T998.79,720.47Zm-8.94,26.08V519.48h24.4V746.55Z"/>
</svg>
