<svg width="120" height="150" viewBox="0 0 120 150" fill="none" xmlns="http://www.w3.org/2000/svg"><ellipse opacity=".1" cx="60" cy="77.7874" rx="60" ry="59.8362" fill="url(#paint0_linear_7_5591)"/><path d="M100.584 82.2313c-5.9268 5.6054-22.9342 9.7669-32.7555-1.4762-7.4829-8.5912-9.9977-8.0287-17.1181-10.2491-7.1205-2.2204-18.5072-6.8845-20.1389-16.8372-1.6318-9.9527 13.8036-14.5191 28.855-16.9537 15.0515-2.4346 22.5748-12.5299 37.3175-2.3337 10.337 7.1276 22.507 30.183 3.84 47.8499z" fill="#FF97C5"/><path d="M16.2802 3.55572c1.2451 5.25398 2.2736 10.66718.812 15.86808-2.1653 7.6952-.8661 15.3374-.5413 23.0326.0541.8491.1624 1.6452.2707 2.4943.812-.1061.7037-.743.8661-1.2206 1.4074-4.7763 3.9517-8.8097 7.4703-12.3124.9744-.9552 2.0571-2.1758 3.5728-1.539 1.5698.6368 1.2992 2.3351 1.1368 3.6088-.9744 7.4299-4.3306 13.6391-10.2853 18.3093-1.4615 1.1676-1.7863 2.229-1.4615 3.9272.9202 5.5194 1.8405 11.0387 3.3021 16.9295.5954-1.9105 1.0826-3.4496 1.6239-4.9355 1.0286-2.7597 2.5984-5.2009 4.6555-7.3238.812-.8491 1.6781-1.8044 3.0314-1.3267 1.3533.5307 1.2992 1.8574 1.2451 2.9719-.2707 6.5277-2.6525 12.2062-7.2538 16.8764-1.0286 1.0615-1.2992 1.9637-.9203 3.3966 1.5157 5.2009 3.1397 10.4018 4.9802 15.4966.2166.6368.7579 1.539-.1624 1.8574-.9202.3184-1.0826-.6899-1.2992-1.3267-1.8405-5.0417-3.5186-10.1365-4.8719-15.3374-.3248-1.2206-.812-1.9636-2.1653-2.4413-6.8749-2.6004-12.45058-6.8991-16.83534-12.6307-.81199-1.1145-2.16531-2.3882-1.02852-3.7681 1.08266-1.3267 2.65251-.4245 4.00583.1062 5.30503 2.0167 9.47323 5.4662 12.99183 9.765.1624.1592.379.4776.4331.4776.3789-.2123.1624-.4776.0541-.743-1.245-6.3685-2.5983-12.7369-3.4645-19.2115-.1082-1.0084-.8661-1.3799-1.5157-1.9106C8.91818 48.0288 4.69581 42.138 2.0433 35.1857c-.48719-1.2736-.92025-2.5473-1.02852-3.9272-.162395-1.9636 1.02852-2.8127 2.8149-1.9105.75786.3715 1.40746.9022 2.05706 1.4329 3.6269 2.9719 6.27936 6.7399 8.60716 10.7202.1082.2123 0 .5307.3789.4246.0541 0 0-.4246 0-.6899-.2165-5.2009-.3789-10.4018-.6496-15.6558 0-.4246-.1624-.9022-.3789-1.2737-3.0315-4.4049-4.3848-9.3404-4.33067-14.5944.37893-2.38817.70377-4.82941 1.56987-7.11145C11.5166 1.4329 12.0579 0 13.6277 0c1.5157 0 1.7864 1.48597 2.2736 2.54738.1083.42457.2165.68992.3789 1.00834z" fill="#F496BF"/><path d="M31.6656 87.1757c11.8036-.3487 20.5033-8.6759 20.3722-19.837-.1312-11.9458-7.6942-19.9678-19.935-20.1422-11.76-.1308-19.7165 8.0656-20.1537 20.0114-.3497 10.6379 9.0495 19.9242 19.7165 19.9678zM55.2729 68.821C53.8302 81.5952 43.6004 91.7099 28.518 90.0096c-9.2681-1.0464-17.8804-9.2428-19.41047-19.0959-.13116-.9155.13115-2.485-1.57382-1.5695-.91806.4796-2.88534-.7412-2.66675 1.7003C6.04732 82.7288 17.9384 93.8462 29.8732 94.3694c13.6397.5668 24.4816-7.1065 28.4162-20.0986 1.1803-3.8366 1.1803-3.8366-2.3171-5.1446-.1748-.1308-.4371-.218-.6994-.3052z" fill="#fff"/><path d="M33.4143 126.632c.0437-9.461.0437-18.922 0-28.3824 0-1.8747.4372-2.6595 2.5356-2.9211 13.6397-1.7875 24.3504-13.6897 24.569-26.9434.0437-4.2726-1.2678-5.2318-5.3772-3.6623-.0437-.3923-.1311-.7411-.1749-1.0899-2.1421-11.9022-11.0167-19.5755-22.7329-19.7498-10.973-.1744-20.5908 6.8448-23.12637 18.6598-.17487.7412.48088 1.9619-1.22409 1.8312-4.328-.3052-4.50286 0-4.37171 4.7085.30602 13.123 11.41017 24.8072 24.52537 26.3331 1.7049.1744 2.1858.6976 2.1858 2.3107-.0437 9.7226-.0437 19.4886 0 29.2106.0437 1.657-.5683 2.093-2.1858 2.267-3.2788.305-6.5576.872-9.5741 2.398-1.9236.959-3.2351 2.354-3.2351 4.665.1312.131.3061.305.4372.436 10.9293 3.313 21.8149 4.36 32.7442 0 .8743-2.442-.5246-3.793-2.4482-4.927M31.6656 87.1757c11.8036-.3487 20.5033-8.6759 20.3722-19.837-.1312-11.9458-7.6942-19.9678-19.935-20.1422-11.76-.1308-19.7165 8.0656-20.1537 20.0114-.3497 10.6379 9.0495 19.9242 19.7165 19.9678zM55.2729 68.821C53.8302 81.5952 43.6004 91.7099 28.518 90.0096c-9.2681-1.0464-17.8804-9.2428-19.41047-19.0959-.13116-.9155.13115-2.485-1.57382-1.5695-.91806.4796-2.88534-.7412-2.66675 1.7003C6.04732 82.7288 17.9384 93.8462 29.8732 94.3694c13.6397.5668 24.4816-7.1065 28.4162-20.0986 1.1803-3.8366 1.1803-3.8366-2.3171-5.1446-.1748-.1308-.4371-.218-.6994-.3052z" stroke="#E62F80" stroke-width="2" stroke-miterlimit="10"/><path d="M31.6654 87.1761c-10.667-.0872-20.0662-9.33-19.7165-19.9678.3935-11.9022 8.3937-20.1422 20.1536-20.0115 12.2408.1308 19.8039 8.1528 19.9351 20.1423.0874 11.161-8.5686 19.5318-20.3722 19.837z" fill="#fff" stroke="#E62F80" stroke-miterlimit="10"/><path d="M55.2723 68.8213c.2623.0872.5246.1744.7432.2616 3.4974 1.3079 3.4974 1.3079 2.317 5.1445-3.9345 13.0358-14.7764 20.709-28.4162 20.0986-11.9785-.4795-23.86954-11.6406-25.00619-23.3248-.2623-2.4415 1.74869-1.2208 2.66675-1.7003 1.66125-.872 1.39895.6539 1.57382 1.5695C10.6371 80.7235 19.2493 88.9635 28.5611 89.9663c15.0387 1.7439 25.2685-8.3708 26.7112-21.145z" fill="#EDB3CF"/><path d="M77.678 72.0886c-3.3038 3.773-4.7425 8.1306-4.636 13.1259.0533 5.9518 0 11.9568.0533 17.9615.0533 3.933-.0533 7.812-.5329 11.744-8.6324 1.17-14.1036 2.175-22.7893 1.006-.9592-3.082.6394-7.424 0-10.506 1.0124.266-.9223.287.0901.553 5.9682 1.488 9.9637.87 14.0668-3.966 4.6359-5.4203 4.9557-15.092.4796-20.2467-4.8491-5.5798-13.3217-6.749-19.6096-2.7102-1.865-4.2513-1.7051-4.4639 2.771-4.5702.4795 0 .9591 0 1.3854-.0531 4.263-.4251 8.9522-3.9856 9.9114-7.7055-2.6111.7971-5.2222.7971-7.7799 1.1691-2.6644.372-4.7958 2.1788-7.1937 3.8262-.3198-2.9759.9591-5.261 1.2256-7.7587-1.4921.5315-.7993 2.2851-2.0782 2.6571-.4263-5.4735-.8526-10.9471-1.2789-16.4207h37.5672c-.5862 7.2273-1.119 14.5608-1.6519 21.8943z" fill="#E62F80"/><path d="M44.7996 78.9964c6.2878-4.0388 14.7604-2.8697 19.6095 2.7102 4.4228 5.1015 4.1031 14.7733-.4796 20.2464-4.1031 4.836-9.2186 6.059-15.1867 4.571-1.0125-.266-1.9716-.532-2.9841-.798-1.0124-4.835-.746-9.7775-1.3322-14.6134-.2664-2.1788-.0532-4.4639-.6394-6.6427.0533-.9565.0533-1.9131.1066-2.9228 1.4387 1.4349 1.3322 3.9325 3.8366 5.2079-.9591-2.9228-2.9307-4.9953-2.9307-7.7586z" fill="#fff"/><path d="M44.7995 78.9974c0 2.7634 1.9716 4.8359 2.9307 7.8118-2.5044-1.2754-2.4512-3.8262-3.8366-5.2079-.6927-4.9952-.9059-10.0437-.8526-15.0921 1.2789-.372.5862-2.1257 2.0782-2.6039-.2665 2.5508-1.5453 4.7827-1.2256 7.7586 2.3979-1.6474 4.5294-3.4542 7.1937-3.8262 2.5578-.372 5.1688-.372 7.7799-1.1691-.9059 3.7199-5.6484 7.2804-9.9114 7.7055-.4796.0532-.9591.0532-1.3854.0532-4.4761.1062-4.636.3188-2.7709 4.5701z" fill="#F496BF"/><path d="M72.6694 119.862c.0533.425.1066.851.1599 1.276-.0533.319-.0533.637-.1066.956-.0533.479-.1065.957-.2131 1.435-1.6519 2.551-3.8899 4.517-6.2346 6.377-3.73 1.329-7.5134-.053-11.2435.159-3.5702-2.497-4.2989-5.092-5.2581-9.716 8.5259.266 14.3702.576 22.896-.487z" fill="#E62F80"/><path d="M72.6692 119.862c-8.5259 1.116-14.3167.806-22.8959.487-.746-1.7.1601-2.67.0002-4.423 8.6857 1.169 14.1034.11 22.7891-1.059-.4796 1.648.9059 3.295.1066 4.995z" fill="#fff" stroke="#E62F80" stroke-miterlimit="10"/><path d="M55.0301 130.066c3.73-.213 7.5134 1.169 11.2435-.16.4796 1.913-.4796 3.986 1.5453 5.793 1.3322 1.222 0 3.188-1.9183 3.241-3.5702.053-7.0872.053-10.6574 0-1.9183 0-3.3038-2.285-1.9183-3.241 2.2913-1.701 1.1723-3.827 1.7052-5.633zM79.1698 50.0877H41.5493l-.4263-5.8455h38.4731l-.4263 5.8455zM85.3502 58.7487c-1.6519.372-3.2505.372-4.8491 1.86-7.4601 6.9083-7.247 19.184-7.8331 28.6963-1.0125 16.155-3.0374 32.629-3.0374 48.784-.2131 2.763.373 5.845 2.6111 7.493 4.1031 2.976 11.9362 2.869 16.7853 3.188 6.4477.425 12.895.266 19.29-.531 2.504-.319 5.169-.797 7.087-2.498 1.918-1.754 2.611-4.411 2.771-6.961.586-9.938-.426-19.875-1.172-29.76-.693-9.3525-.96-18.6522-2.132-27.9519-.906-7.3335-2.611-19.5029-10.924-22.2662-3.463-1.1692-7.2467-.7972-10.9235-.5846-2.5577.0531-5.5951 0-7.6733.5314z" fill="#fff" stroke="#E62F80" stroke-width="2" stroke-miterlimit="10"/><path d="M102.668 59.7059c-6.3939 1.9131-12.8416 1.6474-19.236.1594-.0533-3.773-.0533-7.546-.1599-11.3191-.0533-1.8599.1066-4.0387 1.6519-4.9421 5.4353-3.2948 2.7709-8.5026 3.2505-12.9134.2131-1.913-1.5986-2.2319-3.1972-2.1788-2.6111.1063-5.2221.4783-7.8332.372-1.492-.0531-3.73.1063-3.73-2.1788 0-1.8599 1.9183-2.0193 3.357-2.0725 5.755-.0531 11.51-.0531 17.2649 0 3.0374 0 4.4761 1.488 4.1564 4.6233-.2131 2.2851-.0533 4.5702-.1599 6.8553-.0532 2.657-.0532 5.0484 2.5575 6.9615 2.025 1.4879 2.292 4.2513 2.238 6.7489-.053 3.2948-.106 6.5896-.16 9.8843z" fill="#E62F80"/><path d="M37.8715 85.8514c-1.5453 0-2.7709-1.2222-2.7709-2.7633v-8.6089c0-1.5411 1.2256-2.7634 2.7709-2.7634 1.5453 0 2.7709 1.2223 2.7709 2.7634v8.6089c0 1.4879-1.2256 2.7633-2.7709 2.7633z" fill="#E72E80"/><path d="M40.9085 90.4212h-5.9681c-2.238 0-4.0498-1.8068-4.0498-4.0387 0-2.2319 1.8118-4.0387 4.0498-4.0387h5.9148c2.2381 0 4.0498 1.8068 4.0498 4.0387.0533 2.2319-1.7584 4.0387-3.9965 4.0387z" fill="#fff" stroke="#E62F80" stroke-miterlimit="10"/><path d="M48.1023 101.953c.9059 1.7 1.3322 3.507 1.8651 5.314.0532 3.561.1065 7.121.1598 10.681.0533 4.517 0 9.034.0533 13.551v3.242c-.0533 1.488-.0533 2.976-.0533 4.464-.0533 2.072-.5328 2.816-2.5045 2.923-5.0622.265-10.1244.478-15.1867.319-.7993-.054-1.5453-.107-2.3446-.107-2.9841-.053-3.8899-.903-3.9965-3.985-.1066-3.401-.0533-6.802 0-10.203.1066-5.315-.2664-10.576-.3197-15.89-.0533-4.836 1.119-9.299 4.4228-13.0193 1.8117-2.0194 2.4512-4.4107 2.1314-7.1209-.1065-.8503-1.0124-1.116-.9591-2.0194.1065-1.3285.8526-2.4445.746-3.8793-.0533-.6377.9059-.6909 1.492-.6909h8.7923c1.0125 0 1.2789.5314 1.7585 1.488 1.0657 2.2319-.1066 4.145-.3197 6.1644-.2132 2.1256.3197 3.8793 1.6519 5.4204.7993 1.1691 1.7051 2.285 2.611 3.348zm-9.7515 7.333v.107h-7.8864c-3.0373 0-3.0373.053-3.0373 3.135 0 4.092.3197 8.237-.1599 12.329-.4263 3.507.2664 4.411 3.8366 4.411 4.7426.053 9.5384-.532 14.2809-.16 2.5578.16 3.6235-.531 3.4104-2.976-.3731-4.995-.1599-9.99-.1599-14.986 0-1.381-.5329-1.913-1.865-1.86-2.771.054-5.5952 0-8.4194 0z" fill="#fff" stroke="#E62F80" stroke-width="1.5" stroke-miterlimit="10"/><rect x="103" y="103.716" width="1.99454" height="18" rx=".997271" transform="rotate(90 103 103.716)" fill="#F496BF"/><rect x="107" y="97.7324" width="1.99454" height="26" rx=".997271" transform="rotate(90 107 97.7324)" fill="#F496BF"/><rect x="27.5" y="109.202" width="21" height="19.9427" rx="1.5" fill="#fff" stroke="#E72E80"/><rect x="41" y="119.673" width=".997271" height="7" rx=".498636" transform="rotate(90 41 119.673)" fill="#F496BF"/><rect x="42" y="117.678" width=".997271" height="9" rx=".498636" transform="rotate(90 42 117.678)" fill="#F496BF"/><defs><linearGradient id="paint0_linear_7_5591" x1="60" y1="17.9512" x2="60" y2="137.624" gradientUnits="userSpaceOnUse"><stop stop-color="#E72E80" stop-opacity=".5"/><stop offset="1" stop-color="#E72E80"/></linearGradient></defs></svg>