<svg width="160" height="90" viewBox="0 0 160 90" fill="none" xmlns="http://www.w3.org/2000/svg">
<rect width="160" height="90" rx="10" fill="white"/>
<rect x="114" y="10" width="36.1936" height="22" rx="11" fill="#67CE67"/>
<g filter="url(#filter0_d_1302_516)">
<rect x="129.613" y="11.4194" width="19.1613" height="19.1613" rx="9.58064" fill="white"/>
</g>
<path d="M109.617 52.5737H104.903L102.175 64.1375L101.792 65.7244C101.529 65.7965 101.266 65.8685 101.003 65.9169C100.524 66.0129 100.022 66.0609 99.4957 66.0609C98.8973 66.0609 98.419 65.965 98.06 65.7965C97.7247 65.6283 97.4615 65.3881 97.318 65.0512C97.1743 64.7386 97.1264 64.354 97.1504 63.9214C97.1743 63.4887 97.27 63.0076 97.3896 62.5273L98.8253 56.5165L99.7583 52.5258H94.9487L92.7714 61.7574C92.508 62.8631 92.3645 63.9212 92.3167 64.9311C92.2686 65.9406 92.4363 66.8062 92.7714 67.5996C93.1065 68.3689 93.7044 68.9698 94.5181 69.4265C95.3317 69.8834 96.5043 70.0993 97.988 70.0993C99.0171 70.0993 99.9262 70.0037 100.692 69.8351C100.716 69.8351 100.764 69.8113 100.788 69.8113C100.572 70.7727 100.142 71.5418 99.4714 72.1433C98.7775 72.7444 97.7724 73.0568 96.4323 73.0568C95.858 73.0568 95.3317 73.0328 94.853 72.9611L93.9199 76.8798C94.5422 76.9519 95.2362 77 96.0017 77C97.4374 77 98.6816 76.8317 99.7583 76.5189C100.835 76.1822 101.745 75.7017 102.534 75.0283C103.3 74.3551 103.946 73.5137 104.472 72.5282C104.999 71.5185 105.405 70.34 105.716 68.9458L108.971 55.1941L109.617 52.5737ZM89.8762 62.4544C89.5889 63.6566 89.4932 64.8826 89.6128 66.0848C89.7325 67.3108 90.2111 69.1619 90.6658 70.0995H86.1194C85.5691 69.1623 85.5932 68.7054 85.4736 68.417C84.8752 68.8979 84.2295 69.3065 83.5116 69.6192C82.7937 69.9318 82.0039 70.1001 81.0946 70.1001C80.0417 70.1001 79.1326 69.9076 78.3908 69.547C77.649 69.1867 77.0268 68.6818 76.5482 68.0565C76.0694 67.4312 75.7348 66.7099 75.519 65.8685C75.3037 65.027 75.208 64.1375 75.208 63.1761C75.208 61.7092 75.4713 60.3391 75.9741 59.041C76.5002 57.7427 77.218 56.6124 78.1277 55.651C79.0369 54.6894 81.2623 52.5498 84.8993 52.5498H92.1976L89.8762 62.4544V62.4544ZM86.5502 56.5644C84.3489 56.5644 83.9418 56.5644 83.0329 57.0214C82.3868 57.3579 81.8602 57.8629 81.4056 58.4397C80.9511 59.0166 80.5682 59.6898 80.305 60.4593C80.0419 61.2286 79.8981 62.0218 79.8981 62.8394C79.8981 63.8491 80.066 64.6663 80.4007 65.2674C80.7354 65.8685 81.3578 66.1569 82.267 66.1569C82.7459 66.1569 83.2 66.0609 83.5834 65.8685C83.9659 65.676 84.3966 65.3639 84.8275 64.907C84.8756 64.3782 84.9471 63.825 85.0428 63.2485C85.1383 62.6711 85.2581 62.1183 85.354 61.6374L86.5502 56.5644V56.5644ZM73.916 59.5215C73.916 61.0842 73.6526 62.5025 73.1501 63.8008C72.6477 65.0989 71.9298 66.205 71.0204 67.1427C70.1109 68.0805 69.0344 68.8016 67.7661 69.3307C66.498 69.8592 65.1341 70.1237 63.6505 70.1237C62.9326 70.1237 62.2148 70.0516 61.4728 69.9314L60.0374 75.7254H55.3231L60.8028 52.5974H67.0959C68.2928 52.5974 69.3213 52.7898 70.1588 53.15C71.0202 53.5105 71.7141 54.0157 72.2885 54.641C72.8389 55.2661 73.2454 56.0112 73.5085 56.8526C73.7963 57.6702 73.916 58.5599 73.916 59.5215V59.5215ZM62.3583 66.0848C62.717 66.1807 63.1719 66.205 63.6983 66.205C64.5358 66.205 65.2778 66.0606 65.9714 65.7479C66.6412 65.4354 67.2397 65.0026 67.7181 64.45C68.1969 63.897 68.5556 63.2238 68.8429 62.4544C69.106 61.6848 69.2497 60.8195 69.2497 59.8821C69.2497 58.9681 69.0582 58.175 68.6515 57.5497C68.2446 56.9009 67.551 56.5642 66.5461 56.5642H64.6794L62.3583 66.0848V66.0848ZM52.452 66.0848C51.8536 66.0848 51.3755 65.9886 51.0163 65.8204C50.6812 65.6521 50.4179 65.4118 50.2745 65.0749C50.1308 64.7624 50.0829 64.3779 50.107 63.945C50.1308 63.5122 50.2265 63.0313 50.3461 62.5506L51.7816 56.5403H57.1416L58.1228 52.5495H52.7387L53.9829 47.5006L48.9578 48.2936L45.7754 61.8051C45.512 62.9108 45.3685 63.9691 45.3206 64.9784C45.2726 65.9881 45.4403 66.8541 45.7754 67.6471C46.1103 68.4164 46.7085 69.0173 47.5221 69.4742C48.3357 69.9311 49.5082 70.1472 50.9918 70.1472C52.0209 70.1472 52.9299 70.0513 53.6958 69.8828C53.7676 69.8584 53.8872 69.8346 53.9588 69.8107L54.94 65.6995C54.6049 65.8197 54.27 65.8921 53.9588 65.9397C53.4809 66.0365 52.9782 66.0848 52.452 66.0848V66.0848ZM40.4639 52.5737L36.3003 70.1235H41.0142L45.1537 52.5737H40.4639ZM45.6563 50.5539L46.3742 47.5006H41.6603L40.9424 50.5539H45.6563ZM30.031 52.5974C31.0359 52.5974 31.9213 52.7898 32.6631 53.15C33.4049 53.5105 34.0031 53.9914 34.5055 54.6167C34.9841 55.242 35.343 55.9633 35.5822 56.7807C35.8214 57.5977 35.941 58.4876 35.941 59.4492C35.941 60.9158 35.6779 62.2862 35.1275 63.6084C34.5771 64.9067 33.8592 66.0606 32.9262 67.022C31.993 67.9836 30.8922 68.7533 29.6241 69.3061C28.3559 69.859 26.9919 70.1474 25.5085 70.1474C25.3169 70.1474 24.982 70.1474 24.5035 70.1235C24.0249 70.1235 23.4747 70.0753 22.8764 69.9791C22.2542 69.8832 21.6081 69.7628 20.9381 69.5948C20.2695 69.4314 19.6199 69.1977 19 68.8975L24.4794 45.7697L29.3849 45L27.4466 53.1979C27.8772 53.0058 28.2602 52.8614 28.691 52.7654C29.0976 52.6456 29.5524 52.5974 30.031 52.5974V52.5974ZM25.9152 66.205C26.657 66.205 27.3509 66.0365 27.997 65.6521C28.6517 65.2875 29.2289 64.7974 29.6959 64.2096C30.1745 63.6084 30.5573 62.9111 30.8206 62.1657C31.0838 61.3963 31.2273 60.6033 31.2273 59.7859C31.2273 58.776 31.0599 57.983 30.7248 57.4058C30.3898 56.8288 29.6959 56.5644 28.7866 56.5644C28.4994 56.5644 28.1884 56.5886 27.7098 56.7088C27.2311 56.8047 26.8244 57.0455 26.4417 57.3818L24.3837 66.1088C25.0059 66.205 25.1973 66.2288 25.3649 66.2288C25.4846 66.205 25.6759 66.205 25.9152 66.205V66.205Z" fill="#002855"/>
<defs>
<filter id="filter0_d_1302_516" x="122.613" y="7.41943" width="33.1613" height="33.1614" filterUnits="userSpaceOnUse" color-interpolation-filters="sRGB">
<feFlood flood-opacity="0" result="BackgroundImageFix"/>
<feColorMatrix in="SourceAlpha" type="matrix" values="0 0 0 0 0 0 0 0 0 0 0 0 0 0 0 0 0 0 127 0" result="hardAlpha"/>
<feOffset dy="3"/>
<feGaussianBlur stdDeviation="3.5"/>
<feColorMatrix type="matrix" values="0 0 0 0 0 0 0 0 0 0 0 0 0 0 0 0 0 0 0.12 0"/>
<feBlend mode="normal" in2="BackgroundImageFix" result="effect1_dropShadow_1302_516"/>
<feBlend mode="normal" in="SourceGraphic" in2="effect1_dropShadow_1302_516" result="shape"/>
</filter>
</defs>
</svg>
