<svg width="182" height="167" viewBox="0 0 182 167" fill="none" xmlns="http://www.w3.org/2000/svg"><path d="M66.6679 14.439c-1.0211.6026-1.9027 1.4117-2.8717 2.0924-8.1799 5.7471-39.1921 26.5074-35.4909 72.6778 5.2487 65.4838 32.223 64.4288 72.5027 64.4288 40.281 0 70.249 5.68 78.647-28.049 8.535-34.28-6.91-36.0097-9.595-75.1143-2.686-39.1045-24.598-53.66018-56.776-49.903171C92.915 2.92803 81.0004 5.98386 66.6679 14.439z" fill="#FDEEF4"/><path d="M105.728 166.999C127.936 154.893 143 131.376 143 104.346 143 64.9425 110.989 33 71.5 33 32.0114 33 0 64.9425 0 104.346c0 27.03 15.065 50.547 37.272 62.653h68.456z" fill="#FDEEF4"/><path d="M84.744 164h57.511C162.873 153.608 177 132.391 177 107.903 177 73.163 148.57 45 113.499 45 78.4293 45 50 73.163 50 107.903c0 24.488 14.1254 45.705 34.744 56.097z" fill="#FDEEF4"/><path d="M89.0771 167c43.1859 0 78.1949-2.153 78.1949-4.809 0-2.655-35.009-4.808-78.1949-4.808-43.1859 0-78.195 2.153-78.195 4.808 0 2.656 35.0091 4.809 78.195 4.809z" fill="#FDEEF4"/><path d="M138.84 162.749H35.664c-1.8797 0-3.414-1.533-3.414-3.44V4.68957c0-1.90671 1.5343-3.43957 3.414-3.43957H138.84c1.88 0 3.414 1.53286 3.414 3.43957V159.309c0 1.907-1.534 3.44-3.414 3.44z" fill="#FDEEF4" stroke="#FE97C4" stroke-width="2.5" stroke-miterlimit="10"/><path d="M138.795 0H35.7092C33.1081 0 31 2.11962 31 4.73506V22.1672h112.504V4.73506C143.504 2.11962 141.396 0 138.795 0z" fill="#E72E80"/><path d="M129.519 31.4617H43.1038c-2.7615 0-5 2.2385-5 5V148.249c0 2.762 2.2385 5 5 5h86.4152c2.761 0 5-2.238 5-5V36.4617c0-2.7615-2.239-5-5-5z" fill="#fff"/><path d="M123.863 39.5806H74.1327c-1.4013 0-2.5372 1.1359-2.5372 2.5372s1.1359 2.5372 2.5372 2.5372h49.7303c1.401 0 2.537-1.1359 2.537-2.5372s-1.136-2.5372-2.537-2.5372zM123.863 49.7295H74.1327c-1.4013 0-2.5372 1.136-2.5372 2.5372 0 1.4013 1.1359 2.5373 2.5372 2.5373h49.7303c1.401 0 2.537-1.136 2.537-2.5373 0-1.4012-1.136-2.5372-2.537-2.5372zM123.863 59.8784H74.1327c-1.4013 0-2.5372 1.136-2.5372 2.5373 0 1.4012 1.1359 2.5372 2.5372 2.5372h49.7303c1.401 0 2.537-1.136 2.537-2.5372 0-1.4013-1.136-2.5373-2.537-2.5373zM99.5057 143.099H49.7758c-1.4013 0-2.5373 1.136-2.5373 2.537 0 1.402 1.136 2.538 2.5373 2.538h49.7299c1.4013 0 2.5373-1.136 2.5373-2.538 0-1.401-1.136-2.537-2.5373-2.537zM123.863 132.95H49.7758c-1.4013 0-2.5373 1.136-2.5373 2.538 0 1.401 1.136 2.537 2.5373 2.537h74.0872c1.401 0 2.537-1.136 2.537-2.537 0-1.402-1.136-2.538-2.537-2.538zM121.4 73.0723H52.2378c-2.7614 0-5 2.2385-5 5v18.4171c0 2.7614 2.2386 4.9996 5 4.9996H121.4c2.761 0 5-2.2382 5-4.9996V78.0723c0-2.7615-2.239-5-5-5z" fill="#FAE5EE"/><path d="M118.355 76.1167H56.2969c-2.7614 0-5 2.2386-5 5v11.3128c0 2.7614 2.2386 5 5 5h62.0581c2.761 0 5-2.2386 5-5V81.1167c0-2.7614-2.239-5-5-5z" fill="#FE97C4" stroke="#F397BF" stroke-miterlimit="10"/><path d="M67.6018 97.7967l12.5004-16.4446c.8507-1.1197 2.5149-1.1528 3.4107-.0661L94.456 94.578l4.512-5.7639c.8506-1.0866 2.474-1.1197 3.37-.0702l7.696 9.0528H67.6018zM57.4277 39.7205v22.75h-5.0781v-22.75h5.0781zm6.9219 0v3.9531H45.5684v-3.9531h18.7812z" fill="#E72E80"/><path d="M75.7087 11.374h-2.1914l-.0117-1.2773h1.8106c.3203 0 .58-.0391.7793-.11721.2031-.07812.3515-.1914.4453-.33984.0937-.15235.1406-.33985.1406-.5625 0-.25391-.0469-.45899-.1406-.61524-.0938-.15625-.2422-.26953-.4453-.33984-.1993-.07422-.4571-.11133-.7735-.11133h-1.1133v7.04886h-1.9101V6.52832h3.0234c.5117 0 .9688.04688 1.3711.14063.4024.09375.7442.23828 1.0254.43359.2852.19531.502.43945.6504.73242.1484.29297.2227.63867.2227 1.03711 0 .34766-.0782.67188-.2344.97266-.1524.30077-.3985.54487-.7383.73237-.3398.1875-.7949.2891-1.3652.3047l-.545.4922zm-.0761 3.6856H73.031l.6914-1.4766h1.9102c.2929 0 .5312-.0469.7148-.1406.1836-.0938.3184-.2207.4043-.3809.0859-.1601.1289-.3398.1289-.539 0-.2344-.041-.4375-.123-.6094-.0782-.1719-.2032-.3047-.375-.3985-.168-.0937-.3926-.1406-.6739-.1406h-1.7109l.0117-1.2773h2.0918l.4453.5039c.543-.0117.9766.0762 1.3008.2637.3281.1836.5645.4257.709.7265.1445.3008.2168.6192.2168.9551 0 .5547-.1191 1.0195-.3574 1.3945-.2383.3711-.5918.6504-1.0606.8379-.4648.1875-1.039.2813-1.7226.2813zm11.1433-1.4766v1.4766h-4.3066V13.583h4.3066zm-3.6562-7.05468v8.53128h-1.9102V6.52832h1.9102zM95.64 10.6064v.3809c0 .6484-.0899 1.2305-.2695 1.7461-.1758.5156-.4278.9551-.7559 1.3184-.3242.3632-.7109.6425-1.1602.8378-.4453.1915-.9394.2872-1.4824.2872-.5429 0-1.039-.0957-1.4883-.2872-.4492-.1953-.8398-.4746-1.1718-.8378-.3282-.3633-.5821-.8028-.7618-1.3184-.1796-.5156-.2695-1.0977-.2695-1.7461v-.3809c0-.64839.0899-1.23042.2695-1.74605.1797-.51953.4317-.96094.7559-1.32422.3281-.36328.7168-.64062 1.166-.83203.4492-.19531.9453-.29297 1.4883-.29297.543 0 1.0391.09766 1.4883.29297.4492.19141.8359.46875 1.1601.83203.3282.36328.5821.80469.7618 1.32422.1796.51563.2695 1.09766.2695 1.74605zm-1.9277.3809v-.3926c0-.4336-.0391-.81638-.1172-1.14841-.0782-.33594-.1914-.61719-.3399-.84375-.1484-.22656-.332-.39649-.5508-.50977-.2187-.11718-.4668-.17578-.7441-.17578-.2891 0-.541.0586-.7559.17578-.2148.11328-.3964.28321-.5449.50977-.1445.22656-.2558.50781-.334.84375-.0742.33203-.1113.71481-.1113 1.14841v.3926c0 .4297.0371.8125.1113 1.1484.0782.3321.1914.6133.3399.8438.1484.2305.3301.4043.5449.5215.2188.1172.4727.1758.7617.1758.2774 0 .5235-.0586.7383-.1758.2188-.1172.4023-.291.5508-.5215.1484-.2305.2597-.5117.334-.8438.0781-.3359.1172-.7187.1172-1.1484zm11.1727-.4336v3.4395c-.141.1601-.356.332-.645.5156-.285.1836-.65.3418-1.095.4746-.446.1289-.977.1934-1.594.1934-.559 0-1.066-.0899-1.524-.2696-.4565-.1836-.8491-.4511-1.1772-.8027-.3282-.3555-.5821-.7891-.7618-1.3008-.1757-.5117-.2636-1.0976-.2636-1.7578v-.5039c0-.66016.0879-1.2461.2636-1.75782.1758-.51172.4239-.94336.7442-1.29492.3203-.35547.7011-.625 1.1426-.8086.4412-.18359.9292-.27539 1.4652-.27539.761 0 1.384.12305 1.869.36914.484.24219.851.57813 1.101 1.00782.254.42968.41.92382.469 1.48242h-1.84c-.039-.28516-.117-.53125-.234-.73828-.113-.20703-.276-.36524-.486-.47461-.211-.11328-.485-.16992-.821-.16992-.269 0-.513.05664-.732.16992-.215.10937-.397.27539-.545.49804-.149.22266-.2619.5-.34.83204-.0781.32812-.1172.71096-.1172 1.14846v.5156c0 .4375.0391.8223.1172 1.1543.082.332.201.6094.357.832.157.2188.354.3848.592.4981.242.1133.524.1699.844.1699.25 0 .461-.0195.633-.0586.172-.043.312-.0957.422-.1582.109-.0664.191-.127.246-.1816v-1.418h-1.518v-1.3301h3.428z" fill="#fff"/><rect x="47.2378" y="110.623" width="79.1619" height="16.2383" rx="2" fill="#E72E80"/><path d="M71.2393 114.351c-1.1058 0-2.1879.318-3.1151.915.5198.536.9072 1.185 1.1318 1.895.2245.709.2802 1.461.1625 2.196-.1177.734-.4054 1.432-.8407 2.038-.4353.606-1.0063 1.103-1.6682 1.454h40.2534c1.273 0 2.509-.422 3.513-1.197 1.004-.775 1.718-1.86 2.029-3.083l-.8-3.021-40.6657-1.197z" fill="#E72E80"/><path d="M68.8148 118.471c0-.84-.2458-1.662-.7064-2.36-.4606-.699-1.1152-1.244-1.8811-1.565-.7659-.322-1.6087-.406-2.4218-.242-.8131.164-1.56.568-2.1462 1.163-.5862.594-.9854 1.351-1.1471 2.175-.1618.824-.0787 1.679.2385 2.455.3173.776.8545 1.44 1.5438 1.907.6893.467 1.4997.716 2.3287.716 1.1117 0 2.1779-.448 2.9639-1.244.7861-.797 1.2277-1.878 1.2277-3.005z" fill="#111"/><path d="M64.6233 116.958c-.3953.002-.774.162-1.0535.445-.2796.284-.4373.667-.4387 1.068v2.294h.0195c.1324.088.2717.163.4164.227l.1397.057v-1.388c.1869.148.4063.249.6397.294.2334.045.474.033.7016-.036.2281-.07.4368-.193.6092-.36.1709-.168.3003-.374.3775-.602.0772-.228.1001-.471.0668-.71-.0338-.239-.1238-.467-.2623-.664-.1386-.197-.3217-.358-.5341-.469-.212-.105-.4458-.158-.6818-.153v-.003zm0 2.448c-.1822-.001-.3601-.056-.5114-.159-.112-.077-.2058-.178-.2747-.296-.069-.118-.1113-.25-.1241-.387-.0128-.136.0044-.274.0502-.403.0459-.129.1193-.247.215-.344.0957-.097.2114-.171.3387-.218.1274-.046.2633-.063.3981-.051.1347.013.265.056.3815.126.1165.07.2163.165.2923.279.0925.14.1456.304.1537.473.0081.168-.0291.336-.1076.485-.0786.15-.1956.274-.3385.361-.1429.087-.3065.134-.4732.134z" fill="#E72E80"/><path d="M66.3838 120.562h.9473v.657h-2.9984c-.21-.023-.4164-.071-.6148-.145v-.731c.4624.234.9942.283 1.4905.138.4963-.145.9211-.473 1.1906-.92.2695-.446.3641-.979.2653-1.493-.0989-.514-.3841-.971-.7994-1.282-.4154-.311-.9306-.454-1.4442-.399-.5136.055-.9882.303-1.3303.695-.3421.393-.5268.901-.5177 1.424.009.523.2113 1.024.5668 1.404v.85c-.469-.312-.8314-.763-1.0372-1.291-.2058-.529-.245-1.109-.1122-1.662.1329-.552.4312-1.049.854-1.422.4228-.373.9493-.605 1.5071-.662.5578-.058 1.1196.061 1.6079.34.4884.28.8795.705 1.1195 1.219.2399.514.317 1.09.2206 1.65-.0964.56-.3615 1.076-.7589 1.477l-.1565.153z" fill="#FCEBF3"/><path d="M90.2474 119.709c-.2216.213-.5208.325-.8145.325-.6207 0-1.1416-.405-1.1416-1.114 0-.708.5209-1.113 1.1416-1.113.2937 0 .604.101.8256.314l.1718-.165c-.2771-.261-.6373-.394-.9974-.394-.7925 0-1.4076.527-1.4076 1.358 0 .831.6373 1.359 1.4076 1.359.3601 0 .7203-.128.9974-.394l-.1829-.176zM90.9871 116.507v3.729h.2716v-1.444c0-.548.3989-.974.9752-.974.6151 0 .8811.367.8811.911v1.507h.266v-1.507c0-.688-.3824-1.162-1.1471-1.162-.3823.006-.7647.149-.9863.528v-1.588h-.2605zM95.342 120.279c.4378 0 .9144-.171 1.1804-.506l-.194-.15c-.205.262-.6262.4-.9864.4-.5652 0-1.0584-.362-1.1138-.98h2.4659c.1053-1.028-.5818-1.481-1.3521-1.481-.7702 0-1.3908.57-1.3908 1.358 0 .837.6206 1.359 1.3908 1.359zm-1.1138-1.465c.061-.645.5486-1.012 1.1138-1.012.6595 0 1.1028.362 1.1083 1.012h-2.2221zM99.3147 119.709c-.2216.213-.5208.325-.8145.325-.6207 0-1.1416-.405-1.1416-1.114 0-.708.5209-1.113 1.1416-1.113.2937 0 .604.101.8256.314l.1718-.165c-.2771-.261-.6372-.394-.9974-.394-.7925 0-1.4076.527-1.4076 1.358 0 .831.6373 1.359 1.4076 1.359.3602 0 .7203-.128.9974-.394l-.1829-.176zM100.054 116.507v3.729h.266v-1.289l1.469 1.289h.343v-.016l-1.546-1.374 1.386-1.231v-.01h-.36l-1.292 1.15v-2.248h-.266zM103.533 120.279c.77 0 1.391-.512 1.391-1.348 0-.836-.621-1.369-1.391-1.369-.771 0-1.391.533-1.391 1.369s.62 1.348 1.391 1.348zm0-.256c-.621 0-1.125-.41-1.125-1.092 0-.682.504-1.124 1.125-1.124.62 0 1.125.442 1.125 1.124 0 .682-.505 1.092-1.125 1.092zM107.964 120.236v-2.637h-.272v1.465c0 .544-.393.954-.958.959-.593.005-.976-.314-.976-.911v-1.513h-.271v1.518c0 .73.504 1.162 1.236 1.162.382-.006.764-.155.975-.517v.474h.266zM109.064 116.837v.768h-.582v.218h.582v1.603c0 .517.189.847.77.847.172 0 .344-.053.516-.133l-.094-.213c-.139.064-.289.107-.422.107-.426 0-.504-.251-.504-.608v-1.603h.931v-.218h-.931v-.794l-.266.026zM72.1035 116.852v3.432h-.6288v-2.898h-.7159v-.534h1.3447zM72.8284 118.666h1.3301v.51h-1.3301v-.51zM76.4689 120.333c-.3418 0-.6514-.075-.9287-.225-.2741-.154-.4902-.365-.6482-.633-.1547-.268-.2321-.57-.2321-.907 0-.337.079-.639.237-.907.158-.268.374-.477.6481-.628.2773-.153.5869-.23.9287-.23.2773 0 .5305.049.7594.147.229.098.4225.24.5805.427l-.4063.387c-.2451-.268-.5466-.402-.9046-.402-.2321 0-.4401.052-.6239.157-.1838.101-.3273.243-.4305.426-.1032.183-.1548.391-.1548.623 0 .232.0516.44.1548.623.1032.183.2467.327.4305.431.1838.102.3918.152.6239.152.358 0 .6595-.135.9046-.407l.4063.393c-.158.186-.3531.328-.5853.426-.229.098-.4821.147-.7594.147zM78.358 116.646h.6046v3.638h-.6046v-3.638zM79.7562 117.666h.6046v2.618h-.6046v-2.618zm.3047-.432c-.1096 0-.2015-.034-.2757-.103-.0741-.071-.1112-.16-.1112-.264 0-.105.0371-.192.1112-.26.0742-.072.1661-.108.2757-.108.1097 0 .2016.034.2757.103.0742.065.1113.149.1113.25 0 .108-.0371.199-.1113.275-.0709.071-.1628.107-.2757.107zM82.3395 120.318c-.2677 0-.5079-.057-.7208-.171-.2128-.115-.3789-.273-.4982-.476-.1193-.206-.1789-.438-.1789-.696 0-.258.0596-.489.1789-.691.1193-.203.2838-.362.4934-.476.2128-.114.4547-.172.7256-.172.2547 0 .4772.053.6675.157.1934.105.3385.255.4353.451l-.4644.275c-.0741-.121-.1676-.211-.2805-.27-.1096-.062-.2306-.093-.3628-.093-.2257 0-.4127.075-.5611.226-.1483.147-.2225.345-.2225.593s.0726.448.2177.598c.1483.147.337.221.5659.221.1322 0 .2532-.03.3628-.088.1129-.063.2064-.154.2805-.275l.4644.275c-.1.196-.2467.348-.4402.456-.1902.104-.4111.156-.6626.156zM84.9958 119.161l-.4499.432v.691h-.6046v-3.638h.6046v2.197l1.2528-1.177h.7256l-1.0787 1.098 1.1802 1.52h-.7352l-.8948-1.123z" fill="#fff"/></svg>