<svg width="216" height="122" viewBox="0 0 216 122" fill="none" xmlns="http://www.w3.org/2000/svg">
<path d="M37 48H47.4837C49.4806 48 50.9783 48.4916 52.0877 49.3109C53.308 50.2941 53.9736 51.7143 53.9736 53.4622C53.9736 55.4832 53.1416 56.7395 51.4775 57.5042V57.6134C53.6963 58.3235 54.9721 60.2899 54.9721 62.6387C54.9721 64.8782 54.0846 66.6261 52.6424 67.7185C51.422 68.5924 49.8689 68.9748 47.7611 68.9748H37V48ZM46.4298 56.1933C47.5392 56.1933 48.3712 55.5924 48.3712 54.3361C48.3712 53.1345 47.5392 52.5336 46.3743 52.5336H42.7688V56.1387H46.4298V56.1933ZM46.929 64.3319C48.2048 64.3319 49.1478 63.5672 49.1478 62.2017C49.1478 60.7269 48.1493 60.0714 46.929 60.0714H42.8243V64.3866H46.929V64.3319Z" fill="#3A3A3A"/>
<path d="M55.915 48H61.4065V69.0294H55.915V48Z" fill="#3A3A3A"/>
<path d="M62.5159 61.5461C62.5159 56.794 65.6222 53.626 70.448 53.626C75.2738 53.626 78.3246 56.8487 78.3246 61.5461C78.3246 66.2982 75.2738 69.4663 70.448 69.4663C65.6222 69.4663 62.5159 66.2982 62.5159 61.5461ZM72.8332 61.5461C72.8332 58.9243 72.0011 57.2856 70.3371 57.2856C68.673 57.2856 67.8964 58.9243 67.8964 61.5461C67.8964 64.168 68.673 65.8613 70.3371 65.8613C72.0011 65.8066 72.8332 64.168 72.8332 61.5461Z" fill="#3A3A3A"/>
<path d="M78.9348 61.5461C78.9348 56.794 82.0411 53.626 86.8669 53.626C91.6928 53.626 94.6881 56.794 94.6881 61.5461C94.6881 66.2982 91.6373 69.4663 86.8115 69.4663C82.0411 69.4663 78.9348 66.2982 78.9348 61.5461ZM89.2521 61.5461C89.2521 58.9243 88.4201 57.2856 86.756 57.2856C85.0919 57.2856 84.3153 58.9243 84.3153 61.5461C84.3153 64.168 85.0919 65.8613 86.756 65.8613C88.4201 65.8066 89.2521 64.168 89.2521 61.5461Z" fill="#3A3A3A"/>
<path d="M95.7976 54.0083H100.901V56.2478H101.012C102.01 54.4999 103.397 53.5713 105.616 53.5713C107.557 53.5713 108.999 54.4999 109.72 56.1385H109.831C111.052 54.1721 112.66 53.5713 114.546 53.5713C118.096 53.5713 119.594 56.1385 119.594 59.5797V68.9747H114.269V60.5083C114.269 58.9789 113.77 57.9957 112.438 57.9957C111.107 57.9957 110.442 59.1973 110.442 60.836V68.9747H105.116V60.5083C105.116 58.9789 104.617 57.9957 103.286 57.9957C101.955 57.9957 101.289 59.1973 101.289 60.836V68.9747H95.7976C95.7976 68.9747 95.7976 54.0083 95.7976 54.0083Z" fill="#3A3A3A"/>
<path d="M126.306 67.0084H126.25V68.9748H121.147V48H126.472V55.5378H126.583C127.581 54.2269 128.968 53.5168 130.91 53.5168C134.737 53.5168 136.956 56.9034 136.956 61.437C136.956 66.5168 134.571 69.4664 130.577 69.4664C128.913 69.4664 127.193 68.7017 126.306 67.0084ZM131.464 61.3824C131.464 58.979 130.577 57.395 128.968 57.395C127.304 57.395 126.306 58.979 126.306 61.3824C126.306 63.7857 127.36 65.3697 128.968 65.3697C130.577 65.3697 131.464 63.8403 131.464 61.3824Z" fill="#3A3A3A"/>
<path d="M137.566 61.4915C137.566 56.794 140.728 53.5713 145.276 53.5713C147.55 53.5713 149.27 54.2814 150.601 55.5377C152.376 57.231 153.153 59.8528 153.097 62.9116H142.891C143.113 64.7688 144 65.752 145.609 65.752C146.552 65.752 147.384 65.315 147.717 64.3318H152.875C151.988 67.773 149.27 69.4662 145.443 69.4662C140.728 69.4116 137.566 66.2436 137.566 61.4915ZM142.891 59.9074H147.772C147.661 58.1049 146.663 57.1763 145.387 57.1763C143.889 57.1217 143.057 58.1595 142.891 59.9074Z" fill="#3A3A3A"/>
<path d="M159.143 56.5756H159.254C160.364 54.5 161.806 53.6807 163.636 53.6807C164.08 53.6807 164.358 53.7353 164.524 53.8445V58.4328H164.413C161.251 57.8865 159.421 59.3613 159.421 62.7479V69.0294H154.04V54.0084H159.143V56.5756Z" fill="#3A3A3A"/>
<path d="M165.079 69.0292H170.238C170.459 69.6847 171.125 70.2855 172.401 70.2855C174.12 70.2855 174.731 69.2477 174.731 67.6637V66.5712H174.62C173.788 67.5544 172.623 68.2645 170.959 68.2645C167.686 68.2645 164.802 65.8611 164.802 61.1637C164.802 56.8485 167.131 53.5166 170.681 53.5166C172.734 53.5166 173.954 54.3359 174.786 55.5922H174.897V53.9536H180V66.9536C180 69.3569 179.168 71.2141 177.892 72.3065C176.561 73.4536 174.675 73.9452 172.512 73.9452C168.407 73.9998 165.578 72.3611 165.079 69.0292ZM174.952 60.9452C174.952 59.088 174.065 57.5586 172.512 57.5586C171.014 57.5586 170.071 58.8695 170.071 60.9452C170.071 62.9662 171.014 64.3863 172.512 64.3863C174.009 64.3863 174.952 62.9116 174.952 60.9452Z" fill="#3A3A3A"/>
<path d="M37 48H47.4837C49.4806 48 50.9783 48.4916 52.0877 49.3109C53.308 50.2941 53.9736 51.7143 53.9736 53.4622C53.9736 55.4832 53.1416 56.7395 51.4775 57.5042V57.6134C53.6963 58.3235 54.9721 60.2899 54.9721 62.6387C54.9721 64.8782 54.0846 66.6261 52.6424 67.7185C51.422 68.5924 49.8689 68.9748 47.7611 68.9748H37V48ZM46.4298 56.1933C47.5392 56.1933 48.3712 55.5924 48.3712 54.3361C48.3712 53.1345 47.5392 52.5336 46.3743 52.5336H42.7688V56.1387H46.4298V56.1933ZM46.929 64.3319C48.2048 64.3319 49.1478 63.5672 49.1478 62.2017C49.1478 60.7269 48.1493 60.0714 46.929 60.0714H42.8243V64.3866H46.929V64.3319Z" fill="#3A3A3A"/>
<path d="M55.915 48H61.4065V69.0294H55.915V48Z" fill="#3A3A3A"/>
<path d="M62.5159 61.5461C62.5159 56.794 65.6222 53.626 70.448 53.626C75.2738 53.626 78.3246 56.8487 78.3246 61.5461C78.3246 66.2982 75.2738 69.4663 70.448 69.4663C65.6222 69.4663 62.5159 66.2982 62.5159 61.5461ZM72.8332 61.5461C72.8332 58.9243 72.0011 57.2856 70.3371 57.2856C68.673 57.2856 67.8964 58.9243 67.8964 61.5461C67.8964 64.168 68.673 65.8613 70.3371 65.8613C72.0011 65.8066 72.8332 64.168 72.8332 61.5461Z" fill="#3A3A3A"/>
<path d="M78.9348 61.5461C78.9348 56.794 82.0411 53.626 86.8669 53.626C91.6928 53.626 94.6881 56.794 94.6881 61.5461C94.6881 66.2982 91.6373 69.4663 86.8115 69.4663C82.0411 69.4663 78.9348 66.2982 78.9348 61.5461ZM89.2521 61.5461C89.2521 58.9243 88.4201 57.2856 86.756 57.2856C85.0919 57.2856 84.3153 58.9243 84.3153 61.5461C84.3153 64.168 85.0919 65.8613 86.756 65.8613C88.4201 65.8066 89.2521 64.168 89.2521 61.5461Z" fill="#3A3A3A"/>
<path d="M95.7976 54.0083H100.901V56.2478H101.012C102.01 54.4999 103.397 53.5713 105.616 53.5713C107.557 53.5713 108.999 54.4999 109.72 56.1385H109.831C111.052 54.1721 112.66 53.5713 114.546 53.5713C118.096 53.5713 119.594 56.1385 119.594 59.5797V68.9747H114.269V60.5083C114.269 58.9789 113.77 57.9957 112.438 57.9957C111.107 57.9957 110.442 59.1973 110.442 60.836V68.9747H105.116V60.5083C105.116 58.9789 104.617 57.9957 103.286 57.9957C101.955 57.9957 101.289 59.1973 101.289 60.836V68.9747H95.7976C95.7976 68.9747 95.7976 54.0083 95.7976 54.0083Z" fill="#3A3A3A"/>
<path d="M126.306 67.0084H126.25V68.9748H121.147V48H126.472V55.5378H126.583C127.581 54.2269 128.968 53.5168 130.91 53.5168C134.737 53.5168 136.956 56.9034 136.956 61.437C136.956 66.5168 134.571 69.4664 130.577 69.4664C128.913 69.4664 127.193 68.7017 126.306 67.0084ZM131.464 61.3824C131.464 58.979 130.577 57.395 128.968 57.395C127.304 57.395 126.306 58.979 126.306 61.3824C126.306 63.7857 127.36 65.3697 128.968 65.3697C130.577 65.3697 131.464 63.8403 131.464 61.3824Z" fill="#3A3A3A"/>
<path d="M137.566 61.4915C137.566 56.794 140.728 53.5713 145.276 53.5713C147.55 53.5713 149.27 54.2814 150.601 55.5377C152.376 57.231 153.153 59.8528 153.097 62.9116H142.891C143.113 64.7688 144 65.752 145.609 65.752C146.552 65.752 147.384 65.315 147.717 64.3318H152.875C151.988 67.773 149.27 69.4662 145.443 69.4662C140.728 69.4116 137.566 66.2436 137.566 61.4915ZM142.891 59.9074H147.772C147.661 58.1049 146.663 57.1763 145.387 57.1763C143.889 57.1217 143.057 58.1595 142.891 59.9074Z" fill="#3A3A3A"/>
<path d="M159.143 56.5756H159.254C160.364 54.5 161.806 53.6807 163.636 53.6807C164.08 53.6807 164.358 53.7353 164.524 53.8445V58.4328H164.413C161.251 57.8865 159.421 59.3613 159.421 62.7479V69.0294H154.04V54.0084H159.143V56.5756Z" fill="#3A3A3A"/>
<path d="M165.079 69.0292H170.238C170.459 69.6847 171.125 70.2855 172.401 70.2855C174.12 70.2855 174.731 69.2477 174.731 67.6637V66.5712H174.62C173.788 67.5544 172.623 68.2645 170.959 68.2645C167.686 68.2645 164.802 65.8611 164.802 61.1637C164.802 56.8485 167.131 53.5166 170.681 53.5166C172.734 53.5166 173.954 54.3359 174.786 55.5922H174.897V53.9536H180V66.9536C180 69.3569 179.168 71.2141 177.892 72.3065C176.561 73.4536 174.675 73.9452 172.512 73.9452C168.407 73.9998 165.578 72.3611 165.079 69.0292ZM174.952 60.9452C174.952 59.088 174.065 57.5586 172.512 57.5586C171.014 57.5586 170.071 58.8695 170.071 60.9452C170.071 62.9662 171.014 64.3863 172.512 64.3863C174.009 64.3863 174.952 62.9116 174.952 60.9452Z" fill="#3A3A3A"/>
</svg>
