<svg width="41" height="40" viewBox="0 0 41 40" fill="none" xmlns="http://www.w3.org/2000/svg">
<path d="M41 13.5001C41 20.9559 34.9558 27.0001 27.5 27.0001C20.0442 27.0001 14 20.9559 14 13.5001C14 6.04422 20.0442 6.10352e-05 27.5 6.10352e-05C34.9558 6.10352e-05 41 6.04422 41 13.5001Z" fill="#FF8FAB"/>
<path d="M20.0002 30.3334C23.6821 30.3334 26.6668 27.3486 26.6668 23.6667C26.6668 19.9848 23.6821 17.0001 20.0002 17.0001C16.3183 17.0001 13.3335 19.9848 13.3335 23.6667C13.3335 27.3486 16.3183 30.3334 20.0002 30.3334Z" stroke="white" stroke-width="1.5" stroke-miterlimit="10" stroke-linecap="round" stroke-linejoin="round"/>
<path d="M17.3999 23.8334L18.4832 24.9167C18.7999 25.2334 19.3166 25.2334 19.6332 24.9334L22.5999 22.2001" stroke="white" stroke-width="1.5" stroke-linecap="round" stroke-linejoin="round"/>
<path d="M13.3332 36.6667H26.6665C33.3665 36.6667 34.5665 33.9834 34.9165 30.7167L36.1665 17.3834C36.6165 13.3167 35.4499 10.0001 28.3332 10.0001H11.6665C4.54987 10.0001 3.38321 13.3167 3.83321 17.3834L5.08321 30.7167C5.43321 33.9834 6.63321 36.6667 13.3332 36.6667Z" stroke="white" stroke-width="1.5" stroke-miterlimit="10" stroke-linecap="round" stroke-linejoin="round"/>
<path d="M13.3335 10.0001V8.66674C13.3335 5.71674 13.3335 3.3334 18.6668 3.3334H21.3335C26.6668 3.3334 26.6668 5.71674 26.6668 8.66674V10.0001" stroke="white" stroke-width="1.5" stroke-miterlimit="10" stroke-linecap="round" stroke-linejoin="round"/>
<path d="M36.0831 18.3334C33.1998 20.4334 29.9998 21.9001 26.6831 22.7334" stroke="white" stroke-width="1.5" stroke-miterlimit="10" stroke-linecap="round" stroke-linejoin="round"/>
<path d="M4.3667 18.7834C7.15003 20.6834 10.1834 22.0334 13.3334 22.8001" stroke="white" stroke-width="1.5" stroke-miterlimit="10" stroke-linecap="round" stroke-linejoin="round"/>
</svg>
