<svg width="25" height="26" viewBox="0 0 25 26" fill="none" xmlns="http://www.w3.org/2000/svg"><path fill-rule="evenodd" clip-rule="evenodd" d="M23.1373 13.8195c1.1577 0 2.0885.9886 1.8059 2.1114-1.1215 4.4568-4.7428 7.9605-9.3377 9.0282-1.125.2613-2.1079-.6677-2.1079-1.8226v-7.317c0-1.1046.8954-2 2-2h7.6397zm1.806-3.7509c.2825 1.1228-.6482 2.1114-1.806 2.1114h-7.6397c-1.1046 0-2-.8954-2-2V2.86284c0-1.1549.9829-2.083962 2.1079-1.82259 4.595 1.06764 8.2163 4.57149 9.3378 9.02835zM9.81058 12.18c1.10462 0 2.00002-.8954 2.00002-2V2.86212c0-1.1547-.9827-2.083711-2.10748-1.8227C5.10642 2.10606 1.48348 5.61058.361686 10.0686.0791625 11.1914 1.00993 12.18 2.16769 12.18h7.64289zm-9.80852581.5958C.00068666 12.8503 0 12.9249 0 12.9997c0 .0747.00068665.1493.00205417.2238l2e-8-.4477zM2.16773 13.8195c-1.15777 0-2.0885363.9886-1.805988 2.1114 1.121858 4.4579 4.744748 7.9624 9.341378 9.029 1.12478.261 2.10748-.668 2.10748-1.8227v-7.3177c0-1.1046-.8955-2-2.00002-2H2.16773z" fill="#E72E80"/></svg>