<svg width="96" height="90" viewBox="0 0 96 90" fill="none" xmlns="http://www.w3.org/2000/svg"><ellipse opacity=".1" cx="47.002" cy="45" rx="45.002" ry="45" fill="url(#paint0_linear_7_5008)"/><path d="M18.9739 57h26.2986c.9946 0 1.9485-.3951 2.6518-1.0983.7033-.7033 1.0984-1.6571 1.0984-2.6517v-32.5c0-.9946-.3951-1.9484-1.0984-2.6516C47.221 17.3951 46.2671 17 45.2725 17H4.75448c-2.70387 0-4.520203 2.775-3.43515 5.2537l14.21937 32.5c.2923.6678.7729 1.2359 1.383 1.6348.6101.3989 1.3232.6114 2.0522.6115z" fill="#111" stroke="#111" stroke-width="2"/><path d="M95.0002 59.048V32.7505c0-.9946-.3951-1.9484-1.0984-2.6517-.7032-.7032-1.6571-1.0983-2.6517-1.0983H58.7486c-.9946 0-1.9484.3951-2.6517 1.0983-.7033.7033-1.0984 1.6571-1.0984 2.6517v40.5162c0 2.7038 2.7751 4.52 5.2539 3.435L92.7539 62.483c.6678-.2923 1.2359-.7729 1.6348-1.3829.399-.6101.6115-1.3232.6115-2.0521z" fill="#E72E80" stroke="#E72E80" stroke-width="2"/><path d="M76.4841 52.7151c2.0515-.8197 3.0499-3.1472 2.2301-5.1986-.8197-2.0514-3.1473-3.0499-5.1987-2.2302-2.0515.8197-3.0499 3.1472-2.2302 5.1986.8198 2.0514 3.1474 3.0499 5.1988 2.2302z" stroke="#fff" stroke-width="2" stroke-linecap="round" stroke-linejoin="round"/><path d="M80.6978 38.1086l-17.3341 6.9263c-1.3676.5465-2.0332 2.0982-1.4867 3.4658l3.9582 9.9051c.5465 1.3676 2.0982 2.0332 3.4658 1.4868l17.3341-6.9264c1.3677-.5464 2.0333-2.0981 1.4868-3.4657l-3.9582-9.9051c-.5465-1.3676-2.0982-2.0332-3.4659-1.4868zM82.4294 46.0317l.0132-.0052M67.5703 51.9692l.0132-.0052" stroke="#fff" stroke-width="2" stroke-linecap="round" stroke-linejoin="round"/><path d="M29.5012 24c-6.3413 0-11.5005 5.1589-11.5005 11.5S23.1599 47 29.5012 47c6.3414 0 11.5006-5.1589 11.5006-11.5S35.8426 24 29.5012 24zm0 20.7c-5.0728 0-9.2004-4.1274-9.2004-9.2 0-5.0726 4.1276-9.2 9.2004-9.2 5.0729 0 9.2005 4.1274 9.2005 9.2 0 5.0726-4.1276 9.2-9.2005 9.2z" fill="#fff"/><path d="M30.6518 29.75h-2.3v6.9h6.9v-2.3h-4.6v-4.6z" fill="#fff"/><defs><linearGradient id="paint0_linear_7_5008" x1="47.002" y1="0" x2="47.002" y2="90" gradientUnits="userSpaceOnUse"><stop stop-color="#E72E80" stop-opacity=".5"/><stop offset="1" stop-color="#E72E80"/></linearGradient></defs></svg>