<svg width="40" height="39" viewBox="0 0 40 39" fill="none" xmlns="http://www.w3.org/2000/svg"><path d="M36.3729 10.9992l-.1029 8.5966c-.03.9527-.6724 1.6334-1.516 1.7814l-21.1637 3.4411-.0366 2.446 20.1705-3.2795c1.0752-.0917 1.9175.5465 2.0863 1.5105.0944 1.0766-.5409 1.9242-1.5047 2.0945L11.996 31.2172c-1.2242.0872-2.09943-.7614-2.142-1.8558l.11359-5.371L6.15247 9.57624 1.81636 8.9432C.743295 8.70525.184076 7.85651.267069 6.87303.499691 5.82431 1.36527 5.2217 2.32916 5.31768l5.54406.8303c.75333.1518 1.25605.669 1.46993 1.3353l.77585 2.86502 24.3473-1.20372c1.1373.0603 1.8748.83705 1.9066 1.85462zM18.073 34.1131c.2452 1.5197-.7832 2.9512-2.2971 3.1973-1.5138.2461-2.9397-.7863-3.1848-2.306-.2452-1.5198.7832-2.9513 2.297-3.1974 1.5138-.2461 2.9397.7864 3.1849 2.3061zm16.3635-2.6606c.2451 1.5197-.7833 2.9512-2.2971 3.1973-1.5138.2462-2.9397-.7863-3.1849-2.306-.2452-1.5197.7832-2.9512 2.297-3.1974 1.5139-.2461 2.9398.7864 3.185 2.3061z" fill="#2E7CF6"/></svg>