<svg width="154" height="70" viewBox="0 0 154 70" fill="none" xmlns="http://www.w3.org/2000/svg"><path d="M6.60032 17.893s5.07728-4.2812 22.08618-7.7719l1.5232 17.2286s-10.0276 1.7309-17.6609 0c-7.63322-1.731-10.15456-7.5758-5.94848-9.4567z" fill="#111"/><path d="M31.2022 69.8957h-.0577c-2.9993-.1159-5.9903-.3913-8.9603-.8251-.1716-.0236-.3368-.0811-.4861-.169-.1492-.0879-.2796-.2046-.3834-.3433-.1039-.1386-.1792-.2965-.2216-.4645-.0424-.1679-.0511-.3426-.0255-.514.0255-.1713.0848-.3359.1744-.4841.0896-.1483.2078-.2773.3476-.3796s.2985-.1758.4669-.2164c.1684-.0405.3432-.0472.5143-.0197 2.8684.4217 5.7574.6895 8.6544.802.3474.0069.6778.1515.9186.402.2407.2505.3721.5863.3652.9337-.0069.3474-.1515.6778-.402.9185-.2505.2408-.5863.3722-.9337.3653l.0289-.0058zM36.464 70.0001c-.3315-.022-.6423-.1693-.8694-.4119-.2271-.2427-.3534-.5626-.3534-.8949 0-.3323.1263-.6522.3534-.8949.2271-.2427.5379-.3899.8694-.412 2.0021 0 4.1311-.0461 6.3467-.1327 2.7059-.1096 5.5504-.2712 8.4525-.4731.3466-.0245.6887.0897.9511.3175.2624.2278.4235.5504.448.897.0245.3466-.0897.6888-.3175.9512-.2277.2624-.5504.4235-.897.448-2.931.202-5.8042.3635-8.5333.4731-2.2502.0866-4.4138.1327-6.4505.1327zM56.1443 69.0245c-.3356-.0032-.6573-.1352-.8984-.3687-.2412-.2335-.3835-.5507-.3976-.8861-.014-.3354.1012-.6633.322-.9162s.5302-.4114.8644-.4427c16.6628-1.402 32.9793-3.9638 43.7282-5.8678.3411-.0605.6921.0171.9761.2157.284.1985.478.5018.538.843.061.3413-.017.6925-.215.9766-.199.284-.502.4776-.843.538-10.8011 1.9156-27.2042 4.4946-43.965 5.9025l-.1097.0057z" fill="#ED2079"/><path d="M41.9285 20.1258c9.416-.3174 27.0538-1.154 47.9977-3.2773 2.1184-.213 4.0753-1.228 5.4697-2.837 1.3945-1.6091 2.121-3.6903 2.0308-5.81765v-.21347c-.0972-2.16823-1.0344-4.21353-2.6131-5.70289C93.2349.788121 91.1386-.0284043 88.9684.00075495 77.8561.162309 56.6584.802752 40.3764 3.26068c-2.0603.30927-3.9299 1.37981-5.2395 3.00027-1.3096 1.62046-1.964 3.67306-1.8341 5.75255v.4038c.1612 2.1512 1.15 4.1562 2.7585 5.5937 1.6085 1.4374 3.7115 2.1955 5.8672 2.1148z" fill="url(#paint0_linear_7_5577)"/><path d="M44.1449 16.7456c-.7472.0895-1.5045-.0316-2.1865-.3495-.6308-.3035-1.1593-.7843-1.521-1.3835-.3929-.6771-.6234-1.436-.6735-2.2173-.0898-.7859.0084-1.5819.2863-2.3225.2481-.65313.6811-1.21983 1.2461-1.63083.6169-.43268 1.3415-.68607 2.0936-.73209.8466-.11082 1.7064.05432 2.4517.4709.6903.41475 1.228 1.04168 1.5327 1.78722l-1.5342.5807c-.1622-.4678-.4841-.8635-.9091-1.11753-.425-.25401-.9259-.35012-1.4148-.27142-.4635.02308-.9094.18536-1.2793.46565-.3351.2736-.579.6428-.6991 1.0584-.1464.4921-.1909 1.0089-.1306 1.5188.0343.5137.1679 1.0158.3932 1.4787.1939.3878.502.707.8827.9145.3149.1888.671.2983 1.0376.3191.3665.0207.7327-.0478 1.067-.1999.3342-.152.6266-.3829.8519-.6728.2254-.29.3769-.6303.4417-.9918l1.6124.2937c-.1692.7883-.5879 1.5012-1.1941 2.0329-.6559.5749-1.4842.9156-2.3547.9686zM48.3601 16.1982l1.7919-8.49825 2.3012-.20403 3.2646 8.04148-1.6107.1452-2.9002-7.09294.2998-.01304-1.5642 7.48918-1.5824.1324zm1.3632-1.8612l-.1266-1.4556 4.3606-.3918.1325 1.4611-4.3665.3863zM59.6774 15.3595c-.5687.0578-1.1433-.0017-1.6881-.175-.4918-.1647-.9361-.4467-1.2945-.8215-.3594-.3936-.6092-.8746-.7245-1.395l1.606-.3874c.1315.4342.4217.803.8128 1.033.3796.2244.8206.3225 1.2595.2802.2543-.0215.5033-.085.7369-.188.217-.0898.409-.231.5597-.4112.1333-.1644.1967-.3746.1767-.5852-.0049-.0827-.024-.164-.0565-.2401-.0343-.0773-.0823-.1476-.1419-.2076-.0763-.0727-.1649-.1314-.2616-.1734-.1324-.0614-.2721-.1058-.4157-.1321l-2.2021-.4413c-.1971-.0361-.392-.0835-.5836-.1421-.2303-.0693-.449-.1727-.6486-.3068-.2235-.152-.4114-.3507-.5507-.5824-.1743-.2903-.2739-.61936-.2898-.95764-.0598-.49367.0444-.99334.2965-1.42205.2562-.39876.6183-.71843 1.0457-.92331.4805-.22852.9996-.36472 1.5303-.40151.5235-.04684 1.0511.00666 1.5546.15763.4465.1416.8529.38718 1.186.71652.3464.35597.6096.78439.7704 1.25437l-1.6616.4361c-.0759-.24701-.2149-.4699-.4034-.6466-.1787-.16526-.3909-.29-.6222-.36566-.2359-.07619-.4842-.10655-.7316-.08946-.2351.00959-.4661.06475-.6802.16241-.1924.08229-.3629.20835-.498.36816-.1216.14725-.1799.33671-.162.52682.0029.08144.023.16133.059.23442.0361.07309.0871.13772.1499.18964.1301.10793.281.18787.4433.23483.1739.05463.3513.09713.5311.12703l1.4665.2597c.2213.0423.4661.0952.7348.1644.2835.065.5563.1698.8104.3112.2866.1641.5266.3985.6975.6811.1708.2825.2669.6039.2791.9339.0405.3961-.0197.796-.1749 1.1627-.1545.3431-.3865.6458-.6778.8842-.3034.2519-.6487.4487-1.0201.5815-.3903.1538-.7999.2532-1.2173.2955zM64.2719 14.7555l-.7335-8.27284 1.5591-.1371.3031 3.39997 3.6989-.33412-.3031-3.39997 1.5591-.1371.7391 8.26686-1.5647.1431-.3036-3.4115-3.6934.3281.3037 3.4115-1.5647.1431zM78.5472 13.6728c-.7473.0895-1.5046-.0316-2.1866-.3496-.6307-.3034-1.1593-.7842-1.521-1.3834-.3928-.6771-.6233-1.436-.6735-2.21726-.0915-.78536.0047-1.58127.2806-2.32229.2522-.65249.6868-1.21868 1.2519-1.63108.6258-.41364 1.3447-.66517 2.0918-.73194.7472-.06677 1.4992.05332 2.1883.34945.6292.3036 1.1559.78456 1.5152 1.38369.382.68163.6154 1.4364.685 2.21473.0695.77833-.0264 1.5626-.2815 2.3013-.2482.6548-.6836 1.222-1.2519 1.631-.6147.4438-1.3419.7056-2.0983.7554zm-.1328-1.4669c.4638-.0169.9109-.1776 1.2794-.4599.3367-.2733.5792-.6454.6932-1.0639.2615-.98896.1732-2.03786-.2498-2.96912-.1949-.38195-.4978-.69815-.871-.90926-.4153-.20962-.882-.29556-1.3448-.24761-.4638.01697-.9109.17768-1.2795.45991-.3333.27639-.575.64736-.6931 1.06391-.1402.49526-.1844 1.01272-.1304 1.52455.0354.51222.1709 1.01252.3988 1.47262.1895.3858.4937.7034.8709.9093.4121.1983.8723.2745 1.3263.2195zM83.6886 13.0391l-.7391-8.26689 1.5877-.14412 4.0826 5.19341-.4927-5.51123 1.5877-.14413.7393 8.27266-1.5879.1383-4.0826-5.19339.4872 5.51729-1.5822.1381z" fill="#fff"/><path d="M10.8065 16.012s-4.20609 1.0905-4.20609 4.1427c0 3.0522 15.98189 5.2332 55.01359 2.1809 39.032-3.0522 46.007-3.7099 46.007-3.7099V7.13226c.001-.38344.102-.75997.294-1.09219.191-.33222.466-.60858.798-.80164.331-.19307.707-.29612 1.09-.29892.384-.0028.761.09474 1.095.28294l41.669 23.65615c.39.2273.722.5431.968.9219.246.3789.399.8102.448 1.2593.049.449-.008.9033-.167 1.3262-.159.4229-.415.8025-.747 1.1084l-35.357 31.7973c-.288.2608-.641.4401-1.022.5194-.381.0793-.777.0558-1.145-.0682-.369-.1239-.699-.3438-.954-.637-.256-.2933-.429-.6493-.502-1.0316l-1.887-9.9125s-37.0697 7.87-69.5586 9.1682C10.1545 64.6282 2.5155 56.0543.455734 39.997-1.39055 25.6071 2.52127 18.4122 10.8065 16.012z" fill="url(#paint1_linear_7_5577)"/><path opacity=".22" d="M153.069 33.5061l-35.357 31.8031c-.289.259-.643.4366-1.024.5145-.38.078-.775.0535-1.143-.0708-.369-.1244-.698-.3441-.953-.637-.256-.2928-.429-.6482-.503-1.0299l-1.887-9.9125s-37.0695 7.8585-69.5584 9.1624C10.1547 64.6399 2.51565 56.0602.455882 40.0029c-.4002676-2.8315-.5374012-5.694-.4096446-8.5508.0692356 1.3155.1980906 2.7118.3865656 4.1888C2.49257 51.6983 10.1258 60.2779 42.6205 58.974c32.4946-1.304 69.5585-9.1567 69.5585-9.1567l1.91 9.9067c.072.3828.245.7395.5 1.0334.256.294.585.5146.954.6392.369.1245.764.1486 1.145.0696.382-.079.735-.2581 1.024-.519l35.299-31.7338c.305.2665.55.5941.72.9617.17.3676.261.7668.266 1.1718.006.4049-.074.8064-.234 1.1784-.16.3721-.396.7062-.694.9808z" fill="#000"/><path d="M18.8435 48.8132l-.7039-15.4342 4.985-.1962h.7501c.3651-.0204.7311-.0204 1.0962 0 1.1646.0621 2.2856.4632 3.2252 1.154.9058.6895 1.6256 1.5937 2.0944 2.631.9998 2.2678 1.1191 4.8266.3347 7.1776-.3698 1.0768-1.0047 2.0432-1.8463 2.8099-.8712.7743-1.9505 1.2758-3.1041 1.4424-.3462.0577-.7097.0981-1.0905.127-.3808.0288-.6288.0404-.75.0404l-4.9908.2481zm2.8329-2.8849l2.0367-.0924c.1885 0 .4481-.0173.7789-.0519.2993-.0197.5965-.0641.8886-.1327.6328-.1465 1.1967-.5047 1.5981-1.0155.4163-.5384.7115-1.1603.8655-1.8232.1677-.7064.2376-1.4325.2077-2.1579-.0309-.7439-.1728-1.4791-.4212-2.181-.2123-.6474-.5672-1.2389-1.0385-1.7309-.4427-.4565-1.0258-.7511-1.6559-.8367-.2957-.0469-.5951-.0662-.8943-.0577h-.7847l-2.0367.0924.4558 9.9875zM34.0872 48.1214l-.7039-15.4342 10.0738-.4616.1269 2.7233-7.1601.3289.15 3.3003 5.8735-.2711.1269 2.7233-5.8735.2654.1789 3.9696 7.1601-.3289.1212 2.7234-10.0738.4616zM46.9191 47.5327l-.7155-15.4342 2.8848-.1327.577 12.6936 6.6466-.3059.1212 2.7234-9.5141.4558zM58.5154 47.0308l-.7039-15.4342 2.8848-.1327.7039 15.4342-2.8848.1327zM67.967 46.5692l-5.4177-15.2149 3.0002-.1385 4.4369 12.5147 3.3349-12.8551 3.006-.1327-4.0388 15.6477-4.3215.1788zM78.6399 46.0838l-.7039-15.4342 10.0738-.4616.127 2.7233-7.1602.3289.15 3.3003 5.8735-.2711.127 2.7233-5.8735.2654.1788 3.9696 7.1602-.3289.1211 2.7234-10.0738.4616zM91.2869 45.5012l-.7039-15.4284 6.5139-.3h.6059c.2295-.0025.4589.011.6865.0403.8267.063 1.6227.3415 2.3077.8078.606.4264 1.083 1.0112 1.379 1.6906.32.7291.5 1.5121.531 2.3079.087 1.1787-.198 2.3551-.814 3.3638-.337.4931-.774.9107-1.281 1.2265-.508.3159-1.0753.523-1.6669.6083l-1.2808.1442-3.6003.1673.2366 5.2275-2.9137.1442zm2.5502-8.0777l3.4618-.1558c.15 0 .3173 0 .4904-.0461.1669-.019.3313-.0558.4904-.1097.3492-.0947.6599-.2965.8885-.577.1974-.2548.3354-.5504.4039-.8654.0671-.2912.0962-.5899.0866-.8886-.0192-.3-.0754-.5965-.1674-.8828-.0976-.3079-.2632-.5899-.4846-.825-.2521-.2589-.579-.4325-.9347-.4962-.1624-.04-.3289-.0613-.4962-.0635h-.4904l-3.4618.1558.2135 4.7543zm6.1504 7.6854l-3.329-6.1564 2.9771-.7155 3.6524 6.7045-3.3005.1674zM109.093 44.6881l-.283-6.2775-5.694-8.9143 3.41-.1558 3.606 5.6601 3.081-5.9659 3.409-.1558-4.858 9.3932.289 6.2833-2.96.1327z" fill="#fff"/><defs><linearGradient id="paint0_linear_7_5577" x1="33.2682" y1="10.0575" x2="97.4267" y2="10.0575" gradientUnits="userSpaceOnUse"><stop stop-color="#ED2079"/><stop offset=".98" stop-color="#FD569F"/></linearGradient><linearGradient id="paint1_linear_7_5577" x1=".00570141" y1="35.4042" x2="154.015" y2="35.4042" gradientUnits="userSpaceOnUse"><stop stop-color="#3E3E3E"/><stop offset="1" stop-color="#706E6E"/></linearGradient></defs></svg>