<svg width="467" height="368" viewBox="0 0 467 368" fill="none" xmlns="http://www.w3.org/2000/svg">
<rect x="1" width="466" height="367.895" rx="17.5188" fill="white"/>
<path d="M421.232 338.112H405.903C404.089 338.112 402.618 339.583 402.618 341.397C402.618 343.211 404.089 344.682 405.903 344.682H421.232C423.046 344.682 424.517 343.211 424.517 341.397C424.517 339.583 423.046 338.112 421.232 338.112Z" fill="#125BC9"/>
<g opacity="0.16">
<path opacity="0.16" d="M73.9403 162.521H52.5616C50.0315 162.521 47.9805 164.573 47.9805 167.103C47.9805 169.633 50.0315 171.684 52.5616 171.684H73.9403C76.4704 171.684 78.5215 169.633 78.5215 167.103C78.5215 164.573 76.4704 162.521 73.9403 162.521Z" fill="#293241"/>
</g>
<path d="M64.1672 162.521H52.5616C50.0315 162.521 47.9805 164.573 47.9805 167.103C47.9805 169.633 50.0315 171.684 52.5616 171.684H64.1672C66.6973 171.684 68.7483 169.633 68.7483 167.103C68.7483 164.573 66.6973 162.521 64.1672 162.521Z" fill="#293241"/>
<path d="M63.2514 170.157C64.9381 170.157 66.3055 168.79 66.3055 167.103C66.3055 165.416 64.9381 164.049 63.2514 164.049C61.5646 164.049 60.1973 165.416 60.1973 167.103C60.1973 168.79 61.5646 170.157 63.2514 170.157Z" fill="white"/>
<mask id="mask0_1711_12201" style="mask-type:alpha" maskUnits="userSpaceOnUse" x="1" y="0" width="466" height="368">
<rect x="1" width="466" height="367.895" rx="17.5188" fill="white"/>
</mask>
<g mask="url(#mask0_1711_12201)">
<g filter="url(#filter0_dd_1711_12201)">
<rect x="93.8496" y="29.7832" width="280.301" height="394.173" rx="14.015" fill="white"/>
<g filter="url(#filter1_dd_1711_12201)">
<line x1="93.8496" y1="106.428" x2="374.15" y2="106.428" stroke="#DFDFDF" stroke-width="0.87594"/>
</g>
<path d="M317.524 87.7316H318.645V86.4702C320.747 86.288 321.686 85.0267 321.686 83.5971C321.686 81.7191 320.103 81.1725 318.645 80.7941V78.3695C319.332 78.5097 320.005 78.832 320.537 79.3646L321.462 78.1453C320.733 77.4445 319.78 76.9961 318.645 76.8699V75.5665H317.524V76.8559C315.716 77.0101 314.567 78.1453 314.567 79.5748C314.567 81.3968 316.08 81.9153 317.524 82.2797V84.9986C316.515 84.8445 315.702 84.3119 315.183 83.7373L314.259 85.0127C315.001 85.7835 316.08 86.3581 317.524 86.4702V87.7316ZM320.005 83.7513C320.005 84.2979 319.612 84.8725 318.645 85.0127V82.574C319.416 82.8123 320.005 83.1206 320.005 83.7513ZM316.249 79.4487C316.249 78.832 316.739 78.3976 317.524 78.2995V80.4998C316.781 80.2756 316.249 79.9953 316.249 79.4487ZM326.57 86.3301V76.982H325.141L322.45 79.701L323.403 80.696L324.931 79.0983V86.3301H326.57ZM330.339 85.7975C330.339 84.9846 329.834 84.5221 329.26 84.5221C328.727 84.5221 328.306 84.9566 328.306 85.4752C328.306 85.9937 328.671 86.3721 329.133 86.3721C329.231 86.3721 329.344 86.3441 329.372 86.3301C329.288 86.8066 328.811 87.3812 328.363 87.6475L329.035 88.1941C329.806 87.6475 330.339 86.7645 330.339 85.7975ZM338.469 86.3301V84.8865H334.335C336.829 82.9945 338.413 81.4528 338.413 79.715C338.413 77.851 336.843 76.8419 335.035 76.8419C333.718 76.8419 332.401 77.3324 331.574 78.3415L332.527 79.4067C333.129 78.7339 333.956 78.2995 335.049 78.2995C335.904 78.2995 336.759 78.7339 336.759 79.715C336.759 81.0744 335.33 82.2797 331.7 85.0267V86.3301H338.469ZM343.665 86.4983C346.286 86.4983 347.393 84.0036 347.393 81.6631C347.393 79.3085 346.286 76.8419 343.665 76.8419C341.03 76.8419 339.923 79.3085 339.923 81.6631C339.923 84.0036 341.03 86.4983 343.665 86.4983ZM343.665 85.0407C342.137 85.0407 341.591 83.443 341.591 81.6631C341.591 79.8691 342.137 78.2995 343.665 78.2995C345.192 78.2995 345.725 79.8691 345.725 81.6631C345.725 83.443 345.178 85.0407 343.665 85.0407ZM352.315 86.4983C354.936 86.4983 356.043 84.0036 356.043 81.6631C356.043 79.3085 354.936 76.8419 352.315 76.8419C349.68 76.8419 348.573 79.3085 348.573 81.6631C348.573 84.0036 349.68 86.4983 352.315 86.4983ZM352.315 85.0407C350.787 85.0407 350.24 83.443 350.24 81.6631C350.24 79.8691 350.787 78.2995 352.315 78.2995C353.842 78.2995 354.375 79.8691 354.375 81.6631C354.375 83.443 353.828 85.0407 352.315 85.0407Z" fill="#125BC9"/>
<path d="M285.013 69.4395V66.1731C285.013 65.1614 284.503 64.67 283.539 64.67C282.836 64.67 282.2 65.065 281.872 65.4601V64.7856H281.149V69.4395H281.872V66.0382C282.151 65.6624 282.681 65.3155 283.25 65.3155C283.876 65.3155 284.3 65.566 284.3 66.3947V69.4395H285.013ZM290.561 69.4395V64.7856H289.838V65.489C289.462 64.9783 288.894 64.67 288.268 64.67C287.054 64.67 286.196 65.6239 286.196 67.1173C286.196 68.6301 287.054 69.5551 288.268 69.5551C288.923 69.5551 289.491 69.2178 289.838 68.7457V69.4395H290.561ZM288.451 68.9095C287.506 68.9095 286.948 68.1483 286.948 67.1173C286.948 66.0864 287.506 65.3155 288.451 65.3155C289.019 65.3155 289.588 65.6624 289.838 66.0671V68.1676C289.588 68.5723 289.019 68.9095 288.451 68.9095ZM298.348 69.4395V66.0767C298.348 65.1421 297.895 64.67 297.047 64.67C296.373 64.67 295.746 65.1132 295.486 65.5371C295.351 65.0554 294.947 64.67 294.243 64.67C293.55 64.67 292.933 65.1614 292.731 65.4601V64.7856H292.008V69.4395H292.731V66.0382C292.981 65.6624 293.482 65.3155 293.954 65.3155C294.571 65.3155 294.812 65.6913 294.812 66.2791V69.4395H295.535V66.0285C295.775 65.6528 296.286 65.3155 296.768 65.3155C297.375 65.3155 297.625 65.6913 297.625 66.2791V69.4395H298.348ZM301.9 69.5551C302.651 69.5551 303.278 69.2949 303.75 68.8324L303.403 68.3603C303.027 68.7457 302.497 68.9577 301.958 68.9577C300.956 68.9577 300.348 68.2254 300.291 67.3486H304.048V67.1655C304.048 65.7684 303.22 64.67 301.813 64.67C300.483 64.67 299.52 65.7588 299.52 67.1077C299.52 68.5626 300.512 69.5551 301.9 69.5551ZM303.335 66.809H300.281C300.32 66.1056 300.811 65.2674 301.803 65.2674C302.863 65.2674 303.326 66.1249 303.335 66.809ZM307.888 70.1139C308.601 70.1139 309.295 69.8923 309.892 69.5069L309.719 69.2564C309.198 69.584 308.611 69.796 307.926 69.796C306.327 69.796 305.171 68.6108 305.171 67.0692C305.171 65.2674 306.761 63.6197 308.63 63.6197C310.268 63.6197 311.357 64.7663 311.357 66.3465C311.357 67.6762 310.682 68.1001 310.306 68.1001C310.056 68.1001 309.854 67.9171 309.854 67.5991C309.854 67.5413 309.863 67.4546 309.873 67.3968L310.422 64.7856H309.767L309.642 65.383C309.458 64.9687 309.035 64.6314 308.408 64.6314C307.271 64.6314 306.144 65.7106 306.144 67.0499C306.144 67.9845 306.722 68.6204 307.618 68.6204C308.235 68.6204 308.813 68.2543 309.15 67.7725V67.84C309.179 68.2447 309.487 68.6204 310.027 68.6204C310.836 68.6204 311.694 67.8496 311.694 66.3465C311.694 64.6603 310.48 63.2921 308.659 63.2921C306.655 63.2921 304.834 65.0072 304.834 67.0884C304.834 68.7939 306.134 70.1139 307.888 70.1139ZM307.82 68.0809C307.194 68.0809 306.838 67.628 306.838 67.0113C306.838 66.0767 307.57 65.171 308.533 65.171C309.102 65.171 309.42 65.5757 309.526 65.8744L309.247 67.2137C308.967 67.6184 308.476 68.0809 307.82 68.0809ZM314.875 69.5551C315.627 69.5551 316.253 69.2949 316.725 68.8324L316.379 68.3603C316.003 68.7457 315.473 68.9577 314.933 68.9577C313.931 68.9577 313.324 68.2254 313.266 67.3486H317.024V67.1655C317.024 65.7684 316.196 64.67 314.789 64.67C313.459 64.67 312.496 65.7588 312.496 67.1077C312.496 68.5626 313.488 69.5551 314.875 69.5551ZM316.311 66.809H313.257C313.295 66.1056 313.787 65.2674 314.779 65.2674C315.839 65.2674 316.302 66.1249 316.311 66.809ZM324.535 69.4395V66.0767C324.535 65.1421 324.082 64.67 323.234 64.67C322.559 64.67 321.933 65.1132 321.673 65.5371C321.538 65.0554 321.133 64.67 320.43 64.67C319.736 64.67 319.12 65.1614 318.917 65.4601V64.7856H318.195V69.4395H318.917V66.0382C319.168 65.6624 319.669 65.3155 320.141 65.3155C320.758 65.3155 320.999 65.6913 320.999 66.2791V69.4395H321.721V66.0285C321.962 65.6528 322.473 65.3155 322.954 65.3155C323.562 65.3155 323.812 65.6913 323.812 66.2791V69.4395H324.535ZM330.071 69.4395V64.7856H329.349V65.489C328.973 64.9783 328.404 64.67 327.778 64.67C326.564 64.67 325.707 65.6239 325.707 67.1173C325.707 68.6301 326.564 69.5551 327.778 69.5551C328.433 69.5551 329.002 69.2178 329.349 68.7457V69.4395H330.071ZM327.961 68.9095C327.017 68.9095 326.458 68.1483 326.458 67.1173C326.458 66.0864 327.017 65.3155 327.961 65.3155C328.53 65.3155 329.098 65.6624 329.349 66.0671V68.1676C329.098 68.5723 328.53 68.9095 327.961 68.9095ZM331.885 64.1207C332.154 64.1207 332.366 63.9088 332.366 63.639C332.366 63.3692 332.154 63.1476 331.885 63.1476C331.615 63.1476 331.393 63.3692 331.393 63.639C331.393 63.9088 331.615 64.1207 331.885 64.1207ZM332.241 69.4395V64.7856H331.519V69.4395H332.241ZM334.714 69.5551C335.138 69.5551 335.388 69.4298 335.581 69.2564L335.359 68.7072C335.273 68.8132 335.08 68.9095 334.877 68.9095C334.56 68.9095 334.405 68.659 334.405 68.3121V63.0127H333.683V68.4663C333.683 69.16 334.03 69.5551 334.714 69.5551ZM336.656 69.5358C336.945 69.5358 337.186 69.2949 337.186 69.0059C337.186 68.7168 336.945 68.4759 336.656 68.4759C336.367 68.4759 336.126 68.7168 336.126 69.0059C336.126 69.2949 336.367 69.5358 336.656 69.5358ZM340.553 69.5551C341.401 69.5551 341.902 69.2082 342.258 68.7457L341.776 68.3025C341.468 68.7168 341.073 68.9095 340.591 68.9095C339.608 68.9095 338.982 68.1387 338.982 67.1077C338.982 66.0767 339.608 65.3155 340.591 65.3155C341.073 65.3155 341.468 65.489 341.776 65.9129L342.258 65.4793C341.902 65.0168 341.401 64.67 340.553 64.67C339.165 64.67 338.231 65.7298 338.231 67.1077C338.231 68.4856 339.165 69.5551 340.553 69.5551ZM345.313 69.5551C346.73 69.5551 347.616 68.4566 347.616 67.1077C347.616 65.7588 346.73 64.67 345.313 64.67C343.897 64.67 343.011 65.7588 343.011 67.1077C343.011 68.4566 343.897 69.5551 345.313 69.5551ZM345.313 68.9095C344.321 68.9095 343.772 68.0616 343.772 67.1077C343.772 66.1634 344.321 65.3155 345.313 65.3155C346.306 65.3155 346.855 66.1634 346.855 67.1077C346.855 68.0616 346.306 68.9095 345.313 68.9095ZM355.134 69.4395V66.0767C355.134 65.1421 354.682 64.67 353.834 64.67C353.159 64.67 352.533 65.1132 352.273 65.5371C352.138 65.0554 351.733 64.67 351.03 64.67C350.336 64.67 349.719 65.1614 349.517 65.4601V64.7856H348.794V69.4395H349.517V66.0382C349.768 65.6624 350.269 65.3155 350.741 65.3155C351.357 65.3155 351.598 65.6913 351.598 66.2791V69.4395H352.321V66.0285C352.562 65.6528 353.072 65.3155 353.554 65.3155C354.161 65.3155 354.412 65.6913 354.412 66.2791V69.4395H355.134Z" fill="#666666"/>
<path d="M174.613 145.042C176.808 145.042 177.776 143.864 177.776 142.503C177.776 139.462 173.018 140.406 173.018 138.873C173.018 138.272 173.558 137.855 174.392 137.855C175.25 137.855 176.121 138.15 176.771 138.8L177.58 137.733C176.832 136.997 175.79 136.58 174.527 136.58C172.724 136.58 171.547 137.622 171.547 138.984C171.547 141.988 176.305 140.921 176.305 142.638C176.305 143.19 175.851 143.766 174.674 143.766C173.533 143.766 172.638 143.227 172.086 142.626L171.277 143.742C172.013 144.502 173.104 145.042 174.613 145.042ZM181.796 145.042C182.728 145.042 183.598 144.735 184.199 144.171L183.611 143.325C183.181 143.754 182.507 143.987 181.918 143.987C180.802 143.987 180.14 143.239 180.042 142.356H184.604V142.037C184.604 140.173 183.476 138.824 181.698 138.824C179.944 138.824 178.693 140.21 178.693 141.927C178.693 143.803 180.005 145.042 181.796 145.042ZM183.365 141.436H180.03C180.079 140.725 180.594 139.879 181.685 139.879C182.85 139.879 183.329 140.737 183.365 141.436ZM187.396 145.042C187.996 145.042 188.377 144.87 188.61 144.662L188.303 143.68C188.205 143.791 187.972 143.901 187.727 143.901C187.359 143.901 187.163 143.595 187.163 143.19V136.715H185.875V143.509C185.875 144.502 186.402 145.042 187.396 145.042ZM192.131 145.042C193.063 145.042 193.933 144.735 194.534 144.171L193.946 143.325C193.516 143.754 192.842 143.987 192.253 143.987C191.137 143.987 190.475 143.239 190.377 142.356H194.939V142.037C194.939 140.173 193.811 138.824 192.033 138.824C190.279 138.824 189.028 140.21 189.028 141.927C189.028 143.803 190.34 145.042 192.131 145.042ZM193.7 141.436H190.365C190.414 140.725 190.929 139.879 192.02 139.879C193.185 139.879 193.664 140.737 193.7 141.436ZM198.908 145.042C200.073 145.042 200.76 144.539 201.177 143.987L200.33 143.19C199.999 143.656 199.546 143.901 198.969 143.901C197.902 143.901 197.179 143.08 197.179 141.927C197.179 140.774 197.902 139.965 198.969 139.965C199.546 139.965 199.999 140.185 200.33 140.651L201.177 139.879C200.76 139.315 200.073 138.824 198.908 138.824C197.117 138.824 195.854 140.136 195.854 141.927C195.854 143.717 197.117 145.042 198.908 145.042ZM204.108 145.042C204.697 145.042 205.077 144.87 205.31 144.662L205.003 143.68C204.905 143.791 204.684 143.901 204.439 143.901C204.071 143.901 203.875 143.595 203.875 143.19V140.087H205.077V138.971H203.875V137.353H202.587V138.971H201.606V140.087H202.587V143.509C202.587 144.502 203.102 145.042 204.108 145.042ZM212.093 145.042C213.258 145.042 213.945 144.539 214.362 143.987L213.516 143.19C213.185 143.656 212.731 143.901 212.154 143.901C211.088 143.901 210.364 143.08 210.364 141.927C210.364 140.774 211.088 139.965 212.154 139.965C212.731 139.965 213.185 140.185 213.516 140.651L214.362 139.879C213.945 139.315 213.258 138.824 212.093 138.824C210.303 138.824 209.04 140.136 209.04 141.927C209.04 143.717 210.303 145.042 212.093 145.042ZM218.189 145.042C220.077 145.042 221.23 143.619 221.23 141.927C221.23 140.222 220.077 138.824 218.189 138.824C216.3 138.824 215.147 140.222 215.147 141.927C215.147 143.619 216.3 145.042 218.189 145.042ZM218.189 143.901C217.097 143.901 216.484 142.981 216.484 141.927C216.484 140.884 217.097 139.965 218.189 139.965C219.292 139.965 219.893 140.884 219.893 141.927C219.893 142.981 219.292 143.901 218.189 143.901ZM223.195 138.248C223.636 138.248 223.992 137.892 223.992 137.451C223.992 137.009 223.636 136.654 223.195 136.654C222.753 136.654 222.397 137.009 222.397 137.451C222.397 137.892 222.753 138.248 223.195 138.248ZM223.832 144.895V138.971H222.545V144.895H223.832ZM230.8 144.895V140.725C230.8 139.511 230.163 138.824 228.887 138.824C227.955 138.824 227.183 139.303 226.79 139.769V138.971H225.503V144.895H226.79V140.75C227.097 140.357 227.661 139.965 228.311 139.965C229.034 139.965 229.513 140.259 229.513 141.191V144.895H230.8ZM237.425 145.042C238.013 145.042 238.393 144.87 238.626 144.662L238.32 143.68C238.222 143.791 238.001 143.901 237.756 143.901C237.388 143.901 237.192 143.595 237.192 143.19V140.087H238.393V138.971H237.192V137.353H235.904V138.971H234.923V140.087H235.904V143.509C235.904 144.502 236.419 145.042 237.425 145.042ZM242.236 145.042C244.124 145.042 245.277 143.619 245.277 141.927C245.277 140.222 244.124 138.824 242.236 138.824C240.347 138.824 239.195 140.222 239.195 141.927C239.195 143.619 240.347 145.042 242.236 145.042ZM242.236 143.901C241.144 143.901 240.531 142.981 240.531 141.927C240.531 140.884 241.144 139.965 242.236 139.965C243.339 139.965 243.94 140.884 243.94 141.927C243.94 142.981 243.339 143.901 242.236 143.901ZM252.942 145.042C254.475 145.042 255.566 143.877 255.566 141.927C255.566 139.977 254.475 138.824 252.942 138.824C252.169 138.824 251.483 139.192 251.041 139.781V138.971H249.754V147.151H251.041V144.073C251.532 144.698 252.194 145.042 252.942 145.042ZM252.562 143.901C251.961 143.901 251.323 143.533 251.041 143.092V140.75C251.335 140.308 251.961 139.965 252.562 139.965C253.58 139.965 254.242 140.774 254.242 141.927C254.242 143.08 253.58 143.901 252.562 143.901ZM262.312 144.895V138.971H261.025V139.793C260.546 139.155 259.872 138.824 259.124 138.824C257.603 138.824 256.499 140.014 256.499 141.927C256.499 143.889 257.615 145.042 259.124 145.042C259.896 145.042 260.571 144.674 261.025 144.085V144.895H262.312ZM259.504 143.901C258.474 143.901 257.824 143.08 257.824 141.927C257.824 140.786 258.474 139.965 259.504 139.965C260.105 139.965 260.743 140.32 261.025 140.762V143.104C260.743 143.546 260.105 143.901 259.504 143.901ZM266.311 147.298C268.015 147.298 269.266 146.378 269.266 144.6V138.971H267.978V142.932C267.684 143.325 267.12 143.705 266.47 143.705C265.734 143.705 265.268 143.411 265.268 142.491V138.971H263.981V142.969C263.981 144.171 264.618 144.845 265.894 144.845C266.826 144.845 267.562 144.379 267.978 143.913V144.6C267.978 145.655 267.353 146.243 266.311 146.243C265.636 146.243 264.949 146.023 264.52 145.483L263.919 146.415C264.569 147.016 265.317 147.298 266.311 147.298ZM280.624 144.895L282.464 138.971H281.115L279.864 143.276L278.466 138.971H277.325L275.915 143.276L274.664 138.971H273.328L275.167 144.895H276.516L277.889 140.553L279.275 144.895H280.624ZM284.007 138.248C284.449 138.248 284.804 137.892 284.804 137.451C284.804 137.009 284.449 136.654 284.007 136.654C283.566 136.654 283.21 137.009 283.21 137.451C283.21 137.892 283.566 138.248 284.007 138.248ZM284.645 144.895V138.971H283.357V144.895H284.645ZM288.106 145.042C288.694 145.042 289.075 144.87 289.308 144.662L289.001 143.68C288.903 143.791 288.682 143.901 288.437 143.901C288.069 143.901 287.873 143.595 287.873 143.19V140.087H289.075V138.971H287.873V137.353H286.585V138.971H285.604V140.087H286.585V143.509C286.585 144.502 287.1 145.042 288.106 145.042ZM295.529 144.895V140.701C295.529 139.486 294.892 138.824 293.616 138.824C292.684 138.824 291.924 139.303 291.531 139.769V136.715H290.244V144.895H291.531V140.75C291.826 140.357 292.39 139.965 293.052 139.965C293.776 139.965 294.242 140.235 294.242 141.167V144.895H295.529Z" fill="#2B2B2B"/>
<line x1="93.8496" y1="168.839" x2="374.15" y2="168.839" stroke="#EEEEEE" stroke-width="0.43797"/>
<path fillRule="evenodd" clipRule="evenodd" d="M116.5 183.193L111.389 193.929C111.37 193.969 111.364 194.014 111.372 194.058C111.38 194.101 111.401 194.141 111.434 194.172L125.237 207.399C125.277 207.436 125.329 207.457 125.383 207.457C125.438 207.457 125.49 207.436 125.529 207.399L139.333 194.172C139.365 194.142 139.387 194.102 139.395 194.058C139.403 194.015 139.397 193.97 139.377 193.93L134.266 183.194C134.25 183.158 134.223 183.127 134.19 183.106C134.156 183.085 134.118 183.073 134.078 183.073H116.69C116.65 183.073 116.611 183.084 116.577 183.105C116.544 183.126 116.517 183.157 116.5 183.193Z" fill="#50AF95"/>
<path fillRule="evenodd" clipRule="evenodd" d="M127.157 195.031C127.058 195.039 126.546 195.069 125.403 195.069C124.495 195.069 123.85 195.042 123.624 195.031C120.113 194.877 117.493 194.266 117.493 193.534C117.493 192.802 120.113 192.192 123.624 192.035V194.423C123.853 194.439 124.511 194.478 125.419 194.478C126.509 194.478 127.055 194.433 127.153 194.423V192.037C130.657 192.193 133.271 192.804 133.271 193.534C133.271 194.264 130.657 194.875 127.153 195.03L127.157 195.031ZM127.157 191.79V189.654H132.046V186.396H118.735V189.654H123.623V191.789C119.65 191.972 116.662 192.759 116.662 193.702C116.662 194.645 119.65 195.431 123.623 195.614V202.46H127.156V195.612C131.12 195.429 134.103 194.643 134.103 193.701C134.103 192.759 131.122 191.972 127.156 191.789L127.157 191.79Z" fill="white"/>
<path d="M150.698 198.972C152.918 198.972 154.046 197.673 154.046 195.637V190.646H153.016V195.625C153.016 197.121 152.207 198.065 150.698 198.065C149.19 198.065 148.393 197.121 148.393 195.625V190.646H147.363V195.649C147.363 197.66 148.491 198.972 150.698 198.972ZM158.61 198.972C160.818 198.972 161.627 197.746 161.627 196.569C161.627 193.515 156.783 194.57 156.783 192.731C156.783 191.958 157.494 191.431 158.463 191.431C159.358 191.431 160.217 191.725 160.83 192.412L161.443 191.664C160.756 190.94 159.787 190.511 158.549 190.511C156.93 190.511 155.728 191.443 155.728 192.792C155.728 195.71 160.572 194.533 160.572 196.642C160.572 197.28 160.106 198.065 158.647 198.065C157.494 198.065 156.611 197.501 156.084 196.888L155.471 197.673C156.145 198.433 157.2 198.972 158.61 198.972ZM165.943 198.825C168.494 198.825 170.137 197.072 170.137 194.742C170.137 192.424 168.494 190.646 165.943 190.646H163.147V198.825H165.943ZM165.943 197.918H164.165V191.553H165.943C167.966 191.553 169.082 192.976 169.082 194.742C169.082 196.495 167.929 197.918 165.943 197.918ZM177.948 198.825V191.553H180.548V190.646H174.343V191.553H176.93V198.825H177.948ZM183.137 198.972C184.093 198.972 184.89 198.641 185.491 198.053L185.05 197.452C184.571 197.942 183.897 198.212 183.21 198.212C181.935 198.212 181.162 197.28 181.089 196.164H185.871V195.931C185.871 194.153 184.817 192.755 183.026 192.755C181.334 192.755 180.108 194.141 180.108 195.858C180.108 197.709 181.371 198.972 183.137 198.972ZM184.964 195.477H181.076C181.125 194.582 181.751 193.515 183.014 193.515C184.363 193.515 184.951 194.607 184.964 195.477ZM188.869 198.972C189.397 198.972 189.728 198.813 189.961 198.592L189.691 197.893C189.568 198.028 189.335 198.151 189.065 198.151C188.673 198.151 188.477 197.832 188.477 197.391V193.712H189.679V192.902H188.477V191.283H187.545V192.902H186.564V193.712H187.545V197.587C187.545 198.47 187.986 198.972 188.869 198.972ZM195.895 198.825V194.644C195.895 193.356 195.245 192.755 194.007 192.755C193.112 192.755 192.302 193.258 191.898 193.761V190.646H190.978V198.825H191.898V194.496C192.241 194.018 192.928 193.577 193.639 193.577C194.448 193.577 194.976 193.871 194.976 194.926V198.825H195.895ZM200.418 198.972C201.374 198.972 202.171 198.641 202.772 198.053L202.331 197.452C201.852 197.942 201.178 198.212 200.491 198.212C199.216 198.212 198.443 197.28 198.37 196.164H203.152V195.931C203.152 194.153 202.098 192.755 200.307 192.755C198.615 192.755 197.389 194.141 197.389 195.858C197.389 197.709 198.652 198.972 200.418 198.972ZM202.245 195.477H198.357C198.406 194.582 199.032 193.515 200.295 193.515C201.644 193.515 202.232 194.607 202.245 195.477ZM205.562 198.825V194.631C205.831 194.153 206.604 193.687 207.18 193.687C207.315 193.687 207.426 193.699 207.536 193.712V192.767C206.727 192.767 206.04 193.233 205.562 193.846V192.902H204.642V198.825H205.562Z" fill="#2B2B2B"/>
<path d="M350.5 189.205L356.632 195.337L350.5 201.468" stroke="#DFDFDF" stroke-width="1.31391" stroke-linecap="round" stroke-linejoin="round"/>
<line x1="93.8496" y1="221.393" x2="374.15" y2="221.393" stroke="#EEEEEE" stroke-width="0.43797"/>
<path d="M125.383 260.154C133.15 260.154 139.398 253.906 139.398 246.139C139.398 238.372 133.15 232.124 125.383 232.124C117.616 232.124 111.368 238.372 111.368 246.139C111.368 253.906 117.616 260.154 125.383 260.154Z" fill="#2775CA"/>
<path d="M129.238 248.358C129.238 246.314 128.011 245.613 125.559 245.321C123.807 245.088 123.456 244.621 123.456 243.803C123.456 242.985 124.04 242.46 125.208 242.46C126.259 242.46 126.843 242.81 127.135 243.686C127.194 243.862 127.369 243.978 127.544 243.978H128.478C128.712 243.978 128.887 243.803 128.887 243.57V243.511C128.654 242.226 127.602 241.234 126.259 241.117V239.715C126.259 239.482 126.084 239.307 125.792 239.248H124.916C124.683 239.248 124.508 239.423 124.449 239.715V241.058C122.697 241.292 121.588 242.46 121.588 243.92C121.588 245.847 122.756 246.606 125.208 246.898C126.843 247.19 127.369 247.54 127.369 248.475C127.369 249.409 126.551 250.052 125.442 250.052C123.924 250.052 123.398 249.409 123.223 248.533C123.164 248.3 122.989 248.183 122.814 248.183H121.821C121.588 248.183 121.413 248.358 121.413 248.592V248.65C121.646 250.11 122.58 251.161 124.508 251.453V252.855C124.508 253.088 124.683 253.263 124.975 253.322H125.851C126.084 253.322 126.259 253.146 126.318 252.855V251.453C128.07 251.161 129.238 249.935 129.238 248.358Z" fill="white"/>
<path d="M122.405 254.49C117.85 252.855 115.514 247.774 117.208 243.278C118.084 240.825 120.011 238.956 122.405 238.08C122.638 237.964 122.755 237.788 122.755 237.496V236.679C122.755 236.445 122.638 236.27 122.405 236.212C122.346 236.212 122.23 236.212 122.171 236.27C116.624 238.022 113.587 243.92 115.339 249.468C116.39 252.738 118.901 255.249 122.171 256.3C122.405 256.417 122.638 256.3 122.697 256.066C122.755 256.008 122.755 255.95 122.755 255.833V255.015C122.755 254.84 122.58 254.607 122.405 254.49ZM128.595 236.27C128.361 236.153 128.128 236.27 128.069 236.504C128.011 236.562 128.011 236.62 128.011 236.737V237.555C128.011 237.788 128.186 238.022 128.361 238.139C132.916 239.774 135.252 244.854 133.558 249.351C132.683 251.804 130.755 253.672 128.361 254.548C128.128 254.665 128.011 254.84 128.011 255.132V255.95C128.011 256.183 128.128 256.358 128.361 256.417C128.42 256.417 128.536 256.417 128.595 256.358C134.142 254.607 137.179 248.708 135.427 243.161C134.376 239.832 131.807 237.321 128.595 236.27Z" fill="white"/>
<path d="M150.698 249.774C152.918 249.774 154.046 248.474 154.046 246.439V241.447H153.016V246.426C153.016 247.922 152.207 248.867 150.698 248.867C149.19 248.867 148.393 247.922 148.393 246.426V241.447H147.363V246.451C147.363 248.462 148.491 249.774 150.698 249.774ZM158.61 249.774C160.818 249.774 161.627 248.548 161.627 247.371C161.627 244.317 156.783 245.372 156.783 243.532C156.783 242.76 157.494 242.232 158.463 242.232C159.358 242.232 160.217 242.527 160.83 243.213L161.443 242.465C160.756 241.742 159.787 241.313 158.549 241.313C156.93 241.313 155.728 242.245 155.728 243.593C155.728 246.512 160.572 245.335 160.572 247.444C160.572 248.082 160.106 248.867 158.647 248.867C157.494 248.867 156.611 248.303 156.084 247.689L155.471 248.474C156.145 249.235 157.2 249.774 158.61 249.774ZM165.943 249.627C168.494 249.627 170.137 247.873 170.137 245.543C170.137 243.226 168.494 241.447 165.943 241.447H163.147V249.627H165.943ZM165.943 248.719H164.165V242.355H165.943C167.966 242.355 169.082 243.777 169.082 245.543C169.082 247.297 167.929 248.719 165.943 248.719ZM178.782 249.774C180.229 249.774 181.21 249.087 181.897 248.143L181.039 247.677C180.573 248.364 179.714 248.867 178.782 248.867C176.992 248.867 175.631 247.481 175.631 245.543C175.631 243.581 176.992 242.22 178.782 242.22C179.714 242.22 180.573 242.711 181.039 243.41L181.885 242.931C181.235 241.999 180.229 241.313 178.782 241.313C176.428 241.313 174.576 243.029 174.576 245.543C174.576 248.057 176.428 249.774 178.782 249.774ZM185.745 249.774C187.548 249.774 188.676 248.376 188.676 246.659C188.676 244.942 187.548 243.557 185.745 243.557C183.942 243.557 182.814 244.942 182.814 246.659C182.814 248.376 183.942 249.774 185.745 249.774ZM185.745 248.952C184.482 248.952 183.783 247.873 183.783 246.659C183.783 245.457 184.482 244.378 185.745 244.378C187.008 244.378 187.707 245.457 187.707 246.659C187.707 247.873 187.008 248.952 185.745 248.952ZM190.641 242.858C190.985 242.858 191.254 242.588 191.254 242.245C191.254 241.901 190.985 241.619 190.641 241.619C190.298 241.619 190.016 241.901 190.016 242.245C190.016 242.588 190.298 242.858 190.641 242.858ZM191.095 249.627V243.704H190.175V249.627H191.095ZM197.847 249.627V245.47C197.847 244.182 197.197 243.557 195.971 243.557C195.076 243.557 194.266 244.059 193.849 244.562V243.704H192.93V249.627H193.849V245.298C194.205 244.82 194.879 244.378 195.603 244.378C196.4 244.378 196.94 244.697 196.94 245.752V249.627H197.847Z" fill="#2B2B2B"/>
<path d="M350.5 240.008L356.632 246.139L350.5 252.271" stroke="#DFDFDF" stroke-width="1.31391" stroke-linecap="round" stroke-linejoin="round"/>
<line x1="93.8496" y1="270.446" x2="374.15" y2="270.446" stroke="#EEEEEE" stroke-width="0.43797"/>
<path d="M119.94 291.204L125.383 285.761L130.829 291.207L133.997 288.039L125.383 279.426L116.772 288.037L119.94 291.204L119.94 291.204ZM111.368 293.441L114.536 290.273L117.703 293.44L114.535 296.608L111.368 293.441ZM119.94 295.678L125.383 301.121L130.829 295.675L133.998 298.841L133.997 298.843L125.383 307.456L116.772 298.845L116.768 298.841L119.94 295.677L119.94 295.678ZM133.063 293.442L136.231 290.275L139.398 293.442L136.231 296.609L133.063 293.442Z" fill="#F3BA2F"/>
<path d="M128.596 293.439H128.597L125.383 290.225L123.008 292.6L122.735 292.873L122.172 293.436L122.167 293.44L122.172 293.445L125.383 296.657L128.597 293.443L128.599 293.441L128.596 293.439" fill="#F3BA2F"/>
<path d="M151.091 296.929C152.587 296.929 153.458 296.034 153.458 294.721C153.458 293.74 152.734 292.845 151.863 292.71C152.611 292.551 153.298 291.864 153.298 290.834C153.298 289.608 152.427 288.749 151.005 288.749H147.363V296.929H151.091ZM150.833 292.293H148.381V289.657H150.833C151.753 289.657 152.244 290.245 152.244 290.981C152.244 291.729 151.753 292.293 150.833 292.293ZM150.895 296.021H148.381V293.201H150.895C151.888 293.201 152.403 293.863 152.403 294.611C152.403 295.482 151.839 296.021 150.895 296.021ZM155.504 290.159C155.848 290.159 156.118 289.89 156.118 289.546C156.118 289.203 155.848 288.921 155.504 288.921C155.161 288.921 154.879 289.203 154.879 289.546C154.879 289.89 155.161 290.159 155.504 290.159ZM155.958 296.929V291.006H155.038V296.929H155.958ZM162.71 296.929V292.772C162.71 291.484 162.06 290.858 160.834 290.858C159.939 290.858 159.129 291.361 158.713 291.864V291.006H157.793V296.929H158.713V292.6C159.068 292.122 159.743 291.68 160.466 291.68C161.263 291.68 161.803 291.999 161.803 293.054V296.929H162.71ZM169.771 296.929V291.006H168.851V291.901C168.373 291.251 167.649 290.858 166.852 290.858C165.307 290.858 164.216 292.073 164.216 293.973C164.216 295.899 165.307 297.076 166.852 297.076C167.686 297.076 168.41 296.647 168.851 296.046V296.929H169.771ZM167.085 296.254C165.883 296.254 165.172 295.285 165.172 293.973C165.172 292.661 165.883 291.68 167.085 291.68C167.809 291.68 168.532 292.122 168.851 292.637V295.31C168.532 295.825 167.809 296.254 167.085 296.254ZM176.53 296.929V292.772C176.53 291.484 175.88 290.858 174.654 290.858C173.759 290.858 172.949 291.361 172.533 291.864V291.006H171.613V296.929H172.533V292.6C172.888 292.122 173.563 291.68 174.286 291.68C175.083 291.68 175.623 291.999 175.623 293.054V296.929H176.53ZM180.991 297.076C182.07 297.076 182.708 296.634 183.162 296.046L182.549 295.482C182.156 296.009 181.653 296.254 181.04 296.254C179.789 296.254 178.992 295.273 178.992 293.961C178.992 292.649 179.789 291.68 181.04 291.68C181.653 291.68 182.156 291.901 182.549 292.44L183.162 291.889C182.708 291.3 182.07 290.858 180.991 290.858C179.225 290.858 178.036 292.207 178.036 293.961C178.036 295.715 179.225 297.076 180.991 297.076ZM187.148 297.076C188.105 297.076 188.902 296.745 189.503 296.156L189.061 295.555C188.583 296.046 187.909 296.316 187.222 296.316C185.947 296.316 185.174 295.384 185.1 294.268H189.883V294.035C189.883 292.256 188.828 290.858 187.038 290.858C185.346 290.858 184.119 292.244 184.119 293.961C184.119 295.813 185.382 297.076 187.148 297.076ZM188.976 293.581H185.088C185.137 292.686 185.763 291.619 187.026 291.619C188.375 291.619 188.963 292.71 188.976 293.581ZM197.919 297.076C200.138 297.076 201.267 295.776 201.267 293.74V288.749H200.236V293.728C200.236 295.224 199.427 296.168 197.919 296.168C196.41 296.168 195.613 295.224 195.613 293.728V288.749H194.583V293.753C194.583 295.764 195.711 297.076 197.919 297.076ZM205.831 297.076C208.038 297.076 208.847 295.85 208.847 294.672C208.847 291.619 204.003 292.673 204.003 290.834C204.003 290.061 204.715 289.534 205.683 289.534C206.579 289.534 207.437 289.828 208.05 290.515L208.663 289.767C207.977 289.044 207.008 288.614 205.769 288.614C204.15 288.614 202.949 289.546 202.949 290.895C202.949 293.814 207.793 292.637 207.793 294.746C207.793 295.384 207.327 296.168 205.867 296.168C204.715 296.168 203.832 295.604 203.304 294.991L202.691 295.776C203.366 296.536 204.42 297.076 205.831 297.076ZM213.163 296.929C215.714 296.929 217.357 295.175 217.357 292.845C217.357 290.527 215.714 288.749 213.163 288.749H210.367V296.929H213.163ZM213.163 296.021H211.385V289.657H213.163C215.187 289.657 216.303 291.079 216.303 292.845C216.303 294.599 215.15 296.021 213.163 296.021Z" fill="#2B2B2B"/>
<path d="M350.5 287.31L356.632 293.441L350.5 299.573" stroke="#DFDFDF" stroke-width="1.31391" stroke-linecap="round" stroke-linejoin="round"/>
<line x1="93.8496" y1="319.497" x2="374.15" y2="319.497" stroke="#EEEEEE" stroke-width="0.43797"/>
<path d="M125.382 328.475C133.123 328.475 139.397 334.75 139.397 342.49C139.397 350.231 133.123 356.505 125.382 356.505C117.642 356.505 111.367 350.23 111.367 342.49C111.367 334.75 117.642 328.475 125.382 328.475Z" fill="#F5AC37"/>
<path d="M125.897 343.479H131.223C131.336 343.479 131.39 343.479 131.398 343.331C131.442 342.789 131.442 342.244 131.398 341.701C131.398 341.596 131.346 341.553 131.232 341.553H120.633C120.502 341.553 120.467 341.596 120.467 341.719V343.278C120.467 343.479 120.467 343.479 120.677 343.479H125.897ZM130.803 339.731C130.819 339.691 130.819 339.647 130.803 339.608C130.715 339.415 130.609 339.23 130.487 339.056C130.303 338.76 130.086 338.487 129.839 338.242C129.722 338.093 129.587 337.96 129.436 337.847C128.677 337.202 127.776 336.746 126.807 336.516C126.319 336.406 125.819 336.354 125.318 336.358H120.615C120.484 336.358 120.466 336.411 120.466 336.525V339.634C120.466 339.765 120.466 339.801 120.632 339.801H130.74C130.74 339.801 130.828 339.783 130.846 339.731H130.803H130.803ZM130.803 345.301C130.655 345.285 130.505 345.285 130.356 345.301H120.642C120.511 345.301 120.467 345.301 120.467 345.477V348.517C120.467 348.657 120.467 348.692 120.642 348.692H125.127C125.341 348.708 125.556 348.693 125.766 348.648C126.416 348.602 127.057 348.46 127.667 348.228C127.889 348.151 128.104 348.051 128.306 347.93H128.367C129.418 347.383 130.272 346.524 130.811 345.47C130.811 345.47 130.872 345.337 130.803 345.303V345.301ZM118.706 350.268V350.216V348.175V347.483V345.424C118.706 345.31 118.706 345.293 118.566 345.293H116.665C116.56 345.293 116.517 345.293 116.517 345.153V343.489H118.549C118.662 343.489 118.706 343.489 118.706 343.34V341.693C118.706 341.588 118.706 341.562 118.566 341.562H116.665C116.56 341.562 116.517 341.562 116.517 341.422V339.881C116.517 339.784 116.517 339.758 116.657 339.758H118.54C118.671 339.758 118.706 339.758 118.706 339.592V334.871C118.706 334.731 118.706 334.695 118.882 334.695H125.451C125.928 334.714 126.401 334.766 126.87 334.853C127.835 335.031 128.763 335.376 129.611 335.869C130.174 336.2 130.692 336.6 131.153 337.06C131.5 337.42 131.813 337.81 132.09 338.225C132.366 338.646 132.595 339.095 132.774 339.565C132.796 339.688 132.914 339.77 133.036 339.749H134.604C134.805 339.749 134.805 339.749 134.814 339.942V341.379C134.814 341.519 134.762 341.554 134.621 341.554H133.412C133.29 341.554 133.254 341.554 133.263 341.712C133.311 342.246 133.311 342.781 133.263 343.315C133.263 343.464 133.263 343.481 133.43 343.481H134.813C134.875 343.56 134.813 343.639 134.813 343.718C134.822 343.82 134.822 343.923 134.813 344.024V345.084C134.813 345.233 134.77 345.277 134.638 345.277H132.982C132.867 345.255 132.755 345.329 132.728 345.444C132.334 346.469 131.703 347.388 130.889 348.124C130.591 348.392 130.278 348.645 129.951 348.877C129.601 349.079 129.26 349.289 128.9 349.456C128.238 349.753 127.545 349.973 126.833 350.112C126.157 350.233 125.471 350.288 124.783 350.279H118.704V350.27L118.706 350.268Z" fill="#FEFEFD"/>
<path d="M150.158 345.978C152.709 345.978 154.352 344.224 154.352 341.894C154.352 339.576 152.709 337.798 150.158 337.798H147.362V345.978H150.158ZM150.158 345.07H148.38V338.705H150.158C152.181 338.705 153.297 340.128 153.297 341.894C153.297 343.648 152.144 345.07 150.158 345.07ZM161.123 345.978V340.054H160.204V340.95C159.725 340.3 159.002 339.907 158.205 339.907C156.66 339.907 155.568 341.121 155.568 343.022C155.568 344.947 156.66 346.125 158.205 346.125C159.039 346.125 159.762 345.695 160.204 345.095V345.978H161.123ZM158.438 345.303C157.236 345.303 156.525 344.334 156.525 343.022C156.525 341.71 157.236 340.729 158.438 340.729C159.161 340.729 159.885 341.17 160.204 341.685V344.359C159.885 344.874 159.161 345.303 158.438 345.303ZM163.431 339.208C163.775 339.208 164.044 338.938 164.044 338.595C164.044 338.252 163.775 337.97 163.431 337.97C163.088 337.97 162.806 338.252 162.806 338.595C162.806 338.938 163.088 339.208 163.431 339.208ZM163.885 345.978V340.054H162.965V345.978H163.885Z" fill="#2B2B2B"/>
<path d="M350.5 336.358L356.632 342.49L350.5 348.622" stroke="#DFDFDF" stroke-width="1.31391" stroke-linecap="round" stroke-linejoin="round"/>
<path d="M132.72 67.4473H130.111V81.3106H139.55V78.7975H132.72V67.4473Z" fill="#125BC9"/>
<path d="M147.52 72.1517C147.342 71.9786 147.15 71.8199 146.947 71.6772C146.634 71.4657 146.298 71.2905 145.945 71.155C145.498 70.9852 145.023 70.9021 144.544 70.9101C143.892 70.905 143.246 71.0351 142.647 71.2924C142.07 71.543 141.55 71.9089 141.12 72.3676C140.671 72.8515 140.323 73.4197 140.096 74.0393C139.604 75.4421 139.604 76.9705 140.096 78.3734C140.323 78.993 140.671 79.5615 141.12 80.0459C141.55 80.5042 142.07 80.8697 142.647 81.1202C143.246 81.3778 143.892 81.508 144.544 81.5025C145.024 81.5103 145.501 81.4233 145.948 81.2465C146.304 81.1039 146.642 80.9179 146.953 80.6927C147.156 80.5409 147.345 80.3722 147.52 80.1884V81.3097H149.937V71.1021H147.52V72.1517ZM146.794 78.5048C146.31 79.0253 145.7 79.2779 144.929 79.2779C144.106 79.2779 143.468 79.0219 142.977 78.5039C142.485 77.9859 142.242 77.2137 142.242 76.2067C142.242 75.1998 142.489 74.4258 142.977 73.9087C143.464 73.3916 144.106 73.1347 144.929 73.1347C145.697 73.1347 146.31 73.3907 146.794 73.9087C147.279 74.4267 147.52 75.1989 147.52 76.2067C147.52 77.2145 147.276 77.9876 146.794 78.5048Z" fill="#125BC9"/>
<path d="M159.459 73.2038V71.1021H151.271V73.3267H156.296L151.078 79.2088V81.3105H159.652V79.0859H154.241L159.459 73.2038Z" fill="#125BC9"/>
<path d="M169.106 72.4402C168.629 71.9652 168.066 71.5853 167.447 71.3206C166.804 71.0497 166.113 70.9102 165.416 70.9102C164.718 70.9102 164.028 71.0497 163.385 71.3206C162.766 71.5851 162.203 71.9651 161.727 72.4402C161.25 72.9213 160.872 73.4924 160.618 74.1204C160.084 75.4598 160.084 76.9529 160.618 78.2923C160.872 78.9203 161.25 79.4914 161.727 79.9726C162.204 80.4478 162.767 80.8277 163.386 81.0921C164.026 81.3659 164.716 81.5056 165.412 81.5026C165.867 81.5059 166.32 81.4593 166.764 81.3635C167.15 81.2799 167.527 81.156 167.887 80.994C168.203 80.8514 168.5 80.6721 168.774 80.4598C169.01 80.2739 169.235 80.0744 169.449 79.8625C169.903 79.3809 170.262 78.8181 170.508 78.2036L170.619 77.9305H168.098L168.039 78.021C167.879 78.2642 167.677 78.4769 167.442 78.649C167.198 78.8382 166.924 78.9863 166.633 79.0877C166.241 79.2233 165.827 79.2877 165.412 79.278C165.085 79.2789 164.759 79.2244 164.45 79.1167C163.828 78.8974 163.308 78.457 162.989 77.8793C162.85 77.6273 162.745 77.3578 162.677 77.078H170.613V76.2068C170.619 75.4918 170.483 74.7829 170.214 74.1204C169.959 73.4925 169.583 72.9214 169.106 72.4402ZM162.786 75.0428C162.855 74.8079 162.955 74.5833 163.084 74.3747C163.245 74.1129 163.454 73.8832 163.699 73.6971C163.943 73.5126 164.215 73.3701 164.506 73.2756C164.799 73.1813 165.105 73.1338 165.412 73.1348C166.104 73.1172 166.777 73.3568 167.303 73.8072C167.522 73.998 167.702 74.2299 167.832 74.4899C167.922 74.6691 167.995 74.8566 168.049 75.0497L162.786 75.0428Z" fill="#125BC9"/>
<path d="M175.619 71.2241C175.309 71.3951 175.017 71.5969 174.748 71.8266C174.61 71.9503 174.482 72.0856 174.367 72.2311V71.1021H171.95V81.3106H174.367V75.7579C174.362 75.3973 174.426 75.0391 174.555 74.7023C174.67 74.4057 174.847 74.1373 175.075 73.9155C175.304 73.6978 175.573 73.5266 175.867 73.4112C176.184 73.289 176.522 73.2279 176.862 73.2312H178.312V70.9101H176.958C176.492 70.8972 176.031 71.0054 175.619 71.2241Z" fill="#125BC9"/>
<path d="M188.269 72.3667C187.839 71.9092 187.321 71.5437 186.746 71.2924C186.146 71.0351 185.5 70.9049 184.848 70.9101C184.366 70.9004 183.887 70.9838 183.436 71.1558C183.087 71.2926 182.754 71.4677 182.444 71.6781C182.242 71.8212 182.05 71.9795 181.872 72.1517V71.1021H179.452V84.9654H181.869V80.272C182.045 80.4494 182.237 80.611 182.441 80.755C182.751 80.9644 183.085 81.1363 183.436 81.267C183.887 81.4317 184.364 81.5112 184.844 81.5017C185.497 81.5073 186.143 81.3771 186.742 81.1194C187.319 80.8687 187.838 80.5031 188.269 80.045C188.718 79.5611 189.066 78.9925 189.293 78.3725C189.784 76.9696 189.784 75.4413 189.293 74.0384C189.065 73.419 188.717 72.8508 188.269 72.3667ZM186.412 78.5039C185.921 79.0244 185.282 79.2779 184.46 79.2779C183.692 79.2779 183.08 79.0219 182.595 78.5048C182.11 77.9876 181.869 77.2137 181.869 76.2067C181.869 75.1998 182.114 74.4258 182.595 73.9087C183.076 73.3916 183.69 73.1347 184.46 73.1347C185.282 73.1347 185.921 73.3907 186.412 73.9095C186.903 74.4284 187.147 75.1989 187.147 76.2067C187.147 77.2145 186.9 77.9868 186.412 78.5039Z" fill="#125BC9"/>
<path d="M198.208 72.1518C198.03 71.9787 197.839 71.82 197.636 71.6773C197.322 71.4658 196.986 71.2906 196.634 71.1551C196.187 70.9854 195.711 70.9023 195.233 70.9102C194.581 70.905 193.935 71.0352 193.336 71.2925C192.759 71.5436 192.239 71.9094 191.808 72.3677C191.359 72.8514 191.011 73.4197 190.784 74.0394C190.291 75.4421 190.291 76.9708 190.784 78.3735C191.011 78.9933 191.359 79.5619 191.808 80.046C192.239 80.5041 192.759 80.8697 193.336 81.1203C193.935 81.378 194.581 81.5082 195.233 81.5026C195.713 81.5103 196.19 81.4233 196.636 81.2466C196.993 81.1037 197.33 80.9177 197.641 80.6928C197.844 80.541 198.034 80.3723 198.208 80.1885V81.3098H200.626V71.1022H198.208V72.1518ZM197.483 78.5049C196.998 79.0254 196.388 79.278 195.617 79.278C194.795 79.278 194.156 79.022 193.665 78.504C193.173 77.986 192.931 77.2138 192.931 76.2068C192.931 75.1999 193.178 74.4259 193.666 73.9097C194.154 73.3934 194.795 73.1348 195.617 73.1348C196.385 73.1348 196.998 73.3908 197.483 73.9088C197.967 74.4268 198.208 75.199 198.208 76.2068C198.208 77.2146 197.964 77.9878 197.483 78.5049Z" fill="#125BC9"/>
<path d="M209.223 71.1021L206.914 78.9894H206.157L204.041 71.1021H201.513L204.314 81.3105H206.215L205.061 84.9654H207.595L211.754 71.1021H209.223Z" fill="#125BC9"/>
<path d="M211.663 83.7008V83.6854C211.82 83.6385 211.929 83.5284 211.929 83.3867C211.931 83.3333 211.921 83.2801 211.899 83.2312C211.877 83.1823 211.845 83.1389 211.804 83.1043C211.71 83.0488 211.6 83.0096 211.357 83.0096C211.191 83.0071 211.025 83.0203 210.862 83.0488V84.3374H211.16V83.8185H211.301C211.467 83.8185 211.545 83.8817 211.568 84.0233C211.586 84.1326 211.621 84.2384 211.671 84.3374H211.993C211.943 84.236 211.911 84.1269 211.899 84.0148C211.863 83.8424 211.792 83.7468 211.663 83.7008ZM211.309 83.6069H211.168V83.2348C211.222 83.2235 211.278 83.2183 211.333 83.2195C211.521 83.2195 211.608 83.298 211.608 83.4157C211.611 83.5514 211.478 83.6069 211.312 83.6069H211.309Z" fill="#125BC9"/>
<path d="M211.368 82.3739C211.112 82.3784 210.864 82.4585 210.653 82.6041C210.443 82.7496 210.28 82.9541 210.186 83.1918C210.092 83.4295 210.07 83.6898 210.123 83.94C210.176 84.1901 210.303 84.4189 210.486 84.5975C210.669 84.7761 210.9 84.8966 211.152 84.9438C211.403 84.9911 211.663 84.9629 211.898 84.8628C212.133 84.7628 212.334 84.5953 212.474 84.3816C212.615 84.1678 212.689 83.9173 212.687 83.6616C212.685 83.4904 212.65 83.3212 212.582 83.1637C212.515 83.0063 212.417 82.8637 212.295 82.7441C212.172 82.6245 212.027 82.5302 211.868 82.4667C211.709 82.4032 211.539 82.3716 211.368 82.3739ZM211.376 84.6907C211.108 84.6841 210.853 84.5733 210.666 84.3819C210.478 84.1905 210.373 83.9336 210.372 83.6657C210.371 83.3979 210.474 83.1402 210.66 82.9474C210.846 82.7546 211.1 82.642 211.368 82.6333C211.941 82.6333 212.357 83.0967 212.357 83.6693C212.357 84.2419 211.941 84.6907 211.376 84.6907Z" fill="#125BC9"/>
<path d="M125.065 76.0252L124.115 73.7323L118.277 76.1506L122.879 71.5486L121.124 69.7941L116.522 74.3953L118.941 68.5577L116.648 67.6079L113.849 74.3646V67.5072H111.367V78.8233V81.3057H113.849H125.166V78.8233H118.308L125.065 76.0252Z" fill="#125BC9"/>
<g filter="url(#filter2_dd_1711_12201)">
<circle cx="356.631" cy="47.2994" r="10.2923" fill="white" stroke="#DFDFDF" stroke-width="0.43797"/>
<path d="M359.26 44.6719L354.004 49.9275M359.26 49.9275L354.004 44.6719L359.26 49.9275Z" stroke="#2B2B2B" stroke-width="1.31391" stroke-linecap="round" stroke-linejoin="round"/>
</g>
</g>
</g>
<path d="M443.853 260.001L442.686 263.272C442.443 263.762 442.081 264.183 441.633 264.497C441.185 264.811 440.665 265.008 440.121 265.069H439.937C436.869 265.526 433.742 265.396 430.722 264.685H430.569L429.478 264.47H429.325C426.975 263.951 424.661 263.278 422.398 262.458C416.025 260.201 410.772 257.19 408.039 254.487L407.916 254.364C407.701 254.149 407.501 253.919 407.317 253.704L407.194 253.566C407.025 253.366 406.871 253.151 406.733 252.967C406.707 252.905 406.67 252.848 406.626 252.798C406.493 252.586 406.375 252.365 406.272 252.138L406.18 251.923C405.983 251.387 405.983 250.799 406.18 250.264L407.348 246.993C407.341 246.916 407.341 246.839 407.348 246.762C408.469 243.691 417.576 244.013 427.681 247.607C437.787 251.201 445.097 256.684 443.976 259.893C443.939 259.933 443.898 259.969 443.853 260.001Z" fill="white"/>
<path d="M436.895 265.594C434.801 265.562 432.714 265.341 430.66 264.933H430.506L429.4 264.703H429.247C426.893 264.171 424.575 263.494 422.305 262.676C416.162 260.479 410.74 257.485 407.869 254.659L407.776 254.567C407.549 254.343 407.334 254.107 407.131 253.86L407.009 253.722C406.84 253.507 406.671 253.292 406.548 253.108L406.44 252.923C406.302 252.707 406.179 252.481 406.072 252.248L405.98 252.048C405.738 251.473 405.706 250.832 405.887 250.236L407.131 246.765C407.7 245.229 410.203 244.354 414.119 244.538C418.774 244.865 423.357 245.863 427.726 247.502C438.093 251.188 445.296 256.717 444.129 259.942L442.9 263.397C442.642 263.914 442.26 264.358 441.789 264.691C441.317 265.023 440.77 265.233 440.197 265.302H440.074C439.029 265.518 437.962 265.616 436.895 265.594ZM407.346 247.164L406.256 250.236C406.087 250.739 406.114 251.288 406.333 251.772C406.358 251.845 406.389 251.917 406.425 251.987C406.523 252.204 406.636 252.415 406.763 252.616L406.87 252.785C406.993 252.954 407.147 253.169 407.316 253.369L407.423 253.507C407.611 253.733 407.811 253.948 408.022 254.152L408.145 254.275C410.971 257.07 416.315 260.034 422.428 262.215C424.684 263.019 426.987 263.686 429.324 264.211H429.431L430.521 264.442H430.675C433.695 265.149 436.823 265.274 439.89 264.81H440.059C441.395 264.473 442.224 263.92 442.501 263.136L443.606 260.065L443.683 259.865L443.775 259.666C444.85 256.594 437.632 251.28 427.588 247.717C423.258 246.094 418.717 245.106 414.104 244.784C410.403 244.63 407.961 245.352 407.5 246.765C407.491 246.831 407.491 246.898 407.5 246.965V247.18L407.346 247.164Z" fill="#125BC9"/>
<path d="M408.652 247.455L406.655 252.938C406.629 252.876 406.592 252.819 406.548 252.769L408.452 247.409L408.652 247.455Z" fill="#B2B6BF"/>
<path d="M409.006 248.822L407.286 253.675L407.163 253.537L408.868 248.761L409.006 248.822Z" fill="#B2B6BF"/>
<path d="M409.896 249.144L408.007 254.458L407.884 254.335L409.727 249.083L409.896 249.144Z" fill="#B2B6BF"/>
<path d="M432.089 257.039L429.448 264.488H429.294L431.951 257.039H432.089Z" fill="#B2B6BF"/>
<path d="M408.191 246.564L406.21 252.108L406.118 251.893L408.038 246.518L408.191 246.564Z" fill="#B2B6BF"/>
<path d="M433.287 257.468L430.692 264.733H430.538L433.134 257.438L433.287 257.468Z" fill="#B2B6BF"/>
<path d="M442.855 257.422L440.136 265.101H439.952L442.717 257.422H442.855Z" fill="#B2B6BF"/>
<path d="M443.956 259.785C445.072 256.653 437.775 251.194 427.659 247.591C417.543 243.989 408.439 243.608 407.323 246.741C406.208 249.873 413.504 255.332 423.62 258.934C433.736 262.536 442.841 262.917 443.956 259.785Z" fill="white"/>
<path d="M438.11 262.122C433.123 261.889 428.206 260.852 423.55 259.05C419.131 257.556 414.951 255.429 411.141 252.738C408.069 250.388 406.534 248.131 407.133 246.595C407.732 245.059 410.204 244.184 414.12 244.368C418.775 244.695 423.358 245.693 427.728 247.332C438.094 251.018 445.297 256.547 444.13 259.772C443.592 261.369 441.365 262.122 438.11 262.122ZM413.153 244.813C409.989 244.813 407.962 245.52 407.501 246.81C407.04 248.1 408.407 250.296 411.371 252.508C415.143 255.174 419.282 257.28 423.658 258.758C433.671 262.321 442.686 262.751 443.761 259.726C444.836 256.654 437.618 251.325 427.574 247.762C423.244 246.139 418.702 245.151 414.09 244.829L413.153 244.813Z" fill="#125BC9"/>
<g opacity="0.22">
<path opacity="0.22" d="M434.669 259.71H433.962C430.589 259.477 427.267 258.753 424.103 257.56C420.902 256.463 417.876 254.912 415.118 252.952C412.815 251.232 411.77 249.635 412.2 248.452C412.63 247.27 414.412 246.686 417.299 246.794C424.055 247.387 430.547 249.697 436.159 253.505C438.462 255.225 439.491 256.838 439.077 258.02C438.677 259.126 437.126 259.71 434.669 259.71ZM416.593 247.193C414.335 247.193 412.891 247.7 412.569 248.606C412.246 249.512 413.214 251.094 415.349 252.676C420.892 256.43 427.307 258.699 433.978 259.264C436.619 259.372 438.355 258.865 438.708 257.867C439.061 256.869 438.048 255.394 435.928 253.797C433.195 251.875 430.2 250.355 427.036 249.282C423.901 248.121 420.618 247.407 417.284 247.162L416.593 247.193Z" fill="#125BC9"/>
</g>
<g opacity="0.26">
<path opacity="0.26" d="M435.712 253.291C433.052 251.508 430.171 250.078 427.143 249.037C426.037 248.637 424.946 248.299 423.887 248.023C417.851 246.364 413.029 246.487 412.307 248.514C412.234 248.781 412.234 249.062 412.307 249.328C412.476 250.48 413.72 251.878 415.716 253.291C417.835 254.721 420.107 255.911 422.489 256.838L424.194 257.484C426.461 258.309 428.801 258.921 431.182 259.311H431.335C431.719 259.311 432.088 259.434 432.456 259.465H432.61C434.506 259.844 436.472 259.635 438.246 258.866C438.608 258.668 438.887 258.346 439.03 257.96C439.414 256.746 438.139 255.026 435.712 253.291ZM438.784 257.898C438.708 258.095 438.593 258.275 438.445 258.426C438.297 258.576 438.12 258.695 437.924 258.774C436.222 259.384 434.39 259.538 432.61 259.219H432.441L431.32 259.065H431.228C428.848 258.668 426.509 258.056 424.24 257.238C423.641 257.023 423.057 256.808 422.489 256.562C420.256 255.695 418.124 254.588 416.131 253.26C414.514 252.408 413.227 251.041 412.476 249.375C412.391 249.105 412.391 248.815 412.476 248.545C413.121 246.702 418.02 246.641 423.856 248.223C424.9 248.514 425.975 248.852 427.066 249.236C429.959 250.225 432.715 251.577 435.267 253.26C437.816 255.042 439.229 256.777 438.815 257.96L438.784 257.898Z" fill="#B2B6BF"/>
</g>
<g opacity="0.2">
<path opacity="0.3" d="M439.306 278.985C438.615 282.318 430.306 283.393 420.769 281.411H420.523C420.523 277.572 420.723 273.732 421 270C421 269.678 421 269.34 421 269.018C421.721 269.125 422.443 269.263 423.18 269.417C432.764 271.367 439.997 275.668 439.306 278.985Z" fill="#A0BDE9"/>
</g>
<path opacity="0.2" d="M439.396 279.624C440.191 276.387 433.023 271.844 423.385 269.476C413.748 267.109 405.29 267.814 404.495 271.052C403.7 274.289 410.868 278.832 420.506 281.199C430.143 283.566 438.6 282.861 439.396 279.624Z" fill="#E7EFFA"/>
<path d="M62.6896 339.892L61.9318 342.016C61.7739 342.334 61.5388 342.608 61.2479 342.812C60.957 343.016 60.6196 343.143 60.2667 343.183H60.147C58.155 343.48 56.1248 343.395 54.1644 342.934H54.0647L53.3568 342.794H53.2571C51.7314 342.457 50.2292 342.02 48.7602 341.488C44.6223 340.022 41.2122 338.068 39.4374 336.313L39.3576 336.233C39.218 336.094 39.0884 335.944 38.9688 335.804L38.889 335.715C38.7793 335.585 38.6796 335.445 38.5899 335.326C38.5726 335.286 38.5491 335.249 38.5201 335.216C38.4342 335.078 38.3576 334.935 38.2908 334.787L38.2309 334.648C38.1027 334.3 38.1027 333.918 38.2309 333.571L38.9887 331.447C38.9842 331.397 38.9842 331.347 38.9887 331.298C39.7166 329.303 45.6293 329.513 52.1902 331.846C58.7511 334.179 63.4972 337.739 62.7694 339.823C62.7452 339.849 62.7184 339.872 62.6896 339.892Z" fill="white"/>
<path d="M58.1724 343.521C56.8128 343.5 55.4579 343.357 54.1242 343.092H54.0244L53.3065 342.943H53.2068C51.6788 342.597 50.1736 342.158 48.7 341.626C44.7116 340.201 41.1919 338.256 39.3273 336.422L39.2675 336.362C39.1198 336.216 38.98 336.063 38.8487 335.903L38.769 335.813C38.6593 335.674 38.5496 335.534 38.4698 335.415L38.4 335.295C38.3106 335.154 38.2306 335.008 38.1607 334.856L38.1009 334.727C37.9443 334.353 37.9232 333.937 38.0411 333.55L38.8487 331.297C39.2176 330.299 40.8429 329.731 43.3855 329.851C46.4076 330.063 49.3831 330.711 52.2197 331.775C58.9501 334.168 63.6264 337.758 62.8686 339.852L62.071 342.095C61.9037 342.43 61.6557 342.719 61.3494 342.935C61.0432 343.15 60.6881 343.287 60.3161 343.331H60.2363C59.5576 343.472 58.8653 343.535 58.1724 343.521ZM38.9883 331.556L38.2804 333.55C38.1706 333.877 38.1884 334.233 38.3302 334.547C38.3466 334.595 38.3666 334.642 38.3901 334.687C38.4535 334.828 38.5268 334.964 38.6094 335.095L38.6792 335.205C38.759 335.315 38.8587 335.454 38.9684 335.584L39.0382 335.674C39.16 335.82 39.2898 335.96 39.427 336.093L39.5068 336.172C41.3414 337.987 44.8113 339.911 48.7797 341.327C50.2445 341.85 51.7395 342.282 53.2567 342.623H53.3265L54.0344 342.773H54.1341C56.095 343.232 58.1254 343.314 60.1167 343.012H60.2264C61.0938 342.793 61.6323 342.434 61.8117 341.926L62.5296 339.931L62.5795 339.802L62.6393 339.672C63.3373 337.678 58.651 334.228 52.13 331.915C49.3189 330.861 46.3702 330.22 43.3755 330.01C40.9725 329.911 39.3871 330.379 39.088 331.297C39.0824 331.34 39.0824 331.383 39.088 331.426V331.566L38.9883 331.556Z" fill="#125BC9"/>
<path d="M39.8357 331.745L38.5395 335.304C38.5223 335.264 38.4987 335.227 38.4697 335.195L39.7061 331.715L39.8357 331.745Z" fill="#B2B6BF"/>
<path d="M40.0666 332.633L38.9499 335.783L38.8701 335.694L39.9769 332.593L40.0666 332.633Z" fill="#B2B6BF"/>
<path d="M40.6441 332.842L39.4177 336.292L39.3379 336.212L40.5344 332.802L40.6441 332.842Z" fill="#B2B6BF"/>
<path d="M55.052 337.968L53.337 342.804H53.2373L54.9623 337.968H55.052Z" fill="#B2B6BF"/>
<path d="M39.5375 331.168L38.2512 334.767L38.1914 334.628L39.4378 331.138L39.5375 331.168Z" fill="#B2B6BF"/>
<path d="M55.8297 338.246L54.1446 342.962H54.0449L55.73 338.226L55.8297 338.246Z" fill="#B2B6BF"/>
<path d="M62.0417 338.217L60.2769 343.202H60.1572L61.952 338.217H62.0417Z" fill="#B2B6BF"/>
<path d="M62.7587 339.751C63.4829 337.717 58.7457 334.173 52.1781 331.834C45.6105 329.495 39.6993 329.248 38.9752 331.282C38.2511 333.315 42.9882 336.86 49.5558 339.198C56.1235 341.537 62.0346 341.784 62.7587 339.751Z" fill="white"/>
<path d="M58.9599 341.268C55.7222 341.117 52.5302 340.443 49.5075 339.274C46.6384 338.303 43.9248 336.923 41.451 335.176C39.4568 333.65 38.4597 332.184 38.8486 331.187C39.2374 330.19 40.8427 329.622 43.3853 329.741C46.4074 329.954 49.383 330.602 52.2196 331.666C58.9499 334.059 63.6263 337.648 62.8685 339.742C62.5195 340.779 61.0737 341.268 58.9599 341.268ZM42.7572 330.031C40.7032 330.031 39.387 330.489 39.0879 331.327C38.7887 332.164 39.6761 333.59 41.6005 335.026C44.0494 336.757 46.7362 338.124 49.5773 339.084C56.0783 341.397 61.9312 341.677 62.6292 339.712C63.3272 337.718 58.6408 334.258 52.1199 331.945C49.3088 330.891 46.3601 330.25 43.3654 330.04L42.7572 330.031Z" fill="#125BC9"/>
<g opacity="0.22">
<path opacity="0.22" d="M56.729 339.703H56.2704C54.08 339.552 51.9235 339.082 49.869 338.307C47.7911 337.596 45.8266 336.588 44.0361 335.316C42.5404 334.199 41.8624 333.162 42.1416 332.395C42.4208 331.627 43.5774 331.248 45.4519 331.318C49.8381 331.703 54.053 333.203 57.6962 335.675C59.1919 336.792 59.8599 337.839 59.5907 338.606C59.3314 339.324 58.3244 339.703 56.729 339.703ZM44.9933 331.577C43.5275 331.577 42.5903 331.906 42.3809 332.494C42.1715 333.083 42.7997 334.11 44.1856 335.137C47.7847 337.574 51.9491 339.047 56.2803 339.414C57.9953 339.484 59.1221 339.155 59.3514 338.507C59.5807 337.859 58.9226 336.901 57.5466 335.864C55.7721 334.617 53.8279 333.63 51.7735 332.933C49.7381 332.179 47.6066 331.716 45.442 331.557L44.9933 331.577Z" fill="#125BC9"/>
</g>
<g opacity="0.26">
<path opacity="0.26" d="M57.4032 335.534C55.6758 334.377 53.8056 333.449 51.8394 332.772C51.1215 332.513 50.4136 332.294 49.7256 332.114C45.807 331.037 42.6762 331.117 42.2075 332.433C42.16 332.606 42.16 332.789 42.2075 332.962C42.3172 333.71 43.1248 334.617 44.4211 335.534C45.7967 336.463 47.2716 337.235 48.8182 337.838L49.925 338.256C51.397 338.792 52.9159 339.19 54.4618 339.443H54.5615C54.8108 339.443 55.0501 339.523 55.2894 339.543H55.3891C56.62 339.789 57.8967 339.653 59.0484 339.154C59.2835 339.026 59.4641 338.817 59.5569 338.565C59.8062 337.778 58.9786 336.661 57.4032 335.534ZM59.3974 338.526C59.3484 338.654 59.2735 338.77 59.1774 338.868C59.0814 338.966 58.9662 339.043 58.839 339.094C57.7341 339.49 56.5446 339.59 55.3891 339.383H55.2794L54.5515 339.283H54.4917C52.9468 339.025 51.4283 338.628 49.9549 338.097C49.5661 337.957 49.1872 337.818 48.8182 337.658C47.3686 337.095 45.9845 336.376 44.6903 335.514C43.6402 334.961 42.805 334.073 42.3172 332.992C42.2621 332.816 42.2621 332.628 42.3172 332.453C42.736 331.257 45.9167 331.217 49.7056 332.244C50.3837 332.433 51.0816 332.653 51.7896 332.902C53.6678 333.544 55.457 334.422 57.114 335.514C58.7692 336.671 59.6865 337.798 59.4173 338.565L59.3974 338.526Z" fill="#B2B6BF"/>
</g>
<g opacity="0.2">
<path opacity="0.3" d="M59.7374 352.216C59.2887 354.38 53.8944 355.078 47.7025 353.792H47.543C47.543 351.299 47.6726 348.806 47.8521 346.383C47.8521 346.174 47.8521 345.955 47.8521 345.745C48.3207 345.815 48.7893 345.905 49.2679 346.004C55.4898 347.271 60.1861 350.063 59.7374 352.216Z" fill="#A0BDE9"/>
</g>
<path opacity="0.2" d="M59.7963 352.63C60.3125 350.528 55.6587 347.579 49.4018 346.042C43.1448 344.505 37.6541 344.963 37.1378 347.065C36.6216 349.166 41.2754 352.116 47.5324 353.653C53.7893 355.19 59.2801 354.732 59.7963 352.63Z" fill="#E7EFFA"/>
<g opacity="0.22">
<path opacity="0.22" d="M90.243 22.2574H1.11831C1.08726 22.2575 1.05652 22.2512 1.02806 22.2388C0.999591 22.2264 0.974015 22.2082 0.952953 22.1854C0.931891 22.1626 0.915803 22.1356 0.905712 22.1063C0.895621 22.0769 0.891746 22.0457 0.894334 22.0148C0.894334 21.9554 0.917932 21.8984 0.959936 21.8564C1.00194 21.8144 1.05891 21.7908 1.11831 21.7908H90.243C90.2739 21.7882 90.3051 21.7921 90.3344 21.8022C90.3638 21.8123 90.3907 21.8284 90.4136 21.8494C90.4364 21.8705 90.4546 21.8961 90.467 21.9245C90.4794 21.953 90.4857 21.9837 90.4856 22.0148C90.4856 22.0792 90.4601 22.1409 90.4145 22.1864C90.369 22.2319 90.3073 22.2574 90.243 22.2574Z" fill="#0F6972"/>
</g>
<path d="M89.7773 25.7664C88.9947 25.7664 88.2296 25.5344 87.5789 25.0996C86.9282 24.6648 86.421 24.0468 86.1215 23.3237C85.822 22.6007 85.7437 21.8051 85.8963 21.0375C86.049 20.27 86.4259 19.5649 86.9793 19.0115C87.5327 18.4581 88.2377 18.0813 89.0053 17.9286C89.7729 17.7759 90.5685 17.8543 91.2915 18.1537C92.0146 18.4532 92.6325 18.9604 93.0673 19.6111C93.5021 20.2618 93.7342 21.0269 93.7342 21.8095C93.7342 22.8589 93.3173 23.8654 92.5752 24.6075C91.8332 25.3495 90.8267 25.7664 89.7773 25.7664ZM89.7773 18.3005C89.0833 18.3005 88.4048 18.5063 87.8278 18.8919C87.2507 19.2774 86.801 19.8255 86.5354 20.4667C86.2698 21.1078 86.2003 21.8134 86.3357 22.4941C86.4711 23.1747 86.8053 23.8 87.296 24.2907C87.7868 24.7815 88.412 25.1157 89.0927 25.2511C89.7734 25.3865 90.4789 25.317 91.1201 25.0514C91.7613 24.7858 92.3093 24.336 92.6949 23.759C93.0805 23.1819 93.2863 22.5035 93.2863 21.8095C93.2814 20.8804 92.9101 19.9907 92.2531 19.3337C91.5961 18.6767 90.7064 18.3054 89.7773 18.3005Z" fill="#0F6972"/>
<path d="M31.9166 23.8997C31.5032 23.8997 31.099 23.7771 30.7552 23.5474C30.4115 23.3177 30.1435 22.9912 29.9853 22.6092C29.8271 22.2272 29.7857 21.8069 29.8663 21.4014C29.947 20.9959 30.1461 20.6234 30.4385 20.331C30.7308 20.0387 31.1033 19.8396 31.5088 19.7589C31.9143 19.6783 32.3346 19.7197 32.7166 19.8779C33.0986 20.0361 33.4251 20.304 33.6548 20.6478C33.8845 20.9916 34.0071 21.3958 34.0071 21.8092C34.0071 22.0837 33.953 22.3556 33.848 22.6092C33.7429 22.8628 33.5889 23.0933 33.3948 23.2874C33.2007 23.4815 32.9702 23.6355 32.7166 23.7405C32.463 23.8456 32.1912 23.8997 31.9166 23.8997ZM31.9166 20.1667C31.5918 20.1667 31.2742 20.263 31.0041 20.4435C30.734 20.624 30.5235 20.8805 30.3992 21.1807C30.2748 21.4808 30.2423 21.811 30.3057 22.1297C30.3691 22.4483 30.5255 22.7409 30.7552 22.9706C30.9849 23.2003 31.2776 23.3568 31.5962 23.4202C31.9148 23.4835 32.2451 23.451 32.5452 23.3267C32.8453 23.2024 33.1018 22.9919 33.2823 22.7217C33.4628 22.4516 33.5591 22.1341 33.5591 21.8092C33.5543 21.3751 33.3797 20.9601 33.0727 20.6531C32.7657 20.3462 32.3507 20.1716 31.9166 20.1667Z" fill="#0F6972"/>
<path d="M44.9817 94.6021C46.0126 94.6021 46.8482 93.7665 46.8482 92.7356C46.8482 91.7048 46.0126 90.8691 44.9817 90.8691C43.9509 90.8691 43.1152 91.7048 43.1152 92.7356C43.1152 93.7665 43.9509 94.6021 44.9817 94.6021Z" fill="#0F6972"/>
<g opacity="0.22">
<path opacity="0.22" d="M390.507 157.672C390.431 157.672 390.358 157.642 390.304 157.588C390.251 157.535 390.221 157.462 390.221 157.386V22.1842C390.221 22.1084 390.251 22.0357 390.304 21.9821C390.358 21.9285 390.431 21.8984 390.507 21.8984C390.543 21.8983 390.579 21.9058 390.613 21.9204C390.646 21.935 390.676 21.9564 390.701 21.9833C390.726 22.0102 390.745 22.0419 390.757 22.0765C390.769 22.1111 390.773 22.1478 390.77 22.1842V157.386C390.773 157.423 390.769 157.459 390.757 157.494C390.745 157.529 390.726 157.56 390.701 157.587C390.676 157.614 390.646 157.636 390.613 157.65C390.579 157.665 390.543 157.672 390.507 157.672Z" fill="#A0BDE9"/>
</g>
<path d="M390.199 160.134C392.627 160.134 394.595 158.166 394.595 155.738C394.595 153.309 392.627 151.341 390.199 151.341C387.77 151.341 385.802 153.309 385.802 155.738C385.802 158.166 387.77 160.134 390.199 160.134Z" fill="white"/>
<path d="M390.199 160.399C389.277 160.399 388.376 160.126 387.609 159.614C386.843 159.102 386.246 158.374 385.893 157.522C385.54 156.671 385.448 155.734 385.628 154.83C385.807 153.925 386.251 153.095 386.903 152.443C387.555 151.791 388.385 151.348 389.289 151.168C390.194 150.988 391.131 151.08 391.982 151.433C392.834 151.786 393.562 152.383 394.074 153.149C394.586 153.916 394.859 154.817 394.859 155.739C394.859 156.975 394.368 158.16 393.494 159.034C392.62 159.908 391.435 160.399 390.199 160.399ZM390.199 151.606C389.381 151.606 388.582 151.848 387.903 152.302C387.223 152.756 386.693 153.402 386.38 154.157C386.068 154.912 385.986 155.743 386.145 156.545C386.305 157.347 386.698 158.083 387.276 158.661C387.854 159.239 388.591 159.633 389.392 159.792C390.194 159.952 391.025 159.87 391.78 159.557C392.536 159.244 393.181 158.715 393.635 158.035C394.089 157.355 394.332 156.556 394.332 155.739C394.326 154.644 393.889 153.596 393.115 152.823C392.341 152.049 391.293 151.612 390.199 151.606Z" fill="#A0BDE9"/>
<path d="M390.748 60.6566C391.962 60.6566 392.947 59.6723 392.947 58.4582C392.947 57.244 391.962 56.2598 390.748 56.2598C389.534 56.2598 388.55 57.244 388.55 58.4582C388.55 59.6723 389.534 60.6566 390.748 60.6566Z" fill="white"/>
<path d="M390.748 60.943C390.257 60.943 389.776 60.7973 389.368 60.5243C388.959 60.2514 388.641 59.8634 388.453 59.4095C388.265 58.9555 388.216 58.4561 388.311 57.9742C388.407 57.4923 388.644 57.0496 388.991 56.7022C389.339 56.3548 389.781 56.1182 390.263 56.0223C390.745 55.9265 391.245 55.9757 391.699 56.1637C392.152 56.3517 392.54 56.6701 392.813 57.0787C393.086 57.4872 393.232 57.9675 393.232 58.4588C393.226 59.1159 392.963 59.7444 392.498 60.2091C392.033 60.6737 391.405 60.9373 390.748 60.943ZM390.748 56.5462C390.37 56.5462 390 56.6584 389.685 56.8685C389.371 57.0787 389.126 57.3774 388.981 57.7269C388.836 58.0764 388.798 58.4609 388.872 58.8319C388.946 59.203 389.128 59.5438 389.395 59.8112C389.663 60.0787 390.004 60.2609 390.375 60.3347C390.746 60.4085 391.13 60.3706 391.48 60.2258C391.829 60.0811 392.128 59.8359 392.338 59.5214C392.548 59.2069 392.66 58.8371 392.66 58.4588C392.66 57.9516 392.459 57.4651 392.1 57.1064C391.742 56.7477 391.255 56.5462 390.748 56.5462Z" fill="#A0BDE9"/>
<path d="M390.197 109.572C391.412 109.572 392.396 108.587 392.396 107.373C392.396 106.159 391.412 105.175 390.197 105.175C388.983 105.175 387.999 106.159 387.999 107.373C387.999 108.587 388.983 109.572 390.197 109.572Z" fill="white"/>
<path d="M390.2 109.835C389.713 109.835 389.237 109.69 388.832 109.42C388.427 109.149 388.111 108.765 387.925 108.315C387.738 107.865 387.69 107.37 387.785 106.892C387.88 106.414 388.114 105.976 388.458 105.631C388.803 105.287 389.242 105.052 389.719 104.957C390.197 104.862 390.692 104.911 391.142 105.098C391.592 105.284 391.976 105.6 392.247 106.004C392.517 106.409 392.662 106.885 392.662 107.372C392.662 108.025 392.402 108.652 391.941 109.113C391.479 109.575 390.853 109.835 390.2 109.835ZM390.2 105.438C389.817 105.438 389.443 105.551 389.125 105.764C388.807 105.976 388.559 106.279 388.412 106.632C388.266 106.986 388.227 107.375 388.302 107.75C388.377 108.125 388.561 108.47 388.832 108.74C389.102 109.011 389.447 109.195 389.822 109.27C390.197 109.344 390.586 109.306 390.94 109.16C391.293 109.013 391.595 108.765 391.808 108.447C392.021 108.129 392.134 107.755 392.134 107.372C392.128 106.861 391.923 106.372 391.561 106.011C391.2 105.649 390.711 105.443 390.2 105.438Z" fill="#A0BDE9"/>
<path d="M441.18 71.0991L443.005 73.9131C443.236 74.3814 443.347 74.8999 443.328 75.4219C443.309 75.9439 443.16 76.4529 442.895 76.9029C442.895 76.9029 442.895 77.0129 442.895 77.0788C441.46 79.7128 439.526 82.0424 437.201 83.9378C437.201 83.9378 437.201 83.9378 437.091 84.0478L436.278 84.7513V84.8612C434.502 86.3443 432.637 87.7173 430.694 88.9722C426.273 92.0285 421.289 94.1734 416.03 95.2816H415.854H414.997H413.92H413.282H413.062C412.533 95.1522 412.071 94.831 411.765 94.3803L409.941 91.5883L409.809 91.4124C408.072 88.7304 413.656 81.9813 422.318 76.3533C430.979 70.7254 439.399 68.3291 441.158 71.0112C441.166 71.0402 441.174 71.0696 441.18 71.0991Z" fill="white"/>
<path d="M414.556 95.6773H413.874C413.633 95.7002 413.39 95.7002 413.149 95.6773H412.951C412.341 95.5186 411.805 95.1535 411.434 94.6441L409.522 91.6982C408.664 90.2692 409.522 87.895 411.918 85.103C414.894 81.7051 418.336 78.7446 422.14 76.3093C430.934 70.5495 439.42 68.2192 441.333 71.0112L443.311 74.045C443.586 74.543 443.731 75.1028 443.731 75.6718C443.731 76.2408 443.586 76.8006 443.311 77.2986V77.4745C441.841 80.1354 439.888 82.4988 437.551 84.4435H437.441L436.606 85.1469L436.496 85.2569C434.714 86.7476 432.841 88.1279 430.89 89.3899C426.504 92.464 421.549 94.6315 416.315 95.7653H416.139H415.259H414.798L414.556 95.6773ZM410.159 91.5883L411.83 94.1384C412.108 94.5362 412.523 94.8179 412.995 94.9299H413.193C413.42 94.9526 413.648 94.9526 413.874 94.9299H414.93H415.765H415.919C421.096 93.8159 426.004 91.6944 430.363 88.6864C432.288 87.4337 434.138 86.0683 435.902 84.5973L436.738 83.8719V83.7619C439.023 81.8785 440.932 79.5814 442.366 76.9908V76.815C442.615 76.4048 442.759 75.9395 442.786 75.4602C442.813 74.981 442.722 74.5025 442.52 74.067L440.849 71.4948L440.717 71.231L440.607 71.0551C438.98 68.549 430.516 71.0551 422.162 76.4852C418.399 78.8449 415 81.7406 412.072 85.081C409.873 87.785 408.972 90.0054 409.741 91.1706C409.731 91.2214 409.731 91.2737 409.741 91.3245L409.939 91.5883H410.159Z" fill="#A0BDE9"/>
<path d="M411.084 90.708L414.117 95.3906H413.942L410.93 90.8839L411.084 90.708Z" fill="#B2B6BF"/>
<path d="M412.292 91.2129L414.996 95.3899H414.842L412.182 91.3008L412.292 91.2129Z" fill="#B2B6BF"/>
<path d="M413.062 90.7295L416.029 95.2802H415.854L412.93 90.8834L413.062 90.7295Z" fill="#B2B6BF"/>
<path d="M432.055 78.3545L436.188 84.7299V84.8398L432.033 78.4424L432.055 78.3545Z" fill="#B2B6BF"/>
<path d="M410.116 90.5117L413.282 95.2823H413.062L410.072 90.6876L410.116 90.5117Z" fill="#B2B6BF"/>
<path d="M433.068 77.6934L437.113 83.9149C437.113 83.9149 437.113 83.9149 437.004 84.0248L432.937 77.6934H433.068Z" fill="#B2B6BF"/>
<path d="M438.629 70.3516L442.894 76.9468C442.894 76.9468 442.894 77.0567 442.894 77.1227L438.497 70.5274L438.629 70.3516Z" fill="#B2B6BF"/>
<path d="M428.547 85.924C437.204 80.2845 442.804 73.5355 441.055 70.8497C439.305 68.1639 430.869 70.5584 422.211 76.1979C413.554 81.8375 407.953 88.5864 409.703 91.2722C411.452 93.958 419.889 91.5636 428.547 85.924Z" fill="white"/>
<path d="M412.6 92.6873C412.022 92.7607 411.434 92.6863 410.892 92.471C410.35 92.2557 409.871 91.9066 409.501 91.4562C408.577 90.0492 409.501 87.653 411.853 84.7071C414.829 81.3092 418.271 78.3487 422.075 75.9134C431.001 70.1096 439.443 67.8013 441.29 70.6592C443.158 73.4952 437.618 80.2883 428.715 86.0481C424.986 88.5632 420.914 90.5255 416.623 91.8739C415.328 92.3346 413.973 92.6085 412.6 92.6873ZM438.234 70.0657C434.716 70.0657 428.539 72.4619 422.383 76.463C418.62 78.8227 415.221 81.7184 412.293 85.0588C410.094 87.7629 409.193 89.9833 409.962 91.1484C410.732 92.3136 413.084 92.4455 416.557 91.4782C420.798 90.1559 424.821 88.215 428.495 85.7183C436.871 80.2663 442.565 73.5392 440.916 71.033C440.588 70.6562 440.17 70.3696 439.701 70.2003C439.231 70.0309 438.726 69.9846 438.234 70.0657Z" fill="#A0BDE9"/>
<path opacity="0.22" d="M416.141 89.5434C415.711 89.5977 415.275 89.5436 414.872 89.3862C414.469 89.2288 414.111 88.973 413.832 88.6421C413.151 87.5869 413.832 85.8281 415.547 83.6517C419.96 78.8257 425.528 75.2018 431.727 73.1213C434.431 72.3519 436.278 72.5278 436.96 73.561C437.641 74.6162 436.96 76.375 435.245 78.5294C433.094 80.9808 430.599 83.1062 427.836 84.8388C424.396 87.3661 420.373 88.9842 416.141 89.5434ZM434.673 73.2972C433.726 73.3242 432.787 73.4795 431.881 73.7589C428.823 74.7211 425.921 76.1206 423.263 77.9139C420.553 79.63 418.097 81.7167 415.965 84.1134C414.36 86.048 413.766 87.6308 414.294 88.5102C415.327 90.093 420.889 88.8839 427.484 84.5531C430.204 82.8504 432.663 80.7622 434.783 78.3535C436.388 76.4409 436.981 74.8581 436.454 73.9567C436.234 73.7094 435.956 73.52 435.646 73.405C435.335 73.29 435.001 73.253 434.673 73.2972Z" fill="#A0BDE9"/>
<path opacity="0.26" d="M436.805 73.6723C435.486 71.6497 429.441 73.3205 423.043 77.4975C422.23 78.0251 421.438 78.5747 420.713 79.1463C415.722 82.8616 412.843 86.7748 413.986 88.5335C415.129 90.2922 420.867 88.9952 426.978 85.1919L427.748 84.7083C429.699 83.4568 431.531 82.0292 433.222 80.4433C433.222 80.4433 433.222 80.4434 433.332 80.3334C433.442 80.2235 433.881 79.8058 434.101 79.564L434.211 79.4541C436.519 77.0358 437.575 74.8594 436.805 73.6723ZM414.118 88.4456C413.062 86.8407 416.052 82.9056 420.867 79.3002C421.592 78.7506 422.362 78.201 423.175 77.6734C429.287 73.6942 435.464 71.8915 436.673 73.7602C437.377 74.8154 436.3 76.9039 434.079 79.2342L433.969 79.3661L433.2 80.1136C433.164 80.1213 433.126 80.1213 433.09 80.1136C431.401 81.7411 429.569 83.2127 427.616 84.5104L426.824 85.016C420.977 88.6874 415.283 90.2043 414.118 88.4456Z" fill="#B2B6BF"/>
<path opacity="0.28" d="M441.62 105.637C439.904 102.415 438.003 99.2954 435.926 96.2935C442.763 91.8967 449.248 90.0061 450.875 92.2924C452.502 94.5788 448.457 100.514 441.62 105.637Z" fill="#E7EFFA"/>
<defs>
<filter id="filter0_dd_1711_12201" x="78.0827" y="17.5181" width="311.835" height="425.709" filterUnits="userSpaceOnUse" color-interpolation-filters="sRGB">
<feFlood flood-opacity="0" result="BackgroundImageFix"/>
<feColorMatrix in="SourceAlpha" type="matrix" values="0 0 0 0 0 0 0 0 0 0 0 0 0 0 0 0 0 0 127 0" result="hardAlpha"/>
<feMorphology radius="1.75188" operator="erode" in="SourceAlpha" result="effect1_dropShadow_1711_12201"/>
<feOffset dy="3.50376"/>
<feGaussianBlur stdDeviation="8.7594"/>
<feComposite in2="hardAlpha" operator="out"/>
<feColorMatrix type="matrix" values="0 0 0 0 0.196078 0 0 0 0 0.196078 0 0 0 0 0.278431 0 0 0 0.08 0"/>
<feBlend mode="normal" in2="BackgroundImageFix" result="effect1_dropShadow_1711_12201"/>
<feColorMatrix in="SourceAlpha" type="matrix" values="0 0 0 0 0 0 0 0 0 0 0 0 0 0 0 0 0 0 127 0" result="hardAlpha"/>
<feOffset/>
<feGaussianBlur stdDeviation="0.43797"/>
<feComposite in2="hardAlpha" operator="out"/>
<feColorMatrix type="matrix" values="0 0 0 0 0.0470588 0 0 0 0 0.101961 0 0 0 0 0.294118 0 0 0 0.1 0"/>
<feBlend mode="normal" in2="effect1_dropShadow_1711_12201" result="effect2_dropShadow_1711_12201"/>
<feBlend mode="normal" in="SourceGraphic" in2="effect2_dropShadow_1711_12201" result="shape"/>
</filter>
<filter id="filter1_dd_1711_12201" x="78.0827" y="93.7271" width="311.835" height="32.4098" filterUnits="userSpaceOnUse" color-interpolation-filters="sRGB">
<feFlood flood-opacity="0" result="BackgroundImageFix"/>
<feColorMatrix in="SourceAlpha" type="matrix" values="0 0 0 0 0 0 0 0 0 0 0 0 0 0 0 0 0 0 127 0" result="hardAlpha"/>
<feMorphology radius="1.75188" operator="erode" in="SourceAlpha" result="effect1_dropShadow_1711_12201"/>
<feOffset dy="3.50376"/>
<feGaussianBlur stdDeviation="8.7594"/>
<feComposite in2="hardAlpha" operator="out"/>
<feColorMatrix type="matrix" values="0 0 0 0 0.196078 0 0 0 0 0.196078 0 0 0 0 0.278431 0 0 0 0.08 0"/>
<feBlend mode="normal" in2="BackgroundImageFix" result="effect1_dropShadow_1711_12201"/>
<feColorMatrix in="SourceAlpha" type="matrix" values="0 0 0 0 0 0 0 0 0 0 0 0 0 0 0 0 0 0 127 0" result="hardAlpha"/>
<feOffset/>
<feGaussianBlur stdDeviation="0.43797"/>
<feComposite in2="hardAlpha" operator="out"/>
<feColorMatrix type="matrix" values="0 0 0 0 0.0470588 0 0 0 0 0.101961 0 0 0 0 0.294118 0 0 0 0.1 0"/>
<feBlend mode="normal" in2="effect1_dropShadow_1711_12201" result="effect2_dropShadow_1711_12201"/>
<feBlend mode="normal" in="SourceGraphic" in2="effect2_dropShadow_1711_12201" result="shape"/>
</filter>
<filter id="filter2_dd_1711_12201" x="339.989" y="33.2843" width="33.2856" height="33.2857" filterUnits="userSpaceOnUse" color-interpolation-filters="sRGB">
<feFlood flood-opacity="0" result="BackgroundImageFix"/>
<feColorMatrix in="SourceAlpha" type="matrix" values="0 0 0 0 0 0 0 0 0 0 0 0 0 0 0 0 0 0 127 0" result="hardAlpha"/>
<feMorphology radius="0.87594" operator="erode" in="SourceAlpha" result="effect1_dropShadow_1711_12201"/>
<feOffset dy="2.62782"/>
<feGaussianBlur stdDeviation="3.50376"/>
<feComposite in2="hardAlpha" operator="out"/>
<feColorMatrix type="matrix" values="0 0 0 0 0.196078 0 0 0 0 0.196078 0 0 0 0 0.278431 0 0 0 0.05 0"/>
<feBlend mode="normal" in2="BackgroundImageFix" result="effect1_dropShadow_1711_12201"/>
<feColorMatrix in="SourceAlpha" type="matrix" values="0 0 0 0 0 0 0 0 0 0 0 0 0 0 0 0 0 0 127 0" result="hardAlpha"/>
<feOffset/>
<feGaussianBlur stdDeviation="0.43797"/>
<feComposite in2="hardAlpha" operator="out"/>
<feColorMatrix type="matrix" values="0 0 0 0 0.0470588 0 0 0 0 0.101961 0 0 0 0 0.294118 0 0 0 0.24 0"/>
<feBlend mode="normal" in2="effect1_dropShadow_1711_12201" result="effect2_dropShadow_1711_12201"/>
<feBlend mode="normal" in="SourceGraphic" in2="effect2_dropShadow_1711_12201" result="shape"/>
</filter>
</defs>
</svg>
