<svg width="250" height="120" viewBox="0 0 250 120" fill="none" xmlns="http://www.w3.org/2000/svg"><path d="M54.992 82.24c-1.152 0-2.1387-.2507-2.96-.752-.8214-.5067-1.4534-1.2107-1.896-2.112-.4374-.9013-.656-1.9467-.656-3.136s.2186-2.2347.656-3.136c.4426-.9013 1.0746-1.6027 1.896-2.104.8213-.5067 1.808-.76 2.96-.76 1.328 0 2.4346.3333 3.32 1 .8853.6613 1.5066 1.5547 1.864 2.68l-1.944.536c-.224-.752-.6054-1.3387-1.144-1.76-.5387-.4267-1.2374-.64-2.096-.64-.7734 0-1.4187.1733-1.936.52-.512.3467-.8987.8347-1.16 1.464-.256.624-.3867 1.3573-.392 2.2 0 .8427.128 1.5787.384 2.208.2613.624.6506 1.1093 1.168 1.456.5173.3467 1.1626.52 1.936.52.8586 0 1.5573-.2133 2.096-.64.5386-.4267.92-1.0133 1.144-1.76l1.944.536c-.3574 1.1253-.9787 2.0213-1.864 2.688-.8854.6613-1.992.992-3.32.992zM65.1725 82.248c-.64 0-1.168-.1067-1.584-.32-.416-.2133-.7467-.4853-.992-.816-.2454-.3307-.4267-.6827-.544-1.056-.1174-.3733-.1947-.7253-.232-1.056-.032-.336-.048-.608-.048-.816V73.36h1.952v4.16c0 .2667.0186.568.056.904.0373.3307.1226.6507.256.96.1386.304.3413.5547.608.752.272.1973.6373.296 1.096.296.2453 0 .488-.04.728-.12.24-.08.456-.216.648-.408.1973-.1973.3546-.4667.472-.808.1173-.3413.176-.7733.176-1.296l1.144.488c0 .736-.144 1.4027-.432 2-.2827.5973-.7014 1.0747-1.256 1.432-.5547.352-1.2374.528-2.048.528zm2.824-.248v-2.68h-.232v-5.96h1.936V82h-1.704zM75.2841 82.24c-1.0667 0-1.9333-.24-2.6-.72-.6667-.48-1.072-1.1547-1.216-2.024l1.968-.304c.1013.4267.3253.7627.672 1.008.3467.2453.784.368 1.312.368.464 0 .8213-.0907 1.072-.272.256-.1867.384-.44.384-.76 0-.1973-.048-.3547-.144-.472-.0907-.1227-.2933-.24-.608-.352-.3147-.112-.7973-.2533-1.448-.424-.7253-.192-1.3013-.3973-1.728-.616-.4267-.224-.7333-.488-.92-.792-.1867-.304-.28-.672-.28-1.104 0-.5387.1413-1.008.424-1.408.2827-.4.6773-.7067 1.184-.92.5067-.2187 1.104-.328 1.792-.328.672 0 1.2667.104 1.784.312.5227.208.944.504 1.264.888.32.384.5173.8347.592 1.352l-1.968.352c-.048-.368-.216-.6587-.504-.872-.2827-.2133-.6613-.3333-1.136-.36-.4533-.0267-.8187.0427-1.096.208-.2773.16-.416.3867-.416.68 0 .1653.056.3067.168.424.112.1173.336.2347.672.352.3413.1173.848.2613 1.52.432.688.176 1.2373.3787 1.648.608.416.224.7147.4933.896.808.1867.3147.28.696.28 1.144 0 .8693-.3173 1.552-.952 2.048-.6293.496-1.5013.744-2.616.744zM85.6684 82c-.5707.1067-1.1307.152-1.68.136-.544-.0107-1.032-.1093-1.464-.296-.432-.192-.76-.4933-.984-.904-.1974-.3733-.3014-.7547-.312-1.144-.0107-.3893-.016-.8293-.016-1.32V70.96h1.92v7.4c0 .3467.0026.6507.008.912.0106.2613.0666.4747.168.64.192.32.4986.4987.92.536.4213.0373.9013.016 1.44-.064V82zm-6.024-7.128V73.36h6.024v1.512h-6.024zM90.9047 82.24c-.864 0-1.6186-.1947-2.264-.584-.6453-.3893-1.1466-.9253-1.504-1.608-.352-.688-.528-1.4773-.528-2.368 0-.9067.1814-1.7013.544-2.384.3627-.6827.8667-1.216 1.512-1.6.6454-.384 1.392-.576 2.24-.576.8694 0 1.6267.1947 2.272.584.6454.3893 1.1467.928 1.504 1.616.3574.6827.536 1.4693.536 2.36 0 .896-.1813 1.688-.544 2.376-.3573.6827-.8586 1.2187-1.504 1.608-.6453.384-1.4.576-2.264.576zm0-1.808c.768 0 1.3387-.256 1.712-.768.3734-.512.56-1.1733.56-1.984 0-.8373-.1893-1.504-.568-2-.3786-.5013-.9466-.752-1.704-.752-.5173 0-.944.1173-1.28.352-.3306.2293-.576.552-.736.968-.16.4107-.24.888-.24 1.432 0 .8373.1894 1.5067.568 2.008.384.496.9467.744 1.688.744zM107.355 82v-5.248c0-.592-.146-1.0533-.44-1.384-.293-.336-.69-.504-1.192-.504-.309 0-.586.072-.832.216-.245.1387-.44.3467-.584.624-.144.272-.216.5973-.216.976l-.856-.504c-.005-.5973.128-1.1227.4-1.576.278-.4587.651-.816 1.12-1.072.47-.256.992-.384 1.568-.384.955 0 1.686.288 2.192.864.512.5707.768 1.3227.768 2.256V82h-1.928zm-10.3916 0v-8.64h1.704v2.68h.24V82h-1.944zm5.2076 0v-5.224c0-.6027-.146-1.072-.44-1.408-.293-.336-.693-.504-1.2-.504-.49 0-.885.168-1.1836.504-.2934.336-.44.7733-.44 1.312l-.864-.576c0-.56.1386-1.064.416-1.512.2773-.448.6506-.8 1.12-1.056.4746-.2613 1.0056-.392 1.5916-.392.646 0 1.184.1387 1.616.416.438.272.763.6453.976 1.12.219.4693.328 1 .328 1.592V82h-1.92zM114.733 82V70.48h1.928V82h-1.928zM125.033 82v-4.16c0-.272-.018-.5733-.056-.904-.037-.3307-.125-.648-.264-.952-.133-.3093-.336-.5627-.608-.76-.266-.1973-.629-.296-1.088-.296-.245 0-.488.04-.728.12-.24.08-.458.2187-.656.416-.192.192-.346.4587-.464.8-.117.336-.176.768-.176 1.296l-1.144-.488c0-.736.142-1.4027.424-2 .288-.5973.71-1.072 1.264-1.424.555-.3573 1.238-.536 2.048-.536.64 0 1.168.1067 1.584.32.416.2133.747.4853.992.816.246.3307.427.6827.544 1.056.118.3733.192.728.224 1.064.038.3307.056.6.056.808V82h-1.952zm-5.992 0v-8.64h1.72v2.68h.232V82h-1.952zM134.137 82c-.571.1067-1.131.152-1.68.136-.544-.0107-1.032-.1093-1.464-.296-.432-.192-.76-.4933-.984-.904-.197-.3733-.301-.7547-.312-1.144-.011-.3893-.016-.8293-.016-1.32V70.96h1.92v7.4c0 .3467.003.6507.008.912.011.2613.067.4747.168.64.192.32.499.4987.92.536.421.0373.901.016 1.44-.064V82zm-6.024-7.128V73.36h6.024v1.512h-6.024zM139.485 82.24c-.874 0-1.642-.1893-2.304-.568-.661-.3787-1.178-.904-1.552-1.576-.368-.672-.552-1.4453-.552-2.32 0-.944.182-1.7627.544-2.456.363-.6987.867-1.24 1.512-1.624.646-.384 1.392-.576 2.24-.576.896 0 1.656.2107 2.28.632.63.416 1.096 1.0053 1.4 1.768.304.7627.419 1.6613.344 2.696h-1.912v-.704c-.005-.9387-.17-1.624-.496-2.056-.325-.432-.837-.648-1.536-.648-.789 0-1.376.2453-1.76.736-.384.4853-.576 1.1973-.576 2.136 0 .8747.192 1.552.576 2.032.384.48.944.72 1.68.72.475 0 .883-.104 1.224-.312.347-.2133.614-.52.8-.92l1.904.576c-.33.7787-.842 1.384-1.536 1.816-.688.432-1.448.648-2.28.648zm-2.976-4.024V76.76h5.944v1.456h-5.944zM148.814 86.08c-.48 0-.941-.0747-1.384-.224-.437-.1493-.832-.3653-1.184-.648-.352-.2773-.64-.6133-.864-1.008l1.776-.88c.166.3147.398.5467.696.696.304.1547.627.232.968.232.4 0 .758-.072 1.072-.216.315-.1387.558-.3467.728-.624.176-.272.259-.6133.248-1.024v-2.456h.24V73.36h1.688v9.056c0 .2187-.01.4267-.032.624-.016.2027-.045.4-.088.592-.128.56-.373 1.0187-.736 1.376-.362.3627-.813.632-1.352.808-.533.176-1.125.264-1.776.264zm-.168-3.84c-.794 0-1.488-.2-2.08-.6-.592-.4-1.05-.944-1.376-1.632-.325-.688-.488-1.464-.488-2.328 0-.8747.163-1.6533.488-2.336.331-.688.798-1.2293 1.4-1.624.603-.4 1.312-.6 2.128-.6.822 0 1.51.2 2.064.6.56.3947.984.936 1.272 1.624.288.688.432 1.4667.432 2.336 0 .8587-.144 1.6347-.432 2.328-.288.688-.717 1.232-1.288 1.632-.57.4-1.277.6-2.12.6zm.296-1.728c.518 0 .934-.1173 1.248-.352.32-.24.552-.5733.696-1 .15-.4267.224-.92.224-1.48 0-.5653-.074-1.0587-.224-1.48-.144-.4267-.37-.7573-.68-.992-.309-.24-.709-.36-1.2-.36-.517 0-.944.128-1.28.384-.336.2507-.584.592-.744 1.024-.16.4267-.24.9013-.24 1.424 0 .528.078 1.008.232 1.44.16.4267.403.7653.728 1.016.326.2507.739.376 1.24.376zM155.042 82v-8.64h1.704v2.104l-.208-.272c.107-.288.248-.5493.424-.784.181-.24.397-.4373.648-.592.213-.144.448-.256.704-.336.261-.0853.528-.136.8-.152.272-.0213.536-.0107.792.032v1.8c-.256-.0747-.552-.0987-.888-.072-.331.0267-.629.12-.896.28-.267.144-.485.328-.656.552-.165.224-.288.48-.368.768-.08.2827-.12.5893-.12.92V82h-1.936zM163.645 82.24c-.624 0-1.152-.1173-1.584-.352-.432-.24-.76-.5573-.984-.952-.218-.3947-.328-.8293-.328-1.304 0-.416.07-.7893.208-1.12.139-.336.352-.624.64-.864.288-.2453.662-.4453 1.12-.6.347-.112.752-.2133 1.216-.304.47-.0907.976-.1733 1.52-.248.55-.08 1.123-.1653 1.72-.256l-.688.392c.006-.5973-.128-1.0373-.4-1.32-.272-.2827-.73-.424-1.376-.424-.389 0-.765.0907-1.128.272-.362.1813-.616.4933-.76.936l-1.76-.552c.214-.7307.619-1.3173 1.216-1.76.603-.4427 1.414-.664 2.432-.664.768 0 1.443.1253 2.024.376.587.2507 1.022.6613 1.304 1.232.155.304.248.616.28.936.032.3147.048.6587.048 1.032V82h-1.688v-1.872l.28.304c-.389.624-.845 1.0827-1.368 1.376-.517.288-1.165.432-1.944.432zm.384-1.536c.438 0 .811-.0773 1.12-.232.31-.1547.555-.344.736-.568.187-.224.312-.4347.376-.632.102-.2453.158-.5253.168-.84.016-.32.024-.5787.024-.776l.592.176c-.581.0907-1.08.1707-1.496.24-.416.0693-.773.136-1.072.2-.298.0587-.562.1253-.792.2-.224.08-.413.1733-.568.28-.154.1067-.274.2293-.36.368-.08.1387-.12.3013-.12.488 0 .2133.054.4027.16.568.107.16.262.288.464.384.208.096.464.144.768.144zM175.512 82c-.571.1067-1.131.152-1.68.136-.544-.0107-1.032-.1093-1.464-.296-.432-.192-.76-.4933-.984-.904-.197-.3733-.301-.7547-.312-1.144-.011-.3893-.016-.8293-.016-1.32V70.96h1.92v7.4c0 .3467.003.6507.008.912.011.2613.067.4747.168.64.192.32.499.4987.92.536.421.0373.901.016 1.44-.064V82zm-6.024-7.128V73.36h6.024v1.512h-6.024zM177.53 72.048V70.28h1.928v1.768h-1.928zm0 9.952v-8.64h1.928V82h-1.928zM185.67 82.24c-.864 0-1.618-.1947-2.264-.584-.645-.3893-1.146-.9253-1.504-1.608-.352-.688-.528-1.4773-.528-2.368 0-.9067.182-1.7013.544-2.384.363-.6827.867-1.216 1.512-1.6.646-.384 1.392-.576 2.24-.576.87 0 1.627.1947 2.272.584.646.3893 1.147.928 1.504 1.616.358.6827.536 1.4693.536 2.36 0 .896-.181 1.688-.544 2.376-.357.6827-.858 1.2187-1.504 1.608-.645.384-1.4.576-2.264.576zm0-1.808c.768 0 1.339-.256 1.712-.768.374-.512.56-1.1733.56-1.984 0-.8373-.189-1.504-.568-2-.378-.5013-.946-.752-1.704-.752-.517 0-.944.1173-1.28.352-.33.2293-.576.552-.736.968-.16.4107-.24.888-.24 1.432 0 .8373.19 1.5067.568 2.008.384.496.947.744 1.688.744zM197.721 82v-4.16c0-.272-.019-.5733-.056-.904-.037-.3307-.125-.648-.264-.952-.133-.3093-.336-.5627-.608-.76-.267-.1973-.629-.296-1.088-.296-.245 0-.488.04-.728.12-.24.08-.459.2187-.656.416-.192.192-.347.4587-.464.8-.117.336-.176.768-.176 1.296l-1.144-.488c0-.736.141-1.4027.424-2 .288-.5973.709-1.072 1.264-1.424.555-.3573 1.237-.536 2.048-.536.64 0 1.168.1067 1.584.32.416.2133.747.4853.992.816.245.3307.427.6827.544 1.056.117.3733.192.728.224 1.064.037.3307.056.6.056.808V82h-1.952zm-5.992 0v-8.64h1.72v2.68h.232V82h-1.952z" fill="#000"/><path d="M118.105 55.3553h-4.795c-.322 0-.63-.1327-.858-.369-.227-.2362-.355-.5567-.355-.8908v-1.9393c.001-.2979-.057-.5928-.169-.8668-.113-.274-.278-.5214-.485-.7269-.525-.5312-1.286-.8258-2.082-.8055-1.44.035-2.656 1.3507-2.656 2.8737v1.4648c0 .3341-.128.6546-.355.8908-.228.2363-.536.369-.858.369h-4.743c-.493 0-.9801-.1007-1.4349-.2963-.4548-.1956-.8681-.4824-1.2161-.8439-.7031-.73-1.098-1.7201-1.098-2.7525v-4.9258c0-.3341.1278-.6545.3553-.8908.2275-.2362.5361-.369.8579-.369h1.8678c.617 0 1.218-.2743 1.691-.7698.263-.2755.471-.6024.612-.9618.141-.3594.213-.7442.21-1.1323-.02-1.483-1.196-2.7351-2.567-2.7351h-1.8138c-.3218 0-.6304-.1327-.8579-.369-.2275-.2362-.3553-.5567-.3553-.8908v-4.9257c0-.5112.097-1.0174.2853-1.4897.1884-.4723.4646-.9014.8127-1.2629.703-.73 1.6564-1.1402 2.651-1.1402h3.723c.143 0 .28-.0589.381-.164.101-.105.158-.2474.158-.3959v-.4535c0-.609.117-1.212.343-1.7737.227-.5616.56-1.0708.978-1.4976.418-.4269.914-.763 1.459-.9886.545-.2257 1.127-.3364 1.714-.3257 2.392.0434 4.338 2.1262 4.338 4.6423v.3968c0 .1485.056.2909.158.3959.101.1051.238.164.381.164h3.723c.485 0 .966.0994 1.415.2923.448.193.856.4758 1.199.8323.344.3565.616.7798.802 1.2457.186.4658.281.9651.281 1.4693v3.8661c0 .1485.057.2909.158.3959.101.105.238.164.381.164h.382c2.465 0 4.471 2.0297 4.471 4.524 0 2.5623-1.981 4.6472-4.416 4.6472h-.437c-.143 0-.28.059-.381.164-.101.105-.158.2474-.158.3959v3.9194c0 .5042-.095 1.0035-.281 1.4693-.186.4658-.458.8891-.802 1.2456-.343.3566-.751.6394-1.199.8323-.449.193-.93.2923-1.415.2923z" fill="#E72E80"/><path d="M134.336 35.8998l-.003.0001c-.452.003-.9-.0798-1.319-.2444-.419-.1645-.801-.4076-1.124-.7163-.582-.5555-.925-1.2822-.925-2.0526v-1.8675c0-.183-.075-.3624-.215-.4977-.142-.136-.337-.2155-.544-.2155h-4.926c-.906 0-1.771.3467-2.406.9581-.314.3026-.562.6608-.731 1.0536-.169.3927-.256.813-.256 1.2369v4.7435c0 .1829.075.3623.216.4976.141.136.336.2155.544.2155h1.465c1.768 0 3.331 1.4073 3.373 3.1433m6.851-6.2546l-7.351 6.2668m7.351-6.2668c1.72-.0234 3.228-1.3868 3.228-3.0671v-1.8136c0-.183.076-.3624.216-.4977.141-.136.337-.2155.544-.2155h4.926c.448 0 .891.085 1.304.2498.413.1647.787.4057 1.102.7083.634.6108.987 1.4352.987 2.2905v3.7231c0 .2818.116.5481.317.7414.2.1927.467.2978.743.2978h.453c.545 0 1.085.1046 1.587.3072.501.2027.955.499 1.334.8709.38.3719.678.8118.877 1.2934.2.4817.297.9961.288 1.5134h0c-.038 2.0965-1.876 3.8468-4.143 3.8468h-.396c-.276 0-.543.1051-.743.2978-.201.1933-.317.4595-.317.7414v3.723c0 .4172-.086.8308-.252 1.2174-.166.3866-.41.7391-.72 1.0369-.309.2979-.677.5351-1.084.6972-.406.1622-.843.2459-1.284.2459h-3.866c-.275 0-.543.1051-.743.2978-.2.1933-.317.4596-.317.7414v.3815c0 2.1837-1.8 3.9711-4.024 3.9711-2.31 0-4.147-1.7807-4.147-3.9159v-.4367c0-.2818-.117-.5481-.317-.7414-.2-.1927-.468-.2978-.743-.2978h-3.919c-.441 0-.878-.0837-1.284-.2459-.407-.1621-.775-.3993-1.084-.6972-.31-.2978-.554-.6503-.72-1.0369-.167-.3866-.252-.8002-.252-1.2174v-4.7946c0-.183.075-.3624.216-.4977.141-.136.336-.2155.544-.2155h1.939m9.75-9.5031l-9.75 9.5031m2.899-3.2485l-.5.0122m.5-.0122v-.0006l-.5.0128m.5-.0122c.024.9226-.317 1.8197-.952 2.4479m.452-2.4357c.021.7959-.274 1.5575-.805 2.0819m.353.3538c.001-.0007.002-.0014.002-.0021l-.355-.3517m.353.3538c-.253.255-.556.4567-.89.594-.335.1374-.694.2076-1.057.2066m1.947-.8006c-.001.0007-.001.0014-.002.002l-.351-.3558m0 0l-1.594 1.1544m0 0h-.001l.001-.5v.5h0z" fill="#F2F2F2" stroke="#111"/></svg>