<svg width="56" height="40" viewBox="0 0 56 40" fill="none" xmlns="http://www.w3.org/2000/svg">
<path d="M36.1459 24.9623H47.081L43.2432 17.6488C42.9567 17.0975 43.1729 16.4164 43.7242 16.1299C44.281 15.8434 44.9621 16.0597 45.2486 16.611L49.6215 24.9623H53.6431C54.4756 24.9623 55.1458 25.6758 55.1458 26.4596C55.1458 27.3299 54.4756 27.9569 53.6431 27.9569L51.2053 37.7299C50.8269 39.065 49.6702 40.0001 48.2864 40.0001H34.8972C33.5567 40.0001 32.3567 39.065 32.0216 37.7299L29.5838 27.9623C28.7513 27.9623 28.0811 27.3353 28.0811 26.465C28.0811 25.6758 28.7567 24.9677 29.5838 24.9677H33.6054L37.9783 16.6164C38.2648 16.0651 38.9459 15.8488 39.5026 16.1353C40.054 16.4218 40.2702 17.1029 39.9837 17.6542L36.1459 24.9623ZM37.0594 30.211C37.0594 29.838 36.7621 29.4596 36.3081 29.4596C35.9351 29.4596 35.5567 29.8326 35.5567 30.211V34.7082C35.5567 35.1623 35.9351 35.4596 36.3081 35.4596C36.7621 35.4596 37.0594 35.1623 37.0594 34.7082V30.211ZM40.8161 30.211V34.7082C40.8161 35.1623 41.1945 35.4596 41.5675 35.4596C42.0215 35.4596 42.3621 35.1623 42.3621 34.7082V30.211C42.3621 29.838 42.0215 29.4596 41.5675 29.4596C41.1999 29.4596 40.8161 29.838 40.8161 30.211ZM47.6269 30.211C47.6269 29.838 47.2864 29.4596 46.8756 29.4596C46.4648 29.4596 46.1242 29.8326 46.1242 30.211V34.7082C46.1242 35.1623 46.4648 35.4596 46.8756 35.4596C47.2864 35.4596 47.6269 35.1623 47.6269 34.7082V30.211Z" fill="#010101"/>
<path d="M27.7795 29.6646C26.6606 29.043 25.9146 27.8538 25.9146 26.4592C25.9146 24.4755 27.5957 22.7998 29.5795 22.7998H29.639V18.0917C30.3417 18.9728 30.8714 20.1457 30.8714 21.4214C30.8714 21.8971 30.7957 22.3619 30.666 22.7998H32.293L34.2552 19.0593C33.2443 15.3349 29.9092 12.6052 25.9309 12.6052H23.4606C18.6822 12.6052 14.8174 16.5512 14.8174 21.4268C14.8174 24.9457 16.839 27.9781 19.7579 29.3998V32.7727C19.7579 34.1673 20.8606 35.2916 22.2282 35.2916H27.1687C27.8876 35.2916 28.5254 34.9781 28.9741 34.4808L27.7795 29.6646ZM19.7633 24.7565C18.9903 23.8755 18.5309 22.7025 18.5309 21.4268C18.5309 20.1511 18.9957 18.9782 19.7633 18.0971V24.7565Z" fill="#E63081"/>
<path d="M24.7022 10.0864C27.4308 10.0864 29.6428 7.82852 29.6428 5.04322C29.6428 2.25793 27.4308 0 24.7022 0C21.9737 0 19.7617 2.25793 19.7617 5.04322C19.7617 7.82852 21.9737 10.0864 24.7022 10.0864Z" fill="#E63081"/>
<path d="M16.0864 12.9404C14.681 11.9296 12.8973 11.3405 11.1135 11.3405H8.64321C3.87026 11.3405 0 15.2864 0 20.162C0 23.6809 2.02161 26.7134 4.94052 28.135V30.2485C4.94052 31.6431 6.04863 32.7674 7.41078 32.7674H12.3513C13.7189 32.7674 14.8216 31.6431 14.8216 30.2485V28.5566C13.2108 26.6107 12.3513 24.1296 12.3513 21.4269C12.3513 18.0539 13.7945 15.0215 16.0864 12.9404ZM4.94052 23.4972C4.17296 22.6161 3.70809 21.4431 3.70809 20.1674C3.70809 18.8918 4.17296 17.7188 4.94052 16.8377V23.4972Z" fill="#E63081"/>
<path d="M9.88095 8.82159C12.2692 8.82159 14.2053 6.84681 14.2053 4.41079C14.2053 1.97478 12.2692 0 9.88095 0C7.4927 0 5.55664 1.97478 5.55664 4.41079C5.55664 6.84681 7.4927 8.82159 9.88095 8.82159Z" fill="#E63081"/>
</svg>
