<svg width="121" height="96" viewBox="0 0 121 96" fill="none" xmlns="http://www.w3.org/2000/svg"><ellipse opacity=".1" cx="60.0311" cy="51" rx="45.0237" ry="45" fill="url(#paint0_linear_7_5582)"/><path fill-rule="evenodd" clip-rule="evenodd" d="M71.2591 3.53698L97.1656 41.2217c.6003.8755.8288 1.9532.6353 2.9968-.1935 1.0436-.7932 1.9679-1.6675 2.5703l-62.151 42.6853c-.8762.6008-1.9551.8297-2.9999.6362-1.0449-.1934-1.9702-.7932-2.5729-1.6679L2.50307 50.7711c-.59755-.8752-.82412-1.9513-.6302-2.993.19392-1.0417.79256-1.9643 1.66507-2.5662L65.6889 2.50533c.876-.60002 1.9543-.82837 2.9985-.63498 1.0441.19339 1.969.79274 2.5717 1.66663z" fill="#fff"/><path d="M97.8263 40.7511l-3.2357-4.7039-1.6445-2.4054-.2674-.3876L71.9198 3.08246c-.7229-1.04931-1.8328-1.76917-3.0861-2.00166-1.2533-.232488-2.5476.04139-3.5991.76154L3.08356 44.5409c-1.04987.7226-1.77011 1.8318-2.00272 3.0845-.232608 1.2526.04141 2.5463.76194 3.5972L27.7493 88.8912c.3562.522.8127.9681 1.3429 1.3122.5303.3441 1.1236.5794 1.7457.6923.2917.0554.5881.0832.8851.0829.9432.0004 1.8654-.2786 2.65-.8018l.0642-.0428.5027-.3447 59.6507-40.9828 1.9976-1.3711c1.0502-.7229 1.7704-1.8329 2.0025-3.0861.2322-1.2533-.0428-2.5474-.7644-3.5982v0zm-3.2357 6.1124L33.5307 88.8244l-.1765.1123c-.6994.4145-1.5301.5482-2.3244.374-.7942-.1741-1.4926-.6431-1.9542-1.3121L3.16378 50.3166c-.48046-.7009-.66302-1.5638-.5076-2.3991.15542-.8353.63612-1.5748 1.33657-2.0563L66.1438 3.16531c.5311-.36728 1.1617-.564 1.8076-.56393.1982.00067.3959.01855.591.05345.4134.07664.8078.23374 1.1606.46237.3537.22889.6583.52601.8958.87397L90.7319 33.2676l.2674.3875 3.5913 5.2198 1.9147 2.7849c.481.7003.6644 1.5626.51 2.3979-.1544.8353-.634 1.5752-1.3336 2.0574l-1.0911.7484z" fill="#000" stroke="#111" stroke-width=".5"/><path d="M26.4162 47.3255l-10.1374 6.9636 5.6041 8.1497 10.1374-6.9636-5.6041-8.1497z" fill="#fff"/><path d="M32.6722 55.015L27.07 46.8661c-.1225-.1738-.3074-.2935-.5161-.3341-.1038-.0192-.2104-.0178-.3137.0042-.1032.022-.2011.0642-.288.1241l-10.1268 6.965c-.1755.1201-.296.305-.3352.514-.0391.209.0065.425.1267.6005l5.6155 8.1489c.0599.0869.1362.1611.2248.2185.0886.0573.1876.0966.2913.1156.0477.0084.096.0129.1444.0134.1624-.0002.3209-.0496.4546-.1417l10.1375-6.9623c.087-.0597.1615-.136.219-.2245.0574-.0885.0969-.1875.116-.2913.0192-.1038.0176-.2104-.0046-.3136-.0221-.1031-.0645-.2009-.1245-.2878h-.0187zm-10.5894 6.3049l-4.6957-6.8287 8.8245-6.0563 4.6957 6.8287-8.8245 6.0563z" fill="#111"/><path fill-rule="evenodd" clip-rule="evenodd" d="M74.1663 20.03L38.0207 44.8591c-.1736.1196-.3691.2039-.5753.248-.2062.044-.4191.047-.6264.0088-.2074-.0382-.4052-.1169-.5821-.2316-.177-.1147-.3295-.2631-.449-.4368l-4.0887-5.9467c-.1196-.1737-.2037-.3692-.2476-.5754-.0439-.2062-.0466-.4191-.0081-.6263.0384-.2073.1175-.405.2325-.5817.115-.1767.2637-.3291.4377-.4483L68.2539 11.44c.3508-.2405.7827-.332 1.2009-.2543.4182.0777.7884.3182 1.0293.6686l4.0914 5.9467c.2411.3499.3335.7812.2568 1.1991-.0767.4179-.3162.7883-.666 1.0299z" fill="#fff"/><path d="M75.241 17.3464l-4.0887-5.9467c-.179-.2606-.4076-.4833-.6728-.6555-.2652-.1721-.5617-.2904-.8726-.348-.311-.0576-.6302-.0533-.9395.0124-.3093.0658-.6025.1919-.8631.371L31.6641 35.6087c-.5257.3613-.8863.9165-1.0026 1.5434-.1164.627.0211 1.2745.3822 1.8001l2.3104 3.3596 1.7783 2.5871c.1791.2604.4079.4829.6731.6548.2652.172.5617.2901.8725.3475.1464.0273.295.0416.4439.0427.4853-.0015.9589-.1496 1.3585-.4249l17.2692-11.864.5642-.3875 18.3068-12.5776c.5257-.3613.8863-.9165 1.0026-1.5434.1164-.627-.0211-1.2745-.3822-1.8001zm-1.1954 1.5074c-.019.1037-.0583.2026-.1157.2911-.0573.0886-.1316.1649-.2185.2247L53.4793 33.2675l-.5642.3875-15.3439 10.541c-.1752.1204-.3911.1664-.6002.1278-.2091-.0386-.3943-.1586-.5149-.3336l-3.102-4.5114-.9867-1.4353c-.1205-.1751-.1664-.3908-.1278-.5998.0386-.209.1586-.3941.3337-.5147l1.206-.8312.337-.2298 3.0778-2.1141.698-.4784 30.8187-21.1756c.133-.0916.2905-.141.452-.1416.0498-.004.0999-.004.1497 0 .1035.0196.2022.0595.2902.1173.0881.0578.164.1323.2232.2194l4.0914 5.9467c.0613.0882.1043.1879.1263.293.0221.1051.0228.2136.002.3191z" fill="#000"/><path d="M55.7175 27.5078c-.1718.0007-.3392-.0537-.4777-.1553s-.2408-.2449-.2917-.4089c-.0509-.164-.0478-.34.0089-.5021.0567-.1621.1639-.3017.3059-.3983l13.7395-9.4292c.1753-.1125.3875-.1525.5917-.1114.2043.041.3846.1599.5027.3314.1181.1716.1648.3823.1303.5877-.0346.2053-.1478.3892-.3155.5126l-13.7395 9.4399c-.1346.0893-.293.1358-.4546.1336zM40.7322 37.8006c-.1711-.0001-.3376-.0549-.4753-.1564-.1377-.1014-.2393-.2442-.2901-.4074-.0508-.1633-.048-.3385.0079-.5001.0559-.1615.162-.301.3029-.398l9.7764-6.7138c.1756-.1205.3918-.1664.6012-.1275.2093.0388.3947.1592.5153.3346.1205.1755.1664.3916.1276.6008-.0389.2093-.1594.3946-.3349.5151l-9.7738 6.7137c-.1347.0917-.2942.1402-.4572.139z" fill="#000"/><path opacity=".16" d="M94.5905 35.6594v13.1469L34.9397 89.789H33.354V38.0728c-.0004-.6811.1446-1.3544.4252-1.9751.0985-.213.2111-.4192.3369-.6174.3463-.5395.7969-1.0045 1.3254-1.3675.5286-.3631 1.1244-.6169 1.7525-.7465.2302-.0467.4634-.0771.6979-.0909h55.054l1.6446 2.384z" fill="#FEF4F8"/><path d="M115.189 36.4775H39.7694c-2.2123 0-4.0057 1.7925-4.0057 4.0037v45.7134c0 2.2111 1.7934 4.0036 4.0057 4.0036h75.4196c2.213 0 4.006-1.7925 4.006-4.0036V40.4812c0-2.2112-1.793-4.0037-4.006-4.0037z" fill="#fff"/><path d="M115.187 91.0001H39.7777c-1.2766 0-2.5009-.5069-3.4036-1.4091-.9026-.9022-1.4097-2.1258-1.4097-3.4017V40.4866c0-1.2759.5071-2.4996 1.4097-3.4018.9027-.9022 2.127-1.409 3.4036-1.409h75.4093c1.276 0 2.501.5068 3.403 1.409.903.9022 1.41 2.1259 1.41 3.4018v45.7027c0 1.2759-.507 2.4995-1.41 3.4017-.902.9022-2.127 1.4091-3.403 1.4091zM39.7777 37.2794c-.8511 0-1.6672.3379-2.269.9394-.6018.6014-.9399 1.4172-.9399 2.2678v45.7027c0 .8506.3381 1.6663.9399 2.2678.6018.6015 1.4179.9394 2.269.9394h75.4093c.851 0 1.667-.3379 2.269-.9394.602-.6015.94-1.4172.94-2.2678V40.4866c0-.8506-.338-1.6664-.94-2.2678-.602-.6015-1.418-.9394-2.269-.9394H39.7777z" fill="#E72E80" stroke="#E72E80" stroke-width=".5"/><path fill-rule="evenodd" clip-rule="evenodd" d="M104.485 70.6879c-.944-.0001-1.875.227-2.712.6619-.838.435-1.559 1.065-2.1018 1.837-.7187-1.0227-1.7447-1.7899-2.9292-2.1903-1.1845-.4004-2.4658-.4132-3.658-.0365-1.1923.3766-2.2335 1.1232-2.9725 2.1313-.739 1.0081-1.1374 2.2254-1.1374 3.4751 0 1.2497.3984 2.467 1.1374 3.4751.739 1.0081 1.7802 1.7547 2.9725 2.1313 1.1922.3767 2.4735.3639 3.658-.0365 1.1845-.4004 2.2105-1.1676 2.9292-2.1903.5808.8268 1.3648 1.4901 2.2768 1.926.911.4359 1.92.6297 2.929.5627 1.008-.0671 1.982-.3927 2.828-.9454.846-.5528 1.536-1.314 2.002-2.2104.466-.8964.693-1.8976.659-2.9072-.034-1.0096-.327-1.9935-.852-2.8569-.525-.8633-1.263-1.577-2.144-2.0721-.881-.4952-1.875-.7551-2.885-.7548z" fill="#FEF4F8"/><path d="M104.485 83.2494c-.899-.0003-1.789-.1818-2.616-.5336-.827-.3517-1.574-.8665-2.1977-1.5137-.8483.8822-1.9234 1.5138-3.1073 1.8255-.2038.0487-.4186.0158-.5984-.0917-.1799-.1075-.3105-.2811-.364-.4836-.0534-.2025-.0255-.4179.0779-.6001.1034-.1822.274-.3167.4754-.3748 1.1593-.3063 2.1728-1.0125 2.8613-1.9938.074-.1053.1723-.1913.2865-.2506.1143-.0594.2412-.0904.3699-.0904.1288 0 .2557.031.3704.0904.114.0593.212.1453.286.2506.481.6847 1.124 1.24 1.872 1.6165.747.3765 1.577.5625 2.414.5415.836-.021 1.655-.2484 2.383-.6619.728-.4136 1.342-1.0004 1.788-1.7084.446-.708.71-1.5152.769-2.3499.059-.8346-.09-1.6709-.432-2.4343-.343-.7635-.869-1.4305-1.531-1.9418-.663-.5113-1.442-.8509-2.268-.9888-.151-.0239-.293-.0917-.406-.1951-.129.0833-.28.1278-.433.1282-.816 0-1.62.1962-2.343.572-.724.3759-1.347.9204-1.816 1.5876-.074.1053-.172.1913-.286.2506-.1144.0594-.2413.0903-.37.0903-.1288 0-.2557-.0309-.3699-.0903-.1143-.0593-.2126-.1453-.2866-.2506-.4493-.6394-1.0402-1.1665-1.7266-1.5404-.6864-.3739-1.4499-.5844-2.231-.6152-.7811-.0308-1.5588.119-2.2726.4377-.7137.3187-1.3442.7977-1.8425 1.3997-.4983.6021-.8508 1.3109-1.0302 2.0714-.1794.7604-.1808 1.552-.0041 2.3131.1766.7611.5267 1.4712 1.0228 2.075.4961.6038 1.1249 1.0851 1.8375 1.4063.0961.0433.1826.1052.2548.1819.0721.0768.1284.167.1657.2656.0372.0985.0547.2034.0513.3087-.0033.1053-.0273.2088-.0707.3048-.0433.096-.1052.1825-.182.2546s-.1671.1284-.2657.1656c-.0986.0373-.2035.0547-.3089.0514-.1053-.0033-.2089-.0273-.305-.0707-.8992-.404-1.6979-1.0018-2.3389-1.7506-.6409-.7488-1.1082-1.63-1.3684-2.5805-.2601-.9505-.3067-1.9468-.1364-2.9174.1704-.9706.5534-1.8916 1.1216-2.6968.5683-.8053 1.3078-1.475 2.1654-1.9611.8576-.4861 1.8123-.7766 2.7954-.8506.9832-.074 1.9705.0702 2.8914.4223.9208.3522 1.7523.9036 2.4349 1.6147.6237-.6472 1.3707-1.162 2.1977-1.5138.827-.3517 1.717-.5332 2.616-.5335.155.1188.342.1902.538.2059.195.0156.391-.0252.563-.1177 1.659.272 3.154 1.1583 4.188 2.4826 1.034 1.3242 1.531 2.9892 1.392 4.6632-.139 1.6741-.903 3.2344-2.142 4.3703-1.238 1.1358-2.859 1.7639-4.539 1.759v-.0053z" fill="#111" stroke="#111" stroke-width=".5"/><path d="M73.1883 68.5494H43.7734c-.2127 0-.4168-.0845-.5672-.2348-.1505-.1504-.235-.3543-.235-.567 0-.2126.0845-.4166.235-.567.1504-.1503.3545-.2348.5672-.2348h29.4149c.2128 0 .4168.0845.5673.2348.1504.1504.2349.3544.2349.567 0 .2127-.0845.4166-.2349.567-.1505.1503-.3545.2348-.5673.2348zM60.6201 74.6969H43.7734c-.2127 0-.4168-.0845-.5672-.2349-.1505-.1503-.235-.3543-.235-.5669 0-.2127.0845-.4166.235-.567.1504-.1504.3545-.2348.5672-.2348h16.8467c.2128 0 .4168.0844.5673.2348.1504.1504.235.3543.235.567 0 .2126-.0846.4166-.235.5669-.1505.1504-.3545.2349-.5673.2349z" fill="#111"/><path d="M119.062 48H36.0186v11h83.0434V48z" fill="#E72E80"/><defs><linearGradient id="paint0_linear_7_5582" x1="60.0311" y1="6" x2="60.0311" y2="96" gradientUnits="userSpaceOnUse"><stop stop-color="#E72E80" stop-opacity=".5"/><stop offset="1" stop-color="#E72E80"/></linearGradient></defs></svg>