<svg width="38" height="50" viewBox="0 0 38 50" fill="none" xmlns="http://www.w3.org/2000/svg"><path d="M16.9193 19.5173c-.3483-1.0313-1.8238-1.0313-2.1721 0l-2.0423 6.0531c-.4495 1.3307-1.2069 2.5397-2.2121 3.5312-1.00525.9916-2.23065 1.7384-3.57912 2.1814L.783667 33.2986c-1.044888.3437-1.044888 1.8 0 2.1437L6.91684 37.458c1.34823.4436 2.57322 1.1911 3.57786 2.1832 1.0047.9921 1.7614 2.2016 2.2102 3.5324l2.0423 6.0501c.0751.2258.2205.4224.4155.5618.195.1394.4297.2145.6705.2145.2408 0 .4755-.0751.6705-.2145s.3405-.336.4156-.5618l2.0422-6.0532c.4493-1.3303 1.2062-2.5391 2.2108-3.5306 1.0046-.9915 2.2294-1.7386 3.5773-2.1819l6.1332-2.0157c.2288-.0741.428-.2176.5693-.4101.1412-.1925.2173-.4241.2173-.6617 0-.2377-.0761-.4693-.2173-.6618-.1413-.1925-.3405-.336-.5693-.4101l-6.1332-2.0156c-1.3479-.4434-2.5727-1.1904-3.5773-2.182-1.0046-.9915-1.7615-2.2003-2.2108-3.5306l-2.0422-6.0531zM29.1508 3.58284c-.0454-.13533-.1329-.2531-.25-.33657-.1171-.08347-.2578-.1284-.4023-.1284-.1444 0-.2852.04493-.4023.1284-.1171.08347-.2045.20124-.2499.33657L26.6209 7.2141c-.5478 1.61876-1.8333 2.8875-3.4735 3.4281l-3.6792 1.2094c-.1372.0448-.2565.1312-.3411.2467-.0845.1156-.13.2545-.13.3971 0 .1425.0455.2815.13.397.0846.1156.2039.2019.3411.2467l3.6792 1.2094c.809.266 1.544.7143 2.1469 1.3093.6029.595 1.0571 1.3205 1.3266 2.1188l1.2254 3.6313c.0454.1353.1328.2531.2499.3366.1171.0834.2579.1284.4023.1284.1445 0 .2852-.045.4023-.1284.1171-.0835.2046-.2013.25-.3366l1.2254-3.6313c.2695-.7983.7237-1.5238 1.3266-2.1188.6029-.595 1.3379-1.0433 2.1468-1.3093l3.6793-1.2094c.1371-.0448.2564-.1311.341-.2467.0846-.1155.1301-.2545.1301-.397 0-.1426-.0455-.2815-.1301-.3971-.0846-.1155-.2039-.2019-.341-.2467l-3.6793-1.2094c-.8089-.2659-1.5439-.71422-2.1468-1.30926-.6029-.59503-1.0571-1.32048-1.3266-2.11884l-1.2254-3.63126zM6.76803.304697C6.73677.215716 6.6782.138559 6.60045.0839511 6.52271.0293436 6.42966 0 6.33424 0s-.18847.0293436-.26622.0839511C5.99028.138559 5.93171.215716 5.90045.304697L5.08354 2.72346c-.36413 1.08125-1.2222 1.92813-2.31775 2.28751l-2.450739.80625c-.090157.03085-.168336.08866-.223665.16539-.0553294.07672-.08506036.16856-.08506036.26274 0 .09417.02973096.18601.08506036.26274.055329.07673.133508.13454.223665.16538l2.450739.80626c.53989.17726 1.03048.4763 1.43282.87338.40233.39709.70532.88128.88493 1.41413l.81691 2.41876c.03126.089.08983.1661.16757.2207.07775.0547.1708.084.26622.084s.18847-.0293.26621-.084c.07775-.0546.13632-.1317.16758-.2207l.81691-2.41876c.1796-.53285.4826-1.01704.88493-1.41413.40233-.39708.89292-.69612 1.43282-.87338l2.44761-.80626c.0901-.03084.1683-.08865.2236-.16538.0554-.07673.0851-.16857.0851-.26274 0-.09418-.0297-.18602-.0851-.26274-.0553-.07673-.1335-.13454-.2236-.16539l-2.45078-.80625C8.80398 4.65159 7.9459 3.80471 7.58177 2.72346L6.76803.307822V.304697z" fill="#E72E80"/></svg>