<svg width="90" height="90" viewBox="0 0 90 90" fill="none" xmlns="http://www.w3.org/2000/svg"><circle opacity=".1" cx="45" cy="45" r="45" fill="url(#paint0_linear_7_5581)"/><path d="M65.7358 83.7172c-.0012 1.0679-.4276 2.0917-1.1858 2.8468-.7582.7551-1.7862 1.1799-2.8585 1.1811H20.3079c-1.0721-.0014-2.1-.4262-2.8581-1.1813-.758-.7551-1.1845-1.7788-1.1856-2.8466V6.28224c.0011-1.06774.4276-2.09141 1.1857-2.84642s1.7859-1.17969 2.858-1.18089h41.3836c1.0722.0012 2.1001.42586 2.8583 1.18086.7581.75499 1.1847 1.77865 1.186 2.84645V34.4971H68V6.28224c-.002-1.66566-.6672-3.26253-1.8499-4.44027C64.9674.664221 63.364.00179038 61.6915 0H20.3079c-1.6724.00179065-3.2758.66424-4.4584 1.842C14.667 3.01976 14.0018 4.61663 14 6.28224V83.7172c.0018 1.6657.6669 3.2626 1.8495 4.4404 1.1826 1.1779 2.786 1.8405 4.4584 1.8424h41.3836c1.6726-.0018 3.2761-.6643 4.4588-1.8422C67.333 86.98 67.9982 85.383 68 83.7172V68.5218h-2.2642v15.1954z" fill="#111"/><path d="M22 11.5h37.5V28h-20l-3 3v30l1.5 3 3 1.5h18.5v9H22v-63z" fill="#fff"/><path d="M48.1378 4.96533H33.2412v2.48276h14.8966V4.96533zM45.6556 81.9309c0-.9821-.2912-1.9422-.8368-2.7587-.5456-.8166-1.3211-1.4531-2.2285-1.8289-.9073-.3758-1.9057-.4741-2.8689-.2826-.9632.1916-1.848.6646-2.5424 1.359-.6945.6944-1.1674 1.5792-1.359 2.5424-.1916.9632-.0932 1.9616.2826 2.869.3758.9073 1.0123 1.6828 1.8288 2.2284.8166.5457 1.7766.8369 2.7587.8369 1.3165-.0015 2.5786-.5252 3.5095-1.4561.9309-.9308 1.4546-2.193 1.456-3.5094zm-7.6739 0c0-.5357.1588-1.0594.4564-1.5048s.7206-.7925 1.2155-.9975c.495-.205 1.0395-.2587 1.5649-.1542.5254.1045 1.008.3625 1.3868.7413.3788.3788.6367.8614.7412 1.3868.1046.5254.0509 1.0699-.1541 1.5648-.205.4949-.5521.918-.9975 1.2156s-.9691.4564-1.5048.4564c-.7181-.0007-1.4065-.2863-1.9143-.7941-.5078-.5078-.7934-1.1962-.7941-1.9143z" fill="#111"/><path d="M78.6165 36.1905H42.6083c-1.5049 0-2.9071-.4279-3.9499-1.2045-.5546-.4139-.9592-.8976-1.2052-1.4175h20.9417v.925h2.257V11.0469c0-.2959-.1189-.5797-.3305-.789-.2117-.2092-.4987-.32675-.798-.32675H21.9567c-.2993 0-.5864.11755-.798.32675-.2117.2093-.3306.4931-.3306.789v63.5616c0 .2959.1189.5797.3306.789.2116.2092.4987.3268.798.3268h37.5678c.2993 0 .5864-.1176.798-.3268.2117-.2093.3306-.4931.3306-.789l.0118-6.6191-2.2571-.0044-.0096 5.5061h-35.313V12.1626H58.396v14.2652H42.6083c-1.9918 0-3.8771.5875-5.3081 1.6546-1.5235 1.1381-2.3659 2.6778-2.3659 4.3425V59.4535c.0016 1.8149.7239 3.5567 2.0114 4.8504 1.2874 1.2937 3.0372 2.036 4.8726 2.0672h36.7982c1.4639-.0021 2.8672-.5779 3.9023-1.6013s1.6176-2.4108 1.6197-3.858v-19.262c-.0021-1.4473-.5846-2.8347-1.6197-3.858-1.0351-1.0234-2.4384-1.5992-3.9023-1.6013zm-39.9569-6.3268c1.0416-.7765 2.4438-1.2044 3.9498-1.2044h15.7877v2.6777H37.4283c.2427-.5411.6568-1.0443 1.2313-1.4733zm39.9569 34.2759H41.9312c-1.2567-.0013-2.4615-.4955-3.3501-1.374-.8886-.8785-1.3884-2.0697-1.3898-3.3121V36.6836c.0362.0285.0723.0558.1089.0837 1.431 1.0672 3.3163 1.6547 5.3081 1.6547h36.0082c.8656.001 1.6954.3414 2.3075.9465.612.6051.9564 1.4255.9574 2.2813v3.5781h-9.131c-1.2294.0014-2.4081.4848-3.2775 1.3443-.8693.8595-1.3583 2.0248-1.3596 3.2403v2.8808c.0014 1.2154.4905 2.3807 1.3598 3.2401.8693.8595 2.0479 1.343 3.2773 1.3444h9.131v3.634c-.001.8557-.3454 1.6761-.9574 2.2813-.6121.6051-1.4419.9455-2.3075.9465zm3.2649-9.0932h-9.131c-.631-.0008-1.2359-.2489-1.6821-.69-.4462-.4412-.6972-1.0393-.698-1.6631v-2.8808c.0008-.6239.2518-1.222.698-1.6631.4462-.4411 1.0511-.6893 1.6821-.69h9.131v7.587z" fill="#E72E80"/><path d="M78.6165 36.1905H42.6083c-1.5049 0-2.9071-.4279-3.9499-1.2045-.5546-.4139-.9592-.8976-1.2052-1.4175h20.9417v.925h2.257V11.0469c0-.2959-.1189-.5797-.3305-.789-.2117-.2092-.4987-.32675-.798-.32675H21.9567c-.2993 0-.5864.11755-.798.32675-.2117.2093-.3306.4931-.3306.789v63.5616c0 .2959.1189.5797.3306.789.2116.2092.4987.3268.798.3268h37.5678c.2993 0 .5864-.1176.798-.3268.2117-.2093.3306-.4931.3306-.789l.0118-6.6191-2.2571-.0044-.0096 5.5061h-35.313V12.1626H58.396v14.2652H42.6083c-1.9918 0-3.8771.5875-5.3081 1.6546-1.5235 1.1381-2.3659 2.6778-2.3659 4.3425V59.4535c.0016 1.8149.7239 3.5567 2.0114 4.8504 1.2874 1.2937 3.0372 2.036 4.8726 2.0672h36.7982c1.4639-.0021 2.8672-.5779 3.9023-1.6013s1.6176-2.4108 1.6197-3.858v-19.262c-.0021-1.4473-.5846-2.8347-1.6197-3.858-1.0351-1.0234-2.4384-1.5992-3.9023-1.6013zm-39.9569-6.3268c1.0416-.7765 2.4438-1.2044 3.9498-1.2044h15.7877v2.6777H37.4283c.2427-.5411.6568-1.0443 1.2313-1.4733zm43.2218 25.1827h-9.131c-.631-.0008-1.2359-.2489-1.6821-.69-.4462-.4412-.6972-1.0393-.698-1.6631v-2.8808c.0008-.6239.2518-1.222.698-1.6631.4462-.4411 1.0511-.6893 1.6821-.69h9.131v7.587z" fill="#E72E80"/><path d="M71.7246 51.5175c0 .6138.182 1.2138.523 1.7242s.8257.9081 1.3928 1.143 1.1911.2964 1.7931.1766c.602-.1197 1.155-.4153 1.589-.8493.4341-.434.7296-.987.8494-1.589.1197-.602.0583-1.226-.1766-1.7931-.2349-.5671-.6327-1.0518-1.1431-1.3928-.5103-.341-1.1103-.523-1.7241-.523-.8229.0008-1.6117.3281-2.1936.9099-.5818.5818-.909 1.3707-.9099 2.1935zm3.1035-.9256c.183 0 .362.0543.5142.156s.2708.2463.3409.4154.0884.3552.0527.5348c-.0358.1795-.1239.3445-.2534.4739-.1294.1294-.2943.2176-.4739.2533-.1795.0357-.3656.0174-.5348-.0527-.1691-.07-.3136-.1887-.4153-.3409-.1017-.1522-.156-.3311-.156-.5142 0-.2455.0975-.4809.2711-.6545.1736-.1736.409-.2711.6545-.2711z" fill="#E72E80"/><defs><linearGradient id="paint0_linear_7_5581" x1="45" y1="0" x2="45" y2="90" gradientUnits="userSpaceOnUse"><stop stop-color="#E72E80" stop-opacity=".5"/><stop offset="1" stop-color="#E72E80"/></linearGradient></defs></svg>