<svg width="93" height="90" viewBox="0 0 93 90" fill="none" xmlns="http://www.w3.org/2000/svg"><ellipse opacity=".1" cx="47.7782" cy="45" rx="44.7894" ry="45" fill="url(#paint0_linear_7_5578)"/><path d="M12.6058 23.1047l12.257-7.1099c1.2352-.7165 2.7591-.7157 3.9965.0021l12.2394 7.0997c1.2374.7177 2 2.0432 2 3.4763v15.2197c0 1.4287-.758 2.7477-1.9894 3.4621l-12.2571 7.1098c-1.2352.7165-2.759.7158-3.9964-.002l-12.2395-7.0997c-1.2374-.7178-2-2.0433-2-3.4763V26.5668c0-1.4287.758-2.7478 1.9895-3.4621z" fill="#fff" stroke="#111" stroke-width="2"/><g clip-path="url(#clip0_7_5578)"><path d="M34.9423 33.4948c-1.1104-.4474-2.2172-.6068-3.3206-.5894-3.5029.0551-6.9775 1.892-10.4803 1.9473-.8785.0139-1.7582-.0842-2.6411-.3503-.0991-.0299-.1983-.0432-.295-.0417-.4895.0078-.9112.3951-.9029.9234l.1419 9.065c.0056.3609.2166.6996.549.8333 1.1104.4477 2.2172.6071 3.3206.5897 3.5028-.0554 6.9778-1.8923 10.4806-1.9476.8785-.0139 1.7581.0842 2.641.3504.0992.0298.1984.0431.2951.0416.4894-.0077.9112-.3951.9029-.9234l-.142-9.0647c-.0059-.3611-.2169-.6996-.5492-.8336zm-8.4316 8.6369c-1.2567.0199-2.2943-1.1923-2.318-2.707-.0238-1.5149.9757-2.7591 2.2321-2.7789 1.2565-.0199 2.2944 1.1921 2.3181 2.707.0237 1.5152-.976 2.7591-2.2322 2.7789z" fill="#E72E80"/></g><path d="M34.4703 72.0625c-.5197 0-1.0181.2074-1.3856.5766-.3675.3692-.574.87-.574 1.3921 0 .5222.2065 1.023.574 1.3922.3675.3692.8659.5766 1.3856.5766h50.9482c.5197 0 1.0181-.2074 1.3856-.5766.3674-.3692.5739-.87.5739-1.3922 0-.5221-.2065-1.0229-.5739-1.3921-.3675-.3692-.8659-.5766-1.3856-.5766h-5.8787v-49.219c0-1.5664-.6193-3.0687-1.7218-4.1764-1.1025-1.1076-2.5977-1.7299-4.1568-1.7299h-1.9596v-1.9687c0-.2818-.0603-.5604-.1767-.8167-.1164-.2564-.2862-.4847-.498-.6695-.2117-.1848-.4605-.3217-.7295-.4016-.269-.0799-.5519-.1008-.8296-.0613l-27.4337 3.9375c-.4674.0664-.8953.3002-1.205.6583-.3096.3581-.4801.8164-.4802 1.2908v53.1565h-5.8786zm37.2313-51.1878h1.9596c.5197 0 1.0181.2075 1.3856.5767.3675.3692.5739.87.5739 1.3921v49.219h-3.9191V20.8747zm-9.7977 31.5002c-1.0817 0-1.9595-1.764-1.9595-3.9375 0-2.1735.8778-3.9375 1.9595-3.9375s1.9596 1.764 1.9596 3.9375c0 2.1735-.8779 3.9375-1.9596 3.9375z" fill="#E72E80"/><path d="M18.7242 32.8699l-1.2976-8.5526 4.0096-.6141c.0923-.0141.2161-.029.3711-.0447.1589-.0202.3014-.0299.4275-.029.5792-.0076 1.0685.0896 1.4681.2918.4039.2015.7214.4851.9523.8508.2304.3618.3819.7822.4546 1.2613.1087.7167.004 1.3607-.3142 1.9321-.3188.5674-.8912.9752-1.7173 1.2232l-.7842.1688-2.2158.3393.4397 2.8984-1.7938.2747zm5.355-.8201l-2.401-3.1936 1.7979-.6035 2.6343 3.486-2.0312.3111zm-4.2298-3.8616l2.1367-.3272c.0923-.0142.1928-.0336.3015-.0584.1087-.0247.2075-.056.2962-.0939.2328-.0965.4046-.2241.5155-.3828.1102-.1628.1766-.333.1992-.5107.0263-.1823.0277-.3506.0043-.505-.0234-.1545-.0744-.3128-.153-.4749-.0748-.1669-.1887-.3095-.3416-.4278-.1535-.1224-.3557-.1947-.6065-.2171-.0959-.0096-.1995-.01-.3106-.0011-.1111.009-.2128.0205-.3051.0346l-2.1367.3273.4001 2.637zM31.1747 31.1454c-.7034.1078-1.3555.0942-1.9563-.0407-.597-.1395-1.1095-.3892-1.5375-.7491-.4242-.3644-.7285-.8283-.9129-1.3916l1.835-.5363c.2064.4708.5364.8072.9899 1.0092.4535.202.9441.2626 1.4717.1818.2945-.0452.574-.1305.8384-.2561.2643-.1255.4721-.283.6233-.4722.1557-.19.2155-.4037.1794-.6413-.0132-.0871-.0412-.1679-.084-.2424-.039-.0791-.0969-.1493-.1736-.2104-.0768-.0612-.1815-.114-.3142-.1585-.1284-.0452-.2888-.0794-.4812-.1026l-2.5656-.2756c-.1918-.0192-.4175-.0535-.6769-.1029-.255-.0501-.5092-.1388-.7624-.2661-.2533-.1274-.4769-.3119-.6711-.5536-.1903-.2464-.3164-.5735-.3783-.9813-.0871-.5741.001-1.0758.2643-1.5051.2632-.4293.6489-.778 1.1571-1.0463.5081-.2682 1.0878-.4502 1.7391-.5459.6563-.0924 1.2563-.081 1.8002.0343.5438.1152 1.0176.3323 1.4214.6513.4032.3151.7223.7281.9573 1.2391l-1.8938.5939c-.1124-.2664-.2776-.4802-.4955-.6413-.2179-.1611-.4662-.2709-.745-.3295-.2744-.0593-.5551-.071-.8421-.0352-.2826.0352-.5431.1116-.7817.2292-.2348.1129-.4202.2547-.5563.4255-.1316.1701-.1821.3561-.1515.558.0282.1861.1151.3288.2606.428.145.0953.3195.1638.5238.2055.2043.0416.4111.0707.6206.0872l1.7099.1514c.2552.0217.5398.0591.8538.1123.3134.0493.6196.1401.9186.2726.3028.1279.5635.3189.782.5731.2229.2535.3671.596.4326 1.0276.0697.4593.0229.8777-.1402 1.2552-.1594.3728-.4022.6997-.7285.9806-.3269.277-.7105.5059-1.1509.6868-.436.1802-.8958.3074-1.3795.3814z" fill="#000"/><defs><linearGradient id="paint0_linear_7_5578" x1="47.7782" y1="0" x2="47.7782" y2="90" gradientUnits="userSpaceOnUse"><stop stop-color="#E72E80" stop-opacity=".5"/><stop offset="1" stop-color="#E72E80"/></linearGradient><clipPath id="clip0_7_5578"><path fill="#fff" transform="matrix(.99887 -.01579 .01567 1.00088 17.2524 32.2178)" d="M0 0h18.2216v14.6164H0z"/></clipPath></defs></svg>