<svg width="30" height="30" viewBox="0 0 30 30" fill="none" xmlns="http://www.w3.org/2000/svg">
<circle cx="15" cy="15" r="15" fill="#FDEAF2"/>
<path d="M14.2801 7.89844L14.2801 17.9341L9.89572 13.5497C9.54532 13.1993 8.97032 13.1993 8.61993 13.5497C8.26953 13.9 8.26953 14.4661 8.61993 14.8165L14.5407 20.7372C14.8911 21.0876 15.4571 21.0876 15.8075 20.7372L21.7372 14.8254C22.0876 14.4751 22.0876 13.909 21.7372 13.5586C21.3868 13.2082 20.8208 13.2082 20.4704 13.5586L16.077 17.9341L16.077 7.89844C16.077 7.4043 15.6727 7 15.1786 7C14.6844 7 14.2801 7.4043 14.2801 7.89844Z" fill="#E72E80"/>
</svg>
