<svg width="160" height="46" viewBox="0 0 160 46" fill="none" xmlns="http://www.w3.org/2000/svg"><rect x="-.999057" y="-1" width="156.96" height="44" rx="9" transform="matrix(1 0 -.00094 1 2.99906 2)" fill="#fff" stroke="#28B35F" stroke-width="2"/><g clip-path="url(#clip0_7_5580)"><path d="M19.2621 20.9762c.5088-3.6601 2.8743-6.001 6.5573-6.1882 2.2099-.1118 4.4652.6923 5.7025 2.7776 1.0872 1.8347 1.2594 5.4832-3.4642 6.4242-4.9155.9827-8.0199-1.39-8.7956-3.0136zm9.2487-2.0242c-.4702-.729-1.3836-1.1173-2.6449-1.0509-2.0459.1051-3.251 1.4508-3.5453 2.7156.5892.6489 3.3146 1.279 5.308.606 1.0232-.3426 1.4274-1.4126.8721-2.2657" fill="#312D3C"/><path d="M30.1243 24.2781c-.7048 1.6385-2.6267 2.6019-4.6966 2.4975-3.2172-.161-5.5957-1.9925-6.468-4.4087-.3434 3.3961 1.6382 6.3505 5.1947 7.1768 3.8514.8883 7.5713-1.0165 8.6396-3.6545l-2.6697-1.6111z" fill="#28B35F"/><path d="M127.193 25.43c-.014 2.5502-2.295 4.6721-6.582 4.6492-3.647-.0194-6.133-2.0281-6.343-4.7183l2.728-1.2871c.212 2.2463 2.2 3.0616 4.051 3.0715 1.683.009 2.864-.6784 2.869-1.6496.014-2.6335-9.029-.3232-8.999-5.9232.012-2.3561 2.322-4.1196 6.137-4.0992 3.816.0203 5.963 1.8355 5.952 3.8863l-2.418 1.261c-.161-1.6078-2.006-2.2281-3.635-2.2368-1.571-.0084-2.638.5131-2.642 1.2623-.011 2.018 8.917.5522 8.889 5.7839h-.007zm-74.4106-6.1341c.004-.7567 1.0736-1.2707 2.6422-1.2623 1.6266.0087 3.4744.6291 3.6348 2.2368l2.4177-1.261c.0109-2.0508-2.1382-3.8659-5.9512-3.8863-3.8131-.0204-6.125 1.7331-6.1377 4.0992-.0299 5.6 9.0136 3.2897 8.9995 5.9232-.0052.9712-1.1841 1.6586-2.8687 1.6496-1.8511-.0099-3.839-.8252-4.0515-3.0715l-2.7255 1.2871c.2101 2.6903 2.6935 4.6989 6.3402 4.7184 4.2872.0229 6.5683-2.099 6.5819-4.6493.028-5.2393-8.9001-3.7608-8.8893-5.7839h.0076zm-8.7186-4.2139l3.3945.0182-.0779 14.5877-3.3869-.0181.0121-2.2702c-.4243.6856-1.0162 1.2519-1.7198 1.6453-.7037.3935-1.496.6012-2.3021.6035-4.0123-.0214-5.8184-3.2575-5.7961-7.4373.0217-4.0688 1.8617-7.1719 5.874-7.1505.7954.0012 1.5778.2013 2.2762.5822.6983.3808 1.2903.9304 1.722 1.5985l.004-2.1593zm-.0787 7.1814c.0133-2.4973-1.1853-4.2443-3.1474-4.2547-2.0477-.011-3.2347 1.7233-3.2481 4.2206-.0138 2.5805 1.1545 4.3551 3.2023 4.366 1.962.0105 3.1794-1.7488 3.1932-4.3319zm28.6966-.8153c-.0102 1.907-.3933 5.1617-3.5582 5.1447-1.2887-.0068-2.3502-.517-2.3345-3.4633l.0423-7.9258-3.407-.0182-.0483 9.0458c-.0189 3.5315 1.6524 5.5585 4.9056 5.5759 2.5219.0135 3.7721-1.279 4.3643-3.0719l-.0031.5701c-.0143 2.6814-.8926 4.7074-3.6739 5.0861-2.1957.301-3.7783-.8653-4.9748-2.5492l-1.8404 2.2605c.9244 1.6244 3.7841 3.0801 6.4976 3.0946.3844.0016.7683-.0276 1.148-.0872 4.1244-.6691 6.2125-3.4833 6.2343-7.5622l.0656-12.2948-3.3919-.0181-.0256 6.213zm36.2073 8.5685l3.399.0182.078-14.5878-3.407-.0182-.07 14.5878zm33.114-14.4112l-.077 14.5877-3.41-.0182.012-2.2703c-.424.686-1.016 1.2525-1.719 1.646-.704.3935-1.497.601-2.303.6029-4.01-.0214-5.816-3.2575-5.793-7.4373.021-4.0688 1.861-7.1719 5.871-7.1505.796.0005 1.578.2003 2.277.5812.698.381 1.29.9309 1.721 1.5995l.012-2.1592 3.409.0182zm-3.488 7.1632c.014-2.4973-1.183-4.2443-3.145-4.2548-2.047-.0109-3.237 1.7233-3.25 4.2206-.014 2.5805 1.157 4.3551 3.205 4.3661 1.962.0105 3.176-1.7489 3.19-4.3319zm-35.343-7.3707l3.394.0181-.078 14.5878-3.399-.0182.012-2.2703c-.424.686-1.016 1.2525-1.72 1.646-.703.3935-1.4959.601-2.3021.6029-4.0098-.0214-5.8159-3.2575-5.7936-7.4373.0217-4.0689 1.8617-7.1719 5.8715-7.1505.7955.0005 1.5782.2003 2.2762.5812.699.381 1.291.9309 1.722 1.5995l.017-2.1592zm-.094 7.1813c.013-2.4973-1.183-4.2443-3.1451-4.2548-2.0477-.0109-3.2373 1.7233-3.2506 4.2206-.0138 2.5806 1.157 4.3552 3.2048 4.3661 1.9619.0105 3.1769-1.7488 3.1909-4.3319zm-11.244.177c-.0218 4.0689-1.8592 7.1719-5.8715 7.1505-.7955-.0004-1.5782-.2003-2.2767-.5812-.6984-.3809-1.2903-.9309-1.7216-1.5995l-.0403 7.5474-3.3994-.0182.1067-19.9885 3.3945.0182-.0123 2.2854c.424-.686 1.0158-1.2525 1.7195-1.646.7038-.3935 1.4962-.601 2.3025-.6029 4.0123.0215 5.8158 3.2575 5.7935 7.4373l.0051-.0025zm-3.397-.0156c.0138-2.5805-1.1545-4.3526-3.2023-4.3635-1.9645-.0105-3.1794 1.7488-3.1932 4.3293-.0133 2.4973 1.1828 4.2418 3.1474 4.2523 2.0477.0109 3.2347-1.7208 3.2481-4.2181z" fill="#312D3C"/><path d="M108.476 11.6675c-.001-.4301.126-.8508.364-1.2088.239-.3581.578-.63732.975-.80247.397-.16514.834-.20876 1.256-.12533.422.08342.81.29014 1.114.594.305.3039.512.6912.596 1.113.085.4218.042.8592-.122 1.2568-.165.3975-.443.7374-.801.9766-.357.2392-.777.367-1.207.3672-.575-.0037-1.126-.2334-1.533-.6397-.407-.4062-.637-.9562-.642-1.5313" fill="#28B35F"/></g><defs><clipPath id="clip0_7_5580"><path fill="#fff" transform="matrix(.99999 .00534 -.00534 .99999 18.9956 9)" d="M0 0h123.037v25.9344H0z"/></clipPath></defs></svg>