<svg width="127" height="149" viewBox="0 0 127 149" fill="none" xmlns="http://www.w3.org/2000/svg"><circle opacity=".1" cx="63" cy="76" r="60" fill="url(#paint0_linear_7_5590)"/><path d="M31.6271 95.9052s-18.3326-27.2037-16.98-66.6481c0 0 23.7182 13.9752 24.5629 65.3856l-7.5829 1.2625z" fill="#E72E80"/><path d="M34.4633 92.6596l-.0197.0033c-.0988.0105-.1978-.0183-.2754-.0803-.0777-.062-.1278-.1522-.1394-.2508C31.9222 73.335 16.7484 34.573 16.5969 34.1955c-.026-.089-.0181-.1844.0221-.2679.0403-.0835.11-.1491.1958-.1842.0858-.035.1815-.037.2687-.0057.0872.0314.1597.094.2035.1757.1535.3898 15.3634 39.232 17.4832 58.338.0094.0941-.017.1883-.0739.2639-.0568.0756-.14.1271-.233.1443z" fill="#fff"/><path d="M37.1712 45.7958s-12.0999 34.1447.557 45.9395l5.5671-.9269s7.0627-26.2929-6.1241-45.0126z" fill="#FF97C5"/><path d="M40.5327 92.4985c-.0955.016-.1935-.0056-.2735-.0603-.0799-.0547-.1355-.1382-.1553-.233-2.6412-12.8216-3.3014-46.0701-3.3087-46.4032-.001-.0498.0079-.0992.026-.1455.0182-.0463.0453-.0886.0797-.1245.0345-.0358.0757-.0645.1213-.0844.0456-.02.0946-.0307.1444-.0317.0497-.0009.0991.0079.1454.026.0464.0182.0886.0453.1245.0798.0358.0344.0645.0756.0845.1212.0199.0456.0306.0947.0316.1444.0024.3339.6527 33.5233 3.2841 46.2553.0101.0483.0105.098.0013.1464-.0091.0484-.0278.0945-.0548.1357-.027.0412-.0619.0767-.1026.1044-.0407.0277-.0865.0471-.1348.0571l-.0131.0123z" fill="#fff"/><path d="M6.07324 62.9492S21.6528 65.5246 31.9451 94.4088l-5.7963.9651S11.3262 81.0371 6.07324 62.9492z" fill="#FF88BD"/><path d="M28.6986 94.4697c-.0871.0144-.1766-.0025-.2523-.0479-.0758-.0454-.1329-.1162-.1613-.1999-4.4044-12.9003-16.1249-24.6686-16.2419-24.7935-.0384-.0338-.0695-.075-.0913-.1213-.0219-.0462-.034-.0964-.0358-.1474-.0017-.0511.0071-.102.0257-.1496.0187-.0476.0469-.0908.0829-.1271.036-.0363.0791-.0648.1265-.0838.0474-.0191.0983-.0282.1494-.0268.0511.0013.1013.0131.1477.0346s.0879.0523.1219.0904c.1212.1191 11.9648 12.0189 16.4243 25.0823.0317.0942.0248.197-.0193.286-.044.0891-.1216.157-.2157.1888l-.0608.0152z" fill="#fff"/><path d="M106.593 95.2705c7.049-4.1263 15.794-19.2984 7.702-31.8712-6.19-9.5862-4.947-11.8444-5.103-19.3032-.155-7.4588-1.475-19.6976-10.6053-24.0445-9.1305-4.3469-17.8274 9.2022-24.3644 22.9781-6.5371 13.7758-18.3549 18.1819-12.6416 35.1889 3.9849 11.9188 22.7988 30.0464 45.0123 17.0519z" fill="#FF97C5"/><rect x="27" y="1" width="73" height="142" rx="4" fill="#fff" stroke="#E72E80" stroke-width="2"/><path fill="#E72E80" d="M27 52h72v2H27z"/><rect x="30" y="4" width="67" height="46" rx="1" fill="#E72E80"/><rect x="30" y="56" width="67" height="83" rx="1" fill="#FDF1F6"/><rect x="90.0039" y="30" width="2" height="15" rx="1" fill="#fff"/><mask id="a" fill="#fff"><path fill-rule="evenodd" clip-rule="evenodd" d="M50.7139 11c-2.7615 0-5 2.2386-5 5v2.5713c0 .5523-.4477 1-1 1H40c-2.7614 0-5 2.2386-5 5v12.5c0 2.7614 2.2386 5 5 5h12.5c2.7614 0 5-2.2386 5-5v-5.7856c0-.5523.4477-1 1-1h1.4996c2.7614 0 5-2.2386 5-5V16c0-2.7614-2.2386-5-5-5h-9.2857z"/></mask><path fill-rule="evenodd" clip-rule="evenodd" d="M50.7139 11c-2.7615 0-5 2.2386-5 5v2.5713c0 .5523-.4477 1-1 1H40c-2.7614 0-5 2.2386-5 5v12.5c0 2.7614 2.2386 5 5 5h12.5c2.7614 0 5-2.2386 5-5v-5.7856c0-.5523.4477-1 1-1h1.4996c2.7614 0 5-2.2386 5-5V16c0-2.7614-2.2386-5-5-5h-9.2857z" fill="#fff"/><path d="M47.7139 16c0-1.6569 1.3431-3 3-3V9c-3.866 0-7 3.134-7 7h4zm0 2.5713V16h-4v2.5713h4zm-7.7139 3h4.7139v-4H40v4zm-3 3c0-1.6569 1.3431-3 3-3v-4c-3.866 0-7 3.134-7 7h4zm0 12.5v-12.5h-4v12.5h4zm3 3c-1.6569 0-3-1.3432-3-3h-4c0 3.866 3.134 7 7 7v-4zm12.5 0H40v4h12.5v-4zm3-3c0 1.6568-1.3431 3-3 3v4c3.866 0 7-3.134 7-7h-4zm0-5.7856v5.7856h4v-5.7856h-4zm4.4996-3H58.5v4h1.4996v-4zm3-3c0 1.6569-1.3432 3-3 3v4c3.866 0 7-3.134 7-7h-4zm0-9.2857v9.2857h4V16h-4zm-3-3c1.6568 0 3 1.3431 3 3h4c0-3.866-3.134-7-7-7v4zm-9.2857 0h9.2857V9h-9.2857v4zM59.5 31.2857c0 .5523-.4477 1-1 1v-4c-1.6569 0-3 1.3432-3 3h4zM43.7139 18.5713c0-.5523.4477-1 1-1v4c1.6568 0 3-1.3432 3-3h-4z" fill="#E72E80" mask="url(#a)"/><rect x="43" y="66" width="83" height="58" rx="4" fill="#fff" stroke="#E72E80" stroke-width="2"/><path d="M71.3333 139h25.3334c3.4973 0 6.3333 2.836 6.3333 6.333 0 1.473-1.194 2.667-2.667 2.667H67.6667C66.1939 148 65 146.806 65 145.333c0-3.497 2.8355-6.333 6.3333-6.333z" fill="#fff" stroke="#E72E80" stroke-width="2"/><path d="M44 113h81v7c0 1.657-1.343 3-3 3H47c-1.6569 0-3-1.343-3-3v-7z" fill="#FDF1F6"/><path d="M77 125h15v13H77v-13z" fill="#FF97C5"/><path fill="#E72E80" d="M43 111h83v2H43zM77 125h2v13h-2zM90 125h2v13h-2z"/><rect x="1" y="90" width="34" height="58" rx="4" fill="#fff" stroke="#E72E80" stroke-width="2"/><rect x="25" y="142" width="2" height="15" rx="1" transform="rotate(90 25 142)" fill="#E72E80"/><rect x="5" y="94" width="26" height="45" rx="2" fill="#FF97C5"/><defs><linearGradient id="paint0_linear_7_5590" x1="63" y1="16" x2="63" y2="136" gradientUnits="userSpaceOnUse"><stop stop-color="#E72E80" stop-opacity=".5"/><stop offset="1" stop-color="#E72E80"/></linearGradient></defs></svg>