<svg width="926" height="999" viewBox="0 0 926 999" fill="none" xmlns="http://www.w3.org/2000/svg">
<g opacity="0.8" filter="url(#filter0_f_10_10084)">
<path d="M625.942 653C597.41 676.509 562.897 691.611 526.268 696.615C489.639 701.619 452.34 696.327 418.548 681.333C384.757 666.339 355.806 642.234 334.938 611.718C314.07 581.201 302.109 545.478 300.395 508.549C298.681 471.619 307.28 434.942 325.231 402.623C343.181 370.305 369.774 343.621 402.032 325.561C434.289 307.5 470.937 298.776 507.872 300.365C544.807 301.954 580.571 313.793 611.158 334.557L548.98 426.151C535.397 416.931 519.516 411.673 503.114 410.968C486.713 410.262 470.439 414.136 456.114 422.156C441.79 430.176 429.981 442.026 422.01 456.377C414.039 470.729 410.22 487.016 410.981 503.415C411.742 519.814 417.054 535.677 426.32 549.228C435.587 562.78 448.443 573.484 463.449 580.142C478.455 586.801 495.018 589.15 511.283 586.928C527.549 584.706 542.875 578 555.545 567.561L625.942 653Z" fill="#E72E80"/>
</g>
<defs>
<filter id="filter0_f_10_10084" x="0.180664" y="0.180664" width="925.761" height="998.267" filterUnits="userSpaceOnUse" color-interpolation-filters="sRGB">
<feFlood flood-opacity="0" result="BackgroundImageFix"/>
<feBlend mode="normal" in="SourceGraphic" in2="BackgroundImageFix" result="shape"/>
<feGaussianBlur stdDeviation="150" result="effect1_foregroundBlur_10_10084"/>
</filter>
</defs>
</svg>
