<svg width="182" height="167" viewBox="0 0 182 167" fill="none" xmlns="http://www.w3.org/2000/svg"><path d="M66.6679 14.439c-1.0211.6026-1.9027 1.4117-2.8717 2.0924-8.1799 5.7471-39.1921 26.5075-35.4909 72.6779 5.2487 65.4837 32.223 64.4287 72.5027 64.4287 40.281 0 70.249 5.681 78.647-28.049 8.535-34.2799-6.91-36.0096-9.595-75.1142-2.686-39.1046-24.598-53.66029-56.776-49.90327C92.915 2.92804 81.0004 5.98387 66.6679 14.439z" fill="#FDEEF4"/><path d="M105.728 167C127.936 154.894 143 131.377 143 104.346c0-39.4035-32.011-71.3462-71.5-71.3462-39.4886 0-71.5 31.9427-71.5 71.3462C0 131.377 15.065 154.894 37.2719 167h68.4561z" fill="#FDEEF4"/><path d="M84.744 164h57.511C162.873 153.607 177 132.39 177 107.903c0-34.7403-28.43-62.9032-63.501-62.9032C78.4293 44.9998 50 73.1627 50 107.903 50 132.39 64.1254 153.607 84.744 164z" fill="#F5E4EC"/><path d="M131.237 158.489l-6.115-9.612s9.147 8.083 9.147 7.931c0-.151 6.963-15.561 6.963-15.561s-3.527 14.449-3.425 16.571c0 0 3.529-3.212 5.202-3.475 1.671-.263-2.296 3.017-2.292 4.941h-9.115l-.365-.795z" fill="#F397BF"/><path d="M89.0772 167c43.1858 0 78.1948-2.153 78.1948-4.808 0-2.656-35.009-4.809-78.1948-4.809-43.1859 0-78.195 2.153-78.195 4.809 0 2.655 35.0091 4.808 78.195 4.808z" fill="#FFE4F0"/><path d="M175.351 82.2148v77.1302c0 .094-.005.188-.008.287 0 .045-.005.09-.008.135 0 .04-.005.085-.009.13 0 .018-.005.035-.005.053-.005.032-.008.058-.013.085-.005.066-.018.135-.027.201-.008.064-.021.13-.035.192-.005.032-.013.063-.021.093 0 .022-.005.05-.014.072-.005.031-.013.063-.021.093-.014.058-.032.117-.045.17 0 .008-.005.022-.009.032-.031.098-.058.196-.093.289 0 .005 0 .009-.005.014-.018.048-.035.098-.053.143-.019.045-.035.085-.05.125-.005.013-.014.027-.014.035-.053.12-.106.246-.169.361-.019.035-.04.08-.064.12-.021.04-.045.077-.066.117-.022.035-.04.076-.067.111-.045.077-.093.152-.143.224-.032.05-.064.09-.09.134-.077.099-.147.197-.229.29-.058.072-.116.139-.175.202-.058.066-.12.13-.183.191-.026.032-.058.059-.09.09-.026.027-.053.054-.085.077-.031.032-.066.063-.103.093-.008.009-.022.018-.032.027-.085.076-.175.146-.263.215-.008.005-.018.013-.027.021-.071.049-.143.104-.218.152-.027.018-.048.037-.072.048-.04.027-.079.054-.119.077-.032.021-.064.04-.099.058-.035.022-.071.045-.106.063-.25.144-.514.264-.787.362-.018.005-.031.013-.05.018-.018.005-.04.013-.058.018-.063.022-.125.045-.192.064-.111.035-.223.063-.335.09-.058.013-.116.026-.175.04-.035.008-.076.013-.111.018-.045.008-.093.018-.138.027-.009 0-.014 0-.019.005-.036.005-.071.008-.111.013-.019 0-.035.005-.054.005-.031.005-.066.008-.098.013-.018 0-.035.005-.058.005-.067.005-.139.009-.205.014-.099.005-.197.008-.295.008H33.5198c-.0983 0-.1966-.005-.2949-.008-.0666-.005-.1382-.009-.2049-.014-.0766-.005-.1516-.013-.2282-.026-.045-.005-.09-.009-.13-.019-.1066-.013-.2149-.036-.3166-.058-.0316-.005-.0583-.013-.0899-.022-.1117-.026-.2233-.053-.3349-.09-.0667-.021-.13-.04-.1916-.063-.2999-.103-.5898-.233-.8664-.38-.0666-.04-.1333-.08-.2016-.12-.0766-.044-.1516-.093-.2233-.143-.4432-.3-.8364-.656-1.1762-1.067-.08-.094-.1567-.192-.2283-.295-.2466-.34-.4515-.706-.6131-1.099-.035-.09-.0717-.189-.1067-.282-.0366-.093-.0633-.191-.0933-.29-.0266-.098-.0533-.196-.0766-.295-.0217-.093-.04-.183-.0583-.276-.005-.013-.005-.032-.0084-.045-.0133-.09-.0266-.183-.0349-.273-.005-.005-.005-.013-.005-.022-.0084-.071-.0134-.138-.0184-.21-.0133-.138-.0183-.276-.0183-.419V82.2148c0-.6612.1166-1.2958.3299-1.8854.3399-.9344.9247-1.7522 1.6811-2.3735.0083-.0083.0217-.0183.0367-.0266l.2865-.2182c.8981-.6396 1.9977-1.0143 3.1873-1.0143H169.833c.135 0 .263.005.393.0183.022-.005.049 0 .072.005.125.0083.255.0216.375.04.027.005.058.0083.085.0133.106.0183.215.04.316.0666.027.005.054.0083.08.0183.13.0317.255.0667.38.1066.117.0367.237.08.348.1249.162.0633.317.1383.47.2199.085.04.17.085.25.1333.144.0799.282.1698.412.2681.005-.005.005 0 .005 0l.286.2182c.014.0083.027.0183.035.0266.077.0583.144.12.21.1833.054.0449.104.0932.152.1432.151.1466.295.3031.43.473.063.0766.12.1516.175.2282.231.3165.43.6612.584 1.0276.045.0983.085.2016.125.3032 0 .005.005.0083.005.0133.064.1649.112.3348.157.5047.022.0849.04.1649.058.2498.014.0666.027.1299.037.1965.013.0667.022.1333.032.2016.013.0799.021.1615.026.2415.009.0666.014.1382.014.2048.001.095.006.1932.006.2882z" fill="#DFE5EA"/><path d="M180 73H16c.38-1.047 1.0338-1.9634 1.8795-2.6595.0093-.0094.0242-.0206.0409-.0299l.3204-.2445 75.9798-57.7895c2.2334-1.7021 5.3273-1.7021 7.5604 0l75.976 57.7895c.006-.0056.006 0 .006 0l.32.2445c.015.0093.03.0205.039.0299.086.0653.161.1343.235.2053.06.0504.116.1045.17.1605.169.1642.329.3396.48.53.071.0859.134.1698.196.2557.259.3546.48.7409.654 1.1515.05.1101.095.2259.139.3397-.002.0056.004.0112.004.0168z" fill="#F397BF"/><path d="M169 163H26V31.2119c0-6.1912 4.9415-11.2121 11.0388-11.2121H157.961c6.096 0 11.039 5.0191 11.039 11.2121V163z" fill="#fff"/><path d="M106.4 45.9998H43.5996c-.8799 0-1.5996-1.2989-1.5996-2.8868v-1.2265c0-1.5879.7197-2.8867 1.5996-2.8867H106.4c.88 0 1.6 1.2988 1.6 2.8867v1.2265c0 1.5879-.72 2.8868-1.6 2.8868zM147.797 75.1444H53.7346c-1.3179 0-2.3959-1.0776-2.3959-2.395v-1.0177c0-1.3174 1.078-2.395 2.3959-2.395h94.0624c1.318 0 2.396 1.0776 2.396 2.395v1.0177c0 1.3174-1.078 2.395-2.396 2.395zM149.334 87.9995H44.666c-1.4665 0-2.666-1.2988-2.666-2.8867v-1.2266c0-1.5879 1.1995-2.8867 2.666-2.8867h104.668c1.466 0 2.666 1.2988 2.666 2.8867v1.2266c0 1.5879-1.2 2.8867-2.666 2.8867zM148.334 100.999H43.666c-1.4665 0-2.666-1.113-2.666-2.4741v-1.0513c0-1.3611 1.1995-2.4743 2.666-2.4743h104.668c1.466 0 2.666 1.1132 2.666 2.4743v1.0513c0 1.3611-1.2 2.4741-2.666 2.4741z" fill="#FFE4F0"/><path d="M97.9886 120.298v.005c-.2392.258-.5229.497-.8455.697l-74.6649 46h-.3374c-.6211 0-1.2181-.089-1.7799-.263-.0798-.024-.1595-.05-.2337-.074-.9789-.337-1.8503-.919-2.5308-1.674-.0649-.07-.1298-.144-.1947-.224-.1891-.224-.3578-.467-.5117-.72-.0538-.085-.1002-.169-.1502-.254-.0445-.089-.0946-.179-.1335-.268-.3875-.806-.6063-1.704-.6063-2.657V75.133c0-.735.1298-1.4404.3671-2.0957.3783-1.0386 1.029-1.9476 1.8708-2.6382.0093-.0092.0241-.0203.0408-.0296l.3189-.2425c.9994-.7109 2.2231-1.1275 3.5469-1.1275h1.4017l6.5561 4.0378 60.4346 37.2337 2.2732 1.4 4.3367 2.671c.3226.198.6063.437.8455.696v.006c1.3442 1.475 1.3442 3.784-.0037 5.254z" fill="#F397BF"/><path d="M180 75.1293v85.7327c0 .104-.006.21-.009.319 0 .05-.006.1-.01.15 0 .044-.005.094-.009.144 0 .021-.005.039-.005.059-.006.036-.01.065-.015.095-.006.074-.021.15-.03.224-.009.07-.024.144-.039.213 0 .009-.005.024-.005.035-.006.02-.01.044-.021.07 0 .024-.005.056-.015.08-.005.035-.014.07-.024.104-.015.064-.029.124-.05.188 0 .01-.005.024-.009.036-.03.109-.065.218-.104.322 0 .005 0 .009-.005.015-.021.053-.036.103-.06.159-.015.044-.035.089-.055.139-.006.009-.01.024-.015.038-.06.134-.119.274-.189.402-.021.039-.045.089-.071.133-.024.045-.05.086-.074.13-.024.039-.044.085-.074.124-.05.085-.104.169-.16.248-.035.056-.07.1-.1.15-.085.115-.168.219-.254.322-.065.08-.13.154-.194.224-.065.074-.134.145-.204.213-.03.035-.065.065-.101.1-.029.03-.059.059-.094.085-.035.035-.074.071-.115.104-.009.009-.024.02-.035.03-.095.085-.195.163-.293.238-.009.006-.021.015-.03.024-.08.054-.159.115-.243.169-.029.02-.054.041-.08.054-.044.029-.089.059-.133.085-.035.024-.07.044-.109.065-.039.024-.08.05-.119.07-.278.159-.571.292-.875.402-.021.005-.039.015-.056.02-.02.006-.044.015-.065.02-.07.025-.139.05-.213.071-.124.039-.248.07-.373.1-.065.015-.129.029-.194.044-.039.009-.086.015-.125.021-.05.009-.103.02-.153.029h-.015c-.045.006-.089.015-.13.021-.02 0-.039.005-.059.005-.036.006-.071.009-.11.015-.02 0-.039.005-.065.005-.074.006-.154.01-.228.015-.109.006-.219.01-.328.01h-.337l-74.6669-46c-.3227-.198-.6063-.437-.84-.697v-.005c-1.3535-1.476-1.3535-3.775 0-5.254v-.006c.2337-.257.5173-.496.84-.696l4.3329-2.671 2.273-1.4 60.44-37.2337 6.556-4.0378h1.402c.15 0 .293.0056.438.0204.024-.0056.053 0 .079.0055.139.0093.284.0241.418.0445.029.0055.064.0092.094.0148.119.0203.239.0444.352.074.03.0056.06.0093.089.0204.145.0352.284.074.423.1185.13.0407.263.0888.388.1388.179.0704.352.1537.523.2444.094.0444.189.0944.278.1481.159.0889.313.1888.458.2981.005-.0056.005 0 .005 0l.319.2425c.015.0093.03.0204.039.0296.085.0648.159.1333.234.2037.059.0499.115.1036.168.1592.169.1629.329.3369.479.5257.07.0852.133.1685.194.2537.258.3517.479.735.651 1.1423.05.1092.095.224.139.3369 0 .0055.006.0092.006.0148.07.1833.124.3721.174.561.024.0944.045.1832.065.2777.015.074.03.1444.041.2184.015.0741.024.1481.035.224.015.0889.024.1796.03.2685.009.074.015.1536.015.2277.001.1018.007.211.007.3166z" fill="#F397BF"/><path d="M180 159.919v.865c0 3.433-2.752 6.215-6.143 6.215H22.1435c-3.3935 0-6.1435-2.782-6.1435-6.215v-.865l78.0335-49.76c2.4218-1.546 5.5075-1.546 7.9295 0L180 159.919z" fill="#E72E80"/><path opacity=".2" d="M97.8947 124.478l-62.8203-.145c-.8939-.001-1.6283.728-1.6299 1.622l-.0584 25.509c-.0016.894.7281 1.628 1.6219 1.629l62.8204.146c.8939.001 1.6282-.728 1.6298-1.622l.0584-25.509c.0032-.894-.728-1.626-1.6219-1.63z" fill="#232323"/><path d="M93.7423 149.39l-62.8203-.145c-.8939-.002-1.6251-.736-1.6219-1.63l.0584-25.509c.0016-.894.7359-1.625 1.6298-1.621l62.8204.145c.8938.001 1.6251.736 1.6219 1.629l-.0584 25.51c-.0032.893-.736 1.623-1.6299 1.621z" fill="#FFE4F0"/><path d="M52.5217 143.349c4.6718-4.67 4.6718-12.242 0-16.912-4.6718-4.67-12.2463-4.67-16.9181 0-4.6718 4.67-4.6718 12.242 0 16.912 4.6718 4.67 12.2463 4.67 16.9181 0z" fill="#fff"/><path d="M43.8884 145.703c-.0695 0-.1343 0-.2006-.008h-.0032c-2.0593-.066-3.956-.743-5.5369-1.848.698-1.388 1.963-2.451 3.4807-2.88h.0032c.2511-.073.5101-.126.7722-.158.2401-.032.488-.05.7391-.049l2.0263.005c.2479 0 .4943.019.7343.052h.0032c.2621.033.5196.088.7707.161 1.0691.308 2.0135.925 2.7163 1.756.2685.312.5006.663.6965 1.03-1.5382 1.11-3.3955 1.803-5.4075 1.923-.0916.007-.1816.011-.2763.011-.0142.004-.0285.004-.0443.004h-.0031c-.019.003-.0363.003-.0584 0-.0143.003-.0332.003-.0506 0-.0695.007-.1421.006-.2148.006h-.131l-.0158-.005z" fill="#E72E80"/><path d="M38.8574 132.838s-.6191-6.854 3.1285-6.98c3.7477-.126 5.2811-1.072 6.1766-.753.897.319 1.5698 6.546 1.3281 7.758-.24 1.213-10.6332-.025-10.6332-.025z" fill="#000"/><path d="M45.9072 139.807l-.0047 1.916c-.0016.813-.7912 1.476-1.753 1.475-.9618-.002-1.7482-.67-1.7467-1.483l.0048-1.916c0-.335.1358-.646.3616-.894.0521-.058.1106-.114.1722-.162.1184-.098.2526-.18.3995-.247.2448-.11.5243-.172.8197-.17.2953 0 .5748.063.818.175.1469.066.2811.15.398.248.0063.005.0126.009.019.014.0552.047.1073.096.1531.15.2259.248.3601.559.3585.894z" fill="#F4CB95"/><path d="M48.9243 133.13l-.0063 2.791c-.0047 1.962-1.2634 3.641-3.0116 4.278l-.0016.736c-.4896.179-1.0155.275-1.5635.275l-.3743-.002c-.5496-.001-1.0755-.101-1.5619-.281l.0016-.735c-1.7451-.646-2.9959-2.331-2.9912-4.293l.0064-2.791c.0094-1.311.578-2.493 1.4766-3.32.8165-.753 1.9062-1.214 3.0985-1.211l.3743.001c1.0707.003 2.0562.378 2.8348 1.003 1.0439.835 1.7151 2.117 1.7182 3.549z" fill="#D8A471"/><path d="M48.9243 132.417l-.0079 3.508c-.0015.877-.2526 1.7-.6901 2.396-.0679.109-.1437.215-.2195.316-.0932.126-.1911.245-.2969.358-.4912.535-1.1087.952-1.802 1.208-.4895.177-1.0186.276-1.5666.275l-.3711-.002c-.5496-.002-1.0771-.104-1.5619-.283-1.7467-.645-2.9959-2.331-2.9928-4.291l.0079-3.639c.0411-1.324.6554-2.518 1.603-3.326.1516-.131.3095-.248.4738-.354.7185-.47 1.5761-.743 2.4968-.742l.3711.002c.7139.001 1.393.167 1.9962.474.1216.06.2401.118.3538.191.139.085.2748.173.4043.274 1.0992.839 1.8051 2.157 1.8019 3.635z" fill="#F4CB95"/><path d="M50.7505 134.267c-.0015 1.01-.8228 1.826-1.8319 1.823l.0079-3.654c.2527 0 .4943.052.7138.146.0016 0 .0032.002.0032.002.6522.278 1.1086.927 1.107 1.683z" fill="#EDC28E"/><path d="M50.0541 134.264c-.0016.625-.5101 1.13-1.1355 1.129l.0047-2.264c.627.003 1.1324.511 1.1308 1.135z" fill="#D8A471"/><path d="M39.4231 132.412l-.0079 3.654c-1.0091-.001-1.8256-.822-1.824-1.831.0016-.868.6096-1.593 1.4213-1.778.0285-.006.0569-.012.0853-.017.0142-.002.03-.005.0458-.006.0916-.014.1848-.022.2795-.022z" fill="#EDC28E"/><path d="M38.2877 134.237c-.0016.625.5038 1.133 1.1292 1.135l.0047-2.264c-.6238-.001-1.1323.504-1.1339 1.129z" fill="#D8A471"/><path d="M48.9248 132.416l-.0079 3.508c-.0016.878-.2527 1.701-.6901 2.397-.0679.109-.1437.215-.2196.316.9223-6.612-.1847-7.574-1.7561-7.564-1.6882.005-2.0688-2.073-2.0688-2.073l2.5378-.493c.139.086.2748.174.4043.275 1.0976.838 1.8036 2.157 1.8004 3.634z" fill="#E5B67F"/><path d="M45.9028 143.016l.4422.761-1.6598 1.909c-.0916.006-.1817.011-.2764.011-.0142.003-.0284.003-.0442.003h-.0032c-.0189.003-.0363.003-.0584 0l1.3503-3.222.0031-.008.2227-.531.0032-.003.0221-.055.0015-.946.9681 1.647-.9207.412-.0505.022z" fill="#CC8E2B"/><path d="M43.9859 145.706h.0505c.0727 0 .1453 0 .2148-.006.019.003.0363.003.0506 0 .0221.003.0394.003.0584 0h.0032l.2258-.363 1.205-1.958.0016-.585.4232-.406-.2085-.793s-.0331.062-.1058.168l-.0079.008v.007c-.1974.299-.6538.897-1.3013 1.233-.1421.07-.2874.135-.4517.174-.2211-.061-.4248-.158-.6064-.27-.5701-.347-.9618-.879-1.1323-1.152l-.0032-.008c-.0726-.106-.1058-.168-.1058-.168l-.2132.793.4216.409-.0015.586 1.0297 1.689.3885.641.0031.003.0616-.002z" fill="#fff"/><path d="M45.9538 142.995l.3917.783-1.9362 1.92c-.0142.003-.0284.003-.0442.003h-.0032c-.019.003-.0363.003-.0584 0-.0142.003-.0332.003-.0506 0l1.2982-3.091v-.003l.3474-.829v-.008l.0079-.008.0016-.946.9665 1.767-.9728.314.0521.098z" fill="#000"/><path d="M43.8889 145.703c-.0695 0-.1343 0-.2006-.008h-.0032l-1.7308-1.927.4453-.76-.0505-.022-.9192-.417.9744-1.642-.0015.826v.12l.0031.008.0111.028.0031.008.2275.55v.003l1.3392 3.236h-.0806l-.0173-.003z" fill="#CC8E2B"/><path d="M43.8889 145.703l-1.9347-1.935.3949-.782.0521-.098-.9713-.319.976-1.76v.12l-.0031.824.0047.008.3459.837v.005l1.2855 3.103h-.1311l-.0189-.003zM47.0481 127.847s-2.2805-.694-2.7227-.694c-.4422-.002-1.0123.05-1.8888.259-.8765.208-2.1983 1.157-2.1983 1.157l-.2496.47c-.1373.142-.2795.305-.2874.352-.0063.045-.0379.187-.0663.318l-.2053.388c.0284-.011.0963-.032.18-.063l.1169.372c.0142-.004.4501-.659 1.246-1.084.9981-.355 2.3405-.442 3.2897.257 1.7245 1.271 4.9447.539 4.9447.539l-2.1589-2.271z" fill="#000"/><path d="M88.5068 127.69l-27.413-.063c-.7075-.002-1.2856-.581-1.284-1.288v-.065c.0016-.707.5812-1.285 1.2887-1.284l27.413.064c.7076.001 1.2856.581 1.284 1.288v.065c-.0016.708-.5812 1.285-1.2887 1.283z" fill="#E72E80"/><path d="M88.4948 133.439l-27.413-.063c-.7075-.001-1.2855-.581-1.2839-1.288v-.065c.0015-.707.5811-1.285 1.2886-1.283l27.4131.063c.7075.001 1.2855.581 1.2839 1.288v.065c-.0015.707-.5811 1.285-1.2887 1.283zM88.4807 139.189l-27.4131-.063c-.7075-.001-1.2855-.581-1.2839-1.288v-.065c.0016-.707.5812-1.285 1.2887-1.283l27.413.063c.7076.001 1.2856.581 1.284 1.288v.065c0 .707-.5812 1.285-1.2887 1.283zM88.4676 144.939l-27.413-.063c-.7075-.001-1.2855-.581-1.284-1.288v-.065c.0016-.707.5812-1.285 1.2887-1.283l27.413.063c.7076.001 1.2856.581 1.284 1.288v.065c-.0016.707-.5812 1.285-1.2887 1.283z" fill="#C980A0"/><path opacity=".1" d="M129.551 46.6264c4.545-2.4219 6.265-8.0681 3.842-12.6113-2.423-4.5431-8.071-6.2627-12.615-3.8408-4.545 2.4219-6.265 8.0682-3.842 12.6113 2.422 4.5431 8.07 6.2627 12.615 3.8408z" fill="#232323"/><path d="M130.506 43.0332c3.642-3.6405 3.642-9.5431 0-13.1836-3.642-3.6406-9.547-3.6406-13.188 0-3.642 3.6405-3.642 9.5431 0 13.1836 3.641 3.6406 9.546 3.6406 13.188 0z" fill="#E72E80"/><path d="M125.574 33.7394l.22-.732 1.77.1259-1.361 4.7335c-.084.2995-.13.4983-.137.5964-.007.1027.013.1853.06.2466.047.062.107.0949.179.1001.241.0174.564-.1182.969-.406.405-.2879.768-.6933 1.09-1.2155.323-.5229.507-1.1058.553-1.7493.038-.5365-.028-1.0483-.197-1.5363-.17-.488-.435-.9199-.795-1.2962-.359-.3757-.815-.6823-1.366-.9192-.551-.2369-1.185-.3809-1.9-.4319-.729-.0516-1.404-.0045-2.025.1421-.622.1465-1.176.3815-1.661.7042-.486.3221-.902.7339-1.247 1.2349-.305.4363-.549.9262-.732 1.4704-.182.5442-.294 1.1045-.335 1.6803-.055.7687.049 1.482.31 2.1404.26.6585.667 1.2239 1.22 1.6971.553.4725 1.236.8288 2.05 1.0689.814.2395 1.746.3428 2.795.3099.834-.0394 1.548-.1776 2.142-.4138.594-.2363 1.108-.5906 1.541-1.0625l1.428.1013c-.266.4616-.6.867-.999 1.2155-.401.3486-.86.6339-1.378.8553-.519.2214-1.094.377-1.725.4667s-1.313.1085-2.046.0568c-1.1-.0781-2.079-.2924-2.94-.6435-.86-.3512-1.571-.8192-2.134-1.4047-.562-.5854-.971-1.2658-1.226-2.041-.255-.7746-.35-1.6183-.285-2.5298.068-.9514.29-1.83.666-2.6343.377-.8036.885-1.4898 1.525-2.0572.64-.5674 1.402-.9928 2.287-1.2755.886-.2827 1.847-.3873 2.884-.3137.849.0607 1.619.2401 2.31.5383.691.2983 1.272.6978 1.744 1.1987.472.5009.819 1.0787 1.039 1.7345.221.6558.303 1.3678.249 2.1366-.042.599-.192 1.1774-.447 1.7364-.256.559-.599 1.0535-1.032 1.4827-.433.4299-.929.7579-1.488.9857-.56.2279-1.153.3189-1.779.2744-.362-.0259-.639-.1072-.831-.2447-.193-.1368-.313-.3421-.361-.6151-.416.3569-.881.5673-1.393.6319-.512.0645-.998-.0174-1.458-.2453-.461-.2279-.82-.5829-1.08-1.0638-.26-.4809-.366-1.0593-.318-1.7338.049-.7017.25-1.3814.6-2.0391.35-.6578.818-1.1839 1.406-1.5777.588-.3937 1.232-.5661 1.934-.5157.803.0587 1.372.4021 1.705 1.0321zm-3.915 3.2114c-.038.5364.044.9554.247 1.2575.203.3021.486.466.848.4912.419.0297.802-.1117 1.145-.4241.344-.3124.616-.7184.818-1.2187.202-.4996.32-.9889.354-1.4672.017-.2369.004-.4525-.038-.6462-.042-.1936-.113-.366-.212-.517-.1-.1504-.224-.2686-.373-.3531-.149-.0846-.321-.1343-.518-.1478-.394-.0278-.759.1-1.096.3834-.337.2834-.607.6642-.812 1.1412-.205.4777-.326.978-.363 1.5008z" fill="#fff"/><path opacity=".2" d="M173.713 125.336l-63.568-.011c-.906 0-1.646.736-1.646 1.637l-.004 25.689c0 .901.739 1.637 1.645 1.637l63.568.011c.905 0 1.645-.736 1.645-1.637l.005-25.688c0-.9-.74-1.638-1.645-1.638z" fill="#232323"/><path d="M169.42 149.882l-63.7-.011c-.907 0-1.649-.743-1.649-1.649l.005-25.867c0-.907.743-1.648 1.649-1.648l63.7.011c.907 0 1.649.743 1.649 1.648l-.005 25.867c0 .908-.743 1.649-1.649 1.649z" fill="#fff"/><path d="M164.066 128.155l-27.798-.005c-.717 0-1.304-.586-1.304-1.303v-.067c0-.717.587-1.303 1.304-1.303l27.798.005c.717 0 1.304.586 1.304 1.303v.066c0 .717-.587 1.304-1.304 1.304z" fill="#E72E80"/><path d="M164.064 133.985l-27.797-.005c-.717 0-1.304-.587-1.304-1.304v-.066c0-.717.587-1.303 1.304-1.303l27.797.004c.718 0 1.305.587 1.305 1.304v.066c0 .717-.587 1.304-1.305 1.304zM164.062 139.813l-27.797-.004c-.717 0-1.304-.587-1.304-1.304v-.066c0-.717.587-1.304 1.304-1.304l27.797.005c.718 0 1.304.587 1.304 1.304v.066c.002.719-.586 1.305-1.304 1.303zM164.062 145.644l-27.797-.005c-.717 0-1.304-.587-1.304-1.304v-.066c0-.717.587-1.303 1.304-1.303l27.797.004c.718 0 1.304.587 1.304 1.304v.066c0 .717-.586 1.304-1.304 1.304zM127.782 143.947c4.782-4.781 4.782-12.531 0-17.311-4.782-4.78-12.534-4.78-17.316 0-4.782 4.78-4.782 12.53 0 17.311 4.782 4.78 12.534 4.78 17.316 0z" fill="#FFE4F0"/><path d="M125.075 143.223c-.662.512-1.394.939-2.179 1.268-.397.168-.808.309-1.23.422-.446.121-.906.21-1.375.266-.382.047-.772.069-1.167.069s-.785-.024-1.167-.069c-1.788-.213-3.429-.91-4.785-1.958.715-1.318 1.941-2.322 3.41-2.739h.001c.002-.002.002-.002.004-.002.251-.072.511-.126.777-.161.011-.002.021-.003.032-.005.232-.031.471-.047.711-.047h2.037c.242 0 .479.016.711.047.011 0 .021.002.032.005.266.034.526.089.777.161h.002v.002c1.469.417 2.697 1.423 3.409 2.741z" fill="#E72E80"/><path d="M124.827 131.092l-.002 6.562c0 1.445-1.171 2.617-2.617 2.617l-6.171-.002c-1.444 0-2.616-1.173-2.616-2.618l.001-6.562c.002-5.829 5.703-5.564 5.703-5.564s1.485-.068 2.939.639c1.301.632 2.579 1.887 2.744 4.371.013.178.019.364.019.557z" fill="#000"/><path d="M120.885 139.304v1.929c0 .817-.793 1.487-1.762 1.487s-1.762-.67-1.762-1.487v-1.931c0-.337.136-.649.363-.901.053-.059.111-.114.172-.164.12-.098.255-.182.402-.248.246-.111.527-.174.825-.174.297 0 .579.063.824.174.148.066.282.15.401.248.007.005.013.01.02.014.056.047.108.097.154.15.229.253.363.566.363.903z" fill="#F4B698"/><path opacity=".28" d="M123.908 132.576v2.811c0 1.975-1.263 3.667-3.022 4.313v.742c-.492.18-1.022.278-1.573.278h-.378c-.552 0-1.083-.098-1.573-.28v-.741c-1.759-.646-3.021-2.34-3.021-4.314v-2.81c.007-1.319.576-2.511 1.48-3.346.821-.76 1.917-1.226 3.116-1.226h.377c1.077 0 2.072.375 2.857 1.002 1.052.841 1.731 2.131 1.737 3.571z" fill="#000"/><path d="M123.908 131.856v3.531c0 .965-.303 1.863-.816 2.604l-.003.003c-.119.172-.25.334-.39.488-.274.3-.587.563-.93.782-.276.174-.571.322-.882.438-.492.181-1.022.279-1.575.279h-.377c-.551 0-1.083-.098-1.572-.279-1.758-.646-3.022-2.34-3.021-4.315v-3.512c0-.048.002-.098.004-.146.038-1.339.652-2.538 1.605-3.355.15-.129.31-.248.476-.36.722-.473 1.584-.751 2.51-.751h.377c1.04 0 2.002.352 2.774.942.411.314.769.692 1.054 1.124.118.176.223.361.315.553.29.598.451 1.268.451 1.974zM125.75 133.717c0 1.017-.825 1.84-1.841 1.84v-3.68c.255 0 .499.051.719.146.002 0 .004.002.004.002.657.279 1.118.931 1.118 1.692z" fill="#F4B698"/><path d="M125.049 133.715c0 .629-.511 1.14-1.14 1.14v-2.279c.629 0 1.14.511 1.14 1.139z" fill="#E29586"/><path d="M121.666 140.482l-1.377 4.697c-.382.047-.772.07-1.167.07s-.785-.025-1.167-.07l-1.375-4.695v-.002h.972l.034.035 1.534 1.588 1.538-1.586.034-.035.974-.002z" fill="#000"/><path d="M114.342 131.875v3.679c-1.015 0-1.839-.823-1.839-1.84 0-.873.61-1.605 1.427-1.794.027-.006.056-.013.085-.017.015-.002.031-.005.047-.007.092-.013.184-.021.28-.021z" fill="#F4B698"/><path d="M113.203 133.714c0 .628.509 1.139 1.14 1.139v-2.278c-.629 0-1.14.511-1.14 1.139z" fill="#E29586"/><path d="M122.895 144.491c-.396.168-.807.309-1.23.422v-.422h1.23z" fill="#15315E"/><path opacity=".2" d="M119.123 142.103l1.369.97 1.175-2.593-2.544 1.623z" fill="#363636"/><path d="M121.667 140.48l-1.199 2.501-1.345-.878 1.572-1.623.205-.209.767.209z" fill="#EEE"/><path opacity=".2" d="M116.582 140.48l1.162 2.591 1.379-.968-2.541-1.623z" fill="#363636"/><path d="M119.123 142.103l-1.342.878-1.199-2.501.767-.211.205.211 1.569 1.623z" fill="#EEE"/><path d="M124.827 130.968c-3.429.247-3.102-2.854-2.744-4.37 1.301.633 2.579 1.889 2.744 4.37z" fill="#000"/><path d="M123.076 128.273c-.117.189-1.3 2.316-3.427 2.314-2.126-.001-5.505 1.277-5.608 3.394-.103 2.117-2.663-6.467 3.798-7.135 6.459-.668 5.237 1.427 5.237 1.427z" fill="#000"/><rect x="40.5166" y="54.4609" width="118.198" height="19.6464" rx="2" fill="#E72E80" stroke="#E72E80"/><path d="M71.3551 56.7805c-1.866-.0001-3.6919.5415-5.2566 1.5592.8772.9143 1.5309 2.0194 1.9098 3.2289.379 1.2095.4728 2.4905.2743 3.7424-.1986 1.2519-.6842 2.4407-1.4187 3.4733-.7345 1.0325-1.698 1.8807-2.815 2.478h67.9261c2.147-.0003 4.233-.7179 5.927-2.0392 1.694-1.3212 2.899-3.1705 3.424-5.2548l-1.35-5.1472-68.6209-2.0406z" fill="#E72E80"/><path d="M67.264 63.8019c0-1.4321-.4149-2.832-1.1921-4.0228-.7772-1.1908-1.8818-2.1188-3.1743-2.6669-1.2924-.548-2.7146-.6914-4.0866-.412-1.3721.2794-2.6324.969-3.6215 1.9816-.9892 1.0127-1.6629 2.3029-1.9358 3.7075-.2729 1.4046-.1328 2.8605.4025 4.1836.5354 1.3231 1.4419 2.454 2.6051 3.2496 1.1631.7957 2.5307 1.2203 3.9296 1.2203 1.8759 0 3.6749-.7629 5.0014-2.1208 1.3265-1.3579 2.0717-3.1997 2.0717-5.1201z" fill="#111"/><path d="M60.1909 61.2242c-.667.0025-1.306.2749-1.7777.7578-.4717.4829-.7378 1.1371-.7403 1.8199v3.9101h.033c.2234.1484.4584.2776.7026.3862l.2358.0966v-2.3654c.3154.2534.6855.4255 1.0794.5019.3939.0765.7999.055 1.184-.0626.3849-.1189.7371-.3289 1.0279-.6131.2885-.2855.5068-.6369.6371-1.0253.1303-.3885.1689-.803.1127-1.2097-.0571-.4083-.2089-.7967-.4427-1.1327-.2338-.3359-.5429-.6096-.9012-.7982-.3577-.1797-.7522-.2691-1.1506-.2607v-.0048zm0 4.1707c-.3073-.0011-.6075-.0952-.8629-.2703-.1889-.1313-.3472-.3038-.4636-.505-.1163-.2013-.1878-.4263-.2093-.6591-.0216-.2328.0074-.4676.0847-.6876.0774-.22.2012-.4198.3627-.5852.1615-.1653.3567-.2921.5716-.3713.215-.0792.4443-.1088.6717-.0868.2274.0221.4472.0953.6438.2144.1966.119.365.2811.4934.4746.156.2397.2456.5182.2593.8059.0137.2877-.0491.5739-.1817.8279-.1325.2541-.3299.4667-.5711.615-.2412.1484-.5172.227-.7986.2275z" fill="#E72E80"/><path d="M63.1617 67.3645h1.5985v1.1199h-5.0596c-.3543-.0384-.7027-.1211-1.0374-.2462v-1.2454c.7803.3972 1.6777.4807 2.5152.234.8375-.2467 1.5542-.8057 2.009-1.5667.4547-.7611.6144-1.6689.4476-2.5446-.1669-.8756-.6482-1.6554-1.349-2.1857-.7008-.5303-1.5702-.7725-2.4369-.6789-.8666.0936-1.6676.5163-2.2448 1.1846-.5773.6683-.889 1.5339-.8737 2.4259.0154.892.3566 1.7457.9565 2.3928v1.4482c-.7914-.5307-1.4029-1.2995-1.7501-2.2004-.3473-.901-.4135-1.89-.1893-2.831.2241-.9411.7276-1.7879 1.441-2.4241.7134-.6361 1.6019-1.0304 2.5432-1.1286.9412-.0982 1.8891.1046 2.7132.5804s1.484 1.2012 1.889 2.0766c.4049.8754.535 1.8578.3724 2.8119-.1627.9542-.6101 1.8334-1.2807 2.5166l-.2641.2607z" fill="#FCEBF3"/><path d="M103.43 65.9111c-.374.3631-.879.5538-1.374.5538-1.048 0-1.927-.69-1.927-1.8974s.879-1.8974 1.927-1.8974c.495 0 1.019.1725 1.393.5356l.29-.2814c-.468-.4448-1.076-.6718-1.683-.6718-1.337 0-2.3754.8988-2.3754 2.315s1.0754 2.315 2.3754 2.315c.607 0 1.215-.2179 1.683-.6718l-.309-.2996zM104.678 60.455v6.3549h.459v-2.4603c0-.9351.673-1.6613 1.645-1.6613 1.038 0 1.487.6264 1.487 1.5524v2.5692h.449v-2.5692c0-1.1711-.645-1.9791-1.936-1.9791-.645.0091-1.29.2542-1.664.8987V60.455h-.44zM112.027 66.8825c.739 0 1.543-.2905 1.992-.8625l-.327-.2542c-.346.4449-1.057.6809-1.665.6809-.954 0-1.786-.6173-1.879-1.6704h4.161c.177-1.7521-.982-2.5238-2.282-2.5238s-2.347.9714-2.347 2.315c0 1.4253 1.047 2.315 2.347 2.315zm-1.879-2.4966c.102-1.0985.925-1.7249 1.879-1.7249 1.113 0 1.861.6174 1.87 1.7249h-3.749zM118.731 65.9111c-.374.3631-.879.5538-1.375.5538-1.047 0-1.926-.69-1.926-1.8974s.879-1.8974 1.926-1.8974c.496 0 1.019.1725 1.393.5356l.29-.2814c-.467-.4448-1.075-.6718-1.683-.6718-1.337 0-2.375.8988-2.375 2.315s1.075 2.315 2.375 2.315c.608 0 1.216-.2179 1.683-.6718l-.308-.2996zM119.979 60.455v6.3549h.449v-2.197l2.478 2.197h.58v-.0273l-2.609-2.3422 2.337-2.0971v-.0182h-.607l-2.179 1.961V60.455h-.449zM125.848 66.8825c1.3 0 2.347-.8715 2.347-2.2968 0-1.4254-1.047-2.3332-2.347-2.3332-1.299 0-2.347.9078-2.347 2.3332 0 1.4253 1.048 2.2968 2.347 2.2968zm0-.4358c-1.047 0-1.898-.699-1.898-1.861 0-1.1621.851-1.9156 1.898-1.9156 1.048 0 1.899.7535 1.899 1.9156 0 1.162-.851 1.861-1.899 1.861zM133.326 66.8099v-4.4938h-.458v2.4965c0 .926-.664 1.625-1.618 1.6341-1.001.0091-1.646-.5356-1.646-1.5524v-2.5782h-.458v2.5873c0 1.2437.851 1.9791 2.085 1.9791.645-.0091 1.291-.2633 1.646-.8806v.808h.449zM135.182 61.0178v1.3073h-.981v.3723h.981v2.7325c0 .8807.318 1.4435 1.3 1.4435.29 0 .58-.0908.87-.2269l-.159-.3632c-.234.109-.486.1816-.711.1816-.72 0-.851-.4267-.851-1.035v-2.7325h1.571v-.3723h-1.571v-1.3526l-.449.0453zM72.8134 61.0427v5.849h-1.0611v-4.9382h-1.208v-.9108h2.2691zM74.0365 64.1343h2.2446v.869h-2.2446v-.869zM80.1797 66.9753c-.5768 0-1.0991-.1281-1.5671-.3844-.4625-.2618-.8271-.6211-1.0937-1.0779-.2612-.4567-.3918-.972-.3918-1.5458 0-.5737.1333-1.089.3999-1.5458.2667-.4568.6312-.8133 1.0938-1.0695.4679-.2618.9903-.3927 1.5671-.3927.468 0 .8951.0835 1.2814.2506.3864.1671.7129.4095.9795.727l-.6856.6601c-.4136-.4568-.9223-.6852-1.5263-.6852-.3918 0-.7428.0891-1.0529.2674-.3102.1727-.5523.415-.7265.7269-.1741.312-.2612.6657-.2612 1.0612 0 .3955.0871.7493.2612 1.0612.1742.312.4163.5571.7265.7353.3101.1727.6611.259 1.0529.259.604 0 1.1127-.2311 1.5263-.6935l.6856.6685c-.2666.3175-.5958.5598-.9876.7269-.3864.1671-.8135.2507-1.2815.2507zM83.3675 60.6918h1.0203v6.1999h-1.0203v-6.1999zM85.7269 62.4298h1.0203v4.4619h-1.0203v-4.4619zm.5142-.7353c-.185 0-.3401-.0585-.4652-.1755-.1252-.1226-.1878-.273-.1878-.4512 0-.1783.0626-.3259.1878-.4429.1251-.1225.2802-.1838.4652-.1838s.3401.0585.4652.1755c.1252.1114.1878.2534.1878.4261 0 .1838-.0626.3398-.1878.4679-.1197.1226-.2747.1839-.4652.1839zM90.086 66.9502c-.4517 0-.8571-.0975-1.2162-.2924-.3591-.195-.6394-.4652-.8407-.8105-.2013-.351-.302-.7465-.302-1.1865 0-.4401.1007-.8328.302-1.1782.2013-.3454.4789-.6155.8326-.8105.3591-.195.7672-.2925 1.2243-.2925.4298 0 .8053.0892 1.1263.2674.3265.1783.5714.4345.7346.7688l-.7835.4679c-.1252-.2061-.283-.3593-.4734-.4596-.185-.1058-.3891-.1588-.6122-.1588-.3809 0-.6965.1282-.9468.3844-.2503.2507-.3755.5877-.3755 1.0111 0 .4233.1225.7631.3673 1.0194.2503.2506.5687.376.955.376.2231 0 .4272-.0502.6122-.1504.1904-.1059.3482-.2618.4734-.468l.7835.468c-.1687.3342-.4162.5932-.7427.777-.3211.1783-.6938.2674-1.1182.2674zM94.5684 64.9783l-.7591.7353v1.1781H92.789v-6.1999h1.0203v3.7434l2.114-2.0054h1.2243l-1.8202 1.8717 1.9916 2.5902h-1.2407l-1.5099-1.9134z" fill="#fff"/><path d="M54.2603 40.469l-6.2922 2.4676c-.7752.3045-1.301 1.0337-1.3459 1.8701l-.2253 4.2474-3.5136-2.9306c-.5998-.5016-1.4224-.6368-2.1453-.3515l-5.7858 2.2701c-1.0963.431-2.3379-.1156-2.7726-1.2188l-4.8717-12.3591c-.4347-1.1031.1021-2.3462 1.1966-2.7762l19.3081-7.5731c1.0963-.4309 2.3379.1156 2.7726 1.2188l4.8717 12.3591c.4347 1.1031-.1021 2.3462-1.1966 2.7762z" fill="#E72E80"/><path d="M44.4425 35.746c-.6003.2348-1.0179.7333-1.1864 1.312l-4.1712.011c-.0157-.0497-.0226-.0997-.0417-.1476-.0354-.0904-.0838-.1717-.1304-.2539l3.0347-3.1716c.497.2574 1.0916.3143 1.6485.0986 1.0328-.4034 1.541-1.5751 1.1339-2.6148-.4072-1.0398-1.5792-1.5568-2.612-1.1534-1.0328.4034-1.541 1.5751-1.1338 2.6148.0354.0905.0838.1718.1304.254l-3.0347 3.1716c-.497-.2574-1.0916-.3144-1.6485-.0986-1.0328.4034-1.541 1.5751-1.1339 2.6148.4072 1.0397 1.5791 1.5568 2.6119 1.1533.6004-.2347 1.018-.7332 1.1865-1.3119l4.1712-.011c.0157.0497.0225.0997.0417.1475.4071 1.0398 1.5791 1.5568 2.6119 1.1534s1.541-1.5751 1.1339-2.6148c-.4089-1.0388-1.5809-1.5559-2.612-1.1534z" fill="#fff"/></svg>