<svg width="17" height="12" viewBox="0 0 17 12" fill="none" xmlns="http://www.w3.org/2000/svg">
<path d="M15.4062 0H1.59376C0.714907 0 0 0.672853 0 1.50001V10.5C0 11.3271 0.714907 12 1.59376 12H15.4062C16.2851 12 17 11.3271 17 10.5V1.50001C17 0.672853 16.2851 0 15.4062 0ZM15.4062 0.999994C15.4784 0.999994 15.5471 1.01409 15.6099 1.0387L8.5 6.83838L1.39011 1.0387C1.45288 1.01412 1.52155 0.999994 1.59373 0.999994H15.4062ZM15.4062 11H1.59376C1.30064 11 1.0625 10.7759 1.0625 10.5V2.09521L8.15188 7.87792C8.25202 7.95944 8.37601 7.99999 8.5 7.99999C8.62399 7.99999 8.74798 7.95948 8.84812 7.87792L15.9375 2.09521V10.5C15.9375 10.7759 15.6994 11 15.4062 11Z" fill="#111111"/>
</svg>
