<svg width="41" height="40" viewBox="0 0 41 40" fill="none" xmlns="http://www.w3.org/2000/svg">
<path d="M41 13.5C41 20.9558 34.9558 27 27.5 27C20.0442 27 14 20.9558 14 13.5C14 6.04416 20.0442 0 27.5 0C34.9558 0 41 6.04416 41 13.5Z" fill="#FF8FAB"/>
<path d="M19.9997 30.3333C23.6816 30.3333 26.6663 27.3486 26.6663 23.6667C26.6663 19.9848 23.6816 17 19.9997 17C16.3178 17 13.333 19.9848 13.333 23.6667C13.333 27.3486 16.3178 30.3333 19.9997 30.3333Z" stroke="#0B172A" stroke-width="1.5" stroke-miterlimit="10" stroke-linecap="round" stroke-linejoin="round"/>
<path d="M30.0665 22.5831C29.3665 23.2665 28.9665 24.2498 29.0665 25.2998C29.2165 27.0998 30.8665 28.4165 32.6665 28.4165H35.8332V30.3998C35.8332 33.8498 33.0165 36.6665 29.5665 36.6665H12.7165C13.2332 36.2332 13.6832 35.6998 14.0332 35.0998C14.6498 34.0998 14.9998 32.9165 14.9998 31.6665C14.9998 27.9832 12.0165 24.9998 8.33317 24.9998C6.7665 24.9998 5.3165 25.5498 4.1665 26.4665V19.1832C4.1665 15.7332 6.98316 12.9165 10.4332 12.9165H29.5665C33.0165 12.9165 35.8332 15.7332 35.8332 19.1832V21.5832H32.4665C31.5332 21.5832 30.6832 21.9498 30.0665 22.5831Z" stroke="#0B172A" stroke-width="1.5" stroke-linecap="round" stroke-linejoin="round"/>
<path d="M4.1665 20.6832V13.0666C4.1665 11.0833 5.38316 9.31652 7.23316 8.61652L20.4665 3.61652C22.5332 2.83319 24.7498 4.36657 24.7498 6.58324V12.9166" stroke="#0B172A" stroke-width="1.5" stroke-linecap="round" stroke-linejoin="round"/>
<path d="M37.5978 23.2834V26.7169C37.5978 27.6335 36.8645 28.3835 35.9312 28.4168H32.6645C30.8645 28.4168 29.2145 27.1001 29.0645 25.3001C28.9645 24.2501 29.3645 23.2668 30.0645 22.5835C30.6812 21.9501 31.5312 21.5835 32.4645 21.5835H35.9312C36.8645 21.6168 37.5978 22.3668 37.5978 23.2834Z" stroke="#0B172A" stroke-width="1.5" stroke-linecap="round" stroke-linejoin="round"/>
<path d="M11.6665 20H23.3332" stroke="#0B172A" stroke-width="1.5" stroke-linecap="round" stroke-linejoin="round"/>
<path d="M14.9998 31.6667C14.9998 32.9167 14.6498 34.1 14.0332 35.1C13.6832 35.7 13.2332 36.2333 12.7165 36.6667C11.5498 37.7167 10.0165 38.3333 8.33317 38.3333C5.89984 38.3333 3.78317 37.0333 2.63317 35.1C2.01651 34.1 1.6665 32.9167 1.6665 31.6667C1.6665 29.5667 2.63317 27.6833 4.1665 26.4667C5.3165 25.55 6.7665 25 8.33317 25C12.0165 25 14.9998 27.9833 14.9998 31.6667Z" stroke="#0B172A" stroke-width="1.5" stroke-miterlimit="10" stroke-linecap="round" stroke-linejoin="round"/>
<path d="M5.73535 31.666L7.38534 33.316L10.9353 30.0327" stroke="#0B172A" stroke-width="1.5" stroke-linecap="round" stroke-linejoin="round"/>
</svg>
