<svg width="32" height="40" viewBox="0 0 32 40" fill="none" xmlns="http://www.w3.org/2000/svg">
<path d="M16.0825 0C16.3557 0.0722572 16.632 0.13488 16.9003 0.219983C18.9698 0.878327 20.231 2.88708 19.9257 5.03231C19.9113 5.13508 19.9113 5.23785 19.9016 5.38878C20.0928 5.38878 20.2712 5.38397 20.4495 5.39039C21.0183 5.41126 21.4055 5.74204 21.4151 6.30083C21.436 7.60146 21.436 8.90209 21.4135 10.2011C21.4039 10.7455 21.0199 11.0843 20.4752 11.0859C17.2088 11.0907 13.9424 11.0907 10.676 11.0859C10.1314 11.0859 9.74577 10.7455 9.73773 10.1995C9.72006 8.86195 9.7297 7.52278 9.75059 6.18361C9.75701 5.7581 10.149 5.42893 10.623 5.3936C10.8158 5.37915 11.0102 5.39199 11.2303 5.39199C11.2303 4.82839 11.1709 4.28405 11.2416 3.75738C11.4906 1.85139 12.9768 0.374132 14.8904 0.0690458C14.9514 0.0594115 15.0077 0.0240857 15.0671 0C15.4061 0 15.7435 0 16.0825 0ZM17.3406 4.43499C17.347 3.42178 16.5919 2.64943 15.5893 2.64461C14.5947 2.6398 13.8203 3.38967 13.8091 4.36594C13.7978 5.38397 14.5465 6.16595 15.5411 6.17558C16.5565 6.18522 17.3341 5.43214 17.3406 4.43499Z" fill="black"/>
<path d="M31.1488 23.7871C31.1488 28.5111 31.1472 33.2335 31.1504 37.9575C31.1504 38.4489 31.0797 38.9209 30.7648 39.3159C30.4274 39.7399 30.0145 39.9887 29.4329 39.9871C20.241 39.9775 11.0492 39.9663 1.85733 40C0.803343 40.0032 0.025707 39.149 0.00482006 38.2128C0.00321337 38.1213 0.00321337 38.0314 0.00321337 37.9398C0.00321337 28.4806 0.00482006 19.0213 0 9.56042C0 8.91974 0.144602 8.34971 0.641068 7.90975C1.02025 7.57255 1.47654 7.44891 1.97301 7.44891C3.14429 7.4473 4.31717 7.43767 5.48844 7.45212C6.69346 7.46657 7.42289 8.21002 7.43253 9.41109C7.43896 10.3472 7.43253 11.285 7.43414 12.2211C7.43735 13.0577 7.73138 13.3547 8.554 13.3547C13.2407 13.3547 17.9274 13.3547 22.6157 13.3547C23.4094 13.3547 23.7131 13.0512 23.7163 12.242C23.7195 11.3187 23.7484 10.3938 23.7099 9.4705C23.6617 8.30475 24.502 7.42321 25.7214 7.44409C26.8542 7.46336 27.9869 7.44409 29.1196 7.44891C30.3969 7.45533 31.1488 8.21483 31.1488 9.49941C31.1488 14.262 31.1488 19.0245 31.1488 23.7871ZM12.8005 30.9229C12.635 30.9839 12.4888 31.0321 12.3474 31.0915C11.9296 31.2681 11.5007 31.4239 11.1006 31.6326C10.5479 31.9216 10.2844 32.3873 10.2956 33.0328C10.3181 34.2676 10.3037 35.504 10.3037 36.7404C10.3037 36.8785 10.3037 37.0182 10.3037 37.1707C13.8352 37.1707 17.3169 37.1707 20.8002 37.1707C20.8178 37.1145 20.8371 37.0792 20.8371 37.0439C20.8403 35.626 20.858 34.2082 20.8291 32.7903C20.8243 32.5286 20.6941 32.2123 20.5126 32.026C20.2587 31.7643 19.9197 31.5668 19.5871 31.403C19.1951 31.2103 18.7725 31.0818 18.3339 30.9132C18.4624 30.7687 18.5669 30.6531 18.6697 30.5375C19.2112 29.9305 19.6948 29.2818 19.8699 28.4725C19.9679 28.0197 19.9952 27.5477 20.0338 27.0836C20.1077 26.1908 20.1928 25.3029 19.9936 24.4069C19.5405 22.3596 17.8149 21.2276 15.8355 21.7494C14.9213 21.9903 14.0232 22.2954 13.1331 22.6149C11.536 23.1881 10.8933 24.1724 11.0412 26.1202C11.0765 26.5858 11.144 27.0531 11.1488 27.5188C11.1584 28.4099 11.4428 29.1999 11.9698 29.9064C12.2253 30.2453 12.5081 30.5648 12.8005 30.9229ZM7.86955 16.5678C7.86955 17.4365 7.86955 18.2586 7.86955 19.0775C13.0286 19.0775 18.1507 19.0775 23.2905 19.0775C23.2905 18.2297 23.2905 17.4043 23.2905 16.5678C18.1379 16.5678 13.0126 16.5678 7.86955 16.5678Z" fill="#E72E80"/>
<path d="M12.1725 25.9934C13.9672 25.9211 15.6398 25.5004 17.1966 24.7682C17.4248 25.107 17.5806 25.4956 17.8666 25.7188C18.1398 25.9323 18.5479 25.9725 18.9367 26.1025C19.266 28.1354 18.588 30.0815 16.2407 30.6387C14.2725 31.1059 12.2272 29.5099 12.1741 27.4899C12.1613 27.0001 12.1725 26.5088 12.1725 25.9934Z" fill="black"/>
<path d="M18.31 32.0613C17.3717 33.0552 16.4832 33.9978 15.5754 34.958C14.6692 33.9978 13.7807 33.0568 12.8408 32.0613C14.6805 32.0613 16.4478 32.0613 18.31 32.0613Z" fill="black"/>
<rect x="7.78809" y="20.177" width="15.9292" height="17.3451" fill="#E72E80"/>
<path d="M15.398 26.9027C17.2552 26.9027 18.7608 25.3971 18.7608 23.5398C18.7608 21.6826 17.2552 20.177 15.398 20.177C13.5407 20.177 12.0352 21.6826 12.0352 23.5398C12.0352 25.3971 13.5407 26.9027 15.398 26.9027Z" fill="white"/>
<path d="M21.462 34.4906C21.462 36.1475 20.1188 37.4906 18.462 37.4906H12.5862C10.9182 37.4906 9.5705 36.1301 9.5863 34.4622L9.61197 31.7523C9.63425 29.3545 11.591 27.4263 13.9888 27.4396L17.1315 27.4566C19.5266 27.469 21.462 29.4151 21.462 31.8102V34.4906Z" fill="white"/>
</svg>
