<svg width="30" height="30" viewBox="0 0 30 30" fill="none" xmlns="http://www.w3.org/2000/svg">
<circle cx="15" cy="15" r="15" fill="#B4B8BF"/>
<path d="M16.815 17.2808C16.815 17.5382 16.6067 17.7465 16.3493 17.7465H13.5548C13.2986 17.7465 13.089 17.5369 13.089 17.2808V15.8835H7.5V20.0753C7.5 20.8205 8.15234 21.4725 8.89725 21.4725H21.0068C21.7517 21.4725 22.404 20.8202 22.404 20.0753V15.8835H16.815V17.2808ZM21.0068 10.2945H18.678V8.89725C18.678 8.15234 18.026 7.5 17.2808 7.5H12.6233C11.8781 7.5 11.226 8.15234 11.226 8.89725V10.2945H8.89725C8.15234 10.2945 7.5 10.9466 7.5 11.6918V14.952H22.404V11.6918C22.404 10.9466 21.752 10.2945 21.0068 10.2945ZM17.2808 10.2945H12.6233V8.89725H17.2808V10.2945Z" fill="white"/>
</svg>
