<svg id="Layer_1" data-name="Layer 1" xmlns="http://www.w3.org/2000/svg" viewBox="0 0 2000 2000">
  <defs>
    <style>
      .cls-1 {
        fill: #e88e80;
      }

      .cls-2 {
        fill: #dadada;
      }

      .cls-3 {
        fill: #f6f6f6;
      }

      .cls-4 {
        fill: #fff;
      }
    </style>
  </defs>
  <circle class="cls-1" cx="1037.18" cy="1014.36" r="915.06"/>
  <rect class="cls-2" x="605.23" y="582.41" width="863.9" height="863.9" rx="40.77"/>
  <g>
    <polygon class="cls-3" points="787.11 432.54 787.11 539.25 680.41 539.25 680.41 432.54 697.63 432.54 719.75 281.64 743.46 281.64 768.73 432.54 787.11 432.54"/>
    <polygon class="cls-3" points="989.39 432.54 989.39 539.25 882.69 539.25 882.69 432.54 899.91 432.54 922.03 281.64 945.74 281.64 971.02 432.54 989.39 432.54"/>
    <polygon class="cls-3" points="1191.68 432.54 1191.68 539.25 1084.97 539.25 1084.97 432.54 1102.19 432.54 1124.31 281.64 1148.02 281.64 1173.3 432.54 1191.68 432.54"/>
    <polygon class="cls-3" points="1393.96 432.54 1393.96 539.25 1287.25 539.25 1287.25 432.54 1304.48 432.54 1326.59 281.64 1350.31 281.64 1375.58 432.54 1393.96 432.54"/>
  </g>
  <g>
    <polygon class="cls-3" points="787.11 1596.18 787.11 1489.48 680.41 1489.48 680.41 1596.18 697.63 1596.18 719.75 1747.09 743.46 1747.09 768.73 1596.18 787.11 1596.18"/>
    <polygon class="cls-3" points="989.39 1596.18 989.39 1489.48 882.69 1489.48 882.69 1596.18 899.91 1596.18 922.03 1747.09 945.74 1747.09 971.02 1596.18 989.39 1596.18"/>
    <polygon class="cls-3" points="1191.68 1596.18 1191.68 1489.48 1084.97 1489.48 1084.97 1596.18 1102.19 1596.18 1124.31 1747.09 1148.02 1747.09 1173.3 1596.18 1191.68 1596.18"/>
    <polygon class="cls-3" points="1393.96 1596.18 1393.96 1489.48 1287.25 1489.48 1287.25 1596.18 1304.48 1596.18 1326.59 1747.09 1350.31 1747.09 1375.58 1596.18 1393.96 1596.18"/>
  </g>
  <g>
    <polygon class="cls-3" points="455.36 1264.43 562.07 1264.43 562.07 1371.14 455.36 1371.14 455.36 1353.91 304.46 1331.8 304.46 1308.09 455.36 1282.81 455.36 1264.43"/>
    <polygon class="cls-3" points="455.36 1062.15 562.07 1062.15 562.07 1168.86 455.36 1168.86 455.36 1151.63 304.46 1129.52 304.46 1105.8 455.36 1080.53 455.36 1062.15"/>
    <polygon class="cls-3" points="455.36 859.87 562.07 859.87 562.07 966.57 455.36 966.57 455.36 949.35 304.46 927.24 304.46 903.52 455.36 878.25 455.36 859.87"/>
    <polygon class="cls-3" points="455.36 657.59 562.07 657.59 562.07 764.29 455.36 764.29 455.36 747.07 304.46 724.95 304.46 701.24 455.36 675.96 455.36 657.59"/>
  </g>
  <g>
    <polygon class="cls-3" points="1619 1264.43 1512.3 1264.43 1512.3 1371.14 1619 1371.14 1619 1353.91 1769.91 1331.8 1769.91 1308.09 1619 1282.81 1619 1264.43"/>
    <polygon class="cls-3" points="1619 1062.15 1512.3 1062.15 1512.3 1168.86 1619 1168.86 1619 1151.63 1769.91 1129.52 1769.91 1105.8 1619 1080.53 1619 1062.15"/>
    <polygon class="cls-3" points="1619 859.87 1512.3 859.87 1512.3 966.57 1619 966.57 1619 949.35 1769.91 927.24 1769.91 903.52 1619 878.25 1619 859.87"/>
    <polygon class="cls-3" points="1619 657.59 1512.3 657.59 1512.3 764.29 1619 764.29 1619 747.07 1769.91 724.95 1769.91 701.24 1619 675.96 1619 657.59"/>
  </g>
  <path class="cls-4" d="M1034.8,1273.22a351.8,351.8,0,0,1-106.33-16q-50.62-16-81.19-41.11l30.57-68.62q28.54,22.42,70.67,37.37a256,256,0,0,0,86.28,14.94q37.37,0,60.47-8.15t34-22.08a50,50,0,0,0,10.87-31.59q0-21.75-15.63-35T1084.06,1082q-24.81-7.8-55-14.27t-60.47-16a272.17,272.17,0,0,1-55.37-24.12,115.17,115.17,0,0,1-40.43-39.07Q857.48,964.08,857.47,926a128.72,128.72,0,0,1,20.72-71q20.73-32.26,63.19-51.64T1049.07,784A339,339,0,0,1,1134,794.9q42.12,10.88,73.38,31.25l-27.86,68.62a262.14,262.14,0,0,0-65.9-28.19q-34-9.18-65.23-9.17-36,0-59.11,8.83t-33.63,23.44A53.91,53.91,0,0,0,945.12,922q0,21.76,15.29,35t40.08,20.72q24.79,7.49,55.38,14.27t60.47,16a263.05,263.05,0,0,1,55,23.78,116.5,116.5,0,0,1,40.43,38.73q15.29,24.12,15.28,61.49a127.63,127.63,0,0,1-20.72,70.32q-20.73,32.28-63.53,51.64T1034.8,1273.22ZM1013.74,1348V709.29h55.72V1348Z"/>
</svg>
