<svg width="498" height="443" viewBox="0 0 498 443" fill="none" xmlns="http://www.w3.org/2000/svg"><path d="M178 63v380h320V263c0-110.457-89.543-200-200-200H178z" fill="#FFAF36"/><g filter="url(#filter0_dd_20_377)"><rect x="70" y="6" width="320" height="350" rx="24" fill="#fff"/><rect x="68" y="4" width="324" height="354" rx="26" stroke="#1F2937" stroke-width="4"/></g><path d="M209.684 60.7168c.544-.3171.997-.6796 1.45-1.0873.408-.4078.77-.8608 1.087-1.3592.317-.4984.544-1.0421.68-1.5857.181-.5437.272-1.1327.272-1.767 0-.9514-.182-1.8575-.589-2.6731-.408-.8155-.952-1.5857-1.631-2.1747-.68-.6342-1.495-1.1326-2.402-1.4951-.906-.3624-1.902-.5436-2.944-.5436-.68 0-1.36.0906-1.994.2265-.634.1812-1.268.4078-1.812.6796-.544.3171-1.088.6796-1.541 1.0873-.453.4078-.86.8609-1.178 1.4045-.317.4984-.589 1.0421-.77 1.6311-.181.5889-.272 1.1779-.272 1.8122 0 .6343.091 1.2233.272 1.8123.181.5889.453 1.1326.77 1.631.318.4984.725.9967 1.178 1.4045.453.4077.952.7702 1.541 1.0873.544.3172 1.178.5437 1.812.6796.634.1812 1.314.2266 1.994.2266.543 0 1.042-.0454 1.585-.136.499-.0906.997-.2265 1.45-.4077l.952 1.1779c-.589.2719-1.224.4531-1.903.589-.68.1359-1.36.2266-2.084.2266-1.269 0-2.447-.2266-3.534-.6343-1.088-.4531-2.084-1.0421-2.9-1.767-.815-.7702-1.495-1.631-1.948-2.6277-.498-.9968-.725-2.0841-.725-3.2168 0-1.1326.227-2.22.725-3.2167.498-.9968 1.133-1.9029 1.948-2.6278.816-.7702 1.812-1.3592 2.9-1.7669 1.087-.4531 2.31-.6343 3.534-.6343 1.268 0 2.446.2265 3.579.6343 1.132.453 2.084 1.042 2.899 1.7669.816.7702 1.495 1.631 1.949 2.6278.498.9967.724 2.0841.724 3.2167 0 .589-.045 1.178-.181 1.7217-.136.5436-.317 1.0873-.589 1.631-.272.4984-.543.9967-.906 1.4498-.362.453-.77.8608-1.223 1.2686.77.9061 1.495 1.8122 2.265 2.7183.77.9062 1.495 1.8576 2.265 2.809h-.724c-.861 0-1.496-.2718-1.903-.8608l-4.078-4.9384zM221.871 63.0711h-1.54V46.8062h1.54v16.2649zM235.326 48.9356c-.181-.1359-.362-.2265-.498-.3624-.136-.0906-.317-.1813-.453-.2719-.136-.0906-.362-.1359-.589-.1812-.227-.0453-.498-.0453-.816-.0453-.498 0-.951.0906-1.359.2265-.453.136-.815.3625-1.132.589-.318.2719-.589.5437-.771.8608-.181.3172-.271.6796-.271 1.0421 0 .4077.045.7702.181 1.042.136.2719.317.4984.589.7249.272.2266.679.4078 1.132.589.454.1812 1.043.3625 1.722.589.363.1359.725.2265 1.042.3624.317.0906.634.2266.906.3172.272.0906.544.2265.77.3624.227.1359.499.2719.725.4078.589.4077.997.9061 1.224 1.4951.226.589.362 1.2233.362 1.9482 0 .7249-.136 1.3592-.453 1.9028-.317.589-.725 1.0421-1.269 1.4498-.543.4078-1.132.6796-1.857.9062-.725.2265-1.45.3171-2.22.3171-1.541 0-2.854-.4078-3.942-1.2686-.272-.2265-.543-.4983-.725-.7249-.226-.2265-.362-.453-.498-.6343l.181-.0906c.272-.1359.544-.2265.77-.2265.182 0 .408.0453.589.0906.182.0453.363.1359.499.2718.362.2719.634.4984.951.6796.272.136.544.2719.77.3625.227.0906.499.1359.725.1359.227 0 .453.0453.725.0453.499 0 .997-.0453 1.495-.1359.499-.1359.952-.3172 1.359-.589.408-.2718.725-.589.997-.9967.272-.4078.363-.8608.363-1.4498 0-.6343-.091-1.1327-.317-1.4951-.182-.3625-.499-.6796-.816-.9062-.362-.2265-.77-.4077-1.269-.5889-.498-.136-.996-.3172-1.54-.5437-.725-.2719-1.359-.4984-1.948-.7249-.589-.2265-1.087-.4984-1.495-.7702-.408-.3172-.725-.6796-.952-1.0874-.226-.453-.362-.9967-.362-1.7216 0-.6343.136-1.2233.453-1.7217.317-.4983.725-.9514 1.178-1.3138.453-.3625 1.042-.6343 1.631-.8609.589-.1812 1.223-.3171 1.857-.3171.544 0 .997.0453 1.45.1812.408.1359.816.2719 1.178.4984.363.1812.68.4078.952.6343.272.2265.543.4984.77.7249l-.408.2265c-.09.0906-.226.1359-.362.1812-.136.0453-.272.0453-.453.0453-.272 0-.544-.0453-.771-.1812zM249.644 48.9356c-.181-.1359-.363-.2265-.499-.3624-.135-.0906-.317-.1813-.453-.2719-.181-.0906-.362-.1359-.589-.1812-.226-.0453-.498-.0453-.815-.0453-.499 0-.952.0906-1.359.2265-.453.136-.816.3625-1.133.589-.317.2719-.589.5437-.77.8608-.181.3172-.272.6796-.272 1.0421 0 .4077.045.7702.181 1.042.136.2719.317.4984.589.7249.272.2266.68.4078 1.133.589.453.1812 1.042.3625 1.721.589.363.1359.725.2265 1.043.3624.317.0906.634.2266.906.3172.271.0906.543.2265.77.3624.226.1359.498.2719.725.4078.589.4077.996.9061 1.223 1.4951.227.589.362 1.2233.362 1.9482 0 .7249-.135 1.3592-.453 1.9028-.317.589-.724 1.0421-1.268 1.4498-.544.4078-1.133.6796-1.858.9062-.725.2265-1.45.3171-2.22.3171-1.54 0-2.854-.4078-3.941-1.2686-.272-.2265-.544-.4983-.725-.7249-.181-.2265-.363-.453-.499-.6343l.182-.0906c.271-.1359.543-.2265.77-.2265.181 0 .408.0453.589.0906s.362.1359.498.2718c.363.2719.634.4984.952.6796.271.136.543.2719.77.3625.226.0906.498.1359.725.1359.226 0 .453.0453.725.0453.498 0 .996-.0453 1.495-.1359.498-.1359.951-.3172 1.359-.589.408-.2718.725-.589.997-.9967.271-.4078.362-.8608.362-1.4498 0-.6343-.091-1.1327-.317-1.4951-.181-.3625-.498-.6796-.816-.9062-.362-.2265-.77-.4077-1.268-.5889-.499-.136-.997-.3172-1.541-.5437-.724-.2719-1.359-.4984-1.948-.7249-.589-.2265-1.087-.4984-1.495-.7702-.408-.3172-.725-.6796-.951-1.0874-.227-.453-.363-.9967-.363-1.7216 0-.6343.136-1.2233.453-1.7217.317-.4983.725-.9514 1.178-1.3138.499-.3625 1.042-.6343 1.631-.8609.589-.1812 1.224-.3171 1.858-.3171.544 0 .997.0453 1.45.1812.407.1359.815.2719 1.178.4984.362.1812.679.4078.951.6343.272.2265.544.4984.77.7249l-.407.2265c-.091.0906-.227.1359-.363.1812-.136.0453-.272.0453-.453.0453-.272 0-.544-.0453-.77-.1812zM255.353 48.2105v-1.4498h13.32v1.4498h-5.89v14.8152h-1.541V48.2105h-5.889zM272.977 63.0711l3.76-16.2649h5.573c1.857 0 3.262.4077 4.304 1.2685 1.042.8608 1.54 1.9935 1.585 3.4433 0 1.1327-.271 2.1294-.815 3.0355-.544.9061-1.359 1.5857-2.356 2.0841-.997.4984-2.22.7702-3.624.7702h-5.256l.589-2.673h4.757c.725 0 1.359-.136 1.858-.4078.498-.2718.861-.6343 1.087-1.1327.227-.453.362-.9514.317-1.4951 0-.6343-.272-1.1779-.679-1.5857-.453-.4077-1.133-.589-2.084-.589h-2.447l-3.171 13.5919h-3.398v-.0453zM286.84 63.0711l9.605-16.2649h4.123l2.038 16.2649h-3.262l-1.132-10.7829-.227-2.6278h-.045l-1.359 2.5825-6.117 10.8282h-3.624zm4.485-4.1229l.589-2.4918h8.835l-.589 2.4918h-8.835zM308.633 63.0711l1.449-6.1616-3.262-10.1033h3.353l1.495 4.893.68 2.6278 1.767-2.6731 3.624-4.8477h3.761l-8.02 10.3298-1.359 5.9351h-3.488z" fill="#111"/><circle cx="164" cy="56" r="25" fill="#111"/><path d="M158.711 66.6377v.0607s.03 0 .03.0304v-.0607c0-.0304-.03-.0304-.03-.0304z" fill="#E72E80"/><path d="M164.03 47.3857c-4.745 0-8.613 3.8685-8.613 8.6134v13.0561c.03.0302.091.0605.121.0907.755.4836 1.571.9067 2.418 1.2693.272.1209.544.2116.816.3023h.03v-.0605l-.03-3.9893s-.031 0-.031-.0303v-.0604s.031 0 .031.0302l-.031-3.8685c1.451 1.1485 3.295 1.8134 5.289 1.8134 4.745 0 8.614-3.8685 8.614-8.6134s-3.869-8.553-8.614-8.553zm0 13.9326c-2.931 0-5.319-2.3876-5.319-5.3192 0-2.9315 2.388-5.3191 5.319-5.3191 2.932 0 5.32 2.3876 5.32 5.3191-.031 2.9316-2.388 5.3192-5.32 5.3192z" fill="#E72E80"/><path d="M174.185 67.8774h5.47v3.7476H164.03c-.393 0-.755 0-1.148-.0302-.182 0-.363-.0303-.514-.0605h-.03c-1.209-.1209-2.388-.3929-3.536-.816v-.0604l-.03-3.9894v-.0604c1.601.7858 3.384 1.2391 5.258 1.2391 6.558 0 11.878-5.3192 11.878-11.8774 0-6.5583-5.35-11.8472-11.878-11.8472-6.528 0-11.907 5.3191-11.907 11.8774 0 3.1734 1.239 6.0445 3.264 8.1903v4.8658c-.877-.5742-1.693-1.2391-2.448-1.9947-1.451-1.4204-2.569-3.1129-3.355-4.9565-.786-1.9342-1.209-3.9893-1.209-6.1049 0-2.1156.423-4.1707 1.239-6.0747.786-1.8738 1.904-3.536 3.355-4.9565 1.42-1.4507 3.113-2.5689 4.956-3.3547 1.935-.816 3.99-1.2391 6.075-1.2391 2.116 0 4.171.4231 6.075 1.2391 1.874.7858 3.536 1.904 4.956 3.3547 1.451 1.4205 2.569 3.1129 3.355 4.9565.816 1.9342 1.239 3.9894 1.239 6.0747s-.423 4.1707-1.239 6.0747c-.786 1.8738-1.904 3.536-3.355 4.9565-.242.3022-.544.5742-.846.8462z" fill="#FCEBF3"/><path d="M298.12 133v-11.52h4.864c.112 0 .261.005.448.016.192.005.363.021.512.048.688.107 1.251.333 1.688.68.443.347.768.784.976 1.312.208.523.312 1.107.312 1.752 0 .965-.24 1.792-.72 2.48-.48.683-1.232 1.104-2.256 1.264l-.96.064h-2.688V133h-2.176zm6.496 0l-2.272-4.688 2.24-.432 2.496 5.12h-2.464zm-4.32-5.936h2.592c.112 0 .235-.005.368-.016s.256-.032.368-.064c.293-.08.52-.213.68-.4.16-.192.269-.403.328-.632.064-.235.096-.456.096-.664 0-.208-.032-.427-.096-.656-.059-.235-.168-.445-.328-.632-.16-.192-.387-.328-.68-.408-.112-.032-.235-.053-.368-.064-.133-.011-.256-.016-.368-.016h-2.592v3.552zm12.239 6.176c-1.088 0-1.968-.245-2.64-.736-.667-.496-1.072-1.195-1.216-2.096l2.224-.336c.09.405.29.723.6.952.314.229.712.344 1.192.344.394 0 .698-.075.912-.224.213-.155.32-.368.32-.64 0-.171-.043-.307-.128-.408-.086-.107-.278-.211-.576-.312-.294-.101-.752-.235-1.376-.4-.704-.181-1.267-.384-1.688-.608-.422-.224-.726-.491-.912-.8-.187-.315-.28-.693-.28-1.136 0-.555.141-1.035.424-1.44.282-.411.68-.725 1.192-.944.517-.224 1.125-.336 1.824-.336.677 0 1.277.104 1.8.312.522.208.944.504 1.264.888.325.384.525.837.6 1.36l-2.224.4c-.038-.32-.176-.573-.416-.76-.24-.187-.566-.296-.976-.328-.4-.027-.723.027-.968.16-.24.133-.36.325-.36.576 0 .149.05.275.152.376.106.101.322.205.648.312.33.107.832.245 1.504.416.656.171 1.181.371 1.576.6.4.224.69.496.872.816.181.315.272.696.272 1.144 0 .885-.32 1.581-.96 2.088-.64.507-1.526.76-2.656.76zm6.046-.24v-2.176h2.176V133h-2.176zm9.781 0v-1.792h-5.008v-2.032l3.632-7.696h2.496l-3.632 7.696h2.512v-2.88h2.208v2.88h1.024v2.032h-1.024V133h-2.208zm5.003 2.16l.128-.912c.256.021.464-.021.624-.128.16-.101.269-.251.328-.448.064-.192.077-.416.04-.672h-1.12v-2.176h2.176V133c0 .768-.179 1.349-.536 1.744-.357.395-.904.533-1.64.416zm8.966-1.92c-.581 0-1.128-.12-1.64-.36-.506-.24-.944-.573-1.312-1-.368-.427-.632-.923-.792-1.488l2.096-.56c.07.272.192.507.368.704.182.197.39.352.624.464.24.107.486.16.736.16.331 0 .632-.08.904-.24.278-.16.496-.376.656-.648.166-.272.248-.573.248-.904 0-.331-.082-.632-.248-.904-.16-.272-.378-.488-.656-.648-.272-.16-.573-.24-.904-.24-.405 0-.736.069-.992.208-.256.133-.448.261-.576.384l-1.84-.56.352-6.128h6.288v2.032h-5.088l.768-.72-.24 3.952-.368-.448c.288-.235.616-.405.984-.512.368-.107.712-.16 1.032-.16.726 0 1.363.163 1.912.488.555.32.987.763 1.296 1.328.315.56.472 1.203.472 1.928 0 .725-.189 1.381-.568 1.968-.378.581-.877 1.045-1.496 1.392-.618.341-1.29.512-2.016.512zm10.59 0c-.853 0-1.6-.179-2.24-.536-.64-.357-1.138-.856-1.496-1.496-.357-.64-.536-1.387-.536-2.24v-3.456c0-.853.179-1.6.536-2.24.358-.64.856-1.139 1.496-1.496s1.387-.536 2.24-.536c.854 0 1.6.179 2.24.536.64.357 1.139.856 1.496 1.496.358.64.536 1.387.536 2.24v3.456c0 .853-.178 1.6-.536 2.24-.357.64-.856 1.139-1.496 1.496s-1.386.536-2.24.536zm0-2.064c.384 0 .731-.091 1.04-.272.31-.181.555-.427.736-.736.182-.309.272-.656.272-1.04v-3.792c0-.384-.09-.731-.272-1.04-.181-.309-.426-.555-.736-.736-.309-.181-.656-.272-1.04-.272s-.73.091-1.04.272c-.309.181-.554.427-.736.736-.181.309-.272.656-.272 1.04v3.792c0 .384.091.731.272 1.04.182.309.427.555.736.736.31.181.656.272 1.04.272zm11.102 2.064c-.854 0-1.6-.179-2.24-.536-.64-.357-1.139-.856-1.496-1.496-.358-.64-.536-1.387-.536-2.24v-3.456c0-.853.178-1.6.536-2.24.357-.64.856-1.139 1.496-1.496s1.386-.536 2.24-.536c.853 0 1.6.179 2.24.536.64.357 1.138.856 1.496 1.496.357.64.536 1.387.536 2.24v3.456c0 .853-.179 1.6-.536 2.24-.358.64-.856 1.139-1.496 1.496s-1.387.536-2.24.536zm0-2.064c.384 0 .73-.091 1.04-.272.309-.181.554-.427.736-.736.181-.309.272-.656.272-1.04v-3.792c0-.384-.091-.731-.272-1.04-.182-.309-.427-.555-.736-.736-.31-.181-.656-.272-1.04-.272s-.731.091-1.04.272c-.31.181-.555.427-.736.736-.182.309-.272.656-.272 1.04v3.792c0 .384.09.731.272 1.04.181.309.426.555.736.736.309.181.656.272 1.04.272zM94.184 133v-10.392H90.16v-1.128h9.224v1.128H95.36V133h-1.176zm9.13.24c-.859 0-1.592-.195-2.2-.584-.608-.389-1.075-.928-1.4004-1.616-.3253-.688-.488-1.477-.488-2.368 0-.907.1654-1.701.496-2.384.3304-.683.8004-1.213 1.4084-1.592.613-.384 1.341-.576 2.184-.576.864 0 1.6.195 2.208.584.613.384 1.08.92 1.4 1.608.325.683.488 1.469.488 2.36 0 .907-.163 1.704-.488 2.392-.326.683-.795 1.216-1.408 1.6-.614.384-1.347.576-2.2.576zm0-1.128c.96 0 1.674-.317 2.144-.952.469-.64.704-1.469.704-2.488 0-1.045-.238-1.877-.712-2.496-.47-.619-1.182-.928-2.136-.928-.646 0-1.179.147-1.6.44-.416.288-.728.691-.936 1.208-.203.512-.304 1.104-.304 1.776 0 1.04.24 1.875.72 2.504.48.624 1.186.936 2.12.936zm10.884.888c-.485.101-.965.141-1.44.12-.469-.021-.89-.123-1.264-.304-.368-.181-.648-.464-.84-.848-.154-.32-.24-.643-.256-.968-.01-.331-.016-.707-.016-1.128v-7.912h1.168v7.864c0 .363.003.667.008.912.011.24.067.453.168.64.192.357.496.571.912.64.422.069.942.053 1.56-.048V133zm-5.664-7.632v-1.008h5.664v1.008h-5.664zm10.159 7.872c-.651 0-1.198-.117-1.64-.352-.438-.235-.766-.547-.984-.936-.219-.389-.328-.813-.328-1.272 0-.469.093-.869.28-1.2.192-.336.45-.611.776-.824.33-.213.712-.376 1.144-.488.437-.107.92-.2 1.448-.28.533-.085 1.053-.157 1.56-.216.512-.064.96-.125 1.344-.184l-.416.256c.016-.853-.15-1.485-.496-1.896-.347-.411-.95-.616-1.808-.616-.592 0-1.094.133-1.504.4-.406.267-.691.688-.856 1.264l-1.144-.336c.197-.773.594-1.373 1.192-1.8.597-.427 1.373-.64 2.328-.64.789 0 1.458.149 2.008.448.554.293.946.72 1.176 1.28.106.251.176.531.208.84.032.309.048.624.048.944V133h-1.048v-2.168l.304.128c-.294.741-.75 1.307-1.368 1.696-.619.389-1.36.584-2.224.584zm.136-1.016c.549 0 1.029-.099 1.44-.296.41-.197.741-.467.992-.808.25-.347.413-.736.488-1.168.064-.277.098-.581.104-.912.005-.336.008-.587.008-.752l.448.232c-.4.053-.835.107-1.304.16-.464.053-.923.115-1.376.184-.448.069-.854.152-1.216.248-.246.069-.483.168-.712.296-.23.123-.419.288-.568.496-.144.208-.216.467-.216.776 0 .251.061.493.184.728.128.235.33.429.608.584.282.155.656.232 1.12.232zm6.762.776v-11.76h1.176V133h-1.176zm7.418 0v-11.52h4.448c.112 0 .237.005.376.016.144.005.288.021.432.048.602.091 1.112.301 1.528.632.421.325.738.736.952 1.232.218.496.328 1.045.328 1.648 0 .597-.11 1.144-.328 1.64-.219.496-.539.909-.96 1.24-.416.325-.923.533-1.52.624-.144.021-.288.037-.432.048-.139.011-.264.016-.376.016h-3.272V133h-1.176zm1.176-5.496h3.24c.096 0 .208-.005.336-.016.128-.011.253-.029.376-.056.394-.085.717-.248.968-.488.256-.24.445-.525.568-.856.128-.331.192-.675.192-1.032s-.064-.701-.192-1.032c-.123-.336-.312-.624-.568-.864-.251-.24-.574-.403-.968-.488-.123-.027-.248-.043-.376-.048-.128-.011-.24-.016-.336-.016h-3.24v4.896zm10.897 5.736c-.651 0-1.197-.117-1.64-.352-.437-.235-.765-.547-.984-.936-.219-.389-.328-.813-.328-1.272 0-.469.093-.869.28-1.2.192-.336.451-.611.776-.824.331-.213.712-.376 1.144-.488.437-.107.92-.2 1.448-.28.533-.085 1.053-.157 1.56-.216.512-.064.96-.125 1.344-.184l-.416.256c.016-.853-.149-1.485-.496-1.896-.347-.411-.949-.616-1.808-.616-.592 0-1.093.133-1.504.4-.405.267-.691.688-.856 1.264l-1.144-.336c.197-.773.595-1.373 1.192-1.8.597-.427 1.373-.64 2.328-.64.789 0 1.459.149 2.008.448.555.293.947.72 1.176 1.28.107.251.176.531.208.84.032.309.048.624.048.944V133h-1.048v-2.168l.304.128c-.293.741-.749 1.307-1.368 1.696-.619.389-1.36.584-2.224.584zm.136-1.016c.549 0 1.029-.099 1.44-.296.411-.197.741-.467.992-.808.251-.347.413-.736.488-1.168.064-.277.099-.581.104-.912.005-.336.008-.587.008-.752l.448.232c-.4.053-.835.107-1.304.16-.464.053-.923.115-1.376.184-.448.069-.853.152-1.216.248-.245.069-.483.168-.712.296-.229.123-.419.288-.568.496-.144.208-.216.467-.216.776 0 .251.061.493.184.728.128.235.331.429.608.584.283.155.656.232 1.12.232zm7.35 4.616l1.672-4.536.024 1.344-3.784-9.288h1.248l3.104 7.768h-.512l2.864-7.768h1.2l-4.64 12.48h-1.176zm17.83-3.84l.008-5.672c0-.667-.187-1.189-.56-1.568-.368-.384-.838-.576-1.408-.576-.326 0-.643.075-.952.224-.31.149-.566.389-.768.72-.198.331-.296.763-.296 1.296l-.696-.2c-.016-.619.104-1.16.36-1.624.261-.464.618-.824 1.072-1.08.458-.261.976-.392 1.552-.392.869 0 1.565.269 2.088.808.522.533.784 1.256.784 2.168l-.008 5.896h-1.176zm-10.312 0v-8.64h1.056v2.128h.128V133h-1.184zm5.168 0l.008-5.592c0-.688-.184-1.229-.552-1.624-.363-.4-.843-.6-1.44-.6-.598 0-1.08.205-1.448.616-.368.405-.552.947-.552 1.624l-.704-.384c0-.555.13-1.051.392-1.488.261-.443.618-.789 1.072-1.04.453-.256.968-.384 1.544-.384.549 0 1.037.117 1.464.352.432.235.77.576 1.016 1.024.245.448.368.992.368 1.632l-.008 5.864h-1.16zm12.331.24c-.842 0-1.573-.187-2.192-.56-.613-.373-1.09-.899-1.432-1.576-.341-.677-.512-1.472-.512-2.384 0-.944.168-1.76.504-2.448.336-.688.808-1.219 1.416-1.592.614-.373 1.336-.56 2.168-.56.854 0 1.582.197 2.184.592.603.389 1.059.949 1.368 1.68.31.731.451 1.603.424 2.616h-1.2v-.416c-.021-1.12-.264-1.965-.728-2.536-.458-.571-1.13-.856-2.016-.856-.928 0-1.64.301-2.136.904-.49.603-.736 1.461-.736 2.576 0 1.088.246 1.933.736 2.536.496.597 1.198.896 2.104.896.619 0 1.158-.141 1.616-.424.464-.288.83-.701 1.096-1.24l1.096.424c-.341.752-.845 1.336-1.512 1.752-.661.411-1.41.616-2.248.616zm-3.304-4.232v-.984h6.6v.984h-6.6zM189.614 133v-4.408c0-.48-.045-.92-.136-1.32-.09-.405-.237-.757-.44-1.056-.197-.304-.456-.539-.776-.704-.314-.165-.698-.248-1.152-.248-.416 0-.784.072-1.104.216-.314.144-.581.352-.8.624-.213.267-.376.592-.488.976-.112.384-.168.821-.168 1.312l-.832-.184c0-.885.155-1.629.464-2.232.31-.603.736-1.059 1.28-1.368.544-.309 1.168-.464 1.872-.464.518 0 .968.08 1.352.24.39.16.718.376.984.648.272.272.491.584.656.936.166.347.286.717.36 1.112.075.389.112.779.112 1.168V133h-1.184zm-6.248 0v-8.64h1.064v2.128h.12V133h-1.184zm14.532 0c-.485.101-.965.141-1.44.12-.469-.021-.89-.123-1.264-.304-.368-.181-.648-.464-.84-.848-.154-.32-.24-.643-.256-.968-.01-.331-.016-.707-.016-1.128v-7.912h1.168v7.864c0 .363.003.667.008.912.011.24.067.453.168.64.192.357.496.571.912.64.422.069.942.053 1.56-.048V133zm-5.664-7.632v-1.008h5.664v1.008h-5.664z" fill="#000"/><g filter="url(#filter1_d_20_377)"><rect x="40" y="173" width="380" height="140" rx="20" fill="#fff"/></g><path d="M125.445 265v-14.4h5.95c.14 0 .32.007.54.02.22.007.423.027.61.06.833.127 1.52.403 2.06.83.547.427.95.967 1.21 1.62.267.647.4 1.367.4 2.16 0 .787-.133 1.507-.4 2.16-.267.647-.673 1.183-1.22 1.61-.54.427-1.223.703-2.05.83-.187.027-.393.047-.62.06-.22.013-.397.02-.53.02h-3.54V265h-2.41zm2.41-7.28h3.44c.133 0 .283-.007.45-.02.167-.013.32-.04.46-.08.4-.1.713-.277.94-.53.233-.253.397-.54.49-.86.1-.32.15-.633.15-.94 0-.307-.05-.62-.15-.94-.093-.327-.257-.617-.49-.87-.227-.253-.54-.43-.94-.53-.14-.04-.293-.063-.46-.07-.167-.013-.317-.02-.45-.02h-3.44v4.86zm13.11 7.58c-.78 0-1.44-.147-1.98-.44-.54-.3-.95-.697-1.23-1.19-.273-.493-.41-1.037-.41-1.63 0-.52.087-.987.26-1.4.173-.42.44-.78.8-1.08.36-.307.827-.557 1.4-.75.433-.14.94-.267 1.52-.38.587-.113 1.22-.217 1.9-.31.687-.1 1.403-.207 2.15-.32l-.86.49c.007-.747-.16-1.297-.5-1.65-.34-.353-.913-.53-1.72-.53-.487 0-.957.113-1.41.34-.453.227-.77.617-.95 1.17l-2.2-.69c.267-.913.773-1.647 1.52-2.2.753-.553 1.767-.83 3.04-.83.96 0 1.803.157 2.53.47.733.313 1.277.827 1.63 1.54.193.38.31.77.35 1.17.04.393.06.823.06 1.29V265h-2.11v-2.34l.35.38c-.487.78-1.057 1.353-1.71 1.72-.647.36-1.457.54-2.43.54zm.48-1.92c.547 0 1.013-.097 1.4-.29.387-.193.693-.43.92-.71.233-.28.39-.543.47-.79.127-.307.197-.657.21-1.05.02-.4.03-.723.03-.97l.74.22c-.727.113-1.35.213-1.87.3s-.967.17-1.34.25c-.373.073-.703.157-.99.25-.28.1-.517.217-.71.35-.193.133-.343.287-.45.46-.1.173-.15.377-.15.61 0 .267.067.503.2.71.133.2.327.36.58.48.26.12.58.18.96.18zm8.838 6.42l2.08-5.71.04 1.68-4.71-11.57h2.51l3.34 8.56h-.64l3.25-8.56h2.41l-6.02 15.6h-2.26zm13.975-4.8v-14.4h2.41V265h-2.41zm12.876 0v-5.2c0-.34-.024-.717-.07-1.13-.047-.413-.157-.81-.33-1.19-.167-.387-.42-.703-.76-.95-.334-.247-.787-.37-1.36-.37-.307 0-.61.05-.91.15-.3.1-.574.273-.82.52-.24.24-.434.573-.58 1-.147.42-.22.96-.22 1.62l-1.43-.61c0-.92.176-1.753.53-2.5.36-.747.886-1.34 1.58-1.78.693-.447 1.546-.67 2.56-.67.8 0 1.46.133 1.98.4s.933.607 1.24 1.02c.306.413.533.853.68 1.32.146.467.24.91.28 1.33.046.413.07.75.07 1.01V265h-2.44zm-7.49 0v-10.8h2.15v3.35h.29V265h-2.44zm22.523 0v-2.38h-6.38v-2.25l4.61-9.77h2.75l-4.61 9.77h3.63v-3.75h2.44v3.75h1.35v2.25h-1.35V265h-2.44zM266.818 265v-14.4h5.95c.14 0 .32.007.54.02.22.007.423.027.61.06.833.127 1.52.403 2.06.83.547.427.95.967 1.21 1.62.267.647.4 1.367.4 2.16 0 .787-.133 1.507-.4 2.16-.267.647-.673 1.183-1.22 1.61-.54.427-1.223.703-2.05.83-.187.027-.393.047-.62.06-.22.013-.397.02-.53.02h-3.54V265h-2.41zm2.41-7.28h3.44c.133 0 .283-.007.45-.02.167-.013.32-.04.46-.08.4-.1.713-.277.94-.53.233-.253.397-.54.49-.86.1-.32.15-.633.15-.94 0-.307-.05-.62-.15-.94-.093-.327-.257-.617-.49-.87-.227-.253-.54-.43-.94-.53-.14-.04-.293-.063-.46-.07-.167-.013-.317-.02-.45-.02h-3.44v4.86zm13.11 7.58c-.78 0-1.44-.147-1.98-.44-.54-.3-.95-.697-1.23-1.19-.273-.493-.41-1.037-.41-1.63 0-.52.087-.987.26-1.4.173-.42.44-.78.8-1.08.36-.307.827-.557 1.4-.75.433-.14.94-.267 1.52-.38.587-.113 1.22-.217 1.9-.31.687-.1 1.403-.207 2.15-.32l-.86.49c.007-.747-.16-1.297-.5-1.65-.34-.353-.913-.53-1.72-.53-.487 0-.957.113-1.41.34-.453.227-.77.617-.95 1.17l-2.2-.69c.267-.913.773-1.647 1.52-2.2.753-.553 1.767-.83 3.04-.83.96 0 1.803.157 2.53.47.733.313 1.277.827 1.63 1.54.193.38.31.77.35 1.17.04.393.06.823.06 1.29V265h-2.11v-2.34l.35.38c-.487.78-1.057 1.353-1.71 1.72-.647.36-1.457.54-2.43.54zm.48-1.92c.547 0 1.013-.097 1.4-.29.387-.193.693-.43.92-.71.233-.28.39-.543.47-.79.127-.307.197-.657.21-1.05.02-.4.03-.723.03-.97l.74.22c-.727.113-1.35.213-1.87.3s-.967.17-1.34.25c-.373.073-.703.157-.99.25-.28.1-.517.217-.71.35-.193.133-.343.287-.45.46-.1.173-.15.377-.15.61 0 .267.067.503.2.71.133.2.327.36.58.48.26.12.58.18.96.18zm8.838 6.42l2.08-5.71.04 1.68-4.71-11.57h2.51l3.34 8.56h-.64l3.25-8.56h2.41l-6.02 15.6h-2.26zm13.975-4.8v-14.4h2.41V265h-2.41zm12.876 0v-5.2c0-.34-.024-.717-.07-1.13-.047-.413-.157-.81-.33-1.19-.167-.387-.42-.703-.76-.95-.334-.247-.787-.37-1.36-.37-.307 0-.61.05-.91.15-.3.1-.574.273-.82.52-.24.24-.434.573-.58 1-.147.42-.22.96-.22 1.62l-1.43-.61c0-.92.176-1.753.53-2.5.36-.747.886-1.34 1.58-1.78.693-.447 1.546-.67 2.56-.67.8 0 1.46.133 1.98.4s.933.607 1.24 1.02c.306.413.533.853.68 1.32.146.467.24.91.28 1.33.046.413.07.75.07 1.01V265h-2.44zm-7.49 0v-10.8h2.15v3.35h.29V265h-2.44zm21.523.3c-.94 0-1.787-.22-2.54-.66-.747-.447-1.34-1.063-1.78-1.85-.44-.787-.66-1.69-.66-2.71v-4.38c0-1.093.217-2.043.65-2.85.44-.807 1.053-1.43 1.84-1.87.793-.44 1.713-.66 2.76-.66.727 0 1.417.123 2.07.37.653.24 1.233.627 1.74 1.16l-1.74 1.69c-.253-.3-.563-.537-.93-.71-.36-.173-.74-.26-1.14-.26-.56 0-1.05.133-1.47.4-.42.26-.747.603-.98 1.03-.227.427-.34.883-.34 1.37v2.39l-.44-.48c.413-.48.91-.853 1.49-1.12.58-.273 1.187-.41 1.82-.41.907 0 1.707.207 2.4.62.693.407 1.24.967 1.64 1.68.4.707.6 1.513.6 2.42 0 .9-.23 1.717-.69 2.45-.453.727-1.057 1.307-1.81 1.74-.753.427-1.583.64-2.49.64zm0-2.31c.467 0 .893-.11 1.28-.33.387-.227.693-.53.92-.91.233-.387.35-.813.35-1.28 0-.467-.113-.893-.34-1.28-.227-.387-.533-.693-.92-.92-.38-.233-.803-.35-1.27-.35-.467 0-.893.117-1.28.35-.387.227-.693.533-.92.92-.227.387-.34.813-.34 1.28 0 .453.11.873.33 1.26.227.38.53.687.91.92.387.227.813.34 1.28.34z" fill="#111"/><path fill-rule="evenodd" clip-rule="evenodd" d="M141.18 216.862c-1.156 0-2.081-.981-1.884-2.121 1.45-8.384 8.065-14.998 16.448-16.448 1.14-.197 2.121.727 2.121 1.884v14.685c0 1.105-.895 2-2 2H141.18zm-2.18 1.24v.216-.216zm2.18 1.455c-1.156 0-2.081.982-1.884 2.121 1.45 8.384 8.065 14.998 16.448 16.448 1.14.197 2.121-.727 2.121-1.883v-14.686c0-1.104-.895-2-2-2H141.18zm21.38 0c-1.104 0-2 .896-2 2v14.686c0 1.156.982 2.08 2.121 1.883 8.384-1.449 14.999-8.064 16.449-16.448.197-1.139-.727-2.121-1.884-2.121H162.56zm14.686-2.695c1.157 0 2.081-.981 1.884-2.121-1.45-8.384-8.065-14.999-16.449-16.448-1.139-.197-2.121.727-2.121 1.883v14.686c0 1.105.896 2 2 2h14.686zM303.833 232.63c.001 1.157.985 2.081 2.124 1.879.985-.176 1.969-.427 2.945-.758 3.024-1.025 5.643-2.703 7.752-4.824.815-.819.62-2.151-.325-2.814l-9.359-6.568c-1.327-.931-3.151.019-3.149 1.639l.012 11.446zm-.858 2.179l-.952.001c.317.008.634.007.952-.001zm-1.809-2.175c.001 1.157-.98 2.083-2.12 1.883-4.728-.828-9.058-3.345-12.114-7.118-.727-.898-.396-2.205.615-2.767l10.635-5.908c1.332-.74 2.97.222 2.971 1.746l.013 12.164zm-.025-24.287c.001 1.62-1.823 2.57-3.149 1.639l-9.307-6.531c-.948-.665-1.141-2.002-.321-2.819 2.099-2.094 4.698-3.751 7.695-4.767.976-.331 1.96-.582 2.945-.757 1.14-.203 2.123.721 2.125 1.879l.012 11.356zm2.667.804c.002 1.524 1.639 2.486 2.971 1.746l10.635-5.908c1.011-.562 1.342-1.868.615-2.767-3.056-3.773-7.385-6.29-12.113-7.118-1.14-.2-2.122.726-2.121 1.883l.013 12.164zm-.894-14.341c-.301-.007-.603-.007-.905 0h.905zm18.507 13.579c1.722 5.078 1.287 10.367-.813 14.871-.49 1.051-1.813 1.325-2.762.66l-10.207-7.163c-1.208-.848-1.113-2.669.178-3.386l10.885-6.047c1.013-.563 2.299-.152 2.677.942.015.041.029.082.042.123zm-35.89-4.197l1.219-1.736c-.438.557-.844 1.137-1.219 1.736zm11.685 12.018c1.291-.717 1.386-2.537.178-3.386l-10.248-7.191c-.946-.664-2.265-.392-2.758.653-2.13 4.52-2.58 9.84-.849 14.946l.042.123c.379 1.094 1.665 1.505 2.677.942l10.958-6.087zm-12.02 8.671l-.375-.676c.121.228.246.454.375.676zm34.583-20.115l.347.623c-.112-.21-.228-.418-.347-.623z" fill="#E72E80"/><path d="M111.029 286v-10.08h3.983c.098 0 .214.005.35.014.135.005.266.019.392.042.546.084 1.003.271 1.372.56.373.289.653.656.84 1.099.186.439.28.926.28 1.463 0 .779-.203 1.456-.609 2.03-.406.569-1.001.926-1.785 1.071l-.476.077h-3.101V286h-1.246zm5.999 0l-1.988-4.102 1.232-.378 2.184 4.48h-1.428zm-4.753-4.907h2.695c.088 0 .189-.005.301-.014.116-.009.226-.026.329-.049.322-.075.583-.21.784-.406.205-.201.354-.434.448-.7.093-.271.14-.546.14-.826 0-.28-.047-.553-.14-.819-.094-.271-.243-.506-.448-.707-.201-.201-.462-.336-.784-.406-.103-.028-.213-.044-.329-.049-.112-.009-.213-.014-.301-.014h-2.695v3.99zm10.579 5.11c-.901 0-1.641-.196-2.219-.588-.574-.397-.927-.95-1.057-1.659l1.274-.203c.102.411.338.737.707.98.368.238.826.357 1.372.357.518 0 .924-.107 1.218-.322.294-.215.441-.506.441-.875 0-.215-.049-.387-.147-.518-.098-.135-.301-.261-.609-.378-.304-.117-.763-.257-1.379-.42-.668-.177-1.193-.362-1.575-.553-.383-.191-.656-.413-.819-.665-.164-.252-.245-.558-.245-.917 0-.443.121-.831.364-1.162.242-.336.581-.595 1.015-.777.438-.182.947-.273 1.526-.273.574 0 1.087.091 1.54.273.452.182.816.441 1.092.777.28.331.445.719.497 1.162l-1.274.231c-.061-.406-.257-.726-.588-.959-.327-.233-.749-.357-1.267-.371-.49-.019-.889.068-1.197.259-.304.191-.455.45-.455.777 0 .182.056.338.168.469.116.131.329.254.637.371.312.117.765.25 1.358.399.667.168 1.192.352 1.575.553.387.196.662.429.826.7.163.266.245.595.245.987 0 .728-.269 1.302-.805 1.722-.537.415-1.277.623-2.219.623zm4.791-.203v-1.372h1.372V286h-1.372zm8.11 0v-8.701l-1.897 1.148v-1.393l1.897-1.134h1.267V286h-1.267zm5.687 0v-8.701l-1.897 1.148v-1.393l1.897-1.134h1.267V286h-1.267zm3.651-.007l.007-1.12 4.473-4.025c.373-.336.623-.653.749-.952.13-.303.196-.614.196-.931 0-.387-.089-.737-.266-1.05-.178-.313-.42-.56-.728-.742-.304-.182-.649-.273-1.036-.273-.402 0-.759.096-1.071.287-.313.187-.56.436-.742.749-.178.313-.264.653-.259 1.022h-1.274c0-.635.147-1.195.441-1.68.294-.49.693-.873 1.197-1.148.508-.28 1.085-.42 1.729-.42.625 0 1.185.145 1.68.434.494.285.884.674 1.169 1.169.289.49.434 1.045.434 1.666 0 .439-.056.819-.168 1.141-.108.322-.276.621-.504.896-.229.271-.516.56-.861.868l-3.717 3.339-.161-.42h5.411v1.19h-6.699zm11.355.217c-.518 0-1.001-.107-1.449-.322-.443-.215-.823-.509-1.141-.882-.312-.378-.536-.812-.672-1.302l1.197-.322c.084.331.234.618.448.861.215.238.465.425.749.56.29.131.591.196.903.196.411 0 .78-.098 1.106-.294.332-.201.593-.464.784-.791.192-.331.287-.693.287-1.085 0-.406-.1-.772-.301-1.099-.196-.331-.459-.593-.791-.784-.331-.191-.693-.287-1.085-.287-.443 0-.823.093-1.141.28-.312.182-.56.406-.742.672l-1.106-.42.308-5.271h5.411v1.183h-4.809l.553-.518-.259 4.221-.273-.357c.28-.299.614-.53 1.001-.693.392-.163.791-.245 1.197-.245.626 0 1.186.147 1.68.441.495.289.887.686 1.176 1.19.29.499.434 1.062.434 1.687 0 .621-.158 1.188-.476 1.701-.317.509-.739.917-1.267 1.225-.522.303-1.096.455-1.722.455zm7.687-10.29h1.267L162.714 286h-1.267l2.688-10.08zM175.833 286l.007-4.837c0-.565-.151-1.006-.455-1.323-.298-.322-.688-.483-1.169-.483-.28 0-.546.065-.798.196-.252.126-.457.327-.616.602-.158.271-.238.618-.238 1.043l-.658-.266c-.009-.537.101-1.006.329-1.407.234-.406.551-.721.952-.945.402-.224.854-.336 1.358-.336.789 0 1.41.24 1.862.721.453.476.679 1.118.679 1.925l-.007 5.11h-1.246zm-9.044 0v-7.56h1.113v2.023h.14V286h-1.253zm4.529 0l.007-4.788c0-.579-.149-1.031-.448-1.358-.298-.331-.695-.497-1.19-.497-.49 0-.886.168-1.19.504-.303.336-.455.782-.455 1.337l-.658-.392c0-.49.117-.929.35-1.316.234-.387.551-.691.952-.91.402-.224.857-.336 1.365-.336.509 0 .952.107 1.33.322.378.215.67.523.875.924.206.397.308.87.308 1.421l-.007 5.089h-1.239zm10.743.21c-.751 0-1.4-.17-1.946-.511-.541-.341-.959-.812-1.253-1.414-.294-.602-.441-1.293-.441-2.072 0-.793.15-1.489.448-2.086.299-.597.721-1.062 1.267-1.393.546-.336 1.188-.504 1.925-.504.756 0 1.407.17 1.953.511.546.336.964.805 1.253 1.407.294.597.441 1.286.441 2.065 0 .789-.147 1.484-.441 2.086-.294.597-.714 1.066-1.26 1.407-.546.336-1.194.504-1.946.504zm0-1.183c.784 0 1.368-.261 1.75-.784.383-.523.574-1.199.574-2.03 0-.854-.193-1.533-.581-2.037-.387-.509-.968-.763-1.743-.763-.527 0-.961.119-1.302.357-.34.238-.595.567-.763.987-.168.42-.252.905-.252 1.456 0 .849.196 1.531.588 2.044.392.513.969.77 1.729.77zm10.572.973v-3.787c0-.359-.033-.705-.098-1.036-.061-.331-.171-.628-.329-.889-.154-.266-.364-.476-.63-.63-.262-.154-.593-.231-.994-.231-.313 0-.598.054-.854.161-.252.103-.469.261-.651.476-.182.215-.325.485-.427.812-.098.322-.147.702-.147 1.141l-.819-.252c0-.733.13-1.36.392-1.883.266-.527.637-.931 1.113-1.211.48-.285 1.045-.427 1.694-.427.49 0 .907.077 1.253.231.345.154.632.359.861.616.228.252.408.537.539.854.13.313.221.632.273.959.056.322.084.628.084.917V286h-1.26zm-5.39 0v-7.56h1.12v2.023h.14V286h-1.26zm12.69 0c-.448.089-.891.124-1.33.105-.434-.014-.821-.1-1.162-.259-.34-.163-.599-.415-.777-.756-.149-.299-.231-.6-.245-.903-.009-.308-.014-.656-.014-1.043v-6.804h1.246v6.748c0 .308.003.572.007.791.01.219.059.408.147.567.168.299.434.474.798.525.369.051.812.037 1.33-.042V286zm-5.061-6.531v-1.029h5.061v1.029h-5.061zM206.851 286v-3.787c0-.359-.032-.705-.098-1.036-.06-.331-.17-.628-.329-.889-.154-.266-.364-.476-.63-.63-.261-.154-.592-.231-.994-.231-.312 0-.597.054-.854.161-.252.103-.469.261-.651.476-.182.215-.324.485-.427.812-.098.322-.147.702-.147 1.141l-.819-.252c0-.733.131-1.36.392-1.883.266-.527.637-.931 1.113-1.211.481-.285 1.046-.427 1.694-.427.49 0 .908.077 1.253.231.346.154.633.359.861.616.229.252.409.537.539.854.131.313.222.632.273.959.056.322.084.628.084.917V286h-1.26zm-5.39 0v-10.08h1.12v5.565h.14V286h-1.26zM255.293 286v-10.08h3.983c.098 0 .214.005.35.014.135.005.266.019.392.042.546.084 1.003.271 1.372.56.373.289.653.656.84 1.099.186.439.28.926.28 1.463 0 .779-.203 1.456-.609 2.03-.406.569-1.001.926-1.785 1.071l-.476.077h-3.101V286h-1.246zm5.999 0l-1.988-4.102 1.232-.378 2.184 4.48h-1.428zm-4.753-4.907h2.695c.088 0 .189-.005.301-.014.116-.009.226-.026.329-.049.322-.075.583-.21.784-.406.205-.201.354-.434.448-.7.093-.271.14-.546.14-.826 0-.28-.047-.553-.14-.819-.094-.271-.243-.506-.448-.707-.201-.201-.462-.336-.784-.406-.103-.028-.213-.044-.329-.049-.112-.009-.213-.014-.301-.014h-2.695v3.99zm10.578 5.11c-.9 0-1.64-.196-2.219-.588-.574-.397-.926-.95-1.057-1.659l1.274-.203c.103.411.339.737.707.98.369.238.826.357 1.372.357.518 0 .924-.107 1.218-.322.294-.215.441-.506.441-.875 0-.215-.049-.387-.147-.518-.098-.135-.301-.261-.609-.378-.303-.117-.763-.257-1.379-.42-.667-.177-1.192-.362-1.575-.553-.382-.191-.655-.413-.819-.665-.163-.252-.245-.558-.245-.917 0-.443.122-.831.364-1.162.243-.336.581-.595 1.015-.777.439-.182.948-.273 1.526-.273.574 0 1.088.091 1.54.273.453.182.817.441 1.092.777.28.331.446.719.497 1.162l-1.274.231c-.06-.406-.256-.726-.588-.959-.326-.233-.749-.357-1.267-.371-.49-.019-.889.068-1.197.259-.303.191-.455.45-.455.777 0 .182.056.338.168.469.117.131.329.254.637.371.313.117.766.25 1.358.399.668.168 1.193.352 1.575.553.388.196.663.429.826.7.164.266.245.595.245.987 0 .728-.268 1.302-.805 1.722-.536.415-1.276.623-2.219.623zm4.792-.203v-1.372h1.372V286h-1.372zm6.884 0l3.626-8.883h-4.578v-1.197h5.915v1.197L280.137 286h-1.344zm9.628.21c-.518 0-1.001-.107-1.449-.322-.443-.215-.824-.509-1.141-.882-.313-.378-.537-.812-.672-1.302l1.197-.322c.084.331.233.618.448.861.215.238.464.425.749.56.289.131.59.196.903.196.411 0 .779-.098 1.106-.294.331-.201.593-.464.784-.791.191-.331.287-.693.287-1.085 0-.406-.1-.772-.301-1.099-.196-.331-.46-.593-.791-.784-.331-.191-.693-.287-1.085-.287-.443 0-.824.093-1.141.28-.313.182-.56.406-.742.672l-1.106-.42.308-5.271h5.411v1.183h-4.809l.553-.518-.259 4.221-.273-.357c.28-.299.614-.53 1.001-.693.392-.163.791-.245 1.197-.245.625 0 1.185.147 1.68.441.495.289.887.686 1.176 1.19.289.499.434 1.062.434 1.687 0 .621-.159 1.188-.476 1.701-.317.509-.74.917-1.267 1.225-.523.303-1.097.455-1.722.455zm8.541 0c-.653 0-1.237-.147-1.75-.441-.509-.299-.912-.702-1.211-1.211-.294-.513-.441-1.097-.441-1.75v-3.696c0-.653.147-1.237.441-1.75.299-.513.702-.917 1.211-1.211.513-.294 1.097-.441 1.75-.441s1.237.147 1.75.441c.513.294.917.698 1.211 1.211.294.513.441 1.097.441 1.75v3.696c0 .653-.147 1.237-.441 1.75-.294.509-.698.912-1.211 1.211-.513.294-1.097.441-1.75.441zm0-1.197c.397 0 .756-.096 1.078-.287.322-.191.579-.448.77-.77.191-.327.287-.686.287-1.078v-3.843c0-.397-.096-.756-.287-1.078-.191-.322-.448-.579-.77-.77-.322-.191-.681-.287-1.078-.287-.392 0-.751.096-1.078.287-.322.191-.579.448-.77.77-.191.322-.287.681-.287 1.078v3.843c0 .392.096.751.287 1.078.191.322.448.579.77.77.327.191.686.287 1.078.287zm7.91-9.093h1.267L303.451 286h-1.267l2.688-10.08zM316.57 286l.007-4.837c0-.565-.152-1.006-.455-1.323-.299-.322-.689-.483-1.169-.483-.28 0-.546.065-.798.196-.252.126-.458.327-.616.602-.159.271-.238.618-.238 1.043l-.658-.266c-.01-.537.1-1.006.329-1.407.233-.406.55-.721.952-.945.401-.224.854-.336 1.358-.336.788 0 1.409.24 1.862.721.452.476.679 1.118.679 1.925l-.007 5.11h-1.246zm-9.044 0v-7.56h1.113v2.023h.14V286h-1.253zm4.529 0l.007-4.788c0-.579-.15-1.031-.448-1.358-.299-.331-.696-.497-1.19-.497-.49 0-.887.168-1.19.504-.304.336-.455.782-.455 1.337l-.658-.392c0-.49.116-.929.35-1.316.233-.387.55-.691.952-.91.401-.224.856-.336 1.365-.336.508 0 .952.107 1.33.322.378.215.669.523.875.924.205.397.308.87.308 1.421l-.007 5.089h-1.239zm10.743.21c-.752 0-1.4-.17-1.946-.511-.542-.341-.959-.812-1.253-1.414-.294-.602-.441-1.293-.441-2.072 0-.793.149-1.489.448-2.086.298-.597.721-1.062 1.267-1.393.546-.336 1.187-.504 1.925-.504.756 0 1.407.17 1.953.511.546.336.963.805 1.253 1.407.294.597.441 1.286.441 2.065 0 .789-.147 1.484-.441 2.086-.294.597-.714 1.066-1.26 1.407-.546.336-1.195.504-1.946.504zm0-1.183c.784 0 1.367-.261 1.75-.784.382-.523.574-1.199.574-2.03 0-.854-.194-1.533-.581-2.037-.388-.509-.969-.763-1.743-.763-.528 0-.962.119-1.302.357-.341.238-.595.567-.763.987-.168.42-.252.905-.252 1.456 0 .849.196 1.531.588 2.044.392.513.968.77 1.729.77zm10.571.973v-3.787c0-.359-.033-.705-.098-1.036-.061-.331-.17-.628-.329-.889-.154-.266-.364-.476-.63-.63-.261-.154-.593-.231-.994-.231-.313 0-.597.054-.854.161-.252.103-.469.261-.651.476-.182.215-.324.485-.427.812-.098.322-.147.702-.147 1.141l-.819-.252c0-.733.131-1.36.392-1.883.266-.527.637-.931 1.113-1.211.481-.285 1.045-.427 1.694-.427.49 0 .908.077 1.253.231.345.154.632.359.861.616.229.252.408.537.539.854.131.313.222.632.273.959.056.322.084.628.084.917V286h-1.26zm-5.39 0v-7.56h1.12v2.023h.14V286h-1.26zm12.691 0c-.448.089-.892.124-1.33.105-.434-.014-.822-.1-1.162-.259-.341-.163-.6-.415-.777-.756-.15-.299-.231-.6-.245-.903-.01-.308-.014-.656-.014-1.043v-6.804h1.246v6.748c0 .308.002.572.007.791.009.219.058.408.147.567.168.299.434.474.798.525.368.051.812.037 1.33-.042V286zm-5.061-6.531v-1.029h5.061v1.029h-5.061zM347.588 286v-3.787c0-.359-.033-.705-.098-1.036-.061-.331-.171-.628-.329-.889-.154-.266-.364-.476-.63-.63-.262-.154-.593-.231-.994-.231-.313 0-.598.054-.854.161-.252.103-.469.261-.651.476-.182.215-.325.485-.427.812-.098.322-.147.702-.147 1.141l-.819-.252c0-.733.13-1.36.392-1.883.266-.527.637-.931 1.113-1.211.48-.285 1.045-.427 1.694-.427.49 0 .907.077 1.253.231.345.154.632.359.861.616.228.252.408.537.539.854.13.313.221.632.273.959.056.322.084.628.084.917V286h-1.26zm-5.39 0v-10.08h1.12v5.565h.14V286h-1.26z" fill="#939393"/><defs><filter id="filter0_dd_20_377" x="63" y="0" width="334" height="364" filterUnits="userSpaceOnUse" color-interpolation-filters="sRGB"><feFlood flood-opacity="0" result="BackgroundImageFix"/><feColorMatrix in="SourceAlpha" values="0 0 0 0 0 0 0 0 0 0 0 0 0 0 0 0 0 0 127 0" result="hardAlpha"/><feOffset dy="1"/><feGaussianBlur stdDeviation="1"/><feColorMatrix values="0 0 0 0 0 0 0 0 0 0 0 0 0 0 0 0 0 0 0.06 0"/><feBlend in2="BackgroundImageFix" result="effect1_dropShadow_20_377"/><feColorMatrix in="SourceAlpha" values="0 0 0 0 0 0 0 0 0 0 0 0 0 0 0 0 0 0 127 0" result="hardAlpha"/><feOffset dy="1"/><feGaussianBlur stdDeviation="1.5"/><feColorMatrix values="0 0 0 0 0 0 0 0 0 0 0 0 0 0 0 0 0 0 0.1 0"/><feBlend in2="effect1_dropShadow_20_377" result="effect2_dropShadow_20_377"/><feBlend in="SourceGraphic" in2="effect2_dropShadow_20_377" result="shape"/></filter><filter id="filter1_d_20_377" x="0" y="148" width="460" height="220" filterUnits="userSpaceOnUse" color-interpolation-filters="sRGB"><feFlood flood-opacity="0" result="BackgroundImageFix"/><feColorMatrix in="SourceAlpha" values="0 0 0 0 0 0 0 0 0 0 0 0 0 0 0 0 0 0 127 0" result="hardAlpha"/><feMorphology radius="10" in="SourceAlpha" result="effect1_dropShadow_20_377"/><feOffset dy="15"/><feGaussianBlur stdDeviation="25"/><feComposite in2="hardAlpha" operator="out"/><feColorMatrix values="0 0 0 0 0.0313725 0 0 0 0 0.0862745 0 0 0 0 0.172549 0 0 0 0.1 0"/><feBlend in2="BackgroundImageFix" result="effect1_dropShadow_20_377"/><feBlend in="SourceGraphic" in2="effect1_dropShadow_20_377" result="shape"/></filter></defs></svg>