<svg width="216" height="122" viewBox="0 0 216 122" fill="none" xmlns="http://www.w3.org/2000/svg">
<path d="M61.933 53.6166V69.3836C61.933 71.157 62.6263 72.8579 63.8605 74.1119C65.0947 75.366 66.7686 76.0705 68.514 76.0705C70.2594 76.0705 71.9333 75.366 73.1674 74.1119C74.4016 72.8579 75.095 71.157 75.095 69.3836V53.6166C75.095 51.8431 74.4016 50.1423 73.1674 48.8882C71.9333 47.6342 70.2594 46.9297 68.514 46.9297C66.7686 46.9297 65.0947 47.6342 63.8605 48.8882C62.6263 50.1423 61.933 51.8431 61.933 53.6166V53.6166ZM66.6436 69.3836V53.6166C66.6407 53.3633 66.6901 53.1122 66.7884 52.8795C66.8867 52.6467 67.0319 52.4375 67.2146 52.2651C67.3972 52.0928 67.6134 51.9611 67.8491 51.8787C68.0848 51.7963 68.3349 51.7649 68.5832 51.7865C68.8218 51.7787 69.0595 51.8206 69.2815 51.9098C69.5035 51.999 69.7052 52.1336 69.874 52.3051C70.0428 52.4766 70.1752 52.6815 70.263 52.9071C70.3507 53.1327 70.3921 53.3741 70.3844 53.6166V69.3836C70.3772 69.8667 70.1851 70.328 69.8489 70.6696C69.5127 71.0113 69.0587 71.2064 68.5832 71.2137C68.3376 71.2231 68.0925 71.1832 67.862 71.0963C67.6315 71.0094 67.4202 70.8772 67.24 70.7072C67.0599 70.5372 66.9145 70.3328 66.8121 70.1057C66.7098 69.8786 66.6525 69.6332 66.6436 69.3836V69.3836ZM113.057 47.2816H99.7564V52.068H104.051V75.5777H108.762V52.068H113.057V47.2816ZM126.912 47.2816V69.3836C126.912 69.8689 126.722 70.3344 126.384 70.6776C126.046 71.0209 125.588 71.2137 125.111 71.2137C124.633 71.2137 124.175 71.0209 123.837 70.6776C123.499 70.3344 123.309 69.8689 123.309 69.3836V47.2816H118.46V69.3836C118.46 71.1757 119.161 72.8945 120.408 74.1617C121.655 75.4289 123.347 76.1409 125.111 76.1409C126.874 76.1409 128.566 75.4289 129.813 74.1617C131.06 72.8945 131.761 71.1757 131.761 69.3836V47.2816H126.912ZM170 52.068V47.2816H158.362V75.5777H170V70.7913H163.073V63.471H167.506V58.6845H163.073V52.068H170ZM95.3229 75.5777H90.3352L86.8715 62.204C87.7357 62.0302 88.5131 61.5554 89.0695 60.8615C89.626 60.1676 89.9266 59.2981 89.9196 58.403V54.0389C89.9252 53.7785 89.8789 53.5196 89.7835 53.2779C89.688 53.0362 89.5453 52.8166 89.3641 52.6324C89.1828 52.4483 88.9667 52.3033 88.7288 52.2063C88.4909 52.1093 88.2362 52.0623 87.9799 52.068H86.1788V75.5777H81.4682V47.2816H87.9799C89.7008 47.2659 91.3595 47.9344 92.602 49.1443C93.8446 50.3542 94.5724 52.0097 94.6302 53.7574V58.2622C94.6934 59.4313 94.4886 60.5993 94.0318 61.6743C93.575 62.7492 92.8787 63.7016 91.9978 64.4564L95.3229 75.5777ZM147.832 47.2816V62.7671L142.983 47.2816H138.134V75.5777H142.983V61.7816L147.417 75.5777H152.682V47.2816H147.832ZM46 47.704V76.0001H50.9877V63.8933H55.5598V59.1069H50.9877V52.4904H58.1922V47.704H46Z" fill="#3A3A3A"/>
</svg>
