<svg width="39" height="40" viewBox="0 0 39 40" fill="none" xmlns="http://www.w3.org/2000/svg">
<path d="M30.3228 24.3665C29.44 23.2651 28.5473 22.1711 27.6768 21.0549C25.7281 18.5563 24.0885 15.8508 23.0153 12.8003C22.4242 11.1371 22.0854 9.42707 22.2684 7.62586C22.6344 3.95937 25.4437 0.753662 28.8589 0.135189C33.3176 -0.673015 37.3856 2.21484 38.3352 6.86447C38.7259 8.76671 38.4712 10.6295 37.9173 12.448C36.7995 16.1021 34.831 19.2093 32.3828 22.001C31.7052 22.7698 31.0623 23.578 30.4045 24.3616C30.3698 24.3665 30.3501 24.3665 30.3228 24.3665ZM26.7 8.65336C26.7099 10.8217 28.3494 12.5687 30.3748 12.5613C32.3902 12.5564 34.0397 10.7798 34.0298 8.63119C34.0199 6.46283 32.3754 4.71583 30.3476 4.72815C28.3173 4.72569 26.6901 6.48501 26.7 8.65336Z" fill="#010101"/>
<path d="M32.774 25.7234C32.5539 25.992 32.3338 26.2581 32.1113 26.5242C31.7749 26.9259 31.3076 27.1944 30.7907 27.2856C30.5929 27.3201 30.4371 27.325 30.3233 27.325C29.6457 27.325 29.0077 27.0195 28.5848 26.4922C28.34 26.1866 28.0952 25.8836 27.8504 25.578C27.2148 24.792 26.5595 23.9764 25.919 23.1559C23.6167 20.199 21.9796 17.2964 20.9162 14.2804C20.1397 12.0899 19.8578 10.0817 20.0532 8.14743C20.1051 7.63245 20.1966 7.12486 20.3178 6.62959C19.2198 6.40536 18.0822 6.28955 16.9175 6.28955C7.57218 6.28709 0 13.832 0 23.1436C0 32.4552 7.57218 40 16.9175 40C25.7929 40 33.0658 33.1919 33.7731 24.5308C33.4417 24.9152 33.1153 25.307 32.774 25.7234ZM23.2606 27.1008C23.2606 28.2392 22.6522 29.2864 21.6606 29.8457L21.1264 30.1488C20.1273 30.7205 19.4028 31.6765 19.1233 32.7903L18.9379 33.527C18.6658 34.5422 17.8473 35.444 16.7765 35.7471C15.7848 36.0305 14.8006 35.2937 14.8006 34.2662V31.6987C14.8006 30.9743 14.3901 30.3164 13.7422 29.9344C13.0943 29.6708 12.6838 29.0129 12.6838 28.2885V25.6618C12.6838 24.484 11.9048 23.4491 10.7079 23.1263L6.94157 22.0397C5.8782 21.7366 4.97558 21.0319 4.42905 20.0783L3.81082 18.9399C5.57403 13.4624 10.7746 9.45091 16.915 9.45091C17.1474 9.45091 17.3181 9.45584 17.6025 9.46816L17.7607 9.74167C18.2034 10.5154 18.1119 11.4813 17.5283 12.1589L16.4896 13.3687C15.8145 14.1449 15.8096 15.2981 16.4699 16.089L17.3675 17.156C17.7236 17.5847 17.7583 18.1958 17.4467 18.6639C17.1301 19.1321 16.5341 19.3366 16 19.1567L14.4074 18.6492C13.9969 18.4915 13.4949 18.5309 13.0597 18.7477L12.664 18.9399C12.0705 19.243 11.7861 19.928 11.9963 20.5588C12.0952 20.8693 12.3128 21.1304 12.5972 21.2906L14.8773 22.5941C15.5178 22.9563 16.2448 23.0869 16.9199 23.0869H19.8331C20.6714 23.0869 21.485 23.4811 22.081 24.075L22.3332 24.3263C22.9267 24.9177 23.2655 25.7234 23.2655 26.5661V27.1008H23.2606Z" fill="#E63081"/>
<path d="M30.4026 25.1024C30.4446 25.0531 30.4866 25.0014 30.5287 24.9521L30.1182 24.8511C30.1874 24.9373 30.2566 25.0236 30.3259 25.1098C30.3506 25.1073 30.3704 25.1073 30.4026 25.1024Z" fill="#E63081"/>
</svg>
