<svg width="160" height="90" viewBox="0 0 160 90" fill="none" xmlns="http://www.w3.org/2000/svg">
<rect width="160" height="90" rx="10" fill="white"/>
<rect x="114" y="10" width="36.1936" height="22" rx="11" fill="#67CE67"/>
<g filter="url(#filter0_d_1302_567)">
<rect x="129.613" y="11.4194" width="19.1613" height="19.1613" rx="9.58064" fill="white"/>
</g>
<path d="M59.1115 60.1192V69.798H56.058V45.9059H64.1563C66.1097 45.8678 67.9873 46.6109 69.4097 47.9827C70.8321 49.2592 71.6287 51.1073 71.5908 53.0126C71.6287 54.9369 70.8321 56.785 69.4097 58.0806C67.9873 59.4333 66.2425 60.1192 64.1753 60.1192H59.1115V60.1192ZM59.1115 48.84V57.1851H64.2322C65.3701 57.2232 66.4701 56.766 67.2477 55.9467C68.8597 54.3844 68.8787 51.8123 67.3235 50.1928L67.2477 50.1166C66.4701 49.2783 65.3701 48.821 64.2322 48.8591L59.1115 48.84V48.84ZM78.6269 52.9173C80.8838 52.9173 82.6666 53.527 83.9752 54.7273C85.2838 55.9467 85.9286 57.6043 85.9286 59.7191V69.7789H83.008V67.5117H82.8752C81.6045 69.3788 79.9356 70.3124 77.8304 70.3124C76.0476 70.3124 74.5304 69.7789 73.3356 68.712C72.1597 67.7212 71.4959 66.2542 71.5339 64.7109C71.5339 63.0152 72.1787 61.6815 73.4494 60.6717C74.7201 59.662 76.4269 59.1666 78.5511 59.1666C80.3718 59.1666 81.8511 59.5095 83.0269 60.1573V59.4524C83.0269 58.4045 82.5718 57.4137 81.7752 56.7469C80.9597 56.0229 79.9166 55.6228 78.8356 55.6228C77.1287 55.6228 75.7821 56.3468 74.7769 57.7948L72.0839 56.0991C73.5442 53.9843 75.7252 52.9173 78.6269 52.9173V52.9173ZM74.6821 64.7871C74.6821 65.5873 75.0614 66.3304 75.6873 66.7876C76.3701 67.3211 77.2045 67.6069 78.058 67.5879C79.3476 67.5879 80.5804 67.0734 81.4907 66.1589C82.4959 65.2063 83.008 64.0822 83.008 62.7866C82.0597 62.0245 80.7321 61.6434 79.0252 61.6434C77.7925 61.6434 76.7494 61.9483 75.9149 62.5389C75.0994 63.1486 74.6821 63.8916 74.6821 64.7871V64.7871ZM102.694 53.4508L92.4907 76.9999H89.3424L93.1355 68.7691L86.4217 53.4698H89.7407L94.5769 65.2063H94.6528L99.3752 53.4698L102.694 53.4508Z" fill="#5F6368"/>
<path d="M46.765 58.0236C46.765 57.0901 46.6891 56.1565 46.5374 55.2419H33.6599V60.5195H41.0374C40.734 62.2152 39.7478 63.7394 38.3064 64.6921V68.1215H42.7064C45.2857 65.74 46.765 62.2152 46.765 58.0236Z" fill="#4285F4"/>
<path d="M33.6598 71.4368C37.3391 71.4368 40.4495 70.2174 42.7064 68.1216L38.3064 64.6921C37.0736 65.5305 35.4995 66.0068 33.6598 66.0068C30.0943 66.0068 27.0788 63.5871 25.9978 60.3481H21.4651V63.8919C23.7788 68.5027 28.5012 71.4368 33.6598 71.4368Z" fill="#34A853"/>
<path d="M25.9978 60.348C25.4288 58.6523 25.4288 56.8042 25.9978 55.0894V51.5647H21.4651C20.5019 53.4718 20 55.5802 20 57.7187C20 59.8572 20.5019 61.9656 21.4651 63.8727L25.9978 60.348V60.348Z" fill="#FBBC04"/>
<path d="M33.6598 49.4308C35.6133 49.3927 37.4909 50.1358 38.8943 51.4885L42.7822 47.5827C40.3167 45.2393 37.0547 43.9627 33.6598 44.0008C28.5012 44.0008 23.7788 46.9349 21.4651 51.5647L25.9978 55.1085C27.0788 51.8505 30.0943 49.4308 33.6598 49.4308Z" fill="#EA4335"/>
<defs>
<filter id="filter0_d_1302_567" x="122.613" y="7.41943" width="33.1613" height="33.1614" filterUnits="userSpaceOnUse" color-interpolation-filters="sRGB">
<feFlood flood-opacity="0" result="BackgroundImageFix"/>
<feColorMatrix in="SourceAlpha" type="matrix" values="0 0 0 0 0 0 0 0 0 0 0 0 0 0 0 0 0 0 127 0" result="hardAlpha"/>
<feOffset dy="3"/>
<feGaussianBlur stdDeviation="3.5"/>
<feColorMatrix type="matrix" values="0 0 0 0 0 0 0 0 0 0 0 0 0 0 0 0 0 0 0.12 0"/>
<feBlend mode="normal" in2="BackgroundImageFix" result="effect1_dropShadow_1302_567"/>
<feBlend mode="normal" in="SourceGraphic" in2="effect1_dropShadow_1302_567" result="shape"/>
</filter>
</defs>
</svg>
