<svg width="136" height="40" viewBox="0 0 136 40" fill="none" xmlns="http://www.w3.org/2000/svg">
<g clip-path="url(#clip0_901_1232)">
<path d="M130.107 0H5.00412C2.24042 0 0 2.23858 0 5V35C0 37.7614 2.24042 40 5.00412 40H130.107C132.871 40 135.111 37.7614 135.111 35V5C135.111 2.23858 132.871 0 130.107 0Z" fill="black"/>
<path d="M130.107 0.8C131.222 0.8 132.291 1.2425 133.079 2.03015C133.868 2.8178 134.31 3.88609 134.31 5V35C134.31 36.1139 133.868 37.1822 133.079 37.9698C132.291 38.7575 131.222 39.2 130.107 39.2H5.00412C3.88929 39.2 2.82012 38.7575 2.03182 37.9698C1.24352 37.1822 0.800659 36.1139 0.800659 35V5C0.800659 3.88609 1.24352 2.8178 2.03182 2.03015C2.82012 1.2425 3.88929 0.8 5.00412 0.8H130.107ZM130.107 0H5.00412C3.67694 0 2.40412 0.526784 1.46567 1.46447C0.527218 2.40215 0 3.67392 0 5V35C0 36.3261 0.527218 37.5979 1.46567 38.5355C2.40412 39.4732 3.67694 40 5.00412 40H130.107C131.434 40 132.707 39.4732 133.645 38.5355C134.584 37.5979 135.111 36.3261 135.111 35V5C135.111 3.67392 134.584 2.40215 133.645 1.46447C132.707 0.526784 131.434 0 130.107 0Z" fill="#A6A6A6"/>
<path d="M47.4592 10.24C47.4756 10.6067 47.4176 10.9729 47.2886 11.3167C47.1596 11.6604 46.9623 11.9745 46.7086 12.24C46.4243 12.5333 46.0812 12.7633 45.7017 12.9149C45.3223 13.0666 44.9151 13.1364 44.5068 13.12C44.0961 13.1291 43.6879 13.054 43.3075 12.8992C42.927 12.7443 42.5824 12.5132 42.2949 12.22C41.7118 11.6239 41.3853 10.8235 41.3853 9.98997C41.3853 9.15643 41.7118 8.356 42.2949 7.75997C42.7408 7.32465 43.3055 7.0307 43.918 6.91505C44.5306 6.79941 45.1637 6.86722 45.7378 7.10997C46.0987 7.2582 46.4206 7.48745 46.6786 7.77997L46.1481 8.30996C45.9494 8.07074 45.6975 7.8811 45.4126 7.75612C45.1277 7.63113 44.8175 7.57424 44.5068 7.58996C44.1145 7.59268 43.7288 7.69136 43.3835 7.87738C43.0382 8.0634 42.7437 8.33111 42.5258 8.65709C42.308 8.98308 42.1733 9.35742 42.1337 9.7474C42.0941 10.1374 42.1506 10.5311 42.2984 10.8942C42.4463 11.2573 42.6808 11.5787 42.9817 11.8303C43.2825 12.0819 43.6404 12.256 44.0242 12.3375C44.4079 12.419 44.8058 12.4053 45.183 12.2976C45.5603 12.19 45.9054 11.9916 46.1882 11.72C46.4939 11.3851 46.6711 10.9529 46.6886 10.5H44.5068V9.77997H47.4192C47.442 9.93233 47.4553 10.086 47.4592 10.24Z" fill="white" stroke="white" stroke-width="0.2" stroke-miterlimit="10"/>
<path d="M52.0429 7.74H49.3407V9.64H51.8027V10.36H49.3407V12.26H52.0429V13H48.5601V7H52.0429V7.74Z" fill="white" stroke="white" stroke-width="0.2" stroke-miterlimit="10"/>
<path d="M55.3255 13H54.5549V7.74H52.8735V7H57.047V7.74H55.3255V13Z" fill="white" stroke="white" stroke-width="0.2" stroke-miterlimit="10"/>
<path d="M59.9893 13V7H60.7599V13H59.9893Z" fill="white" stroke="white" stroke-width="0.2" stroke-miterlimit="10"/>
<path d="M64.183 13H63.4123V7.74H61.731V7H65.8543V7.74H64.183V13Z" fill="white" stroke="white" stroke-width="0.2" stroke-miterlimit="10"/>
<path d="M73.6707 12.2199C73.3816 12.509 73.0384 12.7383 72.6606 12.8947C72.2828 13.0512 71.8778 13.1317 71.4688 13.1317C71.0599 13.1317 70.6549 13.0512 70.2771 12.8947C69.8993 12.7383 69.5561 12.509 69.267 12.2199C68.7012 11.6189 68.3862 10.825 68.3862 9.9999C68.3862 9.17483 68.7012 8.38085 69.267 7.7799C69.5499 7.4827 69.892 7.24813 70.2713 7.09138C70.6506 6.93462 71.0585 6.85917 71.4688 6.8699C71.8786 6.86342 72.2853 6.94082 72.664 7.09732C73.0426 7.25382 73.3852 7.48612 73.6707 7.7799C73.9584 8.07239 74.1846 8.41953 74.3359 8.80083C74.4872 9.18212 74.5604 9.58984 74.5514 9.9999C74.5645 10.4105 74.4931 10.8194 74.3416 11.2012C74.1901 11.5831 73.9618 11.9298 73.6707 12.2199ZM69.8375 11.7199C70.0507 11.9358 70.3047 12.1072 70.5847 12.2242C70.8648 12.3412 71.1653 12.4014 71.4688 12.4014C71.7724 12.4014 72.0729 12.3412 72.3529 12.2242C72.633 12.1072 72.887 11.9358 73.1002 11.7199C73.532 11.251 73.7717 10.6371 73.7717 9.9999C73.7717 9.3627 73.532 8.74877 73.1002 8.2799C72.887 8.06402 72.633 7.89261 72.3529 7.77562C72.0729 7.65862 71.7724 7.59838 71.4688 7.59838C71.1653 7.59838 70.8648 7.65862 70.5847 7.77562C70.3047 7.89261 70.0507 8.06402 69.8375 8.2799C69.4057 8.74877 69.166 9.3627 69.166 9.9999C69.166 10.6371 69.4057 11.251 69.8375 11.7199Z" fill="white" stroke="white" stroke-width="0.2" stroke-miterlimit="10"/>
<path d="M75.6421 13V7H76.5729L79.4953 11.67V10.51V7H80.2659V13H79.4652L76.4127 8.11V9.26V13H75.6421Z" fill="white" stroke="white" stroke-width="0.2" stroke-miterlimit="10"/>
<path d="M68.1962 21.7499C67.353 21.7519 66.5293 22.0037 65.8292 22.4734C65.1292 22.9432 64.5843 23.6098 64.2635 24.3889C63.9426 25.1681 63.8602 26.0248 64.0266 26.8508C64.1931 27.6768 64.6009 28.4349 65.1986 29.0292C65.7962 29.6236 66.5569 30.0276 67.3843 30.19C68.2117 30.3524 69.0688 30.2661 69.8471 29.9418C70.6254 29.6175 71.2899 29.07 71.7568 28.3683C72.2236 27.6667 72.4717 26.8425 72.4697 25.9999C72.4779 25.4379 72.3728 24.8799 72.1607 24.3593C71.9485 23.8386 71.6337 23.366 71.235 22.9694C70.8362 22.5729 70.3617 22.2606 69.8397 22.051C69.3176 21.8415 68.7587 21.7391 68.1962 21.7499ZM68.1962 28.5799C67.6794 28.616 67.1636 28.496 66.716 28.2353C66.2683 27.9747 65.9095 27.5855 65.6862 27.1184C65.4628 26.6512 65.3853 26.1278 65.4637 25.6161C65.542 25.1043 65.7726 24.628 66.1255 24.249C66.4784 23.8699 66.9372 23.6057 67.4424 23.4907C67.9475 23.3757 68.4756 23.4152 68.958 23.604C69.4404 23.7929 69.8548 24.1223 70.1473 24.5496C70.4398 24.9769 70.5969 25.4822 70.5982 25.9999C70.6143 26.3279 70.5645 26.6559 70.4518 26.9643C70.3391 27.2728 70.1657 27.5556 69.9418 27.7961C69.7179 28.0366 69.4482 28.2298 69.1484 28.3644C68.8486 28.499 68.5248 28.5723 68.1962 28.5799ZM58.8686 21.7499C58.0253 21.7519 57.2016 22.0037 56.5016 22.4734C55.8015 22.9432 55.2567 23.6098 54.9358 24.3889C54.6149 25.1681 54.5325 26.0248 54.699 26.8508C54.8654 27.6768 55.2732 28.4349 55.8709 29.0292C56.4686 29.6236 57.2292 30.0276 58.0566 30.19C58.884 30.3524 59.7411 30.2661 60.5194 29.9418C61.2977 29.6175 61.9623 29.07 62.4291 28.3683C62.8959 27.6667 63.144 26.8425 63.1421 25.9999C63.1502 25.4379 63.0451 24.8799 62.833 24.3593C62.6209 23.8386 62.3061 23.366 61.9073 22.9694C61.5086 22.5729 61.0341 22.2606 60.512 22.051C59.9899 21.8415 59.431 21.7391 58.8686 21.7499ZM58.8686 28.5799C58.3517 28.616 57.8359 28.496 57.3883 28.2353C56.9407 27.9747 56.5819 27.5855 56.3585 27.1184C56.1352 26.6512 56.0576 26.1278 56.136 25.6161C56.2143 25.1043 56.4449 24.628 56.7978 24.249C57.1507 23.8699 57.6096 23.6057 58.1147 23.4907C58.6199 23.3757 59.148 23.4152 59.6304 23.604C60.1128 23.7929 60.5272 24.1223 60.8197 24.5496C61.1122 24.9769 61.2693 25.4822 61.2705 25.9999C61.2867 26.3279 61.2369 26.6559 61.1241 26.9643C61.0114 27.2728 60.838 27.5556 60.6141 27.7961C60.3903 28.0366 60.1205 28.2298 59.8207 28.3644C59.5209 28.499 59.1972 28.5723 58.8686 28.5799ZM47.7794 23.0599V24.8599H52.103C52.0352 25.7077 51.6825 26.5077 51.1022 27.1299C50.6685 27.5714 50.1468 27.9171 49.571 28.1444C48.9952 28.3718 48.378 28.4759 47.7594 28.4499C46.4853 28.4499 45.2634 27.9442 44.3625 27.044C43.4616 26.1439 42.9555 24.923 42.9555 23.6499C42.9555 22.3769 43.4616 21.156 44.3625 20.2558C45.2634 19.3556 46.4853 18.8499 47.7594 18.8499C48.9809 18.8318 50.1603 19.2952 51.0421 20.1399L52.3132 18.8699C51.7167 18.2804 51.0084 17.8158 50.2299 17.5033C49.4514 17.1908 48.6183 17.0366 47.7794 17.0499C46.8897 17.0153 46.0021 17.1605 45.1699 17.4769C44.3377 17.7932 43.578 18.2742 42.9362 18.8909C42.2945 19.5077 41.7839 20.2475 41.4352 21.0661C41.0865 21.8847 40.9067 22.7652 40.9067 23.6549C40.9067 24.5446 41.0865 25.4251 41.4352 26.2437C41.7839 27.0623 42.2945 27.8022 42.9362 28.4189C43.578 29.0357 44.3377 29.5166 45.1699 29.833C46.0021 30.1493 46.8897 30.2945 47.7794 30.2599C48.6356 30.2941 49.4892 30.1469 50.2844 29.8281C51.0796 29.5092 51.7982 29.0259 52.3932 28.4099C53.4442 27.2563 54.0042 25.7391 53.9545 24.1799C53.9581 23.8046 53.928 23.4298 53.8644 23.0599H47.7794ZM93.1267 24.4599C92.8657 23.6927 92.3776 23.0227 91.7271 22.5388C91.0765 22.0548 90.2942 21.7797 89.4837 21.7499C88.9363 21.7489 88.3944 21.86 87.8917 22.0765C87.3889 22.2929 86.9359 22.6101 86.5607 23.0085C86.1855 23.4068 85.896 23.8778 85.7102 24.3923C85.5244 24.9068 85.4462 25.454 85.4804 25.9999C85.4719 26.9128 85.7591 27.8039 86.2992 28.5402C86.8393 29.2765 87.6034 29.8184 88.4772 30.0851C89.351 30.3517 90.2876 30.3288 91.1473 30.0196C92.007 29.7105 92.7435 29.1318 93.2468 28.3699L91.7956 27.3699C91.5793 27.7302 91.2725 28.0277 90.9055 28.2329C90.5386 28.4382 90.1244 28.544 89.7039 28.5399C89.2701 28.5578 88.8411 28.4442 88.4731 28.214C88.1052 27.9837 87.8155 27.6477 87.6422 27.2499L93.3369 24.8999L93.1267 24.4599ZM87.322 25.8799C87.3017 25.5693 87.3436 25.2578 87.4453 24.9635C87.5471 24.6693 87.7065 24.3983 87.9143 24.1664C88.1222 23.9346 88.3742 23.7464 88.6557 23.6131C88.9373 23.4798 89.2426 23.4039 89.5538 23.3899C89.8763 23.3703 90.1974 23.4461 90.4769 23.608C90.7564 23.7699 90.9819 24.0106 91.1251 24.2999L87.322 25.8799ZM82.6982 29.9999H84.5697V17.4999H82.6982V29.9999ZM79.6356 22.6999H79.5656C79.286 22.3818 78.9409 22.1277 78.554 21.9551C78.1671 21.7825 77.7474 21.6955 77.3237 21.6999C76.23 21.7529 75.1986 22.2243 74.4433 23.0165C73.688 23.8087 73.2667 24.8608 73.2667 25.9549C73.2667 27.049 73.688 28.1012 74.4433 28.8933C75.1986 29.6855 76.23 30.1569 77.3237 30.2099C77.7481 30.2184 78.169 30.1332 78.5565 29.9603C78.9441 29.7875 79.2886 29.5312 79.5656 29.2099H79.6356V29.8199C79.6356 31.4499 78.7649 32.3199 77.3638 32.3199C76.8957 32.3096 76.4413 32.1606 76.0581 31.8918C75.675 31.6229 75.3805 31.2464 75.212 30.8099L73.5907 31.4799C73.8904 32.2322 74.4116 32.8758 75.0853 33.3258C75.759 33.7757 76.5535 34.0108 77.3638 33.9999C79.5556 33.9999 81.3671 32.7099 81.3671 29.5699V21.9999H79.6356V22.6999ZM77.4839 28.5799C76.8281 28.5391 76.2126 28.25 75.7628 27.7716C75.3129 27.2932 75.0624 26.6614 75.0624 26.0049C75.0624 25.3485 75.3129 24.7167 75.7628 24.2383C76.2126 23.7598 76.8281 23.4708 77.4839 23.4299C77.8044 23.4437 78.1188 23.5218 78.4085 23.6596C78.6982 23.7973 78.9572 23.9918 79.17 24.2316C79.3829 24.4714 79.5454 24.7515 79.6477 25.0553C79.7501 25.3591 79.7902 25.6803 79.7657 25.9999C79.793 26.3206 79.755 26.6435 79.6538 26.9491C79.5527 27.2546 79.3905 27.5365 79.1772 27.7777C78.9639 28.0189 78.7039 28.2143 78.4128 28.3522C78.1218 28.4901 77.8057 28.5676 77.4839 28.5799ZM101.894 17.4999H97.4103V29.9999H99.2818V25.2599H101.894C102.427 25.2982 102.963 25.2263 103.467 25.0486C103.972 24.871 104.434 24.5915 104.825 24.2274C105.217 23.8634 105.529 23.4227 105.742 22.9328C105.956 22.4428 106.066 21.9142 106.066 21.3799C106.066 20.8456 105.956 20.317 105.742 19.8271C105.529 19.3372 105.217 18.8965 104.825 18.5324C104.434 18.1684 103.972 17.8888 103.467 17.7112C102.963 17.5336 102.427 17.4616 101.894 17.4999ZM101.894 23.4999H99.2818V19.2399H101.934C102.215 19.2399 102.494 19.2953 102.754 19.4028C103.013 19.5104 103.25 19.668 103.448 19.8667C103.647 20.0654 103.805 20.3013 103.913 20.561C104.02 20.8206 104.076 21.0989 104.076 21.3799C104.076 21.6609 104.02 21.9392 103.913 22.1989C103.805 22.4585 103.647 22.6944 103.448 22.8931C103.25 23.0918 103.013 23.2495 102.754 23.357C102.494 23.4646 102.215 23.5199 101.934 23.5199L101.894 23.4999ZM113.443 21.7099C112.762 21.6679 112.083 21.8265 111.491 22.1659C110.898 22.5054 110.419 23.0109 110.111 23.6199L111.762 24.3099C111.929 24.0093 112.179 23.7634 112.483 23.6019C112.787 23.4405 113.131 23.3703 113.473 23.3999C113.711 23.3722 113.952 23.392 114.182 23.4582C114.411 23.5245 114.626 23.6358 114.812 23.7856C114.998 23.9355 115.153 24.1209 115.267 24.3311C115.381 24.5413 115.451 24.7721 115.475 25.0099V25.1299C114.873 24.8138 114.203 24.6491 113.523 24.6499C111.742 24.6499 109.921 25.6499 109.921 27.4699C109.938 27.8568 110.033 28.2361 110.201 28.5855C110.368 28.9348 110.604 29.247 110.894 29.5035C111.184 29.76 111.523 29.9557 111.891 30.0787C112.258 30.2018 112.647 30.2498 113.033 30.2199C113.503 30.2459 113.971 30.1466 114.389 29.9322C114.808 29.7178 115.162 29.3961 115.415 28.9999H115.475V29.9999H117.277V25.1899C117.277 22.9999 115.615 21.7299 113.483 21.7299L113.443 21.7099ZM113.213 28.5599C112.603 28.5599 111.752 28.2499 111.752 27.4999C111.752 26.4999 112.813 26.1599 113.754 26.1599C114.348 26.1453 114.936 26.2903 115.455 26.5799C115.392 27.123 115.135 27.6249 114.73 27.9926C114.325 28.3604 113.8 28.569 113.253 28.5799L113.213 28.5599ZM123.842 21.9999L121.7 27.4199H121.64L119.418 21.9999H117.417L120.749 29.5799L118.848 33.7899H120.799L125.924 21.9999H123.842ZM107.028 29.9999H108.89V17.4999H107.028V29.9999Z" fill="white"/>
<path d="M10.4488 7.53997C10.119 7.92959 9.95073 8.43043 9.97843 8.93997V31.06C9.94437 31.5704 10.1134 32.0735 10.4488 32.46L10.5189 32.54L22.9191 20.15V19.85L10.5189 7.46997L10.4488 7.53997Z" fill="url(#paint0_linear_901_1232)"/>
<path d="M27.0223 24.28L22.9189 20.15V19.85L27.0223 15.72L27.1124 15.78L32.0264 18.56C33.4276 19.35 33.4276 20.65 32.0264 21.45L27.1324 24.23L27.0223 24.28Z" fill="url(#paint1_linear_901_1232)"/>
<path d="M27.1425 24.22L22.919 20L10.4487 32.46C10.7315 32.7115 11.0935 32.8562 11.4719 32.869C11.8503 32.8818 12.2213 32.7619 12.5204 32.53L27.1425 24.22Z" fill="url(#paint2_linear_901_1232)"/>
<path d="M27.1425 15.78L12.5204 7.47997C12.2232 7.24488 11.8526 7.12203 11.4736 7.133C11.0947 7.14397 10.7318 7.28808 10.4487 7.53997L22.919 20L27.1425 15.78Z" fill="url(#paint3_linear_901_1232)"/>
<path opacity="0.2" d="M27.0224 24.1299L12.5204 32.3799C12.2321 32.5973 11.8808 32.7149 11.5196 32.7149C11.1584 32.7149 10.8071 32.5973 10.5188 32.3799L10.4487 32.4499L10.5188 32.5299C10.8071 32.7473 11.1584 32.8649 11.5196 32.8649C11.8808 32.8649 12.2321 32.7473 12.5204 32.5299L27.1425 24.2199L27.0224 24.1299Z" fill="black"/>
<path opacity="0.12" d="M10.4485 32.3199C10.1271 31.9233 9.96953 31.4188 10.0082 30.9099V31.0599C9.97413 31.5703 10.1432 32.0735 10.4786 32.4599L10.5486 32.3899L10.4485 32.3199Z" fill="black"/>
<path opacity="0.12" d="M32.0266 21.3L27.0225 24.13L27.1125 24.22L32.0266 21.44C32.3166 21.3174 32.5683 21.119 32.755 20.8656C32.9417 20.6122 33.0565 20.3132 33.0875 20C33.0249 20.2846 32.8963 20.5505 32.712 20.7763C32.5277 21.0021 32.293 21.1815 32.0266 21.3Z" fill="black"/>
<path opacity="0.25" d="M12.5201 7.61998L32.0262 18.7C32.2925 18.8185 32.5273 18.9979 32.7116 19.2237C32.8959 19.4495 33.0245 19.7154 33.087 20C33.0561 19.6868 32.9412 19.3878 32.7546 19.1344C32.5679 18.881 32.3162 18.6825 32.0262 18.56L12.5201 7.47998C11.129 6.67998 9.97803 7.33998 9.97803 8.93998V9.08998C10.0081 7.48998 11.129 6.82998 12.5201 7.61998Z" fill="white"/>
</g>
<defs>
<linearGradient id="paint0_linear_901_1232" x1="21.8182" y1="8.70997" x2="5.03817" y2="25.5038" gradientUnits="userSpaceOnUse">
<stop stop-color="#00A0FF"/>
<stop offset="0.01" stop-color="#00A1FF"/>
<stop offset="0.26" stop-color="#00BEFF"/>
<stop offset="0.51" stop-color="#00D2FF"/>
<stop offset="0.76" stop-color="#00DFFF"/>
<stop offset="1" stop-color="#00E3FF"/>
</linearGradient>
<linearGradient id="paint1_linear_901_1232" x1="33.8579" y1="20" x2="9.64803" y2="20" gradientUnits="userSpaceOnUse">
<stop stop-color="#FFE000"/>
<stop offset="0.41" stop-color="#FFBD00"/>
<stop offset="0.78" stop-color="#FFA500"/>
<stop offset="1" stop-color="#FF9C00"/>
</linearGradient>
<linearGradient id="paint2_linear_901_1232" x1="24.8506" y1="22.3" x2="2.09057" y2="45.0687" gradientUnits="userSpaceOnUse">
<stop stop-color="#FF3A44"/>
<stop offset="1" stop-color="#C31162"/>
</linearGradient>
<linearGradient id="paint3_linear_901_1232" x1="7.30615" y1="0.179969" x2="17.4661" y2="10.3483" gradientUnits="userSpaceOnUse">
<stop stop-color="#32A071"/>
<stop offset="0.07" stop-color="#2DA771"/>
<stop offset="0.48" stop-color="#15CF74"/>
<stop offset="0.8" stop-color="#06E775"/>
<stop offset="1" stop-color="#00F076"/>
</linearGradient>
<clipPath id="clip0_901_1232">
<rect width="135.111" height="40" fill="white"/>
</clipPath>
</defs>
</svg>
