<svg width="36" height="375" viewBox="0 0 36 375" fill="none" xmlns="http://www.w3.org/2000/svg">
<line x1="18.5" y1="2.18557e-08" x2="18.5" y2="142" stroke="white" stroke-opacity="0.4"/>
<line x1="18.5" y1="171" x2="18.5" y2="375" stroke="white" stroke-opacity="0.4"/>
<path d="M36 157C36 166.941 27.9411 175 18 175C8.05887 175 0 166.941 0 157C0 147.059 8.05887 139 18 139C27.9411 139 36 147.059 36 157ZM8.523 157C8.523 162.234 12.766 166.477 18 166.477C23.234 166.477 27.477 162.234 27.477 157C27.477 151.766 23.234 147.523 18 147.523C12.766 147.523 8.523 151.766 8.523 157Z" fill="white"/>
</svg>
