<svg width="157" height="24" viewBox="0 0 157 24" fill="none" xmlns="http://www.w3.org/2000/svg">
<path d="M0.664551 0.408524H12.1259C14.309 0.408524 15.9463 0.840637 17.1592 1.56083C18.4933 2.42505 19.221 3.67338 19.221 5.20978C19.221 6.98625 18.3114 8.09054 16.4921 8.76272V8.85874C18.9178 9.48291 20.3126 11.2114 20.3126 13.2759C20.3126 15.2444 19.3423 16.7808 17.7656 17.7411C16.4315 18.5093 14.7335 18.8454 12.4291 18.8454H0.664551V0.408524ZM10.9737 7.61041C12.1865 7.61041 13.0962 7.08228 13.0962 5.97799C13.0962 4.92171 12.1865 4.39357 10.9131 4.39357H6.97132V7.5624H10.9737V7.61041ZM11.5195 14.7643C12.9142 14.7643 13.9452 14.0921 13.9452 12.8918C13.9452 11.5955 12.8536 11.0193 11.5195 11.0193H7.03196V14.8123H11.5195V14.7643Z" fill="#1C1C1C" fill-opacity="0.53"/>
<path d="M21.3438 0.408524H27.3473V18.8934H21.3438V0.408524Z" fill="#1C1C1C" fill-opacity="0.53"/>
<path d="M28.5601 12.3156C28.5601 8.13853 31.956 5.3538 37.2319 5.3538C42.5077 5.3538 45.843 8.18654 45.843 12.3156C45.843 16.4927 42.5077 19.2775 37.2319 19.2775C31.956 19.2775 28.5601 16.4927 28.5601 12.3156ZM39.8395 12.3156C39.8395 10.011 38.9299 8.57064 37.1106 8.57064C35.2913 8.57064 34.4423 10.011 34.4423 12.3156C34.4423 14.6202 35.2913 16.1086 37.1106 16.1086C38.9299 16.0606 39.8395 14.6202 39.8395 12.3156Z" fill="#1C1C1C" fill-opacity="0.53"/>
<path d="M46.5103 12.3156C46.5103 8.13853 49.9062 5.3538 55.1821 5.3538C60.4579 5.3538 63.7326 8.13853 63.7326 12.3156C63.7326 16.4927 60.3973 19.2775 55.1214 19.2775C49.9062 19.2775 46.5103 16.4927 46.5103 12.3156ZM57.7897 12.3156C57.7897 10.011 56.88 8.57064 55.0608 8.57064C53.2415 8.57064 52.3925 10.011 52.3925 12.3156C52.3925 14.6202 53.2415 16.1086 55.0608 16.1086C56.88 16.0606 57.7897 14.6202 57.7897 12.3156Z" fill="#1C1C1C" fill-opacity="0.53"/>
<path d="M64.9453 5.68989H70.5244V7.6584H70.6457C71.7372 6.122 73.2533 5.30579 75.679 5.30579C77.8014 5.30579 79.3781 6.122 80.1665 7.56238H80.2877C81.6219 5.83393 83.3805 5.30579 85.4423 5.30579C89.3234 5.30579 90.9607 7.56238 90.9607 10.5872V18.8453H85.1391V11.4034C85.1391 10.059 84.5933 9.19481 83.1379 9.19481C81.6825 9.19481 80.9548 10.2511 80.9548 11.6915V18.8453H75.1332V11.4034C75.1332 10.059 74.5874 9.19481 73.132 9.19481C71.6766 9.19481 70.9489 10.2511 70.9489 11.6915V18.8453H64.9453V5.68989Z" fill="#1C1C1C" fill-opacity="0.53"/>
<path d="M98.2984 17.1169H98.2377V18.8454H92.6587V0.408524H98.4803V7.03426H98.6016C99.6932 5.88196 101.209 5.2578 103.332 5.2578C107.516 5.2578 109.942 8.23458 109.942 12.2196C109.942 16.6848 107.334 19.2775 102.968 19.2775C101.149 19.2775 99.2687 18.6053 98.2984 17.1169ZM103.938 12.1716C103.938 10.0591 102.968 8.66669 101.209 8.66669C99.3899 8.66669 98.2984 10.0591 98.2984 12.1716C98.2984 14.2842 99.4506 15.6765 101.209 15.6765C102.968 15.6765 103.938 14.3322 103.938 12.1716Z" fill="#1C1C1C" fill-opacity="0.53"/>
<path d="M110.609 12.2676C110.609 8.13853 114.065 5.30579 119.038 5.30579C121.524 5.30579 123.404 5.92995 124.86 7.03424C126.8 8.52263 127.649 10.8272 127.589 13.5159H116.431C116.673 15.1484 117.643 16.0126 119.402 16.0126C120.433 16.0126 121.343 15.6285 121.706 14.7643H127.346C126.376 17.7891 123.404 19.2775 119.22 19.2775C114.065 19.2294 110.609 16.4447 110.609 12.2676ZM116.431 10.8752H121.767C121.646 9.29083 120.554 8.47462 119.159 8.47462C117.522 8.42661 116.612 9.33884 116.431 10.8752Z" fill="#1C1C1C" fill-opacity="0.53"/>
<path d="M134.198 7.94648H134.319C135.532 6.122 137.109 5.40181 139.11 5.40181C139.595 5.40181 139.899 5.44982 140.08 5.54585V9.57891H139.959C136.503 9.09878 134.501 10.3951 134.501 13.3719V18.8934H128.619V5.68989H134.198V7.94648Z" fill="#1C1C1C" fill-opacity="0.53"/>
<path d="M140.687 18.8934H146.327C146.57 19.4695 147.297 19.9976 148.692 19.9976C150.572 19.9976 151.239 19.0854 151.239 17.693V16.7328H151.118C150.208 17.597 148.935 18.2212 147.116 18.2212C143.538 18.2212 140.384 16.1086 140.384 11.9795C140.384 8.18654 142.931 5.25777 146.812 5.25777C149.056 5.25777 150.39 5.97796 151.3 7.08225H151.421V5.64188H157V17.0689C157 19.1814 156.091 20.8139 154.696 21.7741C153.24 22.7824 151.179 23.2145 148.814 23.2145C144.326 23.2625 141.233 21.8221 140.687 18.8934ZM151.482 11.7875C151.482 10.1551 150.511 8.81071 148.814 8.81071C147.176 8.81071 146.145 9.96301 146.145 11.7875C146.145 13.564 147.176 14.8123 148.814 14.8123C150.451 14.8123 151.482 13.5159 151.482 11.7875Z" fill="#1C1C1C" fill-opacity="0.53"/>
</svg>
