<svg width="32" height="36" viewBox="0 0 32 36" fill="none" xmlns="http://www.w3.org/2000/svg">
<path d="M2.28294 28.4717C11.4226 28.4717 20.563 28.4717 29.7601 28.4717C29.6481 28.3559 29.5679 28.2712 29.4862 28.1887C28.3995 27.1013 27.3099 26.0161 26.2255 24.9265C25.8479 24.5473 25.7669 24.1092 25.972 23.6643C26.283 22.99 27.1699 22.7955 27.6988 23.3147C28.9444 24.5375 30.1899 25.7619 31.4014 27.0188C32.0378 27.6786 32.1574 28.5065 31.8048 29.3442C31.4385 30.2152 30.7378 30.6783 29.782 30.6821C27.4362 30.6919 25.0904 30.6881 22.7453 30.6805C22.5327 30.6798 22.4555 30.7426 22.3957 30.9499C21.8153 32.9832 20.5024 34.3022 18.4722 34.8879C18.1014 34.9946 17.7041 35.0423 17.3174 35.0559C16.5274 35.0831 15.7366 35.074 14.9458 35.0703C12.3828 35.0566 10.2875 33.46 9.61099 30.99C9.54137 30.7358 9.43392 30.6768 9.18723 30.6775C6.85881 30.6866 4.53039 30.6874 2.20273 30.6798C1.26061 30.6768 0.505411 30.1531 0.155808 29.2942C-0.172608 28.4861 0.0264089 27.5689 0.674916 26.9204C1.98252 25.6121 3.28862 24.3014 4.60228 22.9991C4.90572 22.6987 5.04193 22.3574 5.04042 21.9291C5.03209 19.323 4.9988 16.7161 5.04647 14.1107C5.11079 10.5655 6.58942 7.69979 9.37868 5.51515C10.2883 4.80308 11.3007 4.26959 12.398 3.90864C12.6492 3.82616 12.7188 3.70357 12.7128 3.44401C12.681 2.1016 13.2485 1.0717 14.4184 0.41336C16.5637 -0.794361 19.2659 0.792475 19.2811 3.25483C19.2849 3.79437 19.2886 3.78378 19.782 3.96993C22.4585 4.97788 24.4502 6.76146 25.7714 9.29344C26.0968 9.91697 25.8978 10.536 25.3015 10.8432C24.7499 11.127 24.1324 10.8825 23.8047 10.2704C22.373 7.5999 20.1566 6.00853 17.163 5.56812C13.0374 4.96123 8.98897 7.50456 7.68061 11.466C7.37565 12.3899 7.22582 13.3351 7.22658 14.3074C7.22885 16.8879 7.22885 19.4683 7.22658 22.0479C7.22582 22.9862 6.90346 23.7921 6.23301 24.4596C4.99502 25.6907 3.76459 26.9295 2.52963 28.1629C2.43958 28.253 2.33894 28.3309 2.24283 28.4149C2.25721 28.4346 2.27008 28.4528 2.28294 28.4717ZM20.1793 30.7017C17.3696 30.7017 14.6061 30.7017 11.8357 30.7017C11.8388 30.7471 11.8357 30.7729 11.8433 30.7956C11.8668 30.8606 11.8895 30.9272 11.9213 30.9878C12.5334 32.1622 13.4907 32.8198 14.8225 32.8675C15.611 32.8955 16.404 32.9083 17.1903 32.8546C17.6466 32.8236 18.1188 32.7048 18.538 32.5216C19.3348 32.1751 19.8577 31.5409 20.1793 30.7017ZM17.0616 3.31688C17.1055 2.92264 16.8944 2.54428 16.5168 2.33315C16.143 2.1243 15.6625 2.16138 15.3212 2.43758C15.0404 2.66535 14.8838 2.95366 14.908 3.31688C15.6443 3.31688 16.3435 3.31688 17.0616 3.31688Z" fill="#E72E80"/>
<path d="M24.7606 18.6329C24.5169 18.6329 24.302 18.6329 24.0878 18.6329C23.5846 18.6321 23.0806 18.6351 22.5774 18.6298C21.9599 18.623 21.4779 18.1463 21.4741 17.5462C21.4711 16.9325 21.9531 16.4444 22.582 16.4391C23.2933 16.4331 24.0046 16.4376 24.7477 16.4376C24.753 16.334 24.7606 16.2432 24.7606 16.1524C24.7613 15.5356 24.7568 14.9197 24.7598 14.3029C24.7628 13.6537 25.2403 13.155 25.8548 13.1527C26.4791 13.1497 26.9513 13.6355 26.9543 14.2908C26.9581 14.9923 26.955 15.6945 26.955 16.424C27.064 16.4293 27.1556 16.4369 27.2464 16.4376C27.854 16.4391 28.4617 16.4391 29.0701 16.4407C29.7572 16.4429 30.2415 16.8947 30.243 17.5318C30.2445 18.169 29.7587 18.6314 29.0822 18.6329C28.3883 18.6344 27.6944 18.6336 26.9671 18.6336C26.9618 18.735 26.9535 18.8266 26.9535 18.9174C26.952 19.5424 26.955 20.1675 26.952 20.7925C26.949 21.4426 26.4957 21.9117 25.8729 21.9163C25.2433 21.9208 24.7674 21.441 24.7621 20.788C24.7575 20.1804 24.7613 19.5727 24.7613 18.9643C24.7606 18.8629 24.7606 18.7608 24.7606 18.6329Z" fill="#E72E80"/>
</svg>
