<svg width="56" height="56" viewBox="0 0 56 56" fill="none" xmlns="http://www.w3.org/2000/svg"><path d="M28 53c13.8071 0 25-11.1929 25-25S41.8071 3 28 3 3 14.1929 3 28s11.1929 25 25 25zM18 20.625v-.25M38 20.625v-.25" stroke="#E72E80" stroke-width="5" stroke-linecap="round"/><path d="M38 33c-1.25 3.75-4.475 7.5-10 7.5s-8.75-3.75-10-7.5" stroke="#E72E80" stroke-width="5" stroke-linecap="round" stroke-linejoin="round"/><circle cx="28" cy="28" r="25" fill="#E72E80"/><path d="M18 18.25V18M38 18.25V18" stroke="#fff" stroke-width="5" stroke-linecap="round"/><path d="M38 30.625c-1.25 3.75-4.475 7.5-10 7.5s-8.75-3.75-10-7.5" stroke="#fff" stroke-width="5" stroke-linecap="round" stroke-linejoin="round"/></svg>