<svg width="26" height="26" viewBox="0 0 26 26" fill="none" xmlns="http://www.w3.org/2000/svg">
<path d="M15.6649 24.6136C15.1851 25.0934 14.5907 25.3333 13.8814 25.3333C13.1722 25.3333 12.5777 25.0934 12.098 24.6136L1.08419 13.5998C0.854737 13.3704 0.672426 13.0992 0.537257 12.7863C0.401254 12.4734 0.333252 12.1397 0.333252 11.7851V2.83638C0.333252 2.14802 0.578559 1.55853 1.06917 1.06792C1.55895 0.578141 2.14802 0.333252 2.83638 0.333252H11.7851C12.1397 0.333252 12.4734 0.400836 12.7863 0.536005C13.0992 0.672009 13.3704 0.854737 13.5998 1.08419L24.6136 12.1292C25.0934 12.609 25.3333 13.1981 25.3333 13.8965C25.3333 14.5957 25.0934 15.1851 24.6136 15.6649L15.6649 24.6136ZM5.96529 7.84264C6.48678 7.84264 6.92983 7.65991 7.29445 7.29445C7.65991 6.92983 7.84264 6.48678 7.84264 5.96529C7.84264 5.44381 7.65991 5.00075 7.29445 4.63613C6.92983 4.27067 6.48678 4.08795 5.96529 4.08795C5.44381 4.08795 5.00075 4.27067 4.63613 4.63613C4.27067 5.00075 4.08795 5.44381 4.08795 5.96529C4.08795 6.48678 4.27067 6.92983 4.63613 7.29445C5.00075 7.65991 5.44381 7.84264 5.96529 7.84264Z" fill="#E72E80"/>
</svg>
