<svg width="120" height="158" viewBox="0 0 120 158" fill="none" xmlns="http://www.w3.org/2000/svg"><circle opacity=".1" cx="60" cy="79" r="60" fill="url(#paint0_linear_7_5589)"/><g filter="url(#filter0_d_7_5589)"><path d="M37.9169 82.053s-16.2615-28.49-11.9832-67.725c0 0 22.6147 15.698 19.6391 67.0292l-7.6559.6958z" fill="#E72E80"/><path d="M40.9854 79.0274l-.0199.0018c-.0993.0032-.1958-.0329-.2687-.1005-.0728-.0676-.1161-.1612-.1203-.2605-.69-19.1007-12.9431-58.8826-13.0662-59.2703-.0193-.0907-.0043-.1852.042-.2655.0463-.0803.1208-.1405.2089-.1691.0882-.0286.1838-.0235.2684.0143.0847.0377.1523.1055.1899.1903.1241.4001 12.4073 40.2646 13.1023 59.4753.0023.0945-.031.1865-.0933.2577-.0623.0711-.149.1163-.2431.1265z" fill="#fff"/><path d="M47.1669 32.4939s-14.6023 33.1517-2.8563 45.8539l5.6205-.5108s8.9959-25.6958-2.7642-45.3431z" fill="#FF97C5"/><path d="M47.0496 79.3178c-.0964.0088-.1926-.02-.2682-.0805s-.1249-.1479-.1376-.2439c-1.6817-12.9823.1293-46.188.1467-46.5208.0027-.0496.0152-.0983.0367-.1431.0216-.0449.0517-.085.0888-.1182.037-.0332.0803-.0587.1272-.0752.0469-.0165.0966-.0236.1463-.0209.0497.0028.0983.0153.1431.0368.0449.0215.085.0517.1182.0887.0332.0371.0588.0803.0753.1272.0164.047.0235.0967.0208.1464-.0224.3331-1.8388 33.4792-.1603 46.3715.0065.0488.0033.0984-.0095.146-.0127.0476-.0347.0922-.0647.1313-.03.0391-.0674.0718-.1101.0964-.0427.0246-.0898.0406-.1387.047l-.014.0113z" fill="#fff"/><path d="M14.8809 47.29s15.3452 3.7254 23.4639 33.2942l-5.8519.5319S18.776 65.7181 14.8809 47.29z" fill="#FF88BD"/><path d="M35.102 80.4044c-.0879.0079-.1758-.0156-.248-.0665-.0722-.0509-.1239-.1258-.146-.2113-3.4342-13.1918-14.2483-25.7981-14.3557-25.9313-.0358-.0365-.0637-.08-.082-.1277-.0184-.0477-.0268-.0987-.0247-.1497.002-.0511.0145-.1012.0367-.1473.0221-.046.0535-.0871.0921-.1206s.0836-.0587.1324-.0742c.0487-.0154.1001-.0207.1509-.0156.0509.0051.1001.0206.1448.0455.0446.0249.0837.0587.1148.0992.112.1278 11.0391 12.8744 14.5161 26.2329.0247.0962.0101.1983-.0404.2838-.0506.0855-.133.1474-.2292.1722l-.0618.0106z" fill="#fff"/><path fill-rule="evenodd" clip-rule="evenodd" d="M42.0126 63.8164h39.6969c2.1761.0015 4.283.7637 5.9556 2.1545 1.6725 1.3907 2.8052 3.3224 3.2018 5.4601 1.421 7.6619 4.626 24.9193 4.626 24.9193l-5.8913 16.5457-26.6331.554v.047l-1.0962-.022-1.1007.022v-.047l-26.6578-.554-5.7583-17.2263s3.0765-16.5768 4.4952-24.2387c.3967-2.1385 1.5301-4.0707 3.2036-5.4616 1.6735-1.3909 3.7815-2.1526 5.9583-2.153z" fill="#fff"/><path fill-rule="evenodd" clip-rule="evenodd" d="M33.5451 67.3435c1.7909-.0902 2.2555.6332 3.4419 1.9718.5887.6595 1.0213 1.4429 1.2657 2.2921.2444.8493.2944 1.7426.1462 2.6138-1.0352 6.116-2.3457 15.1458-2.3457 15.1458 3.0517 1.6676 4.8449 2.7155 6.5748 6.276 10.2739-3.6867 29.8765-4.3718 45.0267 1.5775l-.503 15.7225-24.1835.509v.046l-1.0962-.023-1.0984.023v-.046l-26.6556-.556-5.7606-17.2282 5.1877-28.3176v-.0067z" fill="#FDF1F7"/><path fill-rule="evenodd" clip-rule="evenodd" d="M40.0351 63.8193h41.675c2.1763.0005 4.2836.7619 5.9567 2.1524 1.6731 1.3904 2.8062 3.3221 3.2029 5.46l4.6238 24.9193-5.8868 16.545-3.8028.079 5.1876-10.988s-3.2028-19.8016-4.6238-27.4612c-.8187-4.4102-3.399-6.3392-7.8942-6.3392H44.4829c-.6908-.0004-1.3725-.1571-1.994-.4584-.6215-.3013-1.1667-.7394-1.5945-1.2813-.8684-1.0952-1.1864-1.2597-.8616-2.6208l.0023-.0068z" fill="#FEF3F8"/><path fill-rule="evenodd" clip-rule="evenodd" d="M62.9365 114.521c.0959.003.1918-.008.2842-.034l.0676-.018h.0677l26.2676-.554c.2077-.004.4096-.07.5785-.191s.2968-.29.3666-.485L96.4578 96.7c.0596-.1692.0736-.351.0406-.5273l-4.6238-24.9216c-.4409-2.3731-1.6993-4.5172-3.5569-6.0604-1.8576-1.5431-4.1973-2.388-6.6131-2.388h-39.697c-2.4139.0002-4.7517.8441-6.6083 2.3855-1.8566 1.5413-3.115 3.683-3.5573 6.0539-1.4232 7.6619-4.511 24.232-4.511 24.232-.0308.1716-.0185.3482.0361.5138l5.7628 17.2231c.0667.201.194.377.3644.502.1705.126.3757.195.5874.199l26.3466.561.0677.018c.0934.025.1899.037.2865.034l1.0781-.022 1.0759.018zm-1.8856-2.055l-.0677-.016c-.066-.015-.1332-.022-.2007-.023l-25.9226-.55-5.4493-16.2902 4.4614-23.9706c.3526-1.9027 1.3609-3.622 2.8499-4.8594 1.489-1.2375 3.3647-1.9149 5.3015-1.9146h39.6969c1.9368.0005 3.8124.6782 5.3016 1.9154 1.4892 1.2372 2.4983 2.9561 2.8521 4.8586l4.5584 24.6489-5.5575 15.6119-25.9384.55c-.0706.001-.141.009-.2098.025l-.0654.016-.8368-.018-.7736.016z" fill="#E72E80"/><path fill-rule="evenodd" clip-rule="evenodd" d="M38.8002 119.131s-5.1065 26.844-5.9433 31.238c-.0142.074-.012.15.0063.222.0183.073.0523.141.0997.199.0485.058.1089.104.177.136.0682.032.1425.049.2178.049h.8255c.1109 0 .2189-.036.3076-.103.0887-.066.1533-.16.1841-.266 1.0127-3.55 8.9498-31.396 8.9498-31.396l-4.8245-.079z" fill="#fff"/><path fill-rule="evenodd" clip-rule="evenodd" d="M44.6132 119.493c.0445-.153.053-.314.0248-.47-.0282-.157-.0923-.304-.1873-.432-.0938-.125-.2152-.228-.3547-.299-.1396-.072-.2937-.11-.4505-.113l-4.8245-.081h-.018c-.2392-.001-.4711.082-.6553.234-.1842.152-.3092.365-.353.599l-5.8891 30.955c-.0501.256-.0423.52.0229.773.0651.253.186.489.3538.689.1661.202.3751.365.6119.476.2368.112.4954.169.7572.169.4866-.003.9594-.163 1.3476-.456.3882-.293.6711-.704.8064-1.171 1.4638-5.118 8.8078-30.873 8.8078-30.873zm-4.9622.676l2.6254.042-4.4772 15.701-1.0961-.262 2.9479-15.481z" fill="#E72E80"/><path fill-rule="evenodd" clip-rule="evenodd" d="M84.9183 119.131s5.1064 26.844 5.9432 31.238c.0142.074.0121.15-.0062.222-.0183.073-.0524.141-.0998.199-.0481.058-.1085.105-.1767.137-.0682.032-.1426.048-.218.048h-.8255c-.1109 0-.2186-.036-.3073-.103-.0886-.067-.1533-.16-.1844-.266-1.0127-3.55-8.9498-31.396-8.9498-31.396l4.8245-.079z" fill="#fff"/><path fill-rule="evenodd" clip-rule="evenodd" d="M79.2693 118.599c-.0945.128-.1584.275-.1865.432-.0282.156-.0199.317.0241.469 0 0 7.3439 25.756 8.7965 30.873.1354.468.4186.879.8072 1.172.3887.294.862.453 1.3491.455.2613.001.5195-.057.7558-.168.2364-.112.4451-.274.611-.476.1674-.2.2882-.435.3538-.688.0655-.252.0741-.516.0251-.772l-5.8914-30.957c-.0438-.235-.1687-.447-.3529-.599-.1842-.152-.4162-.235-.6553-.235h-.0181l-4.8245.082c-.1549.004-.3067.044-.4442.115-.1375.071-.257.173-.3497.297zm4.802 1.577l2.9479 15.482-1.0962.261-4.4772-15.7 2.6255-.043z" fill="#E72E80"/><path fill-rule="evenodd" clip-rule="evenodd" d="M45.5405 112.995s-.7172-1.803-1.7345-4.372c-2.1126-5.325-5.4724-10.0668-9.7976-13.827-4.3252-3.7603-9.4896-6.4296-15.0603-7.7843-.1376 10.6929 2.7269 20.5523 8.6702 29.5573l17.9222-3.574z" fill="#fff"/><path fill-rule="evenodd" clip-rule="evenodd" d="M32.9053 115.181l-5.2801 1.383c-5.9388-9.014-8.7965-18.8636-8.6679-29.5542 2.2081.5363 2.7472.7256 4.7771 1.6495.3857 9.3814 3.9607 18.4787 9.1709 26.5217z" fill="#FDF1F6"/><path fill-rule="evenodd" clip-rule="evenodd" d="M27.8188 117.574l17.9223-3.576c.1474-.028.2867-.089.4076-.178.121-.089.2206-.204.2916-.336.0722-.132.1143-.278.1232-.428.009-.15-.0154-.3-.0713-.439l-1.7345-4.372c-2.1758-5.475-5.6323-10.3499-10.0802-14.2168-4.4479-3.8669-9.758-6.6133-15.486-8.0096-.0805-.0198-.163-.0296-.2458-.0293-.2271-.0004-.4478.0749-.6271.214-.1218.0943-.2207.2147-.2895.3525-.0687.1377-.1054.2891-.1075.443-.1932 10.7096 2.8907 21.2232 8.8394 30.1342.1121.17.2727.304.4612.382.1885.079.3963.1.5966.059zm-7.8514-29.2411l.7488.2254c4.9916 1.5216 9.5749 4.1498 13.4077 7.6886 3.8329 3.5387 6.8164 7.8971 8.7279 12.7481l1.2834 3.225-16.0412 3.2-.2075-.329c-4.961-7.777-7.6916-16.765-7.8943-25.9851l-.0248-.773z" fill="#E72E80"/><path fill-rule="evenodd" clip-rule="evenodd" d="M77.9385 112.995s.7172-1.803 1.7344-4.372c2.1127-5.325 5.4725-10.0668 9.7976-13.827 4.3252-3.7603 9.4897-6.4296 15.0605-7.7843.137 10.6929-2.727 20.5523-8.6703 29.5573l-17.9222-3.574z" fill="#fff"/><path fill-rule="evenodd" clip-rule="evenodd" d="M104.357 88.1074c-.701 8.7301-3.52 20.9266-8.4961 28.4686l-4.1705-.832c4.8043-6.156 8.7286-18.8434 8.7086-26.5549l3.958-1.0817z" fill="#FEF3F8"/><path fill-rule="evenodd" clip-rule="evenodd" d="M78.7217 108.246c-1.015 2.553-1.7277 4.353-1.7345 4.371-.056.14-.0803.29-.0713.44.0089.15.051.296.1232.428.0712.132.1709.247.2918.336.1208.089.26.151.4074.18l17.9222 3.574c.2013.039.4097.018.5983-.063.1886-.08.3487-.215.4596-.388 5.9486-8.91 9.0326-19.4224 8.8396-30.1312-.002-.1545-.039-.3067-.108-.4449-.069-.1382-.169-.2589-.292-.3529-.121-.0945-.263-.1603-.414-.1923-.15-.032-.306-.0294-.456.0076-5.7289 1.3977-11.0392 4.1457-15.4872 8.0141-4.4479 3.8685-7.9039 8.7446-10.0791 14.2216zm24.7723-19.1304c-.202 9.2203-2.932 18.2084-7.8944 25.9854l-.2052.329-16.0502-3.209 1.2834-3.229c1.9121-4.851 4.8958-9.2084 8.7286-12.7464 3.8328-3.5379 8.4158-6.1655 13.4068-7.6866l.749-.2254-.018.782z" fill="#E72E80"/><path fill-rule="evenodd" clip-rule="evenodd" d="M37.9979 107.426H85.711l10.2625 9.142c-9.5746 6.806-58.7335 6.547-68.3036 0l10.328-9.142z" fill="#fff"/><path fill-rule="evenodd" clip-rule="evenodd" d="M31.2369 113.414c12.5858 4.599 48.0108 4.865 61.6092.361l3.133 2.789c-9.5724 6.804-58.729 6.547-68.3014 0l3.5592-3.15z" fill="#FDF1F6"/><path fill-rule="evenodd" clip-rule="evenodd" d="M27.0905 117.413c1.9262 1.319 5.4741 2.479 10.2581 3.331 6.5409 1.176 15.2314 1.837 24.4722 1.857 9.295.022 17.99-.613 24.4746-1.783 4.7907-.863 8.3454-2.044 10.2738-3.414.1252-.089.2287-.205.3029-.34.0742-.134.1171-.284.1257-.437.0086-.154-.0177-.308-.0771-.451-.0594-.142-.1502-.269-.2657-.372l-10.2626-9.142c-.186-.167-.4267-.26-.6767-.262H37.9982c-.2495.002-.49.094-.6767.26l-10.3257 9.142c-.1177.103-.2101.231-.2699.375-.0599.145-.0856.301-.0752.457.0091.154.0534.305.1296.44.0763.135.1823.251.3102.339zm11.2934-8.962h46.9326l8.9521 7.975-.812.35c-1.8044.775-4.2629 1.437-7.5289 2.028-6.2658 1.126-14.6608 1.748-23.6828 1.748h-.4308c-9.1213-.02-17.6855-.676-24.1114-1.823-3.2344-.581-5.6816-1.226-7.4838-1.971l-.8322-.343 8.9972-7.964z" fill="#E72E80"/><path fill-rule="evenodd" clip-rule="evenodd" d="M90.6532 110.386c-9.2949.948-47.7468.933-56.8952 0l-3.3088-7.295c21.1702-6.4652 42.3426-6.4156 63.5106 0l-3.3066 7.295z" fill="#fff"/><path fill-rule="evenodd" clip-rule="evenodd" d="M38.1779 104c-.7412.103-1.4956-.037-2.1508-.398-.6552-.361-1.1761-.924-1.4851-1.605 21.1702-6.4653 38.2489-5.0951 59.4191 1.318l-2.3998 5.298h-.0429c-.3737.038-.7508-.024-1.093-.178-.3422-.155-.6375-.397-.8558-.703-.2186-.305-.3525-.663-.3881-1.037-.0357-.374.0282-.751.1852-1.092-18.1411-5.497-33.8191-3.991-51.1888-1.603z" fill="#FDF1F7"/><path fill-rule="evenodd" clip-rule="evenodd" d="M33.3217 105.39c.7093-.206 1.4689-.149 2.1397.16.6707.309 1.2075.849 1.512 1.521 7.9754.814 36.1197.935 49.5828.325.3215-.02.6425.045.9318.186.2893.141.537.355.7192.62.182.265.2925.572.3205.892.0281.32-.0271.641-.1603.934-.0509.111-.1302.208-.2299.279-.0997.072-.2164.116-.3385.129-9.8836.901-45.0177.869-54.0397-.05l-2.0503-4.518c.5368-.163 1.0759-.323 1.6127-.478z" fill="#FDF1F6"/><path fill-rule="evenodd" clip-rule="evenodd" d="M94.2591 102.111c-10.6573-3.2293-21.4431-4.8699-32.0576-4.8766h-.0586c-10.847.0321-21.629 1.6756-31.9922 4.8766-.14.042-.2694.114-.3795.211-.1101.096-.1983.215-.2588.348-.0597.133-.0905.277-.0905.422 0 .146.0308.29.0905.423l3.3066 7.294c.075.164.1911.304.337.409.1459.105.3166.17.4953.189 9.34.951 47.7626.951 57.1027 0 .1783-.02.3485-.085.494-.189.1455-.105.2613-.246.3361-.409l3.3088-7.296c.0602-.133.0914-.277.0914-.423 0-.146-.0312-.29-.0914-.422-.0602-.133-.1478-.251-.257-.347-.1093-.096-.2377-.167-.3768-.21zm-4.2855 7.313l-.3316.027c-5.1155.414-16.2577.622-27.4067.622-11.1489 0-22.3092-.208-27.4495-.625l-.3315-.024-2.5804-5.691.6271-.18c19.6409-5.6629 39.6338-5.6629 59.4214 0l.6292.178-2.578 5.693z" fill="#E72E80"/><path fill-rule="evenodd" clip-rule="evenodd" d="M59.582 66.4592l1.7775-8.6134 13.6106-11.2341 1.0491-7.3812h8.949l1.0262 7.3812L99.624 57.8458l1.759 7.9382-20.8777 3.8795-20.9233-3.2043z" fill="#fff"/><path fill-rule="evenodd" clip-rule="evenodd" d="M80.4917 41.672c.7171 0 1.1443-.2784 1.1634-.3814V2.38146C81.6207 2.2861 81.2088 2 80.4917 2c-.7172 0-1.1445.27847-1.1636.38146V41.2906c.0344.103.4464.3814 1.1636.3814z" fill="#000"/><path fill-rule="evenodd" clip-rule="evenodd" d="M75.9707 39.5712l.0495-.328h8.9415l1.0414 7.3851 13.6259 11.234 1.766 7.9382-3.559.66-.5453-.1374-20.6411-17.1162-.6789-9.6357z" fill="#FEF4F8"/><path fill-rule="evenodd" clip-rule="evenodd" d="M60.7386 57.1026c-.1713.1365-.2877.3301-.328.5454l-1.7814 8.6211c-.0267.1237-.0277.2515-.0028.3756.025.1241.0752.2416.1477.3453.0758.1125.1732.2089.2865.2836.1133.0746.2402.126.3734.1513l20.9423 3.2005c.1186.0207.2399.0207.3585 0l20.8472-3.9024c.266-.0569.499-.214.652-.4387.126-.2111.166-.4618.115-.7018l-1.767-7.965c-.054-.2092-.173-.396-.339-.534L86.8917 46.0898l-.969-7.0151c-.0314-.2316-.1457-.4439-.3218-.5975-.1761-.1537-.4019-.2382-.6355-.2379h-8.9491c-.236.0017-.4635.0888-.6402.2452-.1767.1563-.2907.3715-.3211.6055l-.9958 6.9998-13.3206 11.0128zm14.858-9.7464c.0886-.0664.1628-.15.2185-.2456.0557-.0957.0917-.2015.1058-.3113l.9537-6.5993h7.2477l.9116 6.5497c.039.2414.1637.4608.3511.618l13.3778 11.0166 1.4572 6.626-19.7102 3.6696-19.7826-3.025 1.5259-7.2783 13.3435-11.0204z" fill="#E72E80"/><path fill-rule="evenodd" clip-rule="evenodd" d="M59.6553 66.8282c13.9004-5.1497 27.8277-5.8669 41.7277-.4616-12.8548 7.2402-26.9499 6.874-41.7277.4616z" fill="#fff"/><path fill-rule="evenodd" clip-rule="evenodd" d="M101.743 65.4591c-6.3899-2.5152-13.1948-3.8092-20.0616-3.8146-7.2287 0-14.6519 1.4306-22.3803 4.2877-.1846.0729-.3434.1986-.4567.3615-.1134.1629-.1762.3556-.1803.554-.0004.189.0557.3739.1611.5309.1053.1569.2552.2789.4302.3503 15.64 6.7862 29.9753 6.6145 42.6286-.5074.158-.0887.289-.2202.376-.3793.088-.1591.129-.3395.12-.5209-.015-.1889-.083-.3697-.196-.5221-.112-.1523-.265-.2701-.441-.3401zm-7.1949 2.9755c-4.2993 1.5283-8.8302 2.3026-13.3931 2.2887-4.5971-.0323-9.166-.7207-13.5685-2.0446l-6.1034-1.7891 6.1759-1.5258c9.1551-2.2659 18.1614-2.3384 26.7252-.2136l5.5159 1.3694-5.352 1.915z" fill="#E72E80"/></g><defs><linearGradient id="paint0_linear_7_5589" x1="60" y1="19" x2="60" y2="139" gradientUnits="userSpaceOnUse"><stop stop-color="#E72E80" stop-opacity=".5"/><stop offset="1" stop-color="#E72E80"/></linearGradient><filter id="filter0_d_7_5589" x="10.8809" y="0" width="98.6855" height="158.001" filterUnits="userSpaceOnUse" color-interpolation-filters="sRGB"><feFlood flood-opacity="0" result="BackgroundImageFix"/><feColorMatrix in="SourceAlpha" values="0 0 0 0 0 0 0 0 0 0 0 0 0 0 0 0 0 0 127 0" result="hardAlpha"/><feOffset dy="2"/><feGaussianBlur stdDeviation="2"/><feComposite in2="hardAlpha" operator="out"/><feColorMatrix values="0 0 0 0 0.905882 0 0 0 0 0.180392 0 0 0 0 0.501961 0 0 0 0.15 0"/><feBlend in2="BackgroundImageFix" result="effect1_dropShadow_7_5589"/><feBlend in="SourceGraphic" in2="effect1_dropShadow_7_5589" result="shape"/></filter></defs></svg>