<?xml version="1.0" encoding="utf-8"?>
<!-- Generator: Adobe Illustrator 25.0.1, SVG Export Plug-In . SVG Version: 6.00 Build 0)  -->
<svg version="1.0" id="Layer_1" xmlns="http://www.w3.org/2000/svg" xmlns:xlink="http://www.w3.org/1999/xlink" x="0px" y="0px"
	 viewBox="0 0 323 199" style="enable-background:new 0 0 323 199;" xml:space="preserve">
<style type="text/css">
	.st0{fill-rule:evenodd;clip-rule:evenodd;fill:#81539E;}
</style>
<g id="Page-1">
	<path id="homebase" class="st0" d="M45,116.5h6.2v-11.4c0-1.2,0.1-2.2,0.4-3.2c0.9-3,3.5-5.2,6.7-5.2s3.9,2,3.9,5.1v14.7h6.1v-16
		c0-6.6-3.1-9.4-8.6-9.4c-4.3,0-7.3,2.5-8.6,4.9c0,0,0.1-0.9,0.1-2.1v-12H45C45,81.9,45,116.5,45,116.5z M73,104.1
		c0,7.6,6.1,13,13.7,13c7.5,0,13.6-5.4,13.6-13s-6.1-13-13.7-13C79.1,91.1,73,96.5,73,104.1z M79.3,104.1c0-4.6,3.4-7.7,7.4-7.7
		s7.3,3.2,7.3,7.7c0,4.6-3.4,7.7-7.3,7.7C82.7,111.8,79.3,108.7,79.3,104.1z M105.3,116.5h6.2v-10.9c0-1.1,0-2.2,0.3-3.2
		c0.8-3.2,2.9-5.7,6.1-5.7c2.9,0,3.4,2.3,3.4,5v14.8h6.2v-10.9c0-1.2,0-2.2,0.3-3.2c0.7-3.1,2.8-5.6,6-5.6c2.9,0,3.4,2.1,3.4,5v14.8
		h6.2v-16c0-6.5-3-9.4-8.1-9.4c-3.9,0-7.1,2.4-8.5,5.1h-0.1c-1-3.4-3.5-5.1-7.3-5.1c-3.9,0-6.9,2.7-8.1,5.2h-0.1
		c0,0,0.1-0.8,0.1-1.7v-2.9h-5.9L105.3,116.5L105.3,116.5z M148,104.1c0,7.1,5.1,13,13.3,13c6.2,0,10-3.6,10-3.6l-2.4-4.4
		c0,0-3.2,2.7-7.2,2.7c-3.7,0-7.1-2.2-7.4-6.6h17.1c0,0,0.1-1.7,0.1-2.4c0-6.6-3.8-11.8-11-11.8C153.2,91.1,148,96.4,148,104.1z
		 M154.5,101c0.6-3.2,2.8-5.2,5.9-5.2c2.7,0,4.8,1.8,4.9,5.2H154.5z M176.7,116.5h5.8v-1.4c0-1-0.1-1.7-0.1-1.7h0.1
		c0,0,2.2,3.7,7.4,3.7c6.6,0,11.4-5.1,11.4-13c0-7.7-4.3-13-11-13c-5.3,0-7.4,3.6-7.4,3.6h-0.1c0,0,0.1-0.9,0.1-2.1V81.9h-6.2V116.5
		z M182.7,104.2c0-5.5,3-7.8,6.2-7.8c3.7,0,6.2,3.1,6.2,7.8c0,4.9-2.8,7.7-6.2,7.7C184.7,111.9,182.7,108.1,182.7,104.2z
		 M204.4,109.3c0,5,4,7.7,8.4,7.7c5.6,0,7.6-4.4,7.5-4.4h0.1c0,0-0.1,0.8-0.1,1.8v2h5.7v-15.5c0-6.3-3.8-9.9-10.3-9.9
		c-5.9,0-9.7,3.1-9.7,3.1l2.3,4.4c0,0,3.3-2.4,6.8-2.4c2.7,0,4.8,1.1,4.8,4.4v0.3h-0.8C215,100.9,204.4,101.4,204.4,109.3z
		 M210.6,109c0-3.5,5.1-3.9,8.3-3.9h1.1v0.6c0,3-2.3,6.5-5.6,6.5C211.8,112.2,210.6,110.7,210.6,109z M230.3,113.4
		c0,0,3.5,3.7,9.6,3.7c5.9,0,9.5-3.3,9.5-7.4c0-8-12.1-7.5-12.1-11c0-1.6,1.6-2.2,3.2-2.2c3.8,0,6.1,2.1,6.1,2.1l2.3-4.6
		c0,0-2.7-2.8-8.3-2.8c-5.4,0-9.5,2.7-9.5,7.3c0,8,12.1,7.5,12.1,11.2c0,1.5-1.5,2.2-3.3,2.2c-4,0-6.8-2.7-6.8-2.7L230.3,113.4z
		 M252.7,104.1c0,7.1,5.1,13,13.3,13c6.2,0,10-3.6,10-3.6l-2.4-4.4c0,0-3.2,2.7-7.2,2.7c-3.7,0-7.1-2.2-7.4-6.6h17.1
		c0,0,0.1-1.7,0.1-2.4c0-6.6-3.8-11.8-11-11.8C257.9,91.1,252.7,96.4,252.7,104.1L252.7,104.1z M259.2,101c0.6-3.2,2.8-5.2,5.9-5.2
		c2.7,0,4.8,1.8,4.9,5.2H259.2L259.2,101z"/>
</g>
</svg>
