<svg width="30" height="31" viewBox="0 0 30 31" fill="none" xmlns="http://www.w3.org/2000/svg"><path opacity=".1" fill-rule="evenodd" clip-rule="evenodd" d="M0 15.2693C0 6.98502 6.71573.269287 15 .269287c8.2843 0 15 6.715733 15 15.000013 0 8.2843-6.7157 15-15 15-8.28427 0-15-6.7157-15-15z" fill="#fff"/><path fill-rule="evenodd" clip-rule="evenodd" d="M15.001 7.26953c-2.1727 0-2.4454.0095-3.2987.04834-.8517.039-1.433.17383-1.94169.37167-.52618.20433-.97251.47767-1.41719.92251-.445.44467-.71834.891-.92334 1.41705-.19833.5088-.33333 1.0903-.37167 1.9416-.03817.8534-.04817 1.1262-.04817 3.2989s.00967 2.4445.04834 3.2979c.03917.8517.174 1.433.37167 1.9417.2045.5261.47784.9725.92267 1.4172.44451.445.89085.719 1.41669.9233.50899.1978 1.09049.3327 1.94199.3717.8534.0388 1.1259.0483 3.2984.0483 2.1728 0 2.4447-.0095 3.298-.0483.8517-.039 1.4337-.1739 1.9427-.3717.526-.2043.9717-.4783 1.4162-.9233.445-.4447.7183-.8911.9233-1.4171.1967-.5088.3317-1.0903.3717-1.9417.0383-.8533.0483-1.1253.0483-3.298s-.01-2.4453-.0483-3.2987c-.04-.8517-.175-1.433-.3717-1.9417-.205-.52615-.4783-.97248-.9233-1.41715-.445-.44501-.89-.71835-1.4167-.92251-.51-.19784-1.0917-.33267-1.9433-.37167-.8534-.03884-1.1251-.04834-3.2984-.04834h.0025zm-.7177 1.44166c.213-.00033.4507 0 .7177 0 2.136 0 2.3891.00767 3.2327.046.78.03567 1.2033.166 1.4853.2755.3733.14501.6395.31834.9193.59834.2801.28001.4534.54667.5987.91997.1095.2817.24.7051.2755 1.4851.0384.8433.0467 1.0966.0467 3.2317 0 2.135-.0083 2.3883-.0467 3.2317-.0356.78-.166 1.2033-.2755 1.485-.145.3733-.3186.6391-.5987.919-.28.28-.5458.4533-.9193.5983-.2817.11-.7053.24-1.4853.2757-.8434.0383-1.0967.0467-3.2327.0467-2.1362 0-2.3894-.0084-3.2327-.0467-.78-.036-1.2034-.1663-1.4856-.2758-.37329-.145-.63996-.3184-.91997-.5984-.28-.28-.45333-.546-.59867-.9195-.1095-.2817-.24-.705-.2755-1.485-.03834-.8433-.046-1.0967-.046-3.233 0-2.1364.00766-2.3884.046-3.2317.03567-.78.166-1.2034.2755-1.4854.145-.3733.31867-.64.59867-.92.28001-.28.54668-.45334.91997-.59867.282-.11.7056-.24001 1.4856-.27584.738-.03333 1.024-.04333 2.515-.045v.002zm4.988 1.32831c-.53 0-.96.4295-.96.9597 0 .53.43.96.96.96s.96-.43.96-.96-.43-.9597-.96-.9597zm-4.2703 1.1217c-2.2689 0-4.1084 1.8395-4.1084 4.1084 0 2.2689 1.8395 4.1075 4.1084 4.1075 2.2689 0 4.1077-1.8386 4.1077-4.1075s-1.8388-4.1084-4.1077-4.1084zm0 1.4417c1.4727 0 2.6667 1.1938 2.6667 2.6667 0 1.4727-1.194 2.6667-2.6667 2.6667-1.4729 0-2.6667-1.194-2.6667-2.6667 0-1.4729 1.1938-2.6667 2.6667-2.6667z" fill="#fff"/></svg>