<?xml version="1.0" encoding="utf-8"?>
<!-- Generator: Adobe Illustrator 25.2.3, SVG Export Plug-In . SVG Version: 6.00 Build 0)  -->
<svg version="1.1" id="Layer_1" xmlns="http://www.w3.org/2000/svg" xmlns:xlink="http://www.w3.org/1999/xlink" x="0px" y="0px"
	 width="168.7px" height="40px" viewBox="0 0 168.7 40" style="enable-background:new 0 0 168.7 40;" xml:space="preserve">
<style type="text/css">
	.st0{fill-rule:evenodd;clip-rule:evenodd;fill:#231F20;}
	.st1{fill:#231F20;}
</style>
<path class="st0" d="M24.7,17.5c-3.5,5.8-10.4,5.1-19.8-0.6c-2.3-1.4-4.3,0.3-4.9,2.3C-1.3,13.6,1.9,12,5.3,14
	C13.2,18.5,19.1,23.3,24.7,17.5z"/>
<path class="st0" d="M20.2,27.2c9.2-1.2,12.1-9.1,14.4-18l2.7-0.5L34.9,8c-1.4-1.4-2.8-1.7-4-1.2c-1.3,0.5-2.2,1.7-2.8,2.9
	c-2.3,4.5-2,11.6-9,12.6c-4.8,0.7-9.7-1.6-14.7-4.7c-1.9-1.2-5.3,1.6-2.3,4c3.9,3.2,9.5,5.9,16.3,5.6c0.4,1.3,0.4,2.8,0.1,4.1
	c-2.4,1.1-8.4,1.1-9.4,2.2h20.2c-0.9-1.1-7-1.1-9.4-2.2C19.7,30,19.7,28.5,20.2,27.2L20.2,27.2z M32.7,7.5c0.1,0,0.2,0,0.3,0.1
	c0.1,0.1,0.1,0.1,0.2,0.2c0,0.1,0,0.2,0,0.3c0,0.1-0.1,0.2-0.1,0.3c-0.1,0.1-0.2,0.1-0.3,0.1c-0.1,0-0.2,0-0.3,0
	c-0.1,0-0.2-0.1-0.2-0.2c-0.1-0.1-0.1-0.2-0.1-0.3c0-0.1,0-0.1,0-0.2c0-0.1,0.1-0.1,0.1-0.2c0,0,0.1-0.1,0.2-0.1
	C32.5,7.5,32.6,7.5,32.7,7.5z"/>
<path class="st1" d="M41.3,28c0.3,0.4,0.7,0.8,1.1,1c0.4,0.2,0.8,0.3,1.2,0.3c0.8,0,1.3-0.2,1.6-0.7c0.3-0.5,0.5-1.4,0.5-2.8V8.6
	h3.8v18.5c0,2-0.4,3.5-1.3,4.4c-0.9,0.9-2.3,1.4-4.1,1.4c-1,0-1.9-0.2-2.8-0.6c-0.9-0.5-1.7-1.1-2.4-1.9L41.3,28L41.3,28z"/>
<path class="st1" d="M74.8,20.5c0-1.2-0.2-2.3-0.7-3.4c-0.4-1.1-1.1-2.1-1.9-2.9c-0.8-0.8-1.7-1.5-2.8-1.9c-1.6-0.7-3.3-0.9-5-0.5
	c-1.7,0.3-3.2,1.2-4.4,2.4c-0.8,0.8-1.4,1.8-1.9,2.9c-0.4,1.1-0.6,2.3-0.6,3.4c0,1.2,0.2,2.3,0.6,3.4c0.4,1.1,1.1,2,1.9,2.9
	c0.8,0.8,1.7,1.5,2.8,1.9c1.1,0.4,2.2,0.7,3.3,0.7c1.1,0,2.2-0.2,3.3-0.7c2.1-0.9,3.8-2.7,4.7-4.8C74.6,22.8,74.8,21.7,74.8,20.5z
	 M78.9,20.5c0,1.6-0.3,3.3-0.9,4.8c-0.6,1.5-1.6,2.9-2.8,4C74,30.5,72.6,31.4,71,32c-2.3,0.9-4.9,1.2-7.3,0.7
	c-2.5-0.5-4.7-1.7-6.5-3.4c-1.2-1.1-2.1-2.5-2.8-4c-1-2.3-1.2-4.8-0.7-7.2s1.7-4.6,3.5-6.4c1.2-1.2,2.6-2.1,4.1-2.7
	c3.1-1.2,6.6-1.2,9.7,0c1.5,0.6,2.9,1.5,4.1,2.7c1.2,1.2,2.1,2.5,2.8,4.1C78.6,17.3,78.9,18.9,78.9,20.5L78.9,20.5z"/>
<path class="st1" d="M87.2,32.3V21.5l-8-12.8h4l5,8c0.1,0.2,0.3,0.5,0.4,0.8c0.2,0.3,0.4,0.7,0.5,1.1c0.1-0.4,0.3-0.7,0.5-1.1
	c0.2-0.3,0.3-0.6,0.5-0.9l5.1-7.9h3.9L91,21.5v10.8H87.2z"/>
<path class="st1" d="M105.5,18.6h1.5c1.8,0,3.1-0.3,3.9-0.8c0.8-0.5,1.1-1.3,1.1-2.5c0-1.3-0.4-2.2-1-2.7c-0.7-0.5-2-0.8-4-0.8h-1.5
	L105.5,18.6L105.5,18.6z M105.5,29.1h1.3c1,0,2,0,3-0.2c0.6-0.1,1.1-0.3,1.6-0.6c0.5-0.3,0.9-0.7,1.1-1.3c0.3-0.6,0.4-1.2,0.4-1.9
	c0-0.6-0.2-1.3-0.5-1.8c-0.3-0.6-0.8-1-1.3-1.3c-0.4-0.2-0.8-0.3-1.3-0.4c-0.6-0.1-1.2-0.1-1.9-0.1h-2.5L105.5,29.1L105.5,29.1z
	 M101.7,32.3V8.6h6c1.3,0,2.5,0.1,3.8,0.3c0.7,0.2,1.5,0.5,2.1,0.9c0.7,0.5,1.3,1.3,1.7,2.1c0.4,0.9,0.6,1.9,0.6,2.9
	c0,1.1-0.3,2.2-0.9,3.2c-0.6,0.9-1.5,1.5-2.5,1.8c0.6,0.1,1.3,0.3,1.8,0.6c0.6,0.3,1.1,0.8,1.4,1.3c0.8,1.1,1.2,2.5,1.2,3.9
	c0,0.9-0.2,1.9-0.5,2.7c-0.3,0.8-0.8,1.6-1.4,2.2c-0.7,0.7-1.5,1.1-2.4,1.4c-1,0.3-2.6,0.4-4.8,0.4L101.7,32.3z"/>
<path class="st1" d="M120.9,32.3V8.6h3.9v23.7H120.9z"/>
<path class="st1" d="M134.1,18.7h0.7c2,0,3.4-0.2,4.1-0.7c0.7-0.5,1-1.3,1-2.5c0-1.3-0.4-2.2-1.1-2.8c-0.7-0.5-2-0.8-4-0.8h-0.7
	L134.1,18.7L134.1,18.7z M133.9,21.7v10.6h-3.6V8.6h5.4c1.2,0,2.5,0.1,3.7,0.3c0.9,0.2,1.7,0.6,2.4,1.1c0.7,0.6,1.2,1.3,1.6,2.1
	c0.4,0.9,0.6,2,0.6,3c0,1.9-0.5,3.4-1.4,4.5c-0.9,1.1-2.3,1.7-4.1,1.9l8.2,10.8h-4.4l-7.9-10.6L133.9,21.7L133.9,21.7z"/>
<path class="st1" d="M152.7,28.8h3.2c1.3,0,2.7-0.1,4-0.4c0.9-0.2,1.6-0.6,2.3-1.2c0.9-0.8,1.6-1.8,2-2.9c0.9-2.6,0.9-5.4,0-7.9
	c-0.4-1.1-1.1-2.1-2-2.9c-0.7-0.6-1.5-1-2.4-1.2c-0.9-0.2-2.4-0.4-4.4-0.4h-2.8L152.7,28.8L152.7,28.8z M148.8,32.3V8.6h5.2
	c3.4,0,5.8,0.2,7.1,0.5c1.3,0.3,2.5,0.9,3.6,1.7c1.4,1,2.4,2.4,3.1,4c0.7,1.8,1.1,3.7,1.1,5.6c0,1.9-0.3,3.8-1.1,5.6
	c-0.7,1.6-1.7,3-3.1,4c-1,0.8-2.3,1.4-3.5,1.7c-1.3,0.3-3.4,0.5-6.2,0.5L148.8,32.3L148.8,32.3z"/>
</svg>
