<svg width="120" height="158" viewBox="0 0 120 158" fill="none" xmlns="http://www.w3.org/2000/svg"><circle opacity=".1" cx="60" cy="75" r="60" fill="url(#paint0_linear_7_5588)"/><g filter="url(#filter0_d_7_5588)"><path d="M88.5209 7.58403c.1465-.19977.2727-.37342.3775-.51854l.6401 2.38313C82.3147 23.6759 75.3331 31.5865 70.1695 35.9377c-2.5882 2.1809-4.7208 3.4686-6.2002 4.2097-.7398.3706-1.3166.6046-1.7057.7454-.1945.0704-.3422.1174-.4398.1466-.0161.0048-.0308.0091-.0441.0129-.4922-.2449-.954-.7764-1.3724-1.5021-.4386-.7607-.8039-1.6893-1.0963-2.5976-.2918-.9064-.5077-1.7822-.6508-2.4322-.0715-.3247-.1246-.5923-.1598-.7784-.0008-.0045-.0017-.0089-.0025-.0133 3.5218-.8687 7.1646-2.958 10.6471-5.5951 3.578-2.7095 7.0063-6.0123 9.9849-9.2079 2.9794-3.1964 5.5134-6.2903 7.3024-8.5848.8946-1.14746 1.6033-2.09542 2.0886-2.75687z" fill="#fff" stroke="#000" stroke-width=".6"/><path d="M18.2537 102.462h-.0001l.0053.004c.1599.142.2619.338.2865.55.0246.213-.0299.427-.1531.601 0 .001 0 .001-.0001.001l-2.2129 3.123h-.0006c-1.8206 2.534-3.342 3.625-4.4914 4.036-1.1378.407-1.94157.159-2.36922-.064l-.00262-.002c-.07075-.036-.12756-.094-.16156-.166-.03358-.071-.04301-.15-.02689-.227.41266-1.704 1.54989-3.82 2.74479-5.714 1.1907-1.887 2.4184-3.523 2.9845-4.255l.0008-.001c.0496-.065.1207-.11.2006-.127.0786-.016.1605-.005.2313.033 1.0657.626 2.0599 1.366 2.9647 2.208z" fill="#E72E80" stroke="#000" stroke-width=".6"/><path d="M40.5791 91.0852c-.0099.1078-.0225.2415-.0384.3987-.0468.4648-.1214 1.1359-.2321 1.959-.2215 1.6465-.5874 3.8988-1.1645 6.3232-.5775 2.4259-1.3648 5.0159-2.4271 7.3419-1.0637 2.329-2.3935 4.372-4.0449 5.724-2.8234 2.309-6.4694 1.397-9.7938-.489-3.3042-1.875-6.1545-4.642-7.2577-5.779h.0001l-.0028-.003c-.1276-.128-.2219-.285-.2749-.458-.053-.173-.0631-.356-.0293-.533h.0002l.0017-.011c.0716-.47.2474-.919.5147-1.312.2673-.393.6193-.722 1.03-.961h.0001c.2639-.154.5702-.22.874-.186.3037.033.5886.163.8128.371h.0003c.9285.858 2.6156 2.338 4.3877 3.479.8854.57 1.8039 1.063 2.668 1.35.8574.284 1.706.379 2.421.089.4785-.191.8894-.645 1.2468-1.219.3631-.583.6982-1.334 1.0064-2.185.617-1.703 1.1422-3.847 1.5679-5.9403.4262-2.0959.7548-4.1518.9768-5.683.111-.7658.1955-1.4009.2522-1.8447.0223-.1748.0403-.32.054-.4318h7.4508zM24.8689 39.7353c-.004-.0021-.0082-.0043-.0125-.0067-.0639-.0346-.1607-.0896-.2873-.1686-.2531-.1581-.6253-.4126-1.0902-.7928-.9298-.7604-2.2319-2.0248-3.6963-4.0298-2.9101-3.9845-6.4646-10.899-9.0052-22.6022l2.0665-1.0585c.0724.1409.1723.3349.2974.576.2798.5395.685 1.3151 1.1872 2.2594 1.0044 1.8884 2.3967 4.4528 3.9483 7.1557 1.5514 2.7023 3.2638 5.5462 4.9081 7.9925 1.6393 2.4387 3.2275 4.5076 4.5315 5.6391 1.2502 1.0848 1.6003 1.9001 1.5588 2.4843-.0411.5798-.4787 1.0679-1.1565 1.4729-.6685.3995-1.4999.6741-2.1765.8492-.336.087-.6289.1482-.8375.1877-.0995.0188-.1797.0326-.2358.0418z" fill="#fff" stroke="#000" stroke-width=".6"/><path d="M12.1606 7.93858l-.0109.11762.0723.09346c1.4353 1.85704 2.1374 4.17644 1.9738 6.51644l-.5281 1.1123-1.6582-1.3149-.0181-.0179c-.0193-.019-.0478-.0474-.0847-.0844-.0737-.0741-.1805-.1829-.3118-.3204-.2626-.2752-.6226-.6649-1.0114-1.1225-.78309-.9217-1.66275-2.0953-2.11497-3.15547-.40545-.9505-.03143-1.88022.64109-2.67768.67118-.79586 1.58448-1.38663 2.06908-1.60483.2174-.09789.37-.10183.4747-.0689.1016.03193.2096.11466.3068.29939.204.38783.3028 1.12046.2004 2.22777zM89.4926 10.3095l-.0108-.1177.0722-.0934c1.4354-1.85702 2.1375-4.17642 1.9739-6.51649l-.5281-1.11228-1.6582 1.31493-.0182.01787c-.0192.019-.0478.04738-.0847.08444-.0737.07411-.1805.18284-.3117.32036-.2627.27517-.6226.66488-1.0115 1.12256-.7831.92166-1.6627 2.09528-2.1149 3.15543-.4055.9505-.0315 1.88018.6411 2.67768.6711.7959 1.5845 1.3866 2.069 1.6048.2174.0979.37.1019.4748.0689.1015-.0319.2095-.1146.3067-.2994.2041-.3878.3028-1.1204.2004-2.2277z" fill="#fff" stroke="#000" stroke-width=".6"/><path d="M55.743 137.178c-.044.061-.107.106-.179.127l-11.7983-.344c-.0215-.978.1461-2.143.323-3.074.088-.463.1775-.864.2448-1.149.0184-.078.0351-.147.0496-.206l4.5685.434c3.1309.323 4.8359 1.111 5.7581 1.911.9128.791 1.0843 1.616 1.0978 2.09l.0001.001c.0023.075-.0204.149-.0646.21z" fill="#E72E80" stroke="#000" stroke-width=".6"/><path d="M48.4021 133.662c-.0049.008-.0094.015-.0134.021l-.0197.004-.0597.056h-.0003c-.0001 0-.0003 0-.0004.001h-.0005 0l-.009.008c-.009.007-.0239.02-.0445.035-.0412.032-.1051.078-.19.128-.1701.102-.4225.223-.7462.296-.61.137-1.5075.111-2.6276-.61 1.4314-13.308 2.3026-26.813 1.5533-40.6245l8.5567-.7714c.0033.0628.005.1394.0048.2306-.0005.3192-.0237.7801-.068 1.367-.0885 1.1717-.2591 2.822-.4908 4.7934-.4632 3.9419-1.1689 9.1549-1.9435 14.3619-.7748 5.208-1.618 10.406-2.3562 14.32-.3692 1.958-.7112 3.589-1.0044 4.738-.1469.576-.2794 1.022-.3944 1.325-.058.153-.1073.257-.1462.321z" fill="#fff" stroke="#000" stroke-width=".6"/><path fill-rule="evenodd" clip-rule="evenodd" d="M34.4209 66.8359s19.1676.8761 23.7309 2.48c0 0-.5622 15.5838-2.4351 25.159-.0356.1818-.1229.3494-.2514.4828-.1284.1333-.2927.2268-.473.2692-1.2279.2828-4.3253.6898-9.2302-.6899-.2107-.0604-.3942-.1913-.5198-.3709-.1256-.1796-.1857-.397-.1701-.6156l.5071-6.2087c.0134-.198-.0513-.3934-.1803-.5443-.1289-.1509-.3119-.2452-.5096-.2628l-.5139-.0759c-.1029-.0071-.2062.007-.3034.0414-.0972.0343-.1864.0882-.262.1584-.0756.0701-.1361.1549-.1777.2493-.0415.0944-.0633.1963-.064.2994l-.9693 6.2949c-.0012.1984-.0643.3915-.1806.5523-.1162.1608-.2798.2813-.4679.3445-1.4418.4898-5.1739 1.4004-10.1339-.1069-.1978-.056-.3719-.1748-.4964-.3384-.1244-.1636-.1923-.3632-.1935-.5688-.0586-7.6332 1.3004-16.7703 3.2941-26.549z" fill="#000"/><path fill-rule="evenodd" clip-rule="evenodd" d="M41.6064 68.1782s-2.4145 6.7364-8.2783 7.2021l1.29-7.6816s4.5393-.0345 6.9883.4795z" fill="#0A0A0A"/><path fill-rule="evenodd" clip-rule="evenodd" d="M25.4366 31.3877s8.6611 5.5705 19.1814 4.9497c8.7714-.514 14.104-2.7595 17.0669-5.2774.508-.4446 1.1458-.7135 1.8187-.7669.6729-.0535 1.3451.1114 1.9169.4703 1.7434 1.1343 3.3469 2.4704 4.7772 3.9804.2172.2261.3544.5172.3905.8286.0361.3115-.0308.6262-.1904.896-2.5559 4.1392-5.2808 7.0124-8.1679 8.6922-.9799 1.0764-1.5042 2.4909-1.4625 3.946l.5312 20.2747c.0082.2719-.0806.5379-.2507.7503-.17.2123-.41.3572-.6771.4087-3.846.7278-18.4364 3.2699-27.5079 1.6695V50.3552c-.0061-.7968-.2243-1.5776-.6323-2.2621-.408-.6845-.991-1.2478-1.6891-1.6321-1.904-1.0555-4.7427-3.1285-7.5884-7.0296l2.4835-8.0437z" fill="#E72E80"/><path d="M42.1165 37.0147l.6933-7.6235 6.0621 1.2371.6172 6.7089c-1.7132.9462-3.5549.8714-5.0071.5374-.7471-.1719-1.383-.4107-1.8317-.6066-.2242-.0979-.4009-.1847-.5207-.2465-.0045-.0023-.0088-.0045-.0131-.0068z" fill="#fff" stroke="#000" stroke-width=".6"/><path fill-rule="evenodd" clip-rule="evenodd" d="M58.5284 23.3614c.8173-.4987 1.5032-1.1859 2.0006-2.004.6898-1.2245 1.359-2.6766.7899-3.9494-.3829-.852-1.3004-1.5039-1.3004-2.4386 0-.6899.5036-1.2659.6898-1.9351.2656-1.0348-.3794-2.1696-1.2865-2.7594-.9072-.58981-2.0213-.77262-3.1044-.87609-.5065-.0096-1.0051-.1272-1.4625-.34493-.507-.29664-.8174-.83127-1.2072-1.26933-1.5315-1.72463-4.6082-1.70394-6.119.04139-.7761.90371-1.1969 2.17646-2.2593 2.71456-.5829.2967-1.2624.3139-1.904.445-1.4728.2966-2.7594 1.2072-3.839 2.2558-1.6177 1.5694-2.9077 3.2078-3.3285 5.4602-.1841 1.2037-.258 2.4218-.2208 3.6389 0 1.5453 0 3.1561.6899 4.5427.6898 1.3867 1.9522 2.3835 2.5352 3.7942.1499.4754.3403.937.5691 1.3797.1188.2183.2983.3974.5169.5156.2186.1182.4668.1703.7145.1502.5829-.1104.8795-.7416 1.1934-1.2487 1.5556-2.5076 6.7399-3.6562 9.313-4.9014 1.9592-.9554 4.9325-1.8281 7.0193-3.2113z" fill="#000"/><path d="M42.4252 28.8694v-.0001l-.0003-.0002-.0016-.0017-.0073-.0077-.03-.0319c-.0266-.0286-.0659-.0714-.1158-.1273-.0999-.1118-.2419-.2758-.4088-.4823-.3341-.4138-.7652-.9952-1.1556-1.6684-.7935-1.3683-1.3635-3.0184-.7759-4.4128.137-.3253.4266-.6908.8631-1.0814.4331-.3876.9929-.7841 1.6451-1.1753 1.3041-.7822 2.9534-1.5288 4.6356-2.1299 1.6826-.6013 3.3855-1.0526 4.7952-1.2501.7054-.0988 1.3279-.1327 1.8331-.0937.4829.0372.8234.1386 1.0311.2808.016.0247.0383.0594.0663.1036.0623.0983.1528.2436.2651.4305.2245.3738.5356.9133.8804 1.5738.6904 1.3228 1.5118 3.1232 2.0459 5.0461.5353 1.927.774 3.9488.3293 5.7282-.4403 1.762-1.5556 3.3101-3.7882 4.3081-2.14.9561-3.9505 1.1162-5.4607.8362-1.5126-.2803-2.7471-1.0065-3.7252-1.8587-.9791-.8531-1.6956-1.8279-2.168-2.5924-.2358-.3816-.4097-.709-.5242-.9399-.0572-.1155-.0996-.2067-.1273-.2683-.0139-.0309-.0241-.0543-.0307-.0697l-.0072-.0169-.0015-.0038-.0003-.0005v-.0002l-.0218-.0529-.0398-.0412h0z" fill="#fff" stroke="#000" stroke-width=".6"/><path fill-rule="evenodd" clip-rule="evenodd" d="M41.2785 26.338c.5882-.1533 1.0969-.5228 1.4246-1.0347.6381-.9003.7726-2.0696 1.2141-3.0664.3778-.8043.9282-1.5155 1.612-2.0831.6838-.5675 1.4842-.9774 2.3443-1.2006 1.5487-.4174 3.1837-.2725 4.7841-.307 2.1834-.0483 7.1055-1.6315 3.1044-3.7735-2.8733-1.5418-6.1742-.0932-9.0233.6898-2.7249.7554-5.8879 2.3041-7.6712 4.6013-.407.5002-.7033 1.081-.8692 1.7042-.1659.6231-.1977 1.2744-.0931 1.9107.338 1.528 1.7833 2.8629 3.1733 2.5593z" fill="#000"/><path fill-rule="evenodd" clip-rule="evenodd" d="M43.362 30.2861l-1.559-4.2943s-3.0181-1.3797-2.618.9486c.4001 2.3282 3.1078 3.6251 4.177 3.3457z" fill="#fff"/><path d="M86.2553 73.4175c-.348-.1784-.6163-.6601-.7803-1.439-.1663-.7895-.2028-1.7778-.1738-2.7574.029-.9761.1224-1.9271.2088-2.6353.0432-.3538.0846-.6461.1151-.8497.0005-.0037.0011-.0073.0016-.0109 3.074.5729 5.8812-.3226 8.3514-1.9773 2.5483-1.7071 4.7521-4.2303 6.5549-6.8197 1.804-2.5919 3.216-5.2657 4.177-7.2896.481-1.0125.85-1.8636 1.098-2.4621.014-.0349.029-.069.042-.1022l.457 1.6951c-.927 12.6402-5.982 18.7794-10.7597 21.7731-2.3996 1.5036-4.7431 2.2225-6.4863 2.5654-.8714.1713-1.5917.2485-2.0924.2828-.2503.0172-.4455.0237-.5772.0259-.0579.0009-.1035.0011-.1361.0009z" fill="#fff" stroke="#000" stroke-width=".6"/><path d="M112.596 40.5977s-5.126 2.871-7.997 5.4211c-.419.37-.644 2.2881-.783 3.4693-.041.3501-.074.6355-.103.7967m8.883-9.6871l-8.883 9.6871m8.883-9.6871l-.239.1821c.054.07.094.1482.12.2307m.119-.4128l.144.2588c-.035-.092-.084-.1792-.144-.2588zm0 0l-.119.4128m-8.764 9.2743l.295.0526c.004-.0221.008-.0462.012-.0722-.006-.0206-.013-.0417-.019-.0632l-.288.0828zm8.764-9.2743c.014-.0084.028-.0165.042-.0242.072-.0415.128-.0733.166-.0947l.043-.0242.011-.0061.002-.0015.001-.0002-.503.9509m.238-.8c.031.1005.041.2074.028.3139-.023.1903-.118.3642-.266.4861m0 0c-.002.0024-.005.0048-.008.0071l.187.2341-.168-.2487-.011.0075zm-6.681 9.4522l-.008.0628c.007-.0204.01-.0414.008-.0628zm0 0c.1.0133.2.0213.301.0242 0-.0166-.001-.0337-.002-.051l-.299.0268zm5-4.8122l-.299.0127v.0005l.299-.0132z" fill="#fff" stroke="#000" stroke-width=".6"/><path fill-rule="evenodd" clip-rule="evenodd" d="M85.4978 36.9546s-3.9302-3.5501 1.1071-7.4028c4.7495-3.6165 8.2221 1.24 6.6427 4.362-.0286.0514-.0444.1088-.0462.1676-.0018.0587.0104.1171.0357.1701.0252.0531.0628.0994.1096.135.0467.0356.1013.0595.1592.0698.4133.0922.7713.5055.1181 1.9632-.0242.0603-.0328.1257-.025.1902.0077.0645.0315.126.0693.1788.583.7824 2.5242 3.9081-3.3213 4.3879-.0529.0053-.1064-.0008-.1567-.018-.0503-.0172-.0963-.045-.1348-.0817l-4.5577-4.1221zM67.9402 42.1678s-.369-4.5317-2.8047-6.0116c-2.4356-1.4798-7.1334-2.7345-9.1077 2.2142-.9411 2.3508-.6274 3.469-.0443 3.993.2456.2333.4036.544.4473.88.0436.336-.0296.6768-.2074.9652-.3986.7122-.454 1.5942.738 2.395.171.1102.3182.2535.4329.4214.1147.168.1946.3572.2351.5565.3137 1.6459 1.9965 5.5872 10.9825 1.2769l-.6717-6.6906z" fill="#000"/><path fill-rule="evenodd" clip-rule="evenodd" d="M75.2349 34.0192c-1.7677-.7602-5.5355-1.5315-8.4287 3.5649-.2019.3553-.4983.6478-.8562.8451-1.7381.9594-6.7607 4.4284-2.1847 10.7019.2087.287.3454.6198.3986.9706.1513 1.0628.6569 3.421 2.181 4.0003.4531.1761.8356.4964 1.0886.9115 1.0223 1.6828 3.9376 5.2256 8.8568 1.5242.2505-.1825.5376-.3084.8415-.3691l6.7754-1.4946c.3665-.0805.7475-.0665 1.1071.0406.8303.2436 2.5021.4539 3.1257-1.4761.1262-.3966.3615-.7496.679-1.0185 1.1367-.9669 3.5502-3.587 1.7234-7.2552-.2037-.4111-.2758-.875-.2066-1.3286.214-1.3765.3247-4.4284-2.5279-5.7458-.4298-.1935-.783-.5246-1.0038-.9411-.9521-1.8451-4.0593-6.5245-9.521-3.0814-.3026.1918-.6479.3059-1.0051.3323-.3573.0264-.7156-.0358-1.0431-.181z" fill="#000"/><path d="M94.9828 146.358c-.0003.01-.0006.019-.001.028-1.2144.465-2.961.552-4.7173.462-1.8246-.094-3.6086-.375-4.7099-.575h-.0001c-.2685-.048-.5178-.172-.719-.356-.2012-.185-.346-.423-.4178-.686h-.0002l-.6366-2.322.7393-.853 2.5796 1.056.0808.033.0859-.016c4.3804-.789 6.2515.162 7.0568 1.174.4104.516.5727 1.079.6313 1.519.0292.22.0323.406.0282.536zM69.9989 151.478l-.007-.001-.0071-.001c-.2605-.031-.5024-.15-.685-.339-.1812-.187-.2928-.43-.3164-.689l-.2071-4.571.3921-.963 2.9085 1.006.0009.001c.2209.075.4242.195.5977.351.1735.156.3137.346.4121.558h.0002l1.561 3.347.0002.001c.2991.639-.1601 1.426-1.0292 1.496-1.2105.068-2.4248.003-3.6209-.196z" fill="#E72E80" stroke="#000" stroke-width=".6"/><path d="M72.8113 63.8455c-.001-.0003-.0019-.0005-.0029-.0008l.9567-9.4622 6.4828-.2758.9207 9.5488c-1.6773.9026-3.7661.9589-5.4906.7665-.8853-.0987-1.6618-.2615-2.2167-.3996-.2773-.069-.4986-.1317-.65-.1769zM74.2345 107.986l-2.2829 37.812c-.8316.485-1.5072.529-1.9689.461-.246-.036-.4375-.105-.5651-.164-.0321-.014-.0601-.028-.0839-.041-.8399-4.431-1.8953-13.69-2.7448-21.89-.4287-4.138-.8044-8.002-1.073-10.831-.1343-1.414-.2418-2.57-.3157-3.372-.037-.401-.0656-.714-.0849-.926l-.0029-.032 9.1221-1.017zM76.5954 110.706l9.6179-1.545 1.2001 33.317c-1.1204.839-2.0792.818-2.7587.605-.3597-.113-.6503-.283-.8512-.426-.1001-.071-.1768-.134-.2274-.179-.0044-.004-.0086-.008-.0126-.011l-6.9681-31.761zM53.5314 99.5156l.2328.038.0919-.2173c.5731-1.3566 1.3939-3.9522 2.3516-7.1188.3788-1.2523.7793-2.595 1.1953-3.9898.6392-2.1433 1.3151-4.4095 2.005-6.6588 1.1384-3.7113 2.3111-7.364 3.4115-10.3159.5503-1.4761 1.0808-2.7723 1.5783-3.8109.4704-.9822.9009-1.7113 1.2779-2.1464l1.4253-.1578c.0134.035.0282.0741.0444.1171.0798.2123.1918.519.3195.8952.2558.7531.5737 1.7813.8244 2.8855.2512 1.1065.432 2.2771.42 3.3183-.0122 1.0504-.2203 1.9156-.6919 2.4652-.2934.342-.7079 1.0187-1.2005 1.9115-.4975.9016-1.0878 2.0483-1.7335 3.3499-1.2917 2.6037-2.8101 5.8369-4.2599 8.9892-1.4501 3.1527-2.8324 6.2264-3.8521 8.5117-.5099 1.1427-.9292 2.0885-1.221 2.7485-.1459.33-.26.589-.3375.765l-.0885.201-.0226.051-.0058.013-.0014.004-.0004.001c-.0001 0-.0001 0 .2746.12l-.2747-.12-.0247.056-.0006.062c-.0095 1.001-.8132 1.836-1.7213 2.449-.443.299-.8874.529-1.2221.685-.167.077-.3057.136-.402.175-.009.004-.0177.007-.026.011-.0771-.05-.0981-.091-.1049-.11-.011-.032-.0159-.094.0348-.214.0502-.119.1397-.257.2595-.414.0956-.126.2011-.251.3096-.38.0269-.032.054-.064.0811-.096.1321-.158.268-.325.3692-.483.0942-.147.1965-.343.1867-.55-.0055-.115-.0452-.228-.1255-.324-.0768-.092-.1778-.153-.284-.196-.2058-.083-.4899-.116-.8488-.116-2.9378 0-4.7499-.707-5.8702-1.508-1.1204-.8018-1.5765-1.7172-1.7679-2.1845l-.0007-.0016c-.011-.0265-.0146-.0555-.0103-.0839.0042-.0284.0161-.0551.0344-.0772s.0423-.0388.0695-.0482c.0271-.0095.0563-.0114.0844-.0055l-.0001.0003.0135.0022 9.2037 1.502z" fill="#fff" stroke="#000" stroke-width=".6"/><path fill-rule="evenodd" clip-rule="evenodd" d="M65.54 65.0105s9.3551-3.4652 21.035.1218c0 0 1.3101 8.8568.6347 13.0454l-20.1197.738-1.55-13.9052z" fill="#000"/><path fill-rule="evenodd" clip-rule="evenodd" d="M86.9328 80.9401s6.4286 20.6439 7.3807 34.3939c.012.168-.0093.337-.0627.497-.0535.16-.138.308-.2488.435-.1108.128-.2455.232-.3966.307-.1511.075-.3156.119-.4839.13-2.3542.213-4.6732.715-6.9046 1.495-5.1997 1.731-9.5027 1.159-13.3886.044-3.0519-.875-10.6798-1.642-13.8203-1.93-.1768-.016-.3483-.069-.5037-.155-.1553-.086-.2911-.203-.3987-.344-.1076-.142-.1846-.304-.2262-.476-.0416-.173-.0469-.352-.0154-.527.9115-5.089 4.3804-23.1531 9.6428-35.4272l19.426 1.5573z" fill="#E72E80"/><path d="M67.3189 80.2755l-.0553-1.847c.1043.0017.2383.0038.3993.0061.4244.0061 1.0363.0141 1.7865.0213 1.5004.0144 3.5546.0259 5.7692.0144 4.247-.0221 9.1065-.1291 11.7728-.4671l-.2829 2.7c-.0209-.0001-.0432-.0001-.067-.0001-.1956-.0003-.4903-.0012-.8868-.0038-.7929-.005-1.9929-.0166-3.62-.0424-3.2169-.051-8.1035-.158-14.8158-.3814z" fill="#fff" stroke="#000" stroke-width=".5"/><path d="M86.9344 44.4744v.0002c.7704 2.9752 1.0343 6.1426.2554 8.7383-.7714 2.571-2.5686 4.5995-5.9921 5.341l-.0006.0002c-2.3187.5078-4.7289-.4128-6.7723-2.2341-2.0415-1.8197-3.6832-4.5124-4.446-7.4603-.7619-2.9442-.4839-5.5085.5512-7.4777 1.034-1.967 2.8371-3.3669 5.1814-3.9655 4.6851-1.1963 9.7153 1.2174 11.223 7.0579z" fill="#fff" stroke="#000" stroke-width=".6"/><path fill-rule="evenodd" clip-rule="evenodd" d="M86.6973 46.2508s.2325-3.6276 2.0408-2.5094c1.8082 1.1181-.6975 5.469-1.8193 5.7237-1.1219.2546-.2215-3.2143-.2215-3.2143zM71.2082 50.4387s-.5425-2.7678-2.5021-1.4761c-1.9596 1.2916 1.7825 5.8049 4.0889 4.7974l-1.5868-3.3213z" fill="#fff"/><path fill-rule="evenodd" clip-rule="evenodd" d="M68.3048 48.232s5.6167 6.0816 8.5357-6.5356c0 0 2.9117 3.7678 4.2402.4354 0 0 5.7976 1.9854 6.436-.4502.6384-2.4356-7.8346-9.0524-14.6507-4.3066-6.8161 4.7458-4.5612 10.857-4.5612 10.857z" fill="#000"/></g><defs><linearGradient id="paint0_linear_7_5588" x1="60" y1="15" x2="60" y2="135" gradientUnits="userSpaceOnUse"><stop stop-color="#E72E80" stop-opacity=".5"/><stop offset="1" stop-color="#E72E80"/></linearGradient><filter id="filter0_d_7_5588" x="4" y="0" width="112.811" height="158" filterUnits="userSpaceOnUse" color-interpolation-filters="sRGB"><feFlood flood-opacity="0" result="BackgroundImageFix"/><feColorMatrix in="SourceAlpha" values="0 0 0 0 0 0 0 0 0 0 0 0 0 0 0 0 0 0 127 0" result="hardAlpha"/><feOffset dy="2"/><feGaussianBlur stdDeviation="2"/><feComposite in2="hardAlpha" operator="out"/><feColorMatrix values="0 0 0 0 0.905882 0 0 0 0 0.180392 0 0 0 0 0.501961 0 0 0 0.15 0"/><feBlend in2="BackgroundImageFix" result="effect1_dropShadow_7_5588"/><feBlend in="SourceGraphic" in2="effect1_dropShadow_7_5588" result="shape"/></filter></defs></svg>