<svg width="545" height="372" viewBox="0 0 545 372" fill="none" xmlns="http://www.w3.org/2000/svg">
<g opacity="0.28">
<path d="M163.819 148.919L175.131 129.342L186.446 148.919L163.819 148.919Z" fill="url(#paint0_linear_59_1973)"/>
<path d="M175.13 193.733L164.062 174.575L186.199 174.575L175.13 193.733Z" fill="url(#paint1_linear_59_1973)"/>
<path d="M197.486 206.625L208.555 187.467L219.617 206.625L197.486 206.625Z" fill="url(#paint2_linear_59_1973)"/>
<path d="M241.974 194.366L230.347 174.252L253.596 174.252L241.974 194.366Z" fill="url(#paint3_linear_59_1973)"/>
<path d="M230.007 149.298L241.975 128.584L253.944 149.298L230.007 149.298Z" fill="url(#paint4_linear_59_1973)"/>
<path d="M208.555 136.719L196.763 116.308L220.343 116.308L208.555 136.719Z" fill="url(#paint5_linear_59_1973)"/>
<path d="M141.711 136.699L129.935 116.317L153.487 116.317L141.711 136.699Z" fill="url(#paint6_linear_59_1973)"/>
<path d="M130.168 206.899L141.711 186.921L153.254 206.899L130.168 206.899Z" fill="url(#paint7_linear_59_1973)"/>
<path d="M208.555 251.564L197.502 232.429L219.604 232.429L208.555 251.564Z" fill="url(#paint8_linear_59_1973)"/>
<path d="M263.303 207.215L275.395 186.293L287.484 207.215L263.303 207.215Z" fill="url(#paint9_linear_59_1973)"/>
<path d="M275.394 137.261L263.125 116.032L287.66 116.032L275.394 137.261Z" fill="url(#paint10_linear_59_1973)"/>
<path d="M196.408 91.5511L208.554 70.5308L220.697 91.5511L196.408 91.5511Z" fill="url(#paint11_linear_59_1973)"/>
<path d="M95.8623 149.558L108.29 128.058L120.714 149.558L95.8623 149.558Z" fill="url(#paint12_linear_59_1973)"/>
<path d="M108.29 194.661L96.4189 174.108L120.161 174.108L108.29 194.661Z" fill="url(#paint13_linear_59_1973)"/>
<path d="M141.71 251.909L130.357 232.259L153.063 232.259L141.71 251.909Z" fill="url(#paint14_linear_59_1973)"/>
<path d="M163.661 264.706L175.131 244.857L186.604 264.706L163.661 264.706Z" fill="url(#paint15_linear_59_1973)"/>
<path d="M230.343 264.795L241.974 244.671L253.602 264.795L230.343 264.795Z" fill="url(#paint16_linear_59_1973)"/>
<path d="M275.395 252.582L263.458 231.921L287.33 231.921L275.395 252.582Z" fill="url(#paint17_linear_59_1973)"/>
<path d="M308.819 196.348L295.481 173.265L322.156 173.265L308.819 196.348Z" fill="url(#paint18_linear_59_1973)"/>
<path d="M295.251 150.22L308.819 126.737L322.384 150.22L295.251 150.22Z" fill="url(#paint19_linear_59_1973)"/>
<path d="M263.249 91.5511L275.395 70.5308L287.538 91.5511L263.249 91.5511Z" fill="url(#paint20_linear_59_1973)"/>
<path d="M241.975 79.2812L229.826 58.2546L254.121 58.2546L241.975 79.2812Z" fill="url(#paint21_linear_59_1973)"/>
<path d="M175.131 79.1201L163.124 58.3303L187.138 58.3303L175.131 79.1201Z" fill="url(#paint22_linear_59_1973)"/>
<path d="M129.844 91.3902L141.711 70.8499L153.579 91.3902L129.844 91.3902Z" fill="url(#paint23_linear_59_1973)"/>
<path d="M61.9404 92.0007L74.8669 69.6257L87.7971 92.0007L61.9404 92.0007Z" fill="url(#paint24_linear_59_1973)"/>
<path d="M74.8667 138.12L61.8613 115.599L87.876 115.599L74.8667 138.12Z" fill="url(#paint25_linear_59_1973)"/>
<path d="M63.2324 206.957L74.8668 186.808L86.5009 206.957L63.2324 206.957Z" fill="url(#paint26_linear_59_1973)"/>
<path d="M74.866 251.1L64.2178 232.66L85.52 232.66L74.866 251.1Z" fill="url(#paint27_linear_59_1973)"/>
<path d="M96.916 264.646L108.291 244.965L119.662 264.646L96.916 264.646Z" fill="url(#paint28_linear_59_1973)"/>
<path d="M175.131 310.565L163.079 289.702L187.184 289.702L175.131 310.565Z" fill="url(#paint29_linear_59_1973)"/>
<path d="M196.592 322.838L208.554 302.136L220.513 322.838L196.592 322.838Z" fill="url(#paint30_linear_59_1973)"/>
<path d="M241.975 310.362L230.094 289.802L253.855 289.802L241.975 310.362Z" fill="url(#paint31_linear_59_1973)"/>
<path d="M296.587 265.145L308.818 243.976L321.043 265.145L296.587 265.145Z" fill="url(#paint32_linear_59_1973)"/>
<path d="M342.239 253.26L329.708 231.577L354.765 231.577L342.239 253.26Z" fill="url(#paint33_linear_59_1973)"/>
<path d="M328.358 208.248L342.239 184.225L356.113 208.248L328.358 208.248Z" fill="url(#paint34_linear_59_1973)"/>
<path d="M342.239 140.082L327.528 114.622L356.948 114.622L342.239 140.082Z" fill="url(#paint35_linear_59_1973)"/>
<path d="M328.396 92.5239L342.239 68.5764L356.076 92.5239L328.396 92.5239Z" fill="url(#paint36_linear_59_1973)"/>
<path d="M308.819 79.8491L296.174 57.9668L321.458 57.9668L308.819 79.8491Z" fill="url(#paint37_linear_59_1973)"/>
<path d="M229.67 33.7926L241.974 12.4976L254.275 33.7926L229.67 33.7926Z" fill="url(#paint38_linear_59_1973)"/>
<path d="M208.554 22.2391L195.703 0L221.402 1.12332e-06L208.554 22.2391Z" fill="url(#paint39_linear_59_1973)"/>
<path d="M162.97 33.7169L175.131 12.6587L187.296 33.7169L162.97 33.7169Z" fill="url(#paint40_linear_59_1973)"/>
<path d="M108.291 79.9436L95.5664 57.916L121.014 57.916L108.291 79.9436Z" fill="url(#paint41_linear_59_1973)"/>
<path d="M41.4455 80.058L28.624 57.863L54.2671 57.863L41.4455 80.058Z" fill="url(#paint42_linear_59_1973)"/>
<path d="M29.1455 149.491L41.4463 128.196L53.7509 149.491L29.1455 149.491Z" fill="url(#paint43_linear_59_1973)"/>
<path d="M41.4465 193.988L30.1543 174.442L52.7387 174.442L41.4465 193.988Z" fill="url(#paint44_linear_59_1973)"/>
<path d="M32.1631 263.449L41.446 247.373L50.7353 263.449L32.1631 263.449Z" fill="url(#paint45_linear_59_1973)"/>
<path d="M108.291 309.738L96.9541 290.116L119.624 290.116L108.291 309.738Z" fill="url(#paint46_linear_59_1973)"/>
<path d="M129.341 323.075L141.711 301.663L154.081 323.075L129.341 323.075Z" fill="url(#paint47_linear_59_1973)"/>
<path d="M208.555 369.22L195.799 347.145L221.308 347.145L208.555 369.22Z" fill="url(#paint48_linear_59_1973)"/>
<path d="M263.43 322.838L275.396 302.136L287.358 322.838L263.43 322.838Z" fill="url(#paint49_linear_59_1973)"/>
<path d="M308.819 310.252L297.036 289.857L320.601 289.857L308.819 310.252Z" fill="url(#paint50_linear_59_1973)"/>
<path d="M364.36 264.605L375.663 245.056L386.952 264.605L364.36 264.605Z" fill="url(#paint51_linear_59_1973)"/>
<path d="M375.663 197.56L361.27 172.656L390.046 172.656L375.663 197.56Z" fill="url(#paint52_linear_59_1973)"/>
<path d="M360.67 151.044L375.663 125.095L390.653 151.044L360.67 151.044Z" fill="url(#paint53_linear_59_1973)"/>
<path d="M375.662 80.9326L362.072 57.4272L389.24 57.4272L375.662 80.9326Z" fill="url(#paint54_linear_59_1973)"/>
<path d="M296.653 33.7169L308.818 12.6587L320.977 33.7169L296.653 33.7169Z" fill="url(#paint55_linear_59_1973)"/>
<path d="M275.395 21.3163L263.347 0.460205L287.446 0.460206L275.395 21.3163Z" fill="url(#paint56_linear_59_1973)"/>
<path d="M141.71 21.3163L129.663 0.460205L153.758 0.460206L141.71 21.3163Z" fill="url(#paint57_linear_59_1973)"/>
<path d="M96.0469 33.7582L108.291 12.5674L120.531 33.7582L96.0469 33.7582Z" fill="url(#paint58_linear_59_1973)"/>
<path d="M-4 91.4826L8.02179 70.6675L20.0509 91.4826L-4 91.4826Z" fill="url(#paint59_linear_59_1973)"/>
<path d="M8.02181 136.784L-3.82715 116.266L19.8746 116.266L8.02181 136.784Z" fill="url(#paint60_linear_59_1973)"/>
<path d="M-1.52246 205.747L8.02211 189.223L17.5717 205.747L-1.52246 205.747Z" fill="url(#paint61_linear_59_1973)"/>
<path d="M8.02245 248.066L-0.00292969 234.178L16.0551 234.178L8.02245 248.066Z" fill="url(#paint62_linear_59_1973)"/>
<path d="M41.4459 307.113L32.3838 291.426L50.5117 291.426L41.4459 307.113Z" fill="url(#paint63_linear_59_1973)"/>
<path d="M64.1709 322.109L74.8659 303.596L85.5619 322.109L64.1709 322.109Z" fill="url(#paint64_linear_59_1973)"/>
<path d="M141.71 370.19L128.117 346.659L155.303 346.659L141.71 370.19Z" fill="url(#paint65_linear_59_1973)"/>
<path d="M166.441 371.683L166.757 371.683L166.757 371.052L167.073 371.052L167.073 370.42L167.389 370.42L167.389 370.104L167.705 370.104L167.705 369.473L168.021 369.473L168.021 368.841L168.337 368.841L168.337 368.21L168.653 368.21L168.653 367.894L168.969 367.894L168.969 367.263L169.285 367.263L169.285 366.631L169.601 366.631L169.601 366L169.917 366L169.917 365.684L170.233 365.684L170.233 365.052L170.549 365.052L170.549 364.421L170.865 364.421L170.865 363.789L171.181 363.789L171.181 363.473L171.497 363.473L171.497 362.842L171.813 362.842L171.813 362.21L172.129 362.21L172.129 361.895L172.445 361.895L172.445 361.263L172.761 361.263L172.761 360.632L173.077 360.632L173.077 360L173.393 360L173.393 359.684L173.709 359.684L173.709 359.053L174.025 359.053L174.025 358.421L174.341 358.421L174.341 357.79L174.657 357.79L174.657 357.474L174.973 357.474L174.973 357.158L175.289 357.158L175.289 357.474L175.605 357.474L175.605 357.79L175.921 357.79L175.921 358.421L176.237 358.421L176.237 359.053L176.553 359.053L176.553 359.684L176.868 359.684L176.868 360L177.184 360L177.184 360.632L177.5 360.632L177.5 361.263L177.816 361.263L177.816 361.895L178.132 361.895L178.132 362.21L178.448 362.21L178.448 362.842L178.764 362.842L178.764 363.473L179.08 363.473L179.08 363.789L179.396 363.789L179.396 364.421L179.712 364.421L179.712 365.052L180.028 365.052L180.028 365.684L180.344 365.684L180.344 366L180.66 366L180.66 366.631L180.976 366.631L180.976 367.263L181.292 367.263L181.292 367.894L181.608 367.894L181.608 368.21L181.924 368.21L181.924 368.841L182.24 368.841L182.24 369.473L182.556 369.473L182.556 369.789L182.872 369.789L182.872 370.42L183.188 370.42L183.188 371.052L183.504 371.052L183.504 371.683L183.82 371.683L183.82 371.999L166.441 371.999" fill="url(#paint66_linear_59_1973)"/>
<path d="M234.376 371.368L234.692 371.368L234.692 370.737L235.008 370.737L235.008 370.105L235.324 370.105L235.324 369.789L235.64 369.789L235.64 369.158L235.956 369.158L235.956 368.526L236.272 368.526L236.272 367.895L236.588 367.895L236.588 367.579L236.904 367.579L236.904 366.948L237.22 366.948L237.22 366.316L237.536 366.316L237.536 366L237.852 366L237.852 365.369L238.168 365.369L238.168 364.737L238.484 364.737L238.484 364.106L238.8 364.106L238.8 363.79L239.116 363.79L239.116 363.158L239.432 363.158L239.432 362.527L239.748 362.527L239.748 361.895L240.063 361.895L240.063 361.58L240.379 361.58L240.379 360.948L240.695 360.948L240.695 360.317L241.011 360.317L241.011 359.685L241.327 359.685L241.327 359.369L241.643 359.369L241.643 358.738L242.275 358.738L242.275 359.369L242.591 359.369L242.591 359.685L242.907 359.685L242.907 360.317L243.223 360.317L243.223 360.948L243.539 360.948L243.539 361.58L243.855 361.58L243.855 361.895L244.171 361.895L244.171 362.527L244.487 362.527L244.487 363.158L244.803 363.158L244.803 363.474L245.119 363.474L245.119 364.106L245.435 364.106L245.435 364.737L245.751 364.737L245.751 365.369L246.067 365.369L246.067 365.685L246.383 365.685L246.383 366.316L246.699 366.316L246.699 366.948L247.015 366.948L247.015 367.579L247.331 367.579L247.331 367.895L247.647 367.895L247.647 368.526L247.963 368.526L247.963 369.158L248.279 369.158L248.279 369.474L248.595 369.474L248.595 370.105L248.911 370.105L248.911 370.737L249.227 370.737L249.227 371.368L249.543 371.368L249.543 371.684L249.859 371.684L249.859 372L234.376 372" fill="url(#paint67_linear_59_1973)"/>
<path d="M275.395 368.535L263.236 347.486L287.55 347.486L275.395 368.535Z" fill="url(#paint68_linear_59_1973)"/>
<path d="M331.537 322.112L342.239 303.592L352.935 322.112L331.537 322.112Z" fill="url(#paint69_linear_59_1973)"/>
<path d="M375.662 308.057L365.779 290.956L385.537 290.956L375.662 308.057Z" fill="url(#paint70_linear_59_1973)"/>
<path d="M409.077 250.617L398.846 232.903L419.314 232.903L409.077 250.617Z" fill="url(#paint71_linear_59_1973)"/>
<path d="M396.854 207.294L409.076 186.132L421.304 207.294L396.854 207.294Z" fill="url(#paint72_linear_59_1973)"/>
<path d="M409.077 139.149L395.18 115.085L422.979 115.085L409.077 139.149Z" fill="url(#paint73_linear_59_1973)"/>
<path d="M395.888 92.1514L409.076 69.3186L422.271 92.1514L395.888 92.1514Z" fill="url(#paint74_linear_59_1973)"/>
<path d="M363.435 33.7518L375.663 12.5894L387.884 33.7518L363.435 33.7518Z" fill="url(#paint75_linear_59_1973)"/>
<path d="M342.24 21.1554L330.324 0.539307L354.149 0.539308L342.24 21.1554Z" fill="url(#paint76_linear_59_1973)"/>
<path d="M74.8659 21.06L63.0391 0.585938L86.6962 0.585939L74.8659 21.06Z" fill="url(#paint77_linear_59_1973)"/>
<path d="M29.5371 33.5656L41.4464 12.9558L53.362 33.5656L29.5371 33.5656Z" fill="url(#paint78_linear_59_1973)"/>
<path d="M0.730468 320.148L8.02248 307.514L15.3218 320.148L0.730468 320.148Z" fill="url(#paint79_linear_59_1973)"/>
<path d="M74.8665 368.071L63.1123 347.724L86.6241 347.724L74.8665 368.071Z" fill="url(#paint80_linear_59_1973)"/>
<path d="M100.087 371.367L100.403 371.367L100.403 370.736L100.719 370.736L100.719 370.42L101.035 370.42L101.035 369.789L101.351 369.789L101.351 369.157L101.667 369.157L101.667 368.841L101.983 368.841L101.983 368.21L102.299 368.21L102.299 367.578L102.615 367.578L102.615 366.947L102.931 366.947L102.931 366.631L103.247 366.631L103.247 365.999L103.563 365.999L103.563 365.368L103.879 365.368L103.879 364.736L104.195 364.736L104.195 364.421L104.511 364.421L104.511 363.789L104.826 363.789L104.826 363.158L105.142 363.158L105.142 362.526L105.458 362.526L105.458 362.21L105.774 362.21L105.774 361.579L106.09 361.579L106.09 360.947L106.406 360.947L106.406 360.631L106.722 360.631L106.722 360L107.038 360L107.038 359.368L107.354 359.368L107.354 358.737L107.67 358.737L107.67 358.421L107.986 358.421L107.986 357.79L108.618 357.79L108.618 358.421L108.934 358.421L108.934 358.737L109.25 358.737L109.25 359.368L109.566 359.368L109.566 360L109.882 360L109.882 360.631L110.198 360.631L110.198 360.947L110.514 360.947L110.514 361.579L110.83 361.579L110.83 362.21L111.146 362.21L111.146 362.842L111.462 362.842L111.462 363.158L111.778 363.158L111.778 363.789L112.094 363.789L112.094 364.421L112.41 364.421L112.41 365.052L112.726 365.052L112.726 365.368L113.042 365.368L113.042 365.999L113.358 365.999L113.358 366.631L113.674 366.631L113.674 366.947L113.99 366.947L113.99 367.578L114.306 367.578L114.306 368.21L114.622 368.21L114.622 368.841L114.938 368.841L114.938 369.157L115.254 369.157L115.254 369.789L115.57 369.789L115.57 370.42L115.886 370.42L115.886 371.052L116.201 371.052L116.201 371.367L116.517 371.367L116.517 371.999L100.087 371.999" fill="url(#paint81_linear_59_1973)"/>
<path d="M302.31 371.368L302.626 371.368L302.626 370.736L302.942 370.736L302.942 370.104L303.257 370.104L303.257 369.789L303.573 369.789L303.573 369.157L303.889 369.157L303.889 368.526L304.205 368.526L304.205 368.21L304.521 368.21L304.521 367.578L304.837 367.578L304.837 366.947L305.153 366.947L305.153 366.315L305.469 366.315L305.469 366L305.785 366L305.785 365.368L306.101 365.368L306.101 364.737L306.417 364.737L306.417 364.105L306.733 364.105L306.733 363.789L307.049 363.789L307.049 363.158L307.365 363.158L307.365 362.526L307.681 362.526L307.681 361.895L307.997 361.895L307.997 361.579L308.313 361.579L308.313 360.947L308.629 360.947L308.629 360.632L308.945 360.632L308.945 360.947L309.261 360.947L309.261 361.263L309.577 361.263L309.577 361.895L309.893 361.895L309.893 362.526L310.209 362.526L310.209 363.158L310.525 363.158L310.525 363.473L310.841 363.473L310.841 364.105L311.157 364.105L311.157 364.737L311.473 364.737L311.473 365.368L311.789 365.368L311.789 365.684L312.105 365.684L312.105 366.315L312.421 366.315L312.421 366.947L312.737 366.947L312.737 367.263L313.053 367.263L313.053 367.894L313.369 367.894L313.369 368.526L313.685 368.526L313.685 369.157L314.001 369.157L314.001 369.473L314.317 369.473L314.317 370.104L314.632 370.104L314.632 370.736L314.948 370.736L314.948 371.368L315.264 371.368L315.264 371.683L315.58 371.683L315.58 371.999L302.31 371.999" fill="url(#paint82_linear_59_1973)"/>
<path d="M342.239 365.851L332.406 348.835L352.069 348.835L342.239 365.851Z" fill="url(#paint83_linear_59_1973)"/>
<path d="M401.898 320.084L409.077 307.646L416.262 320.084L401.898 320.084Z" fill="url(#paint84_linear_59_1973)"/>
<path d="M442.5 302.708L437.255 293.63L447.742 293.63L442.5 302.708Z" fill="url(#paint85_linear_59_1973)"/>
<path d="M435.928 261.88L442.5 250.506L449.075 261.88L435.928 261.88Z" fill="url(#paint86_linear_59_1973)"/>
<path d="M442.5 192.7L432.323 175.084L452.681 175.084L442.5 192.7Z" fill="url(#paint87_linear_59_1973)"/>
<path d="M431.09 148.973L442.5 129.225L453.91 148.973L431.09 148.973Z" fill="url(#paint88_linear_59_1973)"/>
<path d="M442.5 78.1157L431.359 58.832L453.638 58.832L442.5 78.1157Z" fill="url(#paint89_linear_59_1973)"/>
<path d="M432.598 32.406L442.5 15.2695L452.406 32.406L432.598 32.406Z" fill="url(#paint90_linear_59_1973)"/>
<path d="M409.077 19.6177L398.501 1.30664L419.658 1.30664L409.077 19.6177Z" fill="url(#paint91_linear_59_1973)"/>
<path d="M8.02176 19.2204L-2.21289 1.50928L18.2599 1.50928L8.02176 19.2204Z" fill="url(#paint92_linear_59_1973)"/>
<path d="M8.02258 363.66L0.0986328 349.928L15.9563 349.928L8.02258 363.66Z" fill="url(#paint93_linear_59_1973)"/>
<path d="M34.9971 371.367L35.313 371.367L35.313 370.736L35.629 370.736L35.629 370.42L35.945 370.42L35.945 369.789L36.261 369.789L36.261 369.157L36.5769 369.157L36.5769 368.841L36.8929 368.841L36.8929 368.21L37.2089 368.21L37.2089 367.578L37.5248 367.578L37.5248 366.947L37.8408 366.947L37.8408 366.631L38.1568 366.631L38.1568 365.999L38.4728 365.999L38.4728 365.368L38.7887 365.368L38.7887 364.736L39.1047 364.736L39.1047 364.421L39.4207 364.421L39.4207 363.789L39.7367 363.789L39.7367 363.158L40.0526 363.158L40.0526 362.842L40.3686 362.842L40.3686 362.21L40.6846 362.21L40.6846 361.579L41.0005 361.579L41.0005 360.947L41.6325 360.947L41.6325 361.263L41.9485 361.263L41.9485 361.579L42.2644 361.579L42.2644 362.21L42.5804 362.21L42.5804 362.842L42.8964 362.842L42.8964 363.473L43.2123 363.473L43.2123 363.789L43.5283 363.789L43.5283 364.421L43.8443 364.421L43.8443 365.052L44.1603 365.052L44.1603 365.368L44.4762 365.368L44.4762 365.999L44.7922 365.999L44.7922 366.631L45.1082 366.631L45.1082 367.263L45.4242 367.263L45.4242 367.578L45.7401 367.578L45.7401 368.21L46.0561 368.21L46.0561 368.841L46.3721 368.841L46.3721 369.473L46.688 369.473L46.688 369.789L47.004 369.789L47.004 370.42L47.32 370.42L47.32 371.052L47.636 371.052L47.636 371.683L47.9519 371.683L47.9519 371.999L34.9971 371.999" fill="url(#paint94_linear_59_1973)"/>
<path d="M371.508 371.368L371.824 371.368L371.824 370.736L372.14 370.736L372.14 370.42L372.456 370.42L372.456 369.789L372.772 369.789L372.772 369.157L373.088 369.157L373.088 368.526L373.404 368.526L373.404 368.21L373.72 368.21L373.72 367.578L374.036 367.578L374.036 366.947L374.352 366.947L374.352 366.315L374.668 366.315L374.668 366L374.984 366L374.984 365.368L375.299 365.368L375.299 364.737L375.931 364.737L375.931 365.052L376.247 365.052L376.247 365.684L376.563 365.684L376.563 366.315L376.879 366.315L376.879 366.947L377.195 366.947L377.195 367.263L377.511 367.263L377.511 367.894L377.827 367.894L377.827 368.526L378.143 368.526L378.143 369.157L378.459 369.157L378.459 369.473L378.775 369.473L378.775 370.105L379.091 370.105L379.091 370.736L379.407 370.736L379.407 371.052L379.723 371.052L379.723 371.683L380.039 371.683L380.039 371.999L371.508 371.999" fill="url(#paint95_linear_59_1973)"/>
<path d="M409.077 361.585L402.94 350.966L415.216 350.966L409.077 361.585Z" fill="url(#paint96_linear_59_1973)"/>
<path d="M473.541 317.315L475.92 313.191L478.3 317.315L473.541 317.315Z" fill="url(#paint97_linear_59_1973)"/>
<path d="M475.92 243.793L471.604 236.316L480.24 236.316L475.92 243.793Z" fill="url(#paint98_linear_59_1973)"/>
<path d="M470.135 203.574L475.921 193.565L481.706 203.574L470.135 203.574Z" fill="url(#paint99_linear_59_1973)"/>
<path d="M475.921 132.443L467.826 118.439L484.013 118.439L475.921 132.443Z" fill="url(#paint100_linear_59_1973)"/>
<path d="M467.781 89.2378L475.92 75.1484L484.066 89.2378L467.781 89.2378Z" fill="url(#paint101_linear_59_1973)"/>
<path d="M475.92 14.8967L469.437 3.67139L482.407 3.67139L475.92 14.8967Z" fill="url(#paint102_linear_59_1973)"/>
<path d="M441.021 371.684L441.337 371.684L441.337 371.368L441.653 371.368L441.653 370.736L441.969 370.736L441.969 370.105L442.285 370.105L442.285 369.789L442.917 369.789L442.917 370.421L443.233 370.421L443.233 371.052L443.549 371.052L443.549 371.684L443.865 371.684L443.865 371.999L441.021 371.999" fill="url(#paint103_linear_59_1973)"/>
<path d="M475.92 356.631L474.082 353.441L477.763 353.441L475.92 356.631Z" fill="url(#paint104_linear_59_1973)"/>
<path d="M509.341 297.877L508.282 296.042L510.402 296.042L509.341 297.877Z" fill="url(#paint105_linear_59_1973)"/>
<path d="M507.802 258.978L509.341 256.31L510.882 258.978L507.802 258.978Z" fill="url(#paint106_linear_59_1973)"/>
<path d="M509.341 184.745L506.058 179.062L512.627 179.062L509.341 184.745Z" fill="url(#paint107_linear_59_1973)"/>
<path d="M505.157 144.805L509.341 137.565L513.524 144.805L505.157 144.805Z" fill="url(#paint108_linear_59_1973)"/>
<path d="M509.341 70.6548L504.668 62.5649L514.021 62.5649L509.341 70.6548Z" fill="url(#paint109_linear_59_1973)"/>
<path d="M505.12 29.1283L509.341 21.8215L513.566 29.1283L505.12 29.1283Z" fill="url(#paint110_linear_59_1973)"/>
<path d="M542.764 239.433L542.224 238.495L543.305 238.495L542.764 239.433Z" fill="url(#paint111_linear_59_1973)"/>
<path d="M541.804 200.796L542.764 199.135L543.722 200.796L541.804 200.796Z" fill="url(#paint112_linear_59_1973)"/>
<path d="M542.765 125.263L540.9 122.029L544.626 122.029L542.765 125.263Z" fill="url(#paint113_linear_59_1973)"/>
<path d="M540.723 85.726L542.764 82.1831L544.805 85.726L540.723 85.726Z" fill="url(#paint114_linear_59_1973)"/>
<path d="M542.764 9.3302L541.102 6.45361L544.423 6.45361L542.764 9.3302Z" fill="url(#paint115_linear_59_1973)"/>
</g>
<defs>
<linearGradient id="paint0_linear_59_1973" x1="163.819" y1="139.13" x2="186.446" y2="139.13" gradientUnits="userSpaceOnUse">
<stop stop-color="#C55CCE"/>
<stop offset="1" stop-color="#2E2E2D" stop-opacity="0"/>
</linearGradient>
<linearGradient id="paint1_linear_59_1973" x1="164.062" y1="184.154" x2="186.199" y2="184.154" gradientUnits="userSpaceOnUse">
<stop stop-color="#C55CCE"/>
<stop offset="1" stop-color="#2E2E2D" stop-opacity="0"/>
</linearGradient>
<linearGradient id="paint2_linear_59_1973" x1="197.486" y1="197.046" x2="219.617" y2="197.046" gradientUnits="userSpaceOnUse">
<stop stop-color="#C55CCE"/>
<stop offset="1" stop-color="#2E2E2D" stop-opacity="0"/>
</linearGradient>
<linearGradient id="paint3_linear_59_1973" x1="230.347" y1="184.309" x2="253.596" y2="184.309" gradientUnits="userSpaceOnUse">
<stop stop-color="#C55CCE"/>
<stop offset="1" stop-color="#2E2E2D" stop-opacity="0"/>
</linearGradient>
<linearGradient id="paint4_linear_59_1973" x1="230.007" y1="138.941" x2="253.944" y2="138.941" gradientUnits="userSpaceOnUse">
<stop stop-color="#C55CCE"/>
<stop offset="1" stop-color="#2E2E2D" stop-opacity="0"/>
</linearGradient>
<linearGradient id="paint5_linear_59_1973" x1="196.763" y1="126.513" x2="220.343" y2="126.513" gradientUnits="userSpaceOnUse">
<stop stop-color="#C55CCE"/>
<stop offset="1" stop-color="#2E2E2D" stop-opacity="0"/>
</linearGradient>
<linearGradient id="paint6_linear_59_1973" x1="129.935" y1="126.508" x2="153.487" y2="126.508" gradientUnits="userSpaceOnUse">
<stop stop-color="#C55CCE"/>
<stop offset="1" stop-color="#2E2E2D" stop-opacity="0"/>
</linearGradient>
<linearGradient id="paint7_linear_59_1973" x1="130.168" y1="196.91" x2="153.254" y2="196.91" gradientUnits="userSpaceOnUse">
<stop stop-color="#C55CCE"/>
<stop offset="1" stop-color="#2E2E2D" stop-opacity="0"/>
</linearGradient>
<linearGradient id="paint8_linear_59_1973" x1="197.502" y1="241.996" x2="219.604" y2="241.996" gradientUnits="userSpaceOnUse">
<stop stop-color="#C55CCE"/>
<stop offset="1" stop-color="#2E2E2D" stop-opacity="0"/>
</linearGradient>
<linearGradient id="paint9_linear_59_1973" x1="263.303" y1="196.754" x2="287.484" y2="196.754" gradientUnits="userSpaceOnUse">
<stop stop-color="#C55CCE"/>
<stop offset="1" stop-color="#2E2E2D" stop-opacity="0"/>
</linearGradient>
<linearGradient id="paint10_linear_59_1973" x1="263.125" y1="126.647" x2="287.66" y2="126.647" gradientUnits="userSpaceOnUse">
<stop stop-color="#C55CCE"/>
<stop offset="1" stop-color="#2E2E2D" stop-opacity="0"/>
</linearGradient>
<linearGradient id="paint11_linear_59_1973" x1="196.408" y1="81.0409" x2="220.697" y2="81.0409" gradientUnits="userSpaceOnUse">
<stop stop-color="#C55CCE"/>
<stop offset="1" stop-color="#2E2E2D" stop-opacity="0"/>
</linearGradient>
<linearGradient id="paint12_linear_59_1973" x1="95.8623" y1="138.808" x2="120.714" y2="138.808" gradientUnits="userSpaceOnUse">
<stop stop-color="#C55CCE"/>
<stop offset="1" stop-color="#2E2E2D" stop-opacity="0"/>
</linearGradient>
<linearGradient id="paint13_linear_59_1973" x1="96.4189" y1="184.384" x2="120.161" y2="184.384" gradientUnits="userSpaceOnUse">
<stop stop-color="#C55CCE"/>
<stop offset="1" stop-color="#2E2E2D" stop-opacity="0"/>
</linearGradient>
<linearGradient id="paint14_linear_59_1973" x1="130.357" y1="242.084" x2="153.063" y2="242.084" gradientUnits="userSpaceOnUse">
<stop stop-color="#C55CCE"/>
<stop offset="1" stop-color="#2E2E2D" stop-opacity="0"/>
</linearGradient>
<linearGradient id="paint15_linear_59_1973" x1="163.661" y1="254.782" x2="186.604" y2="254.782" gradientUnits="userSpaceOnUse">
<stop stop-color="#C55CCE"/>
<stop offset="1" stop-color="#2E2E2D" stop-opacity="0"/>
</linearGradient>
<linearGradient id="paint16_linear_59_1973" x1="230.343" y1="254.733" x2="253.602" y2="254.733" gradientUnits="userSpaceOnUse">
<stop stop-color="#C55CCE"/>
<stop offset="1" stop-color="#2E2E2D" stop-opacity="0"/>
</linearGradient>
<linearGradient id="paint17_linear_59_1973" x1="263.458" y1="242.251" x2="287.33" y2="242.251" gradientUnits="userSpaceOnUse">
<stop stop-color="#C55CCE"/>
<stop offset="1" stop-color="#2E2E2D" stop-opacity="0"/>
</linearGradient>
<linearGradient id="paint18_linear_59_1973" x1="295.481" y1="184.806" x2="322.156" y2="184.806" gradientUnits="userSpaceOnUse">
<stop stop-color="#C55CCE"/>
<stop offset="1" stop-color="#2E2E2D" stop-opacity="0"/>
</linearGradient>
<linearGradient id="paint19_linear_59_1973" x1="295.251" y1="138.478" x2="322.384" y2="138.478" gradientUnits="userSpaceOnUse">
<stop stop-color="#C55CCE"/>
<stop offset="1" stop-color="#2E2E2D" stop-opacity="0"/>
</linearGradient>
<linearGradient id="paint20_linear_59_1973" x1="263.249" y1="81.0409" x2="287.538" y2="81.0409" gradientUnits="userSpaceOnUse">
<stop stop-color="#C55CCE"/>
<stop offset="1" stop-color="#2E2E2D" stop-opacity="0"/>
</linearGradient>
<linearGradient id="paint21_linear_59_1973" x1="229.826" y1="68.7679" x2="254.121" y2="68.7679" gradientUnits="userSpaceOnUse">
<stop stop-color="#C55CCE"/>
<stop offset="1" stop-color="#2E2E2D" stop-opacity="0"/>
</linearGradient>
<linearGradient id="paint22_linear_59_1973" x1="163.124" y1="68.7252" x2="187.138" y2="68.7252" gradientUnits="userSpaceOnUse">
<stop stop-color="#C55CCE"/>
<stop offset="1" stop-color="#2E2E2D" stop-opacity="0"/>
</linearGradient>
<linearGradient id="paint23_linear_59_1973" x1="129.844" y1="81.12" x2="153.579" y2="81.12" gradientUnits="userSpaceOnUse">
<stop stop-color="#C55CCE"/>
<stop offset="1" stop-color="#2E2E2D" stop-opacity="0"/>
</linearGradient>
<linearGradient id="paint24_linear_59_1973" x1="61.9404" y1="80.8132" x2="87.7971" y2="80.8132" gradientUnits="userSpaceOnUse">
<stop stop-color="#C55CCE"/>
<stop offset="1" stop-color="#2E2E2D" stop-opacity="0"/>
</linearGradient>
<linearGradient id="paint25_linear_59_1973" x1="61.8613" y1="126.859" x2="87.876" y2="126.859" gradientUnits="userSpaceOnUse">
<stop stop-color="#C55CCE"/>
<stop offset="1" stop-color="#2E2E2D" stop-opacity="0"/>
</linearGradient>
<linearGradient id="paint26_linear_59_1973" x1="63.2324" y1="196.883" x2="86.5009" y2="196.883" gradientUnits="userSpaceOnUse">
<stop stop-color="#C55CCE"/>
<stop offset="1" stop-color="#2E2E2D" stop-opacity="0"/>
</linearGradient>
<linearGradient id="paint27_linear_59_1973" x1="64.2178" y1="241.88" x2="85.52" y2="241.88" gradientUnits="userSpaceOnUse">
<stop stop-color="#C55CCE"/>
<stop offset="1" stop-color="#2E2E2D" stop-opacity="0"/>
</linearGradient>
<linearGradient id="paint28_linear_59_1973" x1="96.916" y1="254.805" x2="119.662" y2="254.805" gradientUnits="userSpaceOnUse">
<stop stop-color="#C55CCE"/>
<stop offset="1" stop-color="#2E2E2D" stop-opacity="0"/>
</linearGradient>
<linearGradient id="paint29_linear_59_1973" x1="163.079" y1="300.133" x2="187.184" y2="300.133" gradientUnits="userSpaceOnUse">
<stop stop-color="#C55CCE"/>
<stop offset="1" stop-color="#2E2E2D" stop-opacity="0"/>
</linearGradient>
<linearGradient id="paint30_linear_59_1973" x1="196.592" y1="312.487" x2="220.513" y2="312.487" gradientUnits="userSpaceOnUse">
<stop stop-color="#C55CCE"/>
<stop offset="1" stop-color="#2E2E2D" stop-opacity="0"/>
</linearGradient>
<linearGradient id="paint31_linear_59_1973" x1="230.094" y1="300.082" x2="253.855" y2="300.082" gradientUnits="userSpaceOnUse">
<stop stop-color="#C55CCE"/>
<stop offset="1" stop-color="#2E2E2D" stop-opacity="0"/>
</linearGradient>
<linearGradient id="paint32_linear_59_1973" x1="296.587" y1="254.56" x2="321.043" y2="254.56" gradientUnits="userSpaceOnUse">
<stop stop-color="#C55CCE"/>
<stop offset="1" stop-color="#2E2E2D" stop-opacity="0"/>
</linearGradient>
<linearGradient id="paint33_linear_59_1973" x1="329.708" y1="242.418" x2="354.765" y2="242.418" gradientUnits="userSpaceOnUse">
<stop stop-color="#C55CCE"/>
<stop offset="1" stop-color="#2E2E2D" stop-opacity="0"/>
</linearGradient>
<linearGradient id="paint34_linear_59_1973" x1="328.358" y1="196.236" x2="356.113" y2="196.236" gradientUnits="userSpaceOnUse">
<stop stop-color="#C55CCE"/>
<stop offset="1" stop-color="#2E2E2D" stop-opacity="0"/>
</linearGradient>
<linearGradient id="paint35_linear_59_1973" x1="327.528" y1="127.352" x2="356.948" y2="127.352" gradientUnits="userSpaceOnUse">
<stop stop-color="#C55CCE"/>
<stop offset="1" stop-color="#2E2E2D" stop-opacity="0"/>
</linearGradient>
<linearGradient id="paint36_linear_59_1973" x1="328.396" y1="80.5501" x2="356.076" y2="80.5501" gradientUnits="userSpaceOnUse">
<stop stop-color="#C55CCE"/>
<stop offset="1" stop-color="#2E2E2D" stop-opacity="0"/>
</linearGradient>
<linearGradient id="paint37_linear_59_1973" x1="296.174" y1="68.908" x2="321.458" y2="68.908" gradientUnits="userSpaceOnUse">
<stop stop-color="#C55CCE"/>
<stop offset="1" stop-color="#2E2E2D" stop-opacity="0"/>
</linearGradient>
<linearGradient id="paint38_linear_59_1973" x1="229.67" y1="23.1451" x2="254.275" y2="23.1451" gradientUnits="userSpaceOnUse">
<stop stop-color="#C55CCE"/>
<stop offset="1" stop-color="#2E2E2D" stop-opacity="0"/>
</linearGradient>
<linearGradient id="paint39_linear_59_1973" x1="195.703" y1="11.1196" x2="221.402" y2="11.1196" gradientUnits="userSpaceOnUse">
<stop stop-color="#C55CCE"/>
<stop offset="1" stop-color="#2E2E2D" stop-opacity="0"/>
</linearGradient>
<linearGradient id="paint40_linear_59_1973" x1="162.97" y1="23.1878" x2="187.296" y2="23.1878" gradientUnits="userSpaceOnUse">
<stop stop-color="#C55CCE"/>
<stop offset="1" stop-color="#2E2E2D" stop-opacity="0"/>
</linearGradient>
<linearGradient id="paint41_linear_59_1973" x1="95.5664" y1="68.9298" x2="121.014" y2="68.9298" gradientUnits="userSpaceOnUse">
<stop stop-color="#C55CCE"/>
<stop offset="1" stop-color="#2E2E2D" stop-opacity="0"/>
</linearGradient>
<linearGradient id="paint42_linear_59_1973" x1="28.624" y1="68.9605" x2="54.2671" y2="68.9605" gradientUnits="userSpaceOnUse">
<stop stop-color="#C55CCE"/>
<stop offset="1" stop-color="#2E2E2D" stop-opacity="0"/>
</linearGradient>
<linearGradient id="paint43_linear_59_1973" x1="29.1455" y1="138.844" x2="53.7509" y2="138.844" gradientUnits="userSpaceOnUse">
<stop stop-color="#C55CCE"/>
<stop offset="1" stop-color="#2E2E2D" stop-opacity="0"/>
</linearGradient>
<linearGradient id="paint44_linear_59_1973" x1="30.1543" y1="184.215" x2="52.7387" y2="184.215" gradientUnits="userSpaceOnUse">
<stop stop-color="#C55CCE"/>
<stop offset="1" stop-color="#2E2E2D" stop-opacity="0"/>
</linearGradient>
<linearGradient id="paint45_linear_59_1973" x1="32.1631" y1="255.411" x2="50.7353" y2="255.411" gradientUnits="userSpaceOnUse">
<stop stop-color="#C55CCE"/>
<stop offset="1" stop-color="#2E2E2D" stop-opacity="0"/>
</linearGradient>
<linearGradient id="paint46_linear_59_1973" x1="96.9541" y1="299.927" x2="119.624" y2="299.927" gradientUnits="userSpaceOnUse">
<stop stop-color="#C55CCE"/>
<stop offset="1" stop-color="#2E2E2D" stop-opacity="0"/>
</linearGradient>
<linearGradient id="paint47_linear_59_1973" x1="129.341" y1="312.369" x2="154.081" y2="312.369" gradientUnits="userSpaceOnUse">
<stop stop-color="#C55CCE"/>
<stop offset="1" stop-color="#2E2E2D" stop-opacity="0"/>
</linearGradient>
<linearGradient id="paint48_linear_59_1973" x1="195.799" y1="358.183" x2="221.308" y2="358.183" gradientUnits="userSpaceOnUse">
<stop stop-color="#C55CCE"/>
<stop offset="1" stop-color="#2E2E2D" stop-opacity="0"/>
</linearGradient>
<linearGradient id="paint49_linear_59_1973" x1="263.43" y1="312.487" x2="287.358" y2="312.487" gradientUnits="userSpaceOnUse">
<stop stop-color="#C55CCE"/>
<stop offset="1" stop-color="#2E2E2D" stop-opacity="0"/>
</linearGradient>
<linearGradient id="paint50_linear_59_1973" x1="297.036" y1="300.055" x2="320.601" y2="300.055" gradientUnits="userSpaceOnUse">
<stop stop-color="#C55CCE"/>
<stop offset="1" stop-color="#2E2E2D" stop-opacity="0"/>
</linearGradient>
<linearGradient id="paint51_linear_59_1973" x1="364.36" y1="254.83" x2="386.952" y2="254.83" gradientUnits="userSpaceOnUse">
<stop stop-color="#C55CCE"/>
<stop offset="1" stop-color="#2E2E2D" stop-opacity="0"/>
</linearGradient>
<linearGradient id="paint52_linear_59_1973" x1="361.27" y1="185.108" x2="390.046" y2="185.108" gradientUnits="userSpaceOnUse">
<stop stop-color="#C55CCE"/>
<stop offset="1" stop-color="#2E2E2D" stop-opacity="0"/>
</linearGradient>
<linearGradient id="paint53_linear_59_1973" x1="360.67" y1="138.069" x2="390.653" y2="138.069" gradientUnits="userSpaceOnUse">
<stop stop-color="#C55CCE"/>
<stop offset="1" stop-color="#2E2E2D" stop-opacity="0"/>
</linearGradient>
<linearGradient id="paint54_linear_59_1973" x1="362.072" y1="69.1799" x2="389.24" y2="69.1799" gradientUnits="userSpaceOnUse">
<stop stop-color="#C55CCE"/>
<stop offset="1" stop-color="#2E2E2D" stop-opacity="0"/>
</linearGradient>
<linearGradient id="paint55_linear_59_1973" x1="296.653" y1="23.1878" x2="320.977" y2="23.1878" gradientUnits="userSpaceOnUse">
<stop stop-color="#C55CCE"/>
<stop offset="1" stop-color="#2E2E2D" stop-opacity="0"/>
</linearGradient>
<linearGradient id="paint56_linear_59_1973" x1="263.347" y1="10.8883" x2="287.446" y2="10.8883" gradientUnits="userSpaceOnUse">
<stop stop-color="#C55CCE"/>
<stop offset="1" stop-color="#2E2E2D" stop-opacity="0"/>
</linearGradient>
<linearGradient id="paint57_linear_59_1973" x1="129.663" y1="10.8883" x2="153.758" y2="10.8883" gradientUnits="userSpaceOnUse">
<stop stop-color="#C55CCE"/>
<stop offset="1" stop-color="#2E2E2D" stop-opacity="0"/>
</linearGradient>
<linearGradient id="paint58_linear_59_1973" x1="96.0469" y1="23.1628" x2="120.531" y2="23.1628" gradientUnits="userSpaceOnUse">
<stop stop-color="#C55CCE"/>
<stop offset="1" stop-color="#2E2E2D" stop-opacity="0"/>
</linearGradient>
<linearGradient id="paint59_linear_59_1973" x1="-4" y1="81.075" x2="20.0509" y2="81.075" gradientUnits="userSpaceOnUse">
<stop stop-color="#C55CCE"/>
<stop offset="1" stop-color="#2E2E2D" stop-opacity="0"/>
</linearGradient>
<linearGradient id="paint60_linear_59_1973" x1="-3.82715" y1="126.525" x2="19.8746" y2="126.525" gradientUnits="userSpaceOnUse">
<stop stop-color="#C55CCE"/>
<stop offset="1" stop-color="#2E2E2D" stop-opacity="0"/>
</linearGradient>
<linearGradient id="paint61_linear_59_1973" x1="-1.52246" y1="197.485" x2="17.5717" y2="197.485" gradientUnits="userSpaceOnUse">
<stop stop-color="#C55CCE"/>
<stop offset="1" stop-color="#2E2E2D" stop-opacity="0"/>
</linearGradient>
<linearGradient id="paint62_linear_59_1973" x1="-0.00292999" y1="241.122" x2="16.0551" y2="241.122" gradientUnits="userSpaceOnUse">
<stop stop-color="#C55CCE"/>
<stop offset="1" stop-color="#2E2E2D" stop-opacity="0"/>
</linearGradient>
<linearGradient id="paint63_linear_59_1973" x1="32.3838" y1="299.27" x2="50.5117" y2="299.27" gradientUnits="userSpaceOnUse">
<stop stop-color="#C55CCE"/>
<stop offset="1" stop-color="#2E2E2D" stop-opacity="0"/>
</linearGradient>
<linearGradient id="paint64_linear_59_1973" x1="64.1709" y1="312.852" x2="85.5619" y2="312.852" gradientUnits="userSpaceOnUse">
<stop stop-color="#C55CCE"/>
<stop offset="1" stop-color="#2E2E2D" stop-opacity="0"/>
</linearGradient>
<linearGradient id="paint65_linear_59_1973" x1="128.117" y1="358.425" x2="155.303" y2="358.425" gradientUnits="userSpaceOnUse">
<stop stop-color="#C55CCE"/>
<stop offset="1" stop-color="#2E2E2D" stop-opacity="0"/>
</linearGradient>
<linearGradient id="paint66_linear_59_1973" x1="166.441" y1="364.579" x2="183.82" y2="364.579" gradientUnits="userSpaceOnUse">
<stop stop-color="#C55CCE"/>
<stop offset="1" stop-color="#2E2E2D" stop-opacity="0"/>
</linearGradient>
<linearGradient id="paint67_linear_59_1973" x1="234.376" y1="365.369" x2="249.859" y2="365.369" gradientUnits="userSpaceOnUse">
<stop stop-color="#C55CCE"/>
<stop offset="1" stop-color="#2E2E2D" stop-opacity="0"/>
</linearGradient>
<linearGradient id="paint68_linear_59_1973" x1="263.236" y1="358.011" x2="287.55" y2="358.011" gradientUnits="userSpaceOnUse">
<stop stop-color="#C55CCE"/>
<stop offset="1" stop-color="#2E2E2D" stop-opacity="0"/>
</linearGradient>
<linearGradient id="paint69_linear_59_1973" x1="331.537" y1="312.852" x2="352.935" y2="312.852" gradientUnits="userSpaceOnUse">
<stop stop-color="#C55CCE"/>
<stop offset="1" stop-color="#2E2E2D" stop-opacity="0"/>
</linearGradient>
<linearGradient id="paint70_linear_59_1973" x1="365.779" y1="299.506" x2="385.537" y2="299.506" gradientUnits="userSpaceOnUse">
<stop stop-color="#C55CCE"/>
<stop offset="1" stop-color="#2E2E2D" stop-opacity="0"/>
</linearGradient>
<linearGradient id="paint71_linear_59_1973" x1="398.846" y1="241.76" x2="419.314" y2="241.76" gradientUnits="userSpaceOnUse">
<stop stop-color="#C55CCE"/>
<stop offset="1" stop-color="#2E2E2D" stop-opacity="0"/>
</linearGradient>
<linearGradient id="paint72_linear_59_1973" x1="396.854" y1="196.713" x2="421.304" y2="196.713" gradientUnits="userSpaceOnUse">
<stop stop-color="#C55CCE"/>
<stop offset="1" stop-color="#2E2E2D" stop-opacity="0"/>
</linearGradient>
<linearGradient id="paint73_linear_59_1973" x1="395.18" y1="127.117" x2="422.979" y2="127.117" gradientUnits="userSpaceOnUse">
<stop stop-color="#C55CCE"/>
<stop offset="1" stop-color="#2E2E2D" stop-opacity="0"/>
</linearGradient>
<linearGradient id="paint74_linear_59_1973" x1="395.888" y1="80.735" x2="422.271" y2="80.735" gradientUnits="userSpaceOnUse">
<stop stop-color="#C55CCE"/>
<stop offset="1" stop-color="#2E2E2D" stop-opacity="0"/>
</linearGradient>
<linearGradient id="paint75_linear_59_1973" x1="363.435" y1="23.1706" x2="387.885" y2="23.1706" gradientUnits="userSpaceOnUse">
<stop stop-color="#C55CCE"/>
<stop offset="1" stop-color="#2E2E2D" stop-opacity="0"/>
</linearGradient>
<linearGradient id="paint76_linear_59_1973" x1="330.324" y1="10.8474" x2="354.149" y2="10.8474" gradientUnits="userSpaceOnUse">
<stop stop-color="#C55CCE"/>
<stop offset="1" stop-color="#2E2E2D" stop-opacity="0"/>
</linearGradient>
<linearGradient id="paint77_linear_59_1973" x1="63.0391" y1="10.823" x2="86.6962" y2="10.823" gradientUnits="userSpaceOnUse">
<stop stop-color="#C55CCE"/>
<stop offset="1" stop-color="#2E2E2D" stop-opacity="0"/>
</linearGradient>
<linearGradient id="paint78_linear_59_1973" x1="29.5371" y1="23.2607" x2="53.362" y2="23.2607" gradientUnits="userSpaceOnUse">
<stop stop-color="#C55CCE"/>
<stop offset="1" stop-color="#2E2E2D" stop-opacity="0"/>
</linearGradient>
<linearGradient id="paint79_linear_59_1973" x1="0.730468" y1="313.831" x2="15.3218" y2="313.831" gradientUnits="userSpaceOnUse">
<stop stop-color="#C55CCE"/>
<stop offset="1" stop-color="#2E2E2D" stop-opacity="0"/>
</linearGradient>
<linearGradient id="paint80_linear_59_1973" x1="63.1123" y1="357.897" x2="86.6241" y2="357.897" gradientUnits="userSpaceOnUse">
<stop stop-color="#C55CCE"/>
<stop offset="1" stop-color="#2E2E2D" stop-opacity="0"/>
</linearGradient>
<linearGradient id="paint81_linear_59_1973" x1="100.087" y1="364.894" x2="116.517" y2="364.894" gradientUnits="userSpaceOnUse">
<stop stop-color="#C55CCE"/>
<stop offset="1" stop-color="#2E2E2D" stop-opacity="0"/>
</linearGradient>
<linearGradient id="paint82_linear_59_1973" x1="302.31" y1="366.315" x2="315.58" y2="366.315" gradientUnits="userSpaceOnUse">
<stop stop-color="#C55CCE"/>
<stop offset="1" stop-color="#2E2E2D" stop-opacity="0"/>
</linearGradient>
<linearGradient id="paint83_linear_59_1973" x1="332.406" y1="357.343" x2="352.069" y2="357.343" gradientUnits="userSpaceOnUse">
<stop stop-color="#C55CCE"/>
<stop offset="1" stop-color="#2E2E2D" stop-opacity="0"/>
</linearGradient>
<linearGradient id="paint84_linear_59_1973" x1="401.898" y1="313.865" x2="416.262" y2="313.865" gradientUnits="userSpaceOnUse">
<stop stop-color="#C55CCE"/>
<stop offset="1" stop-color="#2E2E2D" stop-opacity="0"/>
</linearGradient>
<linearGradient id="paint85_linear_59_1973" x1="437.255" y1="298.169" x2="447.742" y2="298.169" gradientUnits="userSpaceOnUse">
<stop stop-color="#C55CCE"/>
<stop offset="1" stop-color="#2E2E2D" stop-opacity="0"/>
</linearGradient>
<linearGradient id="paint86_linear_59_1973" x1="435.928" y1="256.193" x2="449.075" y2="256.193" gradientUnits="userSpaceOnUse">
<stop stop-color="#C55CCE"/>
<stop offset="1" stop-color="#2E2E2D" stop-opacity="0"/>
</linearGradient>
<linearGradient id="paint87_linear_59_1973" x1="432.323" y1="183.892" x2="452.681" y2="183.892" gradientUnits="userSpaceOnUse">
<stop stop-color="#C55CCE"/>
<stop offset="1" stop-color="#2E2E2D" stop-opacity="0"/>
</linearGradient>
<linearGradient id="paint88_linear_59_1973" x1="431.09" y1="139.099" x2="453.91" y2="139.099" gradientUnits="userSpaceOnUse">
<stop stop-color="#C55CCE"/>
<stop offset="1" stop-color="#2E2E2D" stop-opacity="0"/>
</linearGradient>
<linearGradient id="paint89_linear_59_1973" x1="431.359" y1="68.4738" x2="453.638" y2="68.4738" gradientUnits="userSpaceOnUse">
<stop stop-color="#C55CCE"/>
<stop offset="1" stop-color="#2E2E2D" stop-opacity="0"/>
</linearGradient>
<linearGradient id="paint90_linear_59_1973" x1="432.598" y1="23.8377" x2="452.406" y2="23.8377" gradientUnits="userSpaceOnUse">
<stop stop-color="#C55CCE"/>
<stop offset="1" stop-color="#2E2E2D" stop-opacity="0"/>
</linearGradient>
<linearGradient id="paint91_linear_59_1973" x1="398.501" y1="10.4622" x2="419.658" y2="10.4622" gradientUnits="userSpaceOnUse">
<stop stop-color="#C55CCE"/>
<stop offset="1" stop-color="#2E2E2D" stop-opacity="0"/>
</linearGradient>
<linearGradient id="paint92_linear_59_1973" x1="-2.21289" y1="10.3648" x2="18.2599" y2="10.3648" gradientUnits="userSpaceOnUse">
<stop stop-color="#C55CCE"/>
<stop offset="1" stop-color="#2E2E2D" stop-opacity="0"/>
</linearGradient>
<linearGradient id="paint93_linear_59_1973" x1="0.0986325" y1="356.794" x2="15.9563" y2="356.794" gradientUnits="userSpaceOnUse">
<stop stop-color="#C55CCE"/>
<stop offset="1" stop-color="#2E2E2D" stop-opacity="0"/>
</linearGradient>
<linearGradient id="paint94_linear_59_1973" x1="34.9971" y1="366.473" x2="47.9519" y2="366.473" gradientUnits="userSpaceOnUse">
<stop stop-color="#C55CCE"/>
<stop offset="1" stop-color="#2E2E2D" stop-opacity="0"/>
</linearGradient>
<linearGradient id="paint95_linear_59_1973" x1="371.508" y1="368.368" x2="380.039" y2="368.368" gradientUnits="userSpaceOnUse">
<stop stop-color="#C55CCE"/>
<stop offset="1" stop-color="#2E2E2D" stop-opacity="0"/>
</linearGradient>
<linearGradient id="paint96_linear_59_1973" x1="402.94" y1="356.275" x2="415.216" y2="356.275" gradientUnits="userSpaceOnUse">
<stop stop-color="#C55CCE"/>
<stop offset="1" stop-color="#2E2E2D" stop-opacity="0"/>
</linearGradient>
<linearGradient id="paint97_linear_59_1973" x1="473.541" y1="315.253" x2="478.3" y2="315.253" gradientUnits="userSpaceOnUse">
<stop stop-color="#C55CCE"/>
<stop offset="1" stop-color="#2E2E2D" stop-opacity="0"/>
</linearGradient>
<linearGradient id="paint98_linear_59_1973" x1="471.604" y1="240.055" x2="480.24" y2="240.055" gradientUnits="userSpaceOnUse">
<stop stop-color="#C55CCE"/>
<stop offset="1" stop-color="#2E2E2D" stop-opacity="0"/>
</linearGradient>
<linearGradient id="paint99_linear_59_1973" x1="470.135" y1="198.57" x2="481.706" y2="198.57" gradientUnits="userSpaceOnUse">
<stop stop-color="#C55CCE"/>
<stop offset="1" stop-color="#2E2E2D" stop-opacity="0"/>
</linearGradient>
<linearGradient id="paint100_linear_59_1973" x1="467.826" y1="125.441" x2="484.013" y2="125.441" gradientUnits="userSpaceOnUse">
<stop stop-color="#C55CCE"/>
<stop offset="1" stop-color="#2E2E2D" stop-opacity="0"/>
</linearGradient>
<linearGradient id="paint101_linear_59_1973" x1="467.781" y1="82.1931" x2="484.066" y2="82.1931" gradientUnits="userSpaceOnUse">
<stop stop-color="#C55CCE"/>
<stop offset="1" stop-color="#2E2E2D" stop-opacity="0"/>
</linearGradient>
<linearGradient id="paint102_linear_59_1973" x1="469.437" y1="9.28405" x2="482.407" y2="9.28405" gradientUnits="userSpaceOnUse">
<stop stop-color="#C55CCE"/>
<stop offset="1" stop-color="#2E2E2D" stop-opacity="0"/>
</linearGradient>
<linearGradient id="paint103_linear_59_1973" x1="441.021" y1="370.894" x2="443.865" y2="370.894" gradientUnits="userSpaceOnUse">
<stop stop-color="#C55CCE"/>
<stop offset="1" stop-color="#2E2E2D" stop-opacity="0"/>
</linearGradient>
<linearGradient id="paint104_linear_59_1973" x1="474.082" y1="355.036" x2="477.763" y2="355.036" gradientUnits="userSpaceOnUse">
<stop stop-color="#C55CCE"/>
<stop offset="1" stop-color="#2E2E2D" stop-opacity="0"/>
</linearGradient>
<linearGradient id="paint105_linear_59_1973" x1="508.282" y1="296.959" x2="510.402" y2="296.959" gradientUnits="userSpaceOnUse">
<stop stop-color="#C55CCE"/>
<stop offset="1" stop-color="#2E2E2D" stop-opacity="0"/>
</linearGradient>
<linearGradient id="paint106_linear_59_1973" x1="507.802" y1="257.644" x2="510.882" y2="257.644" gradientUnits="userSpaceOnUse">
<stop stop-color="#C55CCE"/>
<stop offset="1" stop-color="#2E2E2D" stop-opacity="0"/>
</linearGradient>
<linearGradient id="paint107_linear_59_1973" x1="506.058" y1="181.904" x2="512.627" y2="181.904" gradientUnits="userSpaceOnUse">
<stop stop-color="#C55CCE"/>
<stop offset="1" stop-color="#2E2E2D" stop-opacity="0"/>
</linearGradient>
<linearGradient id="paint108_linear_59_1973" x1="505.157" y1="141.185" x2="513.524" y2="141.185" gradientUnits="userSpaceOnUse">
<stop stop-color="#C55CCE"/>
<stop offset="1" stop-color="#2E2E2D" stop-opacity="0"/>
</linearGradient>
<linearGradient id="paint109_linear_59_1973" x1="504.668" y1="66.6099" x2="514.021" y2="66.6099" gradientUnits="userSpaceOnUse">
<stop stop-color="#C55CCE"/>
<stop offset="1" stop-color="#2E2E2D" stop-opacity="0"/>
</linearGradient>
<linearGradient id="paint110_linear_59_1973" x1="505.12" y1="25.4749" x2="513.566" y2="25.4749" gradientUnits="userSpaceOnUse">
<stop stop-color="#C55CCE"/>
<stop offset="1" stop-color="#2E2E2D" stop-opacity="0"/>
</linearGradient>
<linearGradient id="paint111_linear_59_1973" x1="542.224" y1="238.964" x2="543.305" y2="238.964" gradientUnits="userSpaceOnUse">
<stop stop-color="#C55CCE"/>
<stop offset="1" stop-color="#2E2E2D" stop-opacity="0"/>
</linearGradient>
<linearGradient id="paint112_linear_59_1973" x1="541.804" y1="199.966" x2="543.722" y2="199.966" gradientUnits="userSpaceOnUse">
<stop stop-color="#C55CCE"/>
<stop offset="1" stop-color="#2E2E2D" stop-opacity="0"/>
</linearGradient>
<linearGradient id="paint113_linear_59_1973" x1="540.9" y1="123.646" x2="544.626" y2="123.646" gradientUnits="userSpaceOnUse">
<stop stop-color="#C55CCE"/>
<stop offset="1" stop-color="#2E2E2D" stop-opacity="0"/>
</linearGradient>
<linearGradient id="paint114_linear_59_1973" x1="540.723" y1="83.9545" x2="544.805" y2="83.9545" gradientUnits="userSpaceOnUse">
<stop stop-color="#C55CCE"/>
<stop offset="1" stop-color="#2E2E2D" stop-opacity="0"/>
</linearGradient>
<linearGradient id="paint115_linear_59_1973" x1="541.102" y1="7.89191" x2="544.423" y2="7.89191" gradientUnits="userSpaceOnUse">
<stop stop-color="#C55CCE"/>
<stop offset="1" stop-color="#2E2E2D" stop-opacity="0"/>
</linearGradient>
</defs>
</svg>
