<svg width="21" height="21" viewBox="0 0 21 21" fill="none" xmlns="http://www.w3.org/2000/svg">
<path fill-rule="evenodd" clip-rule="evenodd" d="M4.92857 2.28364C4.92857 3.52873 4.06672 4.53636 2.71894 4.53636C1.42367 4.53636 0.56182 3.52873 0.588493 2.28364C0.56182 0.978039 1.42365 -0.000244141 2.74476 -0.000244141C4.0667 -0.000244141 4.90273 0.978039 4.92857 2.28364ZM0.696853 20.8188V6.31597H4.79437V20.8179H0.696853V20.8188Z" fill="white"/>
<path fill-rule="evenodd" clip-rule="evenodd" d="M8.07857 10.9441C8.07857 9.13517 8.02439 7.59301 7.97021 6.31767H11.5293L11.7185 8.3045H11.7993C12.3386 7.38489 13.6864 5.99219 15.8702 5.99219C18.5658 5.99219 20.5879 7.94968 20.5879 12.2186V20.8205H16.4903V12.7833C16.4903 10.9139 15.8977 9.63944 14.4149 9.63944C13.2822 9.63944 12.6087 10.4995 12.3395 11.3292C12.2311 11.6263 12.1778 12.0407 12.1778 12.4569V20.8205H8.08023V10.9441H8.07857Z" fill="white"/>
</svg>
