<svg width="30" height="30" viewBox="0 0 30 30" fill="none" xmlns="http://www.w3.org/2000/svg">
<circle cx="15" cy="15" r="15" fill="#36475E"/>
<path d="M13.9435 22.1629C12.4102 20.2772 9 15.7068 9 13.1396C9 10.0249 11.5249 7.5 14.6396 7.5C17.7531 7.5 20.2792 10.0249 20.2792 13.1396C20.2792 15.7068 16.8426 20.2772 15.3357 22.1629C14.9744 22.6124 14.3047 22.6124 13.9435 22.1629ZM14.6396 15.0195C15.6765 15.0195 16.5195 14.1765 16.5195 13.1396C16.5195 12.1027 15.6765 11.2597 14.6396 11.2597C13.6027 11.2597 12.7597 12.1027 12.7597 13.1396C12.7597 14.1765 13.6027 15.0195 14.6396 15.0195Z" fill="white"/>
</svg>
