<svg width="208" height="45" viewBox="0 0 208 45" fill="none" xmlns="http://www.w3.org/2000/svg">
<path d="M69.4501 28.8444C70.121 28.453 70.68 28.0058 71.2391 27.5026C71.7422 26.9995 72.1895 26.4404 72.5808 25.8255C72.9722 25.2105 73.2517 24.5396 73.4194 23.8688C73.643 23.1979 73.7548 22.4711 73.7548 21.6885C73.7548 20.5144 73.5312 19.3963 73.0281 18.39C72.5249 17.3837 71.8541 16.4333 71.0155 15.7066C70.1769 14.9239 69.1706 14.3089 68.0525 13.8617C66.9344 13.4145 65.7045 13.1908 64.4186 13.1908C63.58 13.1908 62.7415 13.3026 61.9588 13.4704C61.1761 13.694 60.3934 13.9735 59.7226 14.3089C59.0517 14.7003 58.3808 15.1475 57.8218 15.6507C57.2627 16.1538 56.7596 16.7129 56.3683 17.3837C55.9769 17.9987 55.6415 18.6696 55.4179 19.3963C55.1942 20.1231 55.0824 20.8499 55.0824 21.6326C55.0824 22.4152 55.1942 23.142 55.4179 23.8688C55.6415 24.5955 55.9769 25.2664 56.3683 25.8814C56.7596 26.4963 57.2627 27.1113 57.8218 27.6144C58.3808 28.1176 58.9958 28.5648 59.7226 28.9562C60.3934 29.3475 61.1761 29.627 61.9588 29.7947C62.7415 30.0184 63.58 30.0743 64.4186 30.0743C65.0895 30.0743 65.7045 30.0184 66.3753 29.9066C66.9903 29.7947 67.6052 29.627 68.1643 29.4034L69.3383 30.857C68.6115 31.1924 67.8289 31.416 66.9903 31.5837C66.1517 31.7514 65.3131 31.8632 64.4186 31.8632C62.8533 31.8632 61.3997 31.5837 60.058 31.0806C58.7163 30.5215 57.4864 29.7948 56.4801 28.9003C55.4738 27.9499 54.6352 26.8877 54.0761 25.6577C53.4612 24.4278 53.1816 23.0861 53.1816 21.6885C53.1816 20.2908 53.4612 18.9491 54.0761 17.7192C54.6911 16.4893 55.4738 15.3711 56.4801 14.4767C57.4864 13.5263 58.7163 12.7995 60.058 12.2963C61.3997 11.7373 62.9092 11.5137 64.4186 11.5137C65.984 11.5137 67.4375 11.7932 68.8352 12.2963C70.2328 12.8554 71.4068 13.5822 72.4131 14.4767C73.4194 15.4271 74.258 16.4893 74.817 17.7192C75.432 18.9491 75.7115 20.2908 75.7115 21.6885C75.7115 22.4152 75.6556 23.142 75.4879 23.8129C75.3202 24.4837 75.0966 25.1546 74.7611 25.8255C74.4257 26.4404 74.0903 27.0554 73.643 27.6144C73.1958 28.1735 72.6926 28.6766 72.1336 29.1798C73.084 30.2979 73.9785 31.416 74.9289 32.5341C75.8792 33.6522 76.7737 34.8262 77.7241 36.0003H76.8296C75.7674 36.0003 74.9848 35.6648 74.4816 34.938L69.4501 28.8444Z" fill="#111111"/>
<path d="M84.4887 31.7483H82.5879V11.6782H84.4887V31.7483Z" fill="#111111"/>
<path d="M101.093 14.3058C100.869 14.1381 100.645 14.0262 100.478 13.8585C100.31 13.7467 100.086 13.6349 99.9185 13.5231C99.7508 13.4113 99.4713 13.3554 99.1917 13.2995C98.9122 13.2436 98.5768 13.2436 98.1854 13.2436C97.5705 13.2436 97.0114 13.3554 96.5083 13.5231C95.9492 13.6908 95.502 13.9703 95.1106 14.2499C94.7193 14.5853 94.3839 14.9207 94.1602 15.3121C93.9366 15.7034 93.8248 16.1507 93.8248 16.5979C93.8248 17.101 93.8807 17.5483 94.0484 17.8837C94.2161 18.2191 94.4398 18.4987 94.7752 18.7782C95.1106 19.0577 95.6138 19.2814 96.1728 19.505C96.7319 19.7286 97.4587 19.9522 98.2972 20.2317C98.7445 20.3995 99.1917 20.5113 99.5831 20.679C99.9744 20.7908 100.366 20.9585 100.701 21.0703C101.037 21.1821 101.372 21.3498 101.652 21.5176C101.931 21.6853 102.267 21.853 102.546 22.0207C103.273 22.5239 103.776 23.1388 104.055 23.8656C104.335 24.5924 104.503 25.375 104.503 26.2695C104.503 27.164 104.335 27.9467 103.944 28.6176C103.552 29.3443 103.049 29.9034 102.378 30.4065C101.707 30.9097 100.981 31.2451 100.086 31.5246C99.1917 31.8042 98.2972 31.916 97.3468 31.916C95.4461 31.916 93.8248 31.4128 92.4831 30.3506C92.1476 30.0711 91.8122 29.7357 91.5886 29.4561C91.3091 29.1766 91.1413 28.8971 90.9736 28.6735L91.1973 28.5617C91.5327 28.3939 91.8681 28.2821 92.1476 28.2821C92.3713 28.2821 92.6508 28.338 92.8744 28.3939C93.098 28.4498 93.3217 28.5617 93.4894 28.7294C93.9366 29.0648 94.2721 29.3443 94.6634 29.568C94.9988 29.7357 95.3343 29.9034 95.6138 30.0152C95.8933 30.127 96.2287 30.1829 96.5083 30.1829C96.7878 30.1829 97.0673 30.2388 97.4028 30.2388C98.0177 30.2388 98.6327 30.1829 99.2476 30.0711C99.8626 29.9034 100.422 29.6798 100.925 29.3443C101.428 29.0089 101.819 28.6176 102.155 28.1144C102.49 27.6113 102.602 27.0522 102.602 26.3254C102.602 25.5428 102.49 24.9278 102.211 24.4806C101.987 24.0333 101.596 23.642 101.204 23.3624C100.757 23.0829 100.254 22.8593 99.639 22.6357C99.024 22.468 98.4091 22.2443 97.7382 21.9648C96.8437 21.6294 96.061 21.3499 95.3343 21.0703C94.6075 20.7908 93.9925 20.4554 93.4894 20.1199C92.9862 19.7286 92.5949 19.2814 92.3154 18.7782C92.0358 18.2191 91.8681 17.5483 91.8681 16.6538C91.8681 15.8711 92.0358 15.1443 92.4272 14.5294C92.8185 13.9144 93.3217 13.3554 93.8807 12.9081C94.4398 12.4609 95.1665 12.1255 95.8933 11.8459C96.6201 11.6223 97.4028 11.4546 98.1854 11.4546C98.8563 11.4546 99.4154 11.5105 99.9744 11.6782C100.478 11.8459 100.981 12.0136 101.428 12.2932C101.875 12.5168 102.267 12.7963 102.602 13.0759C102.937 13.3554 103.273 13.6908 103.552 13.9703L103.049 14.2499C102.937 14.3617 102.77 14.4176 102.602 14.4735C102.434 14.5294 102.267 14.5294 102.043 14.5294C101.707 14.5294 101.372 14.4735 101.093 14.3058Z" fill="#111111"/>
<path d="M118.759 14.3058C118.535 14.1381 118.311 14.0262 118.144 13.8585C117.976 13.7467 117.752 13.6349 117.585 13.5231C117.361 13.4113 117.137 13.3554 116.858 13.2995C116.578 13.2436 116.243 13.2436 115.851 13.2436C115.236 13.2436 114.677 13.3554 114.174 13.5231C113.615 13.6908 113.168 13.9703 112.777 14.2499C112.385 14.5853 112.05 14.9207 111.826 15.3121C111.603 15.7034 111.491 16.1507 111.491 16.5979C111.491 17.101 111.547 17.5483 111.714 17.8837C111.882 18.2191 112.106 18.4987 112.441 18.7782C112.777 19.0577 113.28 19.2814 113.839 19.505C114.398 19.7286 115.125 19.9522 115.963 20.2317C116.411 20.3995 116.858 20.5113 117.249 20.679C117.64 20.7908 118.032 20.9585 118.367 21.0703C118.703 21.1821 119.038 21.3498 119.318 21.5176C119.597 21.6853 119.933 21.853 120.212 22.0207C120.939 22.5239 121.442 23.1388 121.722 23.8656C122.001 24.5924 122.169 25.375 122.169 26.2695C122.169 27.164 122.001 27.9467 121.61 28.6176C121.218 29.3443 120.715 29.9034 120.044 30.4065C119.373 30.9097 118.647 31.2451 117.752 31.5246C116.858 31.8042 115.963 31.916 115.013 31.916C113.112 31.916 111.491 31.4128 110.149 30.3506C109.814 30.0711 109.478 29.7357 109.255 29.4561C109.031 29.1766 108.807 28.8971 108.64 28.6735L108.863 28.5617C109.199 28.3939 109.534 28.2821 109.814 28.2821C110.037 28.2821 110.317 28.338 110.54 28.3939C110.764 28.4498 110.988 28.5617 111.155 28.7294C111.603 29.0648 111.938 29.3443 112.329 29.568C112.665 29.7357 113 29.9034 113.28 30.0152C113.559 30.127 113.895 30.1829 114.174 30.1829C114.454 30.1829 114.733 30.2388 115.069 30.2388C115.684 30.2388 116.299 30.1829 116.914 30.0711C117.529 29.9034 118.088 29.6798 118.591 29.3443C119.094 29.0089 119.485 28.6176 119.821 28.1144C120.156 27.6113 120.268 27.0522 120.268 26.3254C120.268 25.5428 120.156 24.9278 119.877 24.4806C119.653 24.0333 119.262 23.642 118.87 23.3624C118.423 23.0829 117.92 22.8593 117.305 22.6357C116.69 22.468 116.075 22.2443 115.404 21.9648C114.51 21.6294 113.727 21.3499 113 21.0703C112.273 20.7908 111.659 20.4554 111.155 20.1199C110.652 19.7286 110.261 19.2814 109.981 18.7782C109.702 18.2191 109.534 17.5483 109.534 16.6538C109.534 15.8711 109.702 15.1443 110.093 14.5294C110.485 13.9144 110.988 13.3554 111.547 12.9081C112.162 12.4609 112.833 12.1255 113.559 11.8459C114.286 11.6223 115.069 11.4546 115.851 11.4546C116.522 11.4546 117.081 11.5105 117.64 11.6782C118.144 11.8459 118.647 12.0136 119.094 12.2932C119.541 12.5168 119.933 12.7963 120.268 13.0759C120.603 13.3554 120.939 13.6908 121.218 13.9703L120.715 14.2499C120.603 14.3617 120.436 14.4176 120.268 14.4735C120.1 14.5294 119.933 14.5294 119.709 14.5294C119.373 14.5294 119.038 14.4735 118.759 14.3058Z" fill="#111111"/>
<path d="M125.803 13.411V11.6221H142.239V13.411H134.971V31.6921H133.07V13.411H125.803Z" fill="#111111"/>
<path d="M147.55 31.7483L152.19 11.6782H159.066C161.358 11.6782 163.092 12.1814 164.377 13.2436C165.663 14.3058 166.278 15.7034 166.334 17.4924C166.334 18.89 165.999 20.1199 165.328 21.238C164.657 22.3562 163.651 23.1947 162.421 23.8097C161.191 24.4247 159.681 24.7601 157.948 24.7601H151.463L152.19 21.4617H158.06C158.955 21.4617 159.737 21.2939 160.352 20.9585C160.967 20.6231 161.414 20.1758 161.694 19.5609C161.973 19.0018 162.141 18.3869 162.085 17.716C162.085 16.9333 161.75 16.2625 161.247 15.7593C160.688 15.2562 159.849 15.0325 158.675 15.0325H155.656L151.743 31.8042H147.55V31.7483Z" fill="#111111"/>
<path d="M164.657 31.7483L176.509 11.6782H181.597L184.112 31.7483H180.087L178.689 18.4428L178.41 15.2003H178.354L176.677 18.3869L169.13 31.7483H164.657ZM170.192 26.6609L170.919 23.5861H181.82L181.093 26.6609H170.192Z" fill="#111111"/>
<path d="M191.548 31.7483L193.337 24.1451L189.312 11.6782H193.449L195.293 17.716L196.132 20.9585L198.312 17.6601L202.785 11.6782H207.425L197.53 24.4247L195.852 31.7483H191.548Z" fill="#111111"/>
<circle cx="22.5" cy="22.5" r="22.5" fill="#111111"/>
<path d="M17.7402 32.0742V32.1289C17.7402 32.1289 17.7676 32.1289 17.7676 32.1562V32.1016C17.7676 32.0742 17.7402 32.0742 17.7402 32.0742Z" fill="#E72E80"/>
<path d="M22.5274 14.748C18.257 14.748 14.7754 18.2297 14.7754 22.5001C14.7754 22.6633 14.7754 23.0169 14.7754 23.0169V34.2506C14.8026 34.2778 14.857 34.305 14.8842 34.3322C15.5642 34.7674 16.2986 35.1482 17.0602 35.4746C17.305 35.5834 17.5498 35.665 17.7946 35.7466H17.8218V35.6922L17.7946 32.1018C17.7946 32.1018 17.7674 32.1018 17.7674 32.0746V32.0202C17.7674 32.0202 17.7946 32.0202 17.7946 32.0474L17.7674 28.5657C19.073 29.5994 20.7322 30.1978 22.5274 30.1978C26.7979 30.1978 30.2795 26.7161 30.2795 22.4457C30.2795 18.1753 26.7979 14.748 22.5274 14.748ZM22.5274 27.2873C19.889 27.2873 17.7402 25.1385 17.7402 22.5001C17.7402 19.8617 19.889 17.7129 22.5274 17.7129C25.1659 17.7129 27.3147 19.8617 27.3147 22.5001C27.2875 25.1385 25.1659 27.2873 22.5274 27.2873Z" fill="#E72E80"/>
<path d="M31.6665 33.1897H36.5897V36.5625H22.5272C22.1736 36.5625 21.8472 36.5625 21.4936 36.5353C21.3304 36.5353 21.1672 36.5081 21.0312 36.4809H21.004C19.916 36.3721 18.8552 36.1273 17.8216 35.7465V35.6921L17.7944 32.1017V32.0473C19.236 32.7545 20.8408 33.1625 22.5272 33.1625C28.4296 33.1625 33.2169 28.3752 33.2169 22.4728C33.2169 16.5704 28.4024 11.8103 22.5272 11.8103C16.652 11.8103 11.8103 16.5976 11.8103 22.5C11.8103 25.356 12.9255 27.94 14.7479 29.8712V34.2505C13.9591 33.7337 13.2247 33.1353 12.5447 32.4553C11.2391 31.1769 10.2327 29.6536 9.52551 27.9944C8.8183 26.2536 8.4375 24.404 8.4375 22.5C8.4375 20.596 8.8183 18.7464 9.55271 17.0328C10.2599 15.3463 11.2663 13.8503 12.5719 12.5719C13.8503 11.2663 15.3736 10.2599 17.0328 9.55271C18.7736 8.8183 20.6232 8.4375 22.5 8.4375C24.404 8.4375 26.2536 8.8183 27.9672 9.55271C29.6537 10.2599 31.1497 11.2663 32.4281 12.5719C33.7337 13.8503 34.7401 15.3735 35.4473 17.0328C36.1817 18.7736 36.5625 20.6232 36.5625 22.5C36.5625 24.3768 36.1817 26.2536 35.4473 27.9672C34.7401 29.6536 33.7337 31.1497 32.4281 32.4281C32.2105 32.7001 31.9385 32.9449 31.6665 33.1897Z" fill="#FCEBF3"/>
</svg>
