<svg width="120" height="158" viewBox="0 0 120 158" fill="none" xmlns="http://www.w3.org/2000/svg"><circle opacity=".1" cx="60" cy="77" r="60" fill="url(#paint0_linear_7_5587)"/><g filter="url(#filter0_d_7_5587)"><path d="M75.0234 132.777l1.3607 9.509 3.4776.013.1651-9.352-5.0034-.17z" fill="#fff"/><path d="M79.8619 142.696h-3.4776c-.0958-.001-.1882-.036-.2605-.099-.0722-.063-.1196-.149-.1336-.244l-1.3607-9.51c-.0077-.058-.0028-.117.0144-.172.0172-.056.0464-.107.0854-.15.039-.043.0869-.077.1405-.1.0536-.023.1115-.034.1698-.032l5.0007.17c.1045.003.2035.047.2757.123.0722.075.1118.176.1104.28l-.1625 9.354c-.0048.103-.0493.2-.1243.271-.075.07-.1745.109-.2777.109zm-3.1341-.796h2.74l.1517-8.569-4.1352-.141 1.2435 8.71z" fill="#000"/><path d="M76.2637 151.378c2.0379.181 4.0886.17 6.1243-.035.2299-.021.4528-.089.6549-.2.2021-.111.3791-.263.5198-.445.1407-.182.2421-.392.298-.615.0558-.223.0648-.455.0265-.682-.4207-2.581-1.5977-7.134-3.4616-9.222l-.916 1.3-.5326-1.345c-.0878-.146-2.3964-.241-2.4417.032l-.1411 1.327-1.3074-1.462.0718 4.799c.0092.535-.0417 1.069-.1517 1.592l-.3435 1.658c-.1084.492-.0968 1.003.0338 1.49.1307.487.3766.936.7171 1.309.219.256.5181.432.8494.499z" fill="#E72E80"/><path d="M78.906 151.901c-.8963.005-1.7922-.038-2.684-.128-.4359-.078-.83-.307-1.1131-.647-.3839-.42-.6613-.925-.8091-1.473-.1478-.548-.1616-1.124-.0403-1.679l.3435-1.66c.1025-.491.1507-.991.1438-1.491l-.0719-4.8c-.0011-.08.0225-.159.0677-.226s.1099-.119.1853-.148c.0759-.03.1591-.036.2385-.017.0794.018.1513.061.2061.121l.7084.796.0452-.422c-.0013-.009-.0013-.018 0-.027.0613-.347.45-.419.5752-.443.0239 0 2.3006-.225 2.6015.265.0108.018.0206.037.0293.056l.2663.666.4926-.703c.0351-.049.0809-.089.1339-.118.053-.029.1119-.046.1723-.049.0599-.004.1199.006.1753.029.0554.023.1047.059.1442.104 2.3965 2.695 3.4403 8.754 3.5495 9.423.0461.283.0332.573-.0378.851-.071.278-.1986.538-.375.765-.1716.226-.389.413-.6381.551-.249.137-.5242.22-.8077.245-1.3554.116-2.5217.159-3.5016.159zm-2.5988-.921c2.0086.182 4.0301.171 6.0365-.034.1731-.015.3414-.065.494-.147.1527-.083.2864-.197.3926-.334.1085-.14.1869-.302.2304-.474.0435-.172.0512-.351.0226-.526-.3648-2.242-1.4006-6.425-3.0355-8.625l-.6125.868c-.0416.058-.0981.104-.1636.134-.0655.029-.1377.041-.2091.033-.0717-.008-.1398-.035-.1971-.078-.0572-.044-.1015-.102-.1278-.169l-.4766-1.175c-.586-.07-1.1776-.079-1.7654-.026l-.1172 1.095c-.0068.076-.0356.148-.0829.208s-.111.105-.1834.129c-.0737.023-.1525.025-.2271.004-.0745-.02-.1417-.061-.1936-.118l-.5938-.666.0559 3.733c.0081.559-.0455 1.116-.1597 1.663l-.3435 1.658c-.0959.431-.0869.877.0261 1.303.1131.427.3269.819.6236 1.146.1541.194.367.334.6071.398z" fill="#000"/><path d="M78.7513 150.206c-.8485.012-1.6962-.055-2.5323-.199-.1038-.021-.1949-.082-.2534-.17-.0584-.089-.0793-.196-.0581-.3.0212-.103.0827-.194.1711-.252.0884-.058.1964-.079.3002-.058.0213 0 2.3965.467 5.7356-.114.0528-.012.1077-.014.1611-.004.0535.009.1044.03.1497.059.0453.03.0841.069.1139.114.0298.045.05.096.0594.149.0095.054.0079.108-.0046.161-.0125.053-.0356.102-.068.146-.0323.043-.0732.079-.1202.107-.0469.027-.099.044-.1529.051-1.1559.204-2.3275.308-3.5015.31zM80.7957 146.57h-3.158c-.1059 0-.2075-.042-.2824-.116-.0749-.075-.117-.176-.117-.282 0-.105.0421-.206.117-.281.0749-.075.1765-.117.2824-.117h3.158c.106 0 .2075.042.2825.117.0749.075.1169.176.1169.281 0 .106-.042.207-.1169.282-.075.074-.1765.116-.2825.116z" fill="#000"/><path d="M50.0547 133.626l-1.2222 11.084-4.6811.976.2849-12.997 5.6184.937z" fill="#fff"/><path d="M44.1513 146.085c-.0972.002-.192-.031-.2662-.093-.046-.038-.0828-.086-.1077-.14-.0248-.055-.0372-.114-.0361-.173l.2849-13c.001-.057.0145-.113.0395-.165.0249-.051.0608-.097.1051-.133.0443-.036.0959-.063.1514-.077.0555-.015.1135-.017.17-.007l5.6184.937c.1003.017.1903.071.2517.152.0613.081.0894.182.0785.283l-1.2249 11.084c-.0092.083-.0445.162-.1009.224-.0564.062-.131.106-.2133.123l-4.6758.977-.0746.008zm.6737-12.928l-.2663 12.036 3.9036-.814 1.1504-10.424-4.7877-.798z" fill="#000"/><path d="M50.8077 149.994c.1038-1.942.1065-5.518-1.0811-7.242l-3.7438 1.326v-.796c.0045-.119-.0372-.235-.1166-.325-.0793-.089-.1901-.145-.3095-.155l-2.0876-.119c-.7829-.044-1.5638.116-2.266.464-2.0982 1.027-8.4862 3.664-9.3702 6.632-.0558.207-.0638.422-.0235.632.0403.21.1279.407.2561.578.1283.171.2938.311.4841.409.1904.098.4005.151.6147.156 2.1035.061 7.1548.125 16.2215-.183.3677-.008.7186-.155.9824-.41.2637-.255.4207-.601.4395-.967z" fill="#E72E80"/><path d="M37.369 152c-1.9225 0-3.2965-.024-4.1992-.051-.2828-.009-.5597-.083-.8098-.215-.25-.131-.4666-.318-.6334-.546-.1597-.217-.2669-.467-.3131-.732-.0462-.264-.0302-.536.0468-.794.8308-2.78 5.9247-5.16 8.662-6.438.3541-.167.6657-.313.916-.435.7648-.377 1.6139-.55 2.4657-.504l2.0876.119c.2205.017.4262.117.5748.281.1486.163.2287.377.224.597v.234l3.2113-1.139c.0828-.029.1732-.031.257-.004.0838.027.1563.081.2063.153 1.2515 1.817 1.2568 5.473 1.1503 7.489-.0213.463-.2177.901-.5495 1.226-.3319.325-.7748.512-1.2399.525-5.3281.181-9.269.234-12.0569.234zm5.858-8.928c-.6381.003-1.2673.15-1.8399.43-.2663.125-.5699.266-.9293.441-2.4365 1.138-7.5063 3.51-8.2333 5.948-.0421.14-.0505.288-.0246.432.0259.145.0854.281.1737.398.0942.13.2171.237.3594.312.1422.075.2999.116.4608.12 2.1967.064 7.2267.122 16.1949-.183.2643-.01.5154-.117.7044-.302.189-.184.3024-.432.318-.695.1598-3.04-.1491-5.465-.8547-6.739l-3.4376 1.213c-.0605.021-.1251.027-.1885.018-.0634-.009-.1238-.032-.1763-.069-.0527-.036-.0957-.085-.1253-.142-.0297-.057-.0452-.12-.0451-.184v-.796c.0018-.016-.001-.033-.0081-.048-.007-.015-.018-.028-.0319-.037l-2.0876-.119-.229.002z" fill="#000"/><path d="M38.8199 150.159c-2.7905 0-4.5506-.128-4.5852-.13-.1053-.009-.2029-.059-.2717-.139-.0688-.08-.1032-.184-.0958-.289.0037-.052.0178-.103.0414-.149.0236-.047.0563-.089.0962-.123.0398-.034.0861-.06.1361-.076s.1027-.022.155-.018c4.873.265 9.7597.119 14.6079-.437.1059-.013.2124.017.2961.083.0836.066.1375.163.1499.268.0124.106-.0179.212-.084.295-.0662.083-.1629.137-.2688.15-3.3789.38-6.7767.569-10.1771.565zM39.9814 146.986c-.0847 0-.1674-.026-.2361-.076-.0687-.049-.1197-.119-.1458-.2-.0261-.08-.0259-.167.0007-.247.0265-.08.078-.15.1469-.199l3.6027-2.581c.0427-.031.091-.053.1422-.065.0512-.012.1043-.014.1562-.005.0519.008.1017.026.1464.054.0448.027.0836.064.1144.106.0308.043.0528.091.065.142.0121.051.014.104.0056.155-.0084.052-.027.102-.0546.146-.0277.045-.0639.083-.1065.114l-3.6054 2.581c-.0674.049-.1485.075-.2317.075z" fill="#000"/><path d="M48.5954 61.7052s-6.7102 45.8458-5.2803 76.4488l2.093.207c1.1252.113 2.2574.141 3.387.084l1.9837-.1s7.9883-46.4833 11.9824-54.2035c0 0 10.8614 41.3385 11.2795 52.5295 0 0 4.8302.482 6.7527-.207 1.0332-10.809 1.3314-21.996 1.3847-29.019.1491-20.0987-1.7787-29.2303-2.8359-33.5626-.9719-3.9795-2.013-7.2082-2.7746-9.3942l-2.5189-7.2109-25.4533 4.4279z" fill="#fff"/><path d="M47.6632 138.875c-.7669 0-1.5338-.037-2.2953-.112l-2.0929-.209c-.0953-.01-.184-.053-.25-.122s-.1049-.16-.1095-.255c-1.4139-30.289 5.2163-76.0664 5.2829-76.5227.0125-.0832.0508-.1604.1095-.2208.0588-.0604.135-.1011.218-.1162l25.448-4.4198c.0937-.0163.1902.0016.2718.0503.0816.0487.143.125.1729.2149l2.5402 7.2188c1.0651 3.0801 2.0078 6.2558 2.7826 9.434 1.2915 5.2874 2.9903 14.5278 2.8492 33.6585-.0426 5.892-.2796 17.51-1.3847 29.053-.0074.075-.0365.147-.0836.207-.0472.06-.1106.105-.1826.13-1.9865.713-6.7262.249-6.9232.228-.0957-.01-.1848-.053-.2508-.123-.0661-.07-.1047-.161-.1087-.256-.3728-10.016-9.2664-44.7431-10.9838-51.3596-4.0474 9.954-11.4206 52.6296-11.4978 53.0786-.0151.089-.0604.17-.1282.23s-.1541.094-.2446.099l-1.9838.1c-.3861.014-.7722.014-1.1556.014zm-3.9702-1.085l1.7495.175c1.1059.109 2.2184.137 3.3284.082l1.6642-.085c.7669-4.43 8.1294-46.5651 11.9824-54.0014.0367-.0721.0945-.1314.1658-.17.0712-.0386.1526-.0546.2333-.046.0806.0087.1567.0416.2182.0944.0614.0528.1052.1229.1256.2011.1065.4113 10.6511 40.6699 11.2768 52.2639 1.0651.088 4.3616.31 5.9965-.141 1.0811-11.434 1.3154-22.887 1.358-28.721.1412-19.043-1.5444-28.2197-2.8252-33.4646-.7695-3.1544-1.6988-6.3035-2.7612-9.3598l-2.4285-6.8977-24.8275 4.319c-.5592 3.9212-6.5397 46.7931-5.2563 75.7511z" fill="#000"/><path d="M63.1498 85.8825c-.0872.0001-.172-.0284-.2413-.0812-.0693-.0527-.1193-.1268-.1421-.2106l-1.1157-4.0459c-.1279-.4628-.382-.8813-.734-1.2091-.352-.3278-.7883-.552-1.2604-.6479l-1.0438-.2149c-.1038-.0215-.1948-.0832-.253-.1715-.0582-.0883-.0788-.196-.0572-.2995.0215-.1034.0834-.1941.1721-.252.0886-.058.1967-.0785.3005-.057l1.0438.2149c.6168.1256 1.1866.4193 1.6459.8483.4593.4291.7901.9766.9556 1.5818l1.1157 4.0458c.0284.1003.0165.2076-.0332.2992-.0497.0916-.1333.1603-.233.1916-.0395.0076-.0797.0103-.1199.008zM77.8907 78.3447h-.0639c-6.2708-1.04-7.549-6.017-7.5623-6.0674-.0186-.1.0019-.2033.0573-.2887.0554-.0855.1416-.1465.2408-.1706.0991-.0241.2038-.0095.2925.0409.0887.0504.1546.1327.1843.23.0479.1831 1.1876 4.5101 6.9232 5.4705.1059.0088.204.0591.2726.14.0687.0808.1023.1856.0935.2911-.0088.1055-.0594.2033-.1405.2717-.0812.0684-.1863.1019-.2922.0931l-.0053-.0106zM48.2924 75.3315c-.0777.0008-.1539-.0215-.2189-.064s-.1158-.1034-.1459-.1748c-.0224-.0481-.0349-.1002-.0367-.1532-.0018-.0531.0071-.1059.0262-.1554.0191-.0495.0481-.0947.0851-.1328.037-.0382.0814-.0685.1304-.0892 3.1953-1.3795 3.1314-4.2607 3.1261-4.3827-.0039-.1055.0345-.2083.1066-.2857.0722-.0773.1722-.123.2782-.1268.1059-.0039.209.0343.2867.1062.0776.0719.1234.1716.1273.2771 0 .0372.0932 3.5418-3.6053 5.1415-.0502.0234-.1045.0369-.1598.0398z" fill="#000"/><path d="M49.1359 23.5469c4.4361-.4987 13.9075-1.3928 20.4207-.7959 1.9677.1778 4.7929 1.3743 6.3 2.653 4.4069 3.7885 12.7174 12.1295 14.1127 22.1365.0971.7049-.0755 1.4204-.4834 2.0043-.408.5839-1.0216.9935-1.7187 1.1475l-7.6874 1.6952s3.0621 12.0207 2.8145 14.0953c-.2476 2.0747-6.5903 5.6084-14.5227 2.7114-6.1856-2.2604-14.9407-4.0564-20.5032-2.1065-.0533.0186-.5831 4.274-.6391 4.2819-1.784.2653-3.584-.4351-3.5414-2.9342l.8467-12.9784-10.1611-1.3344-.9106-.3025c-.6525-.2161-1.254-.5626-1.7676-1.0181-.5136-.4556-.9287-1.0107-1.2197-1.6314-.2911-.6207-.4521-1.2941-.4732-1.9789-.0211-.6848.0981-1.3667.3504-2.004 2.3965-6.0621 5.9965-15.8781 12.6774-21.2982 1.4192-1.1487 4.2737-2.1383 6.1057-2.3426z" fill="#E72E80"/><path d="M53.7616 63.4927h-15.902c-.3359.0003-.6623-.1117-.9268-.3181-.2645-.2063-.452-.495-.5324-.82l-5.4879-22.102c-.055-.2206-.0589-.4509-.0112-.6732.0476-.2223.1455-.4309.2861-.61.1407-.179.3204-.3237.5256-.4232.2052-.0994.4305-.151.6587-.1507h15.902c.3351.0002.6605.1121.9245.3179.2639.2057.4512.4935.532.8176l5.5039 22.102c.0552.2218.0588.4534.0104.6768-.0483.2235-.1473.4329-.2894.6124-.1421.1795-.3236.3242-.5304.4231-.2069.0989-.4337.1493-.6631.1474z" fill="#FDF0F6"/><path d="M53.7613 63.8912h-15.902c-.4254.0004-.8386-.1412-1.1736-.4024-.335-.2612-.5725-.6267-.6743-1.0382l-5.5013-22.102c-.0696-.2794-.0744-.5708-.014-.8523.0604-.2815.1844-.5455.3625-.7721.1781-.2266.4058-.4097.6656-.5356.2598-.1258.545-.191.8338-.1906H48.26c.4247-.0004.8373.141 1.1718.4016.3345.2607.5717.6256.6735 1.0364l5.5013 22.102c.07.2793.0752.5708.0152.8524-.0601.2816-.1837.5459-.3616.7728-.1779.2268-.4054.4103-.6651.5364-.2597.1262-.5449.1917-.8338.1916zM32.358 38.7939c-.1668.0013-.3312.0401-.4809.1137-.1496.0735-.2806.1799-.3831.3111-.1025.1312-.1738.2839-.2087.4465-.0348.1626-.0322.3309.0076.4924l5.504 22.102c.0587.2376.1954.4489.3883.6003.193.1513.4312.2342.6768.2354h15.9019c.1669-.0012.3313-.0401.481-.1136.1496-.0736.2806-.18.3831-.3112.1025-.1312.1738-.2838.2086-.4464.0349-.1626.0323-.331-.0075-.4925L49.3305 39.627c-.0593-.2371-.1962-.4478-.3891-.5987-.1929-.1508-.4308-.2333-.6761-.2344H32.358z" fill="#000"/><path d="M33.4842 49.6925l.5325 2.2311 1.9225-.6394c1.0592-.3511 2.0756-.8191 3.0303-1.3954l1.1023-.6659c.193-.1164.4096-.1884.634-.2106.2244-.0223.451.0058.6631.0821.2122.0763.4045.1989.5629.3589.1585.1599.279.3531.3528.5655.6817 1.9234.5325 5.1441-6.3906 7.163-3.8237 1.1169-4.9182-3.7619-4.4229-6.4733.0879-.5563.3802-1.0603.8202-1.414.0966-.0808.2126-.1356.3366-.1591.124-.0234.252-.0148.3717.0252.1197.0399.2271.1098.3119.2029.0849.0931.1443.2064.1727.329z" fill="#fff"/><path d="M34.8471 57.7472c-.7875.0103-1.5494-.2791-2.1302-.8091-1.5524-1.3902-1.9971-4.282-1.6296-6.2929.1027-.6517.4454-1.2419.9613-1.6555.1484-.1186.3244-.1982.5117-.2315.1874-.0332.3801-.0191.5606.0411.1804.0602.3428.1645.4723.3035.1294.1389.2218.308.2687.4918l.434 1.8093 1.5071-.5014c1.0317-.3418 2.0213-.7983 2.9504-1.3609l1.1024-.6659c.2439-.147.5178-.2378.8015-.2658.2837-.028.5701.0074.8383.1038s.5114.2512.7119.4531c.2004.202.3531.4461.4468.7143.2186.5709.3154 1.181.2842 1.7912-.0312.6103-.1896 1.2074-.4653 1.7532-.9026 1.7563-3.0754 3.1491-6.4625 4.1387-.3775.1144-.7691.176-1.1636.183zm-2.0823-8.2242c-.0766-.0001-.1509.0261-.2103.0743-.3622.2957-.6021.7142-.6737 1.1752-.3328 1.8279.0905 4.4066 1.3766 5.5713.6711.5996 1.5258.7534 2.5377.459 3.1686-.9259 5.179-2.1834 5.9778-3.7354.228-.4494.3581-.9416.382-1.4444.0239-.5029-.0591-1.0052-.2435-1.4739-.0553-.1575-.1452-.3007-.2631-.4191-.1179-.1184-.2609-.2091-.4186-.2654-.155-.0559-.3208-.0764-.4848-.0598-.1641.0165-.3224.0696-.4631.1553l-1.1024.6659c-.9808.5922-2.0248 1.0736-3.1128 1.4353l-1.9225.6367c-.0524.0173-.1078.0236-.1628.0185-.055-.0051-.1083-.0215-.1566-.0482-.0483-.0266-.0905-.063-.124-.1068-.0334-.0437-.0574-.0939-.0705-.1474l-.5325-2.2285c-.0143-.0546-.0423-.1048-.0814-.1456-.0392-.0409-.0881-.0711-.1423-.0878-.0318-.0104-.0651-.0157-.0985-.016l-.0107-.0132z" fill="#000"/><path d="M70.2596 36.8976c.7958.8108 1.7009 1.5072 2.6894 2.0694 3.3391 1.8942 11.3141 6.4786 13.2978 8.1685 2.527 2.1516 3.7278 2.9528 1.7068 8.4896-3.3125 9.0201-18.7511-14.1404-18.7511-14.1404s-4.5267.8171-5.5545-3.1412c0 0-2.3619.4404-3.3471.0159-.1797-.0861-.3267-.2278-.4189-.404-.0922-.1763-.1247-.3775-.0926-.5736.032-.1961.1269-.3766.2705-.5146.1435-.138.328-.2259.5259-.2508l6.5238-1.2124c.4422-.0786.897-.0483 1.3249.0881.4278.1364.8158.3748 1.1301.6945l.695.711z" fill="#fff"/><path d="M85.4981 58.1074c-5.3575 0-15.1564-14.2173-16.4958-16.1832-1.0038.1008-4.5533.2096-5.645-3.1173-.7376.1115-2.3646.2998-3.222-.0689-.2598-.119-.4736-.319-.6091-.5698-.1355-.2509-.1852-.5389-.1418-.8204.0371-.2861.1696-.5516.3763-.7536.2067-.2021.4756-.3291.7634-.3607l6.5051-1.2097c.5072-.0905 1.0289-.0558 1.5195.101.4906.1568.9353.4309 1.295.7983l.695.7084c.7699.7856 1.6465 1.4598 2.6042 2.003 3.3471 1.8969 11.3487 6.4998 13.359 8.211l.221.1883c2.6069 2.2126 3.5868 3.3269 1.5977 8.739-.5166 1.4114-1.3553 2.194-2.4923 2.3266-.1098.0095-.2201.0121-.3302.008zM69.202 41.0859c.0658.0006.1304.0171.1884.0481.0579.0309.1075.0754.1445.1296 3.0222 4.534 11.6495 16.0479 15.9446 16.0479.089.0003.1779-.005.2662-.0159.8255-.0955 1.4246-.6871 1.8373-1.8094 1.8639-5.1096.9266-5.9135-1.366-7.8607l-.2237-.1884c-1.9571-1.6661-9.9081-6.2372-13.2365-8.1261-1.022-.5781-1.957-1.2971-2.7773-2.1357l-.7003-.7056c-.2686-.2741-.6006-.4784-.9669-.595-.3662-.1165-.7556-.1418-1.134-.0736l-6.5211 1.1992c-.1185.0036-.2319.0495-.3193.1293-.0875.0799-.1433.1884-.1573.3057-.0183.1082-.0025.2193.0452.3181s.1249.1805.2211.2338c.7163.3104 2.4923.0742 3.1154-.0425.1-.0186.2033.0016.2889.0563.0856.0547.147.1399.1718.2382.9159 3.5576 4.9261 2.8785 5.0965 2.8493l.0825-.0026z" fill="#000"/><path d="M55.1433 15.0474l-.49 6.7677c-.0515.4292-.2314.8331-.5163 1.1591-.2849.326-.6617.559-1.0813.6688l-2.3965.6208 1.5497 1.1726c1.6697 1.2677 3.7109 1.9543 5.8101 1.9543 2.0993 0 4.1405-.6866 5.8102-1.9543l2.4497-1.8571-2.9583-.6393c-.4164-.0928-.7962-.3059-1.0917-.6127-.2956-.3067-.4938-.6934-.5699-1.1118l-1.3074-8.9538-5.2083 2.7857z" fill="#fff"/><path d="M58.0323 27.7834c-2.1888.0034-4.318-.7097-6.0604-2.0295l-1.5498-1.1753c-.0591-.0457-.1043-.1069-.1306-.1767-.0263-.0697-.0327-.1454-.0185-.2186.0152-.0731.0507-.1405.1025-.1944.0518-.054.1178-.0923.1904-.1107l2.3965-.6208c.3435-.088.6522-.2776.8855-.5437.2334-.2661.3804-.5963.4219-.9473l.4873-6.7492c.0049-.0669.0267-.1314.0635-.1876.0368-.0561.0874-.102.1469-.1334l5.2057-2.7883c.0565-.0299.1196-.0456.1837-.0456s.1272.0157.1837.0456c.0574.0285.107.0704.1445.1222.0376.0517.062.1118.0712.175l1.3101 8.9485c.0621.3393.2238.6527.4645.9006.2407.2479.5498.4192.8882.4922l2.953.6579c.0744.0165.1425.0539.1963.1077.0537.0538.091.1218.1072.196.0162.0742.0108.1515-.0156.2227-.0264.0713-.0727.1335-.1335.1793l-2.4497 1.8571c-1.7401 1.3111-3.8629 2.0192-6.0445 2.0163zm-6.4732-3.3428l.8974.6792c1.6027 1.2085 3.5578 1.8625 5.5678 1.8625 2.01 0 3.9651-.654 5.5678-1.8625l1.7654-1.3265-2.1302-.4722c-.4932-.1094-.943-.3618-1.2927-.7253-.3497-.3634-.5836-.8219-.6724-1.3175l-1.2302-8.4047-4.5107 2.4169-.4713 6.5502c-.0576.5134-.2706.9971-.6107 1.3871-.34.39-.791.6677-1.2932.7963l-1.587.4165z" fill="#000"/><path d="M47.4214 5.62875c1.6349-.85956.3195 1.81995 5.6903-2.80951 2.1302-1.857085 2.2154 1.5918 2.772 1.11956 2.0529-1.75892 1.9811-1.70321 3.2778-1.92607.8574-.14856 2.0051 1.02936 2.3459 2.14627.45 1.47241-.5326 2.35585-.1971 5.74902.2344 2.38768.9879 3.55498.2983 4.23148-.6897.6765-1.832-.1538-2.6495.5306-1.0651.8914.1492 2.8812-.631 4.2899-.4926.8861-2.1116 1.934-5.5173 1.8571-.2684-.0074-.5259-.1075-.7285-.2832-.2025-.1756-.3375-.416-.3818-.6798-.1145-.6978-.2663-1.5918-.3196-2.4328-.3035-4.0697.5752-5.4201-.2902-6.1019-1.3314-1.0612-3.5814.9179-4.5267-.0186s-1.3713-4.49412.8574-5.67205z" fill="#000"/><path d="M55.5502 7.91152l-.0666 1.1116c-.0359.52291-.0359 1.04768 0 1.57058.0772.9816.1971 2.6715.1891 3.6213 0 1.3955-4.3377 1.6687-4.3377 1.6687l-.5511-.6075-.5086.0186c-.0826.0081-.1658-.0031-.2433-.0327-.0774-.0297-.1468-.0769-.2026-.138-.0559-.061-.0967-.1342-.1191-.2138-.0224-.0795-.0259-.1632-.0102-.2443.205-1.2336.5645-3.9556.1678-6.07266.8123-.58236 1.7594-.95031 2.7531-1.06953.9936-.11922 2.0013.01416 2.9292.38771z" fill="#fff"/><path d="M51.3462 16.2798c-.0563.0001-.1119-.0117-.1633-.0345-.0514-.0229-.0974-.0563-.1349-.0981l-.4314-.4696-.3222.0133c-.1685.0093-.3365-.0254-.4873-.1008-.1769-.0918-.3203-.2368-.4097-.4145-.0894-.1777-.1203-.3789-.0882-.5751.1811-1.0904.5592-3.8495.1677-5.93473-.0137-.07044-.0078-.14331.017-.21066.0249-.06735.0679-.12662.1242-.17137.8658-.62888 1.8788-1.02635 2.9425-1.15453 1.0637-.12818 2.1426.01721 3.1339.42231.081.02885.1505.08282.1985.15396.0479.07115.0716.15573.0678.24133l-.0693 1.1116c-.0301.50555-.0257 1.01259.0133 1.51749.0746.9471.1971 2.6795.1891 3.6532 0 1.682-3.9276 2.0136-4.7131 2.064l-.0346-.0133zm-.5512-1.4034c.056.0001.1114.0117.1627.034.0513.0224.0975.0551.1355.096l.4181.4643c1.8639-.1433 3.7705-.6686 3.7731-1.2602 0-.9445-.1145-2.653-.1864-3.5868-.043-.5411-.0475-1.08458-.0133-1.6263l.0506-.81447c-.7961-.27127-1.6435-.35944-2.4786-.2579-.8352.10154-1.6364.39016-2.3437.84421.3302 2.08786.016 4.61086-.2076 5.95856-.0056.0312-.0008.0634.0136.0916.0144.0283.0377.0511.0662.065.027.011.0562.0155.0853.0132l.5085-.0212h.016z" fill="#000"/><path d="M56.3125 11.3347s.1598-2.67154 1.3607-2.33461c1.2009.33693.9532 3.27641-1.3607 2.33461z" fill="#fff"/></g><defs><linearGradient id="paint0_linear_7_5587" x1="60" y1="17" x2="60" y2="137" gradientUnits="userSpaceOnUse"><stop stop-color="#E72E80" stop-opacity=".5"/><stop offset="1" stop-color="#E72E80"/></linearGradient><filter id="filter0_d_7_5587" x="26" y="0" width="67.9956" height="158" filterUnits="userSpaceOnUse" color-interpolation-filters="sRGB"><feFlood flood-opacity="0" result="BackgroundImageFix"/><feColorMatrix in="SourceAlpha" values="0 0 0 0 0 0 0 0 0 0 0 0 0 0 0 0 0 0 127 0" result="hardAlpha"/><feOffset dy="2"/><feGaussianBlur stdDeviation="2"/><feComposite in2="hardAlpha" operator="out"/><feColorMatrix values="0 0 0 0 0.905882 0 0 0 0 0.180392 0 0 0 0 0.501961 0 0 0 0.15 0"/><feBlend in2="BackgroundImageFix" result="effect1_dropShadow_7_5587"/><feBlend in="SourceGraphic" in2="effect1_dropShadow_7_5587" result="shape"/></filter></defs></svg>