<svg width="57" height="40" viewBox="0 0 57 40" fill="none" xmlns="http://www.w3.org/2000/svg">
<path d="M43.8964 39.1869C41.1733 39.1869 38.447 39.1005 35.727 39.213C33.3215 39.3125 31.3004 36.7384 31.3751 33.6761C31.4576 30.3074 31.4291 26.9326 31.383 23.5618C31.3449 20.7818 32.9236 18.1174 35.6166 18.0842C41.1606 18.0169 46.7054 18.034 52.2493 18.0782C54.7215 18.0983 56.4687 20.4473 56.4695 23.5709C56.4703 26.9919 56.4734 30.4129 56.4679 33.8338C56.4631 36.9323 54.689 39.1788 52.2414 39.1849C49.4603 39.1919 46.6784 39.1869 43.8964 39.1869ZM50.291 25.6868C50.291 25.3914 50.2957 25.096 50.2902 24.8006C50.2711 23.8361 49.855 23.2996 49.1442 23.3167C48.4636 23.3328 48.1126 23.8411 48.0785 24.8177C48.053 25.5511 48.0459 26.2916 47.953 27.013C47.6441 29.4182 45.9247 31.2106 43.9616 31.2237C41.9841 31.2367 40.2306 29.4755 39.9154 27.0923C39.801 26.2263 39.824 25.3311 39.7406 24.457C39.6652 23.6673 39.2284 23.2665 38.5955 23.3177C38.0062 23.3649 37.5647 23.8401 37.5821 24.5716C37.6115 25.7682 37.5869 27.0059 37.8204 28.1503C38.6257 32.0957 41.6117 34.6225 44.9066 33.9333C48.2611 33.234 50.2918 29.9929 50.291 25.6868Z" fill="#111111"/>
<path d="M0 12.125C0 11.5547 0.158309 11 0.455 10.5234L6.01103 1.66953C6.66544 0.626641 7.76471 0 8.94853 0H38.1103C39.2941 0 40.3897 0.626641 41.0441 1.66953L46.6029 10.5234C46.8971 11 47.0588 11.5547 47.0588 12.125C47.0588 13.7109 45.8456 15 44.3529 15H2.70882C1.21324 15 0 13.7109 0 12.125ZM4.70588 17.5H9.41176V30H23.5294V17.5H28.2353V36.25C28.2353 38.3203 26.6544 40 24.7059 40H8.23529C6.28603 40 4.70588 38.3203 4.70588 36.25V17.5Z" fill="#E72E80"/>
</svg>
