<svg width="41" height="40" viewBox="0 0 41 40" fill="none" xmlns="http://www.w3.org/2000/svg">
<circle cx="27.5" cy="13.5001" r="13.5" fill="#FF8FAB"/>
<path d="M14.1668 31.6167H13.3335C6.66683 31.6167 3.3335 29.95 3.3335 21.6167V13.2834C3.3335 6.61669 6.66683 3.28336 13.3335 3.28336H26.6668C33.3335 3.28336 36.6668 6.61669 36.6668 13.2834V21.6167C36.6668 28.2834 33.3335 31.6167 26.6668 31.6167H25.8335C25.3168 31.6167 24.8168 31.8667 24.5002 32.2834L22.0002 35.6167C20.9002 37.0834 19.1001 37.0834 18.0001 35.6167L15.5001 32.2834C15.2335 31.9167 14.6335 31.6167 14.1668 31.6167Z" stroke="white" stroke-width="1.5" stroke-miterlimit="10" stroke-linecap="round" stroke-linejoin="round"/>
<path d="M13.3333 14.5001L10 17.8334L13.3333 21.1668" stroke="white" stroke-width="1.5" stroke-miterlimit="10" stroke-linecap="round" stroke-linejoin="round"/>
<path d="M26.6665 14.5001L29.9998 17.8334L26.6665 21.1668" stroke="white" stroke-width="1.5" stroke-miterlimit="10" stroke-linecap="round" stroke-linejoin="round"/>
<path d="M21.6668 13.95L18.3335 21.7168" stroke="white" stroke-width="1.5" stroke-miterlimit="10" stroke-linecap="round" stroke-linejoin="round"/>
</svg>
