<svg width="40" height="40" viewBox="0 0 40 40" fill="none" xmlns="http://www.w3.org/2000/svg">
<path d="M36.7734 0.737578C37.0078 0.975781 37.1875 1.25 37.3125 1.54297C37.4297 1.83594 37.4297 2.15625 37.5 2.49219V2.5V10C37.5 11.3828 36.3828 12.5 35 12.5C33.6172 12.5 32.5 11.3828 32.5 10V8.53906L24.2656 16.7656C23.3438 17.6953 21.8672 17.75 20.875 16.8984L13.6797 10.7891L6.62656 16.8984C5.57891 17.7969 4 17.6719 3.10156 16.625C2.20313 15.5781 2.325 14 3.37266 13.1016L12.125 5.60156C13.0625 4.79922 14.4375 4.79922 15.375 5.60156L22.3672 11.5937L28.9609 5H27.5C26.1172 5 25 3.88047 25 2.5C25 1.11953 26.1172 0 27.5 0H34.9297C35.6875 0 36.3125 0.277656 36.7656 0.726953L36.7734 0.737578ZM0 23.75C0 21.6797 1.67891 20 3.75 20H36.25C38.3203 20 40 21.6797 40 23.75V36.25C40 38.3203 38.3203 40 36.25 40H3.75C1.67891 40 0 38.3203 0 36.25V23.75ZM3.75 36.25H7.5C7.5 34.1797 5.82109 32.5 3.75 32.5V36.25ZM3.75 23.75V27.5C5.82109 27.5 7.5 25.8203 7.5 23.75H3.75ZM36.25 32.5C34.1797 32.5 32.5 34.1797 32.5 36.25H36.25V32.5ZM32.5 23.75C32.5 25.8203 34.1797 27.5 36.25 27.5V23.75H32.5ZM20 25C17.2422 25 15 27.2422 15 30C15 32.7578 17.2422 35 20 35C22.7578 35 25 32.7578 25 30C25 27.2422 22.7578 25 20 25Z" fill="#347FF2"/>
</svg>
