<svg width="539" height="467" viewBox="0 0 539 467" fill="none" xmlns="http://www.w3.org/2000/svg"><ellipse cx="218" cy="121.5" rx="112" ry="111.5" fill="#2E7CF6"/><ellipse cx="451" cy="132.5" rx="87" ry="86.5" fill="#662E8B"/><circle cx="359.5" cy="350.5" r="116.5" fill="#28B35F"/><ellipse cx="103.5" cy="340" rx="93.5" ry="94" fill="#E72E80"/><circle cx="94" cy="331" r="94" fill="#FFEFF6"/><path d="M52.1008 328.675c-1.65 0-3.1875-.337-4.6125-1.013-1.425-.69-2.655-1.635-3.69-2.835-1.02-1.2-1.755-2.595-2.205-4.185l5.22-1.395c.21.87.5925 1.62 1.1475 2.25.57.63 1.23 1.118 1.98 1.463.765.345 1.5525.517 2.3625.517 1.05 0 2.01-.255 2.88-.765.87-.51 1.56-1.192 2.07-2.047.51-.87.765-1.83.765-2.88 0-1.05-.2625-2.003-.7875-2.858-.51-.87-1.2-1.552-2.07-2.047-.87-.51-1.8225-.765-2.8575-.765-1.245 0-2.28.225-3.105.675-.81.45-1.4325.93-1.8675 1.44l-4.635-1.485.99-17.145h17.595v5.085H46.5883l2.025-1.913-.72 11.925-.99-1.215c.84-.765 1.815-1.335 2.925-1.71 1.11-.375 2.1825-.562 3.2175-.562 2.025 0 3.8175.465 5.3775 1.395 1.575.915 2.805 2.167 3.69 3.757.9 1.59 1.35 3.398 1.35 5.423s-.525 3.862-1.575 5.512c-1.05 1.635-2.4375 2.94-4.1625 3.915-1.71.976-3.585 1.463-5.625 1.463zm28.4147 0c-2.2951 0-4.3201-.487-6.0751-1.463-1.755-.99-3.1275-2.362-4.1175-4.117-.975-1.755-1.4625-3.78-1.4625-6.075v-10.44c0-2.295.4875-4.32 1.4625-6.075.99-1.755 2.3625-3.12 4.1175-4.095 1.755-.99 3.78-1.485 6.0751-1.485 2.295 0 4.3125.495 6.0525 1.485 1.755.975 3.1274 2.34 4.1174 4.095.99 1.755 1.485 3.78 1.485 6.075v10.44c0 2.295-.495 4.32-1.485 6.075-.99 1.755-2.3624 3.127-4.1174 4.117-1.74.976-3.7575 1.463-6.0525 1.463zm0-5.153c1.14 0 2.175-.27 3.105-.81.93-.555 1.665-1.29 2.205-2.205.54-.93.81-1.965.81-3.105v-11.227c0-1.155-.27-2.19-.81-3.105-.54-.93-1.275-1.665-2.205-2.205-.93-.555-1.965-.833-3.105-.833-1.1401 0-2.1751.278-3.105.833-.93.54-1.6651 1.275-2.2051 2.205-.54.915-.81 1.95-.81 3.105v11.227c0 1.14.27 2.175.81 3.105.54.915 1.2751 1.65 2.2051 2.205.9299.54 1.9649.81 3.105.81zm29.6195 5.153c-2.295 0-4.32-.487-6.075-1.463-1.755-.99-3.128-2.362-4.1179-4.117-.975-1.755-1.4625-3.78-1.4625-6.075v-10.44c0-2.295.4875-4.32 1.4625-6.075.9899-1.755 2.3629-3.12 4.1179-4.095 1.755-.99 3.78-1.485 6.075-1.485 2.295 0 4.312.495 6.052 1.485 1.755.975 3.128 2.34 4.118 4.095.99 1.755 1.485 3.78 1.485 6.075v10.44c0 2.295-.495 4.32-1.485 6.075-.99 1.755-2.363 3.127-4.118 4.117-1.74.976-3.757 1.463-6.052 1.463zm0-5.153c1.14 0 2.175-.27 3.105-.81.93-.555 1.665-1.29 2.205-2.205.54-.93.81-1.965.81-3.105v-11.227c0-1.155-.27-2.19-.81-3.105-.54-.93-1.275-1.665-2.205-2.205-.93-.555-1.965-.833-3.105-.833s-2.175.278-3.105.833c-.93.54-1.665 1.275-2.205 2.205-.54.915-.81 1.95-.81 3.105v11.227c0 1.14.27 2.175.81 3.105.54.915 1.275 1.65 2.205 2.205.93.54 1.965.81 3.105.81zm25.569-1.552v-8.055h-8.055v-4.253h8.055v-8.032h4.252v8.032h8.01v4.253h-8.01v8.055h-4.252zM63.0113 360.39c-1.3434 0-2.5567-.23-3.64-.689-1.0747-.468-1.963-1.131-2.665-1.989-.6934-.867-1.144-1.894-1.352-3.081l2.834-.429c.286 1.144.884 2.037 1.794 2.678.91.633 1.9716.949 3.185.949.754 0 1.4473-.117 2.08-.351.6326-.243 1.1396-.585 1.521-1.027.39-.451.585-.988.585-1.612 0-.338-.0607-.637-.182-.897-.1127-.26-.273-.485-.481-.676-.1994-.199-.4464-.368-.741-.507-.286-.147-.6024-.273-.949-.377l-4.797-1.417c-.468-.139-.9447-.316-1.43-.533-.4854-.225-.9317-.516-1.339-.871-.3987-.364-.7237-.81-.975-1.339-.2514-.537-.377-1.187-.377-1.95 0-1.153.2946-2.128.884-2.925.598-.806 1.404-1.413 2.418-1.82 1.014-.416 2.1493-.624 3.406-.624 1.2653.017 2.3963.243 3.393.676 1.0053.433 1.8373 1.057 2.496 1.872.6673.806 1.1266 1.785 1.378 2.938l-2.912.494c-.13-.702-.4074-1.304-.832-1.807-.4247-.511-.9447-.901-1.56-1.17-.6154-.277-1.2827-.42-2.002-.429-.6934-.017-1.3304.087-1.911.312-.572.225-1.0314.542-1.378.949-.338.407-.507.875-.507 1.404 0 .52.1516.94.455 1.261.3033.321.676.576 1.118.767.4506.182.897.334 1.339.455l3.458.975c.4333.121.923.286 1.469.494.5546.199 1.0876.481 1.599.845.52.364.949.849 1.287 1.456.338.598.507 1.352.507 2.262 0 .945-.1907 1.777-.572 2.496-.3814.711-.9057 1.309-1.573 1.794-.6587.477-1.4214.836-2.288 1.079-.8667.243-1.781.364-2.743.364zm17.9804-.39c-.884.173-1.7507.247-2.6.221-.8493-.026-1.6077-.191-2.275-.494s-1.17-.78-1.508-1.43c-.3033-.581-.468-1.17-.494-1.768-.0173-.607-.026-1.291-.026-2.054V342.06h2.73v12.285c0 .563.0043 1.053.013 1.469.0173.416.1083.767.273 1.053.312.537.806.845 1.482.923.6847.069 1.4863.039 2.405-.091V360zm-9.594-11.856v-2.184h9.594v2.184h-9.594zm18.0164 12.246c-1.404 0-2.6217-.316-3.653-.949-1.0314-.633-1.8287-1.504-2.392-2.613-.5547-1.118-.832-2.405-.832-3.861 0-1.465.286-2.752.858-3.861.572-1.118 1.3736-1.985 2.405-2.6 1.0313-.624 2.236-.936 3.614-.936 1.404 0 2.6216.316 3.653.949 1.0313.633 1.8286 1.504 2.392 2.613.5633 1.109.845 2.388.845 3.835 0 1.465-.286 2.756-.858 3.874-.5634 1.109-1.3607 1.98-2.392 2.613-1.0314.624-2.2447.936-3.64.936zm0-2.561c1.3433 0 2.3443-.451 3.003-1.352.6673-.91 1.001-2.08 1.001-3.51 0-1.465-.338-2.635-1.014-3.51-.6674-.884-1.664-1.326-2.99-1.326-.91 0-1.6597.208-2.249.624-.5894.407-1.027.975-1.313 1.703-.286.719-.429 1.556-.429 2.509 0 1.473.338 2.652 1.014 3.536.676.884 1.6683 1.326 2.977 1.326zM99.1608 360v-14.04h2.4182v3.406l-.338-.442c.173-.451.398-.862.676-1.235.277-.381.598-.693.962-.936.355-.26.749-.459 1.183-.598.442-.147.892-.234 1.352-.26.459-.035.901-.013 1.326.065v2.548c-.46-.121-.971-.156-1.534-.104-.555.052-1.066.23-1.534.533-.442.286-.793.633-1.053 1.04-.252.407-.434.862-.546 1.365-.113.494-.169 1.018-.169 1.573V360h-2.7432zm16.0282.39c-1.396 0-2.622-.303-3.679-.91-1.049-.615-1.868-1.469-2.457-2.561-.581-1.101-.871-2.375-.871-3.822 0-1.534.286-2.864.858-3.991.58-1.127 1.386-1.998 2.418-2.613 1.031-.615 2.231-.923 3.601-.923 1.43 0 2.647.334 3.653 1.001 1.005.659 1.755 1.599 2.249 2.821.502 1.222.702 2.674.598 4.355h-2.717v-.988c-.018-1.629-.33-2.834-.936-3.614-.598-.78-1.513-1.17-2.743-1.17-1.361 0-2.384.429-3.068 1.287-.685.858-1.027 2.097-1.027 3.718 0 1.543.342 2.739 1.027 3.588.684.841 1.672 1.261 2.964 1.261.849 0 1.581-.191 2.197-.572.624-.39 1.109-.945 1.456-1.664l2.665.845c-.546 1.257-1.374 2.232-2.483 2.925-1.11.685-2.345 1.027-3.705 1.027zm-5.005-6.643v-2.119h10.023v2.119h-10.023zm19.66 6.63c-1.707 0-3.098-.377-4.173-1.131-1.074-.754-1.733-1.816-1.976-3.185l2.782-.429c.174.728.572 1.304 1.196 1.729.633.416 1.417.624 2.353.624.85 0 1.513-.173 1.989-.52.486-.347.728-.823.728-1.43 0-.355-.086-.641-.26-.858-.164-.225-.515-.438-1.053-.637-.537-.199-1.356-.446-2.457-.741-1.204-.312-2.162-.646-2.873-1.001-.702-.364-1.204-.784-1.508-1.261-.294-.485-.442-1.07-.442-1.755 0-.849.226-1.59.676-2.223.451-.633 1.084-1.122 1.898-1.469.824-.347 1.786-.52 2.886-.52 1.075 0 2.033.169 2.873.507.841.338 1.521.819 2.041 1.443.52.615.832 1.339.936 2.171l-2.782.507c-.095-.676-.411-1.209-.949-1.599-.537-.39-1.235-.602-2.093-.637-.823-.035-1.49.104-2.002.416-.511.303-.767.724-.767 1.261 0 .312.096.576.286.793.2.217.581.425 1.144.624.564.199 1.396.438 2.496.715 1.179.303 2.115.641 2.808 1.014.694.364 1.188.802 1.482 1.313.304.503.455 1.114.455 1.833 0 1.387-.507 2.474-1.521 3.263-1.005.789-2.396 1.183-4.173 1.183z" fill="#E72E80"/><circle cx="350.5" cy="341.5" r="116.5" fill="#F2FAF5"/><path d="M299.027 328.945v-5.775l16.94-15.098c1.32-1.173 2.237-2.282 2.75-3.327.513-1.045.77-2.053.77-3.025 0-1.32-.284-2.493-.852-3.52-.569-1.045-1.357-1.87-2.365-2.475-.99-.605-2.136-.908-3.438-.908-1.375 0-2.594.321-3.657.963-1.045.623-1.861 1.457-2.448 2.502-.587 1.045-.862 2.173-.825 3.383h-6.82c0-2.64.587-4.941 1.76-6.903 1.192-1.961 2.823-3.483 4.895-4.565 2.09-1.081 4.501-1.622 7.233-1.622 2.53 0 4.803.568 6.82 1.705 2.016 1.118 3.602 2.677 4.757 4.675 1.155 1.98 1.733 4.262 1.733 6.847 0 1.889-.257 3.475-.77 4.758-.514 1.283-1.284 2.466-2.31 3.547-1.009 1.082-2.265 2.283-3.768 3.603l-12.017 10.642-.605-1.65h19.47v6.243h-27.253zm47.559.88c-2.585 0-4.914-.605-6.985-1.815-2.054-1.228-3.685-2.924-4.895-5.088-1.21-2.163-1.815-4.647-1.815-7.452v-12.045c0-3.007.596-5.619 1.787-7.838 1.21-2.218 2.897-3.932 5.06-5.142 2.182-1.21 4.712-1.815 7.59-1.815 1.999 0 3.896.339 5.693 1.017 1.796.66 3.391 1.724 4.785 3.19l-4.785 4.648c-.697-.825-1.549-1.476-2.558-1.953-.99-.476-2.035-.715-3.135-.715-1.54 0-2.887.367-4.042 1.1-1.155.715-2.054 1.66-2.695 2.833-.624 1.173-.935 2.429-.935 3.767v6.573l-1.21-1.32c1.136-1.32 2.502-2.347 4.097-3.08 1.595-.752 3.264-1.128 5.005-1.128 2.494 0 4.694.569 6.6 1.705 1.907 1.119 3.41 2.659 4.51 4.62 1.1 1.944 1.65 4.162 1.65 6.655 0 2.475-.632 4.721-1.897 6.738-1.247 1.998-2.906 3.593-4.978 4.785-2.071 1.173-4.354 1.76-6.847 1.76zm0-6.353c1.283 0 2.456-.302 3.52-.907 1.063-.623 1.906-1.458 2.53-2.503.641-1.063.962-2.236.962-3.52 0-1.283-.311-2.456-.935-3.52-.623-1.063-1.466-1.906-2.53-2.53-1.045-.641-2.209-.962-3.492-.962-1.284 0-2.457.321-3.52.962-1.064.624-1.907 1.467-2.53 2.53-.624 1.064-.935 2.237-.935 3.52 0 1.247.302 2.402.907 3.465.624 1.045 1.458 1.889 2.503 2.53 1.063.624 2.236.935 3.52.935zM372.551 329l-4.4-4.4 35.227-35.2 4.4 4.427L372.551 329zm26.977.825c-1.815 0-3.474-.44-4.977-1.32-1.485-.898-2.677-2.09-3.575-3.575-.898-1.503-1.348-3.172-1.348-5.005 0-1.797.459-3.447 1.375-4.95.917-1.503 2.127-2.704 3.63-3.603 1.504-.898 3.135-1.347 4.895-1.347 1.815 0 3.475.449 4.978 1.347 1.503.88 2.695 2.072 3.575 3.575.898 1.485 1.347 3.145 1.347 4.978 0 1.833-.449 3.502-1.347 5.005-.88 1.485-2.072 2.677-3.575 3.575-1.503.88-3.163 1.32-4.978 1.32zm0-5.665c.752 0 1.449-.193 2.09-.578.66-.385 1.183-.898 1.568-1.54.385-.641.577-1.347.577-2.117s-.192-1.476-.577-2.118c-.385-.641-.908-1.155-1.568-1.54-.641-.385-1.338-.577-2.09-.577-.77 0-1.475.192-2.117.577-.642.385-1.164.899-1.568 1.54-.385.642-.577 1.348-.577 2.118 0 .77.192 1.476.577 2.117.404.642.926 1.155 1.568 1.54s1.347.578 2.117.578zm-23.127-15.785c-1.815 0-3.474-.44-4.978-1.32-1.503-.898-2.704-2.09-3.602-3.575-.88-1.503-1.32-3.172-1.32-5.005 0-1.797.458-3.447 1.375-4.95.917-1.503 2.127-2.704 3.63-3.603 1.503-.898 3.135-1.347 4.895-1.347 1.815 0 3.465.449 4.95 1.347 1.503.88 2.704 2.072 3.602 3.575.899 1.485 1.348 3.145 1.348 4.978 0 1.833-.449 3.502-1.348 5.005-.898 1.485-2.099 2.677-3.602 3.575-1.485.88-3.135 1.32-4.95 1.32zm0-5.665c.77 0 1.476-.193 2.117-.578.642-.385 1.155-.898 1.54-1.539.385-.642.578-1.348.578-2.118 0-.77-.193-1.476-.578-2.118-.385-.641-.898-1.155-1.54-1.54-.641-.385-1.347-.577-2.117-.577s-1.476.192-2.118.577c-.641.385-1.155.899-1.54 1.54-.385.642-.577 1.348-.577 2.118 0 .77.192 1.476.577 2.118.385.641.899 1.154 1.54 1.539.642.385 1.348.578 2.118.578zM311.861 361v-18.72h7.566c.182 0 .407.009.676.026.268.009.524.035.767.078 1.04.165 1.906.52 2.6 1.066.702.546 1.226 1.235 1.573 2.067.346.832.52 1.751.52 2.756 0 1.491-.382 2.778-1.144 3.861-.763 1.075-1.907 1.746-3.432 2.015l-1.105.13h-5.304V361h-2.717zm10.946 0l-3.692-7.618 2.743-.702 4.056 8.32h-3.107zm-8.229-9.295h4.745c.173 0 .364-.009.572-.026.216-.017.42-.048.611-.091.554-.13 1.001-.368 1.339-.715.338-.355.58-.763.728-1.222.147-.459.221-.919.221-1.378 0-.459-.074-.914-.221-1.365-.148-.459-.39-.862-.728-1.209-.338-.355-.785-.598-1.339-.728-.191-.052-.395-.087-.611-.104-.208-.017-.399-.026-.572-.026h-4.745v6.864zm20.42 9.685c-1.395 0-2.622-.303-3.679-.91-1.049-.615-1.868-1.469-2.457-2.561-.581-1.101-.871-2.375-.871-3.822 0-1.534.286-2.864.858-3.991.581-1.127 1.387-1.998 2.418-2.613 1.031-.615 2.232-.923 3.601-.923 1.43 0 2.648.334 3.653 1.001 1.005.659 1.755 1.599 2.249 2.821.503 1.222.702 2.674.598 4.355h-2.717v-.988c-.017-1.629-.329-2.834-.936-3.614-.598-.78-1.512-1.17-2.743-1.17-1.361 0-2.383.429-3.068 1.287-.685.858-1.027 2.097-1.027 3.718 0 1.543.342 2.739 1.027 3.588.685.841 1.673 1.261 2.964 1.261.849 0 1.582-.191 2.197-.572.624-.39 1.109-.945 1.456-1.664l2.665.845c-.546 1.257-1.374 2.232-2.483 2.925-1.109.685-2.344 1.027-3.705 1.027zm-5.005-6.643v-2.119h10.023v2.119h-10.023zm20.502 6.643c-1.344 0-2.47-.325-3.38-.975-.91-.659-1.599-1.547-2.067-2.665-.468-1.118-.702-2.379-.702-3.783s.229-2.665.689-3.783c.468-1.118 1.152-1.998 2.054-2.639.91-.65 2.028-.975 3.354-.975 1.317 0 2.452.325 3.406.975.962.641 1.703 1.521 2.223 2.639.52 1.109.78 2.37.78 3.783 0 1.404-.26 2.669-.78 3.796-.512 1.118-1.244 2.002-2.197 2.652-.945.65-2.072.975-3.38.975zm-6.604 5.85v-20.28h2.418v10.101h.312v10.179h-2.73zm6.227-8.307c.866 0 1.581-.221 2.145-.663.572-.442.996-1.036 1.274-1.781.286-.754.429-1.595.429-2.522 0-.919-.143-1.751-.429-2.496-.278-.745-.707-1.339-1.287-1.781-.581-.442-1.322-.663-2.223-.663-.85 0-1.552.208-2.106.624-.546.416-.954.997-1.222 1.742-.26.745-.39 1.603-.39 2.574 0 .971.13 1.829.39 2.574.26.745.671 1.33 1.235 1.755.563.425 1.291.637 2.184.637zm15.831 2.457c-1.395 0-2.622-.303-3.679-.91-1.049-.615-1.868-1.469-2.457-2.561-.581-1.101-.871-2.375-.871-3.822 0-1.534.286-2.864.858-3.991.581-1.127 1.387-1.998 2.418-2.613 1.031-.615 2.232-.923 3.601-.923 1.43 0 2.648.334 3.653 1.001 1.005.659 1.755 1.599 2.249 2.821.503 1.222.702 2.674.598 4.355h-2.717v-.988c-.017-1.629-.329-2.834-.936-3.614-.598-.78-1.512-1.17-2.743-1.17-1.361 0-2.383.429-3.068 1.287-.685.858-1.027 2.097-1.027 3.718 0 1.543.342 2.739 1.027 3.588.685.841 1.673 1.261 2.964 1.261.849 0 1.582-.191 2.197-.572.624-.39 1.109-.945 1.456-1.664l2.665.845c-.546 1.257-1.374 2.232-2.483 2.925-1.109.685-2.344 1.027-3.705 1.027zm-5.005-6.643v-2.119h10.023v2.119h-10.023zm18.003 6.643c-1.04 0-1.911-.191-2.613-.572-.702-.39-1.235-.901-1.599-1.534-.355-.641-.533-1.343-.533-2.106 0-.711.126-1.335.377-1.872.251-.537.624-.992 1.118-1.365.494-.381 1.101-.689 1.82-.923.624-.182 1.33-.342 2.119-.481.789-.139 1.616-.269 2.483-.39.875-.121 1.742-.243 2.6-.364l-.988.546c.017-1.101-.217-1.915-.702-2.444-.477-.537-1.3-.806-2.47-.806-.737 0-1.413.173-2.028.52-.615.338-1.044.901-1.287 1.69l-2.535-.78c.347-1.205 1.005-2.162 1.976-2.873.979-.711 2.279-1.066 3.9-1.066 1.257 0 2.349.217 3.276.65.936.425 1.621 1.101 2.054 2.028.225.459.364.945.416 1.456.052.511.078 1.062.078 1.651V361h-2.405v-3.211l.468.416c-.581 1.075-1.322 1.876-2.223 2.405-.893.52-1.993.78-3.302.78zm.481-2.223c.771 0 1.434-.134 1.989-.403.555-.277 1.001-.628 1.339-1.053.338-.425.559-.867.663-1.326.147-.416.23-.884.247-1.404.026-.52.039-.936.039-1.248l.884.325c-.858.13-1.638.247-2.34.351-.702.104-1.339.208-1.911.312-.563.095-1.066.212-1.508.351-.373.13-.706.286-1.001.468-.286.182-.516.403-.689.663-.165.26-.247.576-.247.949 0 .364.091.702.273 1.014.182.303.459.546.832.728.373.182.849.273 1.43.273zM397.819 361c-.884.173-1.751.247-2.6.221-.85-.026-1.608-.191-2.275-.494-.668-.303-1.17-.78-1.508-1.43-.304-.581-.468-1.17-.494-1.768-.018-.607-.026-1.291-.026-2.054V343.06h2.73v12.285c0 .563.004 1.053.013 1.469.017.416.108.767.273 1.053.312.537.806.845 1.482.923.684.069 1.486.039 2.405-.091V361zm-9.594-11.856v-2.184h9.594v2.184h-9.594zm-92.232 39.246c-1.439 0-2.661-.321-3.666-.962-1.006-.641-1.777-1.521-2.314-2.639-.529-1.118-.798-2.388-.806-3.809.008-1.447.286-2.726.832-3.835.546-1.118 1.326-1.993 2.34-2.626 1.014-.633 2.231-.949 3.653-.949 1.534 0 2.842.381 3.926 1.144 1.092.763 1.811 1.807 2.158 3.133l-2.704.78c-.269-.789-.711-1.4-1.326-1.833-.607-.442-1.305-.663-2.093-.663-.893 0-1.625.212-2.197.637-.572.416-.997.988-1.274 1.716-.278.728-.421 1.56-.429 2.496.008 1.447.338 2.617.988 3.51.658.893 1.629 1.339 2.912 1.339.875 0 1.581-.199 2.119-.598.546-.407.962-.988 1.248-1.742l2.756.65c-.46 1.369-1.218 2.422-2.275 3.159-1.058.728-2.34 1.092-3.848 1.092zm14.062-.013c-.971 0-1.785-.156-2.444-.468-.659-.312-1.196-.719-1.612-1.222-.407-.511-.719-1.066-.936-1.664-.217-.598-.364-1.183-.442-1.755-.078-.572-.117-1.075-.117-1.508v-7.8h2.756v6.903c0 .546.043 1.109.13 1.69.095.572.269 1.105.52 1.599.26.494.62.893 1.079 1.196.468.303 1.075.455 1.82.455.485 0 .945-.078 1.378-.234.433-.165.81-.425 1.131-.78.329-.355.585-.823.767-1.404.191-.581.286-1.287.286-2.119l1.69.637c0 1.274-.238 2.401-.715 3.38-.477.971-1.161 1.729-2.054 2.275-.893.546-1.972.819-3.237.819zm4.641-.377v-4.056h-.325v-9.984h2.743V388h-2.418zm11.433.377c-1.707 0-3.098-.377-4.173-1.131-1.074-.754-1.733-1.816-1.976-3.185l2.782-.429c.174.728.572 1.304 1.196 1.729.633.416 1.417.624 2.353.624.85 0 1.513-.173 1.989-.52.486-.347.728-.823.728-1.43 0-.355-.086-.641-.26-.858-.164-.225-.515-.438-1.053-.637-.537-.199-1.356-.446-2.457-.741-1.204-.312-2.162-.646-2.873-1.001-.702-.364-1.204-.784-1.508-1.261-.294-.485-.442-1.07-.442-1.755 0-.849.226-1.59.676-2.223.451-.633 1.084-1.122 1.898-1.469.824-.347 1.786-.52 2.886-.52 1.075 0 2.033.169 2.873.507.841.338 1.521.819 2.041 1.443.52.615.832 1.339.936 2.171l-2.782.507c-.095-.676-.411-1.209-.949-1.599-.537-.39-1.235-.602-2.093-.637-.823-.035-1.49.104-2.002.416-.511.303-.767.724-.767 1.261 0 .312.096.576.286.793.2.217.581.425 1.144.624.564.199 1.396.438 2.496.715 1.179.303 2.115.641 2.808 1.014.694.364 1.188.802 1.482 1.313.304.503.455 1.114.455 1.833 0 1.387-.507 2.474-1.521 3.263-1.005.789-2.396 1.183-4.173 1.183zm16.605-.377c-.884.173-1.751.247-2.6.221-.85-.026-1.608-.191-2.275-.494-.668-.303-1.17-.78-1.508-1.43-.304-.581-.468-1.17-.494-1.768-.018-.607-.026-1.291-.026-2.054V370.06h2.73v12.285c0 .563.004 1.053.013 1.469.017.416.108.767.273 1.053.312.537.806.845 1.482.923.684.069 1.486.039 2.405-.091V388zm-9.594-11.856v-2.184h9.594v2.184h-9.594zm18.016 12.246c-1.404 0-2.622-.316-3.653-.949-1.031-.633-1.829-1.504-2.392-2.613-.555-1.118-.832-2.405-.832-3.861 0-1.465.286-2.752.858-3.861.572-1.118 1.374-1.985 2.405-2.6 1.031-.624 2.236-.936 3.614-.936 1.404 0 2.622.316 3.653.949 1.031.633 1.829 1.504 2.392 2.613s.845 2.388.845 3.835c0 1.465-.286 2.756-.858 3.874-.563 1.109-1.361 1.98-2.392 2.613-1.031.624-2.245.936-3.64.936zm0-2.561c1.343 0 2.344-.451 3.003-1.352.667-.91 1.001-2.08 1.001-3.51 0-1.465-.338-2.635-1.014-3.51-.667-.884-1.664-1.326-2.99-1.326-.91 0-1.66.208-2.249.624-.589.407-1.027.975-1.313 1.703-.286.719-.429 1.556-.429 2.509 0 1.473.338 2.652 1.014 3.536.676.884 1.668 1.326 2.977 1.326zM377.725 388l.013-8.749c0-1.014-.26-1.803-.78-2.366-.52-.572-1.205-.858-2.054-.858-.52 0-.997.121-1.43.364-.425.234-.772.589-1.04 1.066-.26.468-.39 1.057-.39 1.768l-1.313-.663c-.018-.988.19-1.855.624-2.6.442-.745 1.04-1.322 1.794-1.729.754-.416 1.599-.624 2.535-.624 1.516 0 2.691.455 3.523 1.365.832.91 1.248 2.119 1.248 3.627l-.013 9.399h-2.717zm-16.835 0v-14.04h2.418v4.056h.312V388h-2.73zm8.424 0l.013-8.697c0-1.023-.26-1.824-.78-2.405-.512-.581-1.201-.871-2.067-.871-.858 0-1.552.295-2.08.884-.52.589-.78 1.361-.78 2.314l-1.3-.832c0-.919.221-1.738.663-2.457.442-.719 1.04-1.287 1.794-1.703.754-.416 1.607-.624 2.561-.624.996 0 1.846.212 2.548.637.702.416 1.235 1.001 1.599 1.755.372.754.559 1.629.559 2.626l-.013 9.373h-2.717zm20.566.39c-1.396 0-2.622-.303-3.679-.91-1.049-.615-1.868-1.469-2.457-2.561-.581-1.101-.871-2.375-.871-3.822 0-1.534.286-2.864.858-3.991.58-1.127 1.386-1.998 2.418-2.613 1.031-.615 2.231-.923 3.601-.923 1.43 0 2.647.334 3.653 1.001 1.005.659 1.755 1.599 2.249 2.821.502 1.222.702 2.674.598 4.355h-2.717v-.988c-.018-1.629-.33-2.834-.936-3.614-.598-.78-1.513-1.17-2.743-1.17-1.361 0-2.384.429-3.068 1.287-.685.858-1.027 2.097-1.027 3.718 0 1.543.342 2.739 1.027 3.588.684.841 1.672 1.261 2.964 1.261.849 0 1.581-.191 2.197-.572.624-.39 1.109-.945 1.456-1.664l2.665.845c-.546 1.257-1.374 2.232-2.483 2.925-1.11.685-2.345 1.027-3.705 1.027zm-5.005-6.643v-2.119h10.023v2.119h-10.023zM399.166 388v-14.04h2.418v3.406l-.338-.442c.174-.451.399-.862.676-1.235.278-.381.598-.693.962-.936.356-.26.75-.459 1.183-.598.442-.147.893-.234 1.352-.26.46-.035.902-.013 1.326.065v2.548c-.459-.121-.97-.156-1.534-.104-.554.052-1.066.23-1.534.533-.442.286-.793.633-1.053 1.04-.251.407-.433.862-.546 1.365-.112.494-.169 1.018-.169 1.573V388h-2.743zm14.916.377c-1.707 0-3.098-.377-4.173-1.131-1.074-.754-1.733-1.816-1.976-3.185l2.782-.429c.174.728.572 1.304 1.196 1.729.633.416 1.417.624 2.353.624.85 0 1.513-.173 1.989-.52.486-.347.728-.823.728-1.43 0-.355-.086-.641-.26-.858-.164-.225-.515-.438-1.053-.637-.537-.199-1.356-.446-2.457-.741-1.204-.312-2.162-.646-2.873-1.001-.702-.364-1.204-.784-1.508-1.261-.294-.485-.442-1.07-.442-1.755 0-.849.226-1.59.676-2.223.451-.633 1.084-1.122 1.898-1.469.824-.347 1.786-.52 2.886-.52 1.075 0 2.033.169 2.873.507.841.338 1.521.819 2.041 1.443.52.615.832 1.339.936 2.171l-2.782.507c-.095-.676-.411-1.209-.949-1.599-.537-.39-1.235-.602-2.093-.637-.823-.035-1.49.104-2.002.416-.511.303-.767.724-.767 1.261 0 .312.096.576.286.793.2.217.581.425 1.144.624.564.199 1.396.438 2.496.715 1.179.303 2.115.641 2.808 1.014.694.364 1.188.802 1.482 1.313.304.503.455 1.114.455 1.833 0 1.387-.507 2.474-1.521 3.263-1.005.789-2.396 1.183-4.173 1.183z" fill="#28B35F"/><ellipse cx="208.5" cy="112" rx="111.5" ry="112" fill="#F5F9FF"/><path d="M148.41 112.63v-9.845h-9.845v-5.1975h9.845V87.77h5.198v9.8175h9.79v5.1975h-9.79v9.845h-5.198zm24.133 7.37l13.64-33.33h-17.297V80.4h24.392v6.27L179.693 120h-7.15zm41.564.825c-2.805 0-5.28-.596-7.425-1.788-2.145-1.21-3.822-2.887-5.032-5.032-1.192-2.145-1.788-4.62-1.788-7.425V93.82c0-2.805.596-5.28 1.788-7.425 1.21-2.145 2.887-3.8133 5.032-5.005 2.145-1.21 4.62-1.815 7.425-1.815 2.805 0 5.271.605 7.398 1.815 2.145 1.1917 3.822 2.86 5.032 5.005s1.815 4.62 1.815 7.425v12.76c0 2.805-.605 5.28-1.815 7.425-1.21 2.145-2.887 3.822-5.032 5.032-2.127 1.192-4.593 1.788-7.398 1.788zm0-6.298c1.393 0 2.658-.33 3.795-.99 1.137-.678 2.035-1.576 2.695-2.695.66-1.136.99-2.401.99-3.795V93.325c0-1.4117-.33-2.6767-.99-3.795-.66-1.1367-1.558-2.035-2.695-2.695-1.137-.6783-2.402-1.0175-3.795-1.0175-1.393 0-2.658.3392-3.795 1.0175-1.137.66-2.035 1.5583-2.695 2.695-.66 1.1183-.99 2.3833-.99 3.795v13.722c0 1.394.33 2.659.99 3.795.66 1.119 1.558 2.017 2.695 2.695 1.137.66 2.402.99 3.795.99zM241.563 120l-4.4-4.4 35.228-35.2 4.4 4.4275L241.563 120zm26.978.825c-1.815 0-3.474-.44-4.978-1.32-1.485-.898-2.676-2.09-3.575-3.575-.898-1.503-1.347-3.172-1.347-5.005 0-1.797.458-3.447 1.375-4.95.916-1.503 2.126-2.704 3.63-3.603 1.503-.898 3.135-1.347 4.895-1.347 1.815 0 3.474.449 4.977 1.347 1.504.88 2.695 2.072 3.575 3.575.899 1.485 1.348 3.145 1.348 4.978 0 1.833-.449 3.502-1.348 5.005-.88 1.485-2.071 2.677-3.575 3.575-1.503.88-3.162 1.32-4.977 1.32zm0-5.665c.751 0 1.448-.193 2.09-.578.66-.385 1.182-.898 1.567-1.54.385-.641.578-1.347.578-2.117s-.193-1.476-.578-2.118c-.385-.641-.907-1.155-1.567-1.54-.642-.385-1.339-.577-2.09-.577-.77 0-1.476.192-2.118.577-.641.385-1.164.899-1.567 1.54-.385.642-.578 1.348-.578 2.118 0 .77.193 1.476.578 2.117.403.642.926 1.155 1.567 1.54.642.385 1.348.578 2.118.578zm-23.128-15.785c-1.815 0-3.474-.44-4.977-1.32-1.504-.8983-2.704-2.09-3.603-3.575-.88-1.5033-1.32-3.1717-1.32-5.005 0-1.7967.459-3.4467 1.375-4.95.917-1.5033 2.127-2.7042 3.63-3.6025 1.504-.8983 3.135-1.3475 4.895-1.3475 1.815 0 3.465.4492 4.95 1.3475 1.504.88 2.704 2.0717 3.603 3.575.898 1.485 1.347 3.1442 1.347 4.9775s-.449 3.5017-1.347 5.005c-.899 1.485-2.099 2.6767-3.603 3.575-1.485.88-3.135 1.32-4.95 1.32zm0-5.665c.77 0 1.476-.1925 2.118-.5775.641-.385 1.155-.8983 1.54-1.54s.577-1.3475.577-2.1175c0-.77-.192-1.4758-.577-2.1175-.385-.6417-.899-1.155-1.54-1.54-.642-.385-1.348-.5775-2.118-.5775-.77 0-1.476.1925-2.117.5775-.642.385-1.155.8983-1.54 1.54s-.578 1.3475-.578 2.1175c0 .77.193 1.4758.578 2.1175.385.6417.898 1.155 1.54 1.54.641.385 1.347.5775 2.117.5775zM183.812 152l6.084-18.72h3.913l6.084 18.72h-2.821l-5.603-17.082h.702L186.633 152h-2.821zm3.159-4.225v-2.548h9.776v2.548h-9.776zm22.559 4.615c-1.872 0-3.466-.407-4.784-1.222-1.317-.823-2.327-1.967-3.029-3.432-.693-1.465-1.04-3.163-1.04-5.096 0-1.933.347-3.631 1.04-5.096.702-1.465 1.712-2.604 3.029-3.419 1.318-.823 2.912-1.235 4.784-1.235 1.864 0 3.454.412 4.771 1.235 1.326.815 2.336 1.954 3.029 3.419.694 1.465 1.04 3.163 1.04 5.096 0 1.933-.346 3.631-1.04 5.096-.693 1.465-1.703 2.609-3.029 3.432-1.317.815-2.907 1.222-4.771 1.222zm0-2.587c1.326.017 2.427-.273 3.302-.871.884-.607 1.547-1.447 1.989-2.522.442-1.083.663-2.34.663-3.77 0-1.43-.221-2.678-.663-3.744-.442-1.075-1.105-1.911-1.989-2.509-.875-.598-1.976-.901-3.302-.91-1.326-.017-2.431.273-3.315.871-.875.598-1.534 1.439-1.976 2.522-.442 1.083-.667 2.34-.676 3.77-.008 1.43.208 2.682.65 3.757.442 1.066 1.105 1.898 1.989 2.496.893.598 2.002.901 3.328.91zM224.57 152l-6.084-18.72h2.821l5.187 15.977 5.252-15.977h2.821L228.483 152h-3.913z" fill="#2E7CF6"/><ellipse cx="442" cy="123.5" rx="87" ry="86.5" fill="#F7ECFF"/><path d="M399.997 123V96.5175l-6.075 3.7125v-5.985l6.075-3.645h5.535V123h-5.535zm25.762.675c-2.295 0-4.32-.487-6.075-1.463-1.755-.99-3.128-2.362-4.118-4.117-.975-1.755-1.462-3.78-1.462-6.075v-10.44c0-2.295.487-4.32 1.462-6.075.99-1.755 2.363-3.12 4.118-4.095 1.755-.99 3.78-1.485 6.075-1.485 2.295 0 4.312.495 6.052 1.485 1.755.975 3.128 2.34 4.118 4.095.99 1.755 1.485 3.78 1.485 6.075v10.44c0 2.295-.495 4.32-1.485 6.075-.99 1.755-2.363 3.127-4.118 4.117-1.74.976-3.757 1.463-6.052 1.463zm0-5.153c1.14 0 2.175-.27 3.105-.81.93-.555 1.665-1.29 2.205-2.205.54-.93.81-1.965.81-3.105v-11.227c0-1.155-.27-2.19-.81-3.105-.54-.93-1.275-1.665-2.205-2.205-.93-.555-1.965-.8325-3.105-.8325s-2.175.2775-3.105.8325c-.93.54-1.665 1.275-2.205 2.205-.54.915-.81 1.95-.81 3.105v11.227c0 1.14.27 2.175.81 3.105.54.915 1.275 1.65 2.205 2.205.93.54 1.965.81 3.105.81zM443.723 123V90.6h4.882l11.205 22.95 11.205-22.95h4.883V123h-5.063v-20.768L460.89 123h-2.16l-9.922-20.768V123h-5.085zm46.101-6.03v-8.055h-8.055v-4.253h8.055V96.63h4.253v8.032h8.01v4.253h-8.01v8.055h-4.253zM394.001 153.39c-1.343 0-2.556-.23-3.64-.689-1.074-.468-1.963-1.131-2.665-1.989-.693-.867-1.144-1.894-1.352-3.081l2.834-.429c.286 1.144.884 2.037 1.794 2.678.91.633 1.972.949 3.185.949.754 0 1.448-.117 2.08-.351.633-.243 1.14-.585 1.521-1.027.39-.451.585-.988.585-1.612 0-.338-.06-.637-.182-.897-.112-.26-.273-.485-.481-.676-.199-.199-.446-.368-.741-.507-.286-.147-.602-.273-.949-.377l-4.797-1.417c-.468-.139-.944-.316-1.43-.533-.485-.225-.931-.516-1.339-.871-.398-.364-.723-.81-.975-1.339-.251-.537-.377-1.187-.377-1.95 0-1.153.295-2.128.884-2.925.598-.806 1.404-1.413 2.418-1.82 1.014-.416 2.15-.624 3.406-.624 1.266.017 2.397.243 3.393.676 1.006.433 1.838 1.057 2.496 1.872.668.806 1.127 1.785 1.378 2.938l-2.912.494c-.13-.702-.407-1.304-.832-1.807-.424-.511-.944-.901-1.56-1.17-.615-.277-1.282-.42-2.002-.429-.693-.017-1.33.087-1.911.312-.572.225-1.031.542-1.378.949-.338.407-.507.875-.507 1.404 0 .52.152.94.455 1.261.304.321.676.576 1.118.767.451.182.897.334 1.339.455l3.458.975c.434.121.923.286 1.469.494.555.199 1.088.481 1.599.845.52.364.949.849 1.287 1.456.338.598.507 1.352.507 2.262 0 .945-.19 1.777-.572 2.496-.381.711-.905 1.309-1.573 1.794-.658.477-1.421.836-2.288 1.079-.866.243-1.781.364-2.743.364zm19.801-.39v-6.903c0-.546-.048-1.105-.143-1.677-.087-.581-.26-1.118-.52-1.612-.252-.494-.611-.893-1.079-1.196-.46-.303-1.062-.455-1.807-.455-.486 0-.945.082-1.378.247-.434.156-.815.412-1.144.767-.321.355-.577.823-.767 1.404-.182.581-.273 1.287-.273 2.119l-1.69-.637c0-1.274.238-2.396.715-3.367.476-.979 1.161-1.742 2.054-2.288.892-.546 1.971-.819 3.237-.819.97 0 1.785.156 2.444.468.658.312 1.191.724 1.599 1.235.416.503.732 1.053.949 1.651.216.598.364 1.183.442 1.755.078.572.117 1.075.117 1.508v7.8h-2.756zm-9.867 0v-18.72h2.431v10.101h.325V153h-2.756zm22.106.39c-1.404 0-2.622-.316-3.653-.949-1.032-.633-1.829-1.504-2.392-2.613-.555-1.118-.832-2.405-.832-3.861 0-1.465.286-2.752.858-3.861.572-1.118 1.373-1.985 2.405-2.6 1.031-.624 2.236-.936 3.614-.936 1.404 0 2.621.316 3.653.949 1.031.633 1.828 1.504 2.392 2.613.563 1.109.845 2.388.845 3.835 0 1.465-.286 2.756-.858 3.874-.564 1.109-1.361 1.98-2.392 2.613-1.032.624-2.245.936-3.64.936zm0-2.561c1.343 0 2.344-.451 3.003-1.352.667-.91 1.001-2.08 1.001-3.51 0-1.465-.338-2.635-1.014-3.51-.668-.884-1.664-1.326-2.99-1.326-.91 0-1.66.208-2.249.624-.59.407-1.027.975-1.313 1.703-.286.719-.429 1.556-.429 2.509 0 1.473.338 2.652 1.014 3.536.676.884 1.668 1.326 2.977 1.326zm16.338 2.561c-1.344 0-2.47-.325-3.38-.975-.91-.659-1.599-1.547-2.067-2.665-.468-1.118-.702-2.379-.702-3.783s.229-2.665.689-3.783c.468-1.118 1.152-1.998 2.054-2.639.91-.65 2.028-.975 3.354-.975 1.317 0 2.452.325 3.406.975.962.641 1.703 1.521 2.223 2.639.52 1.109.78 2.37.78 3.783 0 1.404-.26 2.669-.78 3.796-.512 1.118-1.244 2.002-2.197 2.652-.945.65-2.072.975-3.38.975zm-6.604 5.85v-20.28h2.418v10.101h.312v10.179h-2.73zm6.227-8.307c.866 0 1.581-.221 2.145-.663.572-.442.996-1.036 1.274-1.781.286-.754.429-1.595.429-2.522 0-.919-.143-1.751-.429-2.496-.278-.745-.707-1.339-1.287-1.781-.581-.442-1.322-.663-2.223-.663-.85 0-1.552.208-2.106.624-.546.416-.954.997-1.222 1.742-.26.745-.39 1.603-.39 2.574 0 .971.13 1.829.39 2.574.26.745.671 1.33 1.235 1.755.563.425 1.291.637 2.184.637zm16.195 2.457c-1.343 0-2.47-.325-3.38-.975-.91-.659-1.599-1.547-2.067-2.665-.468-1.118-.702-2.379-.702-3.783s.23-2.665.689-3.783c.468-1.118 1.153-1.998 2.054-2.639.91-.65 2.028-.975 3.354-.975 1.317 0 2.453.325 3.406.975.962.641 1.703 1.521 2.223 2.639.52 1.109.78 2.37.78 3.783 0 1.404-.26 2.669-.78 3.796-.511 1.118-1.244 2.002-2.197 2.652-.945.65-2.071.975-3.38.975zm-6.604 5.85v-20.28h2.418v10.101h.312v10.179h-2.73zm6.227-8.307c.867 0 1.582-.221 2.145-.663.572-.442.997-1.036 1.274-1.781.286-.754.429-1.595.429-2.522 0-.919-.143-1.751-.429-2.496-.277-.745-.706-1.339-1.287-1.781-.581-.442-1.322-.663-2.223-.663-.849 0-1.551.208-2.106.624-.546.416-.953.997-1.222 1.742-.26.745-.39 1.603-.39 2.574 0 .971.13 1.829.39 2.574.26.745.672 1.33 1.235 1.755.563.425 1.291.637 2.184.637zm15.831 2.457c-1.395 0-2.621-.303-3.679-.91-1.048-.615-1.867-1.469-2.457-2.561-.58-1.101-.871-2.375-.871-3.822 0-1.534.286-2.864.858-3.991.581-1.127 1.387-1.998 2.418-2.613 1.032-.615 2.232-.923 3.601-.923 1.43 0 2.648.334 3.653 1.001 1.006.659 1.755 1.599 2.249 2.821.503 1.222.702 2.674.598 4.355h-2.717v-.988c-.017-1.629-.329-2.834-.936-3.614-.598-.78-1.512-1.17-2.743-1.17-1.36 0-2.383.429-3.068 1.287-.684.858-1.027 2.097-1.027 3.718 0 1.543.343 2.739 1.027 3.588.685.841 1.673 1.261 2.964 1.261.85 0 1.582-.191 2.197-.572.624-.39 1.11-.945 1.456-1.664l2.665.845c-.546 1.257-1.373 2.232-2.483 2.925-1.109.685-2.344 1.027-3.705 1.027zm-5.005-6.643v-2.119h10.023v2.119h-10.023zM482.938 153v-14.04h2.418v3.406l-.338-.442c.173-.451.399-.862.676-1.235.277-.381.598-.693.962-.936.355-.26.75-.459 1.183-.598.442-.147.893-.234 1.352-.26.459-.035.901-.013 1.326.065v2.548c-.459-.121-.971-.156-1.534-.104-.555.052-1.066.23-1.534.533-.442.286-.793.633-1.053 1.04-.251.407-.433.862-.546 1.365-.113.494-.169 1.018-.169 1.573V153h-2.743zm14.916.377c-1.708 0-3.099-.377-4.173-1.131-1.075-.754-1.734-1.816-1.976-3.185l2.782-.429c.173.728.572 1.304 1.196 1.729.632.416 1.417.624 2.353.624.849 0 1.512-.173 1.989-.52.485-.347.728-.823.728-1.43 0-.355-.087-.641-.26-.858-.165-.225-.516-.438-1.053-.637-.538-.199-1.357-.446-2.457-.741-1.205-.312-2.163-.646-2.873-1.001-.702-.364-1.205-.784-1.508-1.261-.295-.485-.442-1.07-.442-1.755 0-.849.225-1.59.676-2.223.45-.633 1.083-1.122 1.898-1.469.823-.347 1.785-.52 2.886-.52 1.074 0 2.032.169 2.873.507.84.338 1.521.819 2.041 1.443.52.615.832 1.339.936 2.171l-2.782.507c-.096-.676-.412-1.209-.949-1.599-.538-.39-1.235-.602-2.093-.637-.824-.035-1.491.104-2.002.416-.512.303-.767.724-.767 1.261 0 .312.095.576.286.793.199.217.58.425 1.144.624.563.199 1.395.438 2.496.715 1.178.303 2.114.641 2.808 1.014.693.364 1.187.802 1.482 1.313.303.503.455 1.114.455 1.833 0 1.387-.507 2.474-1.521 3.263-1.006.789-2.397 1.183-4.173 1.183z" fill="#662E8B"/><path d="M63.0789 178.197c.4304-1.292 2.2538-1.292 2.6842 0l2.5238 7.579c.5555 1.666 1.4914 3.18 2.7336 4.421 1.2422 1.242 2.7565 2.177 4.4229 2.731l7.5752 2.524c1.2912.431 1.2912 2.254 0 2.684l-7.5791 2.524c-1.6661.556-3.1799 1.492-4.4214 2.734-1.2415 1.242-2.1766 2.756-2.7312 4.423l-2.5238 7.575c-.0928.283-.2725.529-.5135.703-.241.175-.531.269-.8286.269s-.5875-.094-.8286-.269c-.241-.174-.4207-.42-.5135-.703l-2.5237-7.579c-.5551-1.666-1.4905-3.179-2.732-4.421-1.2415-1.241-2.755-2.177-4.4206-2.732l-7.5791-2.524c-.2828-.092-.529-.272-.7036-.513-.1745-.241-.2685-.531-.2685-.829 0-.297.094-.587.2685-.828.1746-.241.4208-.421.7036-.514l7.5791-2.524c1.6656-.555 3.1791-1.49 4.4206-2.732 1.2415-1.241 2.1769-2.755 2.732-4.42l2.5237-7.579zm-15.1151-19.952c.0561-.169.1642-.317.3089-.421.1447-.105.3186-.161.4971-.161s.3525.056.4972.161c.1447.104.2527.252.3088.421l1.5143 4.547c.6769 2.027 2.2655 3.615 4.2923 4.292l4.5467 1.515c.1695.056.3169.164.4214.308.1045.145.1608.319.1608.498 0 .178-.0563.352-.1608.497-.1045.144-.2519.253-.4214.309l-4.5467 1.514c-.9996.333-1.9079.894-2.6529 1.639-.7451.745-1.3064 1.654-1.6394 2.653l-1.5143 4.547c-.0561.169-.1641.317-.3088.421-.1447.105-.3187.161-.4972.161s-.3524-.056-.4971-.161c-.1447-.104-.2528-.252-.3089-.421l-1.5143-4.547c-.333-.999-.8943-1.908-1.6393-2.653-.7451-.745-1.6534-1.306-2.653-1.639l-4.5467-1.514c-.1695-.056-.3169-.165-.4214-.309-.1045-.145-.1608-.319-.1608-.497 0-.179.0563-.353.1608-.498.1045-.144.2519-.252.4214-.308l4.5467-1.515c.9996-.333 1.9079-.894 2.653-1.639.745-.745 1.3063-1.653 1.6393-2.653l1.5143-4.547zm27.6596-4.104c.0386-.112.111-.208.207-.277.0961-.068.2111-.105.329-.105s.2329.037.329.105c.0961.069.1684.165.2071.277l1.0095 3.028c.45 1.354 1.5103 2.414 2.8641 2.864l3.0286 1.01c.1114.039.208.111.2764.207.0683.096.1051.211.1051.329 0 .118-.0368.233-.1051.329-.0684.096-.165.168-.2764.207l-3.0286 1.01c-.6671.222-1.2734.596-1.7706 1.093-.4971.497-.8716 1.104-1.0935 1.771l-1.0095 3.028c-.0387.112-.111.208-.2071.277-.0961.068-.2111.105-.329.105s-.2329-.037-.329-.105c-.096-.069-.1684-.165-.207-.277l-1.0095-3.028c-.222-.667-.5964-1.274-1.0936-1.771-.4972-.497-1.1034-.871-1.7706-1.093l-3.0246-1.01c-.1114-.039-.208-.111-.2764-.207-.0684-.096-.1051-.211-.1051-.329 0-.118.0367-.233.1051-.329.0684-.096.165-.168.2764-.207l3.0285-1.01c1.3538-.45 2.4142-1.51 2.8642-2.864l1.0056-3.024v-.004zM213.862 410.566c.311-.929 1.631-.929 1.943 0l1.827 5.447c.403 1.198 1.08 2.286 1.98 3.178.899.893 1.995 1.565 3.202 1.964l5.485 1.814c.935.309.935 1.62 0 1.929l-5.488 1.814c-1.206.399-2.302 1.072-3.201 1.965s-1.576 1.981-1.978 3.179l-1.827 5.445c-.067.204-.197.38-.372.506-.174.125-.384.193-.6.193-.215 0-.425-.068-.6-.193-.174-.126-.304-.302-.371-.506l-1.828-5.448c-.402-1.197-1.079-2.285-1.978-3.177-.899-.892-1.994-1.565-3.2-1.964l-5.488-1.814c-.205-.067-.383-.196-.509-.369-.127-.173-.195-.382-.195-.596 0-.213.068-.422.195-.595.126-.173.304-.303.509-.369l5.488-1.814c1.206-.399 2.301-1.072 3.2-1.964.899-.892 1.576-1.98 1.978-3.178l1.828-5.447zm-10.944-14.341c.04-.122.118-.228.223-.303.105-.075.231-.116.36-.116.129 0 .255.041.36.116.105.075.183.181.224.303l1.096 3.268c.49 1.457 1.641 2.598 3.108 3.085l3.292 1.088c.123.041.229.118.305.222.076.104.117.23.117.358 0 .128-.041.253-.117.357-.076.104-.182.182-.305.222l-3.292 1.089c-.724.239-1.381.642-1.921 1.178-.539.536-.946 1.188-1.187 1.907l-1.096 3.268c-.041.122-.119.228-.224.303-.105.075-.231.116-.36.116-.129 0-.255-.041-.36-.116-.105-.075-.183-.181-.223-.303l-1.097-3.268c-.241-.719-.647-1.371-1.187-1.907-.539-.536-1.197-.939-1.921-1.178l-3.292-1.089c-.122-.04-.229-.118-.305-.222-.075-.104-.116-.229-.116-.357 0-.128.041-.254.116-.358.076-.104.183-.181.305-.222l3.292-1.088c.724-.239 1.382-.643 1.921-1.178.54-.536.946-1.189 1.187-1.907l1.097-3.268zm20.026-2.951c.028-.08.081-.149.15-.198.07-.05.153-.076.238-.076.086 0 .169.026.239.076.069.049.122.118.15.198l.73 2.177c.326.973 1.094 1.735 2.074 2.059l2.193.725c.081.028.151.08.2.149.05.069.076.152.076.237 0 .085-.026.167-.076.236-.049.069-.119.121-.2.149l-2.193.726c-.483.159-.922.428-1.282.786-.36.357-.631.793-.792 1.273l-.73 2.176c-.028.08-.081.15-.15.199-.07.049-.153.076-.239.076-.085 0-.168-.027-.238-.076-.069-.049-.122-.119-.15-.199l-.731-2.176c-.16-.48-.431-.916-.791-1.273-.36-.358-.799-.627-1.282-.786l-2.19-.726c-.081-.028-.151-.08-.2-.149-.05-.069-.077-.151-.077-.236 0-.085.027-.168.077-.237.049-.069.119-.121.2-.149l2.192-.725c.981-.324 1.748-1.086 2.074-2.059l.728-2.174v-.003zM512.118 262.833c.554-1.661 2.898-1.661 3.451 0l3.245 9.744c.715 2.142 1.918 4.089 3.515 5.685 1.597 1.596 3.544 2.798 5.687 3.511l9.739 3.245c1.66.554 1.66 2.898 0 3.451l-9.744 3.245c-2.143.714-4.089 1.918-5.685 3.515-1.596 1.597-2.799 3.544-3.512 5.686l-3.245 9.74c-.119.363-.35.68-.66.904-.31.225-.682.346-1.065.346-.383 0-.756-.121-1.065-.346-.31-.224-.541-.541-.661-.904l-3.244-9.745c-.714-2.141-1.917-4.087-3.513-5.683-1.596-1.597-3.542-2.799-5.684-3.513l-9.744-3.245c-.364-.119-.68-.35-.905-.66-.224-.31-.345-.683-.345-1.065 0-.383.121-.756.345-1.066.225-.309.541-.54.905-.66l9.744-3.245c2.142-.713 4.088-1.916 5.684-3.512s2.799-3.542 3.513-5.684l3.244-9.744zm-19.433-25.652c.072-.218.211-.408.397-.542.186-.134.409-.207.639-.207.229 0 .453.073.639.207s.325.324.397.542l1.947 5.846c.871 2.606 2.913 4.648 5.519 5.518l5.846 1.947c.217.072.407.211.541.397.135.186.207.41.207.64 0 .229-.072.453-.207.639-.134.186-.324.325-.541.397l-5.846 1.947c-1.285.428-2.453 1.15-3.411 2.108-.958.957-1.68 2.125-2.108 3.41l-1.947 5.846c-.072.218-.211.408-.397.542-.186.134-.41.207-.639.207-.23 0-.453-.073-.639-.207s-.325-.324-.397-.542l-1.947-5.846c-.428-1.285-1.15-2.453-2.108-3.41-.958-.958-2.126-1.68-3.411-2.108l-5.846-1.947c-.218-.072-.407-.211-.542-.397-.134-.186-.206-.41-.206-.639 0-.23.072-.454.206-.64.135-.186.324-.325.542-.397l5.846-1.947c1.285-.428 2.453-1.15 3.411-2.107.958-.958 1.68-2.126 2.108-3.411l1.947-5.846zm35.562-5.277c.05-.144.143-.268.266-.356.124-.088.272-.135.423-.135.152 0 .3.047.423.135.124.088.217.212.266.356l1.298 3.893c.579 1.741 1.942 3.104 3.683 3.683l3.894 1.298c.143.049.267.143.355.266.088.124.135.271.135.423 0 .152-.047.299-.135.423-.088.124-.212.217-.355.266l-3.894 1.298c-.858.286-1.637.767-2.277 1.406-.639.639-1.12 1.419-1.406 2.277l-1.298 3.893c-.049.144-.142.268-.266.356-.123.088-.271.135-.423.135-.151 0-.299-.047-.423-.135-.123-.088-.216-.212-.266-.356l-1.298-3.893c-.285-.858-.767-1.638-1.406-2.277-.639-.639-1.419-1.12-2.276-1.406l-3.889-1.298c-.143-.049-.268-.142-.356-.266-.088-.124-.135-.271-.135-.423 0-.152.047-.299.135-.423.088-.123.213-.217.356-.266l3.894-1.298c1.74-.579 3.104-1.942 3.682-3.683l1.293-3.888v-.005z" fill="#E72E80"/></svg>