<svg width="9" height="12" viewBox="0 0 9 12" fill="none" xmlns="http://www.w3.org/2000/svg"><path d="M7.875 4h-.5625V2.85714C7.3125 1.28 6.0525 0 4.5 0S1.6875 1.28 1.6875 2.85714V4H1.125C.50625 4 0 4.51429 0 5.14286v5.71424C0 11.4857.50625 12 1.125 12h6.75C8.49375 12 9 11.4857 9 10.8571V5.14286C9 4.51429 8.49375 4 7.875 4zM4.5 9.14286c-.61875 0-1.125-.51429-1.125-1.14286S3.88125 6.85714 4.5 6.85714 5.625 7.37143 5.625 8 5.11875 9.14286 4.5 9.14286zM2.8125 4V2.85714c0-.94857.75375-1.71428 1.6875-1.71428s1.6875.76571 1.6875 1.71428V4h-3.375z" fill="#000"/></svg>