<svg width="50" height="50" viewBox="0 0 50 50" fill="none" xmlns="http://www.w3.org/2000/svg">
<path d="M41.189 32.8289C41.3894 32.8726 41.5902 32.9175 41.7909 32.9632V33.53C41.7909 34.3839 41.3302 35.1736 40.5885 35.5911L25.757 43.9366C25.4011 44.1368 25.0042 44.2366 24.6073 44.2366C24.1972 44.2366 23.7871 44.1302 23.4232 43.9171L9.07881 35.5285C8.35775 35.1068 7.91016 34.3246 7.91016 33.4869V33.0308C8.09515 32.9917 8.29589 32.9502 8.51181 32.9068V33.4869C8.51181 34.1101 8.84514 34.6924 9.38179 35.0059L23.7261 43.3948C24.2593 43.7066 24.9246 43.712 25.4626 43.4092L40.2941 35.0637C40.8462 34.7531 41.189 34.1656 41.189 33.53V32.8289ZM7.91016 19.9801V16.6386C7.91016 15.7986 8.35975 15.0152 9.08368 14.5942L23.7029 6.09223C24.4475 5.65912 25.3667 5.66861 26.1024 6.11696L40.6586 14.9873C41.3571 15.4126 41.7909 16.1865 41.7909 17.007V19.9473C41.6034 19.9047 41.4026 19.8602 41.189 19.8141V17.007C41.189 16.3965 40.8663 15.8207 40.3465 15.5038L25.79 6.63375C25.511 6.4635 25.1966 6.37838 24.8819 6.37838C24.5789 6.37838 24.2762 6.45718 24.0045 6.61535L9.38551 15.117C8.84657 15.4305 8.51181 16.0134 8.51181 16.6386V19.8377C8.31135 19.884 8.1109 19.9315 7.91016 19.9801Z" fill="#00C18C"/>
<path d="M39.5247 32.4775C39.7249 32.5155 39.9251 32.5543 40.1252 32.5943C40.1012 33.4217 39.6456 34.1803 38.9239 34.5867L25.8307 41.9544C25.4751 42.1543 25.0782 42.2543 24.6813 42.2543C24.2712 42.2543 23.8611 42.1476 23.4971 41.9348L10.8366 34.5309C10.1731 34.1427 9.74128 33.4496 9.67656 32.6889C9.86757 32.6535 10.0663 32.6176 10.2725 32.5814C10.3034 33.1692 10.6299 33.7101 11.1396 34.0087L23.7998 41.4123C24.333 41.724 24.9986 41.7295 25.5366 41.427L38.6298 34.0593C39.1817 33.7487 39.5247 33.1608 39.5247 32.5256V32.4775ZM9.66797 19.5891V17.6176C9.66797 16.7776 10.1176 15.9942 10.8418 15.5732L23.744 8.06977C24.4885 7.63666 25.4078 7.64615 26.1434 8.0945L38.9944 15.9255C39.6928 16.3508 40.1264 17.125 40.1264 17.9452V19.5822C39.9328 19.5439 39.7323 19.5051 39.5247 19.466V17.9452C39.5247 17.3349 39.2017 16.7589 38.6822 16.4423L25.831 8.61129C25.5521 8.44104 25.2377 8.35592 24.9229 8.35592C24.6203 8.35592 24.3173 8.43472 24.0455 8.59289L11.1433 16.0963C10.6047 16.4095 10.2699 16.9924 10.2699 17.6176V19.464C10.0695 19.5045 9.86871 19.5462 9.66797 19.5891Z" fill="#00C18C"/>
<path d="M0.648795 27.4775L2.50358 30.4399L4.64932 30.1135V23.3118L2.66939 23.6906L0.648795 27.4775ZM2.35382 31.0706C2.2513 31.0706 2.15479 31.0183 2.09895 30.9294L0.0462815 27.6506C-0.0115644 27.5586 -0.0152871 27.4424 0.0356859 27.347L2.20662 23.2779C2.24958 23.1974 2.32632 23.1407 2.41538 23.1237L4.89388 22.6495C4.98179 22.6323 5.07286 22.6564 5.14187 22.7136C5.21117 22.7712 5.25098 22.8566 5.25098 22.9466V30.3732C5.25098 30.5228 5.14244 30.6496 4.99525 30.672L2.39878 31.0672C2.38388 31.0695 2.36871 31.0706 2.35382 31.0706Z" fill="#00C18C"/>
<path d="M3.21016 29.2819C3.13628 29.2819 3.06411 29.2451 3.02173 29.1775L1.88944 27.3697C1.84878 27.3044 1.84419 27.2225 1.87799 27.1532L3.01028 24.8203C3.06411 24.7095 3.19727 24.6635 3.30724 24.7173C3.41749 24.7714 3.46331 24.9048 3.40947 25.0158L2.3313 27.2371L3.39801 28.9399C3.46331 29.0443 3.43209 29.1821 3.32814 29.2477C3.29149 29.2707 3.25054 29.2819 3.21016 29.2819Z" fill="#00C18C"/>
<path d="M45.1332 30.0749L47.3634 30.4945L49.2265 27.5542L47.3067 23.8087L45.1332 23.3756V30.0749ZM47.5077 31.1315C47.4897 31.1315 47.4711 31.1298 47.4525 31.1263L44.7767 30.6227C44.6343 30.596 44.5312 30.4712 44.5312 30.3257V23.0075C44.5312 22.9169 44.5716 22.8312 44.6412 22.7739C44.7111 22.7164 44.803 22.6931 44.8909 22.7109L47.5664 23.2444C47.6566 23.2623 47.7334 23.3203 47.7755 23.4023L49.8408 27.432C49.8897 27.5275 49.8843 27.6419 49.827 27.7322L47.7617 30.9917C47.7059 31.08 47.6094 31.1315 47.5077 31.1315Z" fill="#00C18C"/>
<path d="M46.5111 29.3917C46.4664 29.3917 46.4217 29.3782 46.3825 29.3503C46.2826 29.279 46.2591 29.1398 46.3301 29.0394L47.548 27.3182L46.3181 25.1377C46.2574 25.0305 46.2952 24.8944 46.4017 24.8337C46.5079 24.7731 46.644 24.8104 46.7044 24.9177L48.0042 27.2216C48.0466 27.2969 48.042 27.3901 47.9919 27.4608L46.6924 29.2977C46.6488 29.3589 46.5807 29.3917 46.5111 29.3917Z" fill="#00C18C"/>
<path d="M6.65663 20.9285V32.6966C9.37281 32.0527 26.2816 28.3969 43.29 32.6923V20.9268C41.2055 20.3649 24.4752 16.1687 6.65663 20.9285ZM43.5909 33.3836C43.5657 33.3836 43.5405 33.3805 43.5156 33.3739C25.0748 28.5896 6.61596 33.3253 6.43183 33.3736C6.34163 33.3972 6.24569 33.3779 6.17181 33.3204C6.09793 33.2634 6.05469 33.1748 6.05469 33.0814V20.6967C6.05469 20.5601 6.14604 20.4405 6.27719 20.4048C25.4809 15.1964 43.4953 20.3537 43.6754 20.4066C43.8037 20.4442 43.8919 20.5624 43.8919 20.6967V33.0814C43.8919 33.1748 43.8487 33.2631 43.7753 33.3204C43.7221 33.3618 43.6571 33.3836 43.5909 33.3836Z" fill="#00C18C"/>
<path d="M43.566 22.6344C43.5477 22.6344 43.5291 22.6327 43.5105 22.6289L40.6752 22.0958C40.5117 22.0653 40.4043 21.9071 40.4349 21.7432C40.4653 21.5793 40.6222 21.4708 40.786 21.5019L43.621 22.0351C43.7845 22.0656 43.8922 22.2237 43.8616 22.3877C43.8344 22.5329 43.7081 22.6344 43.566 22.6344Z" fill="#00C18C"/>
<path d="M43.566 24.1114C43.5477 24.1114 43.5291 24.1097 43.5105 24.1059L40.6752 23.5727C40.5117 23.5422 40.4043 23.3841 40.4349 23.2201C40.4653 23.0562 40.6222 22.9481 40.786 22.9789L43.621 23.5121C43.7845 23.5425 43.8922 23.7007 43.8616 23.8646C43.8344 24.0099 43.7081 24.1114 43.566 24.1114Z" fill="#00C18C"/>
<path d="M43.566 25.5884C43.5477 25.5884 43.5291 25.5867 43.5105 25.583L40.6752 25.0498C40.5117 25.0193 40.4043 24.8611 40.4349 24.6972C40.4653 24.5333 40.6222 24.4251 40.786 24.4559L43.621 24.9891C43.7845 25.0196 43.8922 25.1778 43.8616 25.3417C43.8344 25.4869 43.7081 25.5884 43.566 25.5884Z" fill="#00C18C"/>
<path d="M43.566 27.0776C43.5477 27.0776 43.5291 27.0759 43.5105 27.0722L40.6752 26.539C40.5117 26.5085 40.4043 26.3503 40.4349 26.1864C40.4653 26.0222 40.6222 25.9146 40.786 25.9451L43.621 26.4783C43.7845 26.5088 43.8922 26.6669 43.8616 26.8309C43.8344 26.9761 43.7081 27.0776 43.566 27.0776Z" fill="#00C18C"/>
<path d="M43.566 28.5303C43.5477 28.5303 43.5291 28.5286 43.5105 28.5249L40.6752 27.9917C40.5117 27.9612 40.4043 27.803 40.4349 27.6391C40.4653 27.4752 40.6222 27.367 40.786 27.3978L43.621 27.931C43.7845 27.9615 43.8922 28.1197 43.8616 28.2836C43.8344 28.4288 43.7081 28.5303 43.566 28.5303Z" fill="#00C18C"/>
<path d="M43.566 30.1539C43.5477 30.1539 43.5291 30.1521 43.5105 30.1484L40.6752 29.6152C40.5117 29.5847 40.4043 29.4266 40.4349 29.2626C40.4653 29.0987 40.6222 28.9906 40.786 29.0213L43.621 29.5545C43.7845 29.585 43.8922 29.7432 43.8616 29.9071C43.8344 30.0523 43.7081 30.1539 43.566 30.1539Z" fill="#00C18C"/>
<path d="M43.4684 31.3991C43.45 31.3991 43.4314 31.3973 43.4128 31.3936L40.5775 30.8604C40.414 30.8299 40.3066 30.6717 40.3373 30.5078C40.3676 30.3439 40.524 30.2355 40.6883 30.2665L43.5234 30.7997C43.6869 30.8302 43.7945 30.9884 43.7639 31.1523C43.7367 31.2975 43.6104 31.3991 43.4684 31.3991Z" fill="#00C18C"/>
<path d="M6.35525 22.7187C6.21579 22.7187 6.09065 22.6209 6.06116 22.4785C6.02708 22.3152 6.13103 22.155 6.29368 22.1205L9.10637 21.5281C9.26874 21.4918 9.42853 21.5985 9.46261 21.7616C9.49668 21.9249 9.39245 22.0851 9.23008 22.1196L6.41739 22.7121C6.39649 22.7167 6.37558 22.7187 6.35525 22.7187Z" fill="#00C18C"/>
<path d="M6.35525 24.1591C6.21579 24.1591 6.09065 24.0613 6.06116 23.919C6.02708 23.7556 6.13103 23.5955 6.29368 23.5609L9.10637 22.9685C9.26874 22.9323 9.42853 23.0387 9.46261 23.202C9.49668 23.3654 9.39245 23.5256 9.23008 23.5601L6.41739 24.1525C6.39649 24.1571 6.37558 24.1591 6.35525 24.1591Z" fill="#00C18C"/>
<path d="M6.35525 25.5994C6.21579 25.5994 6.09065 25.5016 6.06116 25.3592C6.02708 25.1959 6.13103 25.0357 6.29368 25.0012L9.10637 24.4088C9.26874 24.3731 9.42853 24.4789 9.46261 24.6423C9.49668 24.8056 9.39245 24.9658 9.23008 25.0003L6.41739 25.5928C6.39649 25.5974 6.37558 25.5994 6.35525 25.5994Z" fill="#00C18C"/>
<path d="M6.35525 27.1986C6.21579 27.1986 6.09065 27.1008 6.06116 26.9585C6.02708 26.7951 6.13103 26.6349 6.29368 26.6004L9.10637 26.008C9.26874 25.972 9.42853 26.0782 9.46261 26.2415C9.49668 26.4049 9.39245 26.565 9.23008 26.5995L6.41739 27.192C6.39649 27.1966 6.37558 27.1986 6.35525 27.1986Z" fill="#00C18C"/>
<path d="M6.35525 28.7122C6.21579 28.7122 6.09065 28.6144 6.06116 28.472C6.02708 28.3087 6.13103 28.1485 6.29368 28.114L9.10637 27.5216C9.26874 27.4859 9.42853 27.5917 9.46261 27.7551C9.49668 27.9184 9.39245 28.0786 9.23008 28.1131L6.41739 28.7056C6.39649 28.7102 6.37558 28.7122 6.35525 28.7122Z" fill="#00C18C"/>
<path d="M6.35525 30.0915C6.21579 30.0915 6.09065 29.9937 6.06116 29.8514C6.02708 29.688 6.13103 29.5278 6.29368 29.4933L9.10637 28.9009C9.26874 28.8655 9.42853 28.971 9.46261 29.1344C9.49668 29.2977 9.39245 29.4579 9.23008 29.4924L6.41739 30.0849C6.39649 30.0895 6.37558 30.0915 6.35525 30.0915Z" fill="#00C18C"/>
<path d="M6.35525 31.6662C6.21579 31.6662 6.09065 31.5684 6.06116 31.426C6.02708 31.2624 6.13103 31.1025 6.29368 31.068L9.10637 30.4756C9.26874 30.4402 9.42853 30.546 9.46261 30.7094C9.49668 30.8727 9.39245 31.0329 9.23008 31.0671L6.41739 31.6596C6.39649 31.6642 6.37558 31.6662 6.35525 31.6662Z" fill="#00C18C"/>
<path d="M17.4189 34.5785L17.1946 35.1533H17.6431L17.4189 34.5785ZM17.7668 35.4406H17.0709L16.9756 35.6632H16.6016L17.3621 33.9233H17.4781L18.2361 35.6632H17.8624L17.7668 35.4406Z" fill="#00C18C"/>
<path d="M19.3505 34.0113C19.4458 34.07 19.5203 34.1485 19.5736 34.2469L19.3365 34.4306C19.2488 34.2995 19.1406 34.2339 19.0114 34.2339C18.9513 34.2339 18.9012 34.2483 18.8608 34.2768C18.8201 34.3053 18.8001 34.3461 18.8001 34.3999C18.8001 34.4444 18.8153 34.4804 18.8453 34.5071C18.8754 34.5339 18.9264 34.5635 18.9985 34.5966L19.1918 34.682C19.3347 34.7458 19.4404 34.816 19.5091 34.8928C19.5779 34.9699 19.6122 35.0659 19.6122 35.1815C19.6122 35.3368 19.5564 35.4614 19.4447 35.5545C19.3327 35.6474 19.1901 35.6943 19.0166 35.6943C18.8723 35.6943 18.7428 35.6601 18.6286 35.5919C18.5143 35.5238 18.4247 35.4317 18.3594 35.3161L18.5991 35.1349C18.7176 35.3006 18.8568 35.3834 19.0166 35.3834C19.0925 35.3834 19.1517 35.3667 19.1947 35.3331C19.2374 35.2994 19.2591 35.2531 19.2591 35.1945C19.2591 35.16 19.2491 35.1295 19.2294 35.1024C19.2096 35.076 19.1873 35.0556 19.1623 35.0418C19.1374 35.028 19.0973 35.0081 19.0424 34.9822L18.8594 34.8994C18.7271 34.839 18.6251 34.77 18.5538 34.6923C18.4825 34.6147 18.447 34.5198 18.447 34.4073C18.447 34.2624 18.5003 34.1456 18.6068 34.0568C18.7133 33.9679 18.8482 33.9233 19.0114 33.9233C19.142 33.9233 19.2551 33.9527 19.3505 34.0113Z" fill="#00C18C"/>
<path d="M20.7177 34.0113C20.813 34.07 20.8875 34.1485 20.9408 34.2469L20.7036 34.4306C20.616 34.2995 20.5078 34.2339 20.3786 34.2339C20.3185 34.2339 20.2684 34.2483 20.228 34.2768C20.1873 34.3053 20.1673 34.3461 20.1673 34.3999C20.1673 34.4444 20.1825 34.4804 20.2125 34.5071C20.2426 34.5339 20.2936 34.5635 20.3657 34.5966L20.559 34.682C20.7019 34.7458 20.8076 34.816 20.8763 34.8928C20.945 34.9699 20.9794 35.0659 20.9794 35.1815C20.9794 35.3368 20.9236 35.4614 20.8119 35.5545C20.6999 35.6474 20.5573 35.6943 20.3838 35.6943C20.2394 35.6943 20.11 35.6601 19.9957 35.5919C19.8815 35.5238 19.7919 35.4317 19.7266 35.3161L19.9663 35.1349C20.0848 35.3006 20.224 35.3834 20.3838 35.3834C20.4597 35.3834 20.5189 35.3667 20.5619 35.3331C20.6046 35.2994 20.6263 35.2531 20.6263 35.1945C20.6263 35.16 20.6163 35.1295 20.5965 35.1024C20.5768 35.076 20.5544 35.0556 20.5295 35.0418C20.5046 35.028 20.4645 35.0081 20.4095 34.9822L20.2266 34.8994C20.0943 34.839 19.9923 34.77 19.921 34.6923C19.8497 34.6147 19.8142 34.5198 19.8142 34.4073C19.8142 34.2624 19.8675 34.1456 19.974 34.0568C20.0805 33.9679 20.2154 33.9233 20.3786 33.9233C20.5092 33.9233 20.6223 33.9527 20.7177 34.0113Z" fill="#00C18C"/>
<path d="M21.7046 34.4048C21.6015 34.51 21.5496 34.6446 21.5496 34.8088C21.5496 34.9745 21.6009 35.1093 21.7031 35.2137C21.8057 35.3184 21.9365 35.3705 22.0963 35.3705C22.253 35.3705 22.383 35.3178 22.4869 35.2126C22.5909 35.1073 22.643 34.9727 22.643 34.8088C22.643 34.6446 22.5909 34.51 22.4869 34.4048C22.383 34.2995 22.253 34.2469 22.0963 34.2469C21.9382 34.2469 21.8077 34.2995 21.7046 34.4048ZM22.7358 34.1781C22.9127 34.3484 23.0012 34.5583 23.0012 34.8088C23.0012 35.059 22.9127 35.269 22.7358 35.4392C22.5588 35.6092 22.3446 35.694 22.0937 35.694C21.8429 35.694 21.6298 35.6092 21.4543 35.4392C21.279 35.269 21.1914 35.059 21.1914 34.8088C21.1914 34.5583 21.279 34.3484 21.4543 34.1781C21.6298 34.0082 21.8429 33.9233 22.0937 33.9233C22.3446 33.9233 22.5588 34.0082 22.7358 34.1781Z" fill="#00C18C"/>
<path d="M24.5893 34.0361C24.7207 34.1111 24.8244 34.2152 24.9 34.3481L24.6371 34.5345C24.5168 34.3429 24.3541 34.2472 24.1497 34.2472C23.9899 34.2472 23.8584 34.2998 23.7554 34.405C23.6523 34.5103 23.6004 34.6458 23.6004 34.8114C23.6004 34.9756 23.6523 35.1096 23.7554 35.214C23.8584 35.3184 23.9899 35.3708 24.1497 35.3708C24.3541 35.3708 24.5168 35.275 24.6371 35.0835L24.9 35.2698C24.8261 35.4027 24.723 35.5068 24.5904 35.5819C24.4581 35.6569 24.3103 35.6943 24.1471 35.6943C23.8928 35.6943 23.6783 35.6095 23.5039 35.4392C23.3295 35.2692 23.2422 35.0593 23.2422 34.8091C23.2422 34.5586 23.3298 34.3484 23.5051 34.1784C23.6806 34.0085 23.8954 33.9233 24.1497 33.9233C24.3112 33.9233 24.4578 33.961 24.5893 34.0361Z" fill="#00C18C"/>
<path d="M25.1403 33.96H25.4883V35.6688H25.1403V33.96Z" fill="#00C18C"/>
<path d="M26.5985 34.5785L26.3743 35.1533H26.8228L26.5985 34.5785ZM26.9465 35.4406H26.2506L26.1552 35.6632H25.7812L26.5418 33.9233H26.6578L27.4158 35.6632H27.0421L26.9465 35.4406Z" fill="#00C18C"/>
<path d="M28.6845 34.276H28.1378V35.6688H27.7899V34.276H27.2461V33.96H28.6845V34.276Z" fill="#00C18C"/>
<path d="M28.9489 33.96H29.2969V35.6688H28.9489V33.96Z" fill="#00C18C"/>
<path d="M30.103 34.4048C29.9999 34.51 29.9481 34.6446 29.9481 34.8088C29.9481 34.9745 29.9993 35.1093 30.1016 35.2137C30.2041 35.3184 30.335 35.3705 30.4948 35.3705C30.6514 35.3705 30.7814 35.3178 30.8854 35.2126C30.9893 35.1073 31.0414 34.9727 31.0414 34.8088C31.0414 34.6446 30.9893 34.51 30.8854 34.4048C30.7814 34.2995 30.6514 34.2469 30.4948 34.2469C30.3367 34.2469 30.2061 34.2995 30.103 34.4048ZM31.1342 34.1781C31.3112 34.3484 31.3997 34.5583 31.3997 34.8088C31.3997 35.059 31.3112 35.269 31.1342 35.4392C30.9572 35.6092 30.743 35.694 30.4922 35.694C30.2413 35.694 30.0283 35.6092 29.8527 35.4392C29.6775 35.269 29.5898 35.059 29.5898 34.8088C29.5898 34.5583 29.6775 34.3484 29.8527 34.1781C30.0283 34.0082 30.2413 33.9233 30.4922 33.9233C30.743 33.9233 30.9572 34.0082 31.1342 34.1781Z" fill="#00C18C"/>
<path d="M33.0896 33.9544V35.6943H32.9737L31.9888 34.638V35.6632H31.6406V33.9233H31.7543L32.7417 34.9719V33.9544H33.0896Z" fill="#00C18C"/>
<path d="M24.8401 37.3779L25.1228 37.9531L25.7548 38.0451L25.2975 38.4926L25.4054 39.1247L24.8401 38.8265L24.2749 39.1247L24.3828 38.4926L23.9258 38.0451L24.5575 37.9531L24.8401 37.3779Z" fill="#00C18C"/>
<path d="M12.3819 26.5754L11.1291 26.8563L11.2834 27.5506L12.31 27.3205L12.424 27.8338L11.3974 28.0639L11.6319 29.1202L11.0663 29.247L10.4492 26.4695L12.2679 26.062L12.3819 26.5754Z" fill="#00C18C"/>
<path d="M13.5916 27.1587L14.0696 27.0747C14.2022 27.0514 14.2993 26.9968 14.3614 26.9099C14.4232 26.823 14.4436 26.7189 14.4224 26.597C14.4018 26.4782 14.3468 26.3885 14.258 26.3284C14.169 26.268 14.0596 26.2493 13.9301 26.272L13.4522 26.3557L13.5916 27.1587ZM14.9937 28.4537L14.0982 27.5906L13.6796 27.664L13.8517 28.6538L13.2806 28.7539L12.793 25.9505L13.8422 25.7665C14.1383 25.7147 14.3943 25.755 14.6108 25.8878C14.827 26.0204 14.9588 26.2229 15.006 26.4946C15.0372 26.6732 15.0209 26.8389 14.9573 26.9913C14.8937 27.144 14.7924 27.272 14.6535 27.3752L15.6366 28.3409L14.9937 28.4537Z" fill="#00C18C"/>
<path d="M17.5826 25.7661L16.2662 25.9341L16.3386 26.5075L17.306 26.3838L17.3681 26.8759L16.4011 26.9996L16.4915 27.7139L17.8592 27.5394L17.9251 28.0613L15.9827 28.3095L15.625 25.4857L17.5164 25.2441L17.5826 25.7661Z" fill="#00C18C"/>
<path d="M20.1082 25.5365L18.7863 25.6504L18.8356 26.2258L19.8067 26.1421L19.8488 26.6365L18.8777 26.7202L18.939 27.4374L20.3121 27.3192L20.3571 27.8432L18.4063 28.0112L18.1641 25.1761L20.0632 25.0122L20.1082 25.5365Z" fill="#00C18C"/>
<path d="M21.3904 27.2697L22.6304 27.2113L22.655 27.737L20.8357 27.8227L20.7031 24.9785L21.2822 24.9512L21.3904 27.2697Z" fill="#00C18C"/>
<path d="M24.1064 25.9086L23.7376 26.868L24.485 26.8642L24.1064 25.9086ZM24.6935 27.3422L23.5337 27.3479L23.3768 27.7198L22.7539 27.723L24.0062 24.8178L24.1998 24.8169L25.4772 27.7092L24.8544 27.7123L24.6935 27.3422Z" fill="#00C18C"/>
<path d="M28.4115 24.9844L28.2881 27.8801L28.0951 27.8721L26.531 26.0433L26.4582 27.7498L25.8789 27.7248L26.002 24.8291L26.191 24.8372L27.76 26.653L27.8322 24.9594L28.4115 24.9844Z" fill="#00C18C"/>
<path d="M31.1669 25.3465C31.3737 25.4908 31.5301 25.6792 31.6354 25.911L31.1712 26.1805C31.0003 25.8446 30.7451 25.6611 30.4058 25.63C30.1406 25.6056 29.9144 25.6732 29.7277 25.8322C29.5407 25.9912 29.4347 26.2084 29.4098 26.4833C29.3852 26.7554 29.4508 26.986 29.606 27.1747C29.7615 27.3636 29.9719 27.4703 30.2371 27.4945C30.5765 27.5255 30.8603 27.3909 31.0888 27.0913L31.4971 27.4407C31.3545 27.65 31.1678 27.8068 30.937 27.9115C30.7062 28.0159 30.455 28.0558 30.1841 28.0311C29.762 27.9926 29.419 27.8191 29.1552 27.5106C28.8912 27.202 28.7781 26.8399 28.8156 26.4249C28.8531 26.0094 29.0304 25.674 29.3468 25.4184C29.6632 25.163 30.0324 25.0543 30.4545 25.0931C30.7225 25.1176 30.9599 25.2021 31.1669 25.3465Z" fill="#00C18C"/>
<path d="M34.1337 26.1206L32.8188 25.9414L32.7414 26.5143L33.7073 26.6457L33.6412 27.1372L32.675 27.0058L32.5788 27.7196L33.9447 27.9056L33.8746 28.427L31.9336 28.1627L32.3145 25.3418L34.2042 25.5992L34.1337 26.1206Z" fill="#00C18C"/>
<path d="M35.1115 27.1056L35.5895 27.1901C35.7221 27.2137 35.832 27.1953 35.9197 27.1352C36.0073 27.0748 36.062 26.9836 36.0835 26.8617C36.1044 26.7429 36.0832 26.6397 36.0199 26.5528C35.9569 26.4654 35.8604 26.4105 35.7306 26.3874L35.2527 26.3026L35.1115 27.1056ZM35.9904 28.8032L35.4414 27.6853L35.0225 27.6108L34.8486 28.6007L34.2773 28.4995L34.7708 25.6958L35.8197 25.8819C36.1155 25.9345 36.3429 26.0602 36.5013 26.2592C36.6596 26.4582 36.7149 26.6934 36.6671 26.9652C36.6359 27.1438 36.5643 27.2939 36.4529 27.4159C36.3412 27.5375 36.2026 27.6232 36.0368 27.6727L36.6333 28.9173L35.9904 28.8032Z" fill="#00C18C"/>
<path d="M38.9891 26.613C39.1237 26.7427 39.217 26.8969 39.2691 27.076L38.8181 27.2912C38.7213 27.0464 38.5684 26.9009 38.3582 26.8552C38.2603 26.8339 38.1735 26.8391 38.0976 26.871C38.0217 26.9032 37.9745 26.9627 37.9556 27.0499C37.9395 27.1229 37.9516 27.1868 37.9911 27.2408C38.0306 27.2952 38.1033 27.3619 38.2096 27.441L38.4942 27.6489C38.7041 27.8036 38.8516 27.9558 38.9364 28.1053C39.0211 28.2549 39.0432 28.424 39.0025 28.6123C38.9475 28.8654 38.813 29.0477 38.5979 29.1599C38.3831 29.2721 38.1346 29.2971 37.8516 29.2355C37.6165 29.1841 37.4178 29.0825 37.2557 28.931C37.0936 28.7791 36.9796 28.5974 36.9141 28.386L37.3685 28.1761C37.5034 28.4881 37.7007 28.6724 37.9613 28.7294C38.0844 28.7564 38.187 28.7501 38.2689 28.7104C38.3508 28.671 38.402 28.6031 38.4226 28.5077C38.4347 28.4516 38.4295 28.3981 38.4069 28.3475C38.384 28.2968 38.3548 28.2557 38.319 28.2247C38.2835 28.1933 38.2253 28.1467 38.1449 28.0849L37.876 27.8847C37.6818 27.7395 37.5401 27.5905 37.4513 27.4387C37.3625 27.2868 37.3379 27.1195 37.3777 26.9369C37.4287 26.7007 37.5567 26.5291 37.7617 26.4224C37.9665 26.3154 38.2018 26.2909 38.4679 26.349C38.6807 26.3956 38.8545 26.4836 38.9891 26.613Z" fill="#00C18C"/>
<path fill-rule="evenodd" clip-rule="evenodd" d="M15.7861 22.1432L15.672 20.7152C22.5788 19.4937 28.8523 19.5612 34.5922 20.7152L34.4778 22.1466C35.0124 22.2293 35.546 22.3189 36.0783 22.4152C36.2608 22.4482 36.4432 22.4821 36.6255 22.5168C36.6559 22.5225 36.6863 22.5283 36.7167 22.5341C36.7409 22.5388 36.8242 22.5473 36.8702 22.5928C36.8702 22.5928 36.9391 22.6322 36.8442 22.7284L36.771 22.7435C36.0031 22.5959 35.2333 22.4627 34.462 22.3441L34.348 23.7706C27.9782 22.95 22.161 22.9659 15.9162 23.7706L15.8016 22.337C15.5473 22.3767 15.2932 22.418 15.0394 22.461C14.5225 22.5486 14.0069 22.6433 13.4935 22.7434C13.4935 22.7434 13.4279 22.7858 13.3789 22.6663L13.3791 22.6281C13.3937 22.5932 13.3939 22.5928 13.4208 22.5662L13.4561 22.5517C14.2305 22.4007 15.0072 22.2644 15.7861 22.1432ZM30.845 20.8733L30.6935 22.6046L30.5778 22.5943L29.6901 21.4566L29.6007 22.4767L29.2545 22.4462L29.4063 20.7152L29.5191 20.725L30.41 21.8552L30.4988 20.8429L30.845 20.8733ZM20.3348 20.9045C20.4577 20.9955 20.5259 21.1231 20.5405 21.2882C20.5545 21.4516 20.5093 21.5896 20.4044 21.7021C20.2991 21.8142 20.1567 21.8783 19.9769 21.8941L19.6868 21.9194L19.7389 22.5208L19.3922 22.551L19.2441 20.8482L19.8813 20.7924C20.0611 20.7766 20.2123 20.814 20.3348 20.9045ZM21.6868 22.1521L20.9918 22.1952L20.9105 22.4235L20.537 22.4465L21.1897 20.6629L21.3054 20.6555L22.1691 22.3453L21.7956 22.3686L21.6868 22.1521ZM28.5876 22.1807L27.8926 22.1396L27.7844 22.3564L27.4112 22.3343L28.272 20.6421L28.3878 20.649L29.0429 22.4309L28.6698 22.4085L28.5876 22.1807ZM23.4626 22.3005L22.704 21.4337L22.7329 22.3244L22.385 22.3358L22.3292 20.6273L22.6771 20.6158L22.7034 21.4104L23.3268 20.5942L23.7421 20.5807L23.1161 21.4072L23.8827 22.2867L23.4626 22.3005ZM27.5876 20.9504L27.0421 20.932L26.9957 22.3228L26.6481 22.311L26.6944 20.9205L26.1512 20.9024L26.1618 20.5869L27.5979 20.635L27.5876 20.9504ZM25.7208 20.6375C25.8158 20.697 25.8894 20.7758 25.9419 20.8747L25.7033 21.0567C25.6168 20.9251 25.5089 20.8586 25.38 20.8575C25.3198 20.8569 25.2694 20.8707 25.2288 20.8989C25.1884 20.9271 25.1678 20.9679 25.1672 21.0214C25.167 21.0663 25.1818 21.1022 25.2116 21.1293C25.2414 21.1563 25.2923 21.1865 25.3642 21.2198L25.5569 21.3067C25.699 21.3717 25.8044 21.443 25.8725 21.5201C25.9407 21.5974 25.9742 21.694 25.9734 21.8097C25.9719 21.9649 25.9152 22.0889 25.8029 22.1812C25.6904 22.2735 25.5472 22.319 25.3737 22.3178C25.2294 22.3164 25.1002 22.2813 24.9865 22.2123C24.8728 22.1433 24.7838 22.0506 24.7194 21.9345L24.9605 21.755C25.0779 21.9218 25.2162 22.0058 25.3763 22.0069C25.4519 22.0075 25.5111 21.9914 25.5544 21.9581C25.5976 21.9247 25.6197 21.8787 25.62 21.82C25.6202 21.7855 25.6105 21.7547 25.591 21.728C25.5715 21.7009 25.5492 21.6802 25.5246 21.6665C25.5 21.6523 25.4599 21.6322 25.4049 21.6058L25.2228 21.5215C25.0908 21.4603 24.9894 21.3903 24.919 21.3121C24.8482 21.2339 24.8133 21.1387 24.8141 21.0266C24.8153 20.8814 24.8694 20.7648 24.9765 20.6769C25.0839 20.5889 25.2194 20.5454 25.3826 20.5469C25.5131 20.5477 25.6257 20.5779 25.7208 20.6375ZM24.0835 20.5809L24.4316 20.5772L24.4498 22.286L24.1017 22.2898L24.0835 20.5809ZM21.2865 21.3132L21.0978 21.9007L21.5456 21.8731L21.2865 21.3132ZM28.2904 21.2995L28.0329 21.8601L28.4808 21.8865L28.2904 21.2995ZM19.6175 21.1249L19.6602 21.6152L19.9506 21.5896C20.031 21.5824 20.092 21.5542 20.1333 21.5047C20.1748 21.455 20.1923 21.3935 20.186 21.3195C20.1797 21.2471 20.1513 21.1907 20.1012 21.1499C20.0511 21.1093 19.9867 21.0926 19.9079 21.0996L19.6175 21.1249Z" fill="#00C18C"/>
<path d="M19.2737 14.1724L19.5564 14.7451L20.1881 14.8367L19.7311 15.2823L19.839 15.912L19.2737 15.6148L18.7085 15.912L18.8164 15.2823L18.3594 14.8367L18.9911 14.7451L19.2737 14.1724Z" fill="#00C18C"/>
<path d="M30.5042 14.1724L30.7869 14.7451L31.4189 14.8367L30.9615 15.2823L31.0695 15.912L30.5042 15.6148L29.9389 15.912L30.0469 15.2823L29.5898 14.8367L30.2216 14.7451L30.5042 14.1724Z" fill="#00C18C"/>
<path fill-rule="evenodd" clip-rule="evenodd" d="M24.957 13.9266L25.5932 13.2876C26.2023 13.0252 26.7712 12.7427 27.3113 12.4457C28.1974 12.3808 29.1368 12.2543 30.187 11.9995C30.2049 12.4364 29.7819 12.694 28.7942 12.7221C29.1827 12.7492 29.5711 12.716 29.9595 12.5829C29.9351 13.1554 29.2525 13.2948 28.1782 13.1766C28.5149 13.2864 28.9682 13.3016 29.5093 13.2456C29.3999 13.7822 28.746 13.8162 27.8164 13.608C28.2177 13.7919 28.6141 13.8553 29.0085 13.8526C28.7365 14.3522 28.149 14.3171 27.3797 13.974C27.5213 14.1227 27.8316 14.2074 28.1114 14.2594C27.8353 14.6275 27.3184 14.5353 26.6831 14.1781C26.7472 14.2842 26.9068 14.3697 27.1369 14.4343C26.8796 14.7782 26.4598 14.6741 25.9332 14.3203C26.0377 14.4601 26.2077 14.5756 26.4641 14.6671C26.1749 14.9168 25.8422 14.9059 25.4631 14.6169C25.3737 14.7696 25.3338 14.8869 25.3411 14.9706C25.481 15.3036 25.8033 15.6634 26.2264 16.0379C25.902 16.2582 25.6194 16.1394 25.3614 15.8204L25.5637 16.3313C25.3429 16.365 25.138 16.256 24.957 15.9317C24.776 16.256 24.5711 16.365 24.3504 16.3313L24.5527 15.8204C24.2947 16.1394 24.0121 16.2582 23.6877 16.0379C24.1107 15.6634 24.4331 15.3036 24.573 14.9706C24.5803 14.8869 24.5404 14.7696 24.451 14.6169C24.0719 14.9059 23.7392 14.9168 23.45 14.6671C23.7064 14.5756 23.8764 14.4601 23.9809 14.3203C23.4543 14.6741 23.0344 14.7782 22.7772 14.4343C23.0073 14.3697 23.1669 14.2842 23.231 14.1781C22.5957 14.5353 22.0788 14.6275 21.8027 14.2594C22.0825 14.2074 22.3928 14.1227 22.5344 13.974C21.7651 14.3171 21.1775 14.3522 20.9056 13.8526C21.2999 13.8553 21.6964 13.7919 22.0977 13.608C21.1681 13.8162 20.5142 13.7822 20.4048 13.2456C20.9459 13.3016 21.3992 13.2864 21.7359 13.1766C20.6616 13.2948 19.979 13.1554 19.9546 12.5829C20.343 12.716 20.7314 12.7492 21.1199 12.7221C20.1322 12.694 19.7092 12.4364 19.7271 11.9995C20.7773 12.2543 21.7167 12.3808 22.6028 12.4457C23.1428 12.7427 23.7118 13.0252 24.3209 13.2876L24.957 13.9266Z" fill="#00C18C"/>
<path fill-rule="evenodd" clip-rule="evenodd" d="M24.9974 12.146L25.1158 12.4355C25.2815 12.5175 25.3499 12.6726 25.3334 12.8486C25.3657 12.998 25.4121 13.0957 25.483 13.2009L24.9974 13.6997L24.5117 13.2009C24.5827 13.0957 24.6291 12.998 24.6614 12.8486C24.6448 12.6726 24.7132 12.5175 24.879 12.4355L24.9974 12.146Z" fill="#00C18C"/>
</svg>
