<svg width="24" height="24" viewBox="0 0 24 24" fill="none" xmlns="http://www.w3.org/2000/svg">
<path fill-rule="evenodd" clip-rule="evenodd" d="M11.6195 0.470703C8.48822 0.470703 8.09525 0.484395 6.86542 0.540361C5.63799 0.596568 4.80017 0.790891 4.06708 1.07601C3.30876 1.3705 2.6655 1.76443 2.02465 2.40552C1.38331 3.04638 0.989381 3.68964 0.693934 4.44771C0.408094 5.18105 0.213532 6.01911 0.158285 7.24605C0.103279 8.47588 0.0888672 8.86909 0.0888672 12.0004C0.0888672 15.1316 0.102799 15.5234 0.158525 16.7532C0.214973 17.9806 0.409295 18.8185 0.694174 19.5516C0.9889 20.3099 1.38283 20.9531 2.02393 21.594C2.66454 22.2353 3.3078 22.6302 4.06564 22.9247C4.79921 23.2098 5.63727 23.4041 6.86446 23.4603C8.09429 23.5163 8.48702 23.53 11.618 23.53C14.7495 23.53 15.1413 23.5163 16.3711 23.4603C17.5986 23.4041 18.4373 23.2098 19.1709 22.9247C19.929 22.6302 20.5713 22.2353 21.2119 21.594C21.8532 20.9531 22.2472 20.3099 22.5426 19.5518C22.8261 18.8185 23.0206 17.9804 23.0783 16.7535C23.1335 15.5236 23.1479 15.1316 23.1479 12.0004C23.1479 8.86909 23.1335 8.47612 23.0783 7.24629C23.0206 6.01887 22.8261 5.18105 22.5426 4.44795C22.2472 3.68964 21.8532 3.04638 21.2119 2.40552C20.5706 1.76419 19.9292 1.37026 19.1702 1.07601C18.4352 0.790891 17.5969 0.596568 16.3695 0.540361C15.1396 0.484395 14.7481 0.470703 11.6159 0.470703H11.6195ZM10.5851 2.54841C10.8921 2.54793 11.2346 2.54841 11.6194 2.54841C14.6978 2.54841 15.0627 2.55946 16.2784 2.61471C17.4025 2.66611 18.0126 2.85395 18.419 3.01176C18.9571 3.22073 19.3407 3.47054 19.744 3.87408C20.1475 4.27762 20.3973 4.66194 20.6068 5.19999C20.7646 5.60593 20.9527 6.21604 21.0038 7.34018C21.0591 8.5556 21.0711 8.9207 21.0711 11.9977C21.0711 15.0747 21.0591 15.4398 21.0038 16.6552C20.9524 17.7793 20.7646 18.3894 20.6068 18.7954C20.3978 19.3334 20.1475 19.7165 19.744 20.1198C19.3404 20.5234 18.9573 20.7732 18.419 20.9822C18.0131 21.1407 17.4025 21.328 16.2784 21.3795C15.0629 21.4347 14.6978 21.4467 11.6194 21.4467C8.54077 21.4467 8.17591 21.4347 6.96049 21.3795C5.83635 21.3276 5.22624 21.1397 4.81958 20.9819C4.28153 20.7729 3.8972 20.5231 3.49367 20.1196C3.09013 19.7161 2.84032 19.3327 2.63087 18.7944C2.47305 18.3885 2.28498 17.7784 2.23381 16.6542C2.17857 15.4388 2.16752 15.0737 2.16752 11.9948C2.16752 8.9159 2.17857 8.55272 2.23381 7.3373C2.28522 6.21316 2.47305 5.60305 2.63087 5.19663C2.83984 4.65858 3.09013 4.27425 3.49367 3.87072C3.8972 3.46718 4.28153 3.21737 4.81958 3.00791C5.226 2.84938 5.83635 2.66202 6.96049 2.61038C8.0241 2.56234 8.43628 2.54793 10.5851 2.54553V2.54841ZM17.7739 4.46282C17.01 4.46282 16.3903 5.08181 16.3903 5.84589C16.3903 6.60973 17.01 7.22945 17.7739 7.22945C18.5377 7.22945 19.1574 6.60973 19.1574 5.84589C19.1574 5.08206 18.5377 4.46282 17.7739 4.46282ZM11.6195 6.07937C8.34964 6.07937 5.69854 8.73046 5.69854 12.0003C5.69854 15.2702 8.34964 17.9201 11.6195 17.9201C14.8894 17.9201 17.5395 15.2702 17.5395 12.0003C17.5395 8.73046 14.8894 6.07937 11.6195 6.07937ZM11.6195 8.1571C13.7419 8.1571 15.4627 9.87766 15.4627 12.0003C15.4627 14.1227 13.7419 15.8435 11.6195 15.8435C9.4968 15.8435 7.77624 14.1227 7.77624 12.0003C7.77624 9.87766 9.4968 8.1571 11.6195 8.1571Z" fill="white"/>
</svg>
