<svg width="22" height="18" viewBox="0 0 22 18" fill="none" xmlns="http://www.w3.org/2000/svg">
<path fill-rule="evenodd" clip-rule="evenodd" d="M10.4427 4.95285L10.4881 5.70087L9.73203 5.60928C6.97996 5.25816 4.57569 4.06743 2.53432 2.0676L1.53631 1.07532L1.27925 1.80808C0.734888 3.44153 1.08268 5.16657 2.21677 6.32678C2.82162 6.96794 2.68553 7.05954 1.64216 6.67789C1.27925 6.55576 0.961706 6.46417 0.931464 6.50996C0.825615 6.61683 1.18853 8.00602 1.47583 8.55559C1.86898 9.31888 2.67041 10.0669 3.54744 10.5096L4.28838 10.8607L3.41135 10.876C2.56456 10.876 2.53432 10.8913 2.62504 11.2119C2.92747 12.2041 4.12205 13.2575 5.45272 13.7155L6.39024 14.036L5.57369 14.5245C4.36399 15.2268 2.94259 15.6237 1.52119 15.6542C0.840736 15.6695 0.28125 15.7305 0.28125 15.7763C0.28125 15.929 2.12604 16.7839 3.19965 17.1197C6.42048 18.112 10.2462 17.6846 13.1192 15.9901C15.1606 14.7841 17.2019 12.3873 18.1546 10.0669C18.6687 8.83038 19.1828 6.57103 19.1828 5.48715C19.1828 4.78492 19.2282 4.69333 20.075 3.85371C20.574 3.3652 21.0427 2.83089 21.1335 2.67824C21.2847 2.38818 21.2696 2.38818 20.4984 2.6477C19.2131 3.10568 19.0316 3.04462 19.6667 2.35765C20.1355 1.86914 20.6949 0.983725 20.6949 0.724206C20.6949 0.678408 20.4681 0.754737 20.2111 0.89213C19.9389 1.04479 19.334 1.27378 18.8804 1.41117L18.0638 1.67069L17.3229 1.16692C16.9146 0.89213 16.34 0.586813 16.0376 0.495218C15.2664 0.281496 14.087 0.312027 13.3914 0.556281C11.5012 1.24324 10.3066 3.01408 10.4427 4.95285Z" fill="white"/>
</svg>
