<svg width="160" height="90" viewBox="0 0 160 90" fill="none" xmlns="http://www.w3.org/2000/svg">
<rect width="160" height="90" rx="10" fill="white"/>
<rect x="114" y="10" width="36.1936" height="22" rx="11" fill="#67CE67"/>
<g filter="url(#filter0_d_1302_523)">
<rect x="129.613" y="11.4194" width="19.1613" height="19.1613" rx="9.58064" fill="white"/>
</g>
<path fill-rule="evenodd" clip-rule="evenodd" d="M26.0953 51.5911H33.9933C38.2338 51.5911 39.8301 53.7378 39.5834 56.8917C39.1757 62.1006 36.0279 64.9793 31.8526 64.9793H29.7344C29.1615 64.9793 28.7762 65.3584 28.6213 66.386L27.7263 72.3594C27.6672 72.7467 27.4633 72.971 27.1575 73.0036H22.1953C21.7284 73.0036 21.5633 72.6468 21.6836 71.8742L24.709 52.7246C24.8293 51.956 25.2493 51.5911 26.0953 51.5911Z" fill="#009EE3"/>
<path fill-rule="evenodd" clip-rule="evenodd" d="M60.3741 51.2363C63.0387 51.2363 65.4974 52.6818 65.161 56.2862C64.7533 60.5675 62.4597 62.9365 58.841 62.9467H55.681C55.2264 62.9467 55.0062 63.3157 54.888 64.0781L54.2764 67.966C54.1846 68.5531 53.8829 68.8446 53.4364 68.8446H50.4946C50.0257 68.8446 49.8626 68.5429 49.9665 67.8742L52.3946 52.2883C52.5149 51.5217 52.8024 51.2363 53.3263 51.2363H60.3741ZM55.5811 59.5787H57.9766C59.4751 59.5216 60.472 58.4839 60.5719 56.6124C60.6331 55.4564 59.8522 54.6287 58.6107 54.6348L56.3538 54.645L55.5811 59.5767V59.5787ZM73.1568 67.6479C73.4259 67.4053 73.6991 67.2769 73.6604 67.5786L73.5646 68.3003C73.5156 68.6775 73.6645 68.8793 74.0172 68.8793H76.6287C77.0691 68.8793 77.2832 68.6999 77.3933 68.021L79.0038 57.9111C79.0833 57.4034 78.961 57.1547 78.5757 57.1547H75.7011C75.4422 57.1547 75.3179 57.3015 75.2485 57.697L75.1425 58.3188C75.0875 58.6429 74.9387 58.7 74.8 58.3718C74.3128 57.2179 73.0692 56.7001 71.3342 56.7408C67.3017 56.8224 64.5841 59.8825 64.2946 63.807C64.0683 66.8406 66.2436 69.2238 69.11 69.2238C71.1874 69.2238 72.1191 68.6122 73.165 67.652L73.1568 67.6479ZM70.9693 66.0924C69.2344 66.0924 68.0254 64.7081 68.2782 63.0119C68.531 61.3157 70.1518 59.9314 71.8867 59.9314C73.6216 59.9314 74.8306 61.3137 74.5798 63.0119C74.3291 64.7101 72.7063 66.0924 70.9693 66.0924ZM84.121 57.1221H81.4809C80.9325 57.1221 80.7102 57.5298 80.8856 58.0313L84.176 67.6683L80.9365 72.2513C80.6674 72.6325 80.8754 72.9832 81.2566 72.9832H84.2352C84.409 73.0032 84.585 72.9729 84.7422 72.8959C84.8993 72.819 85.0311 72.6986 85.122 72.549L95.2401 58.0313C95.552 57.5849 95.4052 57.118 94.8935 57.116H92.074C91.5908 57.116 91.3971 57.3056 91.1199 57.7092L86.8977 63.8253L85.0139 57.697C84.9039 57.3259 84.6286 57.1221 84.121 57.1221Z" fill="#113984"/>
<path fill-rule="evenodd" clip-rule="evenodd" d="M105.768 51.2363C108.435 51.2363 110.893 52.6818 110.555 56.2862C110.157 60.5675 107.854 62.9365 104.235 62.9467H101.075C100.62 62.9467 100.4 63.3157 100.282 64.0781L99.6702 67.966C99.5764 68.5531 99.2767 68.8446 98.8303 68.8446H95.8904C95.4215 68.8446 95.2584 68.5429 95.3624 67.8742L97.7946 52.2883C97.9128 51.5217 98.2023 51.2363 98.7263 51.2363H105.768ZM100.977 59.5787H103.372C104.871 59.5216 105.868 58.4839 105.968 56.6124C106.029 55.4564 105.248 54.6287 104.004 54.6348L101.75 54.645L100.977 59.5767V59.5787ZM118.553 67.6479C118.822 67.4053 119.095 67.2769 119.056 67.5786L118.96 68.3003C118.909 68.6775 119.06 68.8793 119.411 68.8793H122.025C122.465 68.8793 122.679 68.6999 122.787 68.021L124.398 57.9111C124.479 57.4034 124.357 57.1547 123.97 57.1547H121.099C120.84 57.1547 120.714 57.3015 120.646 57.697L120.54 58.3188C120.485 58.6429 120.337 58.7 120.198 58.3718C119.711 57.2179 118.467 56.7001 116.722 56.7408C112.691 56.8224 109.974 59.8825 109.682 63.807C109.458 66.8406 111.633 69.2238 114.498 69.2238C116.577 69.2238 117.507 68.6122 118.555 67.652L118.553 67.6479ZM116.365 66.0924C114.63 66.0924 113.421 64.7081 113.674 63.0119C113.927 61.3157 115.548 59.9314 117.283 59.9314C119.018 59.9314 120.226 61.3137 119.974 63.0119C119.721 64.7101 118.1 66.0924 116.365 66.0924ZM128.42 68.8936H125.405C125.351 68.8965 125.298 68.8873 125.248 68.8667C125.198 68.846 125.154 68.8144 125.118 68.7742C125.083 68.734 125.057 68.6863 125.042 68.6346C125.027 68.5829 125.024 68.5286 125.034 68.4756L127.684 51.6848C127.71 51.5704 127.773 51.468 127.864 51.394C127.955 51.32 128.068 51.2788 128.186 51.2771H131.203C131.255 51.2744 131.308 51.2834 131.357 51.3035C131.405 51.3236 131.449 51.3543 131.484 51.3933C131.52 51.4324 131.546 51.4788 131.561 51.5292C131.576 51.5796 131.58 51.6328 131.572 51.6848L128.922 68.4756C128.899 68.5929 128.837 68.6988 128.746 68.7756C128.654 68.8525 128.539 68.8956 128.42 68.8976V68.8936Z" fill="#009EE3"/>
<path fill-rule="evenodd" clip-rule="evenodd" d="M21.1454 45H29.0535C31.2798 45 33.9199 45.0734 35.6874 46.631C36.8679 47.6727 37.4876 49.3302 37.3449 51.1161C36.8597 57.1527 33.2471 60.5349 28.4052 60.5349H24.5051C23.8426 60.5349 23.4022 60.9733 23.2146 62.1659L22.126 69.0873C22.0567 69.5358 21.8609 69.8009 21.5144 69.8335H16.6357C16.0955 69.8335 15.9038 69.4257 16.0445 68.5246L19.5511 46.317C19.6918 45.424 20.1831 45 21.1454 45Z" fill="#113984"/>
<path fill-rule="evenodd" clip-rule="evenodd" d="M23.3288 61.4625L24.709 52.7246C24.8293 51.956 25.2493 51.5911 26.0851 51.5911H33.9831C35.2899 51.5911 36.348 51.7949 37.1757 52.1721C36.3806 57.5441 32.9066 60.5308 28.3542 60.5308H24.4644C23.9424 60.5308 23.5592 60.7917 23.3288 61.4625Z" fill="#172C70"/>
<defs>
<filter id="filter0_d_1302_523" x="122.613" y="7.41943" width="33.1613" height="33.1614" filterUnits="userSpaceOnUse" color-interpolation-filters="sRGB">
<feFlood flood-opacity="0" result="BackgroundImageFix"/>
<feColorMatrix in="SourceAlpha" type="matrix" values="0 0 0 0 0 0 0 0 0 0 0 0 0 0 0 0 0 0 127 0" result="hardAlpha"/>
<feOffset dy="3"/>
<feGaussianBlur stdDeviation="3.5"/>
<feColorMatrix type="matrix" values="0 0 0 0 0 0 0 0 0 0 0 0 0 0 0 0 0 0 0.12 0"/>
<feBlend mode="normal" in2="BackgroundImageFix" result="effect1_dropShadow_1302_523"/>
<feBlend mode="normal" in="SourceGraphic" in2="effect1_dropShadow_1302_523" result="shape"/>
</filter>
</defs>
</svg>
