<svg width="41" height="40" viewBox="0 0 41 40" fill="none" xmlns="http://www.w3.org/2000/svg">
<path d="M41 13.5001C41 20.9559 34.9558 27.0001 27.5 27.0001C20.0442 27.0001 14 20.9559 14 13.5001C14 6.04422 20.0442 6.10352e-05 27.5 6.10352e-05C34.9558 6.10352e-05 41 6.04422 41 13.5001Z" fill="#FF8FAB"/>
<path d="M29.9998 11.9334C29.8998 11.9167 29.7831 11.9167 29.6831 11.9334C27.3831 11.8501 25.5498 9.96674 25.5498 7.63341C25.5498 5.25007 27.4665 3.3334 29.8498 3.3334C32.2331 3.3334 34.1498 5.26674 34.1498 7.63341C34.1331 9.96674 32.2998 11.8501 29.9998 11.9334Z" stroke="white" stroke-width="1.5" stroke-linecap="round" stroke-linejoin="round"/>
<path d="M28.2829 24.0668C30.5662 24.4501 33.0829 24.0501 34.8496 22.8668C37.1996 21.3001 37.1996 18.7334 34.8496 17.1668C33.0663 15.9834 30.5162 15.5834 28.2329 15.9834" stroke="white" stroke-width="1.5" stroke-linecap="round" stroke-linejoin="round"/>
<path d="M9.94981 11.9334C10.0498 11.9167 10.1665 11.9167 10.2665 11.9334C12.5665 11.8501 14.3998 9.96674 14.3998 7.63341C14.3998 5.25007 12.4831 3.3334 10.0998 3.3334C7.71647 3.3334 5.7998 5.26674 5.7998 7.63341C5.81647 9.96674 7.64981 11.8501 9.94981 11.9334Z" stroke="white" stroke-width="1.5" stroke-linecap="round" stroke-linejoin="round"/>
<path d="M11.6666 24.0668C9.38323 24.4501 6.86657 24.0501 5.0999 22.8668C2.7499 21.3001 2.7499 18.7334 5.0999 17.1668C6.88324 15.9834 9.43323 15.5834 11.7166 15.9834" stroke="white" stroke-width="1.5" stroke-linecap="round" stroke-linejoin="round"/>
<path d="M20.0003 24.3834C19.9003 24.3667 19.7836 24.3667 19.6836 24.3834C17.3836 24.3001 15.5503 22.4167 15.5503 20.0834C15.5503 17.7001 17.467 15.7834 19.8503 15.7834C22.2336 15.7834 24.1503 17.7167 24.1503 20.0834C24.1336 22.4167 22.3003 24.3167 20.0003 24.3834Z" stroke="white" stroke-width="1.5" stroke-linecap="round" stroke-linejoin="round"/>
<path d="M15.1502 29.6334C12.8002 31.2 12.8002 33.7667 15.1502 35.3334C17.8169 37.1167 22.1835 37.1167 24.8502 35.3334C27.2002 33.7667 27.2002 31.2 24.8502 29.6334C22.2002 27.8667 17.8169 27.8667 15.1502 29.6334Z" stroke="white" stroke-width="1.5" stroke-linecap="round" stroke-linejoin="round"/>
</svg>
