<?xml version="1.0" encoding="utf-8"?>
<!-- Generator: Adobe Illustrator 26.3.1, SVG Export Plug-In . SVG Version: 6.00 Build 0)  -->
<svg version="1.1" id="Layer_1" xmlns="http://www.w3.org/2000/svg" xmlns:xlink="http://www.w3.org/1999/xlink" x="0px" y="0px"
	 viewBox="0 0 701 701" style="enable-background:new 0 0 701 701;" xml:space="preserve">
<style type="text/css">
	.st0{fill:none;stroke:#FFDCDC;stroke-miterlimit:10;}
	.st1{fill:#FFDCDC;stroke:#FFDCDC;stroke-miterlimit:10;}
	.st2{fill:#283CB4;}
	.st3{opacity:0.5;}
</style>
<path class="st0" d="M550.3,285.7L550.3,285.7c-28.9-88.8-111.2-145.2-199.7-145.2l-0.1,0.1c-93.3,0-172.4,60.8-199.7,145l0,0.1
	c-28.8,88.7,4.6,182.7,76.2,234.8l0.1,0c75.5,54.8,175.2,52.1,246.8,0.1l0-0.1C549.4,465.6,577.6,369.9,550.3,285.7z"/>
<path class="st0" d="M150.8,285.6c27.4-84.2,106.4-145,199.7-145l0.1-0.1l57.9-63.9l-57.9-76l0,0C195,0.6,63.2,102,17.6,242.4l0.1,0
	l90.2-31.6L150.8,285.6z"/>
<path class="st0" d="M144.8,633.6l-2.2-95.5l84.4-17.7c-71.6-52-105-146-76.2-234.8l0-0.1l-42.9-74.8l-90.2,31.6l0,0
	C-30.3,390.3,25.4,547,144.8,633.6L144.8,633.6z"/>
<path class="st0" d="M556.3,633.7L556.3,633.7l-91.6-27.5l9.2-85.7c-71.6,52-171.3,54.8-246.8-0.1l-0.1,0l-84.4,17.7l2.2,95.5l0,0
	C270.7,725.1,436.9,720.5,556.3,633.7z"/>
<path class="st0" d="M683.3,242.4L683.3,242.4C635.3,94.5,498.1,0.5,350.5,0.5l0,0.1l57.9,76l-57.9,63.9
	c88.5,0,170.8,56.4,199.6,145.1l0.1,0L629,321L683.3,242.4z"/>
<path class="st1" d="M683.4,242.4L683.4,242.4L629,321l-78.7-35.3c27.3,84.2-0.9,179.9-76.3,234.7l0,0.1l-9.2,85.7l91.5,27.4l0,0
	C682,542.2,729.1,382.7,683.4,242.4z"/>
<g>
	<path class="st2" d="M633,420.1l-2.3,8.3c-1.3,4.8-4.7,6.8-8.9,5.7c-2.9-0.8-4.6-2.7-5-5.3l-9.4,2.3l1.3-4.9l8.6-2l0.9-3.3l-7.5-2
		l1.2-4.5L633,420.1z M620.9,424.9c-0.7,2.6,0,4.1,2.1,4.6c2.1,0.6,3.6-0.4,4.3-2.9l0.8-3l-6.4-1.7L620.9,424.9z"/>
	<path class="st2" d="M614.8,434.2c4.8,1.6,7,5.7,5.4,10.3c-1.4,4.1-5.1,6.4-10.4,4.6l-1.2-0.4l3.6-10.5l0,0
		c-2.3-0.8-4.2,0.1-4.9,2.2c-0.5,1.4-0.3,2.8,0.8,3.6l-1.6,3.9c-2.7-1.6-3.6-4.8-2.3-8.6C605.9,434.4,609.9,432.5,614.8,434.2z
		 M612.8,445.5c1.8,0.6,3.6-0.2,4.3-2.1c0.7-1.9-0.3-3.7-2-4.4L612.8,445.5z"/>
	<path class="st2" d="M598,456.4l1.9-4.7l17.3,0.9l-1.8,4.4l-12.1-1.3l-0.1,0.2l9.5,7.6l-1.8,4.4L598,456.4z"/>
	<path class="st2" d="M610,469.8l-1.9,4.1l-14.8-6.9l1.9-4.1L610,469.8z M614,471.5c1.1,0.5,1.6,2,1,3.2c-0.6,1.2-2,1.8-3.1,1.3
		c-1.1-0.5-1.6-2-1-3.2C611.5,471.5,612.9,470.9,614,471.5z"/>
	<path class="st2" d="M599.6,472.7c4.5,2.3,6.1,6.7,3.8,10.9c-2,3.8-6,5.5-10.9,3l-1.1-0.6l5.1-9.9l0,0c-2.2-1.1-4.2-0.5-5.2,1.5
		c-0.7,1.3-0.7,2.7,0.2,3.7l-2.2,3.6c-2.4-2-2.9-5.3-1-8.9C590.7,471.5,595,470.3,599.6,472.7z M595.9,483.5
		c1.7,0.9,3.6,0.3,4.5-1.4c0.9-1.8,0.3-3.7-1.3-4.7L595.9,483.5z"/>
	<path class="st2" d="M599.1,491.7l-2.4,3.9L586,492l-0.1,0.1l7.9,8.1l-2.4,3.8l-10.7-3.5l-0.1,0.1l8,7.9l-2.4,3.9L574.7,500
		l2.5-4.1l10.2,3l0.1-0.2l-7.3-7.8l2.5-4.1L599.1,491.7z"/>
</g>
<g class="st3">
	<path class="st1" d="M516.3,114.1c-2.4-1.7-4.8-1.5-6,0.2c-1.3,1.9,0.3,4.1,1.4,5.4l1.5,1.8c1.5,1.8,4,5.1,1.6,8.4
		c-2,2.9-5.9,3.6-10.1,0.7c-3.9-2.7-4.9-6.3-3-9.4l2.2,1.6c-1.2,2.2,0,4.4,2.1,5.9c2.5,1.7,5.3,1.7,6.6-0.2c1.2-1.8,0-3.6-1.5-5.5
		l-1.8-2.2c-2.2-2.7-3-5.4-1.3-7.8c2.1-3,6.2-3.1,9.6-0.8c3.5,2.4,4.6,6.2,2.8,8.9l-2.1-1.5C519.4,117.7,518.5,115.6,516.3,114.1z"
		/>
	<path class="st1" d="M518.1,129.7c3.1-3.9,7.6-4.8,11-2.1c2.7,2.1,3.5,5.4,1.9,8l-2-1.6c0.6-1.4,0.4-3.3-1.3-4.7
		c-2.3-1.8-5.3-1.1-7.6,1.8c-2.4,3-2.4,6.1,0,7.9c1.5,1.2,3.4,1.3,4.8,0.2l2,1.6c-2.1,2-5.4,2.3-8.2,0
		C515.1,138,515.1,133.5,518.1,129.7z"/>
	<path class="st1" d="M530.6,139.7c3.4-3.8,7.9-4.3,11.2-1.4s3.3,7.5-0.1,11.3c-3.4,3.8-7.9,4.3-11.2,1.3S527.2,143.5,530.6,139.7z
		 M539.8,147.9c2.2-2.4,3-5.7,0.5-7.9c-2.5-2.2-5.6-1.1-7.8,1.4c-2.2,2.4-3,5.6-0.5,7.9C534.5,151.5,537.6,150.3,539.8,147.9z"/>
	<path class="st1" d="M549.9,146l1.7,1.7l-1.9,1.8l0.2,0.2c1-0.2,3.1-0.9,5.3,1.4c2.9,2.9,2.6,7.3-1.1,10.9c-3.7,3.6-8.1,3.9-10.9,1
		c-2.2-2.2-1.6-4.4-1.3-5.4l-0.1-0.2l-6.2,6.1l-1.8-1.8L549.9,146z M544.6,161.3c2.2,2.2,5.3,1.5,7.8-1c2.5-2.4,3.3-5.4,1-7.7
		c-2.2-2.2-5.1-1.6-7.7,1C543.2,156.1,542.5,159.1,544.6,161.3z"/>
	<path class="st1" d="M555.8,164c3.8-3.3,8.4-3.4,11.3,0c2.2,2.6,3,6.7-1.6,10.7l-0.8,0.7l-7.8-9c-2.6,2.4-2.7,5.2-0.7,7.4
		c1.3,1.5,2.9,2,4.6,1.4l1.1,2.3c-2.4,1-5.2,0.3-7.4-2.2C551.4,171.7,552,167.3,555.8,164z M564.7,172c2.1-1.8,2.5-4.5,0.7-6.5
		c-1.9-2.2-4.8-2-6.8-0.5L564.7,172z"/>
</g>
<g class="st3">
	<path class="st1" d="M397.8,637.4l-7.6,1.1c-4.5,0.7-7-1.6-7.5-4.8c-0.4-2.8,1.1-4.2,2.8-5l0-0.2c-2,0.2-4.6-1.4-5.1-4.8
		c-0.5-3.2,1.3-6,6.4-6.8l7.8-1.1L397.8,637.4z M387.2,619.2c-3.4,0.5-4.5,2.2-4.2,4.1c0.3,2.2,2.4,3.8,5.2,3.4l5.3-0.8l-1.1-7.5
		L387.2,619.2z M388.9,629c-2.4,0.3-4,2.1-3.7,4.4c0.3,1.9,1.8,3.2,4.6,2.8l4.9-0.7l-1-7.2L388.9,629z"/>
	<path class="st1" d="M378.1,626.2c0.4,5-2.3,8.7-6.7,9.1c-3.4,0.3-7.2-1.5-7.6-7.6l-0.1-1.1l11.8-0.9c-0.4-3.5-2.6-5.2-5.5-5
		c-2,0.2-3.4,1.1-3.9,2.9l-2.5-0.5c0.6-2.5,2.9-4.4,6.2-4.6C374.5,618,377.7,621.2,378.1,626.2z M366.4,628.6
		c0.2,2.8,2.1,4.7,4.8,4.4c2.9-0.2,4.5-2.6,4.5-5.2L366.4,628.6z"/>
	<path class="st1" d="M357.8,619.4l2.5,0l0.3,16.4l-2.4,0l0-2.6l-0.2,0c-0.7,1.7-2.3,2.8-4.7,2.9c-3.3,0.1-5.6-1.9-5.6-6.1
		l-0.2-10.4l2.5,0l0.2,10.2c0,2.6,1.5,4.1,3.8,4c2.4,0,4.2-1.7,4.1-4.5L357.8,619.4z"/>
	<path class="st1" d="M344.3,627.7c-0.2,5-3.3,8.3-7.7,8.2c-3.4-0.1-6-2.3-6.3-5.4l2.5,0.1c0.3,1.5,1.6,2.9,3.8,3
		c2.9,0.1,5-2.2,5.2-5.9c0.2-3.8-1.6-6.3-4.6-6.5c-2-0.1-3.5,0.9-4,2.7l-2.5-0.1c0.5-2.9,3-5,6.6-4.8
		C341.9,619.1,344.5,622.8,344.3,627.7z"/>
	<path class="st1" d="M325.8,618.5l2.5,0.3l-2.2,21.7l-2.5-0.3l0.8-8l-0.2,0c-0.9,1.6-2.5,2.5-5.1,2.3c-3.3-0.3-5.3-2.5-4.9-6.7
		l1.1-10.3l2.5,0.3l-1.1,10.2c-0.3,2.6,1,4.2,3.3,4.5c2.5,0.3,4.4-1.2,4.7-4L325.8,618.5z"/>
	<path class="st1" d="M308.9,633.2l-2.4-0.4l0.5-2.5l-0.2,0c-1,1.6-2.7,2.3-4.8,1.9c-2.1-0.4-3.3-1.6-3.8-3.5l-0.2,0
		c-1.1,1.5-3,2.3-5.3,1.8c-2.9-0.5-4.6-2.6-3.9-6.4l2-10.8l2.5,0.5l-2,10.8c-0.4,2.4,0.9,3.6,2.7,3.9c2.3,0.4,3.8-0.9,4.2-3L300,615
		l2.5,0.5l-2,11c-0.3,1.8,0.8,3.3,2.6,3.6c1.9,0.4,4-1,4.4-3.4l1.8-10.1l2.5,0.5L308.9,633.2z"/>
	<path class="st1" d="M287,617.1c-1,3.6-4.3,3.4-7.4,3c-3-0.4-4.1-0.8-4.5,0.4l0,0.1c-0.5,2,0.3,3.5,2.5,4.1
		c2.3,0.6,3.9-0.3,4.7-1.3l2.1,1.4c-2,2.6-4.9,2.7-7.3,2c-2-0.5-5.7-2.1-4.4-7.1l2.7-10.4l2.4,0.6l-0.6,2.1l0.1,0
		c0.8-0.9,2.6-2,5.4-1.3C285.9,611.6,287.9,614,287,617.1z M276.5,615.6l-0.6,2.2c0.5-0.4,3.4,0,4.4,0.2c2,0.2,3.8,0.1,4.3-1.7
		c0.4-1.7-0.7-2.9-2.7-3.4C279.1,612.1,277,613.6,276.5,615.6z"/>
	<path class="st1" d="M267.3,623.8l-2.3-0.7l0.7-2.4l-0.2-0.1c-1.1,1.4-3,1.9-4.9,1.3c-0.4-0.1-1-0.3-1.2-0.4l0.8-2.4
		c0.1,0.1,0.8,0.4,1.4,0.6c2.3,0.7,4.4-0.3,5.1-2.4l3.1-9.9l2.4,0.8L267.3,623.8z"/>
	<path class="st1" d="M254.9,625.6l-2.4-0.9l4.4-12l-0.3-0.1l-9.2,4.4l-2.9-1.1l8.9-4.2l-3.7-11.4l3,1.1l3.1,9.4l2.2-0.9l2.1-5.7
		l2.4,0.9L254.9,625.6z"/>
</g>
<g class="st3">
	<path class="st1" d="M74.7,442.8l-2.2-7c-1.5-4.9,0.5-7.9,4.2-9.1c2.8-0.9,5.3-0.3,7.1,2.1l7.1-7.4l0.9,2.9l-6.8,6.9
		c0.1,0.2,0.1,0.3,0.2,0.5l1.4,4.6l8.1-2.5l0.8,2.5L74.7,442.8z M82.9,432.6c-1-3.3-3-4.2-5.5-3.4c-2.5,0.8-3.7,2.6-2.7,6l1.4,4.4
		l8.2-2.6L82.9,432.6z"/>
	<path class="st1" d="M82.8,422.3c-4.9,1.2-9-0.8-10-5.1c-0.8-3.3,0.4-7.3,6.3-8.8l1-0.3l2.8,11.5c3.4-0.9,4.7-3.4,4-6.2
		c-0.5-1.9-1.6-3.2-3.5-3.4l0.1-2.5c2.6,0.2,4.8,2.1,5.6,5.3C90.2,417.5,87.6,421.1,82.8,422.3z M78.5,411.1
		c-2.7,0.7-4.3,2.8-3.6,5.5c0.7,2.8,3.3,4,5.8,3.6L78.5,411.1z"/>
	<path class="st1" d="M78.8,405.9c-4.9,0.9-8.9-1.4-9.7-5.7c-0.6-3.4,0.9-6.3,3.9-7.3l0.5,2.5c-1.4,0.6-2.5,2.2-2.1,4.4
		c0.5,2.9,3.3,4.4,6.9,3.7c3.7-0.7,5.8-3,5.3-5.9c-0.4-1.9-1.7-3.2-3.5-3.3l-0.5-2.5c2.9-0.1,5.5,1.8,6.2,5.4
		C86.6,401.6,83.6,405,78.8,405.9z"/>
	<path class="st1" d="M76,390.1c-5.1,0.6-8.8-2-9.3-6.4c-0.5-4.4,2.5-7.8,7.5-8.4c5-0.6,8.7,2,9.3,6.4C84,386.1,81,389.5,76,390.1z
		 M74.5,377.9c-3.3,0.4-6,2.3-5.6,5.6c0.4,3.3,3.5,4.5,6.8,4.1s6-2.3,5.6-5.6C80.8,378.7,77.8,377.5,74.5,377.9z"/>
</g>
<g class="st3">
	<path class="st1" d="M170.5,150.6l-1.8,1.8l-20.5-4l-0.2,0.1l11.9,12.3l-1.9,1.8L142.9,147l1.8-1.8l20.5,4l0.2-0.1l-12-12.3
		l1.9-1.8L170.5,150.6z"/>
	<path class="st1" d="M167.6,142.4c-3.2-3.8-3.2-8.4,0.1-11.3c2.6-2.2,6.7-2.9,10.7,1.7l0.7,0.8l-9.1,7.7c2.3,2.6,5.1,2.8,7.4,0.9
		c1.5-1.3,2.1-2.9,1.5-4.6l2.3-1c1,2.4,0.2,5.2-2.3,7.4C175.3,147,170.9,146.3,167.6,142.4z M175.8,133.7c-1.8-2.1-4.4-2.6-6.5-0.8
		c-2.2,1.9-2.1,4.8-0.6,6.8L175.8,133.7z"/>
	<path class="st1" d="M187.8,140.3l0.8-2.3c1.1,0.3,2.8,1,5.2-0.8c2.1-1.6,2.9-3.7,1.3-5.9l-2-2.7l-0.2,0.1c0.1,1,0.4,3.2-2.2,5.1
		c-3.2,2.4-7.3,1.8-10.3-2.3c-3-4-2.6-8.4,0.7-10.8c2.6-1.9,4.6-0.9,5.5-0.6l0.2-0.2l-1.5-2.1l2-1.4l10,13.5c2.5,3.4,1,6.7-2.1,9
		C192.2,141.1,189.7,141,187.8,140.3z M190,124.3c-2.1-2.8-4.9-3.9-7.3-2c-2.6,1.9-2.2,5-0.3,7.7c2,2.7,4.7,3.7,7.3,1.8
		C192.2,130,192.2,127.2,190,124.3z"/>
	<path class="st1" d="M194.8,121.1c-2.8-4.3-2.1-8.7,1.6-11.2s8.1-1.2,10.8,3.1c2.8,4.3,2.1,8.7-1.7,11.1
		C201.9,126.6,197.6,125.4,194.8,121.1z M205.2,114.4c-1.8-2.8-4.7-4.4-7.5-2.6c-2.8,1.8-2.5,5.1-0.7,7.9c1.8,2.8,4.6,4.4,7.5,2.5
		C207.2,120.5,207,117.2,205.2,114.4z"/>
	<path class="st1" d="M212.7,102.9l-3,1.8l4.8,8.3c1.1,1.8,2.2,1.6,3.1,1c0.5-0.3,0.7-0.5,0.9-0.7l1.6,1.7c-0.2,0.3-0.7,0.7-1.5,1.2
		c-1.8,1.1-4.5,1-6-1.4l-5.1-8.8l-2.1,1.2l-1.1-1.8l2.1-1.2l-2-3.4l2.2-1.3l2,3.4l3-1.8L212.7,102.9z"/>
	<path class="st1" d="M211.8,95.9c-0.4-0.8-0.1-1.9,0.8-2.4c0.9-0.5,1.9-0.2,2.4,0.6c0.4,0.8,0.1,1.9-0.8,2.4
		C213.4,97,212.3,96.7,211.8,95.9z M214.4,99.6l2.2-1.2l7.8,14.4l-2.2,1.2L214.4,99.6z"/>
	<path class="st1" d="M224.8,107.2c-1.6-3.4,1-5.4,3.6-7.1c2.5-1.7,3.7-2.1,3.1-3.2l0-0.1c-0.9-1.9-2.5-2.5-4.6-1.5
		c-2.2,1.1-2.8,2.8-2.7,4.1l-2.5,0.3c-0.2-3.2,2-5.2,4.2-6.3c1.9-0.9,5.7-2.1,8,2.5l4.7,9.7l-2.3,1.1l-1-2l-0.1,0.1
		c0,1.2-0.7,3.2-3.2,4.5C229.2,110.6,226.2,110.1,224.8,107.2z M233.7,101.4l-1-2.1c-0.2,0.6-2.6,2.2-3.5,2.8
		c-1.7,1.1-3,2.4-2.1,4.1c0.8,1.6,2.5,1.7,4.3,0.9C234,105.8,234.6,103.2,233.7,101.4z"/>
	<path class="st1" d="M242.4,88.4l-3.2,1.4l3.8,8.8c0.8,2,2,1.8,3,1.4c0.5-0.2,0.8-0.4,1-0.6l1.4,1.9c-0.3,0.3-0.7,0.6-1.6,1
		c-2,0.8-4.6,0.5-5.7-2.1l-4.1-9.4l-2.3,1l-0.8-2l2.3-1l-1.6-3.6l2.3-1l1.6,3.6l3.2-1.4L242.4,88.4z"/>
	<path class="st1" d="M242.4,81.4c-0.3-0.9,0.1-1.9,1-2.2c0.9-0.4,1.9,0.1,2.3,0.9c0.3,0.9-0.1,1.9-1,2.2S242.7,82.3,242.4,81.4z
		 M244.5,85.3l2.3-0.9l6.1,15.2l-2.3,0.9L244.5,85.3z"/>
	<path class="st1" d="M252.8,90.8c-1.7-4.8,0-9,4.2-10.5c4.2-1.5,8.1,0.7,9.8,5.6c1.7,4.8,0,9-4.2,10.4S254.4,95.6,252.8,90.8z
		 M264.4,86.8c-1.1-3.1-3.5-5.4-6.7-4.3c-3.2,1.1-3.7,4.4-2.6,7.5c1.1,3.1,3.5,5.3,6.7,4.2C265,93.1,265.5,89.9,264.4,86.8z"/>
	<path class="st1" d="M274.5,92.1l-2.4,0.7L267.7,77l2.3-0.7l0.7,2.5l0.2-0.1c0.3-1.8,1.5-3.3,3.8-4c3.2-0.9,5.9,0.4,7,4.5l2.8,10
		l-2.4,0.7l-2.8-9.8c-0.7-2.5-2.5-3.6-4.7-2.9c-2.3,0.6-3.6,2.7-2.8,5.4L274.5,92.1z"/>
</g>
</svg>
