<?xml version="1.0" encoding="utf-8"?>
<!-- Generator: Adobe Illustrator 26.3.1, SVG Export Plug-In . SVG Version: 6.00 Build 0)  -->
<svg version="1.1" id="Layer_1" xmlns="http://www.w3.org/2000/svg" xmlns:xlink="http://www.w3.org/1999/xlink" x="0px" y="0px"
	 viewBox="0 0 701 701" style="enable-background:new 0 0 701 701;" xml:space="preserve">
<style type="text/css">
	.st0{fill:none;stroke:#FFDCDC;stroke-miterlimit:10;}
	.st1{fill:#FFDCDC;stroke:#FFDCDC;stroke-miterlimit:10;}
	.st2{fill:#283CB4;}
	.st3{opacity:0.5;}
</style>
<path class="st0" d="M150.8,285.6L150.8,285.6c-28.8,88.8,4.6,182.8,76.2,234.8l0.1,0c75.5,54.8,175.2,52.1,246.8,0.1l0-0.1
	c75.5-54.8,103.7-150.5,76.3-234.7l-0.1,0c-28.8-88.7-111.1-145.1-199.6-145.1l-0.1,0.1C257.2,140.6,178.2,201.4,150.8,285.6z"/>
<path class="st0" d="M473.9,520.5c-71.6,52-171.3,54.8-246.8-0.1l-0.1,0l-84.4,17.7l2.2,95.5l0,0c125.8,91.4,292.1,86.8,411.4,0.1
	l-0.1-0.1l-91.5-27.4L473.9,520.5z"/>
<path class="st0" d="M683.3,242.4L629,321l-78.7-35.3c27.3,84.2-0.9,179.9-76.3,234.7l0,0.1l-9.2,85.7l91.5,27.4l0,0
	C682,542.2,729.1,382.7,683.3,242.4L683.3,242.4z"/>
<path class="st0" d="M350.5,0.5L350.5,0.5l57.9,76.1l-57.9,63.9c88.5,0,170.8,56.4,199.6,145.1l0.1,0L629,321l54.4-78.6l0,0
	C635.3,94.5,498.1,0.5,350.5,0.5z"/>
<path class="st0" d="M17.7,242.4L17.7,242.4C-30.3,390.3,25.4,547,144.8,633.7l0.1-0.1l-2.2-95.5l84.4-17.7
	c-71.6-52-105-146-76.2-234.8l0-0.1l-42.9-74.8L17.7,242.4z"/>
<path class="st1" d="M17.6,242.4L17.6,242.4l90.3-31.6l42.9,74.8c27.4-84.2,106.4-145,199.7-145l0.1-0.1l57.9-63.9l-57.9-76l0,0
	C195,0.6,63.2,102,17.6,242.4z"/>
<g>
	<path class="st2" d="M167.4,153.5l-2.8,2.8l-16.4-2.9l-0.1,0.1l9.7,9.7l-3.3,3.3l-15.5-15.4l2.9-2.9l16.4,3l0.1-0.1l-9.7-9.7
		l3.2-3.3L167.4,153.5z"/>
	<path class="st2" d="M163.7,145.9c-3.3-3.8-3.2-8.4,0.4-11.6c3.3-2.8,7.6-3,11.3,1.2l0.8,0.9l-8.4,7.3l0,0c1.6,1.8,3.7,2,5.4,0.5
		c1.1-1,1.6-2.3,1.1-3.5l3.3-2.5c1.5,2.7,0.8,6-2.3,8.6C171.6,150.2,167.1,149.8,163.7,145.9z M171.2,137.1
		c-1.3-1.5-3.2-1.6-4.7-0.3c-1.5,1.3-1.6,3.4-0.5,4.8L171.2,137.1z"/>
	<path class="st2" d="M183.4,142.1l3-3c0.9,0.6,2.2,0.6,3.8-0.6c1.6-1.2,2.2-2.8,0.8-4.5l-1.8-2.4l-0.2,0.1c0.3,1.4,0,3.4-2.1,4.9
		c-2.9,2.2-6.8,2-10.1-2.3c-3.4-4.4-2.7-8.5,0.2-10.7c2.2-1.7,4.2-1.2,5.5-0.5l0.1-0.1l-1.7-2.2l3.6-2.7l10,13.1
		c2.5,3.3,1.2,7-2.5,9.9C188.6,143.9,185.4,143.8,183.4,142.1z M186,127.4c-1.7-2.3-3.8-3-5.6-1.7c-1.8,1.4-1.6,3.6,0.1,5.8
		c1.7,2.2,3.7,2.9,5.5,1.6C187.8,131.8,187.8,129.6,186,127.4z"/>
	<path class="st2" d="M191.7,123.3c-2.8-4.2-2.1-8.8,2-11.5c4.1-2.7,8.6-1.6,11.4,2.6c2.8,4.2,2.1,8.7-2,11.5
		C198.9,128.6,194.5,127.5,191.7,123.3z M201.2,116.9c-1.6-2.4-3.7-3.5-5.6-2.2c-1.9,1.3-1.7,3.7-0.1,6.1s3.7,3.5,5.6,2.2
		C203,121.7,202.8,119.3,201.2,116.9z"/>
	<path class="st2" d="M212,104.8l-2.6,1.6l4,6.8c0.6,1.1,1.4,1.1,2.1,0.6c0.4-0.2,0.7-0.6,0.9-0.7l2.3,2.5c-0.3,0.4-0.9,1-1.9,1.6
		c-2.8,1.8-5.4,1.5-7.1-1.2l-4.3-7.3l-1.9,1.1l-1.7-2.9l1.9-1.1l-2-3.4l3.9-2.3l2,3.4l2.7-1.6L212,104.8z"/>
	<path class="st2" d="M210.3,96.8c-0.6-1.1-0.1-2.5,1-3.2c1.2-0.6,2.7-0.3,3.3,0.8c0.6,1.1,0.1,2.6-1.1,3.2
		C212.4,98.2,210.9,97.9,210.3,96.8z M212.6,100.5l4-2.2l7.9,14.4l-4,2.2L212.6,100.5z"/>
	<path class="st2" d="M224.2,107.6c-1.6-3.3,0.5-5.5,3.3-7.2c2.4-1.5,3.4-2.1,2.9-3.1l0-0.1c-0.6-1.2-1.7-1.5-3.1-0.8
		c-1.5,0.7-2,1.9-1.8,3l-3.9,1.5c-0.7-3,0.7-5.8,4.3-7.5c3.3-1.6,7-1.6,8.7,1.9l4.9,9.9l-3.9,1.9l-1-2l-0.1,0.1c0,1.7-1,3.4-3.2,4.4
		C228.4,110.9,225.6,110.5,224.2,107.6z M232.7,102l-0.8-1.6c-0.3,0.6-1.7,1.5-2.5,2c-1.3,0.9-2,1.9-1.4,3.1c0.5,1.1,1.7,1.3,3,0.7
		C232.8,105.3,233.5,103.5,232.7,102z"/>
	<path class="st2" d="M244.4,89l-2.8,1.2l3.1,7.3c0.5,1.2,1.2,1.2,2,0.9c0.4-0.2,0.8-0.5,1-0.6l2,2.8c-0.4,0.3-1,0.9-2.1,1.4
		c-3,1.4-5.6,0.8-6.8-2.1l-3.4-7.8l-2.1,0.9l-1.3-3.1l2.1-0.9l-1.5-3.6l4.2-1.8l1.5,3.6l2.8-1.2L244.4,89z"/>
	<path class="st2" d="M243.8,80.9c-0.5-1.2,0.2-2.5,1.5-3c1.3-0.5,2.7,0.1,3.1,1.2c0.5,1.2-0.2,2.5-1.5,3
		C245.7,82.6,244.2,82,243.8,80.9z M245.5,84.9l4.2-1.6l5.9,15.2l-4.2,1.6L245.5,84.9z"/>
	<path class="st2" d="M255,90c-1.6-4.8,0.2-9,4.9-10.6c4.7-1.6,8.7,0.6,10.3,5.4c1.6,4.8-0.2,9-4.9,10.6C260.7,97,256.7,94.7,255,90
		z M265.9,86.3c-0.9-2.7-2.7-4.3-4.8-3.6c-2.2,0.7-2.6,3.1-1.7,5.8c0.9,2.7,2.7,4.3,4.9,3.6C266.4,91.3,266.8,89,265.9,86.3z"/>
	<path class="st2" d="M279.3,90.8l-4.4,1.2l-4.2-15.8l4.2-1.1l0.7,2.8l0.2,0c0.2-2,1.6-3.6,4-4.3c3.3-0.9,6.1,0.8,7,4.5l2.7,10.1
		l-4.4,1.2l-2.5-9.3c-0.5-1.9-1.9-2.8-3.6-2.3c-1.8,0.5-2.7,2-2.1,4L279.3,90.8z"/>
</g>
<g class="st3">
	<path class="st1" d="M516.3,114.1c-2.4-1.7-4.8-1.5-6,0.2c-1.3,1.9,0.3,4.1,1.4,5.4l1.5,1.8c1.5,1.8,4,5.1,1.6,8.4
		c-2,2.9-5.9,3.6-10.1,0.7c-3.9-2.7-4.9-6.3-3-9.4l2.2,1.6c-1.2,2.2,0,4.4,2.1,5.9c2.5,1.7,5.3,1.7,6.6-0.2c1.2-1.8,0-3.6-1.5-5.5
		l-1.8-2.2c-2.2-2.7-3-5.4-1.3-7.8c2.1-3,6.2-3.1,9.6-0.8c3.5,2.4,4.6,6.2,2.8,8.9l-2.1-1.5C519.4,117.7,518.5,115.6,516.3,114.1z"
		/>
	<path class="st1" d="M518.1,129.7c3.1-3.9,7.6-4.8,11-2.1c2.7,2.1,3.5,5.4,1.9,8l-2-1.6c0.6-1.4,0.4-3.3-1.3-4.7
		c-2.3-1.8-5.3-1.1-7.6,1.8c-2.4,3-2.4,6.1,0,7.9c1.5,1.2,3.4,1.3,4.8,0.2l2,1.6c-2.1,2-5.4,2.3-8.2,0
		C515.1,138,515.1,133.5,518.1,129.7z"/>
	<path class="st1" d="M530.6,139.7c3.4-3.8,7.9-4.3,11.2-1.4s3.3,7.5-0.1,11.3c-3.4,3.8-7.9,4.3-11.2,1.3S527.2,143.5,530.6,139.7z
		 M539.8,147.9c2.2-2.4,3-5.7,0.5-7.9c-2.5-2.2-5.6-1.1-7.8,1.4c-2.2,2.4-3,5.6-0.5,7.9C534.5,151.5,537.6,150.3,539.8,147.9z"/>
	<path class="st1" d="M549.9,146l1.7,1.7l-1.9,1.8l0.2,0.2c1-0.2,3.1-0.9,5.3,1.4c2.9,2.9,2.6,7.3-1.1,10.9c-3.7,3.6-8.1,3.9-10.9,1
		c-2.2-2.2-1.6-4.4-1.3-5.4l-0.1-0.2l-6.2,6.1l-1.8-1.8L549.9,146z M544.6,161.3c2.2,2.2,5.3,1.5,7.8-1c2.5-2.4,3.3-5.4,1-7.7
		c-2.2-2.2-5.1-1.6-7.7,1C543.2,156.1,542.5,159.1,544.6,161.3z"/>
	<path class="st1" d="M555.8,164c3.8-3.3,8.4-3.4,11.3,0c2.2,2.6,3,6.7-1.6,10.7l-0.8,0.7l-7.8-9c-2.6,2.4-2.7,5.2-0.7,7.4
		c1.3,1.5,2.9,2,4.6,1.4l1.1,2.3c-2.4,1-5.2,0.3-7.4-2.2C551.4,171.7,552,167.3,555.8,164z M564.7,172c2.1-1.8,2.5-4.5,0.7-6.5
		c-1.9-2.2-4.8-2-6.8-0.5L564.7,172z"/>
</g>
<g class="st3">
	<path class="st1" d="M632,423.7l-2,7.1c-1.4,4.9-4.7,6.4-8.4,5.3c-2.8-0.8-4.6-2.6-4.8-5.6l-10,2.3l0.8-3l9.5-2.1
		c0-0.2,0.1-0.4,0.1-0.5l1.3-4.6l-8.2-2.3l0.7-2.5L632,423.7z M619.5,427.8c-0.9,3.4,0.2,5.1,2.8,5.8s4.6-0.1,5.5-3.5l1.3-4.5
		l-8.2-2.3L619.5,427.8z"/>
	<path class="st1" d="M614,436.5c4.7,1.7,7.1,5.6,5.6,9.8c-1.1,3.2-4.3,5.9-10,3.9l-1-0.4l3.9-11.2c-3.3-1-5.8,0.2-6.8,3
		c-0.7,1.9-0.3,3.5,1.1,4.7l-1.4,2.1c-2.1-1.5-2.8-4.4-1.7-7.5C605.1,436.5,609.3,434.9,614,436.5z M611.5,448.2
		c2.6,0.9,5.1-0.1,6-2.6c1-2.7-0.6-5.2-2.9-6.2L611.5,448.2z"/>
	<path class="st1" d="M598.1,456.1l1-2.4l17.4,0.7l-1,2.5l-13.8-0.8l-0.1,0.2l10.3,9.2l-1,2.5L598.1,456.1z"/>
	<path class="st1" d="M609.6,470.5l-1.1,2.3l-14.8-6.9l1.1-2.3L609.6,470.5z M613.8,471.9c0.8,0.4,1.2,1.5,0.8,2.3
		c-0.4,0.9-1.4,1.3-2.3,0.9s-1.2-1.5-0.8-2.3C612,471.9,613,471.5,613.8,471.9z"/>
	<path class="st1" d="M599.7,472.2c4.5,2.3,6.2,6.5,4.2,10.5c-1.6,3-5.1,5.3-10.5,2.5l-0.9-0.5l5.4-10.6c-3.2-1.5-5.8-0.6-7.1,2.1
		c-0.9,1.8-0.8,3.5,0.4,4.8l-1.7,1.8c-1.8-1.8-2.2-4.7-0.7-7.7C590.9,470.9,595.3,469.9,599.7,472.2z M595.6,483.4
		c2.5,1.3,5.1,0.7,6.3-1.8c1.3-2.6,0.1-5.2-2.1-6.5L595.6,483.4z"/>
	<path class="st1" d="M599.7,490.6l-1.4,2.3l-12.5-3.5l-0.1,0.1l8.9,9.5l-1.4,2.3l-12.4-3.6l-0.1,0.1l8.8,9.5l-1.4,2.3l-11.4-12.8
		l1.3-2.1l12.6,3.5l0.1-0.2l-8.9-9.6l1.3-2.1L599.7,490.6z"/>
</g>
<g class="st3">
	<path class="st1" d="M397.8,637.4l-7.6,1.1c-4.5,0.7-7-1.6-7.5-4.8c-0.4-2.8,1.1-4.2,2.8-5l0-0.2c-2,0.2-4.6-1.4-5.1-4.8
		c-0.5-3.2,1.3-6,6.4-6.8l7.8-1.1L397.8,637.4z M387.2,619.2c-3.4,0.5-4.5,2.2-4.2,4.1c0.3,2.2,2.4,3.8,5.2,3.4l5.3-0.8l-1.1-7.5
		L387.2,619.2z M388.9,629c-2.4,0.3-4,2.1-3.7,4.4c0.3,1.9,1.8,3.2,4.6,2.8l4.9-0.7l-1-7.2L388.9,629z"/>
	<path class="st1" d="M378.1,626.2c0.4,5-2.3,8.7-6.7,9.1c-3.4,0.3-7.2-1.5-7.6-7.6l-0.1-1.1l11.8-0.9c-0.4-3.5-2.6-5.2-5.5-5
		c-2,0.2-3.4,1.1-3.9,2.9l-2.5-0.5c0.6-2.5,2.9-4.4,6.2-4.6C374.5,618,377.7,621.2,378.1,626.2z M366.4,628.6
		c0.2,2.8,2.1,4.7,4.8,4.4c2.9-0.2,4.5-2.6,4.5-5.2L366.4,628.6z"/>
	<path class="st1" d="M357.8,619.4l2.5,0l0.3,16.4l-2.4,0l0-2.6l-0.2,0c-0.7,1.7-2.3,2.8-4.7,2.9c-3.3,0.1-5.6-1.9-5.6-6.1
		l-0.2-10.4l2.5,0l0.2,10.2c0,2.6,1.5,4.1,3.8,4c2.4,0,4.2-1.7,4.1-4.5L357.8,619.4z"/>
	<path class="st1" d="M344.3,627.7c-0.2,5-3.3,8.3-7.7,8.2c-3.4-0.1-6-2.3-6.3-5.4l2.5,0.1c0.3,1.5,1.6,2.9,3.8,3
		c2.9,0.1,5-2.2,5.2-5.9c0.2-3.8-1.6-6.3-4.6-6.5c-2-0.1-3.5,0.9-4,2.7l-2.5-0.1c0.5-2.9,3-5,6.6-4.8
		C341.9,619.1,344.5,622.8,344.3,627.7z"/>
	<path class="st1" d="M325.8,618.5l2.5,0.3l-2.2,21.7l-2.5-0.3l0.8-8l-0.2,0c-0.9,1.6-2.5,2.5-5.1,2.3c-3.3-0.3-5.3-2.5-4.9-6.7
		l1.1-10.3l2.5,0.3l-1.1,10.2c-0.3,2.6,1,4.2,3.3,4.5c2.5,0.3,4.4-1.2,4.7-4L325.8,618.5z"/>
	<path class="st1" d="M308.9,633.2l-2.4-0.4l0.5-2.5l-0.2,0c-1,1.6-2.7,2.3-4.8,1.9c-2.1-0.4-3.3-1.6-3.8-3.5l-0.2,0
		c-1.1,1.5-3,2.3-5.3,1.8c-2.9-0.5-4.6-2.6-3.9-6.4l2-10.8l2.5,0.5l-2,10.8c-0.4,2.4,0.9,3.6,2.7,3.9c2.3,0.4,3.8-0.9,4.2-3L300,615
		l2.5,0.5l-2,11c-0.3,1.8,0.8,3.3,2.6,3.6c1.9,0.4,4-1,4.4-3.4l1.8-10.1l2.5,0.5L308.9,633.2z"/>
	<path class="st1" d="M287,617.1c-1,3.6-4.3,3.4-7.4,3c-3-0.4-4.1-0.8-4.5,0.4l0,0.1c-0.5,2,0.3,3.5,2.5,4.1
		c2.3,0.6,3.9-0.3,4.7-1.3l2.1,1.4c-2,2.6-4.9,2.7-7.3,2c-2-0.5-5.7-2.1-4.4-7.1l2.7-10.4l2.4,0.6l-0.6,2.1l0.1,0
		c0.8-0.9,2.6-2,5.4-1.3C285.9,611.6,287.9,614,287,617.1z M276.5,615.6l-0.6,2.2c0.5-0.4,3.4,0,4.4,0.2c2,0.2,3.8,0.1,4.3-1.7
		c0.4-1.7-0.7-2.9-2.7-3.4C279.1,612.1,277,613.6,276.5,615.6z"/>
	<path class="st1" d="M267.3,623.8l-2.3-0.7l0.7-2.4l-0.2-0.1c-1.1,1.4-3,1.9-4.9,1.3c-0.4-0.1-1-0.3-1.2-0.4l0.8-2.4
		c0.1,0.1,0.8,0.4,1.4,0.6c2.3,0.7,4.4-0.3,5.1-2.4l3.1-9.9l2.4,0.8L267.3,623.8z"/>
	<path class="st1" d="M254.9,625.6l-2.4-0.9l4.4-12l-0.3-0.1l-9.2,4.4l-2.9-1.1l8.9-4.2l-3.7-11.4l3,1.1l3.1,9.4l2.2-0.9l2.1-5.7
		l2.4,0.9L254.9,625.6z"/>
</g>
<g class="st3">
	<path class="st1" d="M74.7,442.8l-2.2-7c-1.5-4.9,0.5-7.9,4.2-9.1c2.8-0.9,5.3-0.3,7.1,2.1l7.1-7.4l0.9,2.9l-6.8,6.9
		c0.1,0.2,0.1,0.3,0.2,0.5l1.4,4.6l8.1-2.5l0.8,2.5L74.7,442.8z M82.9,432.6c-1-3.3-3-4.2-5.5-3.4c-2.5,0.8-3.7,2.6-2.7,6l1.4,4.4
		l8.2-2.6L82.9,432.6z"/>
	<path class="st1" d="M82.8,422.3c-4.9,1.2-9-0.8-10-5.1c-0.8-3.3,0.4-7.3,6.3-8.8l1-0.3l2.8,11.5c3.4-0.9,4.7-3.4,4-6.2
		c-0.5-1.9-1.6-3.2-3.5-3.4l0.1-2.5c2.6,0.2,4.8,2.1,5.6,5.3C90.2,417.5,87.6,421.1,82.8,422.3z M78.5,411.1
		c-2.7,0.7-4.3,2.8-3.6,5.5c0.7,2.8,3.3,4,5.8,3.6L78.5,411.1z"/>
	<path class="st1" d="M78.8,405.9c-4.9,0.9-8.9-1.4-9.7-5.7c-0.6-3.4,0.9-6.3,3.9-7.3l0.5,2.5c-1.4,0.6-2.5,2.2-2.1,4.4
		c0.5,2.9,3.3,4.4,6.9,3.7c3.7-0.7,5.8-3,5.3-5.9c-0.4-1.9-1.7-3.2-3.5-3.3l-0.5-2.5c2.9-0.1,5.5,1.8,6.2,5.4
		C86.6,401.6,83.6,405,78.8,405.9z"/>
	<path class="st1" d="M76,390.1c-5.1,0.6-8.8-2-9.3-6.4c-0.5-4.4,2.5-7.8,7.5-8.4c5-0.6,8.7,2,9.3,6.4C84,386.1,81,389.5,76,390.1z
		 M74.5,377.9c-3.3,0.4-6,2.3-5.6,5.6s3.5,4.5,6.8,4.1s6-2.3,5.6-5.6C80.8,378.7,77.8,377.5,74.5,377.9z"/>
</g>
</svg>
