<?xml version="1.0" encoding="utf-8"?>
<!-- Generator: Adobe Illustrator 26.3.1, SVG Export Plug-In . SVG Version: 6.00 Build 0)  -->
<svg version="1.1" id="Layer_1" xmlns="http://www.w3.org/2000/svg" xmlns:xlink="http://www.w3.org/1999/xlink" x="0px" y="0px"
	 viewBox="0 0 701 700.7" style="enable-background:new 0 0 701 700.7;" xml:space="preserve">
<style type="text/css">
	.st0{fill:none;stroke:#FFDCDC;stroke-miterlimit:10;}
	.st1{fill:#FFDCDC;stroke:#FFDCDC;stroke-miterlimit:10;}
	.st2{fill:#283CB4;}
	.st3{opacity:0.5;}
</style>
<path class="st0" d="M473.9,520.5L473.9,520.5c75.5-54.9,103.7-150.6,76.4-234.8l-0.1,0c-28.8-88.7-111.1-145.1-199.6-145.1
	l-0.1,0.1c-93.3,0-172.4,60.8-199.7,145l0,0.1c-28.8,88.7,4.6,182.7,76.2,234.8l0.1,0C302.6,575.2,402.3,572.5,473.9,520.5z"/>
<path class="st0" d="M350.6,140.5c88.5,0,170.8,56.4,199.6,145.1l0.1,0L629,321l54.4-78.6l0,0C635.3,94.5,498.1,0.5,350.5,0.5l0,0.1
	l57.9,76L350.6,140.5z"/>
<path class="st0" d="M17.7,242.4l90.2-31.6l42.9,74.8c27.4-84.2,106.4-145,199.7-145l0.1-0.1l57.9-63.9l-57.9-76l0,0
	C195,0.6,63.2,102,17.7,242.4L17.7,242.4z"/>
<path class="st0" d="M144.8,633.7L144.8,633.7l-2.1-95.6l84.4-17.7c-71.6-52-105-146-76.2-234.8l0-0.1l-42.9-74.8l-90.2,31.6l0,0
	C-30.3,390.3,25.4,547,144.8,633.7z"/>
<path class="st0" d="M556.2,633.6L556.2,633.6c125.8-91.4,172.8-251,127.2-391.3l-0.1,0L629,321l-78.7-35.3
	c27.3,84.2-0.9,179.9-76.3,234.7l0,0.1l-9.2,85.7L556.2,633.6z"/>
<path class="st1" d="M556.3,633.7L556.3,633.7l-91.6-27.5l9.2-85.7c-71.6,52-171.3,54.8-246.8-0.1l-0.1,0l-84.4,17.7l2.2,95.5l0,0
	C270.7,725.1,436.9,720.5,556.3,633.7z"/>
<g>
	<path class="st2" d="M403.2,636.4l-8.6,1.4c-4.8,0.8-7.5-1.1-8-4.4c-0.4-2.5,1-4.4,3.1-5.3l0-0.2c-2.5,0.3-5.1-1.3-5.6-4.5
		c-0.6-3.4,1.6-6.4,6.5-7.2l9.2-1.5L403.2,636.4z M392.1,619.9c-2.5,0.4-3.5,1.7-3.2,3.3c0.3,1.8,1.8,2.8,4,2.5l3.8-0.6l-0.9-5.7
		L392.1,619.9z M393.8,628.7c-1.9,0.3-3.1,1.6-2.8,3.3c0.3,1.6,1.6,2.4,3.6,2.1l3.5-0.6l-0.9-5.3L393.8,628.7z"/>
	<path class="st2" d="M382.5,625.8c0.5,5-2.3,8.7-7.1,9.2c-4.3,0.4-7.9-2-8.4-7.6l-0.1-1.2l11.1-1l0,0c-0.2-2.4-1.8-3.8-4.1-3.6
		c-1.5,0.1-2.6,0.9-3,2.2l-4.2,0.1c0.4-3.1,2.9-5.3,6.9-5.7C378.6,617.7,382,620.6,382.5,625.8z M371.3,628.5c0.2,1.9,1.7,3.2,3.6,3
		c2-0.2,3.3-1.8,3.2-3.7L371.3,628.5z"/>
	<path class="st2" d="M359.6,619.4l4.5-0.1l0.4,16.4l-4.3,0.1l-0.1-2.9l-0.2,0c-0.7,1.9-2.4,3.2-4.8,3.2c-3.4,0.1-5.7-2.2-5.8-6
		l-0.3-10.4l4.5-0.1l0.3,9.6c0,2,1.2,3.2,3,3.1c1.8,0,3.1-1.3,3-3.4L359.6,619.4z"/>
	<path class="st2" d="M346.9,627.8c-0.2,5-3.4,8.3-8.3,8.2c-4.3-0.2-7-2.7-7.1-6.5l4.3,0.2c0.2,1.6,1.2,2.8,2.9,2.8
		c2.1,0.1,3.6-1.6,3.7-4.7c0.1-3.1-1.2-5-3.3-5c-1.6-0.1-2.7,0.9-3.1,2.6l-4.3-0.2c0.4-3.7,3.2-6.2,7.5-6
		C344.2,619.2,347,622.8,346.9,627.8z"/>
	<path class="st2" d="M325.3,618.5l4.5,0.5l-2.2,21.7l-4.4-0.4l0.8-8.3l-0.2,0c-0.9,1.8-2.7,2.8-5.2,2.6c-3.4-0.3-5.4-2.9-5-6.7
		l1.1-10.4l4.5,0.5l-1,9.6c-0.2,2,0.7,3.3,2.6,3.5c1.8,0.2,3.2-0.9,3.5-3L325.3,618.5z"/>
	<path class="st2" d="M309.2,633.3l-4.3-0.8l0.5-2.8l-0.2,0c-1,1.8-2.9,2.6-5,2.2c-2.2-0.4-3.6-1.9-3.8-3.9l-0.2,0
		c-1,1.7-3.1,2.6-5.4,2.2c-3-0.6-4.7-2.9-4.1-6.4l2-10.8l4.5,0.8l-1.8,9.9c-0.3,1.8,0.6,2.9,2,3.1c1.6,0.3,2.8-0.7,3.1-2.3l1.8-9.8
		l4.3,0.8l-1.9,10c-0.3,1.6,0.5,2.8,2,3c1.5,0.3,2.8-0.7,3.2-2.5l1.8-9.7l4.5,0.8L309.2,633.3z"/>
	<path class="st2" d="M286,616.8c-0.9,3.5-4,3.8-7.2,3.3c-2.8-0.5-3.9-0.6-4.2,0.4l0,0.1c-0.3,1.3,0.3,2.3,1.8,2.7
		c1.6,0.4,2.7-0.1,3.3-1.1l4,1.4c-1.4,2.7-4.4,3.9-8.1,2.8c-3.5-0.9-6.3-3.4-5.3-7.2l2.9-10.7l4.2,1.1l-0.6,2.2l0.1,0
		c1.2-1.3,3-1.9,5.3-1.2C285.1,611.5,286.9,613.6,286,616.8z M275.9,615.4l-0.5,1.7c0.6-0.2,2.2,0,3.2,0.1c1.6,0.2,2.8-0.1,3.1-1.4
		c0.3-1.2-0.5-2.1-1.8-2.5C278,612.8,276.3,613.7,275.9,615.4z"/>
	<path class="st2" d="M265.4,623.3l-4.2-1.4l0.9-2.7l-0.2-0.1c-1.2,1.7-3,2.3-4.7,1.7c-0.4-0.1-1-0.4-1.3-0.6l1.2-3.8
		c0.4,0.3,1.2,0.6,1.7,0.8c1.9,0.6,3.7-0.2,4.4-2.2l2.9-8.8l4.3,1.4L265.4,623.3z"/>
	<path class="st2" d="M251.9,624.6l-4.2-1.6l4.2-10.9l-0.2-0.1l-7.1,3.9l-4.9-1.9l8.2-4.4l-2.6-11l5,1.9l1.8,7.8l1.6-0.9l1.9-4.9
		l4.2,1.6L251.9,624.6z"/>
</g>
<g class="st3">
	<path class="st1" d="M516.3,114.1c-2.4-1.7-4.8-1.5-6,0.2c-1.3,1.9,0.3,4.1,1.4,5.4l1.5,1.8c1.5,1.8,4,5.1,1.6,8.4
		c-2,2.9-5.9,3.6-10.1,0.7c-3.9-2.7-4.9-6.3-3-9.4l2.2,1.6c-1.2,2.2,0,4.4,2.1,5.9c2.5,1.7,5.3,1.7,6.6-0.2c1.2-1.8,0-3.6-1.5-5.5
		l-1.8-2.2c-2.2-2.7-3-5.4-1.3-7.8c2.1-3,6.2-3.1,9.6-0.8c3.5,2.4,4.6,6.2,2.8,8.9l-2.1-1.5C519.4,117.7,518.5,115.6,516.3,114.1z"
		/>
	<path class="st1" d="M518.1,129.7c3.1-3.9,7.6-4.8,11-2.1c2.7,2.1,3.5,5.4,1.9,8l-2-1.6c0.6-1.4,0.4-3.3-1.3-4.7
		c-2.3-1.8-5.3-1.1-7.6,1.8c-2.4,3-2.4,6.1,0,7.9c1.5,1.2,3.4,1.3,4.8,0.2l2,1.6c-2.1,2-5.4,2.3-8.2,0
		C515.1,138,515.1,133.5,518.1,129.7z"/>
	<path class="st1" d="M530.6,139.7c3.4-3.8,7.9-4.3,11.2-1.4s3.3,7.5-0.1,11.3c-3.4,3.8-7.9,4.3-11.2,1.3S527.3,143.5,530.6,139.7z
		 M539.8,147.9c2.2-2.4,3-5.7,0.5-7.9c-2.5-2.2-5.6-1.1-7.8,1.4c-2.2,2.4-3,5.6-0.5,7.9C534.5,151.5,537.6,150.3,539.8,147.9z"/>
	<path class="st1" d="M549.9,146l1.7,1.7l-1.9,1.8l0.2,0.2c1-0.2,3.1-0.9,5.3,1.4c2.9,2.9,2.6,7.3-1.1,10.9c-3.7,3.6-8.1,3.9-10.9,1
		c-2.2-2.2-1.6-4.4-1.3-5.4l-0.1-0.2l-6.2,6.1l-1.8-1.8L549.9,146z M544.6,161.3c2.2,2.2,5.3,1.5,7.8-1c2.5-2.4,3.3-5.4,1-7.7
		c-2.2-2.2-5.1-1.6-7.7,1C543.2,156.1,542.5,159.1,544.6,161.3z"/>
	<path class="st1" d="M555.8,164c3.8-3.3,8.4-3.4,11.3,0c2.2,2.6,3,6.7-1.6,10.7l-0.8,0.7l-7.8-9c-2.6,2.4-2.7,5.2-0.7,7.4
		c1.3,1.5,2.9,2,4.6,1.4l1.1,2.3c-2.4,1-5.2,0.3-7.4-2.2C551.4,171.7,552,167.3,555.8,164z M564.7,172c2.1-1.8,2.5-4.5,0.7-6.5
		c-1.9-2.2-4.8-2-6.8-0.5L564.7,172z"/>
</g>
<g class="st3">
	<path class="st1" d="M632,423.7l-2,7.1c-1.4,4.9-4.7,6.4-8.4,5.3c-2.8-0.8-4.6-2.6-4.8-5.6l-10,2.3l0.8-3l9.5-2.1
		c0-0.2,0.1-0.4,0.1-0.5l1.3-4.6l-8.2-2.3l0.7-2.5L632,423.7z M619.5,427.8c-0.9,3.4,0.2,5.1,2.8,5.8c2.5,0.7,4.6-0.1,5.5-3.5
		l1.3-4.5l-8.2-2.3L619.5,427.8z"/>
	<path class="st1" d="M614,436.5c4.7,1.7,7.1,5.6,5.6,9.8c-1.1,3.2-4.3,5.9-10,3.9l-1-0.4l3.9-11.2c-3.3-1-5.8,0.2-6.8,3
		c-0.7,1.9-0.3,3.5,1.1,4.7l-1.4,2.1c-2.1-1.5-2.8-4.4-1.7-7.5C605.1,436.5,609.3,434.9,614,436.5z M611.5,448.2
		c2.6,0.9,5.1-0.1,6-2.6c1-2.7-0.6-5.2-2.9-6.2L611.5,448.2z"/>
	<path class="st1" d="M598.1,456.1l1-2.4l17.4,0.7l-1,2.5l-13.8-0.8l-0.1,0.2l10.3,9.2l-1,2.5L598.1,456.1z"/>
	<path class="st1" d="M609.6,470.5l-1.1,2.3l-14.8-6.9l1.1-2.3L609.6,470.5z M613.8,471.9c0.8,0.4,1.2,1.5,0.8,2.3
		c-0.4,0.9-1.4,1.3-2.3,0.9s-1.2-1.5-0.8-2.3C612,471.9,613,471.5,613.8,471.9z"/>
	<path class="st1" d="M599.7,472.2c4.5,2.3,6.2,6.5,4.2,10.5c-1.6,3-5.1,5.3-10.5,2.5l-0.9-0.5l5.4-10.6c-3.2-1.5-5.8-0.6-7.1,2.1
		c-0.9,1.8-0.8,3.5,0.4,4.8l-1.7,1.8c-1.8-1.8-2.2-4.7-0.7-7.7C590.9,470.9,595.3,469.9,599.7,472.2z M595.6,483.4
		c2.5,1.3,5.1,0.7,6.3-1.8c1.3-2.6,0.1-5.2-2.1-6.5L595.6,483.4z"/>
	<path class="st1" d="M599.7,490.6l-1.4,2.3l-12.5-3.5l-0.1,0.1l8.9,9.5l-1.4,2.3l-12.4-3.6l-0.1,0.1l8.8,9.5l-1.4,2.3l-11.4-12.8
		l1.3-2.1l12.6,3.5l0.1-0.2l-8.9-9.6l1.3-2.1L599.7,490.6z"/>
</g>
<g class="st3">
	<path class="st1" d="M74.7,442.8l-2.2-7c-1.5-4.9,0.5-7.9,4.2-9.1c2.8-0.9,5.3-0.3,7.1,2.1l7.1-7.4l0.9,2.9l-6.8,6.9
		c0.1,0.2,0.1,0.3,0.2,0.5l1.4,4.6l8.1-2.5l0.8,2.5L74.7,442.8z M82.9,432.6c-1-3.3-3-4.2-5.5-3.4c-2.5,0.8-3.7,2.6-2.7,6l1.4,4.4
		l8.2-2.6L82.9,432.6z"/>
	<path class="st1" d="M82.8,422.3c-4.9,1.2-9-0.8-10-5.1c-0.8-3.3,0.4-7.3,6.3-8.8l1-0.3l2.8,11.5c3.4-0.9,4.7-3.4,4-6.2
		c-0.5-1.9-1.6-3.2-3.5-3.4l0.1-2.5c2.6,0.2,4.8,2.1,5.6,5.3C90.2,417.5,87.6,421.1,82.8,422.3z M78.5,411.1
		c-2.7,0.7-4.3,2.8-3.6,5.5c0.7,2.8,3.3,4,5.8,3.6L78.5,411.1z"/>
	<path class="st1" d="M78.8,405.9c-4.9,0.9-8.9-1.4-9.7-5.7c-0.6-3.4,0.9-6.3,3.9-7.3l0.5,2.5c-1.4,0.6-2.5,2.2-2.1,4.4
		c0.5,2.9,3.3,4.4,6.9,3.7c3.7-0.7,5.8-3,5.3-5.9c-0.4-1.9-1.7-3.2-3.5-3.3l-0.5-2.5c2.9-0.1,5.5,1.8,6.2,5.4
		C86.6,401.6,83.6,405,78.8,405.9z"/>
	<path class="st1" d="M76,390.1c-5.1,0.6-8.8-2-9.3-6.4c-0.5-4.4,2.5-7.8,7.5-8.4c5-0.6,8.7,2,9.3,6.4C84,386.1,81,389.5,76,390.1z
		 M74.5,377.9c-3.3,0.4-6,2.3-5.6,5.6s3.5,4.5,6.8,4.1s6-2.3,5.6-5.6C80.8,378.7,77.8,377.5,74.5,377.9z"/>
</g>
<g class="st3">
	<path class="st1" d="M170.5,150.6l-1.8,1.8l-20.5-4l-0.2,0.1l11.9,12.3l-1.9,1.8L142.9,147l1.8-1.8l20.5,4l0.2-0.1l-12-12.3
		l1.9-1.8L170.5,150.6z"/>
	<path class="st1" d="M167.6,142.4c-3.2-3.8-3.2-8.4,0.1-11.3c2.6-2.2,6.7-2.9,10.7,1.7l0.7,0.8l-9.1,7.7c2.3,2.6,5.1,2.8,7.4,0.9
		c1.5-1.3,2.1-2.9,1.5-4.6l2.3-1c1,2.4,0.2,5.2-2.3,7.4C175.3,147,170.9,146.3,167.6,142.4z M175.8,133.7c-1.8-2.1-4.4-2.6-6.5-0.8
		c-2.2,1.9-2.1,4.7-0.6,6.8L175.8,133.7z"/>
	<path class="st1" d="M187.8,140.3l0.8-2.3c1.1,0.3,2.8,1,5.2-0.8c2.1-1.6,2.9-3.7,1.3-5.9l-2-2.7l-0.2,0.1c0.1,1,0.4,3.2-2.2,5.1
		c-3.2,2.4-7.3,1.8-10.3-2.3c-3-4-2.6-8.4,0.7-10.8c2.6-1.9,4.6-0.9,5.5-0.6l0.2-0.2l-1.5-2.1l2-1.4l10,13.5c2.5,3.4,1,6.7-2.1,9
		C192.2,141.1,189.7,141,187.8,140.3z M190,124.3c-2.1-2.8-4.9-3.9-7.3-2c-2.6,1.9-2.2,5-0.3,7.7c2,2.7,4.7,3.7,7.3,1.8
		C192.1,130,192.2,127.2,190,124.3z"/>
	<path class="st1" d="M194.8,121.1c-2.8-4.3-2.1-8.7,1.6-11.2c3.7-2.4,8.1-1.2,10.8,3.1c2.8,4.3,2.1,8.7-1.7,11.1
		C201.9,126.6,197.6,125.4,194.8,121.1z M205.2,114.4c-1.8-2.8-4.7-4.4-7.5-2.6c-2.8,1.8-2.5,5.1-0.7,7.9c1.8,2.8,4.6,4.4,7.5,2.5
		C207.2,120.5,207,117.2,205.2,114.4z"/>
	<path class="st1" d="M212.7,102.9l-3,1.8l4.8,8.3c1.1,1.8,2.2,1.6,3.1,1c0.5-0.3,0.7-0.5,0.9-0.7l1.6,1.7c-0.2,0.3-0.7,0.7-1.5,1.2
		c-1.8,1.1-4.5,1-6-1.4l-5.1-8.8l-2.1,1.2l-1.1-1.8l2.1-1.2l-2-3.4l2.2-1.3l2,3.4l3-1.8L212.7,102.9z"/>
	<path class="st1" d="M211.8,95.9c-0.4-0.8-0.1-1.9,0.8-2.4c0.9-0.5,1.9-0.2,2.4,0.6c0.4,0.8,0.1,1.9-0.8,2.4
		C213.4,97,212.3,96.7,211.8,95.9z M214.4,99.6l2.2-1.2l7.8,14.4l-2.2,1.2L214.4,99.6z"/>
	<path class="st1" d="M224.8,107.2c-1.6-3.4,1-5.4,3.6-7.1c2.5-1.7,3.7-2.1,3.1-3.2l0-0.1c-0.9-1.9-2.5-2.5-4.6-1.5
		c-2.2,1.1-2.8,2.8-2.7,4.1l-2.5,0.3c-0.2-3.2,2-5.2,4.2-6.3c1.9-0.9,5.7-2.1,8,2.5l4.7,9.7l-2.3,1.1l-1-2l-0.1,0.1
		c0,1.2-0.7,3.2-3.2,4.5C229.2,110.6,226.2,110.1,224.8,107.2z M233.7,101.4l-1-2.1c-0.2,0.6-2.6,2.2-3.5,2.8
		c-1.7,1.1-3,2.4-2.1,4.1c0.8,1.6,2.5,1.7,4.3,0.9C234,105.8,234.6,103.2,233.7,101.4z"/>
	<path class="st1" d="M242.4,88.4l-3.2,1.4l3.8,8.8c0.8,2,2,1.8,3,1.4c0.5-0.2,0.8-0.4,1-0.6l1.4,1.9c-0.3,0.3-0.7,0.6-1.6,1
		c-2,0.8-4.6,0.5-5.7-2.1l-4.1-9.4l-2.3,1l-0.8-2l2.3-1l-1.6-3.6l2.3-1l1.6,3.6l3.2-1.4L242.4,88.4z"/>
	<path class="st1" d="M242.4,81.4c-0.3-0.9,0.1-1.9,1-2.2c0.9-0.4,1.9,0.1,2.3,0.9c0.3,0.9-0.1,1.9-1,2.2
		C243.7,82.7,242.7,82.3,242.4,81.4z M244.5,85.3l2.3-0.9l6.1,15.2l-2.3,0.9L244.5,85.3z"/>
	<path class="st1" d="M252.8,90.8c-1.7-4.8,0-9,4.2-10.5c4.2-1.5,8.1,0.7,9.8,5.6c1.7,4.8,0,9-4.2,10.4S254.4,95.6,252.8,90.8z
		 M264.4,86.8c-1.1-3.1-3.5-5.4-6.7-4.3c-3.2,1.1-3.7,4.4-2.6,7.5c1.1,3.1,3.5,5.3,6.7,4.2C265,93.1,265.5,89.9,264.4,86.8z"/>
	<path class="st1" d="M274.5,92.1l-2.4,0.7L267.7,77l2.3-0.7l0.7,2.5l0.2-0.1c0.3-1.8,1.5-3.3,3.8-4c3.2-0.9,5.9,0.4,7,4.5l2.8,10
		l-2.4,0.7l-2.8-9.8c-0.7-2.5-2.5-3.6-4.7-2.9c-2.3,0.6-3.6,2.7-2.8,5.4L274.5,92.1z"/>
</g>
</svg>
