<svg width="216" height="122" viewBox="0 0 216 122" fill="none" xmlns="http://www.w3.org/2000/svg">
<path d="M35.5072 50.2329H24.3V75.2253H27.6858V64.6639H35.5072C38.0143 64.6639 39.8786 63.937 41.0786 62.4833C42.3 61.0508 42.9 59.3405 42.9 57.395C42.9 55.1288 42.2143 53.3757 40.8643 52.1143C39.5143 50.8529 37.7143 50.2329 35.5072 50.2329ZM38.0786 60.8157C37.1358 61.457 35.9143 61.7777 34.3929 61.7777H27.6858V53.1191H34.3929C35.7 53.1191 36.7072 53.2902 37.4572 53.6536C38.8072 54.3164 39.4929 55.5564 39.4929 57.395C39.4929 59.0412 39.0215 60.1743 38.0786 60.8157Z" fill="#3A3A3A"/>
<path d="M145.35 63.1248C144.45 62.462 143.186 61.9276 141.557 61.5427L138.15 60.7517C135.857 60.2172 134.4 59.7469 133.736 59.3834C132.75 58.8276 132.257 57.9296 132.257 56.6896C132.257 55.5779 132.664 54.5945 133.521 53.7607C134.357 52.9269 135.729 52.4993 137.657 52.4993C140.036 52.4993 141.707 53.1407 142.714 54.4662C143.25 55.1717 143.593 56.1979 143.764 57.5448H146.957C146.957 54.7655 146.057 52.7558 144.279 51.4731C142.5 50.2117 140.314 49.5703 137.764 49.5703C135 49.5703 132.857 50.2972 131.336 51.7296C129.836 53.162 129.064 55.0007 129.064 57.2455C129.064 59.3193 129.836 60.88 131.379 61.9276C132.279 62.5262 133.779 63.082 135.943 63.5738L139.221 64.3434C141 64.771 142.307 65.2627 143.143 65.8186C143.957 66.3958 144.386 67.3579 144.386 68.7262C144.386 70.5434 143.4 71.8048 141.45 72.5103C140.443 72.8738 139.329 73.0448 138.107 73.0448C135.364 73.0448 133.457 72.211 132.386 70.5648C131.829 69.6882 131.486 68.5338 131.421 67.1013H128.229C128.186 69.7951 129.043 71.9331 130.757 73.5151C132.471 75.0972 134.85 75.8882 137.893 75.8882C140.507 75.8882 142.779 75.2896 144.75 74.0924C146.721 72.8951 147.707 70.9282 147.707 68.1703C147.664 65.9896 146.893 64.3007 145.35 63.1248Z" fill="#3A3A3A"/>
<path d="M162.793 63.7021C163.65 64.3649 164.164 65.5193 164.336 67.1442H162.343C162.214 66.3959 161.936 65.7759 161.507 65.2842C161.079 64.7924 160.371 64.5359 159.429 64.5359C158.121 64.5359 157.2 65.1773 156.621 66.4386C156.257 67.2511 156.086 68.2773 156.086 69.4745C156.086 70.6931 156.343 71.7193 156.857 72.5531C157.371 73.3869 158.186 73.7931 159.279 73.7931C160.114 73.7931 160.8 73.5366 161.293 73.0235C161.786 72.5104 162.129 71.8048 162.321 70.9069H164.314C164.079 72.5104 163.521 73.6862 162.6 74.4345C161.7 75.1828 160.521 75.5462 159.107 75.5462C157.521 75.5462 156.257 74.969 155.293 73.7931C154.35 72.6386 153.879 71.1848 153.879 69.4531C153.879 67.3152 154.393 65.669 155.443 64.4717C156.471 63.2745 157.8 62.6973 159.407 62.6973C160.8 62.7186 161.914 63.0393 162.793 63.7021Z" fill="#3A3A3A"/>
<path d="M174.729 64.2794C175.8 65.327 176.336 66.8663 176.336 68.876C176.336 70.8215 175.864 72.4463 174.921 73.7291C173.979 75.0119 172.5 75.6532 170.507 75.6532C168.836 75.6532 167.529 75.0974 166.543 73.9643C165.557 72.8312 165.086 71.3132 165.086 69.4105C165.086 67.3794 165.6 65.7546 166.629 64.536C167.657 63.3174 169.05 62.7188 170.786 62.7188C172.35 62.7188 173.657 63.2319 174.729 64.2794ZM173.464 72.3394C173.957 71.3132 174.214 70.1801 174.214 68.9187C174.214 67.7856 174.021 66.8663 173.679 66.1608C173.121 65.0491 172.136 64.4932 170.743 64.4932C169.5 64.4932 168.6 64.9636 168.043 65.9256C167.486 66.8877 167.207 68.0208 167.207 69.3677C167.207 70.6505 167.486 71.7408 168.043 72.596C168.6 73.4512 169.5 73.8787 170.721 73.8787C172.05 73.8787 172.971 73.3656 173.464 72.3394Z" fill="#3A3A3A"/>
<path d="M177.471 63.0606H179.486V64.7924C179.979 64.1937 180.407 63.7662 180.814 63.4882C181.479 63.0179 182.25 62.8041 183.107 62.8041C184.071 62.8041 184.864 63.0393 185.443 63.5096C185.786 63.7875 186.086 64.1724 186.364 64.7069C186.814 64.0655 187.35 63.5737 187.971 63.2531C188.593 62.9324 189.279 62.7827 190.029 62.7827C191.657 62.7827 192.793 63.3813 193.371 64.5572C193.693 65.1986 193.843 66.0538 193.843 67.1227V75.2041H191.721V66.7593C191.721 65.9469 191.507 65.391 191.121 65.0917C190.714 64.7924 190.221 64.6427 189.643 64.6427C188.85 64.6427 188.143 64.9206 187.564 65.4551C186.986 65.9896 186.686 66.8875 186.686 68.1489V75.2255H184.607V67.2938C184.607 66.4813 184.5 65.8613 184.307 65.4979C183.986 64.942 183.407 64.6427 182.571 64.6427C181.8 64.6427 181.093 64.942 180.45 65.5406C179.829 66.1393 179.507 67.2082 179.507 68.7903V75.2255H177.471V63.0606V63.0606Z" fill="#3A3A3A"/>
<path d="M148.95 73.5367C148.95 72.6174 149.7 71.8691 150.621 71.8691C151.543 71.8691 152.293 72.6174 152.293 73.5367C152.293 74.456 151.543 75.2043 150.621 75.2043C149.7 75.2043 148.95 74.456 148.95 73.5367Z" fill="#3A3A3A"/>
<path d="M60.1929 50.2119L52.9929 62.2271L45.7929 50.2119H41.8286L51.3 65.1347V75.2043H54.6858V65.1347L64.1786 50.2119H60.1929Z" fill="#3A3A3A"/>
<path d="M103.071 70.415L90.5786 50.2329H89.8286H86.5714H84.9857L77.8286 71.3557L70.6286 50.2329H65.7643V75.2253H69V60.4736C69 59.8964 68.9786 58.977 68.9357 57.7157C68.8929 56.4543 68.8929 55.535 68.8929 54.915V54.1239L76.1143 75.2039H79.4786L86.55 54.3591V75.2039H86.5714H89.8071H89.8286V55.0646L102.493 75.2039H106.307V50.2329H103.071V70.415Z" fill="#3A3A3A"/>
<path d="M108.086 50.2329V53.2046H116.507V75.2039H119.936V53.2046H128.379V50.2329H108.086Z" fill="#3A3A3A"/>
</svg>
