<svg width="47" height="31" viewBox="0 0 47 31" fill="none" xmlns="http://www.w3.org/2000/svg">
<path d="M10.5993 30.149C16.5931 30.149 21.3257 25.2893 21.3257 19.2956C21.3257 13.3018 16.4031 8.44213 10.4093 8.44213C10.3493 8.44213 10.2589 8.45026 10.1989 8.45127C12.5688 6.56412 15.5454 5.42694 18.8034 5.42694C20.3024 5.42694 21.5087 4.21152 21.5087 2.71359C21.5087 1.21565 20.5443 0.000230789 19.0453 0.000230789C8.4063 0.00124741 -2.86102e-05 8.65655 -2.86102e-05 19.2956C-2.86102e-05 19.2976 -2.86102e-05 19.2996 -2.86102e-05 19.3027C-2.86102e-05 25.2934 4.6076 30.149 10.5993 30.149Z" fill="#C4C4C4"/>
<path d="M36.0206 30.149C42.0144 30.149 46.7552 25.2893 46.7552 19.2956C46.7552 13.3018 41.8366 8.44213 35.8418 8.44213C35.7818 8.44213 35.6934 8.45026 35.6334 8.45127C38.0033 6.56412 40.9809 5.42694 44.2389 5.42694C45.7379 5.42694 46.9452 4.21152 46.9452 2.71359C46.9452 1.21565 45.9655 0.000230789 44.4666 0.000230789C33.8276 0.00124741 25.406 8.65655 25.406 19.2956C25.406 19.2976 25.406 19.2996 25.406 19.3027C25.406 25.2934 30.0289 30.149 36.0206 30.149Z" fill="#C4C4C4"/>
</svg>
