<svg id="Layer_1" data-name="Layer 1" xmlns="http://www.w3.org/2000/svg" viewBox="0 0 2000 2000">
  <defs>
    <style>
      .cls-1 {
        fill: #bebca4;
      }

      .cls-2 {
        fill: #dadada;
      }

      .cls-3 {
        fill: #f6f6f6;
      }

      .cls-4 {
        fill: #fff;
      }
    </style>
  </defs>
  <circle class="cls-1" cx="1047.31" cy="1014.36" r="915.06"/>
  <path class="cls-2" d="M522.12,711.67H1572.49a0,0,0,0,1,0,0v808.86a69.77,69.77,0,0,1-69.77,69.77H591.89a69.77,69.77,0,0,1-69.77-69.77V711.67A0,0,0,0,1,522.12,711.67Z"/>
  <rect class="cls-3" x="454.18" y="692.58" width="237.25" height="368.78" rx="111.63"/>
  <rect class="cls-3" x="691.43" y="692.58" width="237.25" height="368.78" rx="111.63"/>
  <rect class="cls-3" x="928.68" y="692.58" width="237.25" height="368.78" rx="111.63"/>
  <rect class="cls-3" x="1165.93" y="692.58" width="237.25" height="368.78" rx="111.63"/>
  <rect class="cls-3" x="1403.19" y="692.58" width="237.25" height="368.78" rx="111.63"/>
  <polygon class="cls-3" points="1635.92 772.96 458.32 774.26 607.99 438.43 1518.84 438.43 1635.92 772.96"/>
  <rect class="cls-4" x="581.21" y="1143.01" width="229.58" height="229.58" rx="47.5"/>
  <rect class="cls-4" x="1260.06" y="1143.01" width="229.58" height="229.58" rx="47.5"/>
  <path class="cls-4" d="M992.58,1220.19H1102a60.07,60.07,0,0,1,60.07,60.07v307.07a0,0,0,0,1,0,0H932.52a0,0,0,0,1,0,0V1280.26A60.07,60.07,0,0,1,992.58,1220.19Z"/>
</svg>
