<svg width="549" height="372" viewBox="0 0 549 372" fill="none" xmlns="http://www.w3.org/2000/svg">
<g opacity="0.28">
<path d="M381.181 223.081L369.869 242.658L358.554 223.081L381.181 223.081Z" fill="url(#paint0_linear_59_2090)"/>
<path d="M369.87 178.267L380.938 197.425L358.801 197.425L369.87 178.267Z" fill="url(#paint1_linear_59_2090)"/>
<path d="M347.514 165.375L336.445 184.533L325.383 165.375L347.514 165.375Z" fill="url(#paint2_linear_59_2090)"/>
<path d="M303.026 177.634L314.653 197.748L291.404 197.748L303.026 177.634Z" fill="url(#paint3_linear_59_2090)"/>
<path d="M314.993 222.702L303.025 243.416L291.056 222.702L314.993 222.702Z" fill="url(#paint4_linear_59_2090)"/>
<path d="M336.445 235.281L348.237 255.692L324.657 255.692L336.445 235.281Z" fill="url(#paint5_linear_59_2090)"/>
<path d="M403.289 235.301L415.065 255.683L391.513 255.683L403.289 235.301Z" fill="url(#paint6_linear_59_2090)"/>
<path d="M414.832 165.1L403.289 185.079L391.746 165.1L414.832 165.1Z" fill="url(#paint7_linear_59_2090)"/>
<path d="M336.445 120.436L347.498 139.571L325.396 139.571L336.445 120.436Z" fill="url(#paint8_linear_59_2090)"/>
<path d="M281.697 164.785L269.605 185.707L257.516 164.785L281.697 164.785Z" fill="url(#paint9_linear_59_2090)"/>
<path d="M269.606 234.739L281.875 255.968L257.34 255.968L269.606 234.739Z" fill="url(#paint10_linear_59_2090)"/>
<path d="M348.592 280.449L336.446 301.469L324.303 280.449L348.592 280.449Z" fill="url(#paint11_linear_59_2090)"/>
<path d="M449.138 222.442L436.71 243.942L424.286 222.442L449.138 222.442Z" fill="url(#paint12_linear_59_2090)"/>
<path d="M436.71 177.339L448.581 197.892L424.839 197.892L436.71 177.339Z" fill="url(#paint13_linear_59_2090)"/>
<path d="M403.29 120.091L414.643 139.741L391.937 139.741L403.29 120.091Z" fill="url(#paint14_linear_59_2090)"/>
<path d="M381.339 107.294L369.869 127.143L358.396 107.294L381.339 107.294Z" fill="url(#paint15_linear_59_2090)"/>
<path d="M314.657 107.205L303.026 127.329L291.398 107.205L314.657 107.205Z" fill="url(#paint16_linear_59_2090)"/>
<path d="M269.605 119.418L281.542 140.079L257.67 140.079L269.605 119.418Z" fill="url(#paint17_linear_59_2090)"/>
<path d="M236.181 175.652L249.519 198.735L222.844 198.735L236.181 175.652Z" fill="url(#paint18_linear_59_2090)"/>
<path d="M249.749 221.78L236.181 245.263L222.616 221.78L249.749 221.78Z" fill="url(#paint19_linear_59_2090)"/>
<path d="M281.751 280.449L269.605 301.469L257.462 280.449L281.751 280.449Z" fill="url(#paint20_linear_59_2090)"/>
<path d="M303.025 292.719L315.174 313.745L290.879 313.745L303.025 292.719Z" fill="url(#paint21_linear_59_2090)"/>
<path d="M369.869 292.88L381.876 313.669L357.862 313.669L369.869 292.88Z" fill="url(#paint22_linear_59_2090)"/>
<path d="M415.156 280.61L403.289 301.15L391.421 280.61L415.156 280.61Z" fill="url(#paint23_linear_59_2090)"/>
<path d="M483.06 279.999L470.133 302.374L457.203 279.999L483.06 279.999Z" fill="url(#paint24_linear_59_2090)"/>
<path d="M470.133 233.88L483.139 256.4L457.124 256.4L470.133 233.88Z" fill="url(#paint25_linear_59_2090)"/>
<path d="M481.768 165.043L470.133 185.192L458.499 165.043L481.768 165.043Z" fill="url(#paint26_linear_59_2090)"/>
<path d="M470.134 120.9L480.782 139.34L459.48 139.34L470.134 120.9Z" fill="url(#paint27_linear_59_2090)"/>
<path d="M448.084 107.354L436.709 127.035L425.338 107.354L448.084 107.354Z" fill="url(#paint28_linear_59_2090)"/>
<path d="M369.869 61.4355L381.921 82.2979L357.816 82.2979L369.869 61.4355Z" fill="url(#paint29_linear_59_2090)"/>
<path d="M348.408 49.1624L336.446 69.8638L324.487 49.1624L348.408 49.1624Z" fill="url(#paint30_linear_59_2090)"/>
<path d="M303.025 61.6379L314.906 82.1973L291.145 82.1973L303.025 61.6379Z" fill="url(#paint31_linear_59_2090)"/>
<path d="M248.413 106.855L236.182 128.024L223.957 106.855L248.413 106.855Z" fill="url(#paint32_linear_59_2090)"/>
<path d="M202.761 118.74L215.292 140.423L190.235 140.423L202.761 118.74Z" fill="url(#paint33_linear_59_2090)"/>
<path d="M216.642 163.752L202.761 187.775L188.887 163.752L216.642 163.752Z" fill="url(#paint34_linear_59_2090)"/>
<path d="M202.761 231.918L217.472 257.378L188.052 257.378L202.761 231.918Z" fill="url(#paint35_linear_59_2090)"/>
<path d="M216.604 279.476L202.761 303.423L188.924 279.476L216.604 279.476Z" fill="url(#paint36_linear_59_2090)"/>
<path d="M236.181 292.151L248.826 314.033L223.542 314.033L236.181 292.151Z" fill="url(#paint37_linear_59_2090)"/>
<path d="M315.33 338.207L303.026 359.502L290.725 338.207L315.33 338.207Z" fill="url(#paint38_linear_59_2090)"/>
<path d="M336.446 349.761L349.297 372L323.598 372L336.446 349.761Z" fill="url(#paint39_linear_59_2090)"/>
<path d="M382.03 338.283L369.869 359.341L357.704 338.283L382.03 338.283Z" fill="url(#paint40_linear_59_2090)"/>
<path d="M436.709 292.056L449.434 314.084L423.986 314.084L436.709 292.056Z" fill="url(#paint41_linear_59_2090)"/>
<path d="M503.554 291.942L516.376 314.137L490.733 314.137L503.554 291.942Z" fill="url(#paint42_linear_59_2090)"/>
<path d="M515.854 222.509L503.554 243.804L491.249 222.509L515.854 222.509Z" fill="url(#paint43_linear_59_2090)"/>
<path d="M503.553 178.012L514.846 197.558L492.261 197.558L503.553 178.012Z" fill="url(#paint44_linear_59_2090)"/>
<path d="M512.837 108.551L503.554 124.627L494.265 108.551L512.837 108.551Z" fill="url(#paint45_linear_59_2090)"/>
<path d="M436.709 62.262L448.046 81.8835L425.376 81.8835L436.709 62.262Z" fill="url(#paint46_linear_59_2090)"/>
<path d="M415.659 48.9248L403.289 70.3367L390.919 48.9248L415.659 48.9248Z" fill="url(#paint47_linear_59_2090)"/>
<path d="M336.445 2.77957L349.201 24.8545L323.692 24.8545L336.445 2.77957Z" fill="url(#paint48_linear_59_2090)"/>
<path d="M281.57 49.1624L269.604 69.8638L257.642 49.1624L281.57 49.1624Z" fill="url(#paint49_linear_59_2090)"/>
<path d="M236.181 61.7475L247.964 82.1426L224.399 82.1426L236.181 61.7475Z" fill="url(#paint50_linear_59_2090)"/>
<path d="M180.64 107.395L169.337 126.944L158.048 107.395L180.64 107.395Z" fill="url(#paint51_linear_59_2090)"/>
<path d="M169.337 174.44L183.73 199.344L154.954 199.344L169.337 174.44Z" fill="url(#paint52_linear_59_2090)"/>
<path d="M184.33 220.956L169.337 246.905L154.347 220.956L184.33 220.956Z" fill="url(#paint53_linear_59_2090)"/>
<path d="M169.338 291.067L182.928 314.573L155.76 314.573L169.338 291.067Z" fill="url(#paint54_linear_59_2090)"/>
<path d="M248.347 338.283L236.182 359.341L224.023 338.283L248.347 338.283Z" fill="url(#paint55_linear_59_2090)"/>
<path d="M269.605 350.683L281.653 371.54L257.554 371.54L269.605 350.683Z" fill="url(#paint56_linear_59_2090)"/>
<path d="M403.29 350.683L415.337 371.54L391.242 371.54L403.29 350.683Z" fill="url(#paint57_linear_59_2090)"/>
<path d="M448.953 338.242L436.709 359.433L424.469 338.242L448.953 338.242Z" fill="url(#paint58_linear_59_2090)"/>
<path d="M549 280.517L536.978 301.333L524.949 280.517L549 280.517Z" fill="url(#paint59_linear_59_2090)"/>
<path d="M536.978 235.216L548.827 255.734L525.125 255.734L536.978 235.216Z" fill="url(#paint60_linear_59_2090)"/>
<path d="M546.522 166.253L536.978 182.777L527.428 166.253L546.522 166.253Z" fill="url(#paint61_linear_59_2090)"/>
<path d="M536.978 123.934L545.003 137.822L528.945 137.822L536.978 123.934Z" fill="url(#paint62_linear_59_2090)"/>
<path d="M503.554 64.8869L512.616 80.574L494.488 80.574L503.554 64.8869Z" fill="url(#paint63_linear_59_2090)"/>
<path d="M480.829 49.8912L470.134 68.4043L459.438 49.8912L480.829 49.8912Z" fill="url(#paint64_linear_59_2090)"/>
<path d="M403.29 1.80995L416.883 25.3406L389.697 25.3406L403.29 1.80995Z" fill="url(#paint65_linear_59_2090)"/>
<path d="M378.559 0.316725L378.243 0.316725L378.243 0.94825L377.927 0.94825L377.927 1.57977L377.611 1.57977L377.611 1.89554L377.295 1.89554L377.295 2.52706L376.979 2.52706L376.979 3.15859L376.663 3.15859L376.663 3.79011L376.347 3.79011L376.347 4.10587L376.031 4.10587L376.031 4.7374L375.715 4.7374L375.715 5.36892L375.399 5.36892L375.399 6.00045L375.083 6.00045L375.083 6.31621L374.767 6.31621L374.767 6.94774L374.451 6.94774L374.451 7.57926L374.135 7.57926L374.135 8.21079L373.819 8.21079L373.819 8.52655L373.503 8.52655L373.503 9.15807L373.187 9.15807L373.187 9.7896L372.871 9.7896L372.871 10.1054L372.555 10.1054L372.555 10.7369L372.239 10.7369L372.239 11.3684L371.923 11.3684L371.923 11.9999L371.607 11.9999L371.607 12.3157L371.291 12.3157L371.291 12.9472L370.975 12.9472L370.975 13.5787L370.659 13.5787L370.659 14.2103L370.343 14.2103L370.343 14.526L370.027 14.526L370.027 14.8418L369.711 14.8418L369.711 14.526L369.395 14.526L369.395 14.2103L369.079 14.2103L369.079 13.5787L368.763 13.5787L368.763 12.9472L368.447 12.9472L368.447 12.3157L368.132 12.3157L368.132 11.9999L367.816 11.9999L367.816 11.3684L367.5 11.3684L367.5 10.7369L367.184 10.7369L367.184 10.1054L366.868 10.1054L366.868 9.7896L366.552 9.7896L366.552 9.15807L366.236 9.15807L366.236 8.52655L365.92 8.52655L365.92 8.21079L365.604 8.21079L365.604 7.57926L365.288 7.57926L365.288 6.94774L364.972 6.94774L364.972 6.31621L364.656 6.31621L364.656 6.00045L364.34 6.00045L364.34 5.36892L364.024 5.36892L364.024 4.7374L363.708 4.7374L363.708 4.10587L363.392 4.10587L363.392 3.79011L363.076 3.79011L363.076 3.15859L362.76 3.15859L362.76 2.52706L362.444 2.52706L362.444 2.2113L362.128 2.2113L362.128 1.57977L361.812 1.57977L361.812 0.948249L361.496 0.948249L361.496 0.316724L361.18 0.316724L361.18 0.000961498L378.559 0.000962257" fill="url(#paint66_linear_59_2090)"/>
<path d="M310.624 0.631708L310.308 0.631708L310.308 1.26323L309.992 1.26323L309.992 1.89476L309.676 1.89476L309.676 2.21052L309.36 2.21052L309.36 2.84205L309.044 2.84205L309.044 3.47357L308.728 3.47357L308.728 4.1051L308.412 4.1051L308.412 4.42086L308.096 4.42086L308.096 5.05238L307.78 5.05238L307.78 5.68391L307.464 5.68391L307.464 5.99967L307.148 5.99967L307.148 6.6312L306.832 6.6312L306.832 7.26272L306.516 7.26272L306.516 7.89424L306.2 7.89424L306.2 8.21001L305.884 8.21001L305.884 8.84153L305.568 8.84153L305.568 9.47306L305.252 9.47306L305.252 10.1046L304.937 10.1046L304.937 10.4203L304.621 10.4203L304.621 11.0519L304.305 11.0519L304.305 11.6834L303.989 11.6834L303.989 12.3149L303.673 12.3149L303.673 12.6307L303.357 12.6307L303.357 13.2622L302.725 13.2622L302.725 12.6307L302.409 12.6307L302.409 12.3149L302.093 12.3149L302.093 11.6834L301.777 11.6834L301.777 11.0519L301.461 11.0519L301.461 10.4203L301.145 10.4203L301.145 10.1046L300.829 10.1046L300.829 9.47306L300.513 9.47306L300.513 8.84153L300.197 8.84153L300.197 8.52577L299.881 8.52577L299.881 7.89424L299.565 7.89424L299.565 7.26272L299.249 7.26272L299.249 6.6312L298.933 6.6312L298.933 6.31543L298.617 6.31543L298.617 5.68391L298.301 5.68391L298.301 5.05238L297.985 5.05238L297.985 4.42086L297.669 4.42086L297.669 4.1051L297.353 4.1051L297.353 3.47357L297.037 3.47357L297.037 2.84205L296.721 2.84205L296.721 2.52628L296.405 2.52628L296.405 1.89476L296.089 1.89476L296.089 1.26323L295.773 1.26323L295.773 0.631707L295.457 0.631707L295.457 0.315946L295.141 0.315946L295.141 0.000183383L310.624 0.000184059" fill="url(#paint67_linear_59_2090)"/>
<path d="M269.605 3.46473L281.764 24.5134L257.45 24.5134L269.605 3.46473Z" fill="url(#paint68_linear_59_2090)"/>
<path d="M213.463 49.8883L202.761 68.4077L192.065 49.8883L213.463 49.8883Z" fill="url(#paint69_linear_59_2090)"/>
<path d="M169.338 63.9428L179.221 81.0444L159.463 81.0444L169.338 63.9428Z" fill="url(#paint70_linear_59_2090)"/>
<path d="M135.923 121.383L146.154 139.097L125.686 139.097L135.923 121.383Z" fill="url(#paint71_linear_59_2090)"/>
<path d="M148.146 164.706L135.924 185.868L123.696 164.706L148.146 164.706Z" fill="url(#paint72_linear_59_2090)"/>
<path d="M135.923 232.851L149.82 256.915L122.021 256.915L135.923 232.851Z" fill="url(#paint73_linear_59_2090)"/>
<path d="M149.112 279.848L135.924 302.681L122.729 279.848L149.112 279.848Z" fill="url(#paint74_linear_59_2090)"/>
<path d="M181.565 338.248L169.337 359.411L157.116 338.248L181.565 338.248Z" fill="url(#paint75_linear_59_2090)"/>
<path d="M202.76 350.845L214.676 371.461L190.851 371.461L202.76 350.845Z" fill="url(#paint76_linear_59_2090)"/>
<path d="M470.134 350.94L481.961 371.414L458.304 371.414L470.134 350.94Z" fill="url(#paint77_linear_59_2090)"/>
<path d="M515.463 338.434L503.554 359.044L491.638 338.434L515.463 338.434Z" fill="url(#paint78_linear_59_2090)"/>
<path d="M544.27 51.8517L536.978 64.4854L529.678 51.8517L544.27 51.8517Z" fill="url(#paint79_linear_59_2090)"/>
<path d="M470.134 3.92866L481.888 24.2764L458.376 24.2764L470.134 3.92866Z" fill="url(#paint80_linear_59_2090)"/>
<path d="M444.913 0.632421L444.597 0.632421L444.597 1.26395L444.281 1.26395L444.281 1.57971L443.965 1.57971L443.965 2.21123L443.649 2.21123L443.649 2.84276L443.333 2.84276L443.333 3.15852L443.017 3.15852L443.017 3.79004L442.701 3.79004L442.701 4.42157L442.385 4.42157L442.385 5.05309L442.069 5.05309L442.069 5.36886L441.753 5.36886L441.753 6.00038L441.437 6.00038L441.437 6.63191L441.121 6.63191L441.121 7.26343L440.805 7.26343L440.805 7.57919L440.489 7.57919L440.489 8.21072L440.174 8.21072L440.174 8.84224L439.858 8.84224L439.858 9.47377L439.542 9.47377L439.542 9.78953L439.226 9.78953L439.226 10.4211L438.91 10.4211L438.91 11.0526L438.594 11.0526L438.594 11.3683L438.278 11.3683L438.278 11.9999L437.962 11.9999L437.962 12.6314L437.646 12.6314L437.646 13.2629L437.33 13.2629L437.33 13.5787L437.014 13.5787L437.014 14.2102L436.382 14.2102L436.382 13.5787L436.066 13.5787L436.066 13.2629L435.75 13.2629L435.75 12.6314L435.434 12.6314L435.434 11.9999L435.118 11.9999L435.118 11.3683L434.802 11.3683L434.802 11.0526L434.486 11.0526L434.486 10.4211L434.17 10.4211L434.17 9.78953L433.854 9.78953L433.854 9.15801L433.538 9.15801L433.538 8.84224L433.222 8.84224L433.222 8.21072L432.906 8.21072L432.906 7.57919L432.59 7.57919L432.59 6.94767L432.274 6.94767L432.274 6.63191L431.958 6.63191L431.958 6.00038L431.642 6.00038L431.642 5.36886L431.326 5.36886L431.326 5.05309L431.01 5.05309L431.01 4.42157L430.694 4.42157L430.694 3.79004L430.378 3.79004L430.378 3.15852L430.062 3.15852L430.062 2.84276L429.746 2.84276L429.746 2.21123L429.43 2.21123L429.43 1.57971L429.114 1.57971L429.114 0.948182L428.799 0.948182L428.799 0.63242L428.483 0.63242L428.483 0.000894782L444.913 0.0008955" fill="url(#paint81_linear_59_2090)"/>
<path d="M242.69 0.632486L242.374 0.632486L242.374 1.26401L242.058 1.26401L242.058 1.89554L241.743 1.89554L241.743 2.2113L241.427 2.2113L241.427 2.84282L241.111 2.84282L241.111 3.47435L240.795 3.47435L240.795 3.79011L240.479 3.79011L240.479 4.42164L240.163 4.42164L240.163 5.05316L239.847 5.05316L239.847 5.68468L239.531 5.68468L239.531 6.00045L239.215 6.00045L239.215 6.63197L238.899 6.63197L238.899 7.2635L238.583 7.2635L238.583 7.89502L238.267 7.89502L238.267 8.21078L237.951 8.21078L237.951 8.84231L237.635 8.84231L237.635 9.47383L237.319 9.47383L237.319 10.1054L237.003 10.1054L237.003 10.4211L236.687 10.4211L236.687 11.0526L236.371 11.0526L236.371 11.3684L236.055 11.3684L236.055 11.0526L235.739 11.0526L235.739 10.7369L235.423 10.7369L235.423 10.1054L235.107 10.1054L235.107 9.47383L234.791 9.47383L234.791 8.84231L234.475 8.84231L234.475 8.52655L234.159 8.52655L234.159 7.89502L233.843 7.89502L233.843 7.2635L233.527 7.2635L233.527 6.63197L233.211 6.63197L233.211 6.31621L232.895 6.31621L232.895 5.68468L232.579 5.68468L232.579 5.05316L232.263 5.05316L232.263 4.7374L231.947 4.7374L231.947 4.10587L231.631 4.10587L231.631 3.47435L231.315 3.47435L231.315 2.84282L230.999 2.84282L230.999 2.52706L230.683 2.52706L230.683 1.89554L230.368 1.89554L230.368 1.26401L230.052 1.26401L230.052 0.632486L229.736 0.632486L229.736 0.316723L229.42 0.316723L229.42 0.000960724L242.69 0.000961304" fill="url(#paint82_linear_59_2090)"/>
<path d="M202.761 6.1488L212.594 23.1653L192.931 23.1653L202.761 6.1488Z" fill="url(#paint83_linear_59_2090)"/>
<path d="M143.102 51.9158L135.923 64.3538L128.738 51.9158L143.102 51.9158Z" fill="url(#paint84_linear_59_2090)"/>
<path d="M102.5 69.2917L107.745 78.3699L97.258 78.3699L102.5 69.2917Z" fill="url(#paint85_linear_59_2090)"/>
<path d="M109.072 110.12L102.5 121.493L95.9247 110.12L109.072 110.12Z" fill="url(#paint86_linear_59_2090)"/>
<path d="M102.5 179.3L112.677 196.916L92.3191 196.916L102.5 179.3Z" fill="url(#paint87_linear_59_2090)"/>
<path d="M113.91 223.027L102.5 242.775L91.0901 223.027L113.91 223.027Z" fill="url(#paint88_linear_59_2090)"/>
<path d="M102.5 293.884L113.641 313.168L91.3619 313.168L102.5 293.884Z" fill="url(#paint89_linear_59_2090)"/>
<path d="M112.402 339.594L102.5 356.73L92.594 339.594L112.402 339.594Z" fill="url(#paint90_linear_59_2090)"/>
<path d="M135.923 352.382L146.499 370.693L125.342 370.693L135.923 352.382Z" fill="url(#paint91_linear_59_2090)"/>
<path d="M536.978 352.78L547.213 370.491L526.74 370.491L536.978 352.78Z" fill="url(#paint92_linear_59_2090)"/>
<path d="M536.977 8.33976L544.901 22.0723L529.044 22.0723L536.977 8.33976Z" fill="url(#paint93_linear_59_2090)"/>
<path d="M510.003 0.632574L509.687 0.632574L509.687 1.2641L509.371 1.2641L509.371 1.57986L509.055 1.57986L509.055 2.21139L508.739 2.21139L508.739 2.84291L508.423 2.84291L508.423 3.15867L508.107 3.15867L508.107 3.7902L507.791 3.7902L507.791 4.42172L507.475 4.42172L507.475 5.05325L507.159 5.05325L507.159 5.36901L506.843 5.36901L506.843 6.00054L506.527 6.00054L506.527 6.63206L506.211 6.63206L506.211 7.26358L505.895 7.26358L505.895 7.57935L505.579 7.57935L505.579 8.21087L505.263 8.21087L505.263 8.8424L504.947 8.8424L504.947 9.15816L504.631 9.15816L504.631 9.78968L504.315 9.78968L504.315 10.4212L503.999 10.4212L503.999 11.0527L503.368 11.0527L503.368 10.737L503.052 10.737L503.052 10.4212L502.736 10.4212L502.736 9.78968L502.42 9.78968L502.42 9.15816L502.104 9.15816L502.104 8.52663L501.788 8.52663L501.788 8.21087L501.472 8.21087L501.472 7.57935L501.156 7.57935L501.156 6.94782L500.84 6.94782L500.84 6.63206L500.524 6.63206L500.524 6.00054L500.208 6.00054L500.208 5.36901L499.892 5.36901L499.892 4.73749L499.576 4.73749L499.576 4.42172L499.26 4.42172L499.26 3.7902L498.944 3.7902L498.944 3.15867L498.628 3.15867L498.628 2.52715L498.312 2.52715L498.312 2.21139L497.996 2.21139L497.996 1.57986L497.68 1.57986L497.68 0.948336L497.364 0.948336L497.364 0.316811L497.048 0.316811L497.048 0.00104848L510.003 0.00104904" fill="url(#paint94_linear_59_2090)"/>
<path d="M173.492 0.632173L173.176 0.632173L173.176 1.2637L172.86 1.2637L172.86 1.57946L172.544 1.57946L172.544 2.21098L172.228 2.21098L172.228 2.84251L171.912 2.84251L171.912 3.47403L171.596 3.47403L171.596 3.7898L171.28 3.7898L171.28 4.42132L170.964 4.42132L170.964 5.05285L170.648 5.05285L170.648 5.68437L170.332 5.68437L170.332 6.00013L170.016 6.00013L170.016 6.63166L169.701 6.63166L169.701 7.26318L169.069 7.26318L169.069 6.94742L168.753 6.94742L168.753 6.3159L168.437 6.3159L168.437 5.68437L168.121 5.68437L168.121 5.05285L167.805 5.05285L167.805 4.73708L167.489 4.73708L167.489 4.10556L167.173 4.10556L167.173 3.47403L166.857 3.47403L166.857 2.84251L166.541 2.84251L166.541 2.52675L166.225 2.52675L166.225 1.89522L165.909 1.89522L165.909 1.2637L165.593 1.2637L165.593 0.947935L165.277 0.947935L165.277 0.31641L164.961 0.31641L164.961 0.000647172L173.492 0.000647545" fill="url(#paint95_linear_59_2090)"/>
<path d="M135.923 10.4153L142.06 21.0344L129.784 21.0344L135.923 10.4153Z" fill="url(#paint96_linear_59_2090)"/>
<path d="M71.459 54.6847L69.0797 58.8086L66.7005 54.6847L71.459 54.6847Z" fill="url(#paint97_linear_59_2090)"/>
<path d="M69.0798 128.207L73.396 135.684L64.7605 135.684L69.0798 128.207Z" fill="url(#paint98_linear_59_2090)"/>
<path d="M74.8647 168.425L69.0793 178.435L63.2938 168.425L74.8647 168.425Z" fill="url(#paint99_linear_59_2090)"/>
<path d="M69.0791 239.557L77.1743 253.561L60.987 253.561L69.0791 239.557Z" fill="url(#paint100_linear_59_2090)"/>
<path d="M77.2192 282.762L69.0798 296.852L60.934 282.762L77.2192 282.762Z" fill="url(#paint101_linear_59_2090)"/>
<path d="M69.0798 357.103L75.5635 368.329L62.5928 368.329L69.0798 357.103Z" fill="url(#paint102_linear_59_2090)"/>
<path d="M103.979 0.316363L103.663 0.316363L103.663 0.632125L103.347 0.632125L103.347 1.26365L103.031 1.26365L103.031 1.89517L102.715 1.89517L102.715 2.21094L102.083 2.21094L102.083 1.57941L101.767 1.57941L101.767 0.947888L101.451 0.947888L101.451 0.316363L101.135 0.316363L101.135 0.000600214L103.979 0.000600338" fill="url(#paint103_linear_59_2090)"/>
<path d="M69.0795 15.3694L70.9185 18.5586L67.2374 18.5586L69.0795 15.3694Z" fill="url(#paint104_linear_59_2090)"/>
<path d="M35.6593 74.1232L36.7178 75.9578L34.5976 75.9578L35.6593 74.1232Z" fill="url(#paint105_linear_59_2090)"/>
<path d="M37.1982 113.022L35.6595 115.69L34.1175 113.022L37.1982 113.022Z" fill="url(#paint106_linear_59_2090)"/>
<path d="M35.6589 187.255L38.9419 192.938L32.3728 192.938L35.6589 187.255Z" fill="url(#paint107_linear_59_2090)"/>
<path d="M39.8428 227.195L35.6593 234.435L31.4758 227.195L39.8428 227.195Z" fill="url(#paint108_linear_59_2090)"/>
<path d="M35.6588 301.345L40.332 309.435L30.9793 309.435L35.6588 301.345Z" fill="url(#paint109_linear_59_2090)"/>
<path d="M39.8804 342.872L35.659 350.178L31.4344 342.872L39.8804 342.872Z" fill="url(#paint110_linear_59_2090)"/>
<path d="M2.23558 132.567L2.77588 133.505L1.69528 133.505L2.23558 132.567Z" fill="url(#paint111_linear_59_2090)"/>
<path d="M3.19629 171.204L2.23572 172.865L1.27832 171.204L3.19629 171.204Z" fill="url(#paint112_linear_59_2090)"/>
<path d="M2.23537 246.737L4.09961 249.971L0.374284 249.971L2.23537 246.737Z" fill="url(#paint113_linear_59_2090)"/>
<path d="M4.27686 286.274L2.23569 289.817L0.194519 286.274L4.27686 286.274Z" fill="url(#paint114_linear_59_2090)"/>
<path d="M2.23593 362.67L3.89795 365.546L0.577078 365.546L2.23593 362.67Z" fill="url(#paint115_linear_59_2090)"/>
</g>
<defs>
<linearGradient id="paint0_linear_59_2090" x1="381.181" y1="232.87" x2="358.554" y2="232.87" gradientUnits="userSpaceOnUse">
<stop stop-color="#C55CCE"/>
<stop offset="1" stop-color="#2E2E2D" stop-opacity="0"/>
</linearGradient>
<linearGradient id="paint1_linear_59_2090" x1="380.938" y1="187.846" x2="358.801" y2="187.846" gradientUnits="userSpaceOnUse">
<stop stop-color="#C55CCE"/>
<stop offset="1" stop-color="#2E2E2D" stop-opacity="0"/>
</linearGradient>
<linearGradient id="paint2_linear_59_2090" x1="347.514" y1="174.954" x2="325.383" y2="174.954" gradientUnits="userSpaceOnUse">
<stop stop-color="#C55CCE"/>
<stop offset="1" stop-color="#2E2E2D" stop-opacity="0"/>
</linearGradient>
<linearGradient id="paint3_linear_59_2090" x1="314.653" y1="187.691" x2="291.404" y2="187.691" gradientUnits="userSpaceOnUse">
<stop stop-color="#C55CCE"/>
<stop offset="1" stop-color="#2E2E2D" stop-opacity="0"/>
</linearGradient>
<linearGradient id="paint4_linear_59_2090" x1="314.993" y1="233.059" x2="291.056" y2="233.059" gradientUnits="userSpaceOnUse">
<stop stop-color="#C55CCE"/>
<stop offset="1" stop-color="#2E2E2D" stop-opacity="0"/>
</linearGradient>
<linearGradient id="paint5_linear_59_2090" x1="348.237" y1="245.487" x2="324.657" y2="245.487" gradientUnits="userSpaceOnUse">
<stop stop-color="#C55CCE"/>
<stop offset="1" stop-color="#2E2E2D" stop-opacity="0"/>
</linearGradient>
<linearGradient id="paint6_linear_59_2090" x1="415.065" y1="245.492" x2="391.513" y2="245.492" gradientUnits="userSpaceOnUse">
<stop stop-color="#C55CCE"/>
<stop offset="1" stop-color="#2E2E2D" stop-opacity="0"/>
</linearGradient>
<linearGradient id="paint7_linear_59_2090" x1="414.832" y1="175.09" x2="391.746" y2="175.09" gradientUnits="userSpaceOnUse">
<stop stop-color="#C55CCE"/>
<stop offset="1" stop-color="#2E2E2D" stop-opacity="0"/>
</linearGradient>
<linearGradient id="paint8_linear_59_2090" x1="347.498" y1="130.004" x2="325.396" y2="130.004" gradientUnits="userSpaceOnUse">
<stop stop-color="#C55CCE"/>
<stop offset="1" stop-color="#2E2E2D" stop-opacity="0"/>
</linearGradient>
<linearGradient id="paint9_linear_59_2090" x1="281.697" y1="175.246" x2="257.516" y2="175.246" gradientUnits="userSpaceOnUse">
<stop stop-color="#C55CCE"/>
<stop offset="1" stop-color="#2E2E2D" stop-opacity="0"/>
</linearGradient>
<linearGradient id="paint10_linear_59_2090" x1="281.875" y1="245.353" x2="257.34" y2="245.353" gradientUnits="userSpaceOnUse">
<stop stop-color="#C55CCE"/>
<stop offset="1" stop-color="#2E2E2D" stop-opacity="0"/>
</linearGradient>
<linearGradient id="paint11_linear_59_2090" x1="348.592" y1="290.959" x2="324.303" y2="290.959" gradientUnits="userSpaceOnUse">
<stop stop-color="#C55CCE"/>
<stop offset="1" stop-color="#2E2E2D" stop-opacity="0"/>
</linearGradient>
<linearGradient id="paint12_linear_59_2090" x1="449.138" y1="233.192" x2="424.286" y2="233.192" gradientUnits="userSpaceOnUse">
<stop stop-color="#C55CCE"/>
<stop offset="1" stop-color="#2E2E2D" stop-opacity="0"/>
</linearGradient>
<linearGradient id="paint13_linear_59_2090" x1="448.581" y1="187.616" x2="424.839" y2="187.616" gradientUnits="userSpaceOnUse">
<stop stop-color="#C55CCE"/>
<stop offset="1" stop-color="#2E2E2D" stop-opacity="0"/>
</linearGradient>
<linearGradient id="paint14_linear_59_2090" x1="414.643" y1="129.916" x2="391.937" y2="129.916" gradientUnits="userSpaceOnUse">
<stop stop-color="#C55CCE"/>
<stop offset="1" stop-color="#2E2E2D" stop-opacity="0"/>
</linearGradient>
<linearGradient id="paint15_linear_59_2090" x1="381.339" y1="117.218" x2="358.396" y2="117.218" gradientUnits="userSpaceOnUse">
<stop stop-color="#C55CCE"/>
<stop offset="1" stop-color="#2E2E2D" stop-opacity="0"/>
</linearGradient>
<linearGradient id="paint16_linear_59_2090" x1="314.657" y1="117.267" x2="291.398" y2="117.267" gradientUnits="userSpaceOnUse">
<stop stop-color="#C55CCE"/>
<stop offset="1" stop-color="#2E2E2D" stop-opacity="0"/>
</linearGradient>
<linearGradient id="paint17_linear_59_2090" x1="281.542" y1="129.749" x2="257.67" y2="129.749" gradientUnits="userSpaceOnUse">
<stop stop-color="#C55CCE"/>
<stop offset="1" stop-color="#2E2E2D" stop-opacity="0"/>
</linearGradient>
<linearGradient id="paint18_linear_59_2090" x1="249.519" y1="187.194" x2="222.844" y2="187.194" gradientUnits="userSpaceOnUse">
<stop stop-color="#C55CCE"/>
<stop offset="1" stop-color="#2E2E2D" stop-opacity="0"/>
</linearGradient>
<linearGradient id="paint19_linear_59_2090" x1="249.749" y1="233.522" x2="222.616" y2="233.522" gradientUnits="userSpaceOnUse">
<stop stop-color="#C55CCE"/>
<stop offset="1" stop-color="#2E2E2D" stop-opacity="0"/>
</linearGradient>
<linearGradient id="paint20_linear_59_2090" x1="281.751" y1="290.959" x2="257.462" y2="290.959" gradientUnits="userSpaceOnUse">
<stop stop-color="#C55CCE"/>
<stop offset="1" stop-color="#2E2E2D" stop-opacity="0"/>
</linearGradient>
<linearGradient id="paint21_linear_59_2090" x1="315.174" y1="303.232" x2="290.879" y2="303.232" gradientUnits="userSpaceOnUse">
<stop stop-color="#C55CCE"/>
<stop offset="1" stop-color="#2E2E2D" stop-opacity="0"/>
</linearGradient>
<linearGradient id="paint22_linear_59_2090" x1="381.876" y1="303.275" x2="357.862" y2="303.275" gradientUnits="userSpaceOnUse">
<stop stop-color="#C55CCE"/>
<stop offset="1" stop-color="#2E2E2D" stop-opacity="0"/>
</linearGradient>
<linearGradient id="paint23_linear_59_2090" x1="415.156" y1="290.88" x2="391.421" y2="290.88" gradientUnits="userSpaceOnUse">
<stop stop-color="#C55CCE"/>
<stop offset="1" stop-color="#2E2E2D" stop-opacity="0"/>
</linearGradient>
<linearGradient id="paint24_linear_59_2090" x1="483.06" y1="291.187" x2="457.203" y2="291.187" gradientUnits="userSpaceOnUse">
<stop stop-color="#C55CCE"/>
<stop offset="1" stop-color="#2E2E2D" stop-opacity="0"/>
</linearGradient>
<linearGradient id="paint25_linear_59_2090" x1="483.139" y1="245.14" x2="457.124" y2="245.14" gradientUnits="userSpaceOnUse">
<stop stop-color="#C55CCE"/>
<stop offset="1" stop-color="#2E2E2D" stop-opacity="0"/>
</linearGradient>
<linearGradient id="paint26_linear_59_2090" x1="481.768" y1="175.117" x2="458.499" y2="175.117" gradientUnits="userSpaceOnUse">
<stop stop-color="#C55CCE"/>
<stop offset="1" stop-color="#2E2E2D" stop-opacity="0"/>
</linearGradient>
<linearGradient id="paint27_linear_59_2090" x1="480.782" y1="130.12" x2="459.48" y2="130.12" gradientUnits="userSpaceOnUse">
<stop stop-color="#C55CCE"/>
<stop offset="1" stop-color="#2E2E2D" stop-opacity="0"/>
</linearGradient>
<linearGradient id="paint28_linear_59_2090" x1="448.084" y1="117.194" x2="425.338" y2="117.194" gradientUnits="userSpaceOnUse">
<stop stop-color="#C55CCE"/>
<stop offset="1" stop-color="#2E2E2D" stop-opacity="0"/>
</linearGradient>
<linearGradient id="paint29_linear_59_2090" x1="381.921" y1="71.8667" x2="357.816" y2="71.8667" gradientUnits="userSpaceOnUse">
<stop stop-color="#C55CCE"/>
<stop offset="1" stop-color="#2E2E2D" stop-opacity="0"/>
</linearGradient>
<linearGradient id="paint30_linear_59_2090" x1="348.408" y1="59.5131" x2="324.487" y2="59.5131" gradientUnits="userSpaceOnUse">
<stop stop-color="#C55CCE"/>
<stop offset="1" stop-color="#2E2E2D" stop-opacity="0"/>
</linearGradient>
<linearGradient id="paint31_linear_59_2090" x1="314.906" y1="71.9176" x2="291.145" y2="71.9176" gradientUnits="userSpaceOnUse">
<stop stop-color="#C55CCE"/>
<stop offset="1" stop-color="#2E2E2D" stop-opacity="0"/>
</linearGradient>
<linearGradient id="paint32_linear_59_2090" x1="248.413" y1="117.44" x2="223.957" y2="117.44" gradientUnits="userSpaceOnUse">
<stop stop-color="#C55CCE"/>
<stop offset="1" stop-color="#2E2E2D" stop-opacity="0"/>
</linearGradient>
<linearGradient id="paint33_linear_59_2090" x1="215.292" y1="129.582" x2="190.235" y2="129.582" gradientUnits="userSpaceOnUse">
<stop stop-color="#C55CCE"/>
<stop offset="1" stop-color="#2E2E2D" stop-opacity="0"/>
</linearGradient>
<linearGradient id="paint34_linear_59_2090" x1="216.642" y1="175.764" x2="188.887" y2="175.764" gradientUnits="userSpaceOnUse">
<stop stop-color="#C55CCE"/>
<stop offset="1" stop-color="#2E2E2D" stop-opacity="0"/>
</linearGradient>
<linearGradient id="paint35_linear_59_2090" x1="217.472" y1="244.648" x2="188.052" y2="244.648" gradientUnits="userSpaceOnUse">
<stop stop-color="#C55CCE"/>
<stop offset="1" stop-color="#2E2E2D" stop-opacity="0"/>
</linearGradient>
<linearGradient id="paint36_linear_59_2090" x1="216.604" y1="291.45" x2="188.924" y2="291.45" gradientUnits="userSpaceOnUse">
<stop stop-color="#C55CCE"/>
<stop offset="1" stop-color="#2E2E2D" stop-opacity="0"/>
</linearGradient>
<linearGradient id="paint37_linear_59_2090" x1="248.826" y1="303.092" x2="223.542" y2="303.092" gradientUnits="userSpaceOnUse">
<stop stop-color="#C55CCE"/>
<stop offset="1" stop-color="#2E2E2D" stop-opacity="0"/>
</linearGradient>
<linearGradient id="paint38_linear_59_2090" x1="315.33" y1="348.855" x2="290.725" y2="348.855" gradientUnits="userSpaceOnUse">
<stop stop-color="#C55CCE"/>
<stop offset="1" stop-color="#2E2E2D" stop-opacity="0"/>
</linearGradient>
<linearGradient id="paint39_linear_59_2090" x1="349.297" y1="360.88" x2="323.598" y2="360.88" gradientUnits="userSpaceOnUse">
<stop stop-color="#C55CCE"/>
<stop offset="1" stop-color="#2E2E2D" stop-opacity="0"/>
</linearGradient>
<linearGradient id="paint40_linear_59_2090" x1="382.03" y1="348.812" x2="357.704" y2="348.812" gradientUnits="userSpaceOnUse">
<stop stop-color="#C55CCE"/>
<stop offset="1" stop-color="#2E2E2D" stop-opacity="0"/>
</linearGradient>
<linearGradient id="paint41_linear_59_2090" x1="449.434" y1="303.07" x2="423.986" y2="303.07" gradientUnits="userSpaceOnUse">
<stop stop-color="#C55CCE"/>
<stop offset="1" stop-color="#2E2E2D" stop-opacity="0"/>
</linearGradient>
<linearGradient id="paint42_linear_59_2090" x1="516.376" y1="303.04" x2="490.733" y2="303.04" gradientUnits="userSpaceOnUse">
<stop stop-color="#C55CCE"/>
<stop offset="1" stop-color="#2E2E2D" stop-opacity="0"/>
</linearGradient>
<linearGradient id="paint43_linear_59_2090" x1="515.854" y1="233.156" x2="491.249" y2="233.156" gradientUnits="userSpaceOnUse">
<stop stop-color="#C55CCE"/>
<stop offset="1" stop-color="#2E2E2D" stop-opacity="0"/>
</linearGradient>
<linearGradient id="paint44_linear_59_2090" x1="514.846" y1="187.785" x2="492.261" y2="187.785" gradientUnits="userSpaceOnUse">
<stop stop-color="#C55CCE"/>
<stop offset="1" stop-color="#2E2E2D" stop-opacity="0"/>
</linearGradient>
<linearGradient id="paint45_linear_59_2090" x1="512.837" y1="116.589" x2="494.265" y2="116.589" gradientUnits="userSpaceOnUse">
<stop stop-color="#C55CCE"/>
<stop offset="1" stop-color="#2E2E2D" stop-opacity="0"/>
</linearGradient>
<linearGradient id="paint46_linear_59_2090" x1="448.046" y1="72.0728" x2="425.376" y2="72.0728" gradientUnits="userSpaceOnUse">
<stop stop-color="#C55CCE"/>
<stop offset="1" stop-color="#2E2E2D" stop-opacity="0"/>
</linearGradient>
<linearGradient id="paint47_linear_59_2090" x1="415.659" y1="59.6307" x2="390.919" y2="59.6307" gradientUnits="userSpaceOnUse">
<stop stop-color="#C55CCE"/>
<stop offset="1" stop-color="#2E2E2D" stop-opacity="0"/>
</linearGradient>
<linearGradient id="paint48_linear_59_2090" x1="349.201" y1="13.817" x2="323.692" y2="13.817" gradientUnits="userSpaceOnUse">
<stop stop-color="#C55CCE"/>
<stop offset="1" stop-color="#2E2E2D" stop-opacity="0"/>
</linearGradient>
<linearGradient id="paint49_linear_59_2090" x1="281.57" y1="59.5131" x2="257.642" y2="59.5131" gradientUnits="userSpaceOnUse">
<stop stop-color="#C55CCE"/>
<stop offset="1" stop-color="#2E2E2D" stop-opacity="0"/>
</linearGradient>
<linearGradient id="paint50_linear_59_2090" x1="247.964" y1="71.9451" x2="224.399" y2="71.9451" gradientUnits="userSpaceOnUse">
<stop stop-color="#C55CCE"/>
<stop offset="1" stop-color="#2E2E2D" stop-opacity="0"/>
</linearGradient>
<linearGradient id="paint51_linear_59_2090" x1="180.64" y1="117.17" x2="158.048" y2="117.17" gradientUnits="userSpaceOnUse">
<stop stop-color="#C55CCE"/>
<stop offset="1" stop-color="#2E2E2D" stop-opacity="0"/>
</linearGradient>
<linearGradient id="paint52_linear_59_2090" x1="183.73" y1="186.892" x2="154.954" y2="186.892" gradientUnits="userSpaceOnUse">
<stop stop-color="#C55CCE"/>
<stop offset="1" stop-color="#2E2E2D" stop-opacity="0"/>
</linearGradient>
<linearGradient id="paint53_linear_59_2090" x1="184.33" y1="233.931" x2="154.347" y2="233.931" gradientUnits="userSpaceOnUse">
<stop stop-color="#C55CCE"/>
<stop offset="1" stop-color="#2E2E2D" stop-opacity="0"/>
</linearGradient>
<linearGradient id="paint54_linear_59_2090" x1="182.928" y1="302.82" x2="155.76" y2="302.82" gradientUnits="userSpaceOnUse">
<stop stop-color="#C55CCE"/>
<stop offset="1" stop-color="#2E2E2D" stop-opacity="0"/>
</linearGradient>
<linearGradient id="paint55_linear_59_2090" x1="248.347" y1="348.812" x2="224.023" y2="348.812" gradientUnits="userSpaceOnUse">
<stop stop-color="#C55CCE"/>
<stop offset="1" stop-color="#2E2E2D" stop-opacity="0"/>
</linearGradient>
<linearGradient id="paint56_linear_59_2090" x1="281.653" y1="361.111" x2="257.554" y2="361.111" gradientUnits="userSpaceOnUse">
<stop stop-color="#C55CCE"/>
<stop offset="1" stop-color="#2E2E2D" stop-opacity="0"/>
</linearGradient>
<linearGradient id="paint57_linear_59_2090" x1="415.337" y1="361.111" x2="391.242" y2="361.111" gradientUnits="userSpaceOnUse">
<stop stop-color="#C55CCE"/>
<stop offset="1" stop-color="#2E2E2D" stop-opacity="0"/>
</linearGradient>
<linearGradient id="paint58_linear_59_2090" x1="448.953" y1="348.837" x2="424.469" y2="348.837" gradientUnits="userSpaceOnUse">
<stop stop-color="#C55CCE"/>
<stop offset="1" stop-color="#2E2E2D" stop-opacity="0"/>
</linearGradient>
<linearGradient id="paint59_linear_59_2090" x1="549" y1="290.925" x2="524.949" y2="290.925" gradientUnits="userSpaceOnUse">
<stop stop-color="#C55CCE"/>
<stop offset="1" stop-color="#2E2E2D" stop-opacity="0"/>
</linearGradient>
<linearGradient id="paint60_linear_59_2090" x1="548.827" y1="245.475" x2="525.125" y2="245.475" gradientUnits="userSpaceOnUse">
<stop stop-color="#C55CCE"/>
<stop offset="1" stop-color="#2E2E2D" stop-opacity="0"/>
</linearGradient>
<linearGradient id="paint61_linear_59_2090" x1="546.522" y1="174.515" x2="527.428" y2="174.515" gradientUnits="userSpaceOnUse">
<stop stop-color="#C55CCE"/>
<stop offset="1" stop-color="#2E2E2D" stop-opacity="0"/>
</linearGradient>
<linearGradient id="paint62_linear_59_2090" x1="545.003" y1="130.878" x2="528.945" y2="130.878" gradientUnits="userSpaceOnUse">
<stop stop-color="#C55CCE"/>
<stop offset="1" stop-color="#2E2E2D" stop-opacity="0"/>
</linearGradient>
<linearGradient id="paint63_linear_59_2090" x1="512.616" y1="72.7304" x2="494.488" y2="72.7304" gradientUnits="userSpaceOnUse">
<stop stop-color="#C55CCE"/>
<stop offset="1" stop-color="#2E2E2D" stop-opacity="0"/>
</linearGradient>
<linearGradient id="paint64_linear_59_2090" x1="480.829" y1="59.1477" x2="459.438" y2="59.1477" gradientUnits="userSpaceOnUse">
<stop stop-color="#C55CCE"/>
<stop offset="1" stop-color="#2E2E2D" stop-opacity="0"/>
</linearGradient>
<linearGradient id="paint65_linear_59_2090" x1="416.883" y1="13.5753" x2="389.697" y2="13.5753" gradientUnits="userSpaceOnUse">
<stop stop-color="#C55CCE"/>
<stop offset="1" stop-color="#2E2E2D" stop-opacity="0"/>
</linearGradient>
<linearGradient id="paint66_linear_59_2090" x1="378.559" y1="7.42138" x2="361.18" y2="7.42138" gradientUnits="userSpaceOnUse">
<stop stop-color="#C55CCE"/>
<stop offset="1" stop-color="#2E2E2D" stop-opacity="0"/>
</linearGradient>
<linearGradient id="paint67_linear_59_2090" x1="310.624" y1="6.6312" x2="295.141" y2="6.63119" gradientUnits="userSpaceOnUse">
<stop stop-color="#C55CCE"/>
<stop offset="1" stop-color="#2E2E2D" stop-opacity="0"/>
</linearGradient>
<linearGradient id="paint68_linear_59_2090" x1="281.764" y1="13.9891" x2="257.45" y2="13.9891" gradientUnits="userSpaceOnUse">
<stop stop-color="#C55CCE"/>
<stop offset="1" stop-color="#2E2E2D" stop-opacity="0"/>
</linearGradient>
<linearGradient id="paint69_linear_59_2090" x1="213.463" y1="59.148" x2="192.065" y2="59.148" gradientUnits="userSpaceOnUse">
<stop stop-color="#C55CCE"/>
<stop offset="1" stop-color="#2E2E2D" stop-opacity="0"/>
</linearGradient>
<linearGradient id="paint70_linear_59_2090" x1="179.221" y1="72.4936" x2="159.463" y2="72.4936" gradientUnits="userSpaceOnUse">
<stop stop-color="#C55CCE"/>
<stop offset="1" stop-color="#2E2E2D" stop-opacity="0"/>
</linearGradient>
<linearGradient id="paint71_linear_59_2090" x1="146.154" y1="130.24" x2="125.686" y2="130.24" gradientUnits="userSpaceOnUse">
<stop stop-color="#C55CCE"/>
<stop offset="1" stop-color="#2E2E2D" stop-opacity="0"/>
</linearGradient>
<linearGradient id="paint72_linear_59_2090" x1="148.146" y1="175.287" x2="123.696" y2="175.287" gradientUnits="userSpaceOnUse">
<stop stop-color="#C55CCE"/>
<stop offset="1" stop-color="#2E2E2D" stop-opacity="0"/>
</linearGradient>
<linearGradient id="paint73_linear_59_2090" x1="149.82" y1="244.883" x2="122.021" y2="244.883" gradientUnits="userSpaceOnUse">
<stop stop-color="#C55CCE"/>
<stop offset="1" stop-color="#2E2E2D" stop-opacity="0"/>
</linearGradient>
<linearGradient id="paint74_linear_59_2090" x1="149.112" y1="291.265" x2="122.729" y2="291.265" gradientUnits="userSpaceOnUse">
<stop stop-color="#C55CCE"/>
<stop offset="1" stop-color="#2E2E2D" stop-opacity="0"/>
</linearGradient>
<linearGradient id="paint75_linear_59_2090" x1="181.565" y1="348.829" x2="157.115" y2="348.829" gradientUnits="userSpaceOnUse">
<stop stop-color="#C55CCE"/>
<stop offset="1" stop-color="#2E2E2D" stop-opacity="0"/>
</linearGradient>
<linearGradient id="paint76_linear_59_2090" x1="214.676" y1="361.153" x2="190.851" y2="361.153" gradientUnits="userSpaceOnUse">
<stop stop-color="#C55CCE"/>
<stop offset="1" stop-color="#2E2E2D" stop-opacity="0"/>
</linearGradient>
<linearGradient id="paint77_linear_59_2090" x1="481.961" y1="361.177" x2="458.304" y2="361.177" gradientUnits="userSpaceOnUse">
<stop stop-color="#C55CCE"/>
<stop offset="1" stop-color="#2E2E2D" stop-opacity="0"/>
</linearGradient>
<linearGradient id="paint78_linear_59_2090" x1="515.463" y1="348.739" x2="491.638" y2="348.739" gradientUnits="userSpaceOnUse">
<stop stop-color="#C55CCE"/>
<stop offset="1" stop-color="#2E2E2D" stop-opacity="0"/>
</linearGradient>
<linearGradient id="paint79_linear_59_2090" x1="544.27" y1="58.1685" x2="529.678" y2="58.1685" gradientUnits="userSpaceOnUse">
<stop stop-color="#C55CCE"/>
<stop offset="1" stop-color="#2E2E2D" stop-opacity="0"/>
</linearGradient>
<linearGradient id="paint80_linear_59_2090" x1="481.888" y1="14.1025" x2="458.376" y2="14.1025" gradientUnits="userSpaceOnUse">
<stop stop-color="#C55CCE"/>
<stop offset="1" stop-color="#2E2E2D" stop-opacity="0"/>
</linearGradient>
<linearGradient id="paint81_linear_59_2090" x1="444.913" y1="7.10555" x2="428.483" y2="7.10555" gradientUnits="userSpaceOnUse">
<stop stop-color="#C55CCE"/>
<stop offset="1" stop-color="#2E2E2D" stop-opacity="0"/>
</linearGradient>
<linearGradient id="paint82_linear_59_2090" x1="242.69" y1="5.68468" x2="229.42" y2="5.68468" gradientUnits="userSpaceOnUse">
<stop stop-color="#C55CCE"/>
<stop offset="1" stop-color="#2E2E2D" stop-opacity="0"/>
</linearGradient>
<linearGradient id="paint83_linear_59_2090" x1="212.594" y1="14.657" x2="192.931" y2="14.657" gradientUnits="userSpaceOnUse">
<stop stop-color="#C55CCE"/>
<stop offset="1" stop-color="#2E2E2D" stop-opacity="0"/>
</linearGradient>
<linearGradient id="paint84_linear_59_2090" x1="143.102" y1="58.1348" x2="128.738" y2="58.1348" gradientUnits="userSpaceOnUse">
<stop stop-color="#C55CCE"/>
<stop offset="1" stop-color="#2E2E2D" stop-opacity="0"/>
</linearGradient>
<linearGradient id="paint85_linear_59_2090" x1="107.745" y1="73.8308" x2="97.258" y2="73.8308" gradientUnits="userSpaceOnUse">
<stop stop-color="#C55CCE"/>
<stop offset="1" stop-color="#2E2E2D" stop-opacity="0"/>
</linearGradient>
<linearGradient id="paint86_linear_59_2090" x1="109.072" y1="115.807" x2="95.9247" y2="115.807" gradientUnits="userSpaceOnUse">
<stop stop-color="#C55CCE"/>
<stop offset="1" stop-color="#2E2E2D" stop-opacity="0"/>
</linearGradient>
<linearGradient id="paint87_linear_59_2090" x1="112.677" y1="188.108" x2="92.3191" y2="188.108" gradientUnits="userSpaceOnUse">
<stop stop-color="#C55CCE"/>
<stop offset="1" stop-color="#2E2E2D" stop-opacity="0"/>
</linearGradient>
<linearGradient id="paint88_linear_59_2090" x1="113.91" y1="232.901" x2="91.0901" y2="232.901" gradientUnits="userSpaceOnUse">
<stop stop-color="#C55CCE"/>
<stop offset="1" stop-color="#2E2E2D" stop-opacity="0"/>
</linearGradient>
<linearGradient id="paint89_linear_59_2090" x1="113.641" y1="303.526" x2="91.3619" y2="303.526" gradientUnits="userSpaceOnUse">
<stop stop-color="#C55CCE"/>
<stop offset="1" stop-color="#2E2E2D" stop-opacity="0"/>
</linearGradient>
<linearGradient id="paint90_linear_59_2090" x1="112.402" y1="348.162" x2="92.594" y2="348.162" gradientUnits="userSpaceOnUse">
<stop stop-color="#C55CCE"/>
<stop offset="1" stop-color="#2E2E2D" stop-opacity="0"/>
</linearGradient>
<linearGradient id="paint91_linear_59_2090" x1="146.499" y1="361.538" x2="125.342" y2="361.538" gradientUnits="userSpaceOnUse">
<stop stop-color="#C55CCE"/>
<stop offset="1" stop-color="#2E2E2D" stop-opacity="0"/>
</linearGradient>
<linearGradient id="paint92_linear_59_2090" x1="547.213" y1="361.635" x2="526.74" y2="361.635" gradientUnits="userSpaceOnUse">
<stop stop-color="#C55CCE"/>
<stop offset="1" stop-color="#2E2E2D" stop-opacity="0"/>
</linearGradient>
<linearGradient id="paint93_linear_59_2090" x1="544.901" y1="15.206" x2="529.044" y2="15.206" gradientUnits="userSpaceOnUse">
<stop stop-color="#C55CCE"/>
<stop offset="1" stop-color="#2E2E2D" stop-opacity="0"/>
</linearGradient>
<linearGradient id="paint94_linear_59_2090" x1="510.003" y1="5.52689" x2="497.048" y2="5.52689" gradientUnits="userSpaceOnUse">
<stop stop-color="#C55CCE"/>
<stop offset="1" stop-color="#2E2E2D" stop-opacity="0"/>
</linearGradient>
<linearGradient id="paint95_linear_59_2090" x1="173.492" y1="3.63192" x2="164.961" y2="3.63192" gradientUnits="userSpaceOnUse">
<stop stop-color="#C55CCE"/>
<stop offset="1" stop-color="#2E2E2D" stop-opacity="0"/>
</linearGradient>
<linearGradient id="paint96_linear_59_2090" x1="142.06" y1="15.7249" x2="129.784" y2="15.7249" gradientUnits="userSpaceOnUse">
<stop stop-color="#C55CCE"/>
<stop offset="1" stop-color="#2E2E2D" stop-opacity="0"/>
</linearGradient>
<linearGradient id="paint97_linear_59_2090" x1="71.459" y1="56.7467" x2="66.7005" y2="56.7467" gradientUnits="userSpaceOnUse">
<stop stop-color="#C55CCE"/>
<stop offset="1" stop-color="#2E2E2D" stop-opacity="0"/>
</linearGradient>
<linearGradient id="paint98_linear_59_2090" x1="73.396" y1="131.945" x2="64.7605" y2="131.945" gradientUnits="userSpaceOnUse">
<stop stop-color="#C55CCE"/>
<stop offset="1" stop-color="#2E2E2D" stop-opacity="0"/>
</linearGradient>
<linearGradient id="paint99_linear_59_2090" x1="74.8647" y1="173.43" x2="63.2938" y2="173.43" gradientUnits="userSpaceOnUse">
<stop stop-color="#C55CCE"/>
<stop offset="1" stop-color="#2E2E2D" stop-opacity="0"/>
</linearGradient>
<linearGradient id="paint100_linear_59_2090" x1="77.1743" y1="246.559" x2="60.987" y2="246.559" gradientUnits="userSpaceOnUse">
<stop stop-color="#C55CCE"/>
<stop offset="1" stop-color="#2E2E2D" stop-opacity="0"/>
</linearGradient>
<linearGradient id="paint101_linear_59_2090" x1="77.2192" y1="289.807" x2="60.934" y2="289.807" gradientUnits="userSpaceOnUse">
<stop stop-color="#C55CCE"/>
<stop offset="1" stop-color="#2E2E2D" stop-opacity="0"/>
</linearGradient>
<linearGradient id="paint102_linear_59_2090" x1="75.5635" y1="362.716" x2="62.5928" y2="362.716" gradientUnits="userSpaceOnUse">
<stop stop-color="#C55CCE"/>
<stop offset="1" stop-color="#2E2E2D" stop-opacity="0"/>
</linearGradient>
<linearGradient id="paint103_linear_59_2090" x1="103.979" y1="1.10577" x2="101.135" y2="1.10577" gradientUnits="userSpaceOnUse">
<stop stop-color="#C55CCE"/>
<stop offset="1" stop-color="#2E2E2D" stop-opacity="0"/>
</linearGradient>
<linearGradient id="paint104_linear_59_2090" x1="70.9185" y1="16.964" x2="67.2374" y2="16.964" gradientUnits="userSpaceOnUse">
<stop stop-color="#C55CCE"/>
<stop offset="1" stop-color="#2E2E2D" stop-opacity="0"/>
</linearGradient>
<linearGradient id="paint105_linear_59_2090" x1="36.7178" y1="75.0405" x2="34.5976" y2="75.0405" gradientUnits="userSpaceOnUse">
<stop stop-color="#C55CCE"/>
<stop offset="1" stop-color="#2E2E2D" stop-opacity="0"/>
</linearGradient>
<linearGradient id="paint106_linear_59_2090" x1="37.1982" y1="114.356" x2="34.1175" y2="114.356" gradientUnits="userSpaceOnUse">
<stop stop-color="#C55CCE"/>
<stop offset="1" stop-color="#2E2E2D" stop-opacity="0"/>
</linearGradient>
<linearGradient id="paint107_linear_59_2090" x1="38.9419" y1="190.096" x2="32.3728" y2="190.096" gradientUnits="userSpaceOnUse">
<stop stop-color="#C55CCE"/>
<stop offset="1" stop-color="#2E2E2D" stop-opacity="0"/>
</linearGradient>
<linearGradient id="paint108_linear_59_2090" x1="39.8428" y1="230.815" x2="31.4758" y2="230.815" gradientUnits="userSpaceOnUse">
<stop stop-color="#C55CCE"/>
<stop offset="1" stop-color="#2E2E2D" stop-opacity="0"/>
</linearGradient>
<linearGradient id="paint109_linear_59_2090" x1="40.332" y1="305.39" x2="30.9793" y2="305.39" gradientUnits="userSpaceOnUse">
<stop stop-color="#C55CCE"/>
<stop offset="1" stop-color="#2E2E2D" stop-opacity="0"/>
</linearGradient>
<linearGradient id="paint110_linear_59_2090" x1="39.8804" y1="346.525" x2="31.4344" y2="346.525" gradientUnits="userSpaceOnUse">
<stop stop-color="#C55CCE"/>
<stop offset="1" stop-color="#2E2E2D" stop-opacity="0"/>
</linearGradient>
<linearGradient id="paint111_linear_59_2090" x1="2.77588" y1="133.036" x2="1.69528" y2="133.036" gradientUnits="userSpaceOnUse">
<stop stop-color="#C55CCE"/>
<stop offset="1" stop-color="#2E2E2D" stop-opacity="0"/>
</linearGradient>
<linearGradient id="paint112_linear_59_2090" x1="3.19629" y1="172.034" x2="1.27832" y2="172.034" gradientUnits="userSpaceOnUse">
<stop stop-color="#C55CCE"/>
<stop offset="1" stop-color="#2E2E2D" stop-opacity="0"/>
</linearGradient>
<linearGradient id="paint113_linear_59_2090" x1="4.09961" y1="248.354" x2="0.374285" y2="248.354" gradientUnits="userSpaceOnUse">
<stop stop-color="#C55CCE"/>
<stop offset="1" stop-color="#2E2E2D" stop-opacity="0"/>
</linearGradient>
<linearGradient id="paint114_linear_59_2090" x1="4.27686" y1="288.045" x2="0.194519" y2="288.045" gradientUnits="userSpaceOnUse">
<stop stop-color="#C55CCE"/>
<stop offset="1" stop-color="#2E2E2D" stop-opacity="0"/>
</linearGradient>
<linearGradient id="paint115_linear_59_2090" x1="3.89795" y1="364.108" x2="0.577078" y2="364.108" gradientUnits="userSpaceOnUse">
<stop stop-color="#C55CCE"/>
<stop offset="1" stop-color="#2E2E2D" stop-opacity="0"/>
</linearGradient>
</defs>
</svg>
