<?xml version="1.0" encoding="utf-8"?>
<!-- Generator: Adobe Illustrator 25.2.3, SVG Export Plug-In . SVG Version: 6.00 Build 0)  -->
<svg version="1.1" id="Layer_1" xmlns="http://www.w3.org/2000/svg" xmlns:xlink="http://www.w3.org/1999/xlink" x="0px" y="0px"
	 width="166.6px" height="40px" viewBox="0 0 166.6 40" style="enable-background:new 0 0 166.6 40;" xml:space="preserve">
<path d="M17.5,31.7c-1.2-0.7-2-2-2.3-2.5c-0.7-1.1-0.6-1.7-4-6.6c0.6-0.2,0.7-0.3,1.5-0.6c1.6-0.7,3.5-2.2,3.5-5.3
	c0-2.2-1-4-2.6-4.8c-1.5-0.8-3.5-1-5.6-1c-3.2,0-5.6,0.1-7.4,0.3c-0.3,0.1-0.3,0.7-0.1,0.8l1.1,0.1C2.9,12.3,3,12.9,3,15.9v11.5
	c0,3.3-0.1,3.8-2,4l-0.8,0.1c-0.2,0.2-0.1,0.7,0.1,0.8c1.6-0.1,2.7-0.1,4.2-0.1c1.3,0,2.5,0.1,4,0.1c0.2-0.1,0.3-0.7,0.1-0.8
	l-0.7-0.1c-1.9-0.3-2-0.7-2-4v-3.9c0-0.7,1-0.6,1.8-0.3c1,0.3,1.8,1.4,2.2,2.2c0.4,0.7,2.6,5.3,4.2,6.3c1.5,1.1,2.5,1.1,3.7,1.1
	c1,0,1.3-0.1,1.3-0.3C19,32.2,18.2,32.1,17.5,31.7z M8.2,21.8c-1.7,0-2.2-0.1-2.3-0.2s-0.1-0.9-0.1-1.5V13c0-0.9,0.1-1,2.2-1
	c3.7,0,5.3,2.1,5.3,4.6c0,2.2-0.8,3.7-1.6,4.5C10.7,21.7,9.4,21.8,8.2,21.8z M23.7,17.8c-4.4,0-7.8,3.2-7.8,7.6
	c0,4.4,3.3,7.2,7.5,7.2c4.6,0,7.7-3.2,7.7-7.6C31.2,20.8,27.8,17.8,23.7,17.8z M23.8,31.6c-3.2,0-4.7-3.4-4.7-6.7
	c0-3.9,1.8-6.1,4.2-6.1c3.5,0,4.7,3.8,4.7,6.8C28,28.4,27,31.6,23.8,31.6z M39.7,17.8c-4.4,0-7.8,3.2-7.8,7.6c0,4.4,3.3,7.2,7.5,7.2
	c4.6,0,7.7-3.2,7.7-7.6C47.2,20.8,43.8,17.8,39.7,17.8z M39.8,31.6c-3.2,0-4.7-3.4-4.7-6.7c0-3.9,1.8-6.1,4.2-6.1
	c3.5,0,4.7,3.8,4.7,6.8C44,28.4,43,31.6,39.8,31.6z M72.2,31.3c-1.3-0.2-1.4-0.5-1.4-3v-6c0-2.4-1.4-4.4-4.4-4.4
	c-1.7,0-3.5,0.8-5,1.8c-0.3,0.2-0.6,0.3-0.9,0.3c-1-1.4-2.1-2.1-3.9-2.1c-1.7,0-3.5,0.8-4.9,1.8c-0.3,0-0.4-0.2-0.4-0.4
	c0-0.3,0-0.8,0.1-1.7c-0.1-0.2-0.3-0.3-0.4-0.3c-0.7,0.5-2.8,1.4-3.7,1.7c-0.2,0.1-0.2,0.5-0.1,0.6l0.3,0.2c1,0.6,1,0.8,1,2.2v6.2
	c0,2.5-0.1,2.9-1.4,3l-0.9,0.1c-0.3,0.2-0.2,0.8,0.1,0.9c1.1-0.1,2.2-0.1,3.6-0.1c1.3,0,2.3,0.1,3.3,0.1c0.3-0.1,0.3-0.7,0.1-0.9
	l-0.6-0.1c-1.3-0.2-1.4-0.5-1.4-3v-5.5c0-1.1,0.2-1.6,0.6-2c0.6-0.6,1.6-1.3,3.1-1.3c2.3,0,3.4,1.3,3.4,3.6v5.1c0,2.5-0.1,2.9-1.4,3
	l-0.6,0.1c-0.3,0.2-0.2,0.8,0.1,0.9c1-0.1,2-0.1,3.3-0.1c1.3,0,2.3,0.1,3.4,0.1c0.3-0.1,0.3-0.7,0.1-0.9l-0.8-0.1
	c-1.3-0.2-1.4-0.5-1.4-3v-5.3c0-1.2,0.1-1.6,0.6-2.1c0.5-0.6,1.6-1.2,3-1.2c2.3,0,3.4,1.2,3.4,3.6v5.1c0,2.5-0.1,2.9-1.4,3l-0.6,0.1
	c-0.3,0.2-0.2,0.8,0.1,0.9c1-0.1,2-0.1,3.3-0.1c1.3,0,2.3,0.1,3.6,0.1c0.3-0.1,0.3-0.7,0.1-0.9H72.2z M119.5,17.8
	c-4.4,0-7.8,3.2-7.8,7.6c0,4.4,3.3,7.2,7.5,7.2c4.6,0,7.7-3.2,7.7-7.6C127,20.8,123.7,17.8,119.5,17.8z M119.6,31.6
	c-3.2,0-4.7-3.4-4.7-6.7c0-3.9,1.8-6.1,4.2-6.1c3.5,0,4.7,3.8,4.7,6.8C123.8,28.4,122.8,31.6,119.6,31.6z M150.6,19.2
	c0-0.8-0.7-1.4-1.6-1.4c-1.4,0-2.7,1.1-4,2.1c-0.1-0.1-0.1-0.1-0.1-0.3v-2c0-0.1-0.1-0.2-0.3-0.3c-0.9,0.5-2.8,1.4-3.7,1.7
	c-0.2,0.1-0.2,0.5-0.1,0.6l0.3,0.2c1,0.6,1,0.8,1,2.2v6.2c0,2.5-0.1,3.1-1.4,3.3h-0.6c-1.7,0-2.2-2-2.1-3.5l0.2-6.1
	c0.1-2.6-1.2-4.1-3.8-4.1c-2.7,0-6.8,2.5-6.8,4.3c0,0.3,0.2,0.5,0.5,0.5c0.6,0,1.6-0.3,2.1-0.7c0.3-0.2,0.3-0.6,0.4-1.2
	c0.1-1.1,1.3-1.6,2.3-1.6c2.3,0,2.7,1.8,2.7,3l-0.1,1.6c-0.1,0.5-0.1,0.8-0.6,1l-4.4,1.5c-2.3,0.8-3,1.6-3,3c0,1,0.4,1.8,1.1,2.5
	c0.6,0.5,1.5,0.8,2.6,0.8c1.2,0,2.1-0.4,2.9-0.9c0.7-0.4,1.2-0.8,1.4-0.8c0.2,0,0.4,0.3,0.6,0.5c0.3,0.3,1,0.8,2.1,0.8
	c0.4,0,1.1-0.1,1.4-0.1c1-0.1,2.6-0.1,3.9-0.1c1.3,0,2.3,0.1,4.1,0.1c0.3-0.1,0.3-0.7,0.1-0.9l-1.3-0.1c-1.4-0.1-1.5-0.5-1.5-3v-4.8
	c0-1.2,0.1-2.2,0.4-2.7c0.3-0.4,0.7-0.7,1.3-0.7c0.5,0,1.1,0.2,1.6,0.6c0.3,0.1,0.4,0.3,0.8,0.3C149.6,20.9,150.6,20.4,150.6,19.2z
	 M135.5,28.6c0,0.7-0.1,1.2-0.4,1.7c-0.4,0.3-1.5,1-2.2,1c-1.9,0-2.3-1.5-2.3-2.1c0-1.4,1.1-1.9,3.2-2.6c0.6-0.2,1.3-0.3,1.5-0.3
	s0.4,0.1,0.4,0.4L135.5,28.6z M166.4,30.8c-0.6,0.2-1.2,0.3-1.6,0.3c-1,0-1.1-1.3-1.1-4.1V11.6c0-1.5,0.1-3.3,0.1-4.4
	c-0.1-0.1-0.2-0.2-0.4-0.2c-1.3,0.7-3,1.2-3.9,1.5c-0.2,0.1-0.2,0.6,0,0.7l0.4,0.2c1.1,0.6,1.1,0.8,1.1,2.9v5.3
	c0,0.3-0.1,0.5-0.2,0.5c-0.4-0.1-1.2-0.3-2.5-0.3c-5,0-8.9,3.2-8.9,8.1c0,3.7,2.7,6.7,6.8,6.7c1.7,0,3-0.6,4.6-1.6h0.1
	c0.1,0.1,0.1,0.6,0.1,1.1v0.6c0,0.2,0.2,0.3,0.4,0.3c1-0.4,3.3-0.9,4.9-1.1C166.7,31.7,166.6,30.9,166.4,30.8z M160.7,28.7
	c0,0.6-0.1,1.1-0.3,1.3c-0.6,0.6-1.8,1-2.8,1c-3.6,0-5.4-3-5.4-6.2c0-3,1.7-5.9,5.1-5.9c1.4,0,2.5,0.7,3.1,1.5
	c0.3,0.3,0.4,0.7,0.4,1.4C160.7,21.8,160.7,28.7,160.7,28.7z M106.3,20.7c-0.4-0.1-0.6-0.2-0.6-0.5c2-0.9,3.4-2.1,3.4-4.4
	c0-2-1.1-3.3-2.5-4c-1.5-0.7-3.5-0.9-5.6-0.9c-3.1,0-5.4,0.1-7.2,0.3c-0.3,0.1-0.3,0.6-0.1,0.8l1.1,0.1c1.5,0.2,1.6,0.7,1.6,3.1
	v12.2c0,3.3,0.1,3.8-1.7,4L94,31.5c-0.2,0.2-0.1,0.7,0.1,0.7c1.2-0.1,2.4-0.1,3.9-0.1c1.4,0,3,0.1,4,0.1c6,0,8.9-2.5,8.9-6.2
	C110.8,22.7,108.1,21.1,106.3,20.7z M99.1,13c0-0.6,0.1-0.7,0.4-0.8c0.3-0.1,0.8-0.2,1.5-0.2c2.5,0,4.9,1.2,4.9,4.3
	c0,3-1.8,4-5.2,4.1c-1.7,0.1-1.7,0-1.7-0.9L99.1,13L99.1,13z M102.5,31.3c-1,0-2-0.2-2.7-0.9c-0.6-0.7-0.7-2.3-0.7-3.5v-4.7
	c0-0.7,0.1-0.8,1.9-0.8c5.3,0,6.6,2.9,6.6,5.5C107.7,30,105.4,31.3,102.5,31.3z M92.8,31.4c-0.4-0.2-0.2-0.1-0.6-0.3
	c-0.7-0.3-1.2-0.7-2.2-1.5c-1-0.8-1.7-1.6-2.3-2.5c0.7-1.3,1.8-3.9,2.5-5.8c0.7-1.8,1-3.1,2.8-3.4l1.1-0.2c0.2-0.2,0.2-0.7-0.1-0.7
	h-6.3c-0.3,0.2-0.3,0.6-0.1,0.7l1.1,0.1c0.6,0.1,0.7,0.4,0.7,0.6c0,0.2-0.1,0.5-0.4,1.7c-0.7,2.1-1.6,4.5-2.4,6
	c-1.3-1.4-4.7-5.3-5.7-6.3c1.7-0.9,3.7-2.3,3.7-4.5c0-2.2-1.8-3.8-4.3-3.8c-2.4,0-4.6,1.7-4.6,4.2c0,1.7,0.9,3,2,4.2
	c-3.5,1.6-4.9,4-4.9,6.9c0,2.5,1.8,5.8,6.6,5.8c3.5,0,5.1-1.4,6.9-3.5c0.7,0.9,1.3,1.4,2.5,2.1c0.9,0.5,2,1,3.1,1.1
	c0.4,0.1,0.4,0.1,0.8,0C93.3,32.1,93.4,31.7,92.8,31.4z M80.4,12.5c1.9,0,2.3,1.4,2.3,2.8c0,1.5-0.9,2.7-2.6,3.6
	c-1.2-1.1-2.2-2.4-2.2-3.8C77.9,13.8,78.7,12.5,80.4,12.5z M80.4,30.6c-2.9,0-4.9-1.9-4.9-4.7c0-2.4,1.1-3.9,3.4-5
	c1.6,1.6,5,5.4,6.5,7.2C84.2,29.6,82.6,30.6,80.4,30.6z"/>
</svg>
