<svg id="Layer_1" data-name="Layer 1" xmlns="http://www.w3.org/2000/svg" viewBox="0 0 2000 2000">
  <defs>
    <style>
      .cls-1 {
        fill: #8b65a9;
      }

      .cls-2 {
        fill: #dadada;
      }

      .cls-3 {
        fill: #fff;
      }

      .cls-4 {
        fill: #b2b2b2;
      }
    </style>
  </defs>
  <circle class="cls-1" cx="1000" cy="1014.36" r="915.06"/>
  <g>
    <path class="cls-2" d="M1329.49,896.37h0A308.59,308.59,0,0,1,1638.08,1205V1491.3a0,0,0,0,1,0,0H1020.9a0,0,0,0,1,0,0V1205A308.59,308.59,0,0,1,1329.49,896.37Z"/>
    <circle class="cls-3" cx="1329.49" cy="862.39" r="252.59"/>
    <path class="cls-2" d="M670.51,896.37h0A308.59,308.59,0,0,1,979.1,1205V1491.3a0,0,0,0,1,0,0H361.92a0,0,0,0,1,0,0V1205A308.59,308.59,0,0,1,670.51,896.37Z"/>
    <circle class="cls-3" cx="670.51" cy="862.39" r="252.59"/>
    <path class="cls-4" d="M1020.9,795.27h0a308.59,308.59,0,0,1,308.59,308.59V1390.2a0,0,0,0,1,0,0H712.31a0,0,0,0,1,0,0V1103.87A308.59,308.59,0,0,1,1020.9,795.27Z"/>
    <circle class="cls-3" cx="1020.9" cy="761.29" r="252.59"/>
  </g>
</svg>
