<svg width="250" height="120" viewBox="0 0 250 120" fill="none" xmlns="http://www.w3.org/2000/svg"><path d="M85.0603 47.6068c-.0148-.0825-.0562-.1579-.118-.2145-.0618-.0567-.1405-.0915-.2239-.0992l-3.1369-.2352s-2.086-2.0672-2.3118-2.2962c-.2259-.229-.6776-.16-.8501-.1098l-1.1669.3608c-.6964-2.0045-1.926-3.8458-4.0779-3.8458h-.1819C72.3655 40.3545 71.6158 40 70.9571 40c-5.0346 0-7.4406 6.2956-8.1966 9.4952l-3.5383 1.0947c-1.0916.342-1.1261.3765-1.2548 1.4053C57.8577 52.7732 55 74.8753 55 74.8753l22.2715 4.1751 12.0674-2.6129s-4.2535-28.6331-4.2786-28.8307zm-9.0466-2.2177l-1.8821.5834v-.4015c.0208-1.0321-.1308-2.0605-.4486-3.0427 1.1136.1349 1.8539 1.4022 2.3307 2.8608zm-3.7266-2.6193c.3786 1.0901.552 2.2409.5113 3.3941v.2196l-3.8928 1.2045c.7622-2.8922 2.1675-4.2912 3.3815-4.8182zm-1.4963-1.4147c.2328.0052.4584.0819.6462.2196-1.6123.7591-3.3439 2.6694-4.0779 6.4901l-3.0772.941c.872-2.9015 2.9047-7.6507 6.5215-7.6507h-.0126z" fill="#9DBD31"/><path d="M84.7183 47.2897l-3.1368-.2353s-2.086-2.0671-2.3119-2.2961c-.0874-.0795-.1967-.1308-.3136-.1475l-1.6845 34.4424 12.0674-2.6129s-4.2379-28.6362-4.263-28.8338c-.0148-.0855-.0583-.1635-.1233-.2211-.0649-.0575-.1476-.0913-.2343-.0957z" fill="#5F8C2F"/><path d="M73.1589 53.9587l-1.4994 4.426c-.9042-.4426-1.895-.6803-2.9016-.6963-2.3432 0-2.4624 1.468-2.4624 1.8381 0 2.0233 5.2699 2.7981 5.2699 7.5284 0 3.7266-2.362 6.1231-5.5491 6.1231-3.8206 0-5.778-2.3777-5.778-2.3777l1.0257-3.3815s2.0076 1.7253 3.7046 1.7253c.2036.0098.407-.022.5978-.0936.1908-.0716.3649-.1814.5118-.3226.1468-.1413.2633-.3111.3422-.499.0789-.1879.1186-.3899.1166-.5937 0-2.638-4.3225-2.7572-4.3225-7.0892 0-3.645 2.6161-7.1739 7.8985-7.1739 2.039.0031 3.0459.5866 3.0459.5866z" fill="#fff"/><path d="M103.389 62.2556c-1.205-.6556-1.823-1.2045-1.823-1.9605 0-.963.86-1.5684 2.196-1.5684 1.019.0241 2.023.2456 2.958.6525l1.101-3.369s-1.013-.7905-3.99-.7905c-4.1407 0-7.014 2.3715-7.014 5.7059 0 1.8821 1.3426 3.3345 3.1368 4.3665 1.4432.825 1.9602 1.4116 1.9602 2.2711 0 .8595-.724 1.6154-2.0637 1.6154-1.3554-.0555-2.6821-.4078-3.8865-1.032l-1.1669 3.369s1.7409 1.17 4.6739 1.17c4.2662 0 7.3242-2.0985 7.3242-5.8784-.003-2.0421-1.549-3.4882-3.406-4.5516zM120.374 55.1725c-2.098 0-3.748.9944-5.019 2.5095l-.069-.0345 1.823-9.5235h-4.746l-4.608 24.2383h4.746l1.568-8.2843c.628-3.1369 2.234-5.0566 3.749-5.0566 1.063 0 1.477.7215 1.477 1.7535 0 .7046-.069 1.4074-.207 2.0985l-1.788 9.4889h4.746l1.857-9.7994c.204-1.0191.318-2.054.342-3.0929.013-2.682-1.396-4.2975-3.871-4.2975zM134.986 55.1729c-5.706 0-9.489 5.1569-9.489 10.8973 0 3.6795 2.268 6.6376 6.534 6.6376 5.602 0 9.385-5.019 9.385-10.9005 0-3.4035-2.001-6.6344-6.43-6.6344zm-2.337 13.8899c-1.615 0-2.302-1.3771-2.302-3.0961 0-2.7134 1.408-7.1488 3.987-7.1488 1.684 0 2.236 1.4429 2.236 2.8513 0 2.9236-1.411 7.3936-3.921 7.3936zM153.553 55.1729c-3.199 0-5.019 2.8231-5.019 2.8231h-.069l.276-2.544h-4.194c-.207 1.719-.586 4.332-.963 6.2925l-3.303 17.3593h4.746l1.308-7.014h.101s.975.6274 2.785.6274c5.571 0 9.216-5.7091 9.216-11.484 0-3.209-1.408-6.0603-4.884-6.0603zm-4.536 13.9589c-.714.0105-1.409-.233-1.96-.687l.79-4.4355c.549-2.958 2.099-4.9185 3.749-4.9185 1.443 0 1.882 1.3425 1.882 2.6129.009 3.0616-1.813 7.4281-4.461 7.4281zM165.21 48.3625c-.36-.0009-.716.07-1.048.2084-.332.1384-.634.3416-.886.5977-.253.2562-.452.5601-.586.894-.133.334-.199.6912-.194 1.0509 0 1.4116.891 2.3746 2.234 2.3746h.069c.367.0143.732-.0468 1.074-.1796.343-.1327.654-.3342.915-.5921.261-.2579.466-.5666.603-.907.137-.3405.203-.7054.193-1.0723.017-.3162-.033-.6324-.146-.9281-.114-.2957-.288-.5642-.512-.7881-.224-.2239-.492-.3983-.788-.5117-.296-.1134-.612-.1634-.928-.1467zM158.575 72.3627h4.743l3.234-16.8134h-4.78l-3.197 16.8134zM178.626 55.5149h-3.306l.172-.7905c.273-1.6154 1.236-3.0584 2.824-3.0584.513.0012 1.023.0816 1.512.2384l.941-3.714s-.825-.4109-2.579-.4109c-1.685-.0501-3.333.5064-4.642 1.5684-1.616 1.3771-2.372 3.369-2.751 5.364l-.138.7905h-2.196l-.69 3.576h2.195l-2.509 13.2719h4.743l2.509-13.2719h3.256l.659-3.5635zM190.034 55.5488s-2.964 7.4751-4.297 11.553h-.069c-.091-1.3143-1.167-11.553-1.167-11.553h-4.988l2.855 15.4395c.037.1319.047.27.03.4059-.018.136-.063.2668-.134.3846-.618 1.1443-1.502 2.1233-2.578 2.8545-.824.5746-1.728 1.0258-2.682 1.3394l1.308 4.0246c1.736-.4625 3.33-1.3485 4.639-2.5785 2.168-2.0295 4.163-5.1601 6.224-9.4105l5.812-12.4469-4.953-.0126z" fill="#1D1D1B"/></svg>