<svg width="1001" height="500" viewBox="0 0 1001 500" fill="none" xmlns="http://www.w3.org/2000/svg"><mask id="a" style="mask-type:alpha" maskUnits="userSpaceOnUse" x="0" y="0" width="1001" height="500"><path fill="#C4C4C4" d="M0 0h1001v500H0z"/></mask><g mask="url(#a)" fill="#E72E80"><path opacity=".1" d="M-.00007836 500C-.00006676 367.392 52.7476 240.215 146.639 146.447 240.53 52.6784 367.874-.00004537 500.657-.00004377 633.439-.00004217 760.784 52.6784 854.675 146.447 948.566 240.215 1001.31 367.392 1001.31 500H-.00007836z" fill-opacity=".3"/><path opacity=".2" d="M84.9089 500c0-110.065 43.7801-215.622 121.7101-293.449C284.549 128.723 390.245 85 500.454 85c110.21 0 215.905 43.723 293.835 121.551C872.219 284.378 916 389.935 916 500H84.9089z" fill-opacity=".4"/><path opacity=".2" d="M169.999 500c0-87.787 34.874-171.978 96.948-234.052C329.022 203.873 413.213 169 501 169c87.786 0 171.977 34.873 234.052 96.948C797.126 328.022 832 412.213 832 500H169.999z" fill-opacity=".4"/></g></svg>