<svg width="177" height="164" viewBox="0 0 177 164" fill="none" xmlns="http://www.w3.org/2000/svg"><path d="M65.4124 13.9703c-.9879.5831-1.8409 1.3659-2.7784 2.0245-7.9143 5.5606-37.9196 25.647-34.3386 70.3186 5.0783 63.3576 31.1768 62.3376 70.1491 62.3376 38.9725 0 67.9685 5.496 76.0925-27.139 8.258-33.1669-6.685-34.8405-9.283-72.6757-2.599-37.8352-23.799-51.91838-54.933-48.283323C90.8073 2.83299 79.2796 5.78963 65.4124 13.9703z" fill="#FDEEF4"/><path d="M105.728 162C127.936 149.894 143 126.377 143 99.3469c0-39.4039-32.011-71.3467-71.5-71.3467C32.0114 28.0002 0 59.943 0 99.3469 0 126.377 15.065 149.894 37.272 162h68.456z" fill="#FDEEF4"/><path d="M84.744 159h57.511C162.873 148.608 177 127.391 177 102.903c0-34.7398-28.43-62.9028-63.501-62.9028C78.4293 40.0002 50 68.1632 50 102.903c0 24.488 14.1254 45.705 34.744 56.097z" fill="#FDEEF4"/><path d="M89.0771 162.001c43.1859 0 78.1949-2.153 78.1949-4.808 0-2.656-35.009-4.809-78.1949-4.809-43.1859 0-78.195 2.153-78.195 4.809 0 2.655 35.0091 4.808 78.195 4.808z" fill="#FDEEF4"/><rect x="47" y="3" width="104" height="161" rx="5" fill="#FE97C4"/><rect x="54" y="15" width="93" height="144" rx="5" fill="#fff"/><path d="M142.776 22.6499H61.0081v71.1835h81.7679V22.6499z" fill="#FAE5EE"/><path d="M61.0081 22.8574v15.3574c3.9732-4.5932 8.4025-6.4723 11.8098-7.3266 14.7696-3.7001 27.7001 7.5148 48.7361 6.3802 9.078-.4894 16.312-3.0993 21.222-5.3902v-9.0208H61.0081zM142.776 67.0618c-.194 2.3063-1.231 8.8991-9.214 14.1542-2.593 1.7069-5.37 3.5353-9.768 4.2098-10.99 1.6853-18.864-6.2324-25.8976-4.0181-3.2656 1.0277-2.6532 3.0599-5.772 5.8361-3.2693 2.9096-9.9858 6.0566-25.3053 6.5896h75.9569V67.0618z" fill="#fff"/><path d="M130.782 96.3677H73.6372c-.656 0-1.1902-.5332-1.1902-1.1889V18.7546c0-.6558.5342-1.1889 1.1902-1.1889h57.1448c.656 0 1.19.5331 1.19 1.1889v4.4552c0 .1506-.122.2724-.272.2724-.151 0-.273-.1218-.273-.2724v-4.4552c0-.3546-.289-.6434-.644-.6434H73.638c-.3556 0-.6445.2888-.6445.6434v76.4242c0 .3546.2889.6434.6445.6434h57.145c.355 0 .644-.2888.644-.6434V71.3046c0-.1506.122-.2723.273-.2723.15 0 .272.1217.272.2723v23.8742c0 .6557-.534 1.1889-1.19 1.1889zm-4.325-4.3187H77.6998c-.656 0-1.1902-.5332-1.1902-1.1889V23.0733c0-.6558.5342-1.1889 1.1902-1.1889h48.7572c.656 0 1.19.5331 1.19 1.1889v14.1803c0 .1506-.122.2724-.272.2724-.151 0-.273-.1218-.273-.2724V23.0733c0-.3546-.289-.6434-.644-.6434H77.6998c-.3556 0-.6445.2888-.6445.6434v67.7868c0 .3546.2889.6434.6445.6434h48.7572c.355 0 .644-.2888.644-.6434V71.3046c0-.1506.122-.2723.273-.2723.15 0 .272.1217.272.2723v19.5555c.001.6557-.533 1.1889-1.189 1.1889z" fill="#000"/><path d="M134.64 33.4446l5.33 10.9767c.412.8499.323 1.7562-.2 2.023l-.861.4397c-.523.2668-1.281-.2058-1.694-1.0556l-5.476-11.2706 2.901-1.1132z" fill="#E72E80"/><path d="M121.478 32.0914l2.206 4.3c.339.6618 1.46.7652 2.503.2315l-3.435-6.6991c-1.043.5349-1.613 1.5047-1.274 2.1676z" fill="#000"/><path d="M144.572 8.35425l-1.864.95567-20.332 20.29488 3.831 7.4702 28.347-4.6608 1.864-.9569-11.846-23.10305z" fill="#fff"/><path d="M126.207 37.4644c-.145 0-.28-.0799-.347-.2115l-3.83-7.4703c-.077-.1504-.048-.3338.072-.4537l20.331-20.29368c.028-.02821.061-.05289.097-.07053l1.865-.95567c.19-.09874.425-.02234.524.16927l11.846 23.10311c.047.0917.056.1986.025.2974-.032.0987-.101.1798-.193.2268l-1.864.9557c-.037.0188-.074.0318-.114.0376l-28.348 4.6609c-.022.0035-.043.0046-.064.0046zm-3.353-7.784l3.57 6.9647 28.007-4.6055 1.463-.75-11.49-22.40954-1.464.74996-20.086 20.05038z" fill="#000"/><path d="M154.598 23.7737c1.664-.8545 1.88-3.7542.483-6.4767-1.397-2.7225-3.878-4.2368-5.541-3.3823-1.664.8545-1.88 3.7542-.483 6.4767 1.397 2.7225 3.878 4.2368 5.541 3.3823z" fill="#000"/><path d="M157.335 32.3162l-1.556.7982c-.672.3444-1.492.0199-1.75-.6901-2.887-7.9521-6.757-15.52-11.638-22.69279-.424-.62419-.209-1.47759.462-1.82201l1.555-.79699c.557-.28564 1.241-.11637 1.599.39732 5.11 7.30917 9.093 15.06747 11.942 23.28057.204.5901-.058 1.2402-.614 1.5258z" fill="#E72E80"/><path d="M126.979 29.703c-.104 0-.209-.0411-.285-.1246-.147-.1575-.137-.4044.02-.5501l4.213-3.9226c.157-.147.404-.1376.551.0199.147.1576.138.4044-.02.5502l-4.213 3.9226c-.075.0705-.17.1046-.266.1046zM132.775 24.3078c-.105 0-.208-.0412-.286-.1246-.146-.1575-.137-.4044.02-.5502l7.669-7.1399c.157-.1469.404-.1375.551.02.147.1575.137.4044-.02.5501l-7.669 7.14c-.076.0705-.171.1046-.265.1046zM155.868 13.2016c-.094 0-.188-.0341-.262-.1023-.158-.1446-.17-.3914-.024-.5501l2.008-2.1994c.145-.1587.391-.1704.549-.0247.159.1446.171.3915.025.5502l-2.008 2.1993c-.077.0846-.182.127-.288.127zM160.114 14.1264c-.143 0-.28-.0799-.349-.2163-.095-.1928-.016-.4267.177-.5219l9.496-4.70665c.194-.09639.427-.01646.522.17632.095.19278.016.4267-.176.52192l-9.497 4.70661c-.055.0271-.114.04-.173.04zM165.673 21.4567h-.013l-4.941-.154c-.215-.007-.385-.1869-.377-.402.007-.2151.184-.3903.401-.3773l4.942.154c.215.007.384.1869.377.402-.006.2104-.179.3773-.389.3773z" fill="#000"/><path d="M124.305 120.301c.557-.65 1.338-1.024 2.202-1.053.645-.02 1.244.165 1.779.552.27.196.516.438.736.721.199-.299.428-.556.684-.77.507-.422 1.089-.647 1.736-.668.864-.028 1.669.293 2.271.906.592.605.938 1.447.97 2.371.033.951-.29 1.832-1.013 2.776-.647.845-1.591 1.71-2.684 2.712-.374.343-.797.732-1.235 1.143-.116.108-.267.173-.425.176-.158.006-.316-.048-.437-.148-.467-.383-.915-.742-1.312-1.06-1.159-.927-2.162-1.729-2.866-2.528-.788-.893-1.169-1.752-1.202-2.703-.039-.92.246-1.783.796-2.427z" fill="#FE97C4"/><rect x="78" y="8" width="42" height="3" rx="1.5" fill="#fff"/><circle cx="74.5" cy="9.5" r="1.5" fill="#fff"/><path d="M131 9c0 .88962-.891 2-2.5 2S126 9.88962 126 9c0-.88962.891-2 2.5-2s2.5 1.11038 2.5 2z" stroke="#fff" stroke-width="4"/><ellipse cx="132" cy="6.5" rx="1" ry=".5" fill="#fff"/><path d="M116 101H61v31.626h55V101z" fill="#FAE5EE"/><path d="M112.789 103.875H64.4958v24.92h48.2932v-24.92z" fill="#FE97C4" stroke="#F397BF" stroke-miterlimit="10"/><path d="M64.4958 128.79l14.0503-18.483c.956-1.259 2.8266-1.296 3.8335-.075l12.2997 14.94 5.0714-6.478c.9563-1.221 2.7803-1.259 3.7873-.079l8.651 10.175H64.4958z" fill="#E72E80"/><path d="M54 28.0723c4.4308-3.7026 13.8462-3.366 18-2.5245v25.8759C63.1385 49.5724 56.3077 52.9664 54 55V28.0723z" fill="#000"/><path d="M86.981 92.7007s1.2178-5.908 2.2682-9.5215c1.6953-5.8295 5.4064-12.4266 5.4064-12.4266L113.59 66.927s6.542 13.5455 7.821 25.3405c0 0-6.962 2.3217-13.694 2.9354-4.476.4073-11.4389-2.5022-20.736-2.5022z" fill="#E72E80"/><path d="M93.3926 73.1466c7.8224-.9764 14.7534-2.7083 20.5984-5.3607l.49 1.0963c-1.266 1.6185-3.25 3.5867-6.076 4.3259-1.75.4575-3.118.2599-4.366.1458-2.579-.2373-6.2879-.2713-11.0817.6874l.4353-.8947zM101.046 20.7118c-6.3342-.2631-7.5788-1.8322-11.0439-.4939-3.228 1.2461-3.4983 4.0604-9.0293 6.7606-3.5825 1.7489-6.4075-.4429-9.3733-1.4654v26.2044c4.5308 1.85 9.6864 1.965 13.0107.4882 7.0435-3.1301 9.8531-17.4229 14.8347-21.3951 1.5401-1.2282 4.4591-1.5424 5.1421-4.2523.834-3.3188-1.306-5.7542-3.541-5.8465z" fill="#000"/><path d="M84.4159 56.6381s-3.3777-8.7645-1.3879-10.6138c.1044-.0971 1.4486-.2388 2.8259 1.0623 1.2996 1.2274 2.6388 3.8993 2.6388 3.8993l.4419 6.0505-4.5187-.3983z" fill="#FAE5EE"/><path d="M110.109 40.7295s1.317.2931 2.352 1.9424c2.065 3.2912 5.255 9.2786 10.362 10.1724 7.665 1.3424 12.309-8.2851 11.65-10.4421 0 0-1.1-1.51-2.91-1.965 0 0-.019-1.5043 1.554-.7918 1.572.7125 2.202.2777 2.905.1077 1.236-.2996 3.862-3.3641 4.84-3.7536.978-.3894.672.4526.672.4526s.959-1.1133 1.62-.5554l-1.408 1.9213s1.139-1.5537 1.799-.7732l-2.946 3.5592 2.16-1.7505s.3.3417-.264.9473c-.564.6056-2.861 3.9106-5.059 3.9106 0 0 1.184 18.2326-12.041 18.9734-11.361.6364-15.989-8.826-15.989-8.826l.703-13.1293z" fill="#fff"/><path d="M124.322 62.9843c-5.375 0-9.121-2.2841-11.361-4.2718-2.587-2.2945-3.749-4.636-3.796-4.734-.021-.0413-.03-.0866-.027-.132l.703-13.1301c.004-.0786.043-.1522.106-.1992.063-.0478.144-.0656.22-.0478.058.013 1.438.3368 2.52 2.0622.195.3109.401.6461.617.9991 2.015 3.2905 5.06 8.2633 9.565 9.0519 3.823.6704 6.633-1.4638 8.319-3.3722 2.273-2.5738 3.304-5.64 3.041-6.6836-.177-.2251-1.193-1.4404-2.73-1.8266-.118-.03-.201-.1352-.203-.2567 0-.0308-.003-.7586.511-1.0954.353-.23.831-.2114 1.421.0558 1.218.5514 1.802.3708 2.366.196.118-.0365.24-.0745.366-.1053.627-.1522 1.799-1.229 2.741-2.0946.852-.7821 1.588-1.4582 2.062-1.6476.158-.0624.638-.2534.926.0251.03.0291.055.0599.075.0931.457-.3522 1.067-.5967 1.564-.1765.107.0907.126.2502.042.3635l-.372.5077c.025-.0033.05-.0049.074-.0057.265-.0097.496.0996.678.3142.084.0995.085.2445.002.3449l-1.226 1.4808.063-.051c.111-.0907.275-.0769.37.0316.019.021.453.5327-.269 1.3076-.08.0858-.204.238-.36.4299-.898 1.1028-2.722 3.3414-4.614 3.5503.068 1.655.18 10.1709-4.33 15.2636-2.026 2.2889-4.71 3.5414-7.976 3.7244-.37.0178-.733.0284-1.088.0284zm-14.644-9.1831c.199.3805 1.366 2.4969 3.656 4.5227 2.311 2.0452 6.278 4.4166 12.045 4.0928 3.118-.1749 5.677-1.3667 7.605-3.5447 4.758-5.3736 4.189-15.0457 4.183-15.1429-.005-.0737.021-.1466.072-.2008.051-.0543.121-.085.196-.085 1.736 0 3.658-2.361 4.479-3.369.163-.2.291-.3578.383-.4566.047-.0502.087-.098.12-.1433l-1.65 1.3375c-.107.0866-.262.0785-.359-.0194-.097-.098-.104-.2534-.016-.3603l2.761-3.3358c-.023-.004-.045-.0048-.062-.004-.359.0121-.883.5481-1.129.8825-.001.0008-.001.0016-.002.0024-.088.1174-.255.1425-.373.0559-.12-.0875-.146-.2559-.057-.3749 0-.0008.001-.0016.001-.0024l1.207-1.6469h-.012c-.438 0-.981.6097-.988.6178-.084.098-.227.1215-.338.0559-.112-.0656-.161-.2016-.116-.3231.021-.0623.033-.1514.027-.1943-.036-.004-.136-.0016-.35.0826-.382.1522-1.153.8598-1.897 1.544-1.09 1.0015-2.217 2.0363-2.978 2.2209-.112.0267-.221.0615-.334.0955-.598.1854-1.342.4162-2.744-.2194-.284-.1287-.671-.2494-.906-.0955-.152.0996-.218.2963-.247.4453 1.747.5319 2.791 1.9423 2.837 2.0047.017.0243.03.051.039.0793.395 1.2922-.864 4.6628-3.14 7.2399-2.511 2.8419-5.641 4.1009-8.814 3.5455-4.743-.8307-7.865-5.9275-9.93-9.3005-.214-.3506-.419-.6841-.613-.9942-.663-1.0566-1.451-1.5238-1.876-1.7116l-.68 12.6994z" fill="#000"/><path d="M139.064 39.3204c-.066 0-.133-.0243-.184-.0737-.108-.102-.112-.272-.01-.3797l2.471-2.5998c.102-.1077.271-.1118.379-.0097.108.102.112.272.01.3797l-2.471 2.5998c-.053.055-.124.0834-.195.0834zM140.07 39.8461c-.067 0-.133-.0243-.186-.0745-.107-.102-.111-.272-.009-.3797l1.676-1.7602c.103-.1076.272-.1109.38-.0089.107.1021.111.2721.009.3798l-1.675 1.7601c-.054.0559-.125.0834-.195.0834zM135.662 42.4977c-.036 0-.073-.0072-.108-.0226-.135-.0599-.197-.2178-.137-.353.032-.0745.814-1.8217 2.127-1.544 1.016.2153 1.742-.0519 1.749-.0543.138-.0526.293.0178.346.1555.052.1384-.017.2923-.154.3457-.035.0129-.873.3271-2.052.0777-.887-.1878-1.518 1.2202-1.524 1.2339-.045.102-.143.1611-.247.1611z" fill="#000"/><path d="M84.8217 47.0667s-6.8558 9.7004-6.8388 16.146c.0178 6.4457 5.0448 4.743 5.0448 4.743l5.4646-16.9703-3.6706-3.9187z" fill="#fff"/><path d="M81.6406 68.4295c-.6733 0-1.4768-.1417-2.1898-.6518-1.145-.8194-1.7293-2.3553-1.7349-4.564-.0178-6.457 6.6057-15.9032 6.8881-16.3016l.1901-.2688 4.0041 4.2742-5.5561 17.2488-.1279.0437c-.0461.0154-.666.2195-1.4736.2195zm3.2134-20.9361c-1.0957 1.6129-6.6178 10.0284-6.6024 15.7187.0056 2.0241.513 3.4126 1.5075 4.1268 1.1378.8169 2.6211.5133 3.0581.3983l5.3725-16.6837-3.3357-3.5601z" fill="#000"/><path d="M83.0281 46.0244S106.297 39.2914 111 40.101l1.645 11.3182 3.111 8.6584c.895 2.4889.389 5.2967-1.346 7.2561-1.939 2.1893-5.163 4.5041-10.213 4.7389-9.805.4558-14.5745 2.9504-15.0949-1.5222-.5195-4.4733-1.1377-15.2028-1.1377-15.2028-1.5675-4.2685-3.4749-9.2009-4.9363-9.3232z" fill="#E72E80"/><path d="M98.1127 39.5239c-.14-.4227-.2889-.8923-.433-1.3829.9298.3441 1.8896.3611 2.4403.0138.68-.4283.772-1.2137 1.012-2.1578.1-.3951.187-.8541.563-1.2695.199-.2202.428-.37.649-.4745.271-.1279.405-.4477.316-.7424l-.081-.1733c-.635-1.3659-1.004-2.8459-1.089-4.3583l-.165-2.986c-1.6076-.5716-2.1789-.4348-2.3821-.166-.0752.0988-.1893.1676-.1634.6267.1254 2.2184-1.8167 2.0824-3.453 1.7512-1.6354-.3311-.929 2.7375-.929 2.7375s-1.0633-1.2906-2.1282-.0745c-.7623.8712.8553 2.1609 1.8329 2.8216l-.3529 6.4465c-.093 1.697-1.1143 3.19-2.6324 3.8483l-2.2917.9934s9.4477.2761 15.9998-3.5787h-4.174c-1.1473.0008-2.1669-.7538-2.5383-1.8751z" fill="#fff"/><path d="M89.1857 45.2497c-.229 0-.3568-.0032-.3673-.0032-.1255-.004-.2315-.0939-.2558-.2178-.0234-.1239.0413-.2469.157-.2971l2.2917-.9935c1.4146-.6129 2.3848-2.033 2.4714-3.6167l.3448-6.295c-.8886-.6154-1.9082-1.4882-2.0142-2.3067-.0397-.3061.0485-.5927.2549-.8283.3617-.4138.7615-.6137 1.209-.6129.2808.004.5333.0971.7404.2137-.0769-.6688-.0882-1.6225.3698-2.0929.17-.1741.4799-.3603.9938-.2559.8853.1798 2.1315.3579 2.7311-.1619.3043-.264.4354-.6923.4006-1.31-.0267-.4704.0777-.6372.1966-.7789l.0211-.0251c.3584-.4737 1.2114-.4494 2.6864.0753.102.0364.173.1303.178.238l.165 2.986c.083 1.4857.441 2.9188 1.064 4.2604l.081.1741c.006.0113.01.0227.014.0348.128.4226-.069.8793-.458 1.0631-.222.1044-.412.2429-.565.4121-.297.3271-.387.6922-.474 1.0452l-.027.1102c-.034.1311-.064.2599-.094.3845-.192.8097-.358 1.5084-1.035 1.9343-.5191.3271-1.3259.3822-2.182.1652.0898.2923.1853.591.2856.893.3351 1.0121 1.2535 1.6914 2.2844 1.6914h4.174c.121 0 .227.081.259.1983.032.1166-.019.2405-.123.3021-5.8143 3.4143-13.9624 3.6142-15.7783 3.6142zm4.0721-14.6352c-.2719 0-.5357.1449-.7858.4299-.1068.1214-.1465.2502-.1262.4056.0655.5069.7606 1.242 1.9081 2.0169.0785.0526.123.1433.1174.2372l-.3529 6.4473c-.0979 1.7852-1.1944 3.3867-2.7934 4.0798l-1.0779.4672c2.6445-.0794 8.7728-.5417 13.6319-3.0306h-3.127c-1.2627 0-2.3859-.8274-2.7938-2.0597-.1578-.4753-.3043-.9441-.4354-1.3918-.0283-.0972 0-.2024.0745-.2721.0744-.0696.1813-.0906.2759-.0558.8538.3166 1.7399.3319 2.2052.0388.4916-.3092.6206-.8525.7996-1.6047.03-.1271.061-.2583.095-.3927l.027-.106c.094-.3781.21-.8494.597-1.2769.201-.2218.448-.4024.734-.5368.145-.068.22-.2404.177-.4056l-.072-.1546c-.652-1.4032-1.026-2.9026-1.112-4.4564l-.156-2.8062c-1.5169-.5158-1.8454-.2842-1.9102-.1984-.0113.0154-.0243.0308-.0372.0462-.0437.0526-.089.106-.072.404.0445.7837-.1522 1.3715-.5851 1.7464-.7696.6672-2.108.502-3.1891.2826-.3003-.0608-.4306.0307-.5026.1044-.3795.3903-.2703 1.6234-.1125 2.31.0284.1214-.0315.2461-.1432.3011-.1117.0551-.2468.026-.3253-.0704-.0032-.004-.4176-.4931-.9241-.4987h-.0089z" fill="#000"/><path d="M97.6807 38.4095c-.0259 0-.0518-.0041-.0785-.0114-1.8822-.5732-2.7578-3.1455-2.7934-3.2548-.0469-.1408.0291-.2922.1699-.3392.1408-.0462.2922.0291.3391.17.0081.0243.8254 2.4193 2.4414 2.9115.1416.0429.2217.1927.1789.3352-.0365.1142-.1425.1887-.2574.1887z" fill="#000"/><path d="M96.315 38.2955c-.2679-.5457-1.5748-1.2995-2.5831-1.3602-.0412-.0024-.0469-.0615-.0073-.0721.8271-.2194 2.9141-.8768 2.4285-1.8282-.1788-.3506-1.9089.0089-2.6154.1482-.7064.1393-2.8056 2.2338-3.2005 3.8013-.3949 1.5675-.3682 4.3219-.8691 5.202 0 0-10.3985 15.1284-11.3631 18.5281-.9646 3.3998.4297 7.6715 4.9225 7.2553 6.7085-.621 7.5962-17.4504 8.7655-24.7924 0 0 .4184-1.4889.8206-1.9779.4022-.4891 2.5612-1.6064 2.5774-2.6071.0121-.7587-1.256-1.544-1.8685-1.8792-.0988-.0543-.0672-.2081.0445-.2154.3447-.0202.8877.0081 1.4307.2802.8998.4525 1.8159.1255 1.5173-.4826z" fill="#fff"/><path d="M82.4359 70.2673c-1.5108 0-2.7579-.5465-3.6318-1.5982-1.2074-1.4533-1.5821-3.8191-.9565-6.0271.9605-3.3867 10.8768-17.8463 11.3931-18.5969.254-.4582.3681-1.5723.479-2.6492.0898-.8768.1829-1.7828.3577-2.4759.4062-1.6104 2.5515-3.8296 3.4084-3.9989l.0899-.0178c1.9316-.3829 2.6162-.3805 2.8161.0114.1262.2469.1351.5076.0259.7529-.2331.5215-.9816.9149-1.7666 1.1935.8335.2833 1.6646.8282 1.9049 1.3173.1433.2914.102.5918-.11.8023-.3593.3571-1.103.3741-1.7682.0405-.233-.1166-.4661-.1838-.6813-.2202.7614.4858 1.4744 1.1222 1.4639 1.7982-.0138.8259-1.0747 1.5926-1.9268 2.2088-.3132.2267-.6094.4404-.7113.5643-.2962.3603-.6482 1.4533-.7655 1.8654-.1845 1.1586-.365 2.582-.5568 4.0888-.5179 4.0742-1.162 9.1442-2.3848 13.2491-1.4639 4.9154-3.4465 7.4221-6.0619 7.6642-.2104.0178-.4167.0275-.6174.0275zm13.2106-35.117c-.3108 0-.8942.0664-1.9656.2785l-.0907.0178c-.5486.1085-2.6081 2.0816-2.9925 3.6038-.1651.655-.2565 1.5424-.3447 2.3998-.1222 1.1926-.2379 2.3188-.5519 2.8694l-.0121.0194c-.1036.1506-10.3848 15.1308-11.326 18.4496-.5794 2.0427-.2443 4.2158.853 5.5372.8723 1.0501 2.1825 1.5262 3.7871 1.378 5.4291-.5028 6.9545-12.5043 7.9636-20.4461.1926-1.5173.3747-2.9512.5616-4.1212l.0065-.0307c.0445-.1579.4459-1.5586.8715-2.076.1465-.1781.4403-.3902.8117-.6582.6749-.4883 1.6953-1.2259 1.7042-1.7821.0073-.4242-.6555-1.0525-1.7285-1.6387-.1513-.0826-.2274-.2518-.1893-.4218.038-.1676.1772-.2867.3463-.2964.3884-.0235.9751.0122 1.5659.3085.5243.2623 1.005.2024 1.1499.0583.0226-.0227.0647-.0648.0064-.1846-.2031-.4146-1.3894-1.1521-2.358-1.2104-.1497-.0089-.2695-.1239-.2849-.2737-.0154-.1498.0793-.2874.225-.3255 1.2284-.3255 2.0983-.7683 2.2715-1.1562.0396-.0882.0396-.17 0-.2615-.0462-.0227-.1319-.0372-.28-.0372zm-1.8985 1.5181s.0008 0 0 0c.0008 0 0 0 0 0z" fill="#000"/><path d="M132.326 101.324l-.836-.012c-.231-.003-.421.182-.423.413-.003.231.181.421.412.423l.835.012c.232.003.421-.182.424-.413.003-.23-.182-.421-.412-.423zM128.12 99.8239l-.406-.8425c-.102-.2085-.351-.2943-.559-.1953-.208.1003-.295.3507-.194.5591l.407.8428c.1.206.349.295.558.195.208-.1.295-.351.194-.5591zM130.872 98.8367c-.205-.1054-.458-.0261-.563.1803l-.429.8311c-.106.2049-.026.4579.18.5639.207.106.458.024.563-.181l.429-.8307c.106-.205.026-.4565-.18-.5636zM126.474 101.245l-.836-.012c-.231-.003-.421.182-.423.412-.003.232.181.422.412.424l.835.012c.232.003.421-.182.424-.413.004-.23-.181-.42-.412-.423zM123.909 105.425l-1.672-.024c-.232-.003-.421.182-.424.413l-.09 6.697c-.003.232.182.421.412.424l1.673.023c.231.003.42-.182.423-.412l.09-6.698c.003-.231-.182-.421-.412-.423zM134.337 106.676c-.065-.651-.664-1.118-1.317-1.127l-1.952-.027c-.618-.008-1.082-.567-.982-1.178.081-.498.126-1.012.126-1.308.003-.95-.772-1.722-1.722-1.734l-.013-.001c-.391-.005-.738.308-.769.699-.077.994-.466 2.484-1.118 3.12-.304.296-.581.473-.877.628-.343.179-.562.529-.566.915l-.065 4.883c-.006.458.284.865.719 1.008.697.23 1.559.453 2.711.469 0 0 2.815.204 4.036-.794 1.635-1.338 2.138-3.669 1.789-5.553z" fill="#FE97C4"/><rect x="56" y="137" width="88.0163" height="14.6296" rx="2" fill="#E72E80" stroke="#E72E80"/><path d="M78.9639 138.727c-1.3895 0-2.7492.404-3.9143 1.161.6532.681 1.14 1.504 1.4222 2.405.2821.901.352 1.854.2042 2.787-.1479.932-.5095 1.817-1.0564 2.586-.547.769-1.2645 1.4-2.0962 1.845h50.5806c1.599 0 3.152-.534 4.414-1.518 1.261-.984 2.158-2.361 2.549-3.913l-1.005-3.833-51.0981-1.52z" fill="#E72E80"/><path d="M75.9175 143.956c0-1.067-.3089-2.109-.8877-2.996-.5787-.886-1.4013-1.577-2.3637-1.986-.9624-.408-2.0214-.514-3.0431-.306-1.0217.208-1.9602.721-2.6968 1.475-.7366.754-1.2382 1.715-1.4414 2.761-.2033 1.046-.099 2.13.2997 3.115.3986.986 1.0737 1.828 1.9398 2.42.8662.593 1.8845.909 2.9262.909 1.3969 0 2.7366-.568 3.7243-1.579.9877-1.012 1.5427-2.383 1.5427-3.813z" fill="#111"/><path d="M70.6506 142.036c-.4968.002-.9726.205-1.3239.565-.3512.359-.5493.846-.5512 1.355v2.912h.0246c.1663.11.3413.206.5232.287l.1755.072v-1.761c.2349.188.5105.316.8038.373.2933.057.5957.041.8817-.046.2866-.089.5488-.245.7654-.457.2148-.212.3774-.474.4744-.763.097-.29.1258-.598.0839-.901-.0425-.304-.1555-.593-.3296-.844-.1741-.25-.4042-.453-.6711-.594-.2663-.134-.5601-.2-.8567-.194v-.004zm0 3.106c-.2289-.001-.4525-.071-.6426-.201-.1407-.098-.2586-.226-.3452-.376-.0867-.15-.1399-.318-.1559-.491-.0161-.173.0055-.348.0631-.512.0576-.164.1498-.313.2701-.436.1202-.123.2656-.217.4256-.276.1601-.059.3308-.081.5002-.065.1693.016.333.071.4794.16.1464.088.2718.209.3673.353.1162.179.183.386.1932.6.0102.214-.0366.428-.1353.617-.0987.189-.2457.347-.4253.458-.1796.11-.3851.169-.5946.169z" fill="#E72E80"/><path d="M72.8627 146.609h1.1903v.834h-3.7676c-.2638-.029-.5233-.09-.7725-.184v-.927c.5811.296 1.2493.358 1.8729.174.6237-.183 1.1574-.6 1.4961-1.166.3386-.567.4575-1.243.3332-1.895-.1242-.652-.4826-1.233-1.0044-1.628-.5219-.395-1.1693-.575-1.8147-.505-.6453.069-1.2418.384-1.6716.882-.4299.497-.662 1.142-.6506 1.806.0115.664.2656 1.3.7123 1.782v1.078c-.5894-.395-1.0447-.967-1.3033-1.638-.2586-.671-.3078-1.408-.1409-2.108.1669-.701.5418-1.332 1.073-1.805.5313-.474 1.1929-.768 1.8938-.841.7009-.073 1.4067.078 2.0204.432.6137.355 1.1051.895 1.4066 1.547.3016.652.3984 1.383.2773 2.094-.1211.71-.4543 1.365-.9537 1.874l-.1966.194z" fill="#FCEBF3"/><path d="M102.849 145.526c-.279.271-.655.413-1.024.413-.78 0-1.434-.514-1.434-1.413s.654-1.413 1.434-1.413c.369 0 .759.129 1.038.399l.215-.21c-.348-.331-.8-.5-1.253-.5-.996 0-1.769.669-1.769 1.724s.801 1.724 1.769 1.724c.453 0 .905-.162 1.253-.5l-.229-.224zM103.778 141.464v4.732h.341v-1.832c0-.697.502-1.237 1.226-1.237.773 0 1.107.466 1.107 1.156v1.913h.334v-1.913c0-.872-.48-1.474-1.441-1.474-.481.007-.961.189-1.24.669v-2.014h-.327zM109.25 146.25c.55 0 1.149-.217 1.483-.642l-.243-.19c-.258.332-.787.507-1.24.507-.71 0-1.33-.459-1.399-1.244h3.098c.133-1.304-.731-1.879-1.699-1.879-.968 0-1.747.723-1.747 1.724 0 1.061.779 1.724 1.747 1.724zm-1.399-1.859c.076-.818.689-1.285 1.399-1.285.829 0 1.386.46 1.393 1.285h-2.792zM114.242 145.526c-.278.271-.654.413-1.023.413-.78 0-1.435-.514-1.435-1.413s.655-1.413 1.435-1.413c.369 0 .759.129 1.037.399l.216-.21c-.348-.331-.801-.5-1.253-.5-.996 0-1.769.669-1.769 1.724s.801 1.724 1.769 1.724c.452 0 .905-.162 1.253-.5l-.23-.224zM115.172 141.464v4.732h.334v-1.636l1.845 1.636h.432v-.021l-1.943-1.744 1.741-1.561v-.014h-.453l-1.622 1.46v-2.852h-.334zM119.542 146.25c.968 0 1.748-.649 1.748-1.711 0-1.061-.78-1.737-1.748-1.737s-1.748.676-1.748 1.737c0 1.062.78 1.711 1.748 1.711zm0-.325c-.78 0-1.413-.52-1.413-1.386 0-.865.633-1.426 1.413-1.426s1.414.561 1.414 1.426c0 .866-.634 1.386-1.414 1.386zM125.11 146.196v-3.347h-.341v1.859c0 .69-.494 1.211-1.205 1.217-.745.007-1.225-.399-1.225-1.156v-1.92h-.341v1.927c0 .926.633 1.474 1.553 1.474.48-.007.96-.196 1.225-.656v.602h.334zM126.493 141.883v.973h-.731v.277h.731v2.035c0 .656.237 1.075.968 1.075.216 0 .431-.068.647-.169l-.118-.27c-.174.081-.362.135-.529.135-.536 0-.634-.318-.634-.771v-2.035h1.17v-.277h-1.17v-1.007l-.334.034zM80.0498 141.901v4.356h-.7901v-3.678h-.8995v-.678h1.6896zM80.9607 144.203h1.6714v.648h-1.6714v-.648zM85.5352 146.319c-.4295 0-.8185-.095-1.167-.286-.3444-.195-.6159-.463-.8144-.803-.1945-.34-.2918-.724-.2918-1.151 0-.427.0993-.811.2979-1.151.1985-.34.47-.606.8144-.797.3485-.194.7374-.292 1.1669-.292.3485 0 .6666.062.9543.187.2877.124.5308.305.7293.541l-.5105.492c-.308-.341-.6868-.511-1.1366-.511-.2917 0-.5531.067-.784.199-.231.129-.4113.309-.541.542-.1296.232-.1945.495-.1945.79 0 .294.0649.558.1945.79.1297.232.31.415.541.548.2309.128.4923.193.784.193.4498 0 .8286-.173 1.1366-.517l.5105.498c-.1985.236-.4437.417-.7354.541-.2877.125-.6058.187-.9542.187zM87.909 141.64h.7597v4.617h-.7597v-4.617zM89.6659 142.934h.7597v3.323h-.7597v-3.323zm.3829-.547c-.1378 0-.2533-.044-.3465-.131-.0932-.091-.1398-.203-.1398-.336s.0466-.243.1398-.33c.0932-.091.2087-.137.3465-.137.1377 0 .2532.044.3464.131.0932.083.1398.189.1398.317 0 .137-.0466.253-.1398.349-.0891.091-.2046.137-.3464.137zM92.9118 146.3c-.3363 0-.6381-.072-.9056-.218-.2674-.145-.4761-.346-.626-.603-.1499-.261-.2249-.556-.2249-.884 0-.327.075-.62.2249-.877.1499-.257.3566-.458.62-.603.2674-.146.5713-.218.9116-.218.3201 0 .5997.066.8388.199.2431.133.4254.323.547.572l-.5835.349c-.0932-.154-.2107-.268-.3525-.342-.1378-.079-.2897-.119-.4558-.119-.2837 0-.5187.096-.7051.287-.1864.186-.2796.437-.2796.752 0 .316.0912.569.2735.76.1864.186.4235.28.7112.28.1661 0 .318-.038.4558-.112.1418-.079.2593-.195.3525-.349l.5835.349c-.1256.248-.31.441-.5531.578-.2391.133-.5166.199-.8327.199zM96.2496 144.832l-.5652.547v.878h-.7597v-4.617h.7597v2.787l1.5742-1.493h.9117l-1.3554 1.394 1.483 1.929h-.9238l-1.1245-1.425z" fill="#fff"/></svg>