<svg width="1934" height="1225" viewBox="0 0 1934 1225" fill="none" xmlns="http://www.w3.org/2000/svg"><path opacity=".0344828" d="M1420.28 762.443c2.75-3.275 6.91-5.334 12.46-6.166 5.56-.833 12.44-.424 20.49 1.186 16.12 3.22 36.73 11.199 60.46 23.269 47.45 24.131 107.16 64.51 167.86 115.424 60.69 50.914 110.84 102.683 142.85 145.204 16.01 21.27 27.45 40.18 33.42 55.49 2.99 7.65 4.58 14.35 4.73 19.97.14 5.6-1.16 10.06-3.91 13.34-2.75 3.27-6.92 5.33-12.46 6.16-5.56.84-12.44.43-20.5-1.18-16.11-3.22-36.73-11.2-60.46-23.27-47.45-24.13-107.15-64.51-167.85-115.426-60.7-50.914-110.84-102.683-142.85-145.207-16.02-21.269-27.46-40.18-33.43-55.485-2.98-7.652-4.58-14.354-4.72-19.969-.15-5.606 1.16-10.065 3.91-13.34z" stroke="#fff" stroke-opacity=".37" stroke-width="2"/><path opacity=".0689655" d="M1437.14 741.755c3.02-3.024 7.35-4.711 12.95-5.057 5.61-.346 12.43.661 20.31 2.967 15.78 4.611 35.62 14.356 58.21 28.448 45.16 28.174 101.12 73.601 157.15 129.61 56.02 56.009 101.47 111.947 129.65 157.097 14.09 22.59 23.84 42.42 28.45 58.19 2.31 7.88 3.32 14.7 2.97 20.3-.34 5.6-2.03 9.93-5.06 12.95-3.02 3.03-7.35 4.71-12.95 5.06-5.61.35-12.42-.66-20.31-2.97-15.77-4.61-35.61-14.35-58.2-28.45-45.17-28.17-101.13-73.6-157.15-129.605-56.03-56.009-101.47-111.95-129.65-157.102-14.1-22.582-23.85-42.418-28.46-58.185-2.31-7.883-3.31-14.699-2.97-20.305.35-5.597 2.04-9.925 5.06-12.948z" stroke="#fff" stroke-opacity=".37" stroke-width="2"/><path opacity=".103448" d="M1455.54 722.605c3.28-2.749 7.74-4.053 13.35-3.909 5.61.144 12.32 1.741 19.97 4.726 15.31 5.968 34.23 17.404 55.5 33.41 42.54 32.002 94.33 82.132 145.26 142.809 50.93 60.677 91.32 120.369 115.46 167.799 12.07 23.73 20.05 44.34 23.27 60.44 1.61 8.06 2.02 14.94 1.19 20.49-.83 5.55-2.89 9.71-6.17 12.46-3.27 2.75-7.73 4.05-13.34 3.91-5.62-.15-12.32-1.74-19.98-4.73-15.31-5.97-34.22-17.4-55.5-33.41-42.54-32-94.32-82.13-145.25-142.807-50.93-60.678-91.32-120.365-115.46-167.8-12.08-23.725-20.06-44.335-23.28-60.443-1.61-8.055-2.02-14.932-1.18-20.486.83-5.546 2.89-9.711 6.16-12.459z" stroke="#fff" stroke-opacity=".37" stroke-width="2"/><path opacity=".137931" d="M1475.35 705.123c3.5-2.453 8.06-3.363 13.63-2.731 5.58.633 12.12 2.808 19.49 6.447 14.73 7.279 32.58 20.321 52.38 38.119 39.58 35.587 86.8 90.038 132.24 154.922 45.45 64.884 80.49 127.86 100.4 177.22 9.96 24.69 16.11 45.91 17.91 62.24.91 8.17.71 15.05-.6 20.51-1.31 5.46-3.73 9.43-7.23 11.88-3.5 2.45-8.06 3.36-13.64 2.73-5.58-.63-12.12-2.81-19.48-6.45-14.73-7.28-32.58-20.32-52.38-38.12-39.59-35.58-86.8-90.04-132.25-154.919-45.45-64.884-80.48-127.864-100.39-177.222-9.96-24.686-16.11-45.913-17.92-62.241-.9-8.164-.71-15.051.61-20.511 1.31-5.453 3.72-9.422 7.23-11.874z" stroke="#fff" stroke-opacity=".37" stroke-width="2"/><path opacity=".172414" d="M1496.4 689.424c3.7-2.138 8.32-2.648 13.82-1.533 5.5 1.117 11.83 3.854 18.85 8.122 14.04 8.534 30.68 23.081 48.85 42.537 36.34 38.9 78.63 97.258 118.24 165.855 39.62 68.596 69.03 134.385 84.56 185.295 7.77 25.46 12.05 47.14 12.43 63.56.18 8.22-.61 15.06-2.4 20.38-1.78 5.32-4.53 9.07-8.23 11.2-3.71 2.14-8.33 2.65-13.82 1.54-5.51-1.12-11.83-3.86-18.85-8.12-14.05-8.54-30.69-23.09-48.86-42.54-36.33-38.9-78.62-97.26-118.24-165.857-39.62-68.597-69.03-134.389-84.56-185.294-7.77-25.46-12.05-47.142-12.42-63.565-.19-8.212.6-15.056 2.39-20.381 1.78-5.317 4.53-9.061 8.24-11.199z" stroke="#fff" stroke-opacity=".37" stroke-width="2"/><path opacity=".206897" d="M1518.54 675.61c3.87-1.807 8.52-1.912 13.9-.322 5.39 1.592 11.45 4.869 18.07 9.732 13.24 9.726 28.56 25.668 44.96 46.633 32.8 41.917 69.85 103.738 103.33 175.525 33.49 71.787 57.05 139.892 68.08 191.952 5.52 26.04 7.9 48.02 6.84 64.41-.53 8.2-1.92 14.95-4.16 20.1-2.24 5.14-5.31 8.63-9.18 10.43-3.88 1.81-8.52 1.92-13.9.33-5.39-1.6-11.45-4.87-18.08-9.74-13.24-9.72-28.55-25.66-44.96-46.63-32.8-41.92-69.84-103.74-103.33-175.524-33.48-71.787-57.04-139.892-68.08-191.956-5.52-26.04-7.89-48.013-6.83-64.406.53-8.197 1.91-14.945 4.16-20.095 2.23-5.142 5.3-8.631 9.18-10.439z" stroke="#fff" stroke-opacity=".37" stroke-width="2"/><path opacity=".241379" d="M1541.6 663.769c4.02-1.463 8.65-1.163 13.88.89 5.22 2.055 10.98 5.848 17.15 11.27 12.34 10.842 26.21 28.057 40.72 50.372 29.03 44.616 60.54 109.429 87.64 183.861 27.1 74.431 44.63 144.328 51.09 197.158 3.22 26.42 3.67 48.52 1.19 64.76-1.24 8.11-3.21 14.72-5.9 19.65-2.68 4.93-6.04 8.14-10.05 9.6-4.02 1.46-8.66 1.16-13.88-.89-5.23-2.06-10.98-5.85-17.16-11.27-12.34-10.84-26.2-28.06-40.72-50.37-29.02-44.62-60.53-109.43-87.63-183.862-27.1-74.432-44.64-144.33-51.09-197.158-3.23-26.422-3.68-48.518-1.19-64.756 1.24-8.119 3.21-14.722 5.89-19.656 2.68-4.927 6.04-8.137 10.06-9.599z" stroke="#fff" stroke-opacity=".37" stroke-width="2"/><path opacity=".275862" d="M1565.4 653.976c4.14-1.107 8.73-.405 13.75 2.095 5.03 2.503 10.43 6.783 16.11 12.722 11.35 11.877 23.66 30.234 36.17 53.729 25.03 46.975 50.77 114.286 71.27 190.796 20.51 76.509 31.89 147.672 33.71 200.862.91 26.6-.57 48.65-4.46 64.61-1.94 7.98-4.48 14.39-7.58 19.07-3.1 4.67-6.73 7.58-10.86 8.68-4.13 1.11-8.72.41-13.75-2.09-5.03-2.5-10.43-6.78-16.1-12.72-11.35-11.88-23.66-30.24-36.18-53.73-25.02-46.98-50.76-114.29-71.27-190.798-20.51-76.51-31.88-147.67-33.71-200.859-.91-26.603.57-48.654 4.46-64.613 1.95-7.981 4.48-14.387 7.59-19.069 3.1-4.674 6.72-7.579 10.85-8.685z" stroke="#fff" stroke-opacity=".37" stroke-width="2"/><path opacity=".310345" d="M1589.77 646.283c4.21-.742 8.73.358 13.51 3.285 4.8 2.932 9.8 7.666 14.94 14.077 10.27 12.821 20.94 32.181 31.36 56.676 20.83 48.977 40.6 118.275 54.36 196.28 13.76 78.006 18.89 149.889 16.07 203.029-1.41 26.58-4.81 48.42-10.08 63.98-2.63 7.78-5.72 13.94-9.22 18.34-3.49 4.38-7.36 6.96-11.57 7.7-4.21.75-8.73-.35-13.51-3.28-4.79-2.93-9.8-7.67-14.94-14.08-10.27-12.82-20.93-32.18-31.35-56.68-20.83-48.97-40.61-118.27-54.37-196.275-13.76-78.005-18.88-149.886-16.06-203.031 1.41-26.581 4.8-48.419 10.07-63.979 2.63-7.781 5.72-13.941 9.22-18.335 3.49-4.387 7.36-6.964 11.57-7.707z" stroke="#fff" stroke-opacity=".37" stroke-width="2"/><path opacity=".344828" d="M1614.52 640.734c4.26-.372 8.66 1.117 13.17 4.45 4.52 3.339 9.1 8.491 13.66 15.325 9.11 13.667 18.05 33.882 26.29 59.192 16.48 50.606 30.14 121.363 37.05 200.27 6.9 78.907 5.74 150.959-1.7 203.659-3.72 26.36-9.01 47.82-15.61 62.86-3.3 7.52-6.92 13.39-10.78 17.46-3.87 4.07-7.94 6.3-12.21 6.67-4.26.37-8.66-1.12-13.17-4.45-4.52-3.34-9.09-8.49-13.65-15.33-9.12-13.66-18.05-33.88-26.3-59.19-16.48-50.6-30.14-121.36-37.04-200.269-6.91-78.907-5.75-150.96 1.69-203.658 3.73-26.357 9.01-47.816 15.62-62.858 3.3-7.521 6.91-13.389 10.78-17.461 3.86-4.066 7.94-6.297 12.2-6.67z" stroke="#fff" stroke-opacity=".37" stroke-width="2"/><path opacity=".37931" d="M1639.46 637.354c4.27 0 8.53 1.867 12.73 5.581 4.21 3.719 8.32 9.25 12.27 16.455 7.89 14.41 15.02 35.326 21.03 61.259 12.01 51.848 19.45 123.527 19.45 202.735 0 79.206-7.44 150.886-19.45 202.736-6.01 25.93-13.14 46.85-21.03 61.26-3.95 7.2-8.06 12.73-12.27 16.45-4.2 3.72-8.46 5.58-12.73 5.58-4.28 0-8.54-1.86-12.74-5.58-4.21-3.72-8.32-9.25-12.26-16.45-7.89-14.41-15.03-35.33-21.04-61.26-12.01-51.85-19.44-123.53-19.44-202.736 0-79.208 7.43-150.887 19.44-202.735 6.01-25.933 13.15-46.849 21.04-61.259 3.94-7.205 8.05-12.736 12.26-16.455 4.2-3.714 8.46-5.581 12.74-5.581z" stroke="#fff" stroke-opacity=".37" stroke-width="2"/><path opacity=".413793" d="M1664.39 636.15c4.27.373 8.34 2.603 12.21 6.669 3.86 4.072 7.48 9.94 10.78 17.462 6.6 15.042 11.89 36.501 15.61 62.858 7.44 52.697 8.6 124.751 1.7 203.658-6.91 78.903-20.57 149.663-37.05 200.273-8.24 25.31-17.18 45.52-26.29 59.19-4.56 6.83-9.14 11.99-13.66 15.32-4.51 3.34-8.91 4.83-13.17 4.45-4.26-.37-8.34-2.6-12.2-6.67-3.87-4.07-7.48-9.94-10.78-17.46-6.61-15.04-11.89-36.5-15.62-62.85-7.44-52.7-8.6-124.756-1.69-203.663 6.9-78.907 20.56-149.665 37.04-200.27 8.25-25.31 17.18-45.526 26.3-59.193 4.56-6.834 9.13-11.986 13.65-15.324 4.51-3.334 8.91-4.823 13.17-4.45z" stroke="#fff" stroke-opacity=".37" stroke-width="2"/><path opacity=".448276" d="M1689.14 637.115c4.21.743 8.08 3.32 11.57 7.707 3.5 4.394 6.59 10.554 9.22 18.335 5.27 15.56 8.67 37.398 10.08 63.979 2.82 53.145-2.31 125.026-16.07 203.031-13.76 78.003-33.53 147.303-54.36 196.283-10.42 24.49-21.09 43.85-31.36 56.67-5.14 6.41-10.14 11.15-14.93 14.08-4.79 2.93-9.3 4.03-13.52 3.29-4.21-.75-8.07-3.32-11.57-7.71-3.5-4.4-6.58-10.56-9.22-18.34-5.27-15.56-8.66-37.39-10.07-63.98-2.82-53.14 2.3-125.021 16.06-203.027 13.76-78.005 33.54-147.303 54.37-196.279 10.42-24.496 21.08-43.856 31.35-56.677 5.14-6.41 10.15-11.144 14.94-14.077 4.79-2.927 9.3-4.027 13.51-3.285z" stroke="#fff" stroke-opacity=".37" stroke-width="2"/><path opacity=".482759" d="M1713.51 640.225c4.13 1.107 7.76 4.011 10.86 8.686 3.1 4.682 5.64 11.088 7.58 19.068 3.89 15.96 5.37 38.011 4.46 64.613-1.82 53.189-13.2 124.349-33.7 200.859-20.51 76.509-46.25 143.819-71.28 190.799-12.51 23.49-24.82 41.85-36.17 53.73-5.68 5.93-11.08 10.21-16.11 12.72-5.02 2.5-9.61 3.2-13.75 2.09-4.13-1.1-7.75-4.01-10.85-8.68-3.11-4.68-5.64-11.09-7.59-19.07-3.89-15.96-5.37-38.01-4.46-64.61 1.83-53.19 13.2-124.353 33.71-200.863 20.51-76.509 46.25-143.821 71.27-190.796 12.52-23.495 24.83-41.852 36.18-53.729 5.67-5.938 11.08-10.218 16.1-12.722 5.03-2.499 9.62-3.202 13.75-2.095z" stroke="#fff" stroke-opacity=".37" stroke-width="2"/><path opacity=".517241" d="M1737.32 645.436c4.02 1.462 7.38 4.672 10.05 9.599 2.69 4.934 4.66 11.537 5.9 19.656 2.48 16.238 2.03 38.334-1.19 64.756-6.46 52.828-23.99 122.726-51.09 197.158-27.1 74.435-58.61 139.245-87.64 183.865-14.51 22.31-28.38 39.52-40.72 50.37-6.17 5.42-11.93 9.21-17.15 11.27-5.22 2.05-9.86 2.35-13.88.89-4.02-1.47-7.38-4.67-10.06-9.6-2.68-4.94-4.65-11.54-5.89-19.66-2.49-16.24-2.04-38.33 1.19-64.75 6.45-52.83 23.99-122.73 51.09-197.161 27.1-74.432 58.61-139.245 87.63-183.861 14.52-22.315 28.38-39.53 40.73-50.372 6.17-5.422 11.92-9.215 17.15-11.27 5.22-2.053 9.86-2.352 13.88-.89z" stroke="#fff" stroke-opacity=".37" stroke-width="2"/><path opacity=".551724" d="M1760.38 652.694c3.87 1.807 6.94 5.297 9.18 10.439 2.24 5.149 3.63 11.898 4.16 20.095 1.06 16.393-1.32 38.366-6.84 64.406-11.03 52.064-34.59 120.169-68.08 191.956-33.48 71.79-70.53 133.61-103.33 175.53-16.41 20.96-31.72 36.9-44.96 46.63-6.62 4.86-12.68 8.14-18.07 9.73-5.38 1.59-10.03 1.48-13.9-.32-3.88-1.81-6.95-5.3-9.19-10.44-2.24-5.15-3.62-11.9-4.15-20.1-1.06-16.39 1.31-38.36 6.83-64.4 11.04-52.07 34.6-120.171 68.08-191.958 33.49-71.787 70.53-133.608 103.33-175.525 16.41-20.965 31.72-36.907 44.96-46.633 6.63-4.863 12.69-8.14 18.07-9.732 5.38-1.59 10.03-1.485 13.91.322z" stroke="#fff" stroke-opacity=".37" stroke-width="2"/><path opacity=".586207" d="M1782.52 661.924c3.7 2.138 6.45 5.882 8.23 11.199 1.79 5.326 2.58 12.169 2.4 20.381-.38 16.423-4.66 38.105-12.43 63.565-15.53 50.905-44.94 116.698-84.56 185.294-39.61 68.597-81.9 126.957-118.24 165.857-18.17 19.45-34.81 34-48.85 42.54-7.02 4.26-13.35 7-18.85 8.12-5.5 1.11-10.12.6-13.82-1.54-3.71-2.13-6.46-5.88-8.24-11.2-1.79-5.32-2.58-12.16-2.39-20.38.37-16.42 4.65-38.1 12.42-63.56 15.53-50.91 44.94-116.699 84.56-185.295 39.62-68.597 81.91-126.955 118.24-165.855 18.17-19.456 34.82-34.002 48.86-42.537 7.02-4.268 13.34-7.005 18.85-8.121 5.49-1.116 10.11-.606 13.82 1.532z" stroke="#fff" stroke-opacity=".37" stroke-width="2"/><path opacity=".62069" d="M1803.57 673.04c3.5 2.452 5.92 6.422 7.23 11.874 1.31 5.461 1.51 12.347.6 20.512-1.8 16.328-7.95 37.554-17.91 62.241-19.92 49.357-54.95 112.337-100.4 177.221-45.44 64.882-92.66 119.332-132.24 154.922-19.8 17.8-37.65 30.84-52.38 38.12-7.37 3.64-13.91 5.81-19.49 6.45-5.57.63-10.13-.28-13.63-2.74-3.51-2.45-5.92-6.42-7.23-11.87-1.32-5.46-1.51-12.35-.61-20.51 1.81-16.33 7.96-37.56 17.92-62.24 19.91-49.359 54.94-112.339 100.39-177.223 45.45-64.884 92.66-119.335 132.25-154.921 19.8-17.799 37.65-30.84 52.38-38.119 7.36-3.64 13.9-5.815 19.48-6.448 5.58-.632 10.14.278 13.64 2.731z" stroke="#fff" stroke-opacity=".37" stroke-width="2"/><path opacity=".655172" d="M1823.37 685.938c3.28 2.749 5.34 6.913 6.17 12.459.83 5.554.42 12.432-1.19 20.486-3.22 16.109-11.2 36.718-23.27 60.443-24.14 47.435-64.53 107.123-115.46 167.8-50.93 60.674-102.72 110.804-145.26 142.814-21.27 16-40.19 27.44-55.5 33.41-7.65 2.98-14.36 4.58-19.97 4.72-5.61.14-10.07-1.16-13.35-3.91-3.27-2.75-5.33-6.91-6.16-12.46-.84-5.55-.43-12.43 1.18-20.48 3.22-16.11 11.2-36.72 23.28-60.45 24.14-47.431 64.53-107.118 115.46-167.795 50.93-60.678 102.71-110.808 145.25-142.81 21.28-16.005 40.19-27.442 55.5-33.41 7.66-2.984 14.36-4.581 19.98-4.725 5.61-.144 10.07 1.16 13.34 3.908z" stroke="#fff" stroke-opacity=".37" stroke-width="2"/><path opacity=".689655" d="M1841.78 700.505c3.02 3.023 4.71 7.351 5.05 12.948.35 5.606-.66 12.422-2.96 20.305-4.62 15.767-14.37 35.603-28.46 58.185-28.18 45.152-73.63 101.093-129.65 157.102-56.03 56.005-111.99 101.435-157.15 129.605-22.59 14.1-42.43 23.84-58.21 28.45-7.88 2.31-14.7 3.32-20.31 2.97-5.6-.35-9.92-2.03-12.95-5.06-3.02-3.02-4.71-7.35-5.06-12.95-.34-5.6.66-12.42 2.97-20.3 4.61-15.77 14.36-35.6 28.46-58.19 28.18-45.147 73.62-101.088 129.65-157.097 56.02-56.009 111.98-101.436 157.15-129.61 22.59-14.091 42.43-23.836 58.2-28.448 7.89-2.306 14.7-3.312 20.31-2.967 5.6.346 9.93 2.033 12.96 5.057z" stroke="#fff" stroke-opacity=".37" stroke-width="2"/><path opacity=".724138" d="M1858.64 716.611c2.75 3.275 4.05 7.733 3.91 13.34-.15 5.614-1.74 12.316-4.73 19.969-5.97 15.304-17.41 34.215-33.42 55.484-32.01 42.524-82.16 94.293-142.85 145.207-60.7 50.919-120.41 91.289-167.86 115.429-23.73 12.07-44.34 20.04-60.46 23.26-8.06 1.61-14.93 2.02-20.49 1.19-5.55-.83-9.71-2.89-12.46-6.17-2.75-3.27-4.06-7.73-3.91-13.34.14-5.61 1.74-12.31 4.72-19.97 5.97-15.3 17.41-34.21 33.42-55.479 32.02-42.524 82.16-94.293 142.86-145.208 60.69-50.914 120.4-91.293 167.85-115.424 23.73-12.069 44.35-20.049 60.46-23.268 8.06-1.61 14.94-2.019 20.49-1.186 5.55.832 9.72 2.89 12.47 6.166z" stroke="#fff" stroke-opacity=".37" stroke-width="2"/><path opacity=".758621" d="M1873.83 734.115c2.46 3.503 3.37 8.058 2.73 13.63-.63 5.581-2.8 12.118-6.45 19.482-7.28 14.726-20.32 32.568-38.13 52.361-35.59 39.573-90.06 86.776-154.97 132.208-64.9 45.432-127.9 80.454-177.27 100.364-24.7 9.95-45.93 16.1-62.26 17.91-8.17.9-15.06.71-20.52-.61-5.45-1.31-9.43-3.72-11.88-7.22-2.45-3.51-3.36-8.06-2.73-13.63.63-5.58 2.81-12.12 6.45-19.49 7.28-14.72 20.33-32.564 38.13-52.356 35.6-39.574 90.07-86.777 154.97-132.209s127.9-80.455 177.28-100.36c24.69-9.956 45.92-16.109 62.26-17.912 8.16-.902 15.05-.71 20.52.604 5.45 1.312 9.42 3.726 11.87 7.228z" stroke="#fff" stroke-opacity=".37" stroke-width="2"/><path opacity=".793103" d="M1887.25 752.869c2.13 3.702 2.64 8.32 1.53 13.816-1.12 5.504-3.86 11.827-8.13 18.845-8.53 14.036-23.08 30.674-42.55 48.84-38.91 36.321-97.28 78.598-165.9 118.202-68.62 39.605-134.43 69.008-185.35 84.538-25.47 7.76-47.16 12.04-63.59 12.41-8.21.19-15.06-.6-20.39-2.39-5.32-1.78-9.06-4.53-11.2-8.23-2.14-3.7-2.65-8.32-1.53-13.82 1.12-5.5 3.85-11.82 8.12-18.84 8.54-14.038 23.09-30.676 42.55-48.842 38.91-36.321 97.29-78.598 165.91-118.203 68.62-39.604 134.43-69.005 185.35-84.532 25.47-7.767 47.16-12.046 63.59-12.419 8.21-.187 15.06.604 20.38 2.389 5.32 1.783 9.07 4.533 11.21 8.236z" stroke="#fff" stroke-opacity=".37" stroke-width="2"/><path opacity=".827586" d="M1898.77 772.71c1.81 3.875 1.91 8.519.32 13.897-1.59 5.386-4.87 11.446-9.73 18.066-9.73 13.238-25.68 28.545-46.65 44.946-41.93 32.793-103.77 69.823-175.58 103.298-71.81 33.475-139.94 57.033-192.02 68.063-26.05 5.52-48.02 7.89-64.42 6.83-8.2-.53-14.95-1.91-20.1-4.16-5.15-2.24-8.64-5.3-10.45-9.18-1.8-3.87-1.91-8.52-.32-13.89 1.59-5.39 4.87-11.45 9.74-18.069 9.73-13.239 25.67-28.545 46.64-44.947 41.93-32.792 103.77-69.823 175.58-103.297 71.81-33.475 139.94-57.03 192.02-68.062 26.05-5.518 48.03-7.891 64.43-6.832 8.2.53 14.95 1.915 20.1 4.157 5.14 2.239 8.63 5.305 10.44 9.18z" stroke="#fff" stroke-opacity=".37" stroke-width="2"/><path opacity=".862069" d="M1908.32 793.472c1.47 4.018 1.17 8.654-.89 13.873-2.05 5.226-5.85 10.978-11.27 17.148-10.85 12.341-28.07 26.2-50.39 40.711-44.63 29.015-109.46 60.516-183.92 87.607-74.45 27.091-144.37 44.62-197.22 51.069-26.43 3.23-48.53 3.68-64.77 1.2-8.12-1.25-14.73-3.21-19.67-5.896-4.92-2.679-8.13-6.037-9.6-10.055-1.46-4.018-1.16-8.653.89-13.872 2.06-5.227 5.85-10.979 11.28-17.149 10.84-12.341 28.06-26.2 50.38-40.711 44.63-29.015 109.47-60.516 183.92-87.607 74.46-27.091 144.38-44.62 197.22-51.073 26.43-3.227 48.54-3.676 64.78-1.192 8.12 1.242 14.72 3.21 19.66 5.892 4.93 2.679 8.14 6.037 9.6 10.055z" stroke="#fff" stroke-opacity=".37" stroke-width="2"/><path opacity=".896552" d="M1915.83 814.979c1.11 4.13.4 8.722-2.1 13.742-2.5 5.028-6.78 10.426-12.72 16.101-11.88 11.349-30.25 23.654-53.75 36.166-46.99 25.015-114.32 50.748-190.86 71.249-76.53 20.501-147.71 31.871-200.92 33.695-26.61.912-48.67-.567-64.63-4.456-7.98-1.945-14.39-4.481-19.07-7.584-4.68-3.097-7.59-6.723-8.69-10.853-1.11-4.13-.41-8.721 2.09-13.742 2.51-5.027 6.79-10.426 12.73-16.101 11.88-11.348 30.24-23.654 53.74-36.166 46.99-25.015 114.33-50.748 190.86-71.249 76.53-20.5 147.72-31.871 200.92-33.695 26.61-.912 48.67.567 64.64 4.457 7.98 1.945 14.39 4.48 19.07 7.583 4.68 3.098 7.58 6.723 8.69 10.853z" stroke="#fff" stroke-opacity=".37" stroke-width="2"/><path opacity=".931035" d="M1921.23 837.049c.74 4.21-.36 8.724-3.29 13.507-2.93 4.79-7.66 9.796-14.08 14.931-12.82 10.27-32.19 20.929-56.69 31.345-48.99 20.826-118.31 40.595-196.34 54.349-78.03 13.755-149.93 18.88-203.1 16.061-26.59-1.41-48.43-4.805-64-10.071-7.78-2.633-13.94-5.717-18.34-9.216-4.39-3.493-6.96-7.358-7.71-11.569-.74-4.21.36-8.723 3.29-13.507 2.93-4.79 7.67-9.796 14.08-14.931 12.83-10.27 32.19-20.929 56.7-31.345 48.99-20.826 118.31-40.595 196.34-54.349 78.03-13.755 149.93-18.88 203.09-16.061 26.59 1.41 48.44 4.805 64 10.071 7.78 2.633 13.95 5.717 18.34 9.216 4.39 3.493 6.97 7.358 7.71 11.569z" stroke="#fff" stroke-opacity=".37" stroke-width="2"/><path opacity=".965517" d="M1924.49 859.497c.37 4.259-1.12 8.659-4.45 13.169-3.34 4.517-8.5 9.091-15.33 13.648-13.67 9.113-33.9 18.045-59.21 26.286-50.62 16.478-121.4 30.132-200.34 37.035-78.93 6.904-151 5.745-203.72-1.696-26.36-3.721-47.83-9.006-62.88-15.608-7.52-3.301-13.39-6.911-17.46-10.779-4.07-3.863-6.3-7.937-6.67-12.197-.38-4.259 1.11-8.659 4.45-13.169 3.34-4.516 8.49-9.09 15.33-13.647 13.67-9.114 33.89-18.045 59.21-26.287 50.62-16.478 121.4-30.131 200.33-37.035 78.93-6.903 151.01-5.744 203.72 1.696 26.37 3.721 47.83 9.006 62.88 15.608 7.52 3.302 13.39 6.911 17.47 10.78 4.06 3.862 6.3 7.937 6.67 12.196z" stroke="#fff" stroke-opacity=".37" stroke-width="2"/><path d="M1925.58 882.134c0 4.276-1.87 8.529-5.59 12.731-3.72 4.209-9.25 8.316-16.46 12.26-14.41 7.888-35.33 15.023-61.27 21.028-51.87 12.005-123.57 19.439-202.8 19.439-79.24 0-150.94-7.434-202.8-19.439-25.94-6.005-46.87-13.14-61.28-21.028-7.21-3.944-12.74-8.051-16.46-12.26-3.72-4.202-5.58-8.455-5.58-12.731s1.86-8.529 5.58-12.731c3.72-4.209 9.25-8.316 16.46-12.26 14.41-7.888 35.34-15.024 61.28-21.028 51.86-12.005 123.56-19.439 202.8-19.439 79.23 0 150.93 7.434 202.8 19.439 25.94 6.004 46.86 13.14 61.27 21.028 7.21 3.944 12.74 8.051 16.46 12.26 3.72 4.202 5.59 8.455 5.59 12.731z" stroke="#fff" stroke-opacity=".37" stroke-width="2"/><path opacity=".0344828" d="M75.3626 140.676c2.7493-3.275 6.9148-5.333 12.4626-6.165 5.5562-.833 12.4358-.424 20.4928 1.186 16.113 3.219 36.73 11.198 60.462 23.268 47.45 24.131 107.156 64.51 167.852 115.424 60.696 50.915 110.842 102.684 142.854 145.208 16.01 21.268 27.451 40.179 33.421 55.484 2.985 7.653 4.582 14.355 4.726 19.969.144 5.606-1.16 10.065-3.909 13.34-2.75 3.276-6.915 5.334-12.463 6.166-5.556.833-12.436.424-20.493-1.186-16.113-3.22-36.729-11.199-60.462-23.268-47.449-24.132-107.156-64.51-167.852-115.425-60.696-50.914-110.842-102.683-142.853-145.207-16.0113-21.269-27.4516-40.18-33.4214-55.484-2.9851-7.653-4.5826-14.355-4.7267-19.969-.1439-5.607 1.1605-10.065 3.9097-13.341z" stroke="#fff" stroke-opacity=".37" stroke-width="2"/><path opacity=".0689655" d="M92.225 119.988c3.0244-3.023 7.3536-4.711 12.953-5.056 5.607-.346 12.425.661 20.311 2.967 15.772 4.611 35.614 14.356 58.203 28.447 45.166 28.174 101.124 73.601 157.151 129.61 56.026 56.009 101.468 111.95 129.65 157.102 14.096 22.582 23.844 42.418 28.457 58.184 2.306 7.884 3.313 14.7 2.967 20.306-.345 5.597-2.033 9.925-5.057 12.948-3.025 3.024-7.354 4.711-12.953 5.057-5.608.345-12.425-.661-20.312-2.967-15.771-4.612-35.613-14.357-58.203-28.448-45.165-28.174-101.124-73.601-157.15-129.61-56.027-56.009-101.468-111.95-129.651-157.101-14.095-22.583-23.8433-42.419-28.4561-58.185-2.3065-7.884-3.3137-14.699-2.9678-20.305.3455-5.598 2.0336-9.926 5.0579-12.949z" stroke="#fff" stroke-opacity=".37" stroke-width="2"/><path opacity=".103448" d="M110.628 100.838c3.277-2.7482 7.736-4.0522 13.344-3.9083 5.617.1441 12.321 1.7411 19.976 4.7253 15.309 5.968 34.226 17.405 55.501 33.41 42.538 32.002 94.323 82.132 145.253 142.81 50.93 60.677 91.322 120.364 115.461 167.799 12.073 23.725 20.054 44.335 23.275 60.443 1.61 8.055 2.02 14.932 1.186 20.487-.832 5.546-2.891 9.71-6.167 12.458-3.277 2.749-7.737 4.053-13.345 3.909-5.616-.144-12.32-1.741-19.975-4.725-15.31-5.968-34.226-17.405-55.502-33.411-42.537-32.002-94.322-82.132-145.252-142.809-50.93-60.677-91.322-120.365-115.461-167.8-12.073-23.725-20.055-44.334-23.275-60.443-1.611-8.054-2.02-14.932-1.186-20.486.832-5.546 2.891-9.71 6.167-12.459z" stroke="#fff" stroke-opacity=".37" stroke-width="2"/><path opacity=".137931" d="M130.432 83.356c3.503-2.4525 8.06-3.3629 13.634-2.731 5.582.6329 12.122 2.808 19.487 6.4478 14.731 7.2791 32.579 20.3202 52.378 38.1192 39.585 35.586 86.803 90.037 132.249 154.921 45.446 64.884 80.48 127.864 100.392 177.221 9.959 24.687 16.113 45.913 17.917 62.241.902 8.165.71 15.051-.604 20.512-1.312 5.452-3.727 9.422-7.23 11.874-3.504 2.453-8.061 3.363-13.635 2.731-5.582-.633-12.121-2.808-19.487-6.448-14.731-7.279-32.579-20.32-52.378-38.119-39.585-35.586-86.803-90.037-132.249-154.921-45.446-64.884-80.48-127.864-100.392-177.221-9.959-24.687-16.113-45.913-17.917-62.241-.902-8.164-.71-15.051.604-20.5119 1.313-5.4525 3.727-9.4215 7.231-11.8741z" stroke="#fff" stroke-opacity=".37" stroke-width="2"/><path opacity=".172414" d="M151.482 67.6575c3.704-2.1379 8.323-2.6478 13.821-1.5327 5.506 1.1169 11.831 3.8534 18.851 8.1211 14.04 8.5349 30.683 23.0817 48.855 42.5381 36.332 38.899 78.623 97.257 118.239 165.854 39.617 68.597 69.027 134.389 84.56 185.294 7.768 25.46 12.049 47.142 12.422 63.565.187 8.212-.604 15.056-2.39 20.381-1.783 5.317-4.534 9.061-8.238 11.199-3.704 2.138-8.323 2.648-13.821 1.533-5.506-1.117-11.83-3.854-18.851-8.122-14.04-8.534-30.683-23.081-48.854-42.537-36.333-38.9-78.624-97.258-118.24-165.855-39.617-68.596-69.027-134.389-84.559-185.293-7.769-25.461-12.049-47.143-12.423-63.5655-.187-8.2119.605-15.0557 2.39-20.3811 1.783-5.3173 4.534-9.061 8.238-11.1989z" stroke="#fff" stroke-opacity=".37" stroke-width="2"/><path opacity=".206897" d="M173.624 53.8439c3.876-1.8071 8.522-1.9127 13.901-.3227 5.388 1.5923 11.45 4.8695 18.072 9.7326 13.242 9.7257 28.554 25.6673 44.96 46.6322 32.803 41.918 69.845 103.738 103.33 175.526 33.485 71.787 57.047 139.891 68.083 191.956 5.519 26.04 7.893 48.013 6.834 64.405-.53 8.197-1.915 14.946-4.158 20.096-2.24 5.141-5.307 8.631-9.184 10.438-3.876 1.807-8.522 1.913-13.901.323-5.388-1.593-11.45-4.87-18.072-9.733-13.242-9.726-28.554-25.667-44.96-46.632-32.802-41.918-69.845-103.738-103.33-175.526-33.485-71.787-57.047-139.891-68.083-191.956-5.519-26.04-7.893-48.013-6.834-64.4053.53-8.197 1.916-14.9458 4.159-20.0953 2.239-5.1418 5.306-8.6315 9.183-10.4385z" stroke="#fff" stroke-opacity=".37" stroke-width="2"/><path opacity=".241379" d="M196.683 42.0023c4.02-1.4624 8.657-1.1629 13.877.8898 5.229 2.0556 10.982 5.8485 17.154 11.2701 12.345 10.8426 26.208 28.0574 40.724 50.3718 29.023 44.616 60.535 109.429 87.634 183.861 27.099 74.432 44.634 144.33 51.089 197.158 3.228 26.422 3.677 48.517 1.192 64.755-1.242 8.12-3.211 14.722-5.894 19.657-2.679 4.927-6.039 8.136-10.058 9.599-4.019 1.462-8.657 1.163-13.877-.89-5.229-2.056-10.982-5.849-17.154-11.27-12.345-10.843-26.208-28.058-40.724-50.372-29.023-44.616-60.534-109.429-87.634-183.861-27.099-74.432-44.634-144.33-51.088-197.158-3.229-26.422-3.678-48.5173-1.193-64.7555 1.242-8.1196 3.211-14.722 5.894-19.6564 2.68-4.9271 6.039-8.1364 10.058-9.5988z" stroke="#fff" stroke-opacity=".37" stroke-width="2"/><path opacity=".275862" d="M220.489 32.2089c4.131-1.1066 8.725-.4042 13.747 2.0955 5.029 2.5034 10.43 6.7832 16.106 12.7219 11.352 11.8768 23.662 30.234 36.177 53.7287 25.023 46.975 50.764 114.287 71.271 190.796 20.507 76.51 31.881 147.67 33.705 200.859.913 26.603-.566 48.653-4.457 64.613-1.946 7.981-4.482 14.387-7.586 19.068-3.098 4.675-6.725 7.58-10.857 8.686-4.131 1.107-8.724.405-13.746-2.095-5.029-2.504-10.43-6.783-16.106-12.722-11.352-11.877-23.662-30.234-36.177-53.729-25.023-46.975-50.764-114.286-71.271-190.796-20.508-76.51-31.882-147.67-33.706-200.859-.912-26.6025.567-48.6533 4.458-64.613 1.945-7.9805 4.482-14.3863 7.585-19.0682 3.099-4.6749 6.726-7.5792 10.857-8.6859z" stroke="#fff" stroke-opacity=".37" stroke-width="2"/><path opacity=".310345" d="M244.858 24.516c4.212-.7425 8.727.3575 13.511 3.2852 4.792 2.9322 9.799 7.6661 14.936 14.0768 10.274 12.8207 20.936 32.1806 31.355 56.6764 20.833 48.9766 40.607 118.2746 54.366 196.2796 13.759 78.005 18.886 149.886 16.066 203.031-1.411 26.581-4.806 48.419-10.074 63.979-2.634 7.781-5.719 13.941-9.219 18.335-3.495 4.387-7.361 6.964-11.573 7.707-4.212.743-8.727-.358-13.511-3.285-4.792-2.932-9.799-7.666-14.936-14.077-10.274-12.821-20.936-32.181-31.355-56.676-20.833-48.977-40.607-118.275-54.366-196.28s-18.886-149.886-16.066-203.031c1.411-26.5814 4.806-48.4194 10.074-63.9795 2.634-7.7805 5.719-13.9409 9.219-18.3346 3.495-4.3871 7.361-6.9644 11.573-7.7069z" stroke="#fff" stroke-opacity=".37" stroke-width="2"/><path opacity=".344828" d="M269.606 18.9678c4.261-.3727 8.662 1.1165 13.174 4.4499 4.518 3.3385 9.093 8.4907 13.651 15.3246 9.117 13.667 18.051 33.8822 26.295 59.1926 16.483 50.6051 30.141 121.3631 37.046 200.2701 6.906 78.907 5.747 150.96-1.696 203.658-3.722 26.357-9.009 47.816-15.613 62.858-3.302 7.521-6.913 13.389-10.783 17.461-3.863 4.066-7.939 6.297-12.2 6.67-4.261.372-8.663-1.117-13.174-4.45-4.518-3.339-9.093-8.491-13.652-15.325-9.116-13.667-18.05-33.882-26.294-59.192-16.484-50.605-30.141-121.363-37.047-200.27-6.906-78.907-5.746-150.961 1.696-203.658 3.723-26.3575 9.01-47.8164 15.614-62.8584 3.302-7.5214 6.913-13.3895 10.782-17.4616 3.864-4.0659 7.94-6.2966 12.201-6.6692z" stroke="#fff" stroke-opacity=".37" stroke-width="2"/><path opacity=".37931" d="M294.542 15.5872c4.277 0 8.532 1.867 12.736 5.5808 4.21 3.7194 8.318 9.2506 12.264 16.4557 7.89 14.4093 15.027 35.326 21.034 61.2583 12.008 51.849 19.445 123.527 19.445 202.736 0 79.208-7.437 150.886-19.445 202.735-6.007 25.932-13.144 46.849-21.034 61.258-3.946 7.205-8.054 12.737-12.264 16.456-4.204 3.714-8.459 5.581-12.736 5.581-4.277 0-8.532-1.867-12.736-5.581-4.209-3.719-8.318-9.251-12.263-16.456-7.891-14.409-15.028-35.326-21.034-61.258-12.009-51.849-19.446-123.527-19.446-202.735 0-79.209 7.437-150.887 19.446-202.736 6.006-25.9323 13.143-46.849 21.034-61.2583 3.945-7.2051 8.054-12.7363 12.263-16.4557 4.204-3.7138 8.459-5.5808 12.736-5.5808z" stroke="#fff" stroke-opacity=".37" stroke-width="2"/><path opacity=".413793" d="M319.48 14.3832c4.261.3727 8.337 2.6033 12.2 6.6693 3.87 4.072 7.481 9.9402 10.783 17.4616 6.604 15.0419 11.891 36.5009 15.613 62.8579 7.443 52.698 8.602 124.751 1.696 203.658-6.905 78.907-20.563 149.665-37.046 200.27-8.244 25.31-17.178 45.526-26.295 59.193-4.558 6.834-9.133 11.986-13.651 15.324-4.512 3.334-8.913 4.823-13.174 4.45-4.261-.372-8.337-2.603-12.201-6.669-3.869-4.072-7.48-9.94-10.782-17.462-6.604-15.042-11.891-36.501-15.614-62.858-7.442-52.697-8.602-124.751-1.696-203.658 6.906-78.907 20.563-149.665 37.047-200.2696 8.244-25.3104 17.178-45.5257 26.294-59.1926 4.559-6.834 9.134-11.9861 13.652-15.3246 4.511-3.3335 8.913-4.8226 13.174-4.45z" stroke="#fff" stroke-opacity=".37" stroke-width="2"/><path opacity=".448276" d="M344.227 15.3481c4.212.7425 8.078 3.3198 11.573 7.7069 3.499 4.3938 6.585 10.5541 9.219 18.3347 5.267 15.56 8.663 37.398 10.073 63.9793 2.82 53.145-2.306 125.026-16.065 203.031-13.759 78.005-33.533 147.303-54.366 196.28-10.419 24.496-21.082 43.855-31.355 56.676-5.137 6.411-10.144 11.145-14.936 14.077-4.785 2.928-9.299 4.028-13.511 3.285-4.213-.742-8.079-3.32-11.573-7.707-3.5-4.393-6.585-10.554-9.219-18.334-5.268-15.56-8.664-37.398-10.074-63.979-2.82-53.146 2.307-125.026 16.066-203.032 13.758-78.005 33.533-147.303 54.365-196.2795 10.42-24.4958 21.082-43.8557 31.355-56.6764 5.137-6.4107 10.144-11.1446 14.936-14.0768 4.785-2.9277 9.3-4.0277 13.512-3.2852z" stroke="#fff" stroke-opacity=".37" stroke-width="2"/><path opacity=".482759" d="M368.596 18.4583c4.131 1.1067 7.758 4.0111 10.857 8.6859 3.103 4.6819 5.64 11.0877 7.585 19.0682 3.891 15.9598 5.37 38.0105 4.458 64.6136-1.824 53.189-13.199 124.349-33.706 200.858-20.507 76.51-46.248 143.822-71.271 190.797-12.515 23.494-24.825 41.852-36.177 53.728-5.676 5.939-11.077 10.219-16.106 12.722-5.022 2.5-9.615 3.202-13.747 2.096-4.131-1.107-7.758-4.011-10.856-8.686-3.104-4.682-5.64-11.088-7.586-19.068-3.891-15.96-5.37-38.011-4.457-64.614 1.824-53.189 13.198-124.349 33.705-200.858 20.507-76.51 46.248-143.822 71.271-190.7966 12.515-23.4947 24.825-41.8519 36.177-53.7287 5.676-5.9387 11.077-10.2185 16.106-12.7219 5.022-2.4996 9.615-3.2021 13.747-2.0955z" stroke="#fff" stroke-opacity=".37" stroke-width="2"/><path opacity=".517241" d="M392.401 23.6694c4.02 1.4624 7.379 4.6716 10.059 9.5987 2.683 4.9345 4.652 11.5369 5.894 19.6565 2.485 16.2381 2.035 38.3338-1.193 64.7554-6.454 52.828-23.989 122.727-51.088 197.158-27.1 74.432-58.611 139.245-87.634 183.861-14.516 22.314-28.38 39.529-40.724 50.372-6.172 5.421-11.926 9.214-17.154 11.27-5.221 2.053-9.858 2.352-13.877.89-4.019-1.463-7.379-4.672-10.058-9.599-2.684-4.934-4.652-11.537-5.894-19.656-2.485-16.239-2.036-38.334 1.192-64.756 6.455-52.828 23.989-122.726 51.089-197.158 27.099-74.432 58.611-139.245 87.634-183.8605 14.516-22.3148 28.379-39.5297 40.723-50.3722 6.173-5.4216 11.926-9.2145 17.155-11.2701 5.22-2.0527 9.857-2.3523 13.876-.8898z" stroke="#fff" stroke-opacity=".37" stroke-width="2"/><path opacity=".551724" d="M415.462 30.9278c3.876 1.8071 6.943 5.2968 9.183 10.4386 2.243 5.1495 3.628 11.8983 4.158 20.0952 1.059 16.3928-1.314 38.3654-6.834 64.4054-11.035 52.064-34.597 120.169-68.083 191.956-33.485 71.788-70.527 133.608-103.33 175.526-16.406 20.965-31.717 36.906-44.96 46.632-6.622 4.863-12.684 8.14-18.071 9.733-5.38 1.59-10.026 1.484-13.902-.323-3.877-1.807-6.944-5.297-9.183-10.438-2.243-5.15-3.629-11.899-4.158-20.096-1.06-16.393 1.314-38.365 6.833-64.405 11.036-52.065 34.598-120.169 68.083-191.956 33.486-71.788 70.528-133.608 103.33-175.5258 16.407-20.9652 31.718-36.9067 44.961-46.6324 6.621-4.8631 12.683-8.1403 18.071-9.7327 5.38-1.5899 10.025-1.4843 13.902.3227z" stroke="#fff" stroke-opacity=".37" stroke-width="2"/><path opacity=".586207" d="M437.602 40.1576c3.704 2.138 6.455 5.8816 8.238 11.199 1.786 5.3253 2.577 12.1691 2.39 20.381-.373 16.4228-4.654 38.1044-12.422 63.5654-15.533 50.904-44.943 116.697-84.56 185.293-39.616 68.597-81.907 126.955-118.239 165.855-18.172 19.456-34.815 34.003-48.855 42.538-7.02 4.267-13.345 7.004-18.851 8.121-5.498 1.115-10.117.605-13.821-1.533-3.704-2.138-6.455-5.882-8.238-11.199-1.785-5.325-2.577-12.169-2.39-20.381.374-16.423 4.654-38.105 12.423-63.565 15.532-50.905 44.942-116.697 84.559-185.294 39.616-68.596 81.907-126.954 118.239-165.8543 18.172-19.4559 34.815-34.0028 48.855-42.5376 7.021-4.2678 13.345-7.0043 18.851-8.1211 5.498-1.1152 10.117-.6053 13.821 1.5326z" stroke="#fff" stroke-opacity=".37" stroke-width="2"/><path opacity=".62069" d="M458.654 51.2734c3.504 2.4525 5.918 6.4215 7.23 11.874 1.315 5.4607 1.507 12.3474.605 20.5118-1.804 16.3277-7.959 37.5548-17.918 62.2408-19.911 49.358-54.945 112.337-100.391 177.221-45.447 64.884-92.664 119.335-132.25 154.922-19.799 17.798-37.646 30.84-52.377 38.119-7.366 3.639-13.905 5.815-19.488 6.447-5.574.632-10.13-.278-13.634-2.731-3.504-2.452-5.918-6.421-7.23-11.874-1.315-5.46-1.507-12.347-.605-20.511 1.804-16.328 7.959-37.555 17.918-62.241 19.911-49.358 54.945-112.338 100.391-177.221 45.447-64.884 92.665-119.336 132.25-154.9218 19.799-17.7986 37.646-30.84 52.377-38.1191 7.366-3.6398 13.905-5.8149 19.488-6.4477 5.574-.632 10.13.2785 13.634 2.731z" stroke="#fff" stroke-opacity=".37" stroke-width="2"/><path opacity=".655172" d="M478.457 64.1717c3.277 2.7484 5.336 6.9127 6.168 12.4588.833 5.5544.424 12.4317-1.186 20.4864-3.221 16.1081-11.203 36.7181-23.276 60.4431-24.139 47.435-64.53 107.122-115.46 167.8-50.931 60.677-102.716 110.807-145.253 142.809-21.275 16.006-40.192 27.442-55.502 33.41-7.655 2.984-14.359 4.581-19.975 4.725-5.608.144-10.068-1.16-13.344-3.908-3.277-2.749-5.336-6.913-6.168-12.459-.833-5.554-.424-12.432 1.186-20.486 3.221-16.109 11.203-36.718 23.276-60.443 24.139-47.435 64.53-107.123 115.46-167.8 50.931-60.677 102.716-110.807 145.253-142.8091 21.275-16.0058 40.192-27.4425 55.501-33.4105 7.656-2.9841 14.36-4.5812 19.976-4.7253 5.608-.1438 10.068 1.1602 13.344 3.9086z" stroke="#fff" stroke-opacity=".37" stroke-width="2"/><path opacity=".689655" d="M496.86 78.7381c3.025 3.0234 4.713 7.3512 5.058 12.9487.346 5.6059-.661 12.4212-2.968 20.3052-4.612 15.766-14.36 35.602-28.456 58.185-28.183 45.151-73.624 101.092-129.65 157.101-56.027 56.009-111.985 101.436-157.151 129.61-22.59 14.092-42.432 23.837-58.203 28.448-7.886 2.306-14.704 3.313-20.311 2.967-5.5995-.346-9.9288-2.033-12.9531-5.057-3.0244-3.023-4.7125-7.351-5.0579-12.948-.346-5.606.6612-12.422 2.9678-20.305 4.6128-15.767 14.3612-35.603 28.4562-58.185 28.183-45.152 73.624-101.093 129.651-157.102 56.026-56.009 111.985-101.436 157.15-129.61 22.59-14.0911 42.432-23.836 58.203-28.4474 7.886-2.3058 14.704-3.3127 20.311-2.9669 5.6.3453 9.929 2.0329 12.953 5.0564z" stroke="#fff" stroke-opacity=".37" stroke-width="2"/><path opacity=".724138" d="M513.723 94.8439c2.749 3.2754 4.053 7.7341 3.909 13.3401-.144 5.615-1.741 12.316-4.726 19.969-5.97 15.305-17.41 34.216-33.421 55.484-32.012 42.524-82.158 94.293-142.854 145.208-60.696 50.914-120.402 91.293-167.852 115.424-23.732 12.07-44.348 20.049-60.462 23.268-8.057 1.61-14.9365 2.019-20.4926 1.186-5.5478-.831-9.7134-2.89-12.4627-6.165-2.7492-3.276-4.0536-7.734-3.9097-13.34.1441-5.615 1.7417-12.317 4.7267-19.97 5.9699-15.304 17.4101-34.215 33.4213-55.484 32.011-42.524 82.157-94.293 142.853-145.207 60.697-50.914 120.403-91.293 167.853-115.425 23.732-12.069 44.348-20.0482 60.461-23.2679 8.058-1.6099 14.937-2.0189 20.493-1.1858 5.548.8318 9.713 2.8902 12.463 6.1656z" stroke="#fff" stroke-opacity=".37" stroke-width="2"/><path opacity=".758621" d="M528.918 112.349c2.453 3.502 3.364 8.057 2.732 13.63-.633 5.58-2.809 12.117-6.45 19.481-7.281 14.726-20.327 32.568-38.131 52.361-35.597 39.573-90.066 86.776-154.97 132.208S204.196 410.484 154.823 430.39c-24.694 9.956-45.928 16.108-62.2604 17.912-8.167.901-15.0559.709-20.5182-.605-5.4542-1.312-9.4245-3.725-11.8777-7.228-2.4532-3.502-3.3639-8.057-2.7318-13.63.6331-5.58 2.8088-12.117 6.4498-19.481 7.2814-14.726 20.3268-32.568 38.1313-52.361 35.597-39.573 90.065-86.776 154.969-132.208s127.904-80.456 177.277-100.361c24.694-9.956 45.927-16.108 62.26-17.912 8.167-.901 15.056-.709 20.518.605 5.455 1.312 9.425 3.725 11.878 7.228z" stroke="#fff" stroke-opacity=".37" stroke-width="2"/><path opacity=".793103" d="M542.33 131.102c2.139 3.703 2.649 8.32 1.533 13.816-1.117 5.504-3.854 11.827-8.123 18.845-8.538 14.036-23.089 30.674-42.551 48.84-38.912 36.321-97.288 78.599-165.906 118.203-68.618 39.604-134.432 69.005-185.352 84.533-25.468 7.766-47.1572 12.045-63.5852 12.419-8.2144.186-15.0604-.605-20.3874-2.39-5.319-1.782-9.0638-4.532-11.2023-8.235-2.1385-3.703-2.6486-8.32-1.5331-13.816 1.1172-5.505 3.8546-11.827 8.1237-18.846 8.5376-14.036 23.0889-30.673 42.5509-48.839 38.9124-36.321 97.2884-78.599 165.9064-118.203s134.431-69.005 185.352-84.533c25.468-7.766 47.157-12.045 63.585-12.419 8.214-.187 15.06.605 20.387 2.39 5.319 1.782 9.064 4.532 11.202 8.235z" stroke="#fff" stroke-opacity=".37" stroke-width="2"/><path opacity=".827586" d="M553.855 150.943c1.807 3.875 1.913 8.519.323 13.897-1.593 5.387-4.871 11.447-9.736 18.066-9.729 13.239-25.675 28.545-46.647 44.947-41.931 32.792-103.771 69.822-175.58 103.297-71.81 33.475-139.936 57.03-192.017 68.062-26.048 5.518-48.0274 7.891-64.4254 6.832-8.1995-.53-14.9504-1.915-20.1015-4.157-5.1434-2.239-8.6341-5.305-10.4416-9.18-1.8076-3.875-1.9132-8.519-.3228-13.897 1.5929-5.386 4.8711-11.446 9.7358-18.066 9.7287-13.238 25.6752-28.545 46.6469-44.946C133.22 283.005 195.06 245.975 266.87 212.5c71.809-33.475 139.935-57.03 192.016-68.062 26.048-5.518 48.028-7.891 64.426-6.831 8.199.529 14.95 1.914 20.101 4.156 5.144 2.239 8.634 5.305 10.442 9.18z" stroke="#fff" stroke-opacity=".37" stroke-width="2"/><path opacity=".862069" d="M563.408 171.706c1.463 4.018 1.163 8.653-.89 13.872-2.057 5.227-5.851 10.979-11.274 17.149-10.846 12.341-28.066 26.2-50.388 40.711-44.63 29.015-109.463 60.516-183.918 87.607-74.455 27.091-144.375 44.62-197.219 51.073-26.4307 3.227-48.5334 3.676-64.7766 1.192-8.1221-1.242-14.7267-3.21-19.6627-5.892-4.9286-2.679-8.1387-6.038-9.6015-10.055-1.4628-4.018-1.1632-8.654.8901-13.873 2.0563-5.226 5.8504-10.978 11.2737-17.148 10.8459-12.341 28.0662-26.2 50.388-40.711 44.63-29.015 109.463-60.516 183.918-87.607 74.455-27.091 144.375-44.62 197.219-51.073 26.431-3.227 48.533-3.676 64.776-1.192 8.123 1.242 14.727 3.21 19.663 5.892 4.929 2.679 8.139 6.037 9.602 10.055z" stroke="#fff" stroke-opacity=".37" stroke-width="2"/><path opacity=".896552" d="M570.913 193.212c1.107 4.13.405 8.722-2.096 13.742-2.504 5.028-6.785 10.427-12.726 16.102-11.88 11.348-30.243 23.654-53.745 36.165-46.99 25.016-114.323 50.749-190.856 71.249-76.534 20.501-147.716 31.872-200.922 33.695-26.611.912-48.6687-.566-64.6335-4.456-7.983-1.945-14.3908-4.481-19.0742-7.583-4.6763-3.098-7.5814-6.723-8.6884-10.853-1.1069-4.13-.4043-8.722 2.0962-13.742 2.5042-5.028 6.7852-10.427 12.7259-16.101 11.8805-11.349 30.2435-23.655 53.7456-36.166 46.9894-25.016 114.3224-50.748 190.8554-71.249 76.534-20.501 147.716-31.871 200.922-33.695 26.611-.912 48.669.566 64.634 4.456 7.983 1.945 14.39 4.481 19.074 7.583 4.676 3.098 7.581 6.723 8.688 10.853z" stroke="#fff" stroke-opacity=".37" stroke-width="2"/><path opacity=".931035" d="M576.316 215.282c.742 4.211-.358 8.724-3.286 13.507-2.934 4.791-7.669 9.796-14.082 14.931-12.824 10.271-32.191 20.93-56.694 31.346-48.992 20.826-118.312 40.594-196.341 54.349-78.03 13.754-149.933 18.879-203.095 16.06-26.5892-1.41-48.434-4.804-63.9991-10.07-7.783-2.633-13.9453-5.718-18.3404-9.217-4.3885-3.493-6.9664-7.358-7.7091-11.568-.7427-4.211.3576-8.724 3.2862-13.507 2.933-4.791 7.6685-9.796 14.0813-14.932 12.8247-10.27 32.1907-20.929 56.6941-31.345 48.992-20.826 118.312-40.594 196.341-54.349 78.03-13.754 149.933-18.879 203.095-16.06 26.589 1.41 48.434 4.804 63.999 10.07 7.783 2.633 13.946 5.718 18.341 9.216 4.388 3.494 6.966 7.359 7.709 11.569z" stroke="#fff" stroke-opacity=".37" stroke-width="2"/><path opacity=".965517" d="M579.574 237.73c.372 4.26-1.117 8.66-4.452 13.17-3.339 4.516-8.493 9.09-15.329 13.647-13.671 9.114-33.893 18.045-59.211 26.287-50.621 16.478-121.401 30.131-200.333 37.035-78.931 6.903-151.008 5.744-203.7217-1.696-26.3653-3.721-47.831-9.007-62.8777-15.609-7.5238-3.301-13.3938-6.91-17.4671-10.779-4.0673-3.862-6.29844-7.937-6.6712-12.196-.37276-4.26 1.1168-8.66 4.4513-13.169 3.3395-4.517 8.4933-9.091 15.3294-13.648 13.6713-9.114 33.8929-18.045 59.2112-26.286 50.6208-16.479 121.4008-30.132 200.3328-37.035 78.931-6.904 151.007-5.745 203.722 1.695 26.365 3.722 47.831 9.007 62.877 15.609 7.524 3.301 13.394 6.911 17.467 10.779 4.068 3.862 6.299 7.937 6.672 12.196z" stroke="#fff" stroke-opacity=".37" stroke-width="2"/><path d="M580.662 260.367c0 4.276-1.867 8.529-5.582 12.732-3.721 4.208-9.254 8.315-16.461 12.26-14.414 7.887-35.337 15.023-61.278 21.027-51.865 12.005-123.566 19.439-202.799 19.439s-150.934-7.434-202.7988-19.439c-25.9405-6.004-46.8638-13.14-61.2776-21.027-7.2074-3.945-12.7404-8.052-16.4609-12.26-3.715-4.203-5.58247-8.456-5.58247-12.732 0-4.275 1.86747-8.529 5.58247-12.731 3.7205-4.208 9.2535-8.316 16.4609-12.26 14.4138-7.888 35.3371-15.023 61.2776-21.027 51.8648-12.005 123.5658-19.44 202.7988-19.44s150.934 7.435 202.799 19.44c25.941 6.004 46.864 13.139 61.278 21.027 7.207 3.944 12.74 8.052 16.461 12.26 3.715 4.202 5.582 8.456 5.582 12.731z" stroke="#fff" stroke-opacity=".37" stroke-width="2"/></svg>