<svg width="160" height="90" viewBox="0 0 160 90" fill="none" xmlns="http://www.w3.org/2000/svg">
<rect width="160" height="90" rx="10" fill="white"/>
<rect x="114" y="10" width="36.1936" height="22" rx="11" fill="#67CE67"/>
<g filter="url(#filter0_d_1302_481)">
<rect x="129.613" y="11.4194" width="19.1613" height="19.1613" rx="9.58064" fill="white"/>
</g>
<path d="M16.7702 73.3772C17.232 73.763 17.7707 74.1487 18.3095 74.4572C23.697 77.6201 30.6238 75.7687 33.7794 70.2144C36.858 64.7372 35.0108 57.7172 29.6233 54.4772C29.0845 54.1687 28.5458 53.8601 27.9301 53.6287L16.7702 73.3772Z" fill="#642F6C"/>
<path d="M33.5485 51.6229C33.0867 51.2372 32.5479 50.8514 32.0092 50.5429C26.5447 47.38 19.6179 49.2314 16.5393 54.7857C13.3837 60.2629 15.3079 67.36 20.6954 70.5229C21.2341 70.8315 21.8498 71.14 22.3886 71.3715L33.5485 51.6229Z" fill="white"/>
<path d="M16.7702 73.3772C17.232 73.763 17.7707 74.1487 18.3095 74.4572C23.697 77.6201 30.6238 75.7687 33.7794 70.2144C36.858 64.7372 35.0108 57.7172 29.6233 54.4772C29.0845 54.1687 28.5458 53.8601 27.9301 53.6287L16.7702 73.3772Z" fill="#642F6C"/>
<path d="M22.3886 71.2944C21.7729 71.063 21.2341 70.8315 20.6954 70.4458C20.1566 70.1372 19.6179 69.7515 19.0791 69.2887L27.93 53.7058C28.5457 53.9372 29.0845 54.1687 29.6232 54.5544C30.239 54.863 30.7777 55.2487 31.2395 55.7115L22.3886 71.2944Z" fill="#A77BCA"/>
<path d="M33.5485 51.6229C33.0867 51.2372 32.5479 50.8514 32.0092 50.5429C26.5447 47.38 19.6179 49.2314 16.5393 54.7857C13.3837 60.2629 15.3079 67.36 20.6954 70.5229C21.2341 70.8315 21.8498 71.14 22.3886 71.3715L33.5485 51.6229Z" fill="#A77BCA"/>
<path d="M23.9279 76C21.3111 76 18.7713 75.0743 16.7702 73.3771L19.0791 69.3657C19.6179 69.8286 20.1566 70.2143 20.6954 70.5228C21.2341 70.8314 21.8499 71.14 22.3886 71.3714L31.2395 55.6343C33.8563 57.8714 35.3187 61.1114 35.3187 64.5057C35.3187 66.4343 34.8569 68.44 33.7794 70.2914C31.7013 73.9171 27.8531 76 23.9279 76V76Z" fill="#642F6C"/>
<path d="M22.3886 71.2944C21.7729 71.063 21.2341 70.8315 20.6954 70.4458C20.1566 70.1372 19.6179 69.7515 19.0791 69.2887L27.93 53.7058C28.5457 53.9372 29.0845 54.1687 29.6232 54.5544C30.239 54.863 30.7777 55.2487 31.2395 55.7115L22.3886 71.2944Z" fill="#421756"/>
<path d="M45.401 69.6743C43.246 69.6743 41.168 69.0571 39.7826 68.2857L40.3213 65.0457C41.9376 66.0486 43.9387 66.6657 45.478 66.6657C46.6324 66.6657 47.1712 66.28 47.1712 65.5857C47.1712 64.8914 46.7864 64.5829 44.8623 64.12C41.4758 63.1943 40.0135 62.2686 40.0135 59.6457C40.0135 57.1 41.9376 55.3257 45.2471 55.3257C47.0942 55.3257 48.8644 55.7114 50.2498 56.3286L49.6341 59.6457C48.1717 58.7971 46.4785 58.3343 45.1701 58.3343C44.1696 58.3343 43.7078 58.72 43.7078 59.26C43.7078 59.8 44.0926 60.1086 46.0167 60.6486C49.6341 61.6514 50.9425 62.5771 50.9425 65.1229C50.9425 68.0543 48.9414 69.6743 45.401 69.6743V69.6743ZM60.1012 69.52C58.8698 69.52 58.0232 69.2886 57.2535 69.0571V73.9943L53.0205 74.6114V55.5571H56.7148L57.0227 57.4086C57.9462 56.3286 59.1777 55.2486 60.9478 55.2486C63.7186 55.2486 65.8736 57.4086 65.8736 62.1143C65.7966 67.36 63.1029 69.52 60.1012 69.52V69.52ZM59.5625 59.1057C58.6389 59.1057 57.9462 59.6457 57.2535 60.4943V65.74C57.8693 66.0486 58.3311 66.2029 59.1777 66.2029C60.563 66.2029 61.6405 65.1229 61.6405 62.4229C61.6405 60.1086 60.717 59.1057 59.5625 59.1057V59.1057ZM68.0286 69.4429V49.6943L72.2616 49V69.4429H68.0286ZM75.3402 69.4429V55.5571H79.5733V69.4429H75.3402ZM88.4242 69.5971C85.4995 69.5971 83.4985 68.5171 83.4985 64.9686V59.0286H81.7283V55.5571H83.4985V51.3914L87.6545 50.7743V55.5571H90.1944L90.7331 59.0286H87.6545V64.3514C87.6545 65.5086 88.1933 65.9714 89.3478 65.9714C89.7326 65.9714 90.0404 65.8943 90.3483 65.8171L90.8871 69.3657C90.1174 69.52 89.5017 69.5971 88.4242 69.5971Z" fill="#231F20"/>
<path d="M93.6578 69.4428V56.0199H95.428V69.3656H93.6578V69.4428ZM103.971 69.6742C101.893 69.6742 100.585 68.8256 100.585 66.357V57.6399H98.5835V56.0199H100.585V51.3913L102.355 51.0828V56.0199H105.356L105.587 57.6399H102.278V66.0485C102.278 67.437 102.817 67.977 104.202 67.977C104.587 67.977 105.125 67.8999 105.433 67.8228L105.741 69.3656C105.433 69.5199 104.741 69.6742 103.971 69.6742Z" fill="#A77BCA"/>
<path d="M77.4952 52.9343C76.5716 52.9343 75.802 52.24 75.802 51.3143C75.802 50.3886 76.5716 49.6172 77.4952 49.6172C78.4188 49.6172 79.1115 50.3886 79.1115 51.3143C79.1115 52.24 78.3418 52.9343 77.4952 52.9343Z" fill="#231F20"/>
<path d="M94.5813 52.7801C93.7347 52.7801 93.0421 52.0858 93.0421 51.2372C93.0421 50.3886 93.7347 49.6943 94.5813 49.6943C95.428 49.6943 96.0437 50.3886 96.0437 51.2372C96.0437 52.1629 95.428 52.7801 94.5813 52.7801Z" fill="#A77BCA"/>
<defs>
<filter id="filter0_d_1302_481" x="122.613" y="7.41943" width="33.1613" height="33.1614" filterUnits="userSpaceOnUse" color-interpolation-filters="sRGB">
<feFlood flood-opacity="0" result="BackgroundImageFix"/>
<feColorMatrix in="SourceAlpha" type="matrix" values="0 0 0 0 0 0 0 0 0 0 0 0 0 0 0 0 0 0 127 0" result="hardAlpha"/>
<feOffset dy="3"/>
<feGaussianBlur stdDeviation="3.5"/>
<feColorMatrix type="matrix" values="0 0 0 0 0 0 0 0 0 0 0 0 0 0 0 0 0 0 0.12 0"/>
<feBlend mode="normal" in2="BackgroundImageFix" result="effect1_dropShadow_1302_481"/>
<feBlend mode="normal" in="SourceGraphic" in2="effect1_dropShadow_1302_481" result="shape"/>
</filter>
</defs>
</svg>
