<svg width="69" height="69" viewBox="0 0 69 69" fill="none" xmlns="http://www.w3.org/2000/svg">
<path d="M36.4245 21.6024L36.6072 23.2276L37.3646 21.7781L45.3455 6.50454L40.9537 23.1686L40.537 24.75L41.7668 23.672L54.7263 12.3129L44.6113 26.2651L43.6514 27.5892L45.1876 27.0283L61.3753 21.1177L46.9033 30.4738L45.5299 31.3617L47.165 31.3936L64.3948 31.7298L47.5202 35.2263L45.9188 35.5581L47.4319 36.1785L63.3767 42.7161L46.3786 39.8807L44.7655 39.6116L45.9523 40.7367L58.4587 52.5928L43.6327 43.8084L42.2257 42.9747L42.926 44.4526L50.305 60.0259L39.6534 46.4789L38.6426 45.1933L38.7617 46.8244L40.0167 64.0116L34.9782 47.5316L34.5 45.9677L34.0218 47.5316L28.9833 64.0116L30.2383 46.8244L30.3574 45.1933L29.3466 46.4789L18.695 60.0259L26.074 44.4526L26.7743 42.9747L25.3673 43.8084L10.5413 52.5928L23.0477 40.7367L24.2345 39.6116L22.6214 39.8807L5.62327 42.7161L21.5681 36.1785L23.0812 35.5581L21.4798 35.2263L4.60524 31.7298L21.835 31.3936L23.4701 31.3617L22.0967 30.4738L7.62465 21.1177L23.8124 27.0283L25.3486 27.5892L24.3887 26.2651L14.2737 12.3129L27.2332 23.672L28.463 24.75L28.0463 23.1686L23.6545 6.50453L31.6354 21.7781L32.3928 23.2276L32.5755 21.6024L34.5 4.47716L36.4245 21.6024Z" stroke="#D71ADB" stroke-opacity="0.46"/>
</svg>
