<svg width="120" height="160" viewBox="0 0 120 160" fill="none" xmlns="http://www.w3.org/2000/svg"><circle opacity=".1" cx="60" cy="81" r="60" fill="url(#paint0_linear_7_5592)"/><g filter="url(#filter0_d_7_5592)"><path d="M40.9275 43.8288l-9.8379 2.8362 26.8012 92.264c.2838.981 1.5047 1.577 2.992 1.43 1.7658-.175 3.4844-.673 5.0708-1.468 1.3384-.667 2.0472-1.822 1.7634-2.803L40.9275 43.8288z" fill="#E72E80"/><path d="M33.2325 25.9207c-.9233.4838-1.8967.8653-2.9028 1.1379-.7573.236-1.5448.3616-2.338.3728l3.0899 19.2098c3.4996.1424 6.9511-.8527 9.8379-2.8362l-7.687-17.8843z" fill="#fff"/><path d="M32.8635 26.9561l7.1246 16.5776c-2.4747 1.5597-5.341 2.3855-8.2662 2.3817l-2.8636-17.78c.5691-.065 1.131-.1823 1.6785-.3504.7923-.225 1.5687-.5022 2.3243-.8298l.0024.0009zm.369-1.0354c-.9233.4838-1.8967.8653-2.9028 1.1379-.7573.236-1.5448.3616-2.338.3728l3.0899 19.2098c3.4996.1424 6.9511-.8527 9.8379-2.8362l-7.6847-17.8834-.0023-.0009z" fill="#E72E80"/><path d="M30.7135 27.0192c.8867-.2534 1.738-.6172 2.5339-1.0829l-4.6985-10.9385c-.4163-.9541-2.5979-.3336-2.4303.7021l1.888 11.747c.9166-.0296 1.8259-.1733 2.7069-.4277zM53.1787 35.9986l8.2686.2072-3.9708 50.4714-2.7492 7.8476s-2.0505-7.74-2.0479-8.1199l.4993-50.4063z" fill="#E72E80"/><path d="M53.1787 35.9986l8.2703.2093-.8802 11.1766-7.5025-.1251.1124-11.2608z" fill="#fff"/><path d="M49.2192 25.0265c-.1168 5.937 1.4759 9.3857 3.926 11.047l8.3402.1642.0126-.01c2.5511-1.5741 4.316-4.9912 4.4307-10.9912.175-8.9036-7.9387-21.51482-7.9387-21.51482S49.3942 16.1229 49.2192 25.0265z" fill="#E72E80"/><path d="M52.7498 47.5052c-.0569-.0719-.0867-.1615-.0844-.2532l.1119-11.257c-.0003-.0526.0099-.1047.0299-.1533.02-.0486.0496-.0926.0869-.1297.0779-.0737.1815-.1142.2888-.1126l8.2703.2093c.0547.0011.1085.0134.1582.0362.0496.0228.094.0557.1305.0964.0358.0405.0632.0879.0804.1392.0172.0514.0238.1056.0196.1596l-.8785 11.1787c-.0099.0984-.0557.1896-.1288.2561-.0731.0666-.1682.1038-.267.1045l-7.5042-.1272c-.06.0009-.1194-.0119-.1738-.0373-.0543-.0255-.1021-.063-.1398-.1097zm.8234-11.0977l-.1036 10.4538 6.7348.1227.8154-10.38-7.4466-.1965z" fill="#E72E80"/><path d="M93.4264 16.997l-17.2968-3.2137-18.7339 95.4727 17.2969 3.213 18.7338-95.472z" fill="#fff"/><path d="M57.3186 109.239l18.2726-95.9068 17.836 3.4005L75.1545 112.64l-17.8359-3.401zm18.6913-95.2993L57.9223 108.828l16.8221 3.206 18.0868-94.8866-16.8213-3.2077z" fill="#E72E80" stroke="#E72E80"/><path d="M72.8252 102.177c-.0516-.026-.0932-.067-.1182-.119-.025-.052-.032-.11-.0198-.166.0068-.034.0202-.065.0393-.093.0191-.028.0435-.052.0719-.07.0284-.019.0602-.032.0935-.038.0333-.006.0676-.005.1007.002l3.7052.791c.0668.015.125.055.1621.113.0371.057.05.127.0361.194-.0148.066-.0554.125-.1128.162-.0575.037-.1272.05-.1941.036l-3.7037-.79c-.0209-.005-.0411-.013-.0602-.022zM73.2388 99.7737c-.0523-.0258-.0943-.0686-.1192-.1213-.0249-.0527-.0313-.1123-.018-.1691.0161-.0666.0579-.1241.1162-.1601.0584-.0359.1286-.0474.1953-.0319l3.7327.8797c.0332.007.0645.021.0921.041.0277.02.0512.045.0691.074.0179.028.03.061.0354.094.0054.034.0041.068-.0038.101-.0078.033-.022.064-.0419.092-.0199.027-.045.051-.074.069-.0289.017-.0611.029-.0947.035-.0336.005-.0679.004-.1009-.004l-3.7327-.8796c-.0194-.0041-.0381-.0107-.0556-.0197zM73.7064 97.5576c-.0515-.0252-.0931-.067-.1181-.1187-.0251-.0516-.032-.1102-.0199-.1662.0069-.0332.0203-.0647.0394-.0927.019-.028.0435-.0519.0719-.0704.0284-.0185.0601-.0312.0935-.0374.0333-.0061.0675-.0056.1006.0015l3.7045.7927c.0332.0069.0647.0202.0927.0393.028.0191.0519.0436.0704.0719.0185.0284.0312.0602.0373.0935.0062.0334.0057.0676-.0015.1007-.0071.0332-.0207.0646-.04.0925-.0193.0279-.0439.0517-.0724.0701-.0285.0184-.0603.0311-.0937.0371-.0334.0061-.0676.0056-.1008-.0015l-3.7037-.7904c-.0208-.005-.041-.0124-.0602-.022zM73.2452 95.3334c-.0521-.0261-.0939-.0688-.1188-.1215-.0249-.0526-.0314-.1121-.0184-.1689.0156-.0666.057-.1244.1151-.1605.0581-.0362.1282-.0478.1949-.0322l4.368 1.0006c.0665.0154.1241.0565.1604.1143.0363.0578.0482.1276.0332.1942-.0155.0667-.0567.1245-.1146.1611-.0579.0365-.1278.0487-.1947.034l-4.368-1.0007c-.0198-.0043-.039-.0112-.0571-.0204zM75.7798 86.6705c-.0515-.0252-.0931-.067-.1181-.1187-.0251-.0516-.032-.1102-.0199-.1662.0072-.0332.0208-.0646.0401-.0926.0193-.0279.0439-.0517.0724-.0701.0285-.0184.0603-.031.0937-.0371.0334-.0061.0676-.0056.1008.0016l3.7037.7904c.0667.0148.1249.0553.162.1128.0371.0574.0501.1271.0361.1941-.0068.0332-.0202.0647-.0393.0927-.0191.0279-.0435.0519-.0719.0704-.0284.0185-.0602.0312-.0935.0373-.0333.0062-.0675.0056-.1006-.0015l-3.7053-.7911c-.0209-.0048-.0411-.0122-.0602-.022zM74.8818 84.3636c-.0519-.0256-.0936-.068-.1184-.1203-.0247-.0522-.0311-.1114-.018-.1677.0071-.0332.0208-.0646.0402-.0924.0194-.0278.0441-.0515.0728-.0698.0286-.0182.0605-.0305.0939-.0363.0335-.0058.0677-.0049.1008.0026l4.8052 1.0875c.033.0074.0642.0213.0919.0409.0276.0195.0511.0443.0691.073.018.0287.0301.0606.0357.094.0056.0334.0045.0676-.0032.1006-.0072.0331-.021.0645-.0405.0922-.0195.0278-.0443.0513-.073.0694-.0288.018-.0608.0301-.0943.0356-.0335.0055-.0677.0042-.1007-.0037l-4.8036-1.0867c-.0201-.0037-.0395-.0101-.0579-.0189zM74.3472 93.2349c-.0515-.0252-.0932-.067-.1182-.1186-.025-.0517-.0319-.1102-.0198-.1663.0072-.0332.0208-.0646.0401-.0925.0192-.0279.0439-.0517.0724-.0701.0285-.0185.0603-.0311.0937-.0371.0333-.0061.0676-.0056.1008.0015l3.7036.7904c.0668.0148.125.0554.1621.1128.0371.0574.0501.1272.0361.1941-.0071.0332-.0207.0646-.04.0925-.0193.0279-.0439.0518-.0724.0702-.0285.0184-.0604.031-.0937.0371-.0334.0061-.0676.0055-.1008-.0016l-3.7037-.7904c-.0209-.0049-.0411-.0122-.0602-.022zM74.7599 90.835c-.0523-.0258-.0943-.0685-.1193-.1212-.0249-.0527-.0312-.1123-.018-.1691.0156-.0666.057-.1244.1152-.1605.0581-.0362.1282-.0478.1949-.0323l3.7342.8803c.0329.0077.064.0218.0914.0415.0274.0198.0507.0447.0685.0734.0177.0288.0297.0607.035.0941.0054.0333.0042.0674-.0037.1003-.0155.0666-.0569.1244-.1151.1605-.0581.0362-.1282.0478-.1949.0323l-3.7342-.8803-.054-.019zM75.4043 88.6512c-.0516-.0253-.0932-.067-.1182-.1187-.025-.0516-.032-.1102-.0198-.1663.0069-.0332.0202-.0647.0393-.0926.0191-.028.0435-.052.0719-.0705.0284-.0185.0602-.0312.0935-.0373.0333-.0062.0676-.0056.1007.0015l3.7052.7911c.0668.0149.125.0554.1621.1128.0371.0575.05.1272.0361.1942-.0149.0667-.0554.1249-.1128.162-.0575.0371-.1272.0501-.1941.0361l-3.7037-.7903c-.0209-.005-.0411-.0124-.0602-.022zM76.5066 82.62c-.0523-.0258-.0943-.0686-.1192-.1213-.025-.0527-.0313-.1123-.0181-.1691.0162-.0666.058-.1241.1163-.1601.0584-.0359.1286-.0474.1953-.0319l3.7327.8795c.0331.0078.0643.0221.0919.042s.051.045.0688.074c.0179.0289.0298.0611.0352.0947.0054.0335.0041.0678-.0039.1009-.016.0664-.0578.1237-.116.1594-.0583.0357-.1283.0469-.1948.0311l-3.7327-.8795c-.019-.005-.0376-.0116-.0555-.0197zM76.9752 80.4038c-.0515-.0259-.0931-.0681-.1182-.12-.0251-.052-.0323-.1107-.0205-.1672.0148-.0668.0553-.125.1128-.1621.0574-.0371.1271-.05.1941-.0361l3.7045.7927c.0331.0071.0646.0207.0925.04.0279.0193.0517.0439.0701.0724.0184.0285.031.0604.0371.0937.0061.0334.0056.0677-.0016.1008-.0148.0668-.0553.125-.1128.1621-.0574.0371-.1272.05-.1941.0361l-3.7029-.7919c-.0211-.0045-.0415-.0113-.061-.0205zM77.3827 78.0093c-.0525-.026-.0946-.069-.1194-.1221-.0247-.053-.0308-.1129-.0171-.1698.0161-.0664.0578-.1237.1161-.1594.0582-.0357.1282-.0469.1947-.0311l3.7327.8796c.0666.0161.1242.0579.1601.1163.036.0583.0475.1285.0319.1953-.0077.0331-.022.0643-.0419.0919-.0199.0275-.045.0509-.074.0688-.0289.0178-.0611.0298-.0947.0351-.0336.0054-.0679.0041-.1009-.0038l-3.7327-.8796c-.0192-.0046-.0376-.0118-.0548-.0212zM77.8572 75.7853c-.0516-.0254-.0932-.0673-.1185-.119-.0252-.0517-.0326-.1103-.021-.1666.0148-.0668.0554-.125.1128-.1621.0574-.0371.1272-.0501.1941-.0361l3.7053.7911c.0667.0148.1249.0554.162.1128.0371.0575.0501.1272.0361.1941-.0148.0668-.0553.125-.1128.1621-.0574.0371-.1272.0501-.1941.0361l-3.7037-.7904c-.0208-.0049-.041-.0123-.0602-.022zM77.3966 73.5599c-.0523-.0254-.0944-.0678-.1195-.1203-.0251-.0524-.0316-.1119-.0185-.1685.0157-.0669.0572-.1248.1154-.1613.0582-.0364.1285-.0483.1954-.0331l4.3681 1.0007c.0666.0156.1244.057.1605.1151.0362.0581.0478.1282.0323.1949-.0156.0667-.057.1244-.1152.1606-.0581.0361-.1282.0477-.1949.0322l-4.3665-.9999c-.0198-.0044-.0389-.0113-.0571-.0204zM79.9308 64.8981c-.0514-.0264-.0923-.0693-.1162-.1219-.024-.0525-.0295-.1116-.0156-.1676.0144-.0672.0549-.126.1126-.1634.0576-.0374.1278-.0505.195-.0364l3.703.7919c.0331.0072.0646.0208.0925.0401.0279.0193.0517.0439.0701.0724.0184.0285.031.0603.0371.0937.0061.0334.0056.0676-.0016.1008-.0071.0331-.0207.0646-.04.0925-.0193.0279-.0439.0517-.0724.0701-.0285.0184-.0603.031-.0937.0371-.0334.0061-.0676.0056-.1008-.0016l-3.7029-.7919c-.023-.0023-.0455-.0077-.0671-.0158zM79.0327 62.5895c-.0521-.0256-.0941-.0681-.1191-.1205-.025-.0524-.0317-.1117-.0189-.1683.0159-.0665.0571-.1241.1149-.1605.0578-.0365.1275-.0489.1944-.0346l4.8036 1.0867c.0332.0074.0645.0214.0922.041.0278.0196.0514.0444.0695.0731.0181.0288.0304.0608.0361.0943.0058.0334.0048.0677-.0027.1008-.0072.0333-.021.0647-.0406.0926-.0195.0279-.0444.0516-.0732.0697-.0287.0182-.0608.0304-.0944.0361-.0336.0056-.0679.0045-.101-.0033l-4.8037-1.0867c-.0198-.0042-.039-.0111-.0571-.0204zM78.502 71.4569c-.0516-.0253-.0932-.0671-.1182-.1187-.025-.0517-.032-.1102-.0198-.1663.0069-.0333.0203-.0649.0394-.093s.0436-.0522.072-.0708c.0285-.0186.0603-.0314.0937-.0377.0334-.0063.0678-.006.101.001l3.7045.7927c.0668.0148.125.0554.1621.1128.037.0575.05.1272.0361.1941-.0072.0332-.0208.0646-.0401.0925-.0192.028-.0438.0518-.0724.0702-.0285.0184-.0603.031-.0937.0371-.0333.0061-.0676.0056-.1008-.0016l-3.7067-.7842c-.0201-.0071-.0393-.0165-.0571-.0281zM78.9114 69.0631c-.0523-.0259-.0943-.0686-.1192-.1213-.0249-.0527-.0313-.1123-.0181-.1691.0076-.0331.0216-.0644.0413-.0921.0197-.0276.0447-.0511.0735-.069.0288-.018.0609-.03.0945-.0354.0335-.0055.0678-.0042.1008.0037l3.7342.8803c.033.0075.0642.0215.0918.0411.0275.0197.0509.0447.0687.0735.0178.0287.0297.0608.035.0942.0053.0335.0038.0676-.0042.1005-.0156.0667-.057.1244-.1151.1606-.0582.0361-.1283.0477-.195.0322l-3.7342-.8803c-.0188-.0039-.0369-.0102-.054-.0189zM79.5533 66.8772c-.0515-.0256-.093-.0677-.1179-.1196-.0248-.0519-.0316-.1106-.0193-.1668.0142-.0668.0544-.1253.1116-.1625.0572-.0373.1269-.0504.1937-.0365l3.7045.7927c.0333.0069.0649.0204.0929.0396.028.0193.0519.0439.0704.0724.0184.0286.031.0605.037.094.006.0334.0053.0678-.0021.1009-.0148.0668-.0554.125-.1128.1621-.0575.0371-.1272.0501-.1941.0361l-3.703-.7919c-.021-.0045-.0415-.0113-.0609-.0205zM80.658 60.848c-.0522-.0258-.0943-.0685-.1192-.1212-.0249-.0527-.0312-.1123-.018-.1691.0078-.0331.0221-.0643.0419-.0919.0199-.0276.0451-.051.074-.0688.029-.0178.0612-.0298.0947-.0352.0336-.0053.0679-.004.101.0039l3.7327.8795c.0331.0075.0644.0215.0921.0412.0276.0197.0511.0447.0691.0736.0179.0288.0299.0609.0353.0944.0055.0336.0042.0678-.0037.1009-.0162.0666-.058.1241-.1163.1601-.0583.0359-.1285.0474-.1953.0319l-3.7327-.8796c-.0193-.0041-.038-.0107-.0556-.0197zM81.1261 58.6293c-.0515-.0255-.0932-.0673-.1185-.119-.0252-.0517-.0326-.1103-.021-.1667.0149-.0667.0554-.125.1128-.162.0575-.0371.1272-.0501.1942-.0361l3.7029.7919c.0333.0069.0649.0202.093.0394.0281.0191.0521.0436.0708.072.0186.0285.0314.0603.0377.0937.0063.0334.0059.0677-.0011.101-.0148.0668-.0553.125-.1128.1621-.0574.0371-.1271.05-.1941.0361l-3.7037-.7904c-.0208-.005-.041-.0123-.0602-.022zM81.5378 56.2293c-.0523-.0258-.0943-.0685-.1192-.1212-.0249-.0527-.0313-.1123-.018-.1691.0161-.0666.0579-.1241.1163-.1601.0583-.036.1285-.0474.1953-.0319l3.7327.8795c.0331.0078.0643.0221.0919.0419.0276.0199.0509.0451.0688.074.0178.029.0298.0612.0351.0947.0054.0336.0041.0679-.0038.101-.0161.0664-.0578.1237-.1161.1594-.0582.0357-.1283.0469-.1947.0311l-3.7327-.8796c-.0191-.0049-.0377-.0115-.0556-.0197zM82.0062 54.0117c-.0515-.0259-.0931-.0681-.1182-.12-.025-.052-.0323-.1107-.0205-.1672.0148-.0668.0553-.125.1128-.1621.0574-.0371.1272-.05.1941-.0361l3.7029.7919c.0333.0069.0649.0203.093.0394s.0522.0436.0708.0721c.0186.0284.0315.0603.0378.0937.0063.0334.0059.0677-.0011.101-.0147.0667-.055.1251-.1122.1626-.0572.0374-.1268.051-.1939.0378l-3.703-.7919c-.0216-.0046-.0425-.0117-.0625-.0212zM81.5459 51.7856c-.0524-.0253-.0945-.0677-.1196-.1202-.025-.0525-.0316-.1119-.0184-.1685.0075-.0333.0216-.0647.0413-.0924.0197-.0278.0447-.0514.0736-.0695.0289-.0181.0611-.0302.0947-.0358.0336-.0056.068-.0044.1012.0033l4.3664.9999c.0339.0073.066.0213.0944.0411.0283.0199.0525.0452.0709.0745.0185.0293.0309.062.0366.0962.0056.0342.0044.0691-.0036.1028-.0076.0332-.0216.0647-.0414.0924-.0197.0278-.0447.0514-.0736.0695-.0289.018-.0611.0302-.0947.0358-.0336.0056-.068.0044-.1011-.0033l-4.3665-.9999c-.0211-.0059-.0414-.0146-.0602-.0259zM84.0825 43.1237c-.0511-.0246-.0926-.0655-.1179-.1162-.0254-.0507-.0333-.1084-.0224-.1641.0072-.0332.0207-.0646.04-.0925.0193-.0279.0439-.0517.0724-.0701.0285-.0184.0604-.0311.0937-.0371.0334-.0061.0677-.0056.1008.0015l3.703.792c.0668.0142.1252.0544.1625.1116.0372.0572.0503.1269.0364.1937-.0069.0333-.0204.0649-.0396.0929-.0193.028-.0439.052-.0724.0704-.0286.0184-.0605.031-.094.037-.0334.006-.0678.0053-.1009-.0021l-3.7037-.7904c-.0203-.0065-.0398-.0154-.0579-.0266zM83.1824 40.8162c-.0521-.0256-.0941-.0681-.1191-.1205-.025-.0524-.0317-.1117-.0189-.1683.0155-.0667.0567-.1246.1146-.1611.0579-.0365.1278-.0487.1947-.034l4.8006 1.0852c.0331.0074.0644.0214.0922.041.0277.0195.0513.0444.0694.0731.0182.0288.0304.0608.0362.0943.0057.0334.0048.0677-.0027.1008-.0075.0332-.0214.0645-.041.0922-.0196.0278-.0445.0514-.0732.0695-.0287.0181-.0608.0304-.0942.0361-.0335.0058-.0678.0048-.1009-.0027l-4.8037-1.0867c-.0187-.0041-.0368-.0105-.054-.0189zM82.6477 49.6937c-.0515-.0256-.093-.0678-.1178-.1197-.0249-.0519-.0317-.1106-.0194-.1668.0061-.034.0191-.0665.038-.0954.019-.029.0437-.0537.0725-.0729.0288-.0192.0612-.0323.0952-.0386.034-.0063.069-.0057.1027.0018l3.7045.7927c.0668.0143.1252.0544.1625.1116.0373.0572.0504.1269.0364.1938-.0071.0331-.0207.0646-.04.0925-.0193.0279-.0439.0517-.0724.0701-.0285.0184-.0603.031-.0937.0371-.0334.0061-.0676.0056-.1008-.0016l-3.7037-.7903c-.0218-.0022-.0433-.007-.064-.0143zM83.0602 47.2898c-.0527-.0257-.0949-.0687-.1197-.1218-.0249-.0531-.0308-.1131-.0168-.1701.0076-.0331.0216-.0644.0413-.092.0197-.0277.0446-.0512.0735-.0691.0288-.018.0609-.03.0945-.0354.0335-.0054.0678-.0042.1008.0038l3.7327.8795c.0331.0078.0643.022.0919.0419s.051.0451.0688.074c.0178.029.0298.0611.0352.0947.0053.0336.004.0679-.0039.101-.0077.0329-.0218.0639-.0415.0914-.0197.0274-.0447.0507-.0734.0684-.0287.0178-.0607.0297-.0941.0351-.0333.0054-.0674.0041-.1003-.0037l-3.7342-.8803c-.0188-.0041-.0371-.01-.0548-.0174zM83.7048 45.104c-.0516-.0255-.0933-.0673-.1186-.119-.0252-.0517-.0326-.1103-.021-.1667.0149-.0667.0554-.1249.1128-.162.0575-.0371.1272-.0501.1942-.0361l3.7082.7849c.0668.0148.125.0554.1621.1128.0371.0575.0501.1272.0361.1941-.0055.0348-.0179.068-.0366.0978-.0187.0298-.0432.0555-.0721.0755-.0289.0201-.0616.0341-.096.0411-.0345.0071-.07.0071-.1044 0l-3.7037-.7904c-.0216-.0081-.0421-.0188-.061-.032zM84.8082 39.0761c-.0521-.0256-.094-.068-.1191-.1204-.025-.0524-.0316-.1117-.0188-.1684.0161-.0666.0579-.1241.1163-.1601.0583-.0359.1285-.0474.1952-.0319l3.7327.8795c.0666.0162.1242.058.1602.1163.0359.0584.0474.1286.0319.1953-.0161.0664-.0579.1237-.1161.1594-.0583.0357-.1283.0469-.1947.0311l-3.7327-.8795c-.0189-.0055-.0372-.0126-.0549-.0213zM85.2773 36.8562c-.0518-.0253-.0937-.0671-.1189-.1189-.0253-.0517-.0326-.1105-.0206-.1668.0071-.0332.0207-.0646.04-.0925.0193-.0279.0439-.0518.0724-.0702.0285-.0184.0603-.031.0937-.0371.0334-.0061.0676-.0055.1008.0016l3.7037.7904c.0672.0145.1259.055.1633.1126.0375.0577.0505.1278.0364.1951-.0066.0338-.0198.066-.0389.0947-.0191.0287-.0437.0533-.0724.0724-.0287.019-.0609.0322-.0948.0388-.0338.0065-.0686.0062-.1023-.0008l-3.7045-.7927c-.0203-.0064-.0398-.0154-.0579-.0266zM85.6887 34.4557c-.0523-.0258-.0943-.0685-.1193-.1212-.0249-.0527-.0312-.1123-.018-.1691.0078-.0331.0221-.0643.042-.0919s.045-.051.0739-.0688c.029-.0178.0612-.0298.0947-.0352.0336-.0053.0679-.004.101.0039l3.7327.8795c.0666.0162.1242.058.1601.1163.036.0584.0475.1285.0319.1953-.0161.0666-.0579.1242-.1162.1601-.0584.036-.1286.0474-.1953.0319l-3.7327-.8795c-.0192-.0047-.0376-.0118-.0548-.0213zM86.1531 32.2356c-.0518-.0253-.0936-.0671-.1189-.1189-.0253-.0517-.0326-.1105-.0206-.1668.0148-.0668.0553-.125.1128-.1621.0574-.0371.1272-.05.1941-.0361l3.7114.7942c.067.0149.1254.0555.1628.113.0373.0575.0506.1275.0369.1947-.0148.0667-.0553.1249-.1128.162-.0574.0371-.1272.0501-.1941.0361l-3.706-.7972c-.0226-.0033-.0447-.0097-.0656-.0189zM85.697 30.0137c-.0523-.0258-.0943-.0685-.1192-.1212-.0249-.0527-.0313-.1123-.018-.1691.0156-.0667.057-.1244.1151-.1605.0581-.0362.1282-.0478.1949-.0323l4.3665.9999c.0332.0072.0647.021.0926.0406.0278.0195.0515.0444.0697.0732.0181.0287.0304.0609.036.0944.0057.0336.0046.0679-.0032.101-.0076.0333-.0216.0647-.0413.0924-.0197.0278-.0448.0514-.0737.0695-.0289.018-.061.0302-.0946.0358-.0336.0056-.068.0044-.1012-.0033l-4.368-1.0007c-.0193-.0041-.038-.0107-.0556-.0197zM88.2339 21.3443c-.0515-.0252-.0931-.067-.1181-.1186-.0251-.0517-.032-.1102-.0199-.1663.0072-.0332.0208-.0646.0401-.0925.0193-.0279.0439-.0518.0724-.0702.0285-.0184.0603-.031.0937-.0371.0334-.0061.0676-.0055.1008.0016l3.7037.7904c.0667.0148.1249.0553.162.1128.0371.0574.0501.1272.0361.1941-.0071.0332-.0207.0646-.04.0925-.0193.0279-.0439.0518-.0724.0702-.0285.0184-.0603.031-.0937.0371-.0334.006-.0676.0055-.1008-.0016l-3.7067-.7842c-.0201-.0071-.0393-.0165-.0572-.0282zM87.3349 19.0424c-.0521-.0256-.0941-.068-.1191-.1204-.0251-.0524-.0317-.1117-.0189-.1684.0154-.0664.0565-.1241.1143-.1604.0578-.0362.1276-.0481.1942-.0331l4.8044 1.0851c.0667.0155.1246.0567.1611.1146.0365.0579.0487.1278.034.1947-.0073.0332-.021.0647-.0406.0926-.0195.0278-.0444.0515-.0732.0697-.0288.0181-.0609.0304-.0944.036-.0336.0056-.0679.0045-.101-.0032l-4.8037-1.0867c-.0198-.0044-.039-.0113-.0571-.0205zM86.7994 27.9158c-.0515-.0253-.0931-.067-.1181-.1187-.025-.0516-.032-.1102-.0198-.1663.0152-.0652.0554-.1219.1119-.1579.0565-.036.1248-.0485.1904-.0348l3.7052.7911c.0668.0148.125.0554.1621.1128.0371.0575.0501.1272.0361.1941-.0157.0645-.0554.1205-.111.1566-.0557.0361-.123.0496-.1882.0377l-3.7037-.7904c-.0226-.0053-.0443-.0135-.0649-.0242zM87.2106 25.5146c-.0523-.0258-.0943-.0686-.1192-.1213-.0249-.0527-.0312-.1123-.018-.1691.0161-.0666.0579-.1241.1163-.1601.0583-.0359.1285-.0474.1953-.0319l3.7327.8795c.0666.0156.1244.057.1605.1152.0362.0581.0478.1282.0323.1949-.0156.0666-.057.1244-.1151.1605-.0582.0362-.1283.0478-.195.0323l-3.7342-.8803c-.0193-.0041-.038-.0107-.0556-.0197zM87.8542 23.3303c-.0516-.0255-.0933-.0673-.1185-.119-.0253-.0517-.0327-.1103-.0211-.1667.0072-.0332.0208-.0646.0401-.0925.0193-.0279.0439-.0517.0724-.0701.0285-.0184.0603-.0311.0937-.0371.0334-.0061.0676-.0056.1008.0015l3.7099.7973c.0669.0149.1254.0555.1627.113.0374.0576.0506.1275.037.1947-.0149.0667-.0554.125-.1128.1621-.0575.037-.1272.05-.1942.0361l-3.7029-.792c-.0235-.0061-.046-.0153-.0671-.0273z" fill="#E72E80"/><path d="M55.1004 70.2783h11.4691c7.5768 0 13.1558.0023 17.4014.5881 4.2171.5818 6.955 1.7205 8.9585 3.8726 2.0035 2.1522 2.9437 4.9645 3.2227 9.2123.281 4.2767-.1154 9.8416-.6568 17.3987l-1.2764 17.819c-.475 6.632-.8264 11.509-1.5868 15.235-.7547 3.698-1.8879 6.127-3.8358 7.94-1.948 1.814-4.4513 2.77-8.1938 3.259-3.7711.492-8.6605.494-15.3095.494h-8.9162c-6.6489 0-11.5384-.002-15.3094-.494-3.7426-.489-6.2459-1.445-8.1938-3.259-1.948-1.813-3.0812-4.242-3.8359-7.94-.7604-3.726-1.1117-8.603-1.5868-15.235l-1.2764-17.819c-.5414-7.5571-.9378-13.122-.6568-17.3987.279-4.2478 1.2192-7.0601 3.2227-9.2123 2.0035-2.1521 4.7415-3.2908 8.9585-3.8726 4.2456-.5858 9.8246-.5881 17.4015-.5881z" fill="#fff" stroke="#E72E80" stroke-width="2"/><path d="M31.9381 85.3615c-.2833-4.6028 3.3733-8.4914 7.9849-8.4914h12.9118c4.4183 0 8 3.5817 8 8v45.6859c0 4.418-3.5817 8-8 8H42.7344c-4.2275 0-7.7252-3.289-7.9849-7.509l-2.8114-45.6855z" fill="#FDF1F7"/><path d="M71.292 100.907c.4271 1.356.2979 2.827-.3591 4.088-.657 1.261-1.788 2.209-3.1442 2.636-1.3562.427-2.8265.298-4.0875-.359-1.2609-.657-2.2092-1.788-2.6363-3.144-.4271-1.356-.2979-2.827.3591-4.088.657-1.2607 1.788-2.209 3.1442-2.6361 1.3562-.4271 2.8265-.2979 4.0875.3591 1.261.657 2.2093 1.788 2.6363 3.144zm-10.4157 14.521c.4271 1.357.2979 2.827-.3591 4.088-.657 1.261-1.788 2.209-3.1442 2.636-1.3562.427-2.8265.298-4.0875-.359-1.2609-.657-2.2093-1.788-2.6363-3.144-.4271-1.356-.2979-2.827.3591-4.088.657-1.261 1.788-2.209 3.1442-2.636 1.3562-.427 2.8265-.298 4.0875.359 1.2609.657 2.2093 1.788 2.6363 3.144zm5.3675 17.046c.4271 1.356.2979 2.826-.3591 4.087-.657 1.261-1.788 2.209-3.1442 2.636-1.3562.428-2.8265.298-4.0875-.359-1.261-.657-2.2093-1.788-2.6363-3.144-.4271-1.356-.2979-2.826.3591-4.087.657-1.261 1.788-2.21 3.1442-2.637 1.3562-.427 2.8265-.298 4.0875.359 1.2609.657 2.2092 1.788 2.6363 3.145zm16.8567 5.933c.427 1.356.2979 2.826-.3591 4.087-.657 1.261-1.788 2.21-3.1442 2.637-1.3563.427-2.8266.298-4.0875-.359-1.261-.657-2.2093-1.788-2.6364-3.145-.427-1.356-.2978-2.826.3592-4.087.657-1.261 1.788-2.209 3.1442-2.637 1.3562-.427 2.8265-.297 4.0874.36 1.261.657 2.2093 1.788 2.6364 3.144zm-36.5857-9.088c2.5624 8.137 8.2523 14.923 15.8181 18.865 7.5657 3.942 16.3876 4.717 24.5248 2.154 8.1372-2.562 14.9233-8.252 18.8653-15.818 3.942-7.565 4.717-16.387 2.155-24.525-.427-1.356-1.376-2.487-2.637-3.144-1.261-.657-2.731-.786-4.087-.359-1.3296.419-2.3618 1.306-2.9905 2.403-.6735 1.074-1.7057 1.961-3.0011 2.369-1.3562.427-2.8265.298-4.0875-.359-1.2609-.657-2.2093-1.788-2.6363-3.144l-1.9001-6.034c-1.4236-4.5209-4.5846-8.2909-8.7878-10.4809-4.2032-2.19-9.1043-2.6206-13.6249-1.1971-15.068 4.7449-22.9463 22.327-17.611 39.27z" fill="#E72E80"/></g><defs><linearGradient id="paint0_linear_7_5592" x1="60" y1="21" x2="60" y2="141" gradientUnits="userSpaceOnUse"><stop stop-color="#E72E80" stop-opacity=".5"/><stop offset="1" stop-color="#E72E80"/></linearGradient><filter id="filter0_d_7_5592" x="20.425" y="1.72168" width="92.938" height="156.103" filterUnits="userSpaceOnUse" color-interpolation-filters="sRGB"><feFlood flood-opacity="0" result="BackgroundImageFix"/><feColorMatrix in="SourceAlpha" values="0 0 0 0 0 0 0 0 0 0 0 0 0 0 0 0 0 0 127 0" result="hardAlpha"/><feOffset dy="2"/><feGaussianBlur stdDeviation="2"/><feComposite in2="hardAlpha" operator="out"/><feColorMatrix values="0 0 0 0 0.905882 0 0 0 0 0.180392 0 0 0 0 0.501961 0 0 0 0.15 0"/><feBlend in2="BackgroundImageFix" result="effect1_dropShadow_7_5592"/><feBlend in="SourceGraphic" in2="effect1_dropShadow_7_5592" result="shape"/></filter></defs></svg>