<svg width="57" height="50" viewBox="0 0 57 50" fill="none" xmlns="http://www.w3.org/2000/svg"><path d="M6.7651 6.25h43.4698c1.7078 0 3.105-1.40625 3.105-3.125S51.9427 0 50.2349 0H6.7651C5.05735 0 3.66011 1.40625 3.66011 3.125S5.05735 6.25 6.7651 6.25zm47.0716 5.625c-.2795-1.4375-1.5525-2.5-3.0429-2.5H6.2062c-1.49039 0-2.76344 1.0625-3.04289 2.5L.0583256 27.5C-.314273 29.4375 1.14507 31.25 3.10121 31.25h.5589v15.625c0 1.7188 1.39724 3.125 3.10499 3.125H31.605c1.7077 0 3.105-1.4062 3.105-3.125V31.25h12.4199v15.625c0 1.7188 1.3973 3.125 3.105 3.125 1.7078 0 3.105-1.4062 3.105-3.125V31.25h.5589c1.9561 0 3.4155-1.8125 3.0429-3.75l-3.105-15.625zM28.5 43.75H9.87008v-12.5H28.5v12.5z" fill="#E72E80"/></svg>