<svg width="160" height="90" viewBox="0 0 160 90" fill="none" xmlns="http://www.w3.org/2000/svg">
<rect width="160" height="90" rx="10" fill="white"/>
<rect x="114" y="10" width="36.1936" height="22" rx="11" fill="#67CE67"/>
<g filter="url(#filter0_d_1302_484)">
<rect x="129.613" y="11.4194" width="19.1613" height="19.1613" rx="9.58064" fill="white"/>
</g>
<path d="M25.2613 58.1468C25.2613 57.3407 25.9263 57.0293 27.0282 57.0293C28.8264 57.0672 30.5912 57.521 32.1829 58.3549V53.4906C30.5421 52.8463 28.7919 52.5232 27.0282 52.539C22.806 52.539 20 54.7303 20 58.3956C20 64.1067 27.892 63.1973 27.892 65.6593C27.892 66.6109 27.0619 66.9223 25.8971 66.9223C24.1725 66.9223 21.9686 66.218 20.2221 65.2664V70.1918C22.014 70.9634 23.9448 71.3643 25.8971 71.3704C30.2201 71.3704 33.1927 69.2402 33.1927 65.5356C33.1781 59.3691 25.2613 60.4647 25.2613 58.1468ZM39.3119 48.3979L34.2406 49.4732L34.2202 66.0492C34.2202 69.1121 36.5278 71.3675 39.6042 71.3675C41.3083 71.3675 42.555 71.0575 43.2404 70.685V66.4872C42.5754 66.7564 39.2944 67.708 39.2944 64.6451V57.2985H43.2404V52.8912H39.2915L39.3119 48.3979ZM49.706 54.419L49.3757 52.8912H44.8802V70.9979H50.0772V58.7274C51.3034 57.1268 53.3816 57.4178 54.0232 57.6506V52.8912C53.3611 52.6423 50.9292 52.1869 49.703 54.4219L49.706 54.419ZM55.2961 52.8882H60.5136V70.9979H55.2961V52.8882ZM55.2961 51.3153L60.5136 50.1978V46L55.2961 47.0971V51.3153ZM71.3636 52.5361C69.8465 52.528 68.3854 53.1059 67.2875 54.1483L67.0172 52.865H62.4442V77L67.6441 75.9029L67.6661 70.0463C68.4143 70.5846 69.5148 71.3558 71.3446 71.3558C75.0655 71.3558 78.4532 68.3759 78.4532 61.8165C78.4284 55.8085 74.9983 52.539 71.3607 52.539L71.3636 52.5361ZM70.117 66.7957C68.8908 66.7957 68.163 66.3592 67.6646 65.8237L67.6441 58.1468C68.1849 57.5473 68.9332 57.1283 70.1184 57.1283C72.0096 57.1283 73.319 59.2381 73.319 61.9489C73.3147 64.728 72.0286 66.7971 70.114 66.7971L70.117 66.7957ZM94.8276 62.0173C94.8276 56.7194 92.2495 52.539 87.3244 52.539C82.3773 52.539 79.3842 56.7194 79.3842 61.9765C79.3842 68.2042 82.918 71.35 87.9893 71.35C90.4622 71.35 92.3329 70.7913 93.7461 70.0055V65.8659C92.3329 66.5701 90.7121 67.0052 88.6543 67.0052C86.6375 67.0052 84.8545 66.301 84.6221 63.8594H94.7867C94.7867 63.5902 94.8276 62.5134 94.8276 62.0173ZM84.5593 60.0515C84.5593 57.7132 85.9944 56.7398 87.3039 56.7398C88.571 56.7398 89.9229 57.7132 89.9229 60.0515H84.5593Z" fill="#6772E5"/>
<defs>
<filter id="filter0_d_1302_484" x="122.613" y="7.41943" width="33.1613" height="33.1614" filterUnits="userSpaceOnUse" color-interpolation-filters="sRGB">
<feFlood flood-opacity="0" result="BackgroundImageFix"/>
<feColorMatrix in="SourceAlpha" type="matrix" values="0 0 0 0 0 0 0 0 0 0 0 0 0 0 0 0 0 0 127 0" result="hardAlpha"/>
<feOffset dy="3"/>
<feGaussianBlur stdDeviation="3.5"/>
<feColorMatrix type="matrix" values="0 0 0 0 0 0 0 0 0 0 0 0 0 0 0 0 0 0 0.12 0"/>
<feBlend mode="normal" in2="BackgroundImageFix" result="effect1_dropShadow_1302_484"/>
<feBlend mode="normal" in="SourceGraphic" in2="effect1_dropShadow_1302_484" result="shape"/>
</filter>
</defs>
</svg>
