<svg width="58" height="41" viewBox="0 0 58 41" fill="none" xmlns="http://www.w3.org/2000/svg">
<path d="M16.4286 5.75C16.4286 8.50893 14.1875 10.75 11.4286 10.75C8.66696 10.75 6.42857 8.50893 6.42857 5.75C6.42857 2.98839 8.66696 0.75 11.4286 0.75C14.1875 0.75 16.4286 2.98839 16.4286 5.75ZM18.6071 15.4196C15.9554 17.7768 14.2857 21.2143 14.2857 25.0357C14.2857 28.0982 15.2768 30.9107 17.1429 33.1161V35.0357C17.1429 36.6161 15.8661 37.8929 14.2857 37.8929H8.57143C6.99375 37.8929 5.71429 36.6161 5.71429 35.0357V32.6429C2.33571 31.0357 0 27.5982 0 23.6071C0 18.0804 4.47679 13.6071 10 13.6071H12.8571C14.9196 13.6071 16.9821 14.2768 18.6071 15.4196ZM5.71429 19.8304C4.825 20.8304 4.28571 22.1607 4.28571 23.6071C4.28571 25.0536 4.825 26.3839 5.71429 27.3839V19.8304ZM40 35.0357V33.1161C41.7857 30.9107 42.8571 28.0982 42.8571 25.0357C42.8571 21.2143 41.1875 17.7768 38.5357 15.4196C40.1607 14.2768 42.1429 13.6071 44.2857 13.6071H47.1429C52.6696 13.6071 57.1429 18.0804 57.1429 23.6071C57.1429 27.5982 54.8036 31.0357 51.4286 32.6429V35.0357C51.4286 36.6161 50.1518 37.8929 48.5714 37.8929H42.8571C41.2768 37.8929 40 36.6161 40 35.0357ZM51.4286 27.3839C52.2411 26.3839 52.8571 25.0536 52.8571 23.6071C52.8571 22.1607 52.2411 20.8304 51.4286 19.8304V27.3839ZM50.7143 5.75C50.7143 8.50893 48.4732 10.75 45.7143 10.75C42.9554 10.75 40.7143 8.50893 40.7143 5.75C40.7143 2.98839 42.9554 0.75 45.7143 0.75C48.4732 0.75 50.7143 2.98839 50.7143 5.75ZM22.8571 6.46429C22.8571 3.30804 25.4196 0.75 28.5714 0.75C31.7232 0.75 34.2857 3.30804 34.2857 6.46429C34.2857 9.61607 31.7232 12.1786 28.5714 12.1786C25.4196 12.1786 22.8571 9.61607 22.8571 6.46429ZM40 25.0357C40 29.0268 37.6607 32.4643 34.2857 34.0714V37.8929C34.2857 39.4732 33.0089 40.75 31.4286 40.75H25.7143C24.1339 40.75 22.8571 39.4732 22.8571 37.8929V34.0714C19.4821 32.4643 17.1429 29.0268 17.1429 25.0357C17.1429 19.5089 21.6161 15.0357 27.1429 15.0357H30C35.5268 15.0357 40 19.5089 40 25.0357ZM22.8571 28.8125V21.2589C21.9643 22.2589 21.4286 23.5893 21.4286 25.0357C21.4286 26.4821 21.9643 27.8125 22.8571 28.8125ZM34.2857 21.2589V28.8125C35.0982 27.8036 35.7143 26.4821 35.7143 25.0357C35.7143 23.5893 35.0982 22.2589 34.2857 21.2589Z" fill="#653289"/>
</svg>
