<svg width="216" height="122" viewBox="0 0 216 122" fill="none" xmlns="http://www.w3.org/2000/svg">
<path d="M22.5502 59.9187H18V56.5483H30.7358V59.9187H26.2578V73.3293H22.5502V59.9187Z" fill="#3A3A3A"/>
<path d="M31.6735 56.5483H35.2606V62.6633C35.7421 61.6281 37.0421 60.9299 38.6553 60.9299C41.5445 60.9299 43.1574 62.832 43.1574 65.9622V73.3293H39.5703V66.3953C39.5703 64.9988 38.848 64.1082 37.4996 64.1082C36.1996 64.1082 35.2606 65.0953 35.2606 66.5158V73.3293H31.6735V56.5483Z" fill="#3A3A3A"/>
<path d="M53.3413 65.8901C53.3413 64.8068 52.234 63.8919 50.8132 63.8919C49.3208 63.8919 48.0686 64.7828 47.9965 65.8901H53.3413ZM44.385 67.2382C44.385 63.3863 47.1299 60.9062 50.8132 60.9062C54.5211 60.9062 56.9528 63.6511 56.9528 67.0459C56.9528 67.0459 56.9528 67.6717 56.8807 68.2256H47.9724C48.0446 69.6699 49.2724 70.5849 51.1748 70.5849C53.4859 70.5849 54.7856 69.8869 55.4842 69.4051V72.535C54.3525 73.2573 53.1006 73.6427 50.9818 73.6427C47.0577 73.6427 44.385 71.1626 44.385 67.3588V67.2382Z" fill="#3A3A3A"/>
<path d="M63.9583 55.9468L72.8181 65.6011L81.678 55.9468V73.3296H78.1149V64.8066L72.8181 70.7533L67.5213 64.8066V73.3296H63.9583V55.9468Z" fill="#3A3A3A"/>
<path d="M89.5967 70.4407C91.3542 70.4407 92.7506 69.0442 92.7506 67.2624C92.7506 65.5049 91.3542 64.0846 89.5967 64.0846C87.8151 64.0846 86.4427 65.5049 86.4427 67.2624C86.4427 69.0442 87.8151 70.4407 89.5967 70.4407ZM89.5967 60.8345C93.3284 60.8345 96.3381 63.6753 96.3381 67.2624C96.3381 70.8498 93.3284 73.6908 89.5967 73.6908C85.8409 73.6908 82.8556 70.8498 82.8556 67.2624C82.8556 63.6753 85.8409 60.8345 89.5967 60.8345Z" fill="#3A3A3A"/>
<path d="M98.3112 64.4452H96.6978V61.195H98.3112V56.5483H101.802V61.195H104.475V64.4452H101.802V73.3293H98.3112V64.4452Z" fill="#3A3A3A"/>
<path d="M109.049 56.5483H105.461V73.3293H109.049V56.5483Z" fill="#3A3A3A"/>
<path d="M119.184 65.8901C119.184 64.8068 118.077 63.8919 116.656 63.8919C115.163 63.8919 113.911 64.7828 113.839 65.8901H119.184ZM110.228 67.2382C110.228 63.3863 112.972 60.9062 116.656 60.9062C120.364 60.9062 122.795 63.6511 122.795 67.0459C122.795 67.0459 122.795 67.6717 122.723 68.2256H113.815C113.887 69.6699 115.115 70.5849 117.017 70.5849C119.329 70.5849 120.629 69.8869 121.327 69.4051V72.535C120.195 73.2573 118.943 73.6427 116.824 73.6427C112.9 73.6427 110.228 71.1626 110.228 67.3588V67.2382Z" fill="#3A3A3A"/>
<path d="M122.29 61.1953H126.021L129.247 69.2848L132.522 61.1953H136.253L129.103 78.0001H125.419L127.369 73.5461L122.29 61.1953Z" fill="#3A3A3A"/>
<path d="M142.27 56.5483H153.321V59.9187H145.978V63.3619H152.671V66.6601H145.978V73.3293H142.27V56.5483Z" fill="#3A3A3A"/>
<path d="M160.615 70.4407C162.372 70.4407 163.769 69.0442 163.769 67.2624C163.769 65.5049 162.372 64.0846 160.615 64.0846C158.833 64.0846 157.461 65.5049 157.461 67.2624C157.461 69.0442 158.833 70.4407 160.615 70.4407ZM160.615 60.8345C164.347 60.8345 167.356 63.6753 167.356 67.2624C167.356 70.8498 164.347 73.6908 160.615 73.6908C156.859 73.6908 153.874 70.8498 153.874 67.2624C153.874 63.6753 156.859 60.8345 160.615 60.8345Z" fill="#3A3A3A"/>
<path d="M174.819 70.4407C176.576 70.4407 177.973 69.0442 177.973 67.2624C177.973 65.5049 176.576 64.0846 174.819 64.0846C173.037 64.0846 171.665 65.5049 171.665 67.2624C171.665 69.0442 173.037 70.4407 174.819 70.4407ZM174.819 60.8345C178.551 60.8345 181.56 63.6753 181.56 67.2624C181.56 70.8498 178.551 73.6908 174.819 73.6908C171.063 73.6908 168.078 70.8498 168.078 67.2624C168.078 63.6753 171.063 60.8345 174.819 60.8345Z" fill="#3A3A3A"/>
<path d="M186.447 56.5483H182.859V73.3293H186.447V56.5483Z" fill="#3A3A3A"/>
<path d="M197.629 52.2923C197.629 53.6305 196.544 54.7152 195.206 54.7152C193.868 54.7152 192.783 53.6305 192.783 52.2923C192.783 50.9541 193.868 49.8691 195.206 49.8691C196.544 49.8691 197.629 50.9541 197.629 52.2923Z" fill="#3A3A3A"/>
<path d="M180.699 29C187.727 29 193.626 36.8968 195.294 47.5727C195.325 47.7716 195.189 47.9598 194.99 47.9931C194.82 48.0214 194.655 47.9267 194.59 47.7674C192.923 43.6849 190.062 40.9898 186.81 40.9898C182.149 40.9898 178.056 46.6914 177.597 54.5302C176.992 55.8305 172.165 56.8267 167.717 56.9964V38.2554C170.478 32.6146 175.946 29 180.699 29Z" fill="#3A3A3A"/>
<path d="M137.805 52.2923C137.805 53.6305 138.89 54.7152 140.228 54.7152C141.566 54.7152 142.651 53.6305 142.651 52.2923C142.651 50.9541 141.566 49.8691 140.228 49.8691C138.89 49.8691 137.805 50.9541 137.805 52.2923Z" fill="#3A3A3A"/>
<path d="M154.735 29C147.708 29 141.808 36.8968 140.141 47.5727C140.11 47.7716 140.246 47.9598 140.445 47.9931C140.614 48.0214 140.779 47.9267 140.844 47.7674C142.512 43.6849 145.373 40.9898 148.625 40.9898C153.286 40.9898 157.378 46.6914 157.838 54.5302C158.442 55.8305 163.27 56.8267 167.718 56.9964V38.2554C164.956 32.6146 159.489 29 154.735 29Z" fill="#3A3A3A"/>
<path d="M189.747 72.4753C189.858 72.4753 189.938 72.3797 189.938 72.262C189.938 72.1514 189.858 72.0631 189.747 72.0631H189.527V72.4753H189.747ZM189.276 71.8277H189.755C190.012 71.8277 190.189 72.0042 190.189 72.247C190.189 72.4162 190.108 72.5562 189.968 72.6369L190.292 73.1741H189.997L189.703 72.6813H189.527V73.1741H189.276V71.8277ZM190.667 72.5268C190.667 71.9528 190.255 71.5629 189.71 71.5629C189.166 71.5629 188.762 71.9528 188.762 72.5268C188.762 73.0858 189.166 73.4757 189.71 73.4757C190.255 73.4757 190.667 73.0858 190.667 72.5268ZM188.526 72.5268C188.526 71.8427 189.056 71.3569 189.71 71.3569C190.372 71.3569 190.91 71.8427 190.91 72.5268C190.91 73.2109 190.372 73.6961 189.71 73.6961C189.056 73.6961 188.526 73.2109 188.526 72.5268Z" fill="#3A3A3A"/>
</svg>
