<svg width="50" height="40" viewBox="0 0 50 40" fill="none" xmlns="http://www.w3.org/2000/svg">
<path d="M46.9388 0H24.4367C22.9951 0 21.8213 1.18071 21.8213 2.62913V14.3058C21.8213 15.7542 22.9951 16.9349 24.4367 16.9349H26.4137V21.5685C26.4137 21.8911 26.599 22.1795 26.8873 22.3099C26.9972 22.3579 27.1139 22.3854 27.2237 22.3854C27.4159 22.3854 27.6081 22.3167 27.7523 22.1863L33.8 16.928H46.9319C48.3735 16.928 49.5473 15.7473 49.5473 14.2989V2.62913C49.5542 1.18071 48.3803 0 46.9388 0ZM30.9237 7.9835L29.7224 9.16421L30.0039 10.8254C30.0245 10.9421 29.9764 11.0657 29.8734 11.1412C29.8185 11.1824 29.7499 11.203 29.6881 11.203C29.64 11.203 29.5851 11.1893 29.5371 11.1687L28.0543 10.3861L26.5716 11.1687C26.4617 11.2236 26.3313 11.2167 26.2352 11.1412C26.1391 11.0657 26.0911 10.949 26.1116 10.8254L26.3931 9.16421L25.1918 7.9835C25.1026 7.90113 25.0751 7.7707 25.1094 7.654C25.1437 7.53731 25.2467 7.45493 25.3634 7.43434L27.0246 7.19408L27.766 5.67701C27.8209 5.56717 27.9308 5.49853 28.0475 5.49853C28.1642 5.49853 28.2809 5.56717 28.3289 5.67701L29.0703 7.19408L30.7315 7.43434C30.8482 7.45493 30.9512 7.53731 30.9855 7.654C31.0404 7.7707 31.0061 7.89426 30.9237 7.9835ZM38.5571 7.9835L37.3558 9.16421L37.6373 10.8254C37.6579 10.9421 37.6098 11.0657 37.5068 11.1412C37.4519 11.1824 37.3901 11.203 37.3215 11.203C37.2735 11.203 37.2185 11.1893 37.1705 11.1687L35.6877 10.3861L34.205 11.1687C34.0952 11.2236 33.9716 11.2167 33.8686 11.1412C33.7725 11.0726 33.7245 10.949 33.7382 10.8254L34.0196 9.16421L32.8183 7.9835C32.7291 7.90113 32.7016 7.7707 32.736 7.654C32.7703 7.53731 32.8733 7.45493 32.99 7.43434L34.6512 7.19408L35.3926 5.68387C35.4475 5.57404 35.5573 5.50539 35.674 5.50539C35.7976 5.50539 35.9074 5.57404 35.9555 5.68387L36.6968 7.20094L38.3581 7.4412C38.4748 7.4618 38.5777 7.54417 38.612 7.66087C38.6738 7.7707 38.6395 7.89426 38.5571 7.9835ZM46.1837 7.9835L44.9824 9.16421L45.2638 10.8254C45.2844 10.9421 45.2364 11.0657 45.1403 11.1412C45.0853 11.1824 45.0167 11.203 44.9549 11.203C44.9069 11.203 44.8519 11.1893 44.8039 11.1687L43.3211 10.3861L41.8384 11.1687C41.7286 11.2236 41.605 11.2167 41.502 11.1412C41.4059 11.0726 41.3579 10.949 41.3716 10.8254L41.6531 9.16421L40.4518 7.9835C40.3625 7.90113 40.3351 7.7707 40.3694 7.654C40.4037 7.53731 40.5067 7.45493 40.6234 7.43434L42.2846 7.19408L43.026 5.67701C43.0809 5.56717 43.1907 5.49853 43.3074 5.49853C43.431 5.49853 43.5408 5.56717 43.5957 5.67701L44.3371 7.19408L45.9983 7.43434C46.115 7.45493 46.218 7.53731 46.2523 7.654C46.3004 7.7707 46.2729 7.89426 46.1837 7.9835Z" fill="black"/>
<path d="M19.7631 5.67688H4.8052C2.14861 5.67688 0 7.87354 0 10.5782V13.0288H19.7631V5.67688Z" fill="#E63081"/>
<path d="M29.1058 23.7515C28.5841 24.2045 27.9182 24.4516 27.2249 24.4516C26.8062 24.4516 26.408 24.3624 26.0236 24.1839C25.0077 23.7171 24.3555 22.6875 24.3555 21.5685V20.3878H0V35.0986C0 37.8033 2.14861 39.9999 4.8052 39.9999H38.4416C41.0914 39.9999 43.2468 37.8033 43.2468 35.0986V20.3878H32.9774L29.1058 23.7515ZM13.2143 32.648H8.40911C7.75011 32.648 7.20781 32.0988 7.20781 31.4192C7.20781 30.7465 7.75011 30.1904 8.40911 30.1904H13.2143C13.8733 30.1904 14.4156 30.7396 14.4156 31.4192C14.4156 32.0919 13.8733 32.648 13.2143 32.648ZM27.6299 32.648H18.0195C17.3605 32.648 16.8182 32.0988 16.8182 31.4192C16.8182 30.7465 17.3605 30.1904 18.0195 30.1904H27.6299C28.2889 30.1904 28.8312 30.7396 28.8312 31.4192C28.8312 32.0919 28.2889 32.648 27.6299 32.648Z" fill="#E63081"/>
</svg>
