<svg width="31" height="30" viewBox="0 0 31 30" fill="none" xmlns="http://www.w3.org/2000/svg"><path opacity=".1" fill-rule="evenodd" clip-rule="evenodd" d="M.769287 15c0-8.28427 6.715733-15 15.000013-15 8.2843 0 15 6.71573 15 15 0 8.2843-6.7157 15-15 15C7.48502 30 .769287 23.2843.769287 15z" fill="#fff"/><path fill-rule="evenodd" clip-rule="evenodd" d="M15.3204 12.1919l.0315.5191-.5246-.0636c-1.9096-.2436-3.5779-1.0698-4.99431-2.4574l-.69248-.68856-.17837.50846c-.37772 1.1334-.1364 2.3303.65051 3.1354.41965.4449.32526.5084-.3987.2436-.25181-.0847-.47215-.1483-.49313-.1165-.07345.0741.17836 1.038.37772 1.4194.27279.5296.82888 1.0486 1.43746 1.3558l.5141.2437-.6086.0105c-.58753 0-.60851.0106-.54556.2331.20986.6885 1.03876 1.4194 1.96206 1.7372l.6505.2224-.5666.339c-.8394.4872-1.8256.7626-2.81189.7838-.47215.0106-.86036.053-.86036.0847 0 .106 1.28005.6992 2.02495.9322 2.2349.6885 4.8894.3919 6.8829-.7839 1.4165-.8368 2.8329-2.4998 3.4939-4.1099.3568-.858.7135-2.4256.7135-3.1777 0-.4873.0315-.5508.619-1.1334.3463-.339.6715-.7097.7345-.8156.1049-.2013.0944-.2013-.4407-.0212-.8918.3177-1.0177.2754-.5771-.2013.3253-.3389.7135-.95331.7135-1.13339 0-.03177-.1574.02119-.3357.11652-.1889.10593-.6086.26481-.9234.36015l-.5665.18007-.5141-.34955c-.2833-.19067-.682-.40252-.8919-.46607-.5351-.1483-1.3535-.12711-1.8361.04237-1.3115.47666-2.1404 1.7054-2.046 3.0506z" fill="#fff"/></svg>