<svg width="113" height="43" viewBox="0 0 113 43" fill="none" xmlns="http://www.w3.org/2000/svg">
<path d="M111.258 36.0289C109.086 22.3409 100.4 3.55998 82.8959 10.2701C73.2035 13.9855 62.6921 30.7839 71.5458 40.1469C74.7113 43.4945 76.4266 39.001 76.7583 36.3869C77.3607 31.6396 75.604 26.9774 72.6322 23.3077C65.1521 14.0709 54.0919 20.5136 44.7185 21.2659C32.5531 22.2422 16.8694 17.0361 7.54811 9.12609C-0.508035 2.28967 5.70453 4.12996 12.9894 3.62988C18.5294 3.24958 7.07041 2.06963 5.33941 2.15428C3.16411 2.26066 1.51188 0.933711 2.63239 3.3405C4.53085 7.41826 6.12774 12.0397 7.43603 16.3635" stroke="#1C1C1C" stroke-width="2.89406" stroke-linecap="round"/>
</svg>
