<svg width="112" height="43" viewBox="0 0 112 43" fill="none" xmlns="http://www.w3.org/2000/svg">
<path d="M1.554 6.88658C3.72661 20.5746 12.4121 39.3555 29.9166 32.6455C39.609 28.93 50.1204 12.1316 41.2667 2.76863C38.1012 -0.578964 36.3859 3.9145 36.0542 6.52867C35.4518 11.276 37.2085 15.9381 40.1803 19.6078C47.6604 28.8446 58.7206 22.4019 68.094 21.6497C80.2594 20.6733 95.9431 25.8794 105.264 33.7894C113.321 40.6259 107.108 38.7856 99.8231 39.2856C94.2831 39.6659 105.742 40.8459 107.473 40.7612C109.648 40.6549 111.301 41.9818 110.18 39.575C108.282 35.4973 106.685 30.8758 105.376 26.5521" stroke="#1C1C1C" stroke-width="2.89406" stroke-linecap="round"/>
</svg>
