<svg width="160" height="90" viewBox="0 0 160 90" fill="none" xmlns="http://www.w3.org/2000/svg">
<rect width="160" height="90" rx="10" fill="white"/>
<rect x="114" y="10" width="36.1936" height="22" rx="11" fill="#67CE67"/>
<g filter="url(#filter0_d_1303_580)">
<rect x="129.613" y="11.4194" width="19.1613" height="19.1613" rx="9.58064" fill="white"/>
</g>
<path fill-rule="evenodd" clip-rule="evenodd" d="M28.4733 63.7203L26.8188 50.4313L20 51.0754L23.1258 69.7532H30.9136C34.323 65.2684 38.5242 58.8751 38.5242 53.953C38.5639 52.5629 38.2028 51.1907 37.4842 50L31.2741 51.2468C31.738 52.2842 31.9583 53.4141 31.9181 54.5498C31.9181 57.2442 30.0155 61.1972 28.4733 63.7085V63.7203Z" fill="#3D95CE"/>
<path fill-rule="evenodd" clip-rule="evenodd" d="M50.0523 50.0649C42.9617 50.0649 39.4991 56.2456 39.4991 62.0658C39.4991 66.5506 41.6204 70.1432 47.5411 70.1432C49.6999 70.1697 51.8402 69.7408 53.8222 68.8846L54.6494 63.283C52.9286 64.2611 50.9913 64.7952 49.0124 64.837C47.3934 64.837 46.1761 63.9743 46.1761 61.7822C49.8396 61.7467 56.1562 60.24 56.1562 55.3179C56.1562 52.263 53.9699 50.0709 50.0523 50.0709V50.0649ZM50.7259 55.8556C50.7259 57.6282 47.5647 58.2191 46.3061 58.2191C46.4893 56.0624 48.1379 54.5557 49.3964 54.5557C49.572 54.5419 49.7485 54.5659 49.914 54.6259C50.0796 54.686 50.2304 54.7807 50.3563 54.9038C50.4822 55.0269 50.5803 55.1756 50.6441 55.3397C50.7078 55.5039 50.7357 55.6798 50.7259 55.8556V55.8556Z" fill="#3D95CE"/>
<path fill-rule="evenodd" clip-rule="evenodd" d="M59.7133 50.3959L56.6643 69.7533H63.3413L65.4626 56.163C66.1655 55.765 66.9492 55.5307 67.7552 55.4775C68.4052 55.4775 68.937 55.6962 68.937 56.5529C68.937 56.9134 68.8306 57.5634 68.7951 57.8824L66.928 69.7356H73.5695L75.6139 56.807C75.7411 55.9993 75.8141 55.1841 75.8326 54.3667C75.8326 51.7786 74.6508 50.0532 71.271 50.0532C69.2216 50.074 67.2285 50.726 65.563 51.9204L65.4921 50.3782L59.7133 50.3959Z" fill="#3D95CE"/>
<path fill-rule="evenodd" clip-rule="evenodd" d="M80.0042 50.3959L76.9553 69.7533H83.6323L85.7476 56.1629C86.4527 55.7651 87.2383 55.5308 88.0462 55.4775C88.6902 55.4775 89.2279 55.6961 89.2279 56.6593C89.2279 56.9075 89.157 57.3033 89.1216 57.6283L87.2189 69.7296H93.8605L95.9758 56.1393C96.6634 55.7355 97.437 55.5006 98.233 55.4539C98.883 55.4539 99.4148 55.6725 99.4148 56.6356C99.4148 56.8838 99.3439 57.2797 99.3084 57.6047L97.4058 69.7533H104.047L106.092 56.8247C106.219 56.0171 106.292 55.2018 106.31 54.3844C106.31 51.7963 105.129 50.0709 101.713 50.0709C99.4744 50.0592 97.2976 50.807 95.5386 52.1922C94.8531 50.9691 93.4941 50.0709 91.4024 50.0709C89.3984 50.0955 87.4578 50.7763 85.8776 52.009L85.7004 50.3959H80.0042Z" fill="#3D95CE"/>
<path fill-rule="evenodd" clip-rule="evenodd" d="M118.713 50.0649C111.28 50.0649 108.048 55.7788 108.048 61.8826C108.048 66.5151 109.915 70.22 115.552 70.22C123.162 70.22 126.359 63.9684 126.359 57.9355C126.359 53.368 124.315 50.0649 118.713 50.0649ZM114.801 62.1721C114.801 59.8086 115.339 55.1643 117.957 55.1643C119.138 55.1643 119.534 56.2456 119.534 57.8232C119.534 60.1868 118.943 65.0793 116.485 65.0793C115.304 65.0793 114.801 63.9684 114.801 62.1721V62.1721Z" fill="#3D95CE"/>
<defs>
<filter id="filter0_d_1303_580" x="122.613" y="7.41943" width="33.1613" height="33.1614" filterUnits="userSpaceOnUse" color-interpolation-filters="sRGB">
<feFlood flood-opacity="0" result="BackgroundImageFix"/>
<feColorMatrix in="SourceAlpha" type="matrix" values="0 0 0 0 0 0 0 0 0 0 0 0 0 0 0 0 0 0 127 0" result="hardAlpha"/>
<feOffset dy="3"/>
<feGaussianBlur stdDeviation="3.5"/>
<feColorMatrix type="matrix" values="0 0 0 0 0 0 0 0 0 0 0 0 0 0 0 0 0 0 0.12 0"/>
<feBlend mode="normal" in2="BackgroundImageFix" result="effect1_dropShadow_1303_580"/>
<feBlend mode="normal" in="SourceGraphic" in2="effect1_dropShadow_1303_580" result="shape"/>
</filter>
</defs>
</svg>
