<svg width="30" height="36" viewBox="0 0 30 36" fill="none" xmlns="http://www.w3.org/2000/svg"><path d="M13.65.284699L1.98333 5.41754C.783333 5.94567 0 7.13398 0 8.43782v7.75698C0 25.3547 6.4 33.9205 15 36c8.6-2.0795 15-10.6453 15-19.8052V8.43782c0-1.30384-.7833-2.49215-1.9833-3.02028L16.35.284699c-.85-.3795987-1.85-.3795987-2.7 0zM10.4833 24.9256L6.16667 20.651c-.65-.6437-.65-1.6834 0-2.3271.65-.6437 1.7-.6437 2.35 0l3.15003 3.1028 9.8-9.7045c.65-.6437 1.7-.6437 2.35 0 .65.6436.65 1.6834 0 2.3271L12.8333 24.9256c-.6333.6437-1.7.6437-2.35 0z" fill="#FF5F00"/></svg>