<?xml version="1.0" encoding="utf-8"?>
<!-- Generator: Adobe Illustrator 25.2.3, SVG Export Plug-In . SVG Version: 6.00 Build 0)  -->
<svg version="1.1" id="Layer_1" xmlns="http://www.w3.org/2000/svg" xmlns:xlink="http://www.w3.org/1999/xlink" x="0px" y="0px"
	 width="139px" height="40px" viewBox="0 0 139 40" style="enable-background:new 0 0 139 40;" xml:space="preserve">
<g>
	<polygon points="59.2,10.6 53,26.2 60.4,26.2 66.6,10.6 	"/>
	<path d="M85.2,10.6H76L60.9,26.2h7.3l2.1-2.1H79l0.2,2.1h7.5L85.2,10.6z M74.3,20l3.9-4.2l0.3,4.2H74.3z"/>
	<path d="M43.7,17.2l-1.1,3.3h2.8c-0.6,1.3-2.7,1.9-5.3,2.1c-2.4-0.1-4.2-0.8-3.9-3c0.3-2.3,2.6-5.7,7.5-5.7c1.4,0,2.9,0.4,3.4,1.9
		h8.1c0.9-2.2,0.2-6.2-11.1-5.6c-4.3,0-13.4,0.8-16,9.2c-0.9,3.1,0.9,8.9,11.9,7.2c2.6-0.4,8.5-2.3,11.1-0.3l3.6-9L43.7,17.2
		L43.7,17.2z"/>
</g>
<path d="M87.8,26.2L94,10.6h8.9l4.2,8.4l3.4-8.4h6.7L111,26.2h-8.1l-4.5-9.6l-3.8,9.6H87.8z M118.5,10.6l-1.7,4.2h6.7L119,26.3h7
	l4.5-11.6h6.7l1.7-4.2h-20.5L118.5,10.6L118.5,10.6z M24.2,20.8c-1.4-1-5.7-3.1-11.1,0.8c0.9-1.5,4.7-5.8,11.1-3.3
	C24.3,19.1,24.3,20.2,24.2,20.8z"/>
<path d="M23.6,16.4c-8-3.8-12.8,1.9-15.3,4.7C5.7,23.7,1,23,0.3,22.6C0.1,21.8,0,20.8,0.1,20C0,13.3,5.4,7.9,12.2,8
	c2.6,0,5.1,0.8,7.2,2.3C21.4,11.8,22.9,14,23.6,16.4z M24,22.4c-5-3.4-8.4-0.3-9.6,1.3C9.6,28.3,2,25,0.8,24.5
	C2.7,29,7,32.1,12.1,32C18,32.1,22.8,27.9,24,22.4z M132.2,26.9c1.6,0,3-1.4,3-3c0-1.6-1.4-3-3-3s-3,1.4-3,3c0,0.8,0.3,1.5,0.9,2.1
	C130.7,26.6,131.5,26.9,132.2,26.9z M132.2,26.5c-1.4,0-2.4-1.1-2.4-2.6c0-1.4,1-2.6,2.4-2.6s2.4,1.1,2.4,2.6
	C134.8,25.4,133.7,26.5,132.2,26.5z M132.7,24c0.6,0,1-0.3,1-0.9c0-0.5-0.3-0.9-1.2-0.9h-1.4v3.3h0.4V24h0.8l0.9,1.5h0.5L132.7,24z
	 M131.5,23.6v-1.2h0.9c0.4,0,0.9,0.1,0.9,0.6c0,0.7-0.7,0.6-1.2,0.6C132.2,23.6,131.5,23.6,131.5,23.6z"/>
</svg>
