<?xml version="1.0" encoding="utf-8"?>
<!-- Generator: Adobe Illustrator 25.2.3, SVG Export Plug-In . SVG Version: 6.00 Build 0)  -->
<svg version="1.1" id="Layer_1" xmlns="http://www.w3.org/2000/svg" xmlns:xlink="http://www.w3.org/1999/xlink" x="0px" y="0px"
	 width="138px" height="40px" viewBox="0 0 138.5 40" style="enable-background:new 0 0 138.5 40;" xml:space="preserve">
<path d="M66.3,31H62l0,0l-3.7-4.5L54.6,31l0,0h-3.4c0,0,0,0-0.1,0c0,0,0,0,0-0.1l5.5-6.6l-5.4-6.6c0,0,0,0,0-0.1l0,0h4.3l0,0l3.2,4
	l3.3-4l0,0h3.5c0,0,0,0,0.1,0c0,0,0,0,0,0.1l-5.1,6.1L66.3,31C66.4,31,66.4,31,66.3,31C66.4,31,66.3,31,66.3,31z"/>
<path d="M89.6,20c-1.9,0-3.2,1.2-3.5,3.1h6.4V23C92.4,21.3,91.2,20,89.6,20z M95.8,25.2C95.7,25.2,95.7,25.2,95.8,25.2h-9.9
	c0.2,2.2,1.7,3.6,4.1,3.6c1.5,0,3-0.5,5.3-1.7c0,0,0.1,0,0.1,0.1v3l0,0c-2,0.9-4.1,1.5-5.8,1.5c-4.2,0-7.3-3.1-7.3-7.3
	s3-7.3,7.3-7.3c3.8,0,6.3,2.6,6.3,6.1C95.9,23.8,95.8,25.2,95.8,25.2z"/>
<path d="M115.7,14.8c-1.2,0-2.1-1-2.1-2.1s1-2.2,2.1-2.2c1.2,0,2.1,1,2.1,2.2C117.8,13.8,116.9,14.8,115.7,14.8z M113.9,31
	C113.8,31,113.8,31,113.9,31l-0.1-13.4c0,0,0,0,0-0.1h3.5c0,0,0,0,0,0.1V31c0,0,0,0.1-0.1,0.1L113.9,31L113.9,31z"/>
<path d="M72.9,29.1c-0.7,0-1.3-0.1-2-0.3v-8.6c0.9-0.3,1.7-0.4,2.4-0.4c2.4,0,4.1,1.9,4.1,4.5C77.3,27.2,75.5,29.1,72.9,29.1z
	 M73.7,17.1c-1,0-2,0.2-3,0.6h-3.5c0,0-0.1,0-0.1,0.1v21.8c1.1-0.1,2.3-0.5,3.6-1.5v-6.6c0.9,0.1,1.6,0.2,2.2,0.2
	c4.8,0,7.9-2.9,7.9-7.4C81,20,78,17.1,73.7,17.1z"/>
<path d="M107.4,27.9c-1.1,0.6-2,0.9-3,0.9c-2.1,0-3.5-1.6-3.5-4.1c0-3,1.7-4.9,4.3-4.9c0.7,0,1.4,0.2,2.2,0.6
	C107.4,20.4,107.4,27.9,107.4,27.9z M107.4,10.5v7c-1.1-0.3-2-0.4-2.8-0.4c-4.2,0-7.4,3.1-7.4,7.4c0,4.2,2.8,7.2,6.6,7.2
	c1.4,0,2.5-0.3,4-1.1v1.2c1-0.2,2-0.6,3.2-1.4V9.1C110,9.3,108.8,9.5,107.4,10.5z"/>
<path d="M129.7,27.9c-1.1,0.6-2,0.9-2.8,0.9c-2.3,0-3.7-1.6-3.7-4.1c0-2.9,1.7-4.9,4.1-4.9c0.7,0,1.5,0.3,2.4,0.8V27.9z M133.4,17.4
	c0-0.1-0.1-0.2-0.2-0.2h-2.8c-0.1,0-0.2,0.1-0.2,0.2v0.5H130c-1.4-0.6-2.4-0.9-3.5-0.9c-4,0-7,3.3-7,7.5c0,4.3,2.7,7.1,6.9,7.1
	c1.1,0,2.5-0.1,3.8-1.6v1.8c1-0.2,2-0.6,3.1-1.4V17.4z"/>
<path d="M41.4,27.7h8.9c-0.1,1-0.5,2.1-1.3,3.3h-7.6h-1.6h-0.1c-1.2,0-2-0.9-2.1-2l0,0V20v-8.4l0,0c0.1-1.1,1.1-2,2.1-2h0.1h10.3
	c-0.1,1-0.5,2.1-1.3,3.3h-7.6v4.8h7.5c0,0,0.1,0,0.1,0.1V21c0,0,0,0.1-0.1,0.1h-7.5L41.4,27.7L41.4,27.7z"/>
<path d="M30.2,31.3c-0.9,0-1.5-0.7-1.5-1.6s0.6-1.6,1.5-1.6c0.8,0,1.4,0.6,1.4,1.6C31.7,30.7,31,31.3,30.2,31.3z M30.2,28.1
	c-0.9,0-1.7,0.7-1.7,1.7s0.7,1.7,1.7,1.7c0.9,0,1.7-0.7,1.7-1.7S31.1,28.1,30.2,28.1z"/>
<path d="M29.9,29.6v-0.6h0.4c0.2,0,0.5,0,0.5,0.3c0,0.3-0.2,0.3-0.5,0.3C30.2,29.6,29.9,29.6,29.9,29.6z M31,29.3
	c0-0.4-0.3-0.6-0.8-0.6h-0.8v2h0.3v-0.9h0.5l0.5,0.9h0.4l-0.6-0.9C30.8,29.8,31,29.7,31,29.3z"/>
<path d="M136.3,19.8c-0.9,0-1.5-0.7-1.5-1.6c0-0.9,0.6-1.6,1.5-1.6c0.8,0,1.4,0.6,1.4,1.6C137.6,19.2,137.1,19.8,136.3,19.8z
	 M136.3,16.6c-0.9,0-1.7,0.7-1.7,1.7c0,1,0.7,1.7,1.7,1.7c0.9,0,1.7-0.7,1.7-1.7C137.9,17.3,137.2,16.6,136.3,16.6z"/>
<path d="M135.9,18.1v-0.6h0.4c0.2,0,0.5,0,0.5,0.3s-0.2,0.3-0.5,0.3C136.3,18.1,135.9,18.1,135.9,18.1z M137.1,17.8
	c0-0.4-0.3-0.6-0.8-0.6h-0.7v2h0.3v-0.9h0.3l0.5,0.9h0.4l-0.6-0.9C136.9,18.3,137.1,18.2,137.1,17.8z"/>
<path d="M18.8,12.8l-0.7-1.9l-5.5-7.2l1-0.3l9.5,8.1l5.6-1.6c0.7-0.2,1.4-0.2,2-0.2c-1.8-3.8-5-6.8-9.2-8.4C13.2-1.5,4,2.8,1.1,11.2
	c-0.9,2.5-1.2,5.3-0.8,7.8l13.3-4.6L18.8,12.8z"/>
<path d="M31.2,11.2c-0.5,0.3-1.2,0.7-2,1l-5.6,1.6L20,25.6l-1,0.3l0.8-9.1L19.4,15l-5.2,1.5L0.4,19.8c1.1,5.3,4.9,10,10.3,11.9
	c8.3,2.9,17.5-1.4,20.4-9.7C32.5,18.3,32.4,14.5,31.2,11.2z"/>
</svg>
