<?xml version="1.0" encoding="utf-8"?>
<!-- Generator: Adobe Illustrator 25.2.3, SVG Export Plug-In . SVG Version: 6.00 Build 0)  -->
<svg version="1.1" id="Layer_1" xmlns="http://www.w3.org/2000/svg" xmlns:xlink="http://www.w3.org/1999/xlink" x="0px" y="0px"
	 width="156px" height="40px" viewBox="0 0 156 40" style="enable-background:new 0 0 156 40;" xml:space="preserve">
<path d="M59.1,23.3c3.7-0.7,6.3-2.4,6.1-7.9C65.1,8.3,60.8,7,52.8,7h-7v31.2h6.7V25.8h1.6c2.4,0,3.3,1.2,3.4,4.2
	c0.1,3.7,0.3,7,0.7,8.2h7c-0.7-1.3-0.7-4.2-1-8.2C64.3,24.6,63.3,24.2,59.1,23.3z M53.9,20.6h-1.3v-8.2h1.2c3.6,0,4.6,1.3,4.6,3.9
	C58.4,19.8,57.2,20.6,53.9,20.6z M0,12.4h5.4v26h6.9v-26h5.5V7H0V12.4z M33.9,19.8h-6.1V7h-6.9v31.2h6.9v-13h6.1v13.1h7.3V7h-7.3
	V19.8z M75.7,24.9h6.4v-5.2h-6.4v-7.3h8.4V7H68.8v31.2h15.2V33h-8.4L75.7,24.9z M94.7,7h-6.9v31.2h6.9c10.2,0,13.1-5.5,13.1-15.2
	v-0.6C107.9,11.8,105,7,94.7,7z M96.1,32.8h-1.3V12.4h1.3c4.2,0,5.1,3.3,5.1,10S100.3,32.8,96.1,32.8z M144.1,1.8h-7.9V33h6.9V22.8
	h1c8.2,0,11.8-3.6,11.8-10.5C156,5.5,152.1,1.8,144.1,1.8z M143.9,17.4H143V7h0.9c3.6,0,5.2,1.3,5.2,5.2S147.5,17.4,143.9,17.4z
	 M125,22.5c0,3.6-0.4,5.2-3.1,5.2c-2.7,0-3.1-1.8-3.1-5.2V1.8h-7v20c0,7.9,1.9,11.6,10.2,11.6S132,29.5,132,21.8v-20h-7L125,22.5
	L125,22.5z"/>
</svg>
