<?xml version="1.0" encoding="utf-8"?>
<!-- Generator: Adobe Illustrator 25.2.3, SVG Export Plug-In . SVG Version: 6.00 Build 0)  -->
<svg version="1.1" id="Layer_1" xmlns="http://www.w3.org/2000/svg" xmlns:xlink="http://www.w3.org/1999/xlink" x="0px" y="0px"
	 width="166px" height="40px" viewBox="0 0 166 40" style="enable-background:new 0 0 166 40;" xml:space="preserve">
<g>
	<path d="M44.2,8.1c-6.7,0-12,5.5-12,12s5.5,12,12,12c6.7,0,12-5.5,12-12S50.8,8.1,44.2,8.1z M51.9,20.1c0,4.3-3.5,7.7-7.7,7.7
		s-7.7-3.5-7.7-7.7s3.5-7.7,7.7-7.7S51.9,15.8,51.9,20.1z"/>
	<path d="M19.2,8.6H0.7c-0.1,0-0.3,0.1-0.3,0.3v3.6c0,0.1,0.1,0.3,0.3,0.3h7.1v18.7c0,0.1,0.1,0.3,0.3,0.3h3.6
		c0.1,0,0.3-0.1,0.3-0.3V12.7h7.1c0.1,0,0.3-0.1,0.3-0.3V8.9C19.5,8.7,19.4,8.6,19.2,8.6z"/>
	<path d="M165.3,27.5h-8.8V8.9c0-0.1-0.1-0.3-0.3-0.3h-3.6c-0.1,0-0.3,0.1-0.3,0.3v22.7c0,0.1,0.1,0.3,0.3,0.3h12.8
		c0.1,0,0.3-0.1,0.3-0.3v-3.6C165.6,27.6,165.4,27.5,165.3,27.5z"/>
	<path d="M135,31.3l-9.8-22.6c0-0.1-0.1-0.1-0.3-0.1h-4.1c-0.1,0-0.1,0-0.3,0.1l-9.8,22.7c0,0.1,0,0.1,0,0.3c0,0.1,0.1,0.1,0.3,0.1
		h3.9c0.1,0,0.1,0,0.3-0.1l7.7-17.7l7.7,17.7c0,0.1,0.1,0.1,0.3,0.1h3.9c0.1,0,0.1,0,0.3-0.1C135,31.5,135,31.5,135,31.3z"/>
	<path d="M93.4,8.6h-3.6c-0.1,0-0.3,0.1-0.3,0.3v15.8L76.8,8.7c0-0.1-0.1-0.1-0.3-0.1h-3.6c-0.1,0-0.3,0.1-0.3,0.3v22.7
		c0,0.1,0.1,0.3,0.3,0.3h3.6c0.1,0,0.3-0.1,0.3-0.3V15.8l12.6,15.8l0,0l0,0l0,0h3.6c0.1,0,0.3-0.1,0.3-0.3V8.9
		C93.6,8.7,93.6,8.6,93.4,8.6z"/>
</g>
</svg>
