<?xml version="1.0" encoding="utf-8"?>
<!-- Generator: Adobe Illustrator 25.2.3, SVG Export Plug-In . SVG Version: 6.00 Build 0)  -->
<svg version="1.1" id="Layer_1" xmlns="http://www.w3.org/2000/svg" xmlns:xlink="http://www.w3.org/1999/xlink" x="0px" y="0px"
	 width="169px" height="40px" viewBox="0 0 169 40" style="enable-background:new 0 0 169 40;" xml:space="preserve">
<style type="text/css">
	.st0{fill-rule:evenodd;clip-rule:evenodd;}
</style>
<g>
	<path class="st0" d="M22.4,26.2l5.3-0.1c0,0,2.4,2.9,2.7,5.9h-5.1C25.2,30.6,24.2,28.6,22.4,26.2z M14.4,16.7h6.2
		c0,0-8.1-10.5-17.9-8.4c0,0-4.6,1.3-1.1,7.1S15,31.2,15.9,31.9h6.8c0,0-14.2-13.3-16.5-18c-0.1-0.3-0.5-1.9,2.2-1.2
		S14.4,16.7,14.4,16.7z M137.5,31.9c0,0-1.6-6.5-8.9-14.2c-7.9-8.3-11.1-10-17.9-9.6c-6.2,0.3-2.4,7.2-1.9,7.8
		c1.2,1.4,10.8,13.5,13.8,15.9h6.8c0,0-10.5-9.6-15.1-16.2c-0.3-0.6-1.7-2.4-0.8-3c1.3-0.8,4.8,1.7,4.8,1.7s6,4.9,9.2,9.2
		c3.2,4.3,4.2,5.7,4.9,8.3H137.5L137.5,31.9z M149.3,8.5l19.4,23.3h-9.8l-15.3-12.2L154.6,32h-5.7L129.1,8.5h6.2l27.2,21.7
		L143.8,8.5H149.3z M74.1,8.5h7l15.6,11.6l-6-11.6h5.1l7.2,16.1l5.9,7.3h-5.9l-4.8-5.7L74.1,8.5z M67.2,31.9L47.7,8.5h5.7l27.2,21.6
		L62,8.5h5.7l19.4,23.3h-9.8L62.2,19.7l10.7,12.2H67.2z M38,31.9L25.9,8.5h8.4l24,23.3h-6.2L34.4,14.8l9,17.1H38z"/>
</g>
</svg>
