<?xml version="1.0" encoding="utf-8"?>
<!-- Generator: Adobe Illustrator 25.2.3, SVG Export Plug-In . SVG Version: 6.00 Build 0)  -->
<svg version="1.1" id="Layer_1" xmlns="http://www.w3.org/2000/svg" xmlns:xlink="http://www.w3.org/1999/xlink" x="0px" y="0px"
	 width="107px" height="40px" viewBox="0 0 107 40" style="enable-background:new 0 0 107 40;" xml:space="preserve">
<style type="text/css">
	.st0{fill:none;stroke:#000000;stroke-width:4.2206;}
</style>
<path class="st0" d="M18.5,3.5c-4.3,0.1-8.4,2-11.4,5.1s-4.6,7.3-4.5,11.7c0.1,4.3,1.8,8.5,4.9,11.5s7.2,4.7,11.5,4.7
	s8.5-1.7,11.5-4.7c3.1-3,4.8-7.2,4.9-11.5s-1.6-8.5-4.5-11.7c-3-3.1-7.1-5-11.4-5.1C19.5,3.5,18.5,3.5,18.5,3.5z M41.5,3.5
	c-4.3,0.1-8.4,2-11.4,5.1s-4.6,7.3-4.5,11.7c0.1,4.3,1.8,8.5,4.9,11.5s7.3,4.7,11.6,4.7s8.5-1.7,11.5-4.7c3.1-3,4.8-7.2,4.9-11.5
	c0.1-4.3-1.6-8.5-4.5-11.7c-3-3.1-7.1-5-11.4-5.1C42.6,3.5,41.5,3.5,41.5,3.5z M64.6,3.5c-4.3,0.1-8.4,2-11.4,5.1s-4.6,7.3-4.5,11.7
	c0.1,4.3,1.8,8.5,4.9,11.5c3.1,3,7.2,4.7,11.5,4.7s8.5-1.7,11.5-4.7c3.1-3,4.8-7.2,4.9-11.5S79.9,11.8,77,8.6c-3-3.1-7.1-5-11.4-5.1
	C65.6,3.5,64.6,3.5,64.6,3.5z M87.6,3.5c-4.3,0.1-8.4,2-11.4,5.1s-4.6,7.3-4.5,11.7c0.1,4.3,1.8,8.5,4.9,11.5s7.2,4.7,11.5,4.7
	s8.5-1.7,11.5-4.7c3.1-3,4.8-7.2,4.9-11.5s-1.6-8.5-4.5-11.7c-3-3.1-7.1-5-11.4-5.1C88.6,3.5,87.6,3.5,87.6,3.5z"/>
</svg>
