<?xml version="1.0" encoding="utf-8"?>
<!-- Generator: Adobe Illustrator 25.2.3, SVG Export Plug-In . SVG Version: 6.00 Build 0)  -->
<svg version="1.1" id="Layer_1" xmlns="http://www.w3.org/2000/svg" xmlns:xlink="http://www.w3.org/1999/xlink" x="0px" y="0px"
	 width="136px" height="40px" viewBox="0 0 136 40" style="enable-background:new 0 0 136 40;" xml:space="preserve">
<path d="M25.1,10l2.8-4.8c0.8-1.4,0.3-3.2-1.1-4c-1.4-0.8-3.2-0.3-4,1.1L20,7.1C14,5.3,7.3,7.6,4.1,13.3c-2.1,3.6-2.4,7.7-1,11.3
	l5.1-8.9c1.1-2.1,3.1-3.5,5.3-4.1s4.6-0.3,6.7,0.9c4.2,2.5,5.6,7.9,3.3,12.1c-2.5,4.2-7.9,5.6-12.1,3.3l3-5.1c1.4,0.8,3.2,0.3,4-1.1
	c0.8-1.4,0.3-3.2-1.1-4c-1.4-0.8-3.2-0.3-4,1.1L3.9,34.8c-0.8,1.4-0.3,3.2,1.1,4c1.4,0.8,3.2,0.3,4-1.1l2.8-4.8
	c6,1.8,12.6-0.5,15.8-6.2C30.9,21.2,29.7,14.2,25.1,10z"/>
<path d="M37.6,13.5h4.6c2.7,0,4.8,1.3,4.8,4.4s-2.2,4.4-4.8,4.4h-1.8v4.3h-2.7V13.5H37.6z M42.1,19.9c1.3,0,2.2-0.6,2.2-2.1
	s-0.9-2-2.2-2h-1.8v4H42.1z"/>
<path d="M51,13.5h8.6v2.4h-6v3h5.2v2.3h-5.2v3h6.2v2.4h-8.9V13.5H51z"/>
<path d="M64.3,13.5H67v10.7h5.9v2.4h-8.5C64.3,26.5,64.3,13.5,64.3,13.5z"/>
<path d="M75.9,20.1c0-3.8,3-6.7,6.8-6.7s6.8,2.9,6.8,6.7s-3,6.7-6.8,6.7S75.9,23.8,75.9,20.1z M86.6,20.1c0-2.5-1.6-4.3-4-4.3
	s-4,1.8-4,4.3s1.6,4.3,4,4.3C85,24.4,86.6,22.4,86.6,20.1z"/>
<path d="M95.9,15.8h-3.7v-2.4h10.1v2.4h-3.7v10.7h-2.7L95.9,15.8L95.9,15.8z"/>
<path d="M105.2,20.1c0-3.8,3-6.7,6.8-6.7s6.8,2.9,6.8,6.7s-3,6.7-6.8,6.7C108.2,26.7,105.2,23.8,105.2,20.1z M115.9,20.1
	c0-2.5-1.6-4.3-4-4.3s-4,1.8-4,4.3s1.6,4.3,4,4.3S115.9,22.4,115.9,20.1z"/>
<path d="M126.8,20.5c-0.6-0.6-1.5-1.7-1.5-1.7s0.2,1.4,0.2,2.4v5.4H123V13.4h0.3l6.6,6.2c0.6,0.6,1.5,1.7,1.5,1.7s-0.2-1.4-0.2-2.4
	v-5.4h2.5v13.1h-0.3L126.8,20.5z"/>
</svg>
