<svg width="324" height="42" viewBox="0 0 324 42" fill="none" xmlns="http://www.w3.org/2000/svg"><rect width="154.895" height="42" rx="8" transform="matrix(1 0 -.00094 1 .0400391 0)" fill="#1E3A8A"/><rect x=".999057" y="1" width="152.895" height="40" rx="7" transform="matrix(1 0 -.00094 1 169.106 4.2e-7)" fill="url(#paint0_linear_7_5583)" stroke="#DADADA" stroke-width="2"/><path d="M286.404 33.9405v-1.7799c0-.6823-.4-1.1273-1.086-1.1273-.343 0-.715.1186-.972.5043-.2-.3263-.486-.5043-.915-.5043-.285 0-.571.089-.8.4153v-.356h-.6v2.8479h.6v-1.5723c0-.5043.257-.7416.657-.7416.401 0 .601.267.601.7416v1.5723h.6v-1.5723c0-.5043.286-.7416.658-.7416.4 0 .6.267.6.7416v1.5723h.657zm8.89-2.8479h-.972v-.8603h-.6v.8603h-.543v.5637h.543v1.3052c0 .6527.257 1.0383.943 1.0383.258 0 .543-.089.744-.2076l-.172-.534c-.172.1186-.372.1483-.515.1483-.285 0-.4-.178-.4-.4746v-1.2756h.972v-.5637zm5.088-.0593c-.343 0-.571.178-.714.4153v-.356h-.601v2.8479h.601v-1.6019c0-.4747.2-.7417.571-.7417.115 0 .258.0297.372.0594l.171-.5934c-.114-.0296-.285-.0296-.4-.0296zm-7.689.2966c-.286-.2076-.686-.2966-1.115-.2966-.686 0-1.143.356-1.143.9196 0 .4747.343.7416.943.8306l.286.0297c.314.0593.486.1483.486.2967 0 .2076-.229.3559-.629.3559s-.715-.1483-.915-.2966l-.286.4746c.315.2374.744.356 1.172.356.801 0 1.258-.3856 1.258-.9196 0-.5043-.371-.7713-.943-.8603l-.286-.0297c-.257-.0296-.457-.089-.457-.267 0-.2076.2-.3263.514-.3263.343 0 .686.1484.858.2373l.257-.5043zm15.95-.2966c-.343 0-.571.178-.714.4153v-.356h-.601v2.8479h.601v-1.6019c0-.4747.2-.7417.571-.7417.115 0 .258.0297.372.0594l.172-.5934c-.115-.0296-.286-.0296-.401-.0296zm-7.66 1.4833c0 .8602.571 1.4832 1.457 1.4832.401 0 .686-.089.972-.3263l-.286-.5043c-.228.178-.457.267-.714.267-.486 0-.829-.356-.829-.9196 0-.534.343-.89.829-.9197.257 0 .486.089.714.267l.286-.5043c-.286-.2373-.571-.3263-.972-.3263-.886 0-1.457.623-1.457 1.4833zm5.545 0v-1.424h-.6v.356c-.2-.267-.486-.4153-.858-.4153-.772 0-1.372.623-1.372 1.4833 0 .8602.6 1.4832 1.372 1.4832.4 0 .686-.1483.858-.4153v.356h.6v-1.4239zm-2.201 0c0-.5044.314-.9197.829-.9197.486 0 .829.3857.829.9197 0 .5043-.343.9196-.829.9196-.515-.0297-.829-.4153-.829-.9196zm-7.175-1.4833c-.8 0-1.372.5933-1.372 1.4833 0 .8899.572 1.4832 1.401 1.4832.4 0 .8-.1186 1.115-.3856l-.286-.445c-.229.178-.515.2966-.801.2966-.371 0-.743-.1779-.829-.6823h2.03v-.2373c.029-.9196-.486-1.5129-1.258-1.5129zm0 .534c.372 0 .629.2373.686.6823h-1.429c.057-.3857.314-.6823.743-.6823zm14.893.9493v-2.5513h-.6v1.4833c-.2-.267-.486-.4153-.858-.4153-.772 0-1.372.623-1.372 1.4833 0 .8602.6 1.4832 1.372 1.4832.4 0 .686-.1483.858-.4153v.356h.6v-1.4239zm-2.201 0c0-.5044.314-.9197.829-.9197.486 0 .829.3857.829.9197 0 .5043-.343.9196-.829.9196-.515-.0297-.829-.4153-.829-.9196zm-20.067 0v-1.424h-.6v.356c-.2-.267-.486-.4153-.858-.4153-.771 0-1.372.623-1.372 1.4833 0 .8602.601 1.4832 1.372 1.4832.401 0 .686-.1483.858-.4153v.356h.6v-1.4239zm-2.229 0c0-.5044.314-.9197.829-.9197.486 0 .829.3857.829.9197 0 .5043-.343.9196-.829.9196-.515-.0297-.829-.4153-.829-.9196z" fill="#000"/><path d="M301.293 10.2412h-8.959v16.138h8.959v-16.138z" fill="#FF5F00"/><path d="M292.914 18.3104c0-3.2936 1.538-6.2149 3.902-8.1051C295.078 8.83056 292.886 8 290.493 8c-5.667 0-10.252 4.611-10.252 10.3104 0 5.6993 4.585 10.3103 10.252 10.3103 2.393 0 4.585-.8305 6.323-2.2053-2.364-1.8616-3.902-4.8115-3.902-8.105z" fill="#EB001B"/><path d="M313.392 18.3104c0 5.6993-4.585 10.3103-10.252 10.3103-2.392 0-4.585-.8305-6.323-2.2053 2.393-1.8902 3.902-4.8115 3.902-8.105 0-3.2936-1.538-6.2149-3.902-8.1051C298.555 8.83056 300.748 8 303.14 8c5.667 0 10.252 4.6397 10.252 10.3104z" fill="#F79E1B"/><rect x="13.3823" y="19" width="59.9594" height="5" rx="2.5" fill="#3958B1"/><rect x="183.268" y="19" width="59.9594" height="5" rx="2.5" fill="#DADADA"/><path d="M118.219 27.5609h-3.725l2.342-14.2923h3.725l-2.342 14.2923zM111.344 13.2682l-3.571 9.8212-.423-2.1018-1.267-6.4583s-.154-1.2993-1.767-1.2993h-5.8754l-.0768.2675s1.8052.3821 3.9172 1.6432l3.264 12.4199h3.879l5.953-14.2924h-4.033zM140.723 27.5609h3.418l-2.996-14.2923h-2.995c-1.383 0-1.728 1.07-1.728 1.07l-5.53 13.2223h3.878l.768-2.14h4.762l.423 2.14zm-4.109-5.0826l1.958-5.35 1.114 5.35h-3.072zM131.16 16.7072l.538-3.0572s-1.651-.6114-3.38-.6114c-1.843 0-6.259.8025-6.259 4.7386 0 3.7069 5.184 3.7451 5.184 5.694 0 1.949-4.647 1.6051-6.183.3822l-.538 3.21s1.652.8025 4.225.8025c2.534 0 6.413-1.2993 6.413-4.8915 0-3.7068-5.223-4.0507-5.223-5.694 0-1.6814 3.61-1.4521 5.223-.5732z" fill="#fff"/><path d="M107.35 20.9494l-1.267-6.4201s-.154-1.2993-1.767-1.2993h-5.8754l-.0768.2675s2.8422.5732 5.5302 2.7897c2.611 2.0636 3.456 4.6622 3.456 4.6622z" fill="#FAA634"/><defs><linearGradient id="paint0_linear_7_5583" x1=".263645" y1="42" x2="72.7339" y2="-57.0374" gradientUnits="userSpaceOnUse"><stop stop-color="#F9F9F9"/><stop offset="1" stop-color="#fff"/></linearGradient></defs></svg>