<svg width="41" height="40" viewBox="0 0 41 40" fill="none" xmlns="http://www.w3.org/2000/svg">
<path d="M41 13.5C41 20.9558 34.9558 27 27.5 27C20.0442 27 14 20.9558 14 13.5C14 6.04416 20.0442 0 27.5 0C34.9558 0 41 6.04416 41 13.5Z" fill="#FF8FAB"/>
<path d="M23.7696 25.731H15.4363" stroke="#0B172A" stroke-width="1.5" stroke-miterlimit="10" stroke-linecap="round" stroke-linejoin="round"/>
<path d="M19.6028 21.6636V29.9969" stroke="#0B172A" stroke-width="1.5" stroke-miterlimit="10" stroke-linecap="round" stroke-linejoin="round"/>
<path d="M21.0999 4.19706L21.0499 4.31372L16.2166 15.5304H11.4666C10.3333 15.5304 9.24993 15.7637 8.2666 16.1804L11.1833 9.21372L11.2499 9.04706L11.3666 8.78039C11.3999 8.68039 11.4333 8.58039 11.4833 8.49706C13.6666 3.44706 16.1333 2.29706 21.0999 4.19706Z" stroke="#0B172A" stroke-width="1.5" stroke-linecap="round" stroke-linejoin="round"/>
<path d="M30.0832 15.8634C29.3332 15.6301 28.5332 15.5301 27.7332 15.5301H16.2166L21.0499 4.31344L21.0999 4.19678C21.3499 4.28011 21.5832 4.39678 21.8332 4.49678L25.5166 6.04678C27.5666 6.89678 28.9999 7.78011 29.8666 8.84678C30.0332 9.04678 30.1666 9.23011 30.2832 9.44678C30.4332 9.68011 30.5499 9.91344 30.6166 10.1634C30.6832 10.3134 30.7332 10.4634 30.7666 10.5968C31.2166 11.9968 30.9499 13.7134 30.0832 15.8634Z" stroke="#0B172A" stroke-width="1.5" stroke-linecap="round" stroke-linejoin="round"/>
<path d="M35.8694 23.6641V26.9141C35.8694 27.2474 35.8528 27.5808 35.8361 27.9141C35.5194 33.7308 32.2694 36.6641 26.1028 36.6641H13.1028C12.7028 36.6641 12.3028 36.6308 11.9194 36.5808C6.61945 36.2308 3.78612 33.3974 3.43612 28.0974C3.38612 27.7141 3.35278 27.3141 3.35278 26.9141V23.6641C3.35278 20.3141 5.38612 17.4308 8.28612 16.1808C9.28612 15.7641 10.3528 15.5308 11.4861 15.5308H27.7528C28.5694 15.5308 29.3694 15.6474 30.1028 15.8641C33.4194 16.8808 35.8694 19.9808 35.8694 23.6641Z" stroke="#0B172A" stroke-width="1.5" stroke-linecap="round" stroke-linejoin="round"/>
<path d="M11.1833 9.21338L8.26658 16.18C5.36658 17.43 3.33325 20.3134 3.33325 23.6634V18.78C3.33325 14.0467 6.69992 10.0967 11.1833 9.21338Z" stroke="#0B172A" stroke-width="1.5" stroke-linecap="round" stroke-linejoin="round"/>
<path d="M35.8643 18.7793V23.6626C35.8643 19.9959 33.431 16.8793 30.0977 15.8793C30.9643 13.7126 31.2143 12.0126 30.7977 10.5959C30.7643 10.4459 30.7143 10.2959 30.6477 10.1626C33.7477 11.7626 35.8643 15.0459 35.8643 18.7793Z" stroke="#0B172A" stroke-width="1.5" stroke-linecap="round" stroke-linejoin="round"/>
</svg>
