<svg width="120" height="158" viewBox="0 0 120 158" fill="none" xmlns="http://www.w3.org/2000/svg"><circle opacity=".1" cx="60" cy="77" r="60" fill="url(#paint0_linear_7_5586)"/><g filter="url(#filter0_d_7_5586)"><path d="M66.6983 39.0484c-4.1978 4.3585-4.352 2.9548-11.2506 8.3642-6.1849 4.8513-6.466 7.6836-10.5171 8.3667-2.8127.4728-5.1379-.4729-9.2015-2.1317-4.6828-1.9091-7.6819-3.1301-8.2813-5.577-.9698-3.9682 5.404-6.9331 4.3347-10.5084-.9028-3.0224-5.7596-1.919-8.1272-5.652-2.5838-4.0758-.6465-11.4517 3.422-14.2614 2.4098-1.6689 3.6159-.3928 7.1921-2.3944 4.1207-2.3094 3.8895-4.7714 6.8538-5.61955 3.897-1.11589 5.5109 2.79725 9.2935 2.02165 5.0558-1.0409 4.8718-8.59941 10.1664-9.48762 2.9022-.48789 5.8367.17514 7.8337.79814 1.9969.623 3.2329 1.03083 3.9093 2.21678.8332 1.47618-.0572 2.66212.7461 5.2717.4103 1.3211.8207 1.6038 1.3653 2.7522 1.1788 2.522.9948 4.9365.8381 7.0481-.8032 10.7136-8.5773 18.7926-8.5773 18.7926zM58.3326 112.94s37.0546 5.372 40.2875-2.079c0 0-1.3429-5.582-9.6566-6.27-8.3136-.688-30.6309 8.349-30.6309 8.349z" fill="#000"/><path d="M88.084 92.333s-3.1708 19.578-20.0891 39.794c-1.5925 1.915-2.8894 4.06-3.8472 6.363l-.5819 1.381s-3.979-.691-4.6107-2.66c-.6316-1.969 15.4187-31.757 15.4187-31.757L88.084 92.333z" fill="#fff"/><path d="M63.5665 140.243c.0732 0 .1448-.021.2059-.062.061-.04.1088-.098.1373-.166l.5819-1.381c.9439-2.264 2.2207-4.373 3.7876-6.255 16.7914-20.063 20.1438-39.7817 20.1736-39.9744.0131-.0778.0014-.1579-.0334-.2287-.0348-.0709-.0909-.1288-.1603-.1657-.0695-.0369-.1487-.0508-.2265-.0397-.0777.0111-.15.0466-.2065.1014L74.1084 105.18c-.0274.027-.0509.058-.0696.092-.0423.075-4.0586 7.541-7.9581 15.15-7.9356 15.512-7.6223 16.493-7.4905 16.906.6964 2.159 4.7251 2.882 4.9042 2.912.0238.005.0481.005.0721.003zm23.9189-46.8125c-.9948 4.4786-5.4388 21.3295-19.7757 38.4635-1.6159 1.94-2.9321 4.113-3.9044 6.447l-.4651 1.101c-1.1987-.25-3.6035-1.031-4.0288-2.349-.3034-1.546 9.2438-20.066 15.3541-31.413l12.8199-12.2495z" fill="#000"/><path d="M60.4508 138.1l.8953-2.63c4.0039-1.403 3.4295 1.634 3.3598 3.218-.0696 1.584 2.5018 7.794 3.9243 9.007 1.4225 1.213.6367 3.135.6367 3.135s-4.832 1.786-8.4256-.783c-3.5935-2.57-6.2495-13.308-6.2495-13.308 1.9745-3.428 6.0456-4.311 6.0456-4.311-.5676.828-.8869 1.803-.9199 2.808-.0331 1.006.2214 2 .7333 2.864z" fill="#5479F7"/><path d="M65.5581 151.823c1.3048-.003 2.6005-.217 3.8373-.635.0484-.019.0925-.047.1297-.083.0372-.036.0667-.079.0867-.127.0348-.088.8729-2.185-.7461-3.563-1.3429-1.149-3.8596-7.223-3.795-8.712 0-.135.0149-.283.0249-.435.0696-1.039.1641-2.46-.7461-3.153-.6615-.5-1.6886-.5-3.1384 0-.0538.018-.1027.049-.1428.089-.0401.041-.0704.09-.0885.144l-.5994 1.751c-.2792-.732-.376-1.521-.2819-2.299.0941-.778.3761-1.521.8216-2.164.0462-.062.0728-.136.0764-.212.0035-.077-.0162-.153-.0565-.219-.0411-.065-.1011-.116-.1718-.145-.0708-.03-.1489-.037-.2236-.02-.1716.038-4.2526.958-6.2894 4.489-.0487.084-.063.183-.0398.277.1095.446 2.7356 10.922 6.3963 13.541 1.4542 1.002 3.1846 1.518 4.9464 1.476zm3.417-1.286c-.858.271-4.8917 1.374-7.9207-.79-3.2156-2.3-5.7199-11.667-6.0655-12.963 1.3404-2.214 3.6308-3.293 4.8693-3.738-.3841.829-.5605 1.74-.5136 2.653.0468.913.3154 1.801.7822 2.586.035.063.0875.114.1512.148.0636.033.1355.047.2069.04.0713-.007.1393-.034.1957-.078.0565-.045.099-.104.1226-.172l.8356-2.452c1.0892-.358 1.8502-.378 2.2705-.058.5869.45.4974 1.591.4502 2.502 0 .16-.0199.313-.0274.453-.0721 1.684 2.5316 8.006 4.0561 9.317.9873.846.7187 2.115.5869 2.552z" fill="#000"/><path d="M58.6972 144.565c-1.8229-3.353-2.4272-7.316-2.6286-9.688-.5807.539-1.0785 1.162-1.4772 1.849 0 0 2.6535 10.759 6.2495 13.326s8.4256.783 8.4256.783c.1821-.496.2493-1.028.1964-1.554-6.7717 1.469-8.0749.238-10.7657-4.716z" fill="#000"/><path d="M69.4639 149.281c-.0631-.616-.3619-1.183-.8332-1.581-1.4225-1.219-3.9939-7.431-3.9242-9.008.0696-1.576.6441-4.621-3.3598-3.217l-.8953 2.629c-.5145-.865-.7705-1.861-.7374-2.869.0331-1.008.3538-1.986.9239-2.815-1.6982.437-3.2658 1.282-4.5684 2.462.2014 2.372.8058 6.335 2.6286 9.688 2.6908 4.949 3.994 6.18 10.7658 4.711z" fill="#E72E80"/><path d="M65.2208 150.222c1.455-.041 2.9018-.234 4.3172-.575.091-.02.1715-.072.2258-.148.0542-.076.0784-.17.0677-.263-.0733-.709-.4175-1.362-.9599-1.821-1.3429-1.149-3.8597-7.223-3.795-8.712 0-.135.0149-.283.0249-.435.0696-1.039.1641-2.46-.7461-3.153-.6615-.5-1.6886-.5-3.1385 0-.0537.018-.1026.049-.1427.089-.0401.041-.0704.09-.0886.144l-.5993 1.751c-.2792-.732-.376-1.521-.2819-2.299.094-.778.3761-1.521.8216-2.164.0461-.062.0728-.136.0763-.212.0036-.077-.0161-.153-.0564-.219-.0411-.065-.1011-.116-.1718-.145-.0708-.03-.1489-.037-.2237-.02-1.7647.447-3.3932 1.324-4.7424 2.552-.0415.039-.0736.087-.0938.14-.0203.054-.0282.111-.0231.168.2238 2.657.8704 6.52 2.6709 9.835 2.0293 3.728 3.3548 5.487 6.8588 5.487zm3.805-1.233c-6.446 1.346-7.493.02-10.0023-4.604-1.7806-3.273-2.3725-7.193-2.569-9.355.9988-.873 2.1533-1.547 3.4021-1.987-.3841.83-.5605 1.741-.5136 2.655.0468.914.3154 1.802.7822 2.587.035.063.0875.114.1512.148.0636.033.1355.047.2069.04.0713-.007.1393-.034.1957-.078.0565-.045.099-.104.1226-.172l.8356-2.452c1.0893-.358 1.8502-.378 2.2705-.058.5869.45.4974 1.591.4502 2.502 0 .16-.0199.313-.0274.453-.0721 1.684 2.5317 8.006 4.0561 9.317.3141.262.5385.617.6417 1.014l-.0025-.01z" fill="#000"/><path d="M62.2043 145.724c.037 0 .0738-.005.1094-.015.0472-.015.091-.038.129-.069.0381-.032.0696-.071.0927-.114.0231-.044.0374-.092.042-.141.0047-.05-.0004-.099-.015-.147-.6519-2.174-1.1685-4.386-1.5468-6.625-.0077-.049-.025-.096-.0508-.139-.0258-.043-.0597-.08-.0998-.109-.0401-.029-.0855-.051-.1337-.062-.0482-.012-.0982-.014-.1472-.006-.049.007-.096.025-.1383.051-.0423.026-.0792.06-.1084.1-.0292.04-.0502.086-.0619.135-.0116.048-.0137.098-.006.148.3822 2.274.9072 4.522 1.5717 6.73.0242.077.0726.145.1381.192.0654.048.1444.072.225.071z" fill="#000"/><path d="M70.3883 145.658c-.2835-.125.3283-3.695-.199-5.209-.5272-1.513-6.6076-15.237-7.013-29.568-.4053-14.3318 11.9545-11.6546 11.9545-11.6546s-3.5065 33.3996 3.8223 44.7506c0 0-2.4495 4.399-8.5648 1.681z" fill="#fff"/><path d="M74.1014 146.916c1.0237.017 2.0352-.226 2.9404-.707.9052-.481 1.6749-1.185 2.2374-2.046.0358-.058.0548-.126.0548-.195s-.019-.136-.0548-.195c-7.1722-11.109-3.8-44.1727-3.7652-44.5055.0101-.0921-.014-.1847-.0677-.26s-.1333-.128-.2233-.1478c-.2138-.045-5.2746-1.0984-8.9105 1.9443-2.4495 2.049-3.6258 5.442-3.4816 10.088.2487 8.544 2.4869 18.239 6.6947 28.818.1641.413.2835.713.3357.866.2885.825.2039 2.409.1418 3.562-.0697 1.314-.092 1.709.2487 1.867 1.2064.569 2.5175.879 3.8496.911zm4.4118-2.938c-.5297.771-2.855 3.538-7.8262 1.404-.015-.238 0-.766.0348-1.201.0671-1.219.1567-2.887-.1791-3.853-.0597-.168-.1741-.458-.3481-.898-4.1705-10.509-6.4062-20.104-6.645-28.561-.1243-4.401.9624-7.593 3.233-9.49 2.8524-2.3867 6.7941-2.0014 7.958-1.8413-.388 3.7653-3.0664 33.4343 3.7726 44.4403z" fill="#000"/><path d="M89.4386 149.782c-.2548-.646-.6549-1.224-1.1688-1.689-1.7409-1.609-10.3405-7.066-10.3405-7.066s-4.2974.626-2.2258 3.538c0 0-4.459-.958-5.5383-.675-.7958.21-.7237 4.286-.6292 6.437.0142.352.1633.685.416.928.2528.244.5895.379.9394.378h17.2764c.2202.001.4374-.052.6326-.155.1952-.102.3627-.251.4879-.433.1251-.183.2042-.393.2304-.613.0262-.22-.0013-.443-.0801-.65z" fill="#E72E80"/><path d="M70.8912 152h17.2764c.2821.001.5603-.066.8107-.197.2504-.131.4655-.321.6267-.554.157-.231.2556-.498.2872-.776.0317-.279-.0046-.561-.1057-.822-.2771-.7-.7102-1.327-1.2658-1.832-1.7408-1.614-10.0396-6.883-10.3927-7.106-.074-.046-.1619-.066-.2487-.055-.0945.015-2.375.363-2.9693 1.764-.1022.259-.1492.536-.1381.814.0112.278.0802.551.2027.8-1.3777-.27-4.0262-.733-4.8991-.5-.388.102-1.1913.312-.9078 6.818.023.444.2146.862.5352 1.169.3207.306.7461.477 1.1883.477zm18.2015-2.089c.0578.147.0786.307.0604.465-.0183.157-.0749.308-.1649.438-.0913.134-.2138.244-.3568.32-.143.076-.3022.115-.4638.115H70.8912c-.2546.001-.4997-.097-.6848-.273-.185-.176-.296-.417-.31-.672-.189-4.346.1393-5.85.3706-6.063.7585-.177 3.6731.323 5.3468.683.0734.015.1496.008.2187-.021s.1281-.078.1692-.141c.0412-.063.0627-.137.0618-.212-.0008-.076-.0241-.149-.0668-.211-.46-.648-.5993-1.199-.4153-1.636.3333-.784 1.6364-1.176 2.2581-1.291 1.0445.665 8.5773 5.481 10.1664 6.95.4779.427.8508.96 1.0893 1.556l-.0025-.007z" fill="#000"/><path d="M69.5338 150.308v.02c.0141.351.1632.684.4159.928.2528.243.5895.379.9394.378h17.2764c.354 0 .6944-.138.9489-.385.2544-.248.4029-.585.4139-.941H69.5338zM84.7356 148.664c.0854 0 .1682-.03.2346-.084.0664-.054.1123-.129.13-.214.0178-.084.0064-.171-.0324-.248-.0388-.076-.1025-.137-.1805-.172l-8.3137-3.723c-.0899-.038-.1911-.039-.2819-.003-.0907.036-.1637.106-.2034.196-.0397.09-.0428.191-.0088.283.034.092.1024.167.1907.209l8.3137 3.723c.0476.022.0994.033.1517.033z" fill="#000"/><path d="M63.7285 48.9177S55.8053 79.7524 52.167 116.104c0 0 9.4153 3.61 26.7862-4.551 17.3709-8.162 19.6738-.686 19.6738-.686L82.793 47.6592l-19.0645 1.2585z" fill="#fff"/><path d="M58.2574 117.29c4.5584 0 11.564-1.036 20.86-5.405 9.5745-4.503 14.4388-4.17 16.8312-3.105 1.8925.844 2.3228 2.177 2.3277 2.19.0322.089.0966.162.1803.205.0838.044.1807.053.2713.028.0907-.026.1683-.085.2174-.166.0491-.081.066-.177.0473-.27L83.161 47.5589c-.0218-.0852-.0725-.1601-.1433-.2117-.0708-.0516-.1574-.0767-.2446-.071l-19.0645 1.251c-.0785.0048-.1535.0345-.2143.0849-.0607.0503-.1041.1187-.1239.1953-.0771.3078-7.958 31.275-11.569 67.2436-.008.084.0122.168.0573.239.0451.07.1125.124.1914.152.1641.075 2.273.848 6.2073.848zm34.0454-9.926c-2.9842 0-7.2915.924-13.5013 3.841-15.4062 7.238-24.5779 5.114-26.2292 4.629 3.4295-34.0277 10.6936-63.4888 11.4546-66.5687l18.4851-1.2185 15.2869 61.0342c-.4632-.408-.9868-.741-1.5519-.986-.935-.418-2.2133-.731-3.9491-.731h.0049z" fill="#000"/><path d="M70.3836 21.8961s6.8837-.1476 11.8624 4.0558c4.9788 4.2034 12.902 12.7402 14.2375 19.8108 1.3354 7.0707-8.0476 5.9223-12.5886 1.3911-4.5411-4.5311-13.5113-25.2577-13.5113-25.2577z" fill="#E72E80"/><path d="M56.2496 25.6179s9.1443-5.4869 20.6262-2.6971l9.7884 21.8975c.2985.6607.3361 1.4109.1052 2.0985s-.713 1.2612-1.3486 1.6044c-3.325 1.7689-10.5121 4.1984-22.7053 1.8765-.9633-.1806-1.8453-.6627-2.5201-1.3776-.6748-.7148-1.108-1.6259-1.2376-2.6031l-2.7082-20.7991z" fill="#E72E80"/><path d="M93.3397 32.6738s3.5862 11.6419 3.2504 13.8912c-.3357 2.2493-.8704 4.9864-3.8571 3.1099-2.9868-1.8765-1.9075-13.8761-1.9075-13.8761l2.5142-3.125z" fill="#fff"/><path d="M94.4513 50.6698c.2634.0016.5239-.0548.7634-.1651 1.1564-.538 1.4922-2.2168 1.7409-3.8932.3432-2.3068-3.1161-13.5783-3.2653-14.0587-.0207-.0639-.0582-.1209-.1085-.165-.0504-.0441-.1118-.0735-.1775-.0852-.0658-.0138-.1341-.0089-.1974.014-.0632.023-.1188.0632-.1607.1161l-2.5167 3.1275c-.0457.0573-.0734.127-.0796.2002-.1119 1.251-1.0097 12.2873 2.0815 14.2289.7311.4603 1.3653.6805 1.9199.6805zm-1.2634-17.2213c1.0918 3.6204 3.2802 11.3891 3.034 13.053-.2089 1.4061-.4973 2.9423-1.3205 3.3201-.4651.2152-1.1265.0575-1.9696-.4729-2.2631-1.4211-2.0343-10.053-1.7408-13.4107l1.9969-2.4895z" fill="#000"/><path d="M88.0507 40.6674l-.6714-.2602 4.9464-14.2689 5.0931-.9332.674.2577-10.0421 15.2046z" fill="#fff"/><path d="M93.1439 39.7308l-5.0932.9358 4.9489-14.2689 5.0932-.9358-4.9489 14.2689zM83.7218 43.6478c.0458-.001.0911-.0095.1343-.025.0471-.0182.0901-.0457.1265-.0809.0363-.0352.0653-.0773.0853-.124.0199-.0466.0304-.0968.0307-.1476.0004-.0507-.0094-.101-.0287-.1479l-5.1951-13.4083c-.0359-.0929-.1071-.1676-.1978-.2077s-.1936-.0423-.2859-.0062c-.0923.0362-.1666.1078-.2065.199-.0399.0913-.0421.1948-.0061.2877l5.1976 13.4282c.0284.0687.0764.1275.1379.1689.0615.0414.1338.0636.2078.0638z" fill="#000"/><path d="M73.5701 47.418c-1.648.2116-3.3204.1269-4.9389-.2502-8.9926-2.1392-6.2595-16.6558-6.2595-16.6558l-6.1202-4.889c-12.0192 13.3382-4.0835 29.6137 8.6096 31.5828 3.9576.6199 8.0087-.0324 11.5764-1.864-3.5836-2.6971-3.4394-5.9397-2.8674-7.9238z" fill="#E72E80"/><path d="M92.4023 35.4629l-.8032-2.3994-3.4817 5.4894.8331-2.5346c-.6583.386-1.2225.9151-1.6513 1.5488-.6565 1.0008-1.1887 3.7755-1.221 3.9431-1.5369 1.2836-6.6251 5.1767-12.5041 5.8947-.572 2.0016-1.0395 4.9865 2.5416 7.6787 7.7616-3.8731 12.4096-11.5092 12.4096-11.5092 3.4194-2.517 3.877-8.1115 3.877-8.1115z" fill="#fff"/><path d="M76.1115 55.4592c.0579.0004.1151-.0133.1666-.0401 7.391-3.6879 12.044-10.8386 12.519-11.5917 3.4816-2.5996 3.9566-8.099 3.979-8.3342.0041-.0507-.0019-.1017-.0174-.1501l-.8033-2.3994c-.0225-.0672-.0636-.1266-.1183-.1713-.0548-.0447-.121-.0729-.191-.0813-.07-.0084-.141.0034-.2047.0339-.0636.0305-.1173.0786-.1549.1386l-1.9672 3.1c-.0152-.0902-.0609-.1724-.1293-.2327-.0571-.0479-.1272-.0776-.2012-.0852-.074-.0076-.1486.0073-.2141.0427-.7138.4141-1.3251.9855-1.7881 1.6713-.6316.9558-1.124 3.3077-1.2434 3.9482-1.5493 1.2735-6.5306 5.0315-12.2081 5.7246-.0727.0085-.1412.0384-.197.0861-.0557.0476-.0962.1108-.1164.1816-.6142 2.1442-1.0072 5.3142 2.6759 8.0839.0619.0467.1366.073.2139.0751zm15.9161-19.9535c-.0697.6606-.6864 5.5345-3.7304 7.7562-.0392.029-.0722.0655-.097.1076-.0472.0751-4.6007 7.461-12.0489 11.259-2.9669-2.3343-2.8301-4.8814-2.2905-6.898 5.9064-.8131 11.0095-4.7538 12.4494-5.9448.0665-.0562.1113-.1341.1268-.2201.1866-.9858.669-3.0525 1.1664-3.8056.1766-.2661.3817-.512.6117-.7331l-.4575 1.3937c-.0293.087-.0257.1818.0099.2664.0356.0846.1008.1531.1832.1926.0824.0394.1764.0471.2641.0215.0877-.0255.1631-.0826.2118-.1603l3.0663-4.8288.5347 1.5937z" fill="#000"/><path d="M70.1898 98.123l-6.0133 2.117.6068-16.6161 3.8497-17.454 1.7508 2.1092-.194 29.8439z" fill="#E72E80"/><path d="M32.6277 93.2248l16.7094-32.1457 19.2957 5.0916-4.4565 34.0693-31.5486-7.0152z" fill="#F35EA0"/><path d="M64.707 67.5357c.0856.0002.1687-.0293.2353-.0836.0666-.0542.1126-.1298.1303-.2141l2.0218-9.7303c.0192-.0977-.0006-.1992-.055-.2825-.0544-.0833-.1391-.1418-.236-.1628-.0966-.02-.1971-.0007-.2796.0537-.0825.0544-.1402.1394-.1606.2365l-2.0218 9.7328c-.0102.0481-.0108.0978-.0018.1462.0091.0484.0275.0945.0543.1357.0268.0412.0615.0766.102.1042.0405.0276.086.0469.134.0567l.0771.0075zM52.7477 63.8129c.075-.0002.1482-.0229.2103-.0652.062-.0424.1101-.1025.1379-.1725.3854-.8932 10.2808-18.0144 12.7328-18.2922.7685-.085 1.2982.0376 1.5792.3603.3954.4579.2064 1.2235.2064 1.231-.0187.0941-.0009.1918.0497.2731.0507.0813.1304.14.2227.164.0923.024.1903.0116.2738-.0348.0834-.0464.1461-.1232.175-.2146 0-.0451.2885-1.1484-.3606-1.9065-.4501-.523-1.2011-.7331-2.2382-.6181-3.1683.3503-13.2799 18.5874-13.3471 18.765-.0175.046-.0259.095-.0245.1443.0014.0492.0125.0977.0326.1426.0201.0449.0489.0853.0847.119.0357.0336.0777.0598.1236.077.0448.0191.0931.0285.1417.0276z" fill="#000"/><path d="M71.5595 47.938c.692.0001 1.383-.0543 2.0666-.1626.099-.0153.1878-.0695.247-.1506.0593-.0812.084-.1827.0688-.2822-.0151-.0996-.069-.189-.1497-.2486-.0807-.0596-.1816-.0845-.2805-.0692-9.3805 1.4787-14.7995-8.139-14.8542-8.2366-.0243-.0429-.0568-.0805-.0956-.1107-.0387-.0303-.0831-.0526-.1304-.0656-.0474-.013-.0968-.0165-.1455-.0103-.0487.0062-.0956.022-.1383.0465-.0426.0245-.08.0572-.1101.0962-.03.039-.0522.0836-.0651.1312-.0129.0477-.0164.0974-.0102.1464.0061.049.0218.0962.0462.1391.0497.0926 4.9339 8.777 13.551 8.777z" fill="#000"/><path d="M50.2385 87.8335l-7.5602.7831 5.4289-10.4208 8.9851-12.52.4526 1.5812-7.3064 20.5765z" fill="#E72E80"/><path d="M42.6772 88.9938h.0373l7.5601-.7931c.0705-.0075.1374-.035.1929-.0793.0555-.0443.0973-.1036.1205-.1709l7.3065-20.5765c.0248-.0747.0248-.1555 0-.2302l-.4527-1.5813c-.0193-.0677-.0573-.1286-.1094-.1756-.0522-.0471-.1165-.0784-.1855-.0904-.069-.012-.14-.0042-.2048.0225-.0649.0267-.1209.0712-.1618.1284l-8.9851 12.5101c-.01.0144-.0191.0294-.0273.045l-5.4264 10.4484c-.0317.06-.0466.1275-.0431.1954.0035.0678.0253.1335.063.1899.0361.0499.0837.0904.1387.1178.055.0275.1157.0411.1771.0398zm7.2866-1.5012l-6.635.688 5.0956-9.7778 8.5201-11.8745.2089.7256-7.1896 20.2387z" fill="#000"/><path d="M45.014 55.1094l12.0739 10.5734L42.664 88.6237 25.2905 69.9963S39.145 62.0149 45.014 55.1094z" fill="#FF85BB" fill-opacity=".9"/><path d="M42.6769 88.9929h.0348c.0566-.005.1113-.0233.1596-.0532.0483-.03.0891-.0709.119-.1194l14.4239-22.9409c.048-.0755.0674-.1658.0546-.2545-.0128-.0887-.0569-.1697-.1242-.2284L45.2683 54.8256c-.0375-.0324-.081-.057-.1279-.0725-.0469-.0154-.0965-.0214-.1457-.0176-.0961.0107-.1848.0571-.2487.1301-5.7571 6.7779-19.4748 14.7218-19.6115 14.7993-.052.0264-.0973.0645-.1322.1114-.035.0469-.0587.1012-.0693.1589-.0084.0561-.004.1134.0128.1675.0168.0542.0455.1038.0842.1452l17.3734 18.6274c.035.0376.0774.0674.1245.0876.0471.0203.0979.0305.149.03zm13.9266-23.2436L42.6173 88.0171 25.8955 70.0853c2.3028-1.3611 13.7673-8.2992 19.149-14.4391l11.559 10.1031z" fill="#000"/><path d="M53.6341 66.7088c.0585-.0001.1162-.0139.1685-.0404.0522-.0265.0976-.0649.1324-.1122l7.4035-10.1081c.0587-.0803.0833-.1808.0684-.2793-.015-.0985-.0682-.1871-.148-.2461-.0798-.0591-.1796-.0838-.2776-.0688-.0979.015-.1859.0686-.2446.1488l-7.4035 10.1081c-.0291.0398-.0502.0849-.0619.1328-.0118.048-.0141.0978-.0067.1466.0074.0488.0243.0956.0498.1379.0254.0422.0588.079.0984.1082.064.0476.1417.0731.2213.0725zM46.3384 59.6763c.0906.002.179-.0291.2486-.0876 4.6306-3.9706 16.9407-14.419 18.2886-15.0645.0923-.0606.1989-.0956.309-.1013.11-.0057.2197.018.3177.0688.557.3102.8157 1.5787.8629 2.0016.005.0489.0195.0964.0429.1397.0234.0432.0552.0813.0934.112.0382.0308.0821.0536.1292.067.047.0135.0963.0174.1449.0115.0982-.0107.1882-.0602.2502-.1376.062-.0774.091-.1764.0805-.2752-.0224-.2052-.2487-2.0191-1.2434-2.5746-.2027-.108-.4288-.1634-.6581-.1612-.2293.0022-.4544.0619-.655.1737-1.7085.8232-17.7663 14.5842-18.4502 15.1697-.0751.0649-.1218.1571-.1297.2564-.0079.0994.0235.1978.0874.274.0351.0402.0784.0724.1268.0944.0485.022.1011.0333.1543.0332z" fill="#000"/><path d="M67.6727 16.8123l.179 4.5836 3.8348.7682s-2.3028 4.7187-12.4767 2.0741l3.6259-2.4094.9376-6.2976 3.8994 1.2811z" fill="#fff"/><path d="M64.8369 25.424c5.5855 0 7.0976-2.9349 7.1747-3.095.0251-.0507.0385-.1064.0392-.1631.0006-.0566-.0115-.1127-.0354-.1639-.0239-.0513-.0591-.0965-.1028-.1321-.0437-.0357-.0949-.0609-.1497-.0738l-3.5389-.7106-.1691-4.2884c-.0019-.0758-.0267-.1493-.0711-.2105-.0444-.0612-.1064-.1074-.1776-.1323l-3.9093-1.2785c-.0514-.017-.1059-.0224-.1596-.0159-.0537.0065-.1054.0247-.1513.0534-.0447.0272-.0833.0635-.1133.1066s-.0507.092-.0608.1436l-.9127 6.1324-3.4816 2.3169c-.0609.0394-.109.0959-.1384.1625-.0293.0666-.0386.1404-.0267.2123.0119.0718.0445.1386.0937.1921.0492.0534.113.0912.1833.1086 1.8601.5181 3.7776.7988 5.7074.8357zm6.2172-3.0024c-.848 1.0008-3.6856 3.3226-10.9224 1.6563l2.8997-1.9316c.0426-.0282.079-.065.1068-.1081.0278-.043.0465-.0914.0548-.1421l.8729-5.8571 3.233 1.0608.1691 4.3235c.0039.0841.0356.1645.0902.2284.0545.0639.1287.1077.2107.1243l3.2852.6456z" fill="#000"/><path d="M70.7066 10.1644c-1.0246-2.73217-2.8276-1.21096-3.979-.67052-1.1515.54042-2.1661-1.879-3.4817-1.19095-1.3156.68805.2785 2.50197.5446 3.28767.2661.7856-1.2434 0-1.788.3602-.3557.2377-.4154.7907.0795 1.4487.3032.4048.7025.7266 1.1614.9357.7187 2.387 3.2702 4.3685 5.3816 3.5679 2.1114-.8006 2.1164-7.6436 2.0816-7.7387z" fill="#fff"/><path d="M67.6252 18.4619c.3872.0012.7714-.0683 1.134-.2052.5322-.2026.9798-.7005 1.3304-1.4862.9948-2.2318 1.0669-6.4702.965-6.7379-.3457-.92821-.8108-1.48865-1.4176-1.71634-.8952-.33526-1.8229.17014-2.5664.57546-.1816.09758-.3507.19016-.4974.26272-.3208.15012-.6739-.10759-1.2186-.54544-.6142-.5004-1.3777-1.11089-2.2755-.63801-.1568.07434-.2965.18086-.4099.31271-.1135.13185-.1984.28611-.2491.4529-.2139.73309.281 1.6038.6764 2.3018.1144.1977.2214.3879.291.538-.097 0-.2114-.0276-.3009-.0401-.4377-.0625-.9301-.1326-1.2832.1026-.1139.0764-.2109.1756-.2849.2914-.074.1158-.1235.2457-.1454.3817-.0472.2827 0 .7506.4178 1.3135.3092.4097.7039.7462 1.1564.9858.5018 1.4733 1.5495 2.695 2.9246 3.4102.5431.2801 1.143.4308 1.7533.4404zm2.7156-8.2091c.0647 1.0008-.1964 6.6754-1.8452 7.3009-.3765.1262-.7749.1731-1.1702.1378-.3953-.0353-.7792-.152-1.1277-.343-1.2397-.6552-2.172-1.7766-2.5938-3.12-.0146-.0564-.0423-.1084-.0808-.1519-.0384-.0435-.0866-.0772-.1406-.0983-.3925-.1866-.7339-.4666-.9947-.8157-.1811-.2003-.2797-.4623-.2761-.733.0045-.0352.0164-.069.0348-.0992.0184-.0302.043-.0561.0722-.076.1144-.0776.5222-.02.7659.015.4402.0626.8555.1226 1.0943-.1651.0685-.0906.1116-.1981.1247-.3112.0132-.1132-.0042-.2277-.0501-.3318-.1116-.2799-.2473-.5495-.4054-.8057-.3109-.5454-.7461-1.29099-.6093-1.71884.0225-.06983.0601-.13384.1099-.18746.0499-.05361.1108-.09554.1786-.12279.4352-.23018.8431.05755 1.4623.55795.5794.46787 1.2434 1.00084 1.9895.64051.1741-.08006.3531-.18014.5421-.28273.6466-.35028 1.3778-.7506 1.9547-.53292.3805.15262.7038.56795.9649 1.24348z" fill="#000"/></g><defs><linearGradient id="paint0_linear_7_5586" x1="60" y1="17" x2="60" y2="137" gradientUnits="userSpaceOnUse"><stop stop-color="#E72E80" stop-opacity=".5"/><stop offset="1" stop-color="#E72E80"/></linearGradient><filter id="filter0_d_7_5586" x="18.4844" y="0" width="84.5156" height="158" filterUnits="userSpaceOnUse" color-interpolation-filters="sRGB"><feFlood flood-opacity="0" result="BackgroundImageFix"/><feColorMatrix in="SourceAlpha" values="0 0 0 0 0 0 0 0 0 0 0 0 0 0 0 0 0 0 127 0" result="hardAlpha"/><feOffset dy="2"/><feGaussianBlur stdDeviation="2"/><feComposite in2="hardAlpha" operator="out"/><feColorMatrix values="0 0 0 0 0.905882 0 0 0 0 0.180392 0 0 0 0 0.501961 0 0 0 0.15 0"/><feBlend in2="BackgroundImageFix" result="effect1_dropShadow_7_5586"/><feBlend in="SourceGraphic" in2="effect1_dropShadow_7_5586" result="shape"/></filter></defs></svg>