<svg width="250" height="120" viewBox="0 0 250 120" fill="none" xmlns="http://www.w3.org/2000/svg"><g clip-path="url(#clip0_20_793)"><path fill-rule="evenodd" clip-rule="evenodd" d="M45.3629 43h46.8702c1.4223 0 2.7864.565 3.7921 1.5708 1.0058 1.0057 1.5708 2.3698 1.5708 3.7921v17.884c0 1.4218-.5648 2.7853-1.5701 3.7906s-2.3688 1.5701-3.7906 1.5701H75.4235l2.3006 5.6553-10.1546-5.6553H45.3561c-1.4205-.0024-2.7822-.5681-3.7863-1.573-1.0041-1.005-1.5686-2.3671-1.5698-3.7877V48.3652c0-1.4225.5649-2.7869 1.5706-3.793S43.9404 43.0006 45.3629 43z" fill="#7D57A4"/><path d="M42.8994 47.8578c.1771-.2221.4009-.4024.6556-.5281.2546-.1258.5338-.1939.8178-.1995 1.1953-.0831 1.8813.4805 2.0581 1.6909.7374 4.9096 1.527 9.0772 2.3687 12.5029l5.1589-9.8101c.4669-.8855 1.057-1.354 1.7703-1.4053 1.0336-.0726 1.6796.5855 1.938 1.9742.4847 2.7464 1.2308 5.4401 2.2281 8.0444.6196-5.9749 1.6539-10.2944 3.1031-12.9585.1398-.2988.3585-.5538.6325-.7375.274-.1838.5929-.2893.9224-.3052.5365-.0438 1.0689.1228 1.4847.4647.2121.1602.3864.365.5106.6.1242.2351.1951.4945.2079.76.0384.3919-.0405.7863-.2267 1.1333-.9127 1.7046-1.6712 4.5387-2.2757 8.5023-.5848 3.8261-.8009 6.8189-.6483 8.9783.0545.5293-.0406 1.0632-.2742 1.5413-.1133.2413-.2894.4476-.51.5971-.2206.1496-.4774.237-.7435.2529-.6211.0453-1.2399-.2471-1.8632-.8727-2.1881-2.244-3.9259-5.5828-5.2133-10.0164-1.5111 3.0223-2.6445 5.2829-3.4 6.7819-1.3827 2.6596-2.5674 4.0196-3.5542 4.08-.6407.0453-1.1862-.4926-1.6365-1.6139-1.2089-3.0781-2.5054-9.0334-3.8896-17.8658-.0521-.277-.0453-.5618.02-.8359.0652-.2742.1873-.5315.3585-.7553zM93.4936 51.5567c-.3887-.702-.9275-1.3097-1.5778-1.7798-.6503-.4702-1.3963-.7912-2.1848-.9402-.4205-.0884-.8488-.134-1.2784-.136-2.2546 0-4.0966 1.1734-5.5262 3.5201-1.2176 1.9955-1.8513 4.2925-1.8292 6.63 0 1.8133.3778 3.3675 1.1334 4.6625.3879.7032.9266 1.3118 1.5776 1.7821.6509.4702 1.3979.7906 2.1873.9379.4193.0913.8471.1376 1.2761.1383 2.2773 0 4.1186-1.1734 5.5239-3.5201 1.2175-2.0099 1.8516-4.3188 1.8315-6.6686 0-1.8133-.3778-3.3554-1.1334-4.6262zm-2.9693 6.5302c-.3219 1.5414-.9187 2.7027-1.7907 3.4839-.692.6211-1.3252.8742-1.8994.7593-.5742-.1148-1.0359-.6225-1.385-1.5232-.2654-.6833-.4059-1.4089-.4148-2.142-.0027-.5801.055-1.159.1723-1.7272.224-1.0056.6463-1.9565 1.2421-2.797.7828-1.147 1.6003-1.6298 2.4526-1.4484.5757.1163 1.0366.6226 1.3826 1.5186.2656.6825.4054 1.4075.4126 2.1398.0028.5831-.055 1.165-.1723 1.7362zM78.7416 51.5567c-.3888-.702-.9275-1.3097-1.5779-1.7798-.6503-.4702-1.3963-.7912-2.1848-.9402-.4204-.0884-.8488-.134-1.2784-.136-2.2561 0-4.0974 1.1734-5.5239 3.5201-1.2193 1.9949-1.8539 4.2921-1.8314 6.63 0 1.8133.3778 3.3675 1.1333 4.6625.3879.7032.9267 1.3118 1.5776 1.7821.6509.4702 1.3979.7906 2.1873.9379.4193.0913.8471.1376 1.2762.1383 2.2787 0 4.1208-1.1734 5.5261-3.5201 1.2215-2.0089 1.861-4.3175 1.8473-6.6686 0-1.8133-.3777-3.3554-1.1333-4.6262h-.0181zm-2.9694 6.5302c-.3218 1.5444-.9202 2.7072-1.7952 3.4884-.692.6211-1.3252.8742-1.8994.7594-.5742-.1149-1.0344-.6241-1.3804-1.5278-.2655-.6833-.406-1.4089-.4148-2.142-.0028-.5801.0549-1.159.1722-1.7272.2264-1.0048.6485-1.9553 1.2422-2.797.7797-1.147 1.5972-1.6282 2.4525-1.4439.5757.1164 1.0359.6226 1.3804 1.5187.2652.6827.4057 1.4074.4148 2.1397.0028.5802-.055 1.159-.1723 1.7272v.0045z" fill="#fff"/><path d="M103.551 51.3548c-1.567 1.5579-2.351 3.5322-2.351 5.9228 0 2.5794.777 4.6625 2.33 6.2492 1.554 1.5866 3.585 2.3769 6.095 2.3709.832-.0206 1.657-.1493 2.455-.3831v-3.8012c-.694.2204-1.416.3418-2.144.3604-1.247 0-2.244-.4186-2.992-1.2557-.748-.8372-1.121-1.9743-1.12-3.4113 0-1.3359.371-2.436 1.113-3.3003.339-.4136.767-.7452 1.252-.9697.485-.2245 1.015-.3363 1.55-.3268.792.005 1.58.1195 2.341.34v-3.8194c-.84-.2129-1.704-.3173-2.57-.3105-2.401 0-4.388.7782-5.959 2.3347zm16.338-2.3347c-2.172 0-3.868.7223-5.089 2.1669-1.221 1.4446-1.825 3.459-1.813 6.043 0 2.8016.604 4.9443 1.813 6.4282 1.209 1.4839 2.967 2.2266 5.272 2.2282 2.229 0 3.946-.7428 5.15-2.2282 1.205-1.4854 1.811-3.5692 1.818-6.2514 0-2.6883-.612-4.757-1.836-6.2062-1.224-1.4491-2.996-2.176-5.315-2.1805zm1.865 12.24c-.194.317-.469.5765-.797.7518-.328.1753-.697.26-1.068.2455-.352.0102-.699-.0777-1.003-.2539-.304-.1762-.554-.4336-.72-.7434-.394-.6619-.591-1.9864-.591-3.9735 0-3.0932.78-4.6398 2.341-4.6398 1.662 0 2.493 1.5647 2.493 4.6942 0 1.9433-.218 3.2497-.655 3.9191zm16.93-11.7867l-.843 3.5995c-.219.9218-.424 1.8662-.614 2.8333l-.472 2.4934c-.453-2.4888-1.067-5.462-1.843-8.9194h-5.474l-2.056 16.0254h4.101l1.115-11.0455 2.799 11.0432h2.931l2.67-11.0432 1.159 11.0205h4.286l-2.176-16.0072h-5.583zm19.611 0l-.843 3.5995c-.219.9218-.424 1.8662-.614 2.8333l-.472 2.4934c-.453-2.4888-1.068-5.462-1.845-8.9194h-5.471l-2.063 16.0095h4.1l1.113-11.0432 2.802 11.0432h2.928l2.68-11.0296 1.158 11.0205h4.286l-2.171-16.0072h-5.588zm13.308 9.6787h3.853v-3.332h-3.853v-2.9467h4.429v-3.4h-8.758v16.0254h8.787v-3.4295h-4.458v-2.9172zm16.653-2.5273c.588-.9328.801-2.0536.597-3.1371-.204-1.0835-.811-2.0496-1.699-2.7041-1.18-.8735-2.789-1.3102-4.828-1.3102h-5.045v16.0254h4.331V58.191h.071l3.499 7.2987h4.575l-3.459-7.2261c.807-.3288 1.492-.9018 1.958-1.6388zm-6.644-.2584v-3.8058c1.027.0242 1.762.1965 2.206.5168.453.3196.666.85.666 1.5867 0 1.1031-.957 1.6705-2.872 1.7023zm9.879-5.0116c-1.572 1.5579-2.358 3.5322-2.358 5.9228 0 2.5794.778 4.6587 2.335 6.2378 1.556 1.5791 3.588 2.3694 6.095 2.371.834-.0158 1.662-.1408 2.464-.3718v-3.8012c-.694.2204-1.416.3418-2.144.3604-1.249 0-2.247-.4186-2.995-1.2557-.748-.8372-1.125-1.9705-1.133-3.4 0-1.3358.372-2.4359 1.115-3.3003.339-.4136.767-.7451 1.252-.9697.485-.2245 1.015-.3363 1.55-.3268.796.0008 1.589.1114 2.355.3287v-3.8194c-.842-.2153-1.708-.3197-2.577-.3105-2.402 0-4.388.7782-5.959 2.3347zm14.053 10.7145v-2.9172h3.853v-3.332h-3.853v-2.9467h4.429v-3.4h-8.761v16.0254H210v-3.4295h-4.456z" fill="#000"/></g><defs><clipPath id="clip0_20_793"><path fill="#fff" transform="translate(40 43)" d="M0 0h170v34.2629H0z"/></clipPath></defs></svg>