<svg width="216" height="122" viewBox="0 0 216 122" fill="none" xmlns="http://www.w3.org/2000/svg">
<path d="M44 50.7637H51.6747L56.1435 62.2688L60.6704 50.7637H68.1429L56.8909 78H49.371L52.4511 70.7828L44 50.7637Z" fill="#3A3A3A"/>
<path d="M75.9273 50.3057C70.1609 50.3057 66.5156 55.5097 66.5156 60.6921C66.5156 66.5238 70.5123 71.1474 75.8179 71.1474C79.7756 71.1474 81.2679 68.7208 81.2679 68.7208V70.611H87.9617V50.7638H81.2679V52.5681C81.2679 52.5681 79.603 50.3057 75.9273 50.3057V50.3057ZM77.3511 56.6838C80.0117 56.6838 81.3847 58.8023 81.3847 60.7139C81.3847 62.7723 79.9137 64.7924 77.3511 64.7924C75.2271 64.7924 73.3078 63.0458 73.3078 60.8015C73.3078 58.5255 74.8516 56.6838 77.3511 56.6838Z" fill="#3A3A3A"/>
<path d="M90.2671 70.611V42H97.2684V52.6369C97.2684 52.6369 98.9313 50.3082 102.414 50.3082C106.674 50.3082 109.171 53.5024 109.171 58.0668V70.611H102.22V59.7852C102.22 58.2405 101.489 56.7483 99.833 56.7483C98.147 56.7483 97.2684 58.2631 97.2684 59.7852V70.611H90.2671Z" fill="#3A3A3A"/>
<path d="M121.107 50.3081C114.504 50.3081 110.572 55.361 110.572 60.7748C110.572 66.9357 115.333 71.1474 121.132 71.1474C126.754 71.1474 131.673 67.1268 131.673 60.8781C131.673 54.0409 126.522 50.3081 121.107 50.3081V50.3081ZM121.17 56.7423C123.503 56.7423 125.117 58.6973 125.117 60.7821C125.117 62.5603 123.613 64.7536 121.17 64.7536C118.932 64.7536 117.253 62.9469 117.253 60.7627C117.253 58.6586 118.649 56.7423 121.17 56.7423V56.7423Z" fill="#3A3A3A"/>
<path d="M143.336 50.3081C136.733 50.3081 132.801 55.361 132.801 60.7748C132.801 66.9357 137.562 71.1474 143.362 71.1474C148.983 71.1474 153.902 67.1268 153.902 60.8781C153.902 54.0409 148.752 50.3081 143.336 50.3081V50.3081ZM143.4 56.7423C145.732 56.7423 147.346 58.6973 147.346 60.7821C147.346 62.5603 145.842 64.7536 143.4 64.7536C141.161 64.7536 139.482 62.9469 139.482 60.7627C139.482 58.6586 140.878 56.7423 143.4 56.7423V56.7423Z" fill="#3A3A3A"/>
<path d="M159.426 71.0325C161.994 71.0325 164.075 68.9379 164.075 66.3542C164.075 63.7704 161.994 61.6758 159.426 61.6758C156.859 61.6758 154.777 63.7704 154.777 66.3542C154.777 68.9379 156.859 71.0325 159.426 71.0325Z" fill="#3A3A3A"/>
<path d="M165.603 59.957H157.234L164.662 42H173L165.603 59.957Z" fill="#3A3A3A"/>
</svg>
