<svg width="31" height="31" viewBox="0 0 31 31" fill="none" xmlns="http://www.w3.org/2000/svg"><path opacity=".1" fill-rule="evenodd" clip-rule="evenodd" d="M.538452 15.2693C.538452 6.98502 7.25418.269287 15.5385.269287c8.2842 0 15 6.715733 15 15.000013 0 8.2843-6.7158 15-15 15-8.28432 0-15.000048-6.7157-15.000048-15z" fill="#fff"/><path fill-rule="evenodd" clip-rule="evenodd" d="M21.7897 10.1126c.6885.1889 1.2306.7456 1.4146 1.4524.3344 1.2812.3344 3.9543.3344 3.9543s0 2.673-.3344 3.9542c-.184.7069-.7261 1.2635-1.4146 1.4525-1.2476.3433-6.251.3433-6.251.3433s-5.0034 0-6.25109-.3433c-.68846-.189-1.23064-.7456-1.41464-1.4525-.33427-1.2812-.33427-3.9542-.33427-3.9542s0-2.6731.33427-3.9543c.184-.7068.72618-1.2635 1.41464-1.4524 1.24769-.34331 6.25109-.34331 6.25109-.34331s5.0034 0 6.251.34331zm-7.751 3.1566v5l4-2.4999-4-2.5001z" fill="#fff"/></svg>