<svg width="32" height="32" viewBox="0 0 32 32" fill="none" xmlns="http://www.w3.org/2000/svg"><path d="M0 16c0 8.8366 7.16344 16 16 16 8.8366 0 16-7.1634 16-16 0-8.83656-7.1634-16-16-16C7.16344 0 0 7.16344 0 16z" fill="#111"/><path d="M23.6 12.1004c-.2-.7-.7-1.2-1.4-1.4-1.2-.3-6.3-.3-6.3-.3s-5 0-6.29999.3c-.7.2-1.20001.7-1.40001 1.4-.2 1.3-.2 3.9-.2 3.9s0 2.6.3 3.9c.2.7.7 1.2 1.4 1.4 1.2.3 6.3.3 6.3.3s5 0 6.3-.3c.7-.2 1.2-.7 1.4-1.4.3-1.3.3-3.9.3-3.9s0-2.6-.4-3.9zm-9.2 6.3v-4.8l4.2 2.4-4.2 2.4z" fill="#fff"/></svg>